<svg width="335" height="264" viewBox="0 0 335 264" fill="none" xmlns="http://www.w3.org/2000/svg">
<g clip-path="url(#clip0_858_169)">
<path d="M304.124 0.172394H0.129761V195.059H304.124V0.172394Z" fill="#E6E6E6"/>
<path d="M295.285 24.6161H8.67627V183.53H295.285V24.6161Z" fill="white"/>
<path d="M303.994 0H0V12.9277H303.994V0Z" fill="#C6CAE2"/>
<path d="M9.59727 9.0054C10.9192 9.0054 11.9909 7.93265 11.9909 6.60934C11.9909 5.28604 10.9192 4.21329 9.59727 4.21329C8.27529 4.21329 7.20361 5.28604 7.20361 6.60934C7.20361 7.93265 8.27529 9.0054 9.59727 9.0054Z" fill="white"/>
<path d="M18.683 9.0054C20.0049 9.0054 21.0766 7.93265 21.0766 6.60934C21.0766 5.28604 20.0049 4.21329 18.683 4.21329C17.361 4.21329 16.2893 5.28604 16.2893 6.60934C16.2893 7.93265 17.361 9.0054 18.683 9.0054Z" fill="white"/>
<path d="M27.7687 9.0054C29.0906 9.0054 30.1623 7.93265 30.1623 6.60934C30.1623 5.28604 29.0906 4.21329 27.7687 4.21329C26.4467 4.21329 25.375 5.28604 25.375 6.60934C25.375 7.93265 26.4467 9.0054 27.7687 9.0054Z" fill="white"/>
<path d="M118.576 52.5923H66.036V87.3321H118.576V52.5923Z" fill="#E6E6E6"/>
<path d="M233.295 52.5923H181.237V87.3321H233.295V52.5923Z" fill="#C6CAE2"/>
<path d="M175.935 52.5923H123.396V87.3321H175.935V52.5923Z" fill="#E6E6E6"/>
<path d="M291.137 52.5923H238.597V87.3321H291.137V52.5923Z" fill="#E6E6E6"/>
<path d="M118.576 96.9821H66.036V134.134H118.576V96.9821Z" fill="#E6E6E6"/>
<path d="M233.295 96.9821H181.237V134.134H233.295V96.9821Z" fill="#E6E6E6"/>
<path d="M175.935 96.9821H123.396V134.134H175.935V96.9821Z" fill="#E6E6E6"/>
<path d="M291.137 96.9821H238.597V134.134H291.137V96.9821Z" fill="#E6E6E6"/>
<path d="M118.576 143.784H66.036V178.524H118.576V143.784Z" fill="#E6E6E6"/>
<path d="M233.295 143.784H181.237V178.524H233.295V143.784Z" fill="#E6E6E6"/>
<path d="M175.935 143.784H123.396V178.524H175.935V143.784Z" fill="#E6E6E6"/>
<path d="M291.137 143.784H238.597V178.524H291.137V143.784Z" fill="#E6E6E6"/>
<rect x="14.4604" y="32.3273" width="43.3813" height="5.78997" fill="#D9D9D9"/>
<rect x="14.4604" y="52.5923" width="28.9209" height="3.85998" fill="#D9D9D9"/>
<rect x="14.4604" y="91.1921" width="28.9209" height="3.85998" fill="#D9D9D9"/>
<rect x="14.4604" y="129.792" width="28.9209" height="3.85998" fill="#D9D9D9"/>
<rect x="14.4604" y="68.0322" width="28.9209" height="3.85998" fill="#D9D9D9"/>
<rect x="14.4604" y="106.632" width="28.9209" height="3.85998" fill="#D9D9D9"/>
<rect x="14.4604" y="145.232" width="28.9209" height="3.85998" fill="#D9D9D9"/>
<rect x="14.4604" y="60.3123" width="28.9209" height="3.85998" fill="#D9D9D9"/>
<rect x="14.4604" y="98.912" width="28.9209" height="3.85998" fill="#D9D9D9"/>
<rect x="14.4604" y="137.512" width="28.9209" height="3.85998" fill="#D9D9D9"/>
<rect x="14.4604" y="75.7522" width="28.9209" height="3.85998" fill="#D9D9D9"/>
<rect x="14.4604" y="114.352" width="28.9209" height="3.85998" fill="#D9D9D9"/>
<rect x="14.4604" y="152.952" width="28.9209" height="3.85998" fill="#D9D9D9"/>
<rect x="66.036" y="31.3624" width="139.784" height="7.71997" rx="3.85998" fill="#D9D9D9"/>
<ellipse cx="287.281" cy="35.2223" rx="3.85611" ry="3.85998" fill="#D9D9D9"/>
<ellipse cx="275.712" cy="35.2223" rx="3.85611" ry="3.85998" fill="#D9D9D9"/>
<ellipse cx="264.144" cy="35.2223" rx="3.85611" ry="3.85998" fill="#D9D9D9"/>
<path d="M331.104 259.716L325.525 261.261L316.915 240.457L325.148 238.177L331.104 259.716Z" fill="#FFB6B6"/>
<path d="M321.099 260.77L331.858 257.789L333.732 264.57L316.199 269.427C315.953 268.537 315.885 267.606 315.998 266.689C316.111 265.772 316.403 264.887 316.858 264.083C317.313 263.279 317.922 262.572 318.649 262.004C319.377 261.435 320.209 261.016 321.099 260.77Z" fill="#2F2E41"/>
<path d="M272.942 264.011H267.154L264.4 241.662H272.943L272.942 264.011Z" fill="#FFB6B6"/>
<path d="M263.019 262.355H274.182V269.391H255.99C255.99 268.467 256.172 267.552 256.525 266.699C256.878 265.845 257.396 265.069 258.049 264.416C258.702 263.763 259.476 263.244 260.329 262.891C261.182 262.537 262.096 262.355 263.019 262.355Z" fill="#2F2E41"/>
<path d="M265.962 139.11C266.376 139.668 266.906 140.129 267.516 140.46C268.127 140.791 268.802 140.983 269.495 141.025C270.188 141.066 270.881 140.955 271.526 140.699C272.172 140.443 272.753 140.048 273.23 139.543L288.617 146.471L287.217 137.807L272.82 132.557C271.919 131.812 270.776 131.423 269.608 131.465C268.441 131.507 267.329 131.977 266.483 132.784C265.638 133.592 265.118 134.682 265.022 135.848C264.926 137.014 265.261 138.174 265.962 139.11Z" fill="#FFB6B6"/>
<path d="M297.933 191.21C293.099 191.21 288.094 190.489 283.887 188.345C281.654 187.23 279.675 185.665 278.074 183.748C276.473 181.832 275.284 179.605 274.582 177.208C272.39 170.261 275.154 163.436 277.826 156.836C279.482 152.746 281.047 148.883 281.453 145.075L281.594 143.723C282.226 137.651 282.772 132.407 285.795 130.441C287.362 129.421 289.468 129.363 292.235 130.262L318.224 138.713L317.269 188.097L317.111 188.15C316.975 188.196 307.813 191.21 297.933 191.21Z" fill="#2F2E41"/>
<path d="M291.781 114.888C291.781 114.888 304.529 111.107 314.444 112.525C314.444 112.525 308.778 143.718 310.667 154.115C312.555 164.513 277.853 158.133 284.935 148.208L287.296 136.392C287.296 136.392 282.574 131.666 286.824 125.995L291.781 114.888Z" fill="#C6CAE2"/>
<path d="M285.511 190.274L269.8 187.325L275.285 145.07C275.654 143.89 284.151 117.118 288.01 115.669C290.812 114.682 293.677 113.885 296.587 113.284L297.146 113.172L293.995 117.903L281.453 147.987L285.511 190.274Z" fill="#2F2E41"/>
<path d="M277.324 258.833L257.025 255.446L268.417 208.882L285.368 145.204L285.535 146.334C285.549 146.419 287.132 154.737 310.63 151.046L310.837 151.014L310.894 151.215L339.294 251.664L316.163 255.523L295.067 182.236L277.324 258.833Z" fill="#2F2E41"/>
<path d="M305.461 198.181L305.473 197.824C305.488 197.427 306.884 157.948 306.418 142.071C305.95 126.139 311.102 112.343 311.154 112.205L311.196 112.094L311.31 112.062C317.977 110.155 323.76 115.845 323.818 115.903L323.899 115.984L322 131.664L330.129 188.681L305.461 198.181Z" fill="#2F2E41"/>
<path d="M304.466 107.804C310.87 107.804 316.062 102.607 316.062 96.1958C316.062 89.7849 310.87 84.5879 304.466 84.5879C298.061 84.5879 292.869 89.7849 292.869 96.1958C292.869 102.607 298.061 107.804 304.466 107.804Z" fill="#FFB6B6"/>
<path d="M248.982 25.6577C239.537 17.6801 227.98 12.6224 215.716 11.1001C203.452 9.57772 191.01 11.6564 179.905 17.083C168.8 22.5097 159.51 31.0505 153.165 41.666C146.821 52.2816 143.695 64.5142 144.169 76.8753C144.643 89.2365 148.696 101.193 155.835 111.291C162.974 121.388 172.891 129.191 184.379 133.749C195.868 138.308 208.432 139.425 220.543 136.966C232.654 134.507 243.79 128.577 252.596 119.898L330.792 185.945C331.981 186.952 333.522 187.445 335.075 187.315C336.627 187.185 338.064 186.442 339.07 185.251C340.076 184.06 340.568 182.518 340.438 180.964C340.308 179.41 339.567 177.971 338.377 176.964L338.368 176.957L260.173 110.91C269.257 97.8598 273.145 81.8842 271.075 66.114C269.005 50.3438 261.126 35.9159 248.982 25.6577ZM243.941 104.55C237.849 111.777 229.754 117.033 220.678 119.654C211.602 122.275 201.953 122.143 192.952 119.275C183.951 116.407 176.001 110.931 170.109 103.541C164.217 96.1503 160.646 87.1767 159.849 77.7548C159.051 68.3329 161.063 58.8858 165.629 50.6083C170.195 42.3308 177.111 35.5946 185.502 31.2516C193.893 26.9085 203.382 25.1536 212.769 26.2089C222.156 27.2641 231.02 31.0821 238.239 37.1799C243.033 41.2288 246.983 46.1831 249.864 51.76C252.744 57.3368 254.5 63.4271 255.029 69.683C255.559 75.9389 254.852 82.238 252.949 88.2205C251.047 94.203 247.986 99.7519 243.941 104.55Z" fill="#3F3D56"/>
<path opacity="0.3" d="M176.638 110.258C167.476 102.518 161.556 91.6124 160.055 79.706C158.553 67.7996 161.58 55.7634 168.534 45.9874C167.62 46.9079 166.738 47.8721 165.885 48.8797C161.84 53.6781 158.779 59.2269 156.877 65.2095C154.975 71.192 154.268 77.4911 154.797 83.747C155.327 90.0029 157.082 96.0932 159.963 101.67C162.844 107.247 166.794 112.201 171.587 116.25C176.381 120.299 181.924 123.363 187.9 125.267C193.877 127.172 200.17 127.879 206.419 127.349C212.669 126.819 218.753 125.062 224.325 122.178C229.896 119.295 234.845 115.341 238.89 110.543C239.74 109.534 240.541 108.5 241.293 107.443C232.835 115.949 221.492 120.96 209.514 121.482C197.537 122.003 185.801 117.997 176.638 110.258Z" fill="#1F1F1F"/>
<path d="M308.189 159.403C308.863 159.568 309.565 159.583 310.246 159.447C310.927 159.311 311.569 159.027 312.129 158.616C312.688 158.204 313.15 157.675 313.483 157.065C313.816 156.455 314.011 155.78 314.055 155.087L330.312 150.57L323.704 144.802L309.279 149.976C308.11 149.979 306.983 150.412 306.112 151.191C305.24 151.971 304.685 153.043 304.551 154.205C304.416 155.367 304.713 156.538 305.383 157.496C306.054 158.454 307.052 159.132 308.189 159.403Z" fill="#FFB6B6"/>
<path d="M314.946 157.012L313.957 147.604L327.536 140.104L318.683 129.376L320.127 117.324L323.725 115.781L323.837 115.925C325.533 118.108 340.412 137.325 340.412 139.701C340.412 142.141 337.565 149.306 333.671 151.255C329.915 153.135 315.81 156.789 315.211 156.944L314.946 157.012Z" fill="#2F2E41"/>
<path d="M314.955 99.877L314.787 99.5345C314.528 99.0047 312.38 94.5998 312.111 93.4672L309.409 93.7919L302.372 93.793L303.35 92.2947L300.764 92.6392C299.819 92.7565 298.916 93.1044 298.13 93.6535C297.648 93.9807 297.241 94.4099 296.935 94.9121C296.012 96.5275 294.601 99.1699 294.587 99.1964L294.452 99.4492L293.28 97.4345C293.264 97.3564 291.811 89.6145 296.674 86.9889C297.367 85.6057 298.44 84.4587 299.761 83.6885C301.082 82.9182 302.594 82.558 304.112 82.6518C304.667 82.0053 305.45 81.6081 306.289 81.5463C307.443 81.4848 308.64 82.1038 309.842 83.3937C311.44 85.1071 313.627 87.4533 314.95 90.0585L315.315 90.5904C315.834 91.3517 316.091 92.2672 316.045 93.1935C316.326 94.6719 316.227 96.1995 315.756 97.6265L314.955 99.877Z" fill="#2F2E41"/>
</g>
<defs>
<clipPath id="clip0_858_169">
<rect width="335" height="264" fill="white"/>
</clipPath>
</defs>
</svg>
