<svg width="342" height="216" viewBox="0 0 342 216" fill="none" xmlns="http://www.w3.org/2000/svg">
<rect x="0.75" y="0.75" width="340.5" height="214.5" rx="7.25" stroke="#7382D1" stroke-width="1.5"/>
<g clip-path="url(#clip0_1047_2081)">
<path d="M137.421 102.526C137.424 102.015 137.318 101.509 137.112 101.041C136.906 100.574 136.603 100.155 136.224 99.813C135.844 99.4706 135.397 99.2123 134.91 99.0548C134.424 98.8974 133.91 98.8445 133.402 98.8995C133.241 98.9177 133.082 98.947 132.925 98.9873L120.646 88.4658L121.38 84.512L115.328 82.5513L113.503 88.8875C113.288 89.6479 113.323 90.4576 113.604 91.1965C113.885 91.9354 114.396 92.564 115.063 92.9891L130.168 102.54C130.168 102.659 130.174 102.777 130.187 102.895C130.242 103.403 130.404 103.894 130.662 104.335C130.92 104.776 131.268 105.158 131.684 105.455C132.1 105.752 132.574 105.958 133.075 106.059C133.576 106.161 134.093 106.155 134.591 106.042C134.736 106.01 134.879 105.969 135.019 105.919C135.718 105.666 136.323 105.206 136.752 104.599C137.182 103.992 137.415 103.269 137.421 102.526Z" fill="#FFB6B6"/>
<path d="M106.894 114.728H122.726C122.726 115.183 139.042 115.552 139.042 115.552C139.298 115.745 139.531 115.966 139.738 116.212C140.357 116.951 140.696 117.885 140.694 118.849V119.508C140.694 120.601 140.259 121.649 139.486 122.421C138.713 123.194 137.665 123.628 136.572 123.629H106.894C105.801 123.628 104.754 123.193 103.981 122.421C103.208 121.648 102.773 120.601 102.772 119.508V118.849C102.774 117.757 103.209 116.709 103.981 115.937C104.754 115.164 105.802 114.73 106.894 114.728Z" fill="#3F3D56"/>
<path d="M124.115 123.465H119.828V151.156H124.115V123.465Z" fill="#3F3D56"/>
<path d="M136.316 151.5C136.316 152.018 129.82 151.701 121.807 151.701C113.794 151.701 107.298 152.018 107.298 151.5C107.298 150.982 113.794 146.87 121.807 146.87C129.82 146.87 136.316 150.982 136.316 151.5Z" fill="#3F3D56"/>
<path d="M132.446 147.76L136.489 147.759L138.412 137.277L132.445 137.278L132.446 147.76Z" fill="#FFB6B6"/>
<path d="M131.415 151.677L144.45 151.677V151.512C144.45 150.846 144.319 150.186 144.064 149.571C143.809 148.955 143.435 148.396 142.964 147.925C142.493 147.454 141.934 147.081 141.318 146.826C140.703 146.571 140.043 146.44 139.377 146.44H139.376L131.415 146.44L131.415 151.677Z" fill="#2F2E41"/>
<path d="M138.493 141.26L146.552 123.192C147.225 121.669 147.299 119.949 146.76 118.374C146.221 116.799 145.109 115.484 143.644 114.693L126.163 105.321L118.186 104.643L110.827 103.974L110.774 104.064C110.706 104.179 109.124 106.911 110.194 109.906C111.005 112.178 113.115 113.953 116.465 115.181C124.285 118.048 133.319 120.497 136.839 121.418C136.995 121.457 137.14 121.53 137.266 121.63C137.392 121.73 137.495 121.855 137.569 121.998C137.642 122.139 137.686 122.293 137.697 122.452C137.709 122.611 137.687 122.77 137.633 122.92L130.146 139.737C130.068 139.95 130.039 140.179 130.063 140.405C130.088 140.631 130.163 140.848 130.285 141.04C130.406 141.232 130.57 141.394 130.763 141.512C130.957 141.631 131.176 141.704 131.402 141.725L136.997 142.132C137.044 142.136 137.091 142.139 137.139 142.139C137.425 142.139 137.705 142.056 137.946 141.899C138.186 141.743 138.376 141.521 138.493 141.26Z" fill="#CBCBCB"/>
<path d="M129.808 147.76L133.85 147.759L135.774 137.277L129.807 137.278L129.808 147.76Z" fill="#FFB6B6"/>
<path d="M128.777 151.677L141.812 151.677V151.512C141.812 150.846 141.681 150.186 141.426 149.571C141.171 148.955 140.798 148.396 140.326 147.925C139.855 147.454 139.296 147.081 138.68 146.826C138.065 146.571 137.405 146.44 136.739 146.44H136.738L128.777 146.44L128.777 151.677Z" fill="#2F2E41"/>
<path d="M135.525 142.249L143.584 124.181C144.257 122.658 144.331 120.938 143.792 119.363C143.254 117.788 142.141 116.473 140.676 115.681L123.195 106.31L115.218 105.632L109.454 105.132L109.455 105.053C109.387 105.168 107.805 107.9 108.875 110.895C109.686 113.167 110.147 114.942 113.497 116.17C121.317 119.037 130.351 121.486 133.872 122.406C134.027 122.446 134.173 122.519 134.298 122.618C134.424 122.718 134.527 122.844 134.601 122.987C134.675 123.128 134.718 123.282 134.73 123.441C134.741 123.6 134.719 123.759 134.665 123.909L127.178 140.726C127.1 140.939 127.072 141.168 127.096 141.394C127.12 141.62 127.195 141.837 127.317 142.029C127.438 142.221 127.602 142.383 127.796 142.501C127.989 142.62 128.208 142.693 128.434 142.714L134.029 143.121C134.076 143.125 134.124 143.128 134.171 143.128C134.457 143.128 134.738 143.044 134.978 142.888C135.218 142.732 135.408 142.51 135.525 142.249Z" fill="#CBCBCB"/>
<path d="M120.336 105.462C120.723 105.189 126.272 108.099 127.261 105.792C122.645 94.2538 125.826 89.2716 122.998 82.6553C122.5 81.5141 121.75 80.5007 120.803 79.6911C119.857 78.8815 118.74 78.2968 117.535 77.981L110.198 77.6108L110.16 77.6291C108.505 78.4398 107.154 79.7622 106.31 81.4004C105.465 83.0386 105.171 84.9052 105.471 86.7236C105.497 93.9242 109.807 99.416 108.3 104.639C108.237 104.857 108.219 105.086 108.246 105.312C108.273 105.537 108.346 105.755 108.46 105.952C108.57 106.142 108.718 106.308 108.895 106.439C109.071 106.57 109.273 106.663 109.487 106.713L119.175 105.421C119.401 105.475 119.636 105.48 119.865 105.436C120.093 105.392 120.309 105.299 120.499 105.165L120.336 105.462Z" fill="#2F2E41"/>
<path d="M112.647 74.8713C117.12 74.8713 120.746 71.2464 120.746 66.7748C120.746 62.3032 117.12 58.6783 112.647 58.6783C108.174 58.6783 104.548 62.3032 104.548 66.7748C104.548 71.2464 108.174 74.8713 112.647 74.8713Z" fill="#FFB6B6"/>
<path d="M110.067 74.2064C110.497 74.3946 111.378 70.9668 110.984 70.2812C110.397 69.2616 110.431 69.2689 110.042 68.5944C109.652 67.9198 109.565 66.9965 110.069 66.403C110.574 65.8095 111.742 65.8882 111.972 66.6324C111.824 65.2189 113.223 64.0827 114.608 63.7634C115.993 63.4441 117.454 63.6424 118.847 63.3582C120.464 63.0285 122.146 61.6738 121.501 59.8967C121.39 59.6008 121.225 59.3285 121.013 59.0943C120.267 58.2567 119.225 57.899 118.206 57.5532C116.085 56.8337 113.907 56.1052 111.669 56.1847C107.993 56.3152 104.517 58.856 103.278 62.3192C103.124 62.7513 103.005 63.195 102.921 63.6461C102.153 67.7747 104.551 71.8471 108.447 73.4193L110.067 74.2064Z" fill="#2F2E41"/>
<path d="M152.54 87.2262L153.469 92.7392C153.479 92.8006 153.472 92.8637 153.449 92.9216L146.163 111.122C146.134 111.194 146.081 111.254 146.013 111.292C145.946 111.33 145.867 111.344 145.79 111.331C145.714 111.318 145.644 111.279 145.593 111.22C145.541 111.162 145.512 111.088 145.508 111.01L145.2 103.696C145.198 103.648 145.206 103.599 145.224 103.554L151.891 87.1548C151.919 87.0864 151.968 87.0289 152.031 86.9911C152.095 86.9532 152.169 86.9371 152.242 86.9452C152.316 86.9533 152.385 86.9851 152.438 87.0358C152.492 87.0865 152.528 87.1533 152.54 87.2262Z" fill="#3F3D56"/>
<path d="M152.024 87.6494L152.907 92.3857L146.441 108.994L145.601 103.652L152.024 87.6494Z" fill="#1A73E8"/>
<path d="M123.734 111.038C123.893 111.658 144.78 112.33 144.997 112.143C145.191 111.902 145.36 111.642 145.499 111.366C145.718 110.975 145.921 110.583 145.921 110.583L145.578 103.979L125.002 101.781C125.002 101.781 124.091 107.292 123.806 109.824C123.741 110.225 123.717 110.632 123.734 111.038Z" fill="#3F3D56"/>
<path opacity="0.1" d="M142.886 104.678L142.887 110.367L133.787 109.72L134.19 104.06L142.886 104.678Z" fill="#1F1F1F"/>
<path opacity="0.1" d="M131.027 105.663L131.082 105.657L130.652 108.075L125.596 107.716L125.769 105.29L131.027 105.663Z" fill="#1F1F1F"/>
<path opacity="0.1" d="M123.734 111.038C123.893 111.658 144.78 112.33 144.997 112.143C145.191 111.902 145.36 111.642 145.499 111.366L123.806 109.824C123.741 110.225 123.717 110.632 123.734 111.038Z" fill="#1F1F1F"/>
<path d="M115.347 101.176L132.966 104.463C133.01 104.573 133.06 104.681 133.115 104.787C133.355 105.237 133.686 105.632 134.088 105.946C134.49 106.259 134.954 106.485 135.449 106.608C135.946 106.733 136.464 106.751 136.968 106.659C137.472 106.568 137.951 106.37 138.373 106.079C139.136 105.555 139.671 104.758 139.866 103.853C140.061 102.948 139.903 102.003 139.423 101.21C138.943 100.418 138.178 99.8398 137.286 99.5932C136.393 99.3467 135.44 99.4508 134.621 99.8844C134.479 99.9608 134.341 100.047 134.211 100.143L118.907 94.9163L118.124 90.972L111.776 91.3918L112.433 98.0039C112.513 98.7755 112.84 99.5008 113.365 100.072C113.889 100.644 114.584 101.031 115.347 101.176Z" fill="#FFB6B6"/>
<path d="M111.56 94.3411L120.784 91.3103L118.633 85.1342C118.347 84.3141 117.781 83.6213 117.033 83.1784C116.286 82.7354 115.406 82.5708 114.549 82.7135C113.683 82.858 112.896 83.3075 112.332 83.9809C111.767 84.6544 111.463 85.5073 111.472 86.3858L111.56 94.3411Z" fill="#2F2E41"/>
<path d="M170.075 152H92.7031C92.6492 152 92.5976 151.979 92.5595 151.941C92.5214 151.903 92.5 151.851 92.5 151.797C92.5 151.743 92.5214 151.692 92.5595 151.654C92.5976 151.615 92.6492 151.594 92.7031 151.594H170.075C170.128 151.594 170.18 151.615 170.218 151.654C170.256 151.692 170.278 151.743 170.278 151.797C170.278 151.851 170.256 151.903 170.218 151.941C170.18 151.979 170.128 152 170.075 152Z" fill="#CBCBCB"/>
<path d="M249.688 30.5804H155.534V75.2441H249.688V30.5804Z" fill="#C1C1C1"/>
<path d="M246.995 34.4105H158.226V71.6747H246.995V34.4105Z" fill="white"/>
<path d="M249.648 28H155.494V31.9987H249.648V28Z" fill="#C1C1C1"/>
<path d="M158.466 31.0925C158.876 31.0925 159.208 30.7606 159.208 30.3513C159.208 29.942 158.876 29.6102 158.466 29.6102C158.057 29.6102 157.725 29.942 157.725 30.3513C157.725 30.7606 158.057 31.0925 158.466 31.0925Z" fill="#F1F1EF"/>
<path d="M161.28 31.0925C161.69 31.0925 162.022 30.7606 162.022 30.3513C162.022 29.942 161.69 29.6102 161.28 29.6102C160.871 29.6102 160.539 29.942 160.539 30.3513C160.539 30.7606 160.871 31.0925 161.28 31.0925Z" fill="#F1F1EF"/>
<path d="M164.094 31.0925C164.504 31.0925 164.836 30.7606 164.836 30.3513C164.836 29.942 164.504 29.6102 164.094 29.6102C163.685 29.6102 163.353 29.942 163.353 30.3513C163.353 30.7606 163.685 31.0925 164.094 31.0925Z" fill="#F1F1EF"/>
<rect x="158.281" y="34.4963" width="88.7437" height="10.7596" fill="#1A73E8"/>
<rect x="184.884" y="41.3987" width="10.1537" height="10.1506" fill="#D9D9D9"/>
<rect x="184.884" y="53.9854" width="10.1537" height="10.1506" fill="#D9D9D9"/>
<rect x="197.474" y="41.3987" width="10.1537" height="10.1506" fill="#D9D9D9"/>
<rect x="197.474" y="53.9854" width="10.1537" height="10.1506" fill="#D9D9D9"/>
<rect x="210.065" y="41.3987" width="10.1537" height="10.1506" fill="#D9D9D9"/>
<rect x="210.065" y="53.9854" width="10.1537" height="10.1506" fill="#D9D9D9"/>
<g clip-path="url(#clip1_1047_2081)">
<path d="M160.108 41.9133L160.149 41.8567L162.06 38.2308L162.064 38.1924L161.222 36.6101C161.151 36.4776 160.952 36.5111 160.929 36.6595L160.108 41.9133Z" fill="#FFC24A"/>
<path d="M160.132 41.8701L160.163 41.8106L162.054 38.2226L161.214 36.6339C161.144 36.5028 160.967 36.5362 160.944 36.683L160.132 41.8701Z" fill="#FFA712"/>
<g filter="url(#filter0_i_1047_2081)">
<path d="M160.132 41.8701L160.163 41.8106L162.054 38.2226L161.214 36.6339C161.144 36.5028 160.967 36.5362 160.944 36.683L160.132 41.8701Z" fill="#FDA612"/>
</g>
<path d="M162.679 39.3893L163.306 38.7469L162.679 37.5492C162.619 37.4358 162.453 37.4355 162.394 37.5492L162.058 38.1884V38.2429L162.679 39.3893H162.679Z" fill="#F4BD62"/>
<path d="M162.668 39.3625L163.278 38.738L162.668 37.5769C162.61 37.4667 162.469 37.4551 162.412 37.5657L162.075 38.2148L162.064 38.248L162.668 39.3625Z" fill="#FFA50E"/>
<g filter="url(#filter1_i_1047_2081)">
<path d="M162.668 39.3625L163.278 38.738L162.668 37.5769C162.61 37.4667 162.469 37.4551 162.412 37.5657L162.075 38.2148L162.064 38.248L162.668 39.3625Z" fill="#FFA50E"/>
</g>
<path d="M160.108 41.9132L160.127 41.8948L160.193 41.8678L162.639 39.4316L162.67 39.3473L162.06 38.1849L160.108 41.9132Z" fill="#F6820C"/>
<path d="M162.757 43.1418L164.971 41.9076L164.339 38.0156C164.319 37.8939 164.169 37.8457 164.082 37.933L160.108 41.9132L162.309 43.1417C162.378 43.1799 162.455 43.2 162.533 43.2C162.612 43.2 162.689 43.18 162.757 43.1418Z" fill="#FDE068"/>
<path d="M164.951 41.8973L164.324 38.0348C164.304 37.914 164.18 37.864 164.093 37.9506L160.133 41.9057L162.31 43.122C162.378 43.1599 162.454 43.1798 162.532 43.1798C162.61 43.1798 162.686 43.16 162.754 43.1221L164.951 41.8973L164.951 41.8973Z" fill="#FCCA3F"/>
<path d="M162.757 43.1055C162.689 43.1436 162.612 43.1637 162.533 43.1636C162.455 43.1636 162.378 43.1436 162.309 43.1054L160.126 41.8946L160.108 41.9133L162.309 43.1418C162.378 43.1799 162.455 43.2 162.533 43.2C162.612 43.2 162.689 43.18 162.757 43.1419L164.971 41.9077L164.965 41.8743L162.757 43.1055L162.757 43.1055Z" fill="#EEAB37"/>
</g>
</g>
<path d="M56.8068 174V167H57.6368V174H56.8068ZM62.0546 168.39C62.6746 168.39 63.1613 168.577 63.5146 168.95C63.868 169.323 64.0446 169.843 64.0446 170.51V174H63.2146V170.67C63.2146 169.677 62.7513 169.18 61.8246 169.18C61.2713 169.18 60.8413 169.36 60.5346 169.72C60.2346 170.08 60.0846 170.567 60.0846 171.18V174H59.2546V168.5H60.0846V169.59C60.4846 168.79 61.1413 168.39 62.0546 168.39ZM71.4636 168.39C72.2103 168.39 72.8236 168.66 73.3036 169.2C73.7903 169.733 74.0336 170.417 74.0336 171.25C74.0336 172.083 73.7903 172.77 73.3036 173.31C72.817 173.843 72.2003 174.11 71.4536 174.11C70.987 174.11 70.5703 174.003 70.2036 173.79C69.8436 173.57 69.557 173.27 69.3436 172.89V176.5H68.5136V168.5H69.3436V169.63C69.557 169.243 69.847 168.94 70.2136 168.72C70.5803 168.5 70.997 168.39 71.4636 168.39ZM71.3036 173.32C71.857 173.32 72.3103 173.127 72.6636 172.74C73.017 172.353 73.1936 171.857 73.1936 171.25C73.1936 170.65 73.017 170.157 72.6636 169.77C72.3103 169.377 71.857 169.18 71.3036 169.18C70.737 169.18 70.267 169.377 69.8936 169.77C69.5203 170.157 69.3336 170.65 69.3336 171.25C69.3336 171.85 69.5203 172.347 69.8936 172.74C70.267 173.127 70.737 173.32 71.3036 173.32ZM79.7598 168.5H80.5898V174H79.7598V172.89C79.5398 173.27 79.2465 173.57 78.8798 173.79C78.5198 174.003 78.1065 174.11 77.6398 174.11C76.8931 174.11 76.2765 173.843 75.7898 173.31C75.3098 172.77 75.0698 172.083 75.0698 171.25C75.0698 170.417 75.3098 169.733 75.7898 169.2C76.2765 168.66 76.8931 168.39 77.6398 168.39C78.1065 168.39 78.5231 168.5 78.8898 168.72C79.2565 168.94 79.5465 169.243 79.7598 169.63V168.5ZM77.7998 173.32C78.3665 173.32 78.8365 173.127 79.2098 172.74C79.5831 172.347 79.7698 171.85 79.7698 171.25C79.7698 170.65 79.5831 170.157 79.2098 169.77C78.8365 169.377 78.3665 169.18 77.7998 169.18C77.2398 169.18 76.7831 169.377 76.4298 169.77C76.0831 170.157 75.9098 170.65 75.9098 171.25C75.9098 171.857 76.0865 172.353 76.4398 172.74C76.7931 173.127 77.2465 173.32 77.7998 173.32ZM84.8571 168.39C84.9771 168.39 85.0905 168.397 85.1971 168.41V169.26C85.0771 169.247 84.9605 169.24 84.8471 169.24C84.2538 169.24 83.7805 169.43 83.4271 169.81C83.0738 170.183 82.8971 170.713 82.8971 171.4V174H82.0671V168.5H82.8971V169.73C83.2571 168.837 83.9105 168.39 84.8571 168.39ZM90.6094 168.5H91.4394V174H90.6094V172.89C90.3894 173.27 90.0961 173.57 89.7294 173.79C89.3694 174.003 88.9561 174.11 88.4894 174.11C87.7427 174.11 87.1261 173.843 86.6394 173.31C86.1594 172.77 85.9194 172.083 85.9194 171.25C85.9194 170.417 86.1594 169.733 86.6394 169.2C87.1261 168.66 87.7427 168.39 88.4894 168.39C88.9561 168.39 89.3727 168.5 89.7394 168.72C90.1061 168.94 90.3961 169.243 90.6094 169.63V168.5ZM88.6494 173.32C89.2161 173.32 89.6861 173.127 90.0594 172.74C90.4327 172.347 90.6194 171.85 90.6194 171.25C90.6194 170.65 90.4327 170.157 90.0594 169.77C89.6861 169.377 89.2161 169.18 88.6494 169.18C88.0894 169.18 87.6327 169.377 87.2794 169.77C86.9327 170.157 86.7594 170.65 86.7594 171.25C86.7594 171.857 86.9361 172.353 87.2894 172.74C87.6427 173.127 88.0961 173.32 88.6494 173.32ZM92.9468 174V166.3H93.7768V174H92.9468ZM95.2612 174V166.3H96.0912V174H95.2612ZM100.136 168.39C100.989 168.39 101.669 168.68 102.176 169.26C102.682 169.84 102.919 170.587 102.886 171.5H98.1757C98.2157 172.067 98.419 172.513 98.7857 172.84C99.1523 173.167 99.6157 173.33 100.176 173.33C100.996 173.33 101.569 173.01 101.896 172.37H102.756C102.529 172.937 102.186 173.37 101.726 173.67C101.266 173.963 100.739 174.11 100.146 174.11C99.3257 174.11 98.649 173.847 98.1157 173.32C97.589 172.787 97.3257 172.103 97.3257 171.27C97.3257 170.437 97.589 169.75 98.1157 169.21C98.6423 168.663 99.3157 168.39 100.136 168.39ZM100.136 169.17C99.6423 169.17 99.2223 169.313 98.8757 169.6C98.5357 169.887 98.3157 170.26 98.2157 170.72H101.986C101.892 170.253 101.682 169.88 101.356 169.6C101.029 169.313 100.622 169.17 100.136 169.17ZM104.128 174V166.3H104.958V174H104.128ZM107.973 173.58C107.986 173.78 107.71 174.493 107.143 175.72H106.553L107.213 174.09C106.946 174.023 106.813 173.847 106.813 173.56C106.813 173.393 106.866 173.257 106.973 173.15C107.086 173.043 107.226 172.99 107.393 172.99C107.54 172.99 107.67 173.037 107.783 173.13C107.903 173.223 107.966 173.373 107.973 173.58ZM112.734 174V167H113.564V174H112.734ZM124.77 168.5H125.6L123.98 174H122.98L122.44 172.15L121.73 169.36H121.58L120.87 172.15L120.32 174H119.32L117.7 168.5H118.53L119.04 170.23L119.84 173.14L120.63 170.23L121.14 168.5H122.16L122.67 170.23L123.46 173.13L124.26 170.23L124.77 168.5ZM130.824 168.5H131.654V174H130.824V172.89C130.604 173.27 130.311 173.57 129.944 173.79C129.584 174.003 129.171 174.11 128.704 174.11C127.958 174.11 127.341 173.843 126.854 173.31C126.374 172.77 126.134 172.083 126.134 171.25C126.134 170.417 126.374 169.733 126.854 169.2C127.341 168.66 127.958 168.39 128.704 168.39C129.171 168.39 129.588 168.5 129.954 168.72C130.321 168.94 130.611 169.243 130.824 169.63V168.5ZM128.864 173.32C129.431 173.32 129.901 173.127 130.274 172.74C130.648 172.347 130.834 171.85 130.834 171.25C130.834 170.65 130.648 170.157 130.274 169.77C129.901 169.377 129.431 169.18 128.864 169.18C128.304 169.18 127.848 169.377 127.494 169.77C127.148 170.157 126.974 170.65 126.974 171.25C126.974 171.857 127.151 172.353 127.504 172.74C127.858 173.127 128.311 173.32 128.864 173.32ZM135.462 174.11C134.742 174.11 134.145 173.95 133.672 173.63C133.198 173.31 132.908 172.86 132.802 172.28H133.652C133.758 172.653 133.955 172.92 134.242 173.08C134.535 173.24 134.942 173.32 135.462 173.32C135.882 173.32 136.222 173.25 136.482 173.11C136.748 172.963 136.882 172.76 136.882 172.5C136.882 172.34 136.815 172.207 136.682 172.1C136.548 171.987 136.405 171.907 136.252 171.86C136.098 171.813 135.835 171.743 135.462 171.65C135.375 171.63 135.308 171.613 135.262 171.6C134.435 171.393 133.865 171.19 133.552 170.99C133.238 170.79 133.082 170.477 133.082 170.05C133.082 169.53 133.285 169.123 133.692 168.83C134.105 168.537 134.645 168.39 135.312 168.39C135.952 168.39 136.472 168.53 136.872 168.81C137.278 169.083 137.538 169.47 137.652 169.97H136.812C136.612 169.443 136.118 169.18 135.332 169.18C134.898 169.18 134.555 169.257 134.302 169.41C134.048 169.557 133.922 169.75 133.922 169.99C133.922 170.197 134.025 170.35 134.232 170.45C134.438 170.543 134.852 170.67 135.472 170.83C135.765 170.903 135.985 170.96 136.132 171C136.285 171.04 136.465 171.097 136.672 171.17C136.885 171.243 137.042 171.313 137.142 171.38C137.242 171.447 137.345 171.533 137.452 171.64C137.558 171.74 137.632 171.857 137.672 171.99C137.712 172.117 137.732 172.263 137.732 172.43C137.732 172.97 137.515 173.387 137.082 173.68C136.655 173.967 136.115 174.11 135.462 174.11ZM144.212 174.11C143.492 174.11 142.895 173.95 142.422 173.63C141.948 173.31 141.658 172.86 141.552 172.28H142.402C142.508 172.653 142.705 172.92 142.992 173.08C143.285 173.24 143.692 173.32 144.212 173.32C144.632 173.32 144.972 173.25 145.232 173.11C145.498 172.963 145.632 172.76 145.632 172.5C145.632 172.34 145.565 172.207 145.432 172.1C145.298 171.987 145.155 171.907 145.002 171.86C144.848 171.813 144.585 171.743 144.212 171.65C144.125 171.63 144.058 171.613 144.012 171.6C143.185 171.393 142.615 171.19 142.302 170.99C141.988 170.79 141.832 170.477 141.832 170.05C141.832 169.53 142.035 169.123 142.442 168.83C142.855 168.537 143.395 168.39 144.062 168.39C144.702 168.39 145.222 168.53 145.622 168.81C146.028 169.083 146.288 169.47 146.402 169.97H145.562C145.362 169.443 144.868 169.18 144.082 169.18C143.648 169.18 143.305 169.257 143.052 169.41C142.798 169.557 142.672 169.75 142.672 169.99C142.672 170.197 142.775 170.35 142.982 170.45C143.188 170.543 143.602 170.67 144.222 170.83C144.515 170.903 144.735 170.96 144.882 171C145.035 171.04 145.215 171.097 145.422 171.17C145.635 171.243 145.792 171.313 145.892 171.38C145.992 171.447 146.095 171.533 146.202 171.64C146.308 171.74 146.382 171.857 146.422 171.99C146.462 172.117 146.482 172.263 146.482 172.43C146.482 172.97 146.265 173.387 145.832 173.68C145.405 173.967 144.865 174.11 144.212 174.11ZM150.224 168.39C151.077 168.39 151.757 168.68 152.264 169.26C152.77 169.84 153.007 170.587 152.974 171.5H148.264C148.304 172.067 148.507 172.513 148.874 172.84C149.24 173.167 149.704 173.33 150.264 173.33C151.084 173.33 151.657 173.01 151.984 172.37H152.844C152.617 172.937 152.274 173.37 151.814 173.67C151.354 173.963 150.827 174.11 150.234 174.11C149.414 174.11 148.737 173.847 148.204 173.32C147.677 172.787 147.414 172.103 147.414 171.27C147.414 170.437 147.677 169.75 148.204 169.21C148.73 168.663 149.404 168.39 150.224 168.39ZM150.224 169.17C149.73 169.17 149.31 169.313 148.964 169.6C148.624 169.887 148.404 170.26 148.304 170.72H152.074C151.98 170.253 151.77 169.88 151.444 169.6C151.117 169.313 150.71 169.17 150.224 169.17ZM158.076 173.07L158.226 173.76C157.786 173.993 157.29 174.11 156.736 174.11C156.13 174.11 155.65 173.92 155.296 173.54C154.943 173.153 154.766 172.607 154.766 171.9V169.28H153.706V168.5H154.766V167.18L155.596 167V168.5H158.066V169.28H155.596V171.86C155.596 172.847 156.023 173.34 156.876 173.34C157.183 173.34 157.583 173.25 158.076 173.07ZM163.154 173.07L163.304 173.76C162.864 173.993 162.368 174.11 161.814 174.11C161.208 174.11 160.728 173.92 160.374 173.54C160.021 173.153 159.844 172.607 159.844 171.9V169.28H158.784V168.5H159.844V167.18L160.674 167V168.5H163.144V169.28H160.674V171.86C160.674 172.847 161.101 173.34 161.954 173.34C162.261 173.34 162.661 173.25 163.154 173.07ZM164.421 166.24C164.534 166.133 164.674 166.08 164.841 166.08C165.007 166.08 165.144 166.133 165.251 166.24C165.364 166.347 165.421 166.477 165.421 166.63C165.421 166.79 165.364 166.923 165.251 167.03C165.144 167.137 165.007 167.19 164.841 167.19C164.674 167.19 164.534 167.137 164.421 167.03C164.314 166.923 164.261 166.79 164.261 166.63C164.261 166.477 164.314 166.347 164.421 166.24ZM164.421 174V168.5H165.251V174H164.421ZM169.525 168.39C170.145 168.39 170.632 168.577 170.985 168.95C171.339 169.323 171.515 169.843 171.515 170.51V174H170.685V170.67C170.685 169.677 170.222 169.18 169.295 169.18C168.742 169.18 168.312 169.36 168.005 169.72C167.705 170.08 167.555 170.567 167.555 171.18V174H166.725V168.5H167.555V169.59C167.955 168.79 168.612 168.39 169.525 168.39ZM177.406 168.5H178.236V173.94C178.236 174.76 178.003 175.41 177.536 175.89C177.07 176.37 176.433 176.61 175.626 176.61C174.953 176.61 174.37 176.437 173.876 176.09C173.383 175.743 173.07 175.257 172.936 174.63H173.796C173.91 175.023 174.126 175.327 174.446 175.54C174.773 175.76 175.16 175.87 175.606 175.87C176.18 175.87 176.623 175.703 176.936 175.37C177.25 175.043 177.406 174.573 177.406 173.96V172.85C177.186 173.23 176.893 173.53 176.526 173.75C176.16 173.963 175.746 174.07 175.286 174.07C174.54 174.07 173.923 173.803 173.436 173.27C172.956 172.73 172.716 172.05 172.716 171.23C172.716 170.403 172.956 169.723 173.436 169.19C173.923 168.657 174.54 168.39 175.286 168.39C175.74 168.39 176.153 168.5 176.526 168.72C176.9 168.94 177.193 169.24 177.406 169.62V168.5ZM175.446 173.28C176.006 173.28 176.473 173.087 176.846 172.7C177.226 172.313 177.416 171.823 177.416 171.23C177.416 170.637 177.226 170.147 176.846 169.76C176.473 169.373 176.006 169.18 175.446 169.18C174.893 169.18 174.44 169.373 174.086 169.76C173.733 170.147 173.556 170.637 173.556 171.23C173.556 171.823 173.733 172.313 174.086 172.7C174.44 173.087 174.893 173.28 175.446 173.28ZM186.572 168.5H187.402V174H186.572V172.91C186.158 173.71 185.505 174.11 184.612 174.11C183.998 174.11 183.518 173.923 183.172 173.55C182.832 173.177 182.662 172.657 182.662 171.99V168.5H183.492V171.83C183.492 172.823 183.945 173.32 184.852 173.32C185.392 173.32 185.812 173.14 186.112 172.78C186.418 172.42 186.572 171.933 186.572 171.32V168.5ZM191.854 168.39C192.601 168.39 193.214 168.66 193.694 169.2C194.181 169.733 194.424 170.417 194.424 171.25C194.424 172.083 194.181 172.77 193.694 173.31C193.208 173.843 192.591 174.11 191.844 174.11C191.378 174.11 190.961 174.003 190.594 173.79C190.234 173.57 189.948 173.27 189.734 172.89V176.5H188.904V168.5H189.734V169.63C189.948 169.243 190.238 168.94 190.604 168.72C190.971 168.5 191.388 168.39 191.854 168.39ZM191.694 173.32C192.248 173.32 192.701 173.127 193.054 172.74C193.408 172.353 193.584 171.857 193.584 171.25C193.584 170.65 193.408 170.157 193.054 169.77C192.701 169.377 192.248 169.18 191.694 169.18C191.128 169.18 190.658 169.377 190.284 169.77C189.911 170.157 189.724 170.65 189.724 171.25C189.724 171.85 189.911 172.347 190.284 172.74C190.658 173.127 191.128 173.32 191.694 173.32ZM202.568 173.07L202.718 173.76C202.278 173.993 201.782 174.11 201.228 174.11C200.622 174.11 200.142 173.92 199.788 173.54C199.435 173.153 199.258 172.607 199.258 171.9V169.28H198.198V168.5H199.258V167.18L200.088 167V168.5H202.558V169.28H200.088V171.86C200.088 172.847 200.515 173.34 201.368 173.34C201.675 173.34 202.075 173.25 202.568 173.07ZM206.685 168.39C207.311 168.39 207.798 168.577 208.145 168.95C208.498 169.323 208.675 169.843 208.675 170.51V174H207.845V170.67C207.845 169.677 207.381 169.18 206.455 169.18C205.901 169.18 205.471 169.36 205.165 169.72C204.865 170.08 204.715 170.567 204.715 171.18V174H203.885V166.3H204.715V169.57C205.121 168.783 205.778 168.39 206.685 168.39ZM212.694 168.39C213.548 168.39 214.228 168.68 214.734 169.26C215.241 169.84 215.478 170.587 215.444 171.5H210.734C210.774 172.067 210.978 172.513 211.344 172.84C211.711 173.167 212.174 173.33 212.734 173.33C213.554 173.33 214.128 173.01 214.454 172.37H215.314C215.088 172.937 214.744 173.37 214.284 173.67C213.824 173.963 213.298 174.11 212.704 174.11C211.884 174.11 211.208 173.847 210.674 173.32C210.148 172.787 209.884 172.103 209.884 171.27C209.884 170.437 210.148 169.75 210.674 169.21C211.201 168.663 211.874 168.39 212.694 168.39ZM212.694 169.17C212.201 169.17 211.781 169.313 211.434 169.6C211.094 169.887 210.874 170.26 210.774 170.72H214.544C214.451 170.253 214.241 169.88 213.914 169.6C213.588 169.313 213.181 169.17 212.694 169.17ZM224.235 167.79H220.625V170.06H223.995V170.85H220.625V174H219.795V167H224.235V167.79ZM225.261 166.24C225.374 166.133 225.514 166.08 225.681 166.08C225.847 166.08 225.984 166.133 226.091 166.24C226.204 166.347 226.261 166.477 226.261 166.63C226.261 166.79 226.204 166.923 226.091 167.03C225.984 167.137 225.847 167.19 225.681 167.19C225.514 167.19 225.374 167.137 225.261 167.03C225.154 166.923 225.101 166.79 225.101 166.63C225.101 166.477 225.154 166.347 225.261 166.24ZM225.261 174V168.5H226.091V174H225.261ZM230.355 168.39C230.475 168.39 230.589 168.397 230.695 168.41V169.26C230.575 169.247 230.459 169.24 230.345 169.24C229.752 169.24 229.279 169.43 228.925 169.81C228.572 170.183 228.395 170.713 228.395 171.4V174H227.565V168.5H228.395V169.73C228.755 168.837 229.409 168.39 230.355 168.39ZM234.188 168.39C235.042 168.39 235.722 168.68 236.228 169.26C236.735 169.84 236.972 170.587 236.938 171.5H232.228C232.268 172.067 232.472 172.513 232.838 172.84C233.205 173.167 233.668 173.33 234.228 173.33C235.048 173.33 235.622 173.01 235.948 172.37H236.808C236.582 172.937 236.238 173.37 235.778 173.67C235.318 173.963 234.792 174.11 234.198 174.11C233.378 174.11 232.702 173.847 232.168 173.32C231.642 172.787 231.378 172.103 231.378 171.27C231.378 170.437 231.642 169.75 232.168 169.21C232.695 168.663 233.368 168.39 234.188 168.39ZM234.188 169.17C233.695 169.17 233.275 169.313 232.928 169.6C232.588 169.887 232.368 170.26 232.268 170.72H236.038C235.945 170.253 235.735 169.88 235.408 169.6C235.082 169.313 234.675 169.17 234.188 169.17ZM241.101 168.39C241.848 168.39 242.461 168.66 242.941 169.2C243.428 169.733 243.671 170.417 243.671 171.25C243.671 172.083 243.428 172.77 242.941 173.31C242.454 173.843 241.838 174.11 241.091 174.11C240.624 174.11 240.208 174.003 239.841 173.79C239.481 173.57 239.194 173.27 238.981 172.89V174H238.151V166.3H238.981V169.63C239.194 169.243 239.484 168.94 239.851 168.72C240.218 168.5 240.634 168.39 241.101 168.39ZM240.941 173.32C241.494 173.32 241.948 173.127 242.301 172.74C242.654 172.353 242.831 171.857 242.831 171.25C242.831 170.65 242.654 170.157 242.301 169.77C241.948 169.377 241.494 169.18 240.941 169.18C240.374 169.18 239.904 169.377 239.531 169.77C239.158 170.157 238.971 170.65 238.971 171.25C238.971 171.85 239.158 172.347 239.531 172.74C239.904 173.127 240.374 173.32 240.941 173.32ZM249.398 168.5H250.228V174H249.398V172.89C249.178 173.27 248.885 173.57 248.518 173.79C248.158 174.003 247.745 174.11 247.278 174.11C246.532 174.11 245.915 173.843 245.428 173.31C244.948 172.77 244.708 172.083 244.708 171.25C244.708 170.417 244.948 169.733 245.428 169.2C245.915 168.66 246.532 168.39 247.278 168.39C247.745 168.39 248.162 168.5 248.528 168.72C248.895 168.94 249.185 169.243 249.398 169.63V168.5ZM247.438 173.32C248.005 173.32 248.475 173.127 248.848 172.74C249.222 172.347 249.408 171.85 249.408 171.25C249.408 170.65 249.222 170.157 248.848 169.77C248.475 169.377 248.005 169.18 247.438 169.18C246.878 169.18 246.422 169.377 246.068 169.77C245.722 170.157 245.548 170.65 245.548 171.25C245.548 171.857 245.725 172.353 246.078 172.74C246.432 173.127 246.885 173.32 247.438 173.32ZM254.036 174.11C253.316 174.11 252.719 173.95 252.246 173.63C251.772 173.31 251.482 172.86 251.376 172.28H252.226C252.332 172.653 252.529 172.92 252.816 173.08C253.109 173.24 253.516 173.32 254.036 173.32C254.456 173.32 254.796 173.25 255.056 173.11C255.322 172.963 255.456 172.76 255.456 172.5C255.456 172.34 255.389 172.207 255.256 172.1C255.122 171.987 254.979 171.907 254.826 171.86C254.672 171.813 254.409 171.743 254.036 171.65C253.949 171.63 253.882 171.613 253.836 171.6C253.009 171.393 252.439 171.19 252.126 170.99C251.812 170.79 251.656 170.477 251.656 170.05C251.656 169.53 251.859 169.123 252.266 168.83C252.679 168.537 253.219 168.39 253.886 168.39C254.526 168.39 255.046 168.53 255.446 168.81C255.852 169.083 256.112 169.47 256.226 169.97H255.386C255.186 169.443 254.692 169.18 253.906 169.18C253.472 169.18 253.129 169.257 252.876 169.41C252.622 169.557 252.496 169.75 252.496 169.99C252.496 170.197 252.599 170.35 252.806 170.45C253.012 170.543 253.426 170.67 254.046 170.83C254.339 170.903 254.559 170.96 254.706 171C254.859 171.04 255.039 171.097 255.246 171.17C255.459 171.243 255.616 171.313 255.716 171.38C255.816 171.447 255.919 171.533 256.026 171.64C256.132 171.74 256.206 171.857 256.246 171.99C256.286 172.117 256.306 172.263 256.306 172.43C256.306 172.97 256.089 173.387 255.656 173.68C255.229 173.967 254.689 174.11 254.036 174.11ZM260.048 168.39C260.901 168.39 261.581 168.68 262.088 169.26C262.594 169.84 262.831 170.587 262.798 171.5H258.088C258.128 172.067 258.331 172.513 258.698 172.84C259.064 173.167 259.528 173.33 260.088 173.33C260.908 173.33 261.481 173.01 261.808 172.37H262.668C262.441 172.937 262.098 173.37 261.638 173.67C261.178 173.963 260.651 174.11 260.058 174.11C259.238 174.11 258.561 173.847 258.028 173.32C257.501 172.787 257.238 172.103 257.238 171.27C257.238 170.437 257.501 169.75 258.028 169.21C258.554 168.663 259.228 168.39 260.048 168.39ZM260.048 169.17C259.554 169.17 259.134 169.313 258.788 169.6C258.448 169.887 258.228 170.26 258.128 170.72H261.898C261.804 170.253 261.594 169.88 261.268 169.6C260.941 169.313 260.534 169.17 260.048 169.17ZM271.479 168.5H272.309V174H271.479V172.89C271.259 173.27 270.965 173.57 270.599 173.79C270.239 174.003 269.825 174.11 269.359 174.11C268.612 174.11 267.995 173.843 267.509 173.31C267.029 172.77 266.789 172.083 266.789 171.25C266.789 170.417 267.029 169.733 267.509 169.2C267.995 168.66 268.612 168.39 269.359 168.39C269.825 168.39 270.242 168.5 270.609 168.72C270.975 168.94 271.265 169.243 271.479 169.63V168.5ZM269.519 173.32C270.085 173.32 270.555 173.127 270.929 172.74C271.302 172.347 271.489 171.85 271.489 171.25C271.489 170.65 271.302 170.157 270.929 169.77C270.555 169.377 270.085 169.18 269.519 169.18C268.959 169.18 268.502 169.377 268.149 169.77C267.802 170.157 267.629 170.65 267.629 171.25C267.629 171.857 267.805 172.353 268.159 172.74C268.512 173.127 268.965 173.32 269.519 173.32ZM276.586 168.39C277.206 168.39 277.693 168.577 278.046 168.95C278.399 169.323 278.576 169.843 278.576 170.51V174H277.746V170.67C277.746 169.677 277.283 169.18 276.356 169.18C275.803 169.18 275.373 169.36 275.066 169.72C274.766 170.08 274.616 170.567 274.616 171.18V174H273.786V168.5H274.616V169.59C275.016 168.79 275.673 168.39 276.586 168.39ZM284.507 166.3H285.337V174H284.507V172.89C284.294 173.27 284.004 173.57 283.637 173.79C283.27 174.003 282.854 174.11 282.387 174.11C281.64 174.11 281.024 173.843 280.537 173.31C280.057 172.77 279.817 172.083 279.817 171.25C279.817 170.417 280.057 169.733 280.537 169.2C281.024 168.66 281.64 168.39 282.387 168.39C282.854 168.39 283.27 168.5 283.637 168.72C284.004 168.94 284.294 169.243 284.507 169.63V166.3ZM282.547 173.32C283.114 173.32 283.584 173.127 283.957 172.74C284.33 172.347 284.517 171.85 284.517 171.25C284.517 170.65 284.33 170.157 283.957 169.77C283.584 169.377 283.114 169.18 282.547 169.18C281.994 169.18 281.54 169.377 281.187 169.77C280.834 170.157 280.657 170.65 280.657 171.25C280.657 171.857 280.834 172.353 281.187 172.74C281.54 173.127 281.994 173.32 282.547 173.32ZM122.096 179.79H118.486V182.06H121.856V182.85H118.486V186H117.656V179H122.096V179.79ZM123.308 186V178.3H124.138V186H123.308ZM129.453 180.5H130.283V186H129.453V184.91C129.039 185.71 128.386 186.11 127.493 186.11C126.879 186.11 126.399 185.923 126.053 185.55C125.713 185.177 125.543 184.657 125.543 183.99V180.5H126.373V183.83C126.373 184.823 126.826 185.32 127.733 185.32C128.273 185.32 128.693 185.14 128.993 184.78C129.299 184.42 129.453 183.933 129.453 183.32V180.5ZM135.625 185.07L135.775 185.76C135.335 185.993 134.838 186.11 134.285 186.11C133.678 186.11 133.198 185.92 132.845 185.54C132.492 185.153 132.315 184.607 132.315 183.9V181.28H131.255V180.5H132.315V179.18L133.145 179V180.5H135.615V181.28H133.145V183.86C133.145 184.847 133.572 185.34 134.425 185.34C134.732 185.34 135.132 185.25 135.625 185.07ZM140.703 185.07L140.853 185.76C140.413 185.993 139.917 186.11 139.363 186.11C138.757 186.11 138.277 185.92 137.923 185.54C137.57 185.153 137.393 184.607 137.393 183.9V181.28H136.333V180.5H137.393V179.18L138.223 179V180.5H140.693V181.28H138.223V183.86C138.223 184.847 138.65 185.34 139.503 185.34C139.81 185.34 140.21 185.25 140.703 185.07ZM144.315 180.39C145.169 180.39 145.849 180.68 146.355 181.26C146.862 181.84 147.099 182.587 147.065 183.5H142.355C142.395 184.067 142.599 184.513 142.965 184.84C143.332 185.167 143.795 185.33 144.355 185.33C145.175 185.33 145.749 185.01 146.075 184.37H146.935C146.709 184.937 146.365 185.37 145.905 185.67C145.445 185.963 144.919 186.11 144.325 186.11C143.505 186.11 142.829 185.847 142.295 185.32C141.769 184.787 141.505 184.103 141.505 183.27C141.505 182.437 141.769 181.75 142.295 181.21C142.822 180.663 143.495 180.39 144.315 180.39ZM144.315 181.17C143.822 181.17 143.402 181.313 143.055 181.6C142.715 181.887 142.495 182.26 142.395 182.72H146.165C146.072 182.253 145.862 181.88 145.535 181.6C145.209 181.313 144.802 181.17 144.315 181.17ZM151.068 180.39C151.188 180.39 151.301 180.397 151.408 180.41V181.26C151.288 181.247 151.171 181.24 151.058 181.24C150.465 181.24 149.991 181.43 149.638 181.81C149.285 182.183 149.108 182.713 149.108 183.4V186H148.278V180.5H149.108V181.73C149.468 180.837 150.121 180.39 151.068 180.39ZM157.997 180.39C158.85 180.39 159.53 180.68 160.037 181.26C160.544 181.84 160.78 182.587 160.747 183.5H156.037C156.077 184.067 156.28 184.513 156.647 184.84C157.014 185.167 157.477 185.33 158.037 185.33C158.857 185.33 159.43 185.01 159.757 184.37H160.617C160.39 184.937 160.047 185.37 159.587 185.67C159.127 185.963 158.6 186.11 158.007 186.11C157.187 186.11 156.51 185.847 155.977 185.32C155.45 184.787 155.187 184.103 155.187 183.27C155.187 182.437 155.45 181.75 155.977 181.21C156.504 180.663 157.177 180.39 157.997 180.39ZM157.997 181.17C157.504 181.17 157.084 181.313 156.737 181.6C156.397 181.887 156.177 182.26 156.077 182.72H159.847C159.754 182.253 159.544 181.88 159.217 181.6C158.89 181.313 158.484 181.17 157.997 181.17ZM164.76 180.39C165.38 180.39 165.866 180.577 166.22 180.95C166.573 181.323 166.75 181.843 166.75 182.51V186H165.92V182.67C165.92 181.677 165.456 181.18 164.53 181.18C163.976 181.18 163.546 181.36 163.24 181.72C162.94 182.08 162.79 182.567 162.79 183.18V186H161.96V180.5H162.79V181.59C163.19 180.79 163.846 180.39 164.76 180.39ZM171.853 180.5H172.743L170.673 186H169.643L167.573 180.5H168.463L170.153 185.17L171.853 180.5ZM173.747 178.24C173.86 178.133 174 178.08 174.167 178.08C174.334 178.08 174.47 178.133 174.577 178.24C174.69 178.347 174.747 178.477 174.747 178.63C174.747 178.79 174.69 178.923 174.577 179.03C174.47 179.137 174.334 179.19 174.167 179.19C174 179.19 173.86 179.137 173.747 179.03C173.64 178.923 173.587 178.79 173.587 178.63C173.587 178.477 173.64 178.347 173.747 178.24ZM173.747 186V180.5H174.577V186H173.747ZM178.842 180.39C178.962 180.39 179.075 180.397 179.182 180.41V181.26C179.062 181.247 178.945 181.24 178.832 181.24C178.238 181.24 177.765 181.43 177.412 181.81C177.058 182.183 176.882 182.713 176.882 183.4V186H176.052V180.5H176.882V181.73C177.242 180.837 177.895 180.39 178.842 180.39ZM182.695 180.39C183.488 180.39 184.158 180.663 184.705 181.21C185.258 181.75 185.535 182.43 185.535 183.25C185.535 184.07 185.261 184.753 184.715 185.3C184.168 185.84 183.495 186.11 182.695 186.11C181.901 186.11 181.231 185.837 180.685 185.29C180.138 184.743 179.865 184.063 179.865 183.25C179.865 182.437 180.138 181.757 180.685 181.21C181.238 180.663 181.908 180.39 182.695 180.39ZM184.115 181.77C183.728 181.377 183.255 181.18 182.695 181.18C182.135 181.18 181.661 181.377 181.275 181.77C180.895 182.157 180.705 182.65 180.705 183.25C180.705 183.85 180.895 184.347 181.275 184.74C181.661 185.127 182.135 185.32 182.695 185.32C183.261 185.32 183.735 185.127 184.115 184.74C184.501 184.347 184.695 183.85 184.695 183.25C184.695 182.65 184.501 182.157 184.115 181.77ZM189.584 180.39C190.204 180.39 190.691 180.577 191.044 180.95C191.397 181.323 191.574 181.843 191.574 182.51V186H190.744V182.67C190.744 181.677 190.281 181.18 189.354 181.18C188.801 181.18 188.371 181.36 188.064 181.72C187.764 182.08 187.614 182.567 187.614 183.18V186H186.784V180.5H187.614V181.59C188.014 180.79 188.671 180.39 189.584 180.39ZM199.225 180.39C199.805 180.39 200.255 180.57 200.575 180.93C200.895 181.283 201.055 181.783 201.055 182.43V186H200.225V182.58C200.225 181.647 199.812 181.18 198.985 181.18C198.485 181.18 198.102 181.367 197.835 181.74C197.568 182.113 197.435 182.593 197.435 183.18L197.445 186H196.605V182.58C196.605 181.647 196.192 181.18 195.365 181.18C194.872 181.18 194.492 181.367 194.225 181.74C193.958 182.113 193.825 182.593 193.825 183.18V186H192.995V180.5H193.825V181.54C194.212 180.773 194.808 180.39 195.615 180.39C196.062 180.39 196.432 180.5 196.725 180.72C197.018 180.933 197.222 181.243 197.335 181.65C197.722 180.81 198.352 180.39 199.225 180.39ZM205.077 180.39C205.93 180.39 206.61 180.68 207.117 181.26C207.624 181.84 207.86 182.587 207.827 183.5H203.117C203.157 184.067 203.36 184.513 203.727 184.84C204.094 185.167 204.557 185.33 205.117 185.33C205.937 185.33 206.51 185.01 206.837 184.37H207.697C207.47 184.937 207.127 185.37 206.667 185.67C206.207 185.963 205.68 186.11 205.087 186.11C204.267 186.11 203.59 185.847 203.057 185.32C202.53 184.787 202.267 184.103 202.267 183.27C202.267 182.437 202.53 181.75 203.057 181.21C203.584 180.663 204.257 180.39 205.077 180.39ZM205.077 181.17C204.584 181.17 204.164 181.313 203.817 181.6C203.477 181.887 203.257 182.26 203.157 182.72H206.927C206.834 182.253 206.624 181.88 206.297 181.6C205.97 181.313 205.564 181.17 205.077 181.17ZM211.84 180.39C212.46 180.39 212.946 180.577 213.3 180.95C213.653 181.323 213.83 181.843 213.83 182.51V186H213V182.67C213 181.677 212.536 181.18 211.61 181.18C211.056 181.18 210.626 181.36 210.32 181.72C210.02 182.08 209.87 182.567 209.87 183.18V186H209.04V180.5H209.87V181.59C210.27 180.79 210.926 180.39 211.84 180.39ZM219.024 185.07L219.174 185.76C218.734 185.993 218.237 186.11 217.684 186.11C217.077 186.11 216.597 185.92 216.244 185.54C215.89 185.153 215.714 184.607 215.714 183.9V181.28H214.654V180.5H215.714V179.18L216.544 179V180.5H219.014V181.28H216.544V183.86C216.544 184.847 216.97 185.34 217.824 185.34C218.13 185.34 218.53 185.25 219.024 185.07ZM222.542 186.11C221.822 186.11 221.225 185.95 220.752 185.63C220.278 185.31 219.988 184.86 219.882 184.28H220.732C220.838 184.653 221.035 184.92 221.322 185.08C221.615 185.24 222.022 185.32 222.542 185.32C222.962 185.32 223.302 185.25 223.562 185.11C223.828 184.963 223.962 184.76 223.962 184.5C223.962 184.34 223.895 184.207 223.762 184.1C223.628 183.987 223.485 183.907 223.332 183.86C223.178 183.813 222.915 183.743 222.542 183.65C222.455 183.63 222.388 183.613 222.342 183.6C221.515 183.393 220.945 183.19 220.632 182.99C220.318 182.79 220.162 182.477 220.162 182.05C220.162 181.53 220.365 181.123 220.772 180.83C221.185 180.537 221.725 180.39 222.392 180.39C223.032 180.39 223.552 180.53 223.952 180.81C224.358 181.083 224.618 181.47 224.732 181.97H223.892C223.692 181.443 223.198 181.18 222.412 181.18C221.978 181.18 221.635 181.257 221.382 181.41C221.128 181.557 221.002 181.75 221.002 181.99C221.002 182.197 221.105 182.35 221.312 182.45C221.518 182.543 221.932 182.67 222.552 182.83C222.845 182.903 223.065 182.96 223.212 183C223.365 183.04 223.545 183.097 223.752 183.17C223.965 183.243 224.122 183.313 224.222 183.38C224.322 183.447 224.425 183.533 224.532 183.64C224.638 183.74 224.712 183.857 224.752 183.99C224.792 184.117 224.812 184.263 224.812 184.43C224.812 184.97 224.595 185.387 224.162 185.68C223.735 185.967 223.195 186.11 222.542 186.11Z" fill="#48494B"/>
<defs>
<filter id="filter0_i_1047_2081" x="160.132" y="36.5519" width="1.92212" height="5.31824" filterUnits="userSpaceOnUse" color-interpolation-filters="sRGB">
<feFlood flood-opacity="0" result="BackgroundImageFix"/>
<feBlend mode="normal" in="SourceGraphic" in2="BackgroundImageFix" result="shape"/>
<feColorMatrix in="SourceAlpha" type="matrix" values="0 0 0 0 0 0 0 0 0 0 0 0 0 0 0 0 0 0 127 0" result="hardAlpha"/>
<feOffset/>
<feGaussianBlur stdDeviation="124.619"/>
<feComposite in2="hardAlpha" operator="arithmetic" k2="-1" k3="1"/>
<feColorMatrix type="matrix" values="0 0 0 0 0 0 0 0 0 0 0 0 0 0 0 0 0 0 0.06 0"/>
<feBlend mode="normal" in2="shape" result="effect1_innerShadow_1047_2081"/>
</filter>
<filter id="filter1_i_1047_2081" x="162.064" y="37.4883" width="1.21313" height="1.87421" filterUnits="userSpaceOnUse" color-interpolation-filters="sRGB">
<feFlood flood-opacity="0" result="BackgroundImageFix"/>
<feBlend mode="normal" in="SourceGraphic" in2="BackgroundImageFix" result="shape"/>
<feColorMatrix in="SourceAlpha" type="matrix" values="0 0 0 0 0 0 0 0 0 0 0 0 0 0 0 0 0 0 127 0" result="hardAlpha"/>
<feOffset dx="7.12109" dy="-64.0898"/>
<feGaussianBlur stdDeviation="24.9238"/>
<feComposite in2="hardAlpha" operator="arithmetic" k2="-1" k3="1"/>
<feColorMatrix type="matrix" values="0 0 0 0 0 0 0 0 0 0 0 0 0 0 0 0 0 0 0.09 0"/>
<feBlend mode="normal" in2="shape" result="effect1_innerShadow_1047_2081"/>
</filter>
<clipPath id="clip0_1047_2081">
<rect width="157" height="124" fill="white" transform="translate(92.5 28)"/>
</clipPath>
<clipPath id="clip1_1047_2081">
<rect width="4.87379" height="6.68166" fill="white" transform="translate(160.108 36.5265)"/>
</clipPath>
</defs>
</svg>
