<svg width="342" height="216" viewBox="0 0 342 216" fill="none" xmlns="http://www.w3.org/2000/svg">
<rect x="0.75" y="0.75" width="340.5" height="214.5" rx="7.25" stroke="#7382D1" stroke-width="1.5"/>
<path d="M296.064 124.067H25V13H296.064V124.067ZM25.8249 123.242H295.239V13.8249H25.8249V123.242Z" fill="#8891C8"/>
<path d="M187.497 108.785H204.532C205.694 102.065 205.694 95.195 204.532 88.4746H187.497C189.416 95.1089 189.416 102.151 187.497 108.785Z" fill="#E6E6E6"/>
<path d="M187.963 68.1353H211.111C211.271 68.1297 211.423 68.0621 211.535 67.9467C211.646 67.8313 211.708 67.6771 211.708 67.5166C211.708 67.3562 211.646 67.202 211.535 67.0865C211.423 66.9711 211.271 66.9035 211.111 66.898H187.963C187.802 66.9035 187.651 66.9711 187.539 67.0865C187.428 67.202 187.365 67.3562 187.365 67.5166C187.365 67.6771 187.428 67.8313 187.539 67.9467C187.651 68.0621 187.802 68.1297 187.963 68.1353Z" fill="#E6E6E6"/>
<path d="M94.061 68.1353H117.209C117.369 68.1297 117.521 68.0621 117.633 67.9467C117.744 67.8313 117.807 67.6771 117.807 67.5166C117.807 67.3562 117.744 67.202 117.633 67.0865C117.521 66.9711 117.369 66.9035 117.209 66.898H94.061C93.9006 66.9035 93.7487 66.9711 93.6372 67.0865C93.5257 67.202 93.4634 67.3562 93.4634 67.5166C93.4634 67.6771 93.5257 67.8313 93.6372 67.9467C93.7487 68.0621 93.9006 68.1297 94.061 68.1353Z" fill="#E6E6E6"/>
<path d="M210.509 62.2989L214.126 65.5999C214.539 65.9775 215.677 66.7569 215.934 67.2505C216.465 68.2711 215.895 68.0382 214.984 68.3919C212.747 69.2822 210.685 70.5623 208.895 72.1728C208.296 72.7003 209.174 73.5726 209.77 73.0477C211.403 71.5804 213.278 70.4086 215.313 69.585C216.043 69.2964 217.427 69.1273 217.773 68.2583C218.198 67.1946 216.846 66.4098 216.206 65.8254L211.384 61.4239C210.797 60.888 209.92 61.7606 210.509 62.2989Z" fill="#E6E6E6"/>
<path d="M116.607 62.2989L120.224 65.5999C120.637 65.9775 121.775 66.7569 122.032 67.2505C122.563 68.2711 121.992 68.0382 121.082 68.3919C118.845 69.2822 116.783 70.5623 114.993 72.1728C114.394 72.7003 115.272 73.5726 115.868 73.0477C117.5 71.5804 119.376 70.4086 121.411 69.585C122.14 69.2964 123.525 69.1273 123.871 68.2583C124.296 67.1946 122.944 66.4098 122.304 65.8254L117.482 61.4239C116.895 60.888 116.017 61.7606 116.607 62.2989Z" fill="#E6E6E6"/>
<path d="M102.537 43.2091H119.571C120.734 36.4887 120.734 29.6187 119.571 22.8983H102.537C104.456 29.5326 104.456 36.5748 102.537 43.2091Z" fill="#C6CAE2"/>
<path d="M190.626 53.6717H207.661C208.823 46.9513 208.823 40.0813 207.661 33.3609H190.626C192.545 39.9952 192.545 47.0374 190.626 53.6717Z" fill="#C6CAE2"/>
<path d="M136.696 87.0447V36.9147L132.16 35.9034V91.5814L166.391 91.2313L166.276 86.7424L136.696 87.0447Z" fill="#F2F2F2"/>
<path d="M57.1698 87.0447V36.9147L52.6331 35.9034V91.5814L86.8647 91.2313L86.7492 86.7424L57.1698 87.0447Z" fill="#F2F2F2"/>
<path d="M170.515 95.7681H129.272V29.3669H170.515V95.7681ZM130.097 94.9432H169.691V30.1917H130.097V94.9432Z" fill="#8891C8"/>
<path d="M90.9888 95.7681H49.7458V29.3669H90.9888V95.7681ZM50.5707 94.9432H90.164V30.1917H50.5707V94.9432Z" fill="#8891C8"/>
<path d="M139.665 33.4912H132.985V34.316H139.665V33.4912Z" fill="#8891C8"/>
<path d="M139.665 35.5533H132.985V36.3782H139.665V35.5533Z" fill="#8891C8"/>
<path d="M139.665 37.6155H132.985V38.4403H139.665V37.6155Z" fill="#8891C8"/>
<path d="M241.453 87.0447V36.9147L236.917 35.9034V91.5814L271.148 91.2313L271.033 86.7424L241.453 87.0447Z" fill="#F2F2F2"/>
<path d="M275.757 94.9432H234.514V28.542H275.757V94.9432ZM235.339 94.1183H274.933V29.3669H235.339V94.1183Z" fill="#8891C8"/>
<path d="M269.499 37.7458C268.928 37.7458 268.37 37.5765 267.895 37.2592C267.42 36.942 267.05 36.4911 266.832 35.9636C266.613 35.4361 266.556 34.8556 266.667 34.2956C266.779 33.7355 267.054 33.2211 267.457 32.8174C267.861 32.4136 268.376 32.1386 268.936 32.0272C269.496 31.9158 270.076 31.973 270.604 32.1915C271.131 32.41 271.582 32.7801 271.899 33.2548C272.217 33.7296 272.386 34.2878 272.386 34.8588C272.385 35.6242 272.081 36.358 271.539 36.8993C270.998 37.4405 270.264 37.7449 269.499 37.7458ZM269.499 32.7966C269.091 32.7966 268.692 32.9176 268.353 33.1442C268.014 33.3708 267.75 33.6928 267.594 34.0696C267.438 34.4464 267.397 34.8611 267.476 35.2611C267.556 35.6611 267.752 36.0285 268.041 36.3169C268.329 36.6053 268.696 36.8017 269.097 36.8813C269.497 36.9609 269.911 36.92 270.288 36.764C270.665 36.6079 270.987 36.3436 271.213 36.0044C271.44 35.6653 271.561 35.2666 271.561 34.8588C271.56 34.3121 271.343 33.7879 270.956 33.4013C270.57 33.0147 270.046 32.7973 269.499 32.7966Z" fill="#8891C8"/>
<path d="M143.609 108.525H160.644C161.806 101.804 161.806 94.9344 160.644 88.2141H143.609C145.528 94.8483 145.528 101.891 143.609 108.525Z" fill="#C6CAE2"/>
<path d="M293.745 152.832L291.612 152.832L290.598 144.604L293.746 144.604L293.745 152.832Z" fill="#FFB6B6"/>
<path d="M286.438 152.784C286.371 152.895 286.336 153.256 286.336 153.387C286.336 153.786 286.66 154.111 287.06 154.111H293.665C293.938 154.111 294.159 153.889 294.159 153.617V153.342C294.159 153.342 294.486 152.515 293.813 151.496C293.813 151.496 292.977 152.294 291.728 151.045L291.359 150.377L288.692 152.328L287.214 152.51C286.891 152.549 286.604 152.503 286.438 152.784Z" fill="#2F2E41"/>
<path d="M316.26 150.164L314.311 151.03L310.042 143.924L312.918 142.646L316.26 150.164Z" fill="#FFB6B6"/>
<path d="M309.563 153.088C309.548 153.218 309.663 153.562 309.716 153.681C309.878 154.046 310.306 154.21 310.671 154.048L316.707 151.364C316.956 151.254 317.068 150.962 316.957 150.712L316.846 150.461C316.846 150.461 316.808 149.573 315.78 148.915C315.78 148.915 315.34 149.984 313.691 149.35L313.083 148.89L311.438 151.756L310.162 152.523C309.882 152.69 309.602 152.765 309.563 153.088Z" fill="#2F2E41"/>
<path d="M289.109 101.35L287.213 105.333L290.437 146.676H294.468L296.126 119.557L310.594 146.676H315.54L308.073 127.332L302.953 102.109L289.109 101.35Z" fill="#2F2E41"/>
<path d="M299.263 75.8095H294.263L292.429 78.6874L288.292 80.6659L289.192 93.0766L288.741 102.126L289.359 102.108C293.772 101.979 298.183 102.697 302.278 104.346C303.329 104.769 304.43 105.005 305.378 104.768C305.378 104.768 305.018 103.329 304.659 102.969C304.299 102.609 304.119 102.312 304.299 102.101C304.479 101.89 304.839 101.71 304.479 101.35C304.119 100.991 304.119 100.537 304.119 100.537L303.04 92.537L305.198 81.2055L300.702 78.6874L299.263 75.8095Z" fill="#2F2E41"/>
<path d="M307.856 91.4993L307.72 102.113L305.079 111.575L302.968 110.788L303.905 102.115L303.782 90.3786L307.856 91.4993Z" fill="#FFB6B6"/>
<path d="M305.07 113.101C305.318 111.741 304.864 110.518 304.056 110.371C303.248 110.224 302.392 111.208 302.145 112.568C301.897 113.929 302.351 115.151 303.159 115.298C303.967 115.445 304.822 114.462 305.07 113.101Z" fill="#FFB6B6"/>
<path d="M304.119 80.6659C304.119 80.6659 307.099 81.1276 307.138 83.6846C307.177 86.2417 310.054 90.3786 308.256 93.6162L303.58 94.3356L301.062 85.1625L303.939 80.3061" fill="#2F2E41"/>
<path d="M290.519 89.6301L284.582 98.4286L277.182 104.889L275.85 103.073L281.392 96.3366L287.728 86.4574L290.519 89.6301Z" fill="#FFB6B6"/>
<path d="M276.338 106.16C277.291 105.159 277.582 103.888 276.988 103.321C276.393 102.755 275.138 103.108 274.184 104.109C273.231 105.111 272.94 106.382 273.534 106.948C274.129 107.514 275.384 107.161 276.338 106.16Z" fill="#FFB6B6"/>
<path d="M293.34 78.5227C293.34 78.5227 295.577 80.5438 294.207 82.7029C292.836 84.8619 292.972 89.8995 289.692 91.6191L285.388 89.6544C285.751 86.1074 285.962 82.4298 288.316 80.604L293.387 78.1233" fill="#2F2E41"/>
<path d="M295.987 75.0682C298.458 75.0682 300.461 73.0649 300.461 70.5936C300.461 68.1223 298.458 66.119 295.987 66.119C293.516 66.119 291.513 68.1223 291.513 70.5936C291.513 73.0649 293.516 75.0682 295.987 75.0682Z" fill="#FFB6B6"/>
<path d="M299.273 74.2701C299.52 74.3121 299.809 73.7147 300.086 73.1329C300.664 71.9148 301.032 71.1405 301.06 70.046C301.084 69.1132 300.825 69.3581 300.573 67.2842C300.49 66.6001 299.321 66.6014 299.083 66.2766C298.682 65.728 299.298 65.5017 298.299 65.1721C296.427 64.5548 295.58 65.5138 294.391 65.5964C294.361 65.5985 293.772 66.175 293.442 66.2048C292.866 66.257 292.034 66.1671 291.661 65.2884C291.312 64.4667 291.081 66.8678 291.393 67.1649C291.657 67.4172 292.114 68.0504 292.126 68.0965C292.139 68.1486 291.04 66.9314 290.857 67.433C290.725 67.794 291.14 69.6513 291.476 69.7211C291.756 69.7795 292.443 68.8543 292.288 69.2337C291.929 70.1138 294.089 70.6753 296.674 68.9088C296.766 68.8461 296.679 68.9461 296.999 69.7211C297.402 70.6986 297.493 70.7516 297.486 71.0208C297.471 71.6037 297.034 71.7753 297.162 72.1581C297.265 72.4681 297.67 72.7082 297.974 72.6455C298.317 72.5747 298.375 72.1505 298.624 72.1581C298.836 72.1645 299.088 72.4848 299.111 72.8079C299.158 73.4888 298.15 73.676 297.974 74.595C297.874 75.1137 299.047 74.2315 299.273 74.2701Z" fill="#2F2E41"/>
<path d="M162.958 85.5876C162.264 85.5876 161.586 85.382 161.01 84.9968C160.433 84.6116 159.984 84.0641 159.719 83.4235C159.453 82.783 159.384 82.0781 159.519 81.3981C159.655 80.718 159.988 80.0934 160.479 79.6031C160.969 79.1128 161.594 78.779 162.274 78.6437C162.954 78.5084 163.659 78.5778 164.299 78.8432C164.94 79.1085 165.487 79.5578 165.872 80.1343C166.258 80.7108 166.463 81.3886 166.463 82.082C166.462 83.0114 166.093 83.9025 165.435 84.5597C164.778 85.2169 163.887 85.5866 162.958 85.5876ZM162.958 79.5779C162.462 79.5779 161.978 79.7248 161.566 79.9999C161.155 80.2751 160.834 80.6662 160.644 81.1237C160.455 81.5813 160.405 82.0848 160.502 82.5705C160.598 83.0562 160.837 83.5024 161.187 83.8526C161.537 84.2028 161.983 84.4413 162.469 84.5379C162.955 84.6345 163.458 84.5849 163.916 84.3954C164.373 84.2059 164.764 83.8849 165.04 83.4731C165.315 83.0614 165.462 82.5772 165.462 82.082C165.461 81.4181 165.197 80.7816 164.727 80.3122C164.258 79.8428 163.621 79.5787 162.958 79.5779Z" fill="#8891C8"/>
<rect x="162.752" y="80.226" width="0.41243" height="3.71187" fill="#8891C8"/>
<rect x="161.102" y="82.2882" width="0.41243" height="3.71187" transform="rotate(-90 161.102 82.2882)" fill="#8891C8"/>
<rect x="64.2686" y="38.2458" width="12.1978" height="12.1978" stroke="#8891C8"/>
<rect x="59.4379" y="56.0989" width="9.89831" height="0.41243" stroke="#8891C8" stroke-width="0.41243"/>
<rect x="59.4379" y="61.8729" width="9.89831" height="0.41243" stroke="#8891C8" stroke-width="0.41243"/>
<rect x="59.4379" y="68.0594" width="9.89831" height="0.41243" stroke="#8891C8" stroke-width="0.41243"/>
<rect x="59.6441" y="58.7797" width="25.5706" height="0.824859" rx="0.41243" stroke="#8891C8" stroke-width="0.824859"/>
<rect x="59.6441" y="64.5537" width="25.5706" height="0.824859" rx="0.41243" stroke="#8891C8" stroke-width="0.824859"/>
<rect x="59.6441" y="70.7402" width="25.5706" height="0.824859" rx="0.41243" stroke="#8891C8" stroke-width="0.824859"/>
<path d="M239.67 33.209L237.814 35.065L239.67 36.9209" stroke="#8891C8" stroke-width="2" stroke-linecap="round"/>
<rect x="237.814" y="86.8249" width="34.2317" height="4.94916" rx="2.47458" fill="#D9D9D9"/>
<path d="M239.876 45.8701C239.876 43.6609 241.667 41.8701 243.876 41.8701H249.774C251.596 41.8701 253.073 43.3473 253.073 45.1695C253.073 46.9918 251.596 48.469 249.774 48.469H239.876V45.8701Z" fill="#D9D9D9"/>
<path d="M258.848 55.0678C258.848 53.2456 260.325 51.7684 262.147 51.7684H268.045C270.255 51.7684 272.045 53.5593 272.045 55.7684V58.3673H262.147C260.325 58.3673 258.848 56.8901 258.848 55.0678Z" fill="#D9D9D9"/>
<path d="M35.1818 176.111L34.3518 174.011H31.1018L30.2718 176.111H29.3918L32.1918 169.111H33.2618L36.0618 176.111H35.1818ZM31.4218 173.221H34.0418L32.7318 169.901L31.4218 173.221ZM39.3386 176.221C38.6186 176.221 38.0219 176.061 37.5486 175.741C37.0752 175.421 36.7852 174.971 36.6786 174.391H37.5286C37.6352 174.764 37.8319 175.031 38.1186 175.191C38.4119 175.351 38.8186 175.431 39.3386 175.431C39.7586 175.431 40.0986 175.361 40.3586 175.221C40.6252 175.074 40.7586 174.871 40.7586 174.611C40.7586 174.451 40.6919 174.317 40.5586 174.211C40.4252 174.097 40.2819 174.017 40.1286 173.971C39.9752 173.924 39.7119 173.854 39.3386 173.761C39.2519 173.741 39.1852 173.724 39.1386 173.711C38.3119 173.504 37.7419 173.301 37.4286 173.101C37.1152 172.901 36.9586 172.587 36.9586 172.161C36.9586 171.641 37.1619 171.234 37.5686 170.941C37.9819 170.647 38.5219 170.501 39.1886 170.501C39.8286 170.501 40.3486 170.641 40.7486 170.921C41.1552 171.194 41.4152 171.581 41.5286 172.081H40.6886C40.4886 171.554 39.9952 171.291 39.2086 171.291C38.7752 171.291 38.4319 171.367 38.1786 171.521C37.9252 171.667 37.7986 171.861 37.7986 172.101C37.7986 172.307 37.9019 172.461 38.1086 172.561C38.3152 172.654 38.7286 172.781 39.3486 172.941C39.6419 173.014 39.8619 173.071 40.0086 173.111C40.1619 173.151 40.3419 173.207 40.5486 173.281C40.7619 173.354 40.9186 173.424 41.0186 173.491C41.1186 173.557 41.2219 173.644 41.3286 173.751C41.4352 173.851 41.5086 173.967 41.5486 174.101C41.5886 174.227 41.6086 174.374 41.6086 174.541C41.6086 175.081 41.3919 175.497 40.9586 175.791C40.5319 176.077 39.9919 176.221 39.3386 176.221ZM48.0886 176.221C47.3686 176.221 46.7719 176.061 46.2986 175.741C45.8252 175.421 45.5352 174.971 45.4286 174.391H46.2786C46.3852 174.764 46.5819 175.031 46.8686 175.191C47.1619 175.351 47.5686 175.431 48.0886 175.431C48.5086 175.431 48.8486 175.361 49.1086 175.221C49.3752 175.074 49.5086 174.871 49.5086 174.611C49.5086 174.451 49.4419 174.317 49.3086 174.211C49.1752 174.097 49.0319 174.017 48.8786 173.971C48.7252 173.924 48.4619 173.854 48.0886 173.761C48.0019 173.741 47.9352 173.724 47.8886 173.711C47.0619 173.504 46.4919 173.301 46.1786 173.101C45.8652 172.901 45.7086 172.587 45.7086 172.161C45.7086 171.641 45.9119 171.234 46.3186 170.941C46.7319 170.647 47.2719 170.501 47.9386 170.501C48.5786 170.501 49.0986 170.641 49.4986 170.921C49.9052 171.194 50.1652 171.581 50.2786 172.081H49.4386C49.2386 171.554 48.7452 171.291 47.9586 171.291C47.5252 171.291 47.1819 171.367 46.9286 171.521C46.6752 171.667 46.5486 171.861 46.5486 172.101C46.5486 172.307 46.6519 172.461 46.8586 172.561C47.0652 172.654 47.4786 172.781 48.0986 172.941C48.3919 173.014 48.6119 173.071 48.7586 173.111C48.9119 173.151 49.0919 173.207 49.2986 173.281C49.5119 173.354 49.6686 173.424 49.7686 173.491C49.8686 173.557 49.9719 173.644 50.0786 173.751C50.1852 173.851 50.2586 173.967 50.2986 174.101C50.3386 174.227 50.3586 174.374 50.3586 174.541C50.3586 175.081 50.1419 175.497 49.7086 175.791C49.2819 176.077 48.7419 176.221 48.0886 176.221ZM54.1205 170.501C54.9138 170.501 55.5838 170.774 56.1305 171.321C56.6838 171.861 56.9605 172.541 56.9605 173.361C56.9605 174.181 56.6872 174.864 56.1405 175.411C55.5938 175.951 54.9205 176.221 54.1205 176.221C53.3272 176.221 52.6572 175.947 52.1105 175.401C51.5638 174.854 51.2905 174.174 51.2905 173.361C51.2905 172.547 51.5638 171.867 52.1105 171.321C52.6638 170.774 53.3338 170.501 54.1205 170.501ZM55.5405 171.881C55.1538 171.487 54.6805 171.291 54.1205 171.291C53.5605 171.291 53.0872 171.487 52.7005 171.881C52.3205 172.267 52.1305 172.761 52.1305 173.361C52.1305 173.961 52.3205 174.457 52.7005 174.851C53.0872 175.237 53.5605 175.431 54.1205 175.431C54.6872 175.431 55.1605 175.237 55.5405 174.851C55.9272 174.457 56.1205 173.961 56.1205 173.361C56.1205 172.761 55.9272 172.267 55.5405 171.881ZM60.8197 170.501C61.6131 170.501 62.2831 170.774 62.8297 171.321C63.3831 171.861 63.6597 172.541 63.6597 173.361C63.6597 174.181 63.3864 174.864 62.8397 175.411C62.2931 175.951 61.6197 176.221 60.8197 176.221C60.0264 176.221 59.3564 175.947 58.8097 175.401C58.2631 174.854 57.9897 174.174 57.9897 173.361C57.9897 172.547 58.2631 171.867 58.8097 171.321C59.3631 170.774 60.0331 170.501 60.8197 170.501ZM62.2397 171.881C61.8531 171.487 61.3797 171.291 60.8197 171.291C60.2597 171.291 59.7864 171.487 59.3997 171.881C59.0197 172.267 58.8297 172.761 58.8297 173.361C58.8297 173.961 59.0197 174.457 59.3997 174.851C59.7864 175.237 60.2597 175.431 60.8197 175.431C61.3864 175.431 61.8597 175.237 62.2397 174.851C62.6264 174.457 62.8197 173.961 62.8197 173.361C62.8197 172.761 62.6264 172.267 62.2397 171.881ZM67.7089 170.501C68.3289 170.501 68.8156 170.687 69.1689 171.061C69.5223 171.434 69.6989 171.954 69.6989 172.621V176.111H68.8689V172.781C68.8689 171.787 68.4056 171.291 67.4789 171.291C66.9256 171.291 66.4956 171.471 66.1889 171.831C65.8889 172.191 65.7389 172.677 65.7389 173.291V176.111H64.9089V170.611H65.7389V171.701C66.1389 170.901 66.7956 170.501 67.7089 170.501ZM78.5879 170.611H79.4179V176.111H78.5879V175.001C78.3679 175.381 78.0746 175.681 77.7079 175.901C77.3479 176.114 76.9346 176.221 76.4679 176.221C75.7213 176.221 75.1046 175.954 74.6179 175.421C74.1379 174.881 73.8979 174.194 73.8979 173.361C73.8979 172.527 74.1379 171.844 74.6179 171.311C75.1046 170.771 75.7213 170.501 76.4679 170.501C76.9346 170.501 77.3513 170.611 77.7179 170.831C78.0846 171.051 78.3746 171.354 78.5879 171.741V170.611ZM76.6279 175.431C77.1946 175.431 77.6646 175.237 78.0379 174.851C78.4113 174.457 78.5979 173.961 78.5979 173.361C78.5979 172.761 78.4113 172.267 78.0379 171.881C77.6646 171.487 77.1946 171.291 76.6279 171.291C76.0679 171.291 75.6113 171.487 75.2579 171.881C74.9113 172.267 74.7379 172.761 74.7379 173.361C74.7379 173.967 74.9146 174.464 75.2679 174.851C75.6213 175.237 76.0746 175.431 76.6279 175.431ZM83.2253 176.221C82.5053 176.221 81.9086 176.061 81.4353 175.741C80.9619 175.421 80.6719 174.971 80.5653 174.391H81.4153C81.5219 174.764 81.7186 175.031 82.0053 175.191C82.2986 175.351 82.7053 175.431 83.2253 175.431C83.6453 175.431 83.9853 175.361 84.2453 175.221C84.5119 175.074 84.6453 174.871 84.6453 174.611C84.6453 174.451 84.5786 174.317 84.4453 174.211C84.3119 174.097 84.1686 174.017 84.0153 173.971C83.8619 173.924 83.5986 173.854 83.2253 173.761C83.1386 173.741 83.0719 173.724 83.0253 173.711C82.1986 173.504 81.6286 173.301 81.3153 173.101C81.0019 172.901 80.8453 172.587 80.8453 172.161C80.8453 171.641 81.0486 171.234 81.4553 170.941C81.8686 170.647 82.4086 170.501 83.0753 170.501C83.7153 170.501 84.2353 170.641 84.6353 170.921C85.0419 171.194 85.3019 171.581 85.4153 172.081H84.5753C84.3753 171.554 83.8819 171.291 83.0953 171.291C82.6619 171.291 82.3186 171.367 82.0653 171.521C81.8119 171.667 81.6853 171.861 81.6853 172.101C81.6853 172.307 81.7886 172.461 81.9953 172.561C82.2019 172.654 82.6153 172.781 83.2353 172.941C83.5286 173.014 83.7486 173.071 83.8953 173.111C84.0486 173.151 84.2286 173.207 84.4353 173.281C84.6486 173.354 84.8053 173.424 84.9053 173.491C85.0053 173.557 85.1086 173.644 85.2153 173.751C85.3219 173.851 85.3953 173.967 85.4353 174.101C85.4753 174.227 85.4953 174.374 85.4953 174.541C85.4953 175.081 85.2786 175.497 84.8453 175.791C84.4186 176.077 83.8786 176.221 83.2253 176.221ZM89.7853 176.111V169.111H90.6153V176.111H89.7853ZM101.821 170.611H102.651L101.031 176.111H100.031L99.4912 174.261L98.7812 171.471H98.6312L97.9212 174.261L97.3712 176.111H96.3712L94.7512 170.611H95.5812L96.0912 172.341L96.8912 175.251L97.6812 172.341L98.1912 170.611H99.2112L99.7212 172.341L100.511 175.241L101.311 172.341L101.821 170.611ZM107.875 170.611H108.705V176.111H107.875V175.001C107.655 175.381 107.362 175.681 106.995 175.901C106.635 176.114 106.222 176.221 105.755 176.221C105.008 176.221 104.392 175.954 103.905 175.421C103.425 174.881 103.185 174.194 103.185 173.361C103.185 172.527 103.425 171.844 103.905 171.311C104.392 170.771 105.008 170.501 105.755 170.501C106.222 170.501 106.638 170.611 107.005 170.831C107.372 171.051 107.662 171.354 107.875 171.741V170.611ZM105.915 175.431C106.482 175.431 106.952 175.237 107.325 174.851C107.698 174.457 107.885 173.961 107.885 173.361C107.885 172.761 107.698 172.267 107.325 171.881C106.952 171.487 106.482 171.291 105.915 171.291C105.355 171.291 104.898 171.487 104.545 171.881C104.198 172.267 104.025 172.761 104.025 173.361C104.025 173.967 104.202 174.464 104.555 174.851C104.908 175.237 105.362 175.431 105.915 175.431ZM114.072 175.181L114.222 175.871C113.782 176.104 113.286 176.221 112.732 176.221C112.126 176.221 111.646 176.031 111.292 175.651C110.939 175.264 110.762 174.717 110.762 174.011V171.391H109.702V170.611H110.762V169.291L111.592 169.111V170.611H114.062V171.391H111.592V173.971C111.592 174.957 112.019 175.451 112.872 175.451C113.179 175.451 113.579 175.361 114.072 175.181ZM117.959 176.221C117.152 176.221 116.475 175.951 115.929 175.411C115.389 174.864 115.119 174.181 115.119 173.361C115.119 172.541 115.389 171.861 115.929 171.321C116.475 170.774 117.152 170.501 117.959 170.501C118.612 170.501 119.185 170.684 119.679 171.051C120.172 171.417 120.489 171.911 120.629 172.531H119.769C119.642 172.144 119.415 171.837 119.089 171.611C118.762 171.384 118.385 171.271 117.959 171.271C117.379 171.271 116.899 171.467 116.519 171.861C116.145 172.254 115.959 172.754 115.959 173.361C115.959 173.967 116.145 174.467 116.519 174.861C116.899 175.254 117.379 175.451 117.959 175.451C118.385 175.451 118.759 175.337 119.079 175.111C119.405 174.884 119.635 174.577 119.769 174.191H120.629C120.482 174.817 120.162 175.314 119.669 175.681C119.175 176.041 118.605 176.221 117.959 176.221ZM124.634 170.501C125.261 170.501 125.747 170.687 126.094 171.061C126.447 171.434 126.624 171.954 126.624 172.621V176.111H125.794V172.781C125.794 171.787 125.331 171.291 124.404 171.291C123.851 171.291 123.421 171.471 123.114 171.831C122.814 172.191 122.664 172.677 122.664 173.291V176.111H121.834V168.411H122.664V171.681C123.071 170.894 123.727 170.501 124.634 170.501ZM130.643 170.501C131.497 170.501 132.177 170.791 132.683 171.371C133.19 171.951 133.427 172.697 133.393 173.611H128.683C128.723 174.177 128.927 174.624 129.293 174.951C129.66 175.277 130.123 175.441 130.683 175.441C131.503 175.441 132.077 175.121 132.403 174.481H133.263C133.037 175.047 132.693 175.481 132.233 175.781C131.773 176.074 131.247 176.221 130.653 176.221C129.833 176.221 129.157 175.957 128.623 175.431C128.097 174.897 127.833 174.214 127.833 173.381C127.833 172.547 128.097 171.861 128.623 171.321C129.15 170.774 129.823 170.501 130.643 170.501ZM130.643 171.281C130.15 171.281 129.73 171.424 129.383 171.711C129.043 171.997 128.823 172.371 128.723 172.831H132.493C132.4 172.364 132.19 171.991 131.863 171.711C131.537 171.424 131.13 171.281 130.643 171.281ZM139.116 168.411H139.946V176.111H139.116V175.001C138.903 175.381 138.613 175.681 138.246 175.901C137.88 176.114 137.463 176.221 136.996 176.221C136.25 176.221 135.633 175.954 135.146 175.421C134.666 174.881 134.426 174.194 134.426 173.361C134.426 172.527 134.666 171.844 135.146 171.311C135.633 170.771 136.25 170.501 136.996 170.501C137.463 170.501 137.88 170.611 138.246 170.831C138.613 171.051 138.903 171.354 139.116 171.741V168.411ZM137.156 175.431C137.723 175.431 138.193 175.237 138.566 174.851C138.94 174.457 139.126 173.961 139.126 173.361C139.126 172.761 138.94 172.267 138.566 171.881C138.193 171.487 137.723 171.291 137.156 171.291C136.603 171.291 136.15 171.487 135.796 171.881C135.443 172.267 135.266 172.761 135.266 173.361C135.266 173.967 135.443 174.464 135.796 174.851C136.15 175.237 136.603 175.431 137.156 175.431ZM148.311 175.181L148.461 175.871C148.021 176.104 147.524 176.221 146.971 176.221C146.364 176.221 145.884 176.031 145.531 175.651C145.177 175.264 145.001 174.717 145.001 174.011V171.391H143.941V170.611H145.001V169.291L145.831 169.111V170.611H148.301V171.391H145.831V173.971C145.831 174.957 146.257 175.451 147.111 175.451C147.417 175.451 147.817 175.361 148.311 175.181ZM152.427 170.501C153.054 170.501 153.54 170.687 153.887 171.061C154.24 171.434 154.417 171.954 154.417 172.621V176.111H153.587V172.781C153.587 171.787 153.124 171.291 152.197 171.291C151.644 171.291 151.214 171.471 150.907 171.831C150.607 172.191 150.457 172.677 150.457 173.291V176.111H149.627V168.411H150.457V171.681C150.864 170.894 151.52 170.501 152.427 170.501ZM158.436 170.501C159.29 170.501 159.97 170.791 160.476 171.371C160.983 171.951 161.22 172.697 161.186 173.611H156.476C156.516 174.177 156.72 174.624 157.086 174.951C157.453 175.277 157.916 175.441 158.476 175.441C159.296 175.441 159.87 175.121 160.196 174.481H161.056C160.83 175.047 160.486 175.481 160.026 175.781C159.566 176.074 159.04 176.221 158.446 176.221C157.626 176.221 156.95 175.957 156.416 175.431C155.89 174.897 155.626 174.214 155.626 173.381C155.626 172.547 155.89 171.861 156.416 171.321C156.943 170.774 157.616 170.501 158.436 170.501ZM158.436 171.281C157.943 171.281 157.523 171.424 157.176 171.711C156.836 171.997 156.616 172.371 156.516 172.831H160.286C160.193 172.364 159.983 171.991 159.656 171.711C159.33 171.424 158.923 171.281 158.436 171.281ZM167.987 170.501C168.841 170.501 169.521 170.791 170.027 171.371C170.534 171.951 170.771 172.697 170.737 173.611H166.027C166.067 174.177 166.271 174.624 166.637 174.951C167.004 175.277 167.467 175.441 168.027 175.441C168.847 175.441 169.421 175.121 169.747 174.481H170.607C170.381 175.047 170.037 175.481 169.577 175.781C169.117 176.074 168.591 176.221 167.997 176.221C167.177 176.221 166.501 175.957 165.967 175.431C165.441 174.897 165.177 174.214 165.177 173.381C165.177 172.547 165.441 171.861 165.967 171.321C166.494 170.774 167.167 170.501 167.987 170.501ZM167.987 171.281C167.494 171.281 167.074 171.424 166.727 171.711C166.387 171.997 166.167 172.371 166.067 172.831H169.837C169.744 172.364 169.534 171.991 169.207 171.711C168.881 171.424 168.474 171.281 167.987 171.281ZM174.75 170.501C175.37 170.501 175.857 170.687 176.21 171.061C176.563 171.434 176.74 171.954 176.74 172.621V176.111H175.91V172.781C175.91 171.787 175.447 171.291 174.52 171.291C173.967 171.291 173.537 171.471 173.23 171.831C172.93 172.191 172.78 172.677 172.78 173.291V176.111H171.95V170.611H172.78V171.701C173.18 170.901 173.837 170.501 174.75 170.501ZM181.934 175.181L182.084 175.871C181.644 176.104 181.147 176.221 180.594 176.221C179.987 176.221 179.507 176.031 179.154 175.651C178.8 175.264 178.624 174.717 178.624 174.011V171.391H177.564V170.611H178.624V169.291L179.454 169.111V170.611H181.924V171.391H179.454V173.971C179.454 174.957 179.88 175.451 180.734 175.451C181.04 175.451 181.44 175.361 181.934 175.181ZM183.2 168.351C183.313 168.244 183.453 168.191 183.62 168.191C183.787 168.191 183.923 168.244 184.03 168.351C184.143 168.457 184.2 168.587 184.2 168.741C184.2 168.901 184.143 169.034 184.03 169.141C183.923 169.247 183.787 169.301 183.62 169.301C183.453 169.301 183.313 169.247 183.2 169.141C183.093 169.034 183.04 168.901 183.04 168.741C183.04 168.587 183.093 168.457 183.2 168.351ZM183.2 176.111V170.611H184.03V176.111H183.2ZM188.295 170.501C188.415 170.501 188.528 170.507 188.635 170.521V171.371C188.515 171.357 188.398 171.351 188.285 171.351C187.691 171.351 187.218 171.541 186.865 171.921C186.511 172.294 186.335 172.824 186.335 173.511V176.111H185.505V170.611H186.335V171.841C186.695 170.947 187.348 170.501 188.295 170.501ZM192.128 170.501C192.981 170.501 193.661 170.791 194.168 171.371C194.675 171.951 194.911 172.697 194.878 173.611H190.168C190.208 174.177 190.411 174.624 190.778 174.951C191.145 175.277 191.608 175.441 192.168 175.441C192.988 175.441 193.561 175.121 193.888 174.481H194.748C194.521 175.047 194.178 175.481 193.718 175.781C193.258 176.074 192.731 176.221 192.138 176.221C191.318 176.221 190.641 175.957 190.108 175.431C189.581 174.897 189.318 174.214 189.318 173.381C189.318 172.547 189.581 171.861 190.108 171.321C190.635 170.774 191.308 170.501 192.128 170.501ZM192.128 171.281C191.635 171.281 191.215 171.424 190.868 171.711C190.528 171.997 190.308 172.371 190.208 172.831H193.978C193.885 172.364 193.675 171.991 193.348 171.711C193.021 171.424 192.615 171.281 192.128 171.281ZM202.889 170.611H203.779L201.709 176.111H200.679L198.609 170.611H199.499L201.189 175.281L202.889 170.611ZM204.782 168.351C204.895 168.244 205.035 168.191 205.202 168.191C205.369 168.191 205.505 168.244 205.612 168.351C205.725 168.457 205.782 168.587 205.782 168.741C205.782 168.901 205.725 169.034 205.612 169.141C205.505 169.247 205.369 169.301 205.202 169.301C205.035 169.301 204.895 169.247 204.782 169.141C204.675 169.034 204.622 168.901 204.622 168.741C204.622 168.587 204.675 168.457 204.782 168.351ZM204.782 176.111V170.611H205.612V176.111H204.782ZM211.597 168.411H212.427V176.111H211.597V175.001C211.383 175.381 211.093 175.681 210.727 175.901C210.36 176.114 209.943 176.221 209.477 176.221C208.73 176.221 208.113 175.954 207.627 175.421C207.147 174.881 206.907 174.194 206.907 173.361C206.907 172.527 207.147 171.844 207.627 171.311C208.113 170.771 208.73 170.501 209.477 170.501C209.943 170.501 210.36 170.611 210.727 170.831C211.093 171.051 211.383 171.354 211.597 171.741V168.411ZM209.637 175.431C210.203 175.431 210.673 175.237 211.047 174.851C211.42 174.457 211.607 173.961 211.607 173.361C211.607 172.761 211.42 172.267 211.047 171.881C210.673 171.487 210.203 171.291 209.637 171.291C209.083 171.291 208.63 171.487 208.277 171.881C207.923 172.267 207.747 172.761 207.747 173.361C207.747 173.967 207.923 174.464 208.277 174.851C208.63 175.237 209.083 175.431 209.637 175.431ZM216.493 170.501C217.346 170.501 218.026 170.791 218.533 171.371C219.04 171.951 219.276 172.697 219.243 173.611H214.533C214.573 174.177 214.776 174.624 215.143 174.951C215.51 175.277 215.973 175.441 216.533 175.441C217.353 175.441 217.926 175.121 218.253 174.481H219.113C218.886 175.047 218.543 175.481 218.083 175.781C217.623 176.074 217.096 176.221 216.503 176.221C215.683 176.221 215.006 175.957 214.473 175.431C213.946 174.897 213.683 174.214 213.683 173.381C213.683 172.547 213.946 171.861 214.473 171.321C215 170.774 215.673 170.501 216.493 170.501ZM216.493 171.281C216 171.281 215.58 171.424 215.233 171.711C214.893 171.997 214.673 172.371 214.573 172.831H218.343C218.25 172.364 218.04 171.991 217.713 171.711C217.386 171.424 216.98 171.281 216.493 171.281ZM223.066 170.501C223.859 170.501 224.529 170.774 225.076 171.321C225.629 171.861 225.906 172.541 225.906 173.361C225.906 174.181 225.632 174.864 225.086 175.411C224.539 175.951 223.866 176.221 223.066 176.221C222.272 176.221 221.602 175.947 221.056 175.401C220.509 174.854 220.236 174.174 220.236 173.361C220.236 172.547 220.509 171.867 221.056 171.321C221.609 170.774 222.279 170.501 223.066 170.501ZM224.486 171.881C224.099 171.487 223.626 171.291 223.066 171.291C222.506 171.291 222.032 171.487 221.646 171.881C221.266 172.267 221.076 172.761 221.076 173.361C221.076 173.961 221.266 174.457 221.646 174.851C222.032 175.237 222.506 175.431 223.066 175.431C223.632 175.431 224.106 175.237 224.486 174.851C224.872 174.457 225.066 173.961 225.066 173.361C225.066 172.761 224.872 172.267 224.486 171.881ZM234.623 170.611H235.453V176.111H234.623V175.001C234.403 175.381 234.11 175.681 233.743 175.901C233.383 176.114 232.97 176.221 232.503 176.221C231.756 176.221 231.14 175.954 230.653 175.421C230.173 174.881 229.933 174.194 229.933 173.361C229.933 172.527 230.173 171.844 230.653 171.311C231.14 170.771 231.756 170.501 232.503 170.501C232.97 170.501 233.386 170.611 233.753 170.831C234.12 171.051 234.41 171.354 234.623 171.741V170.611ZM232.663 175.431C233.23 175.431 233.7 175.237 234.073 174.851C234.446 174.457 234.633 173.961 234.633 173.361C234.633 172.761 234.446 172.267 234.073 171.881C233.7 171.487 233.23 171.291 232.663 171.291C232.103 171.291 231.646 171.487 231.293 171.881C230.946 172.267 230.773 172.761 230.773 173.361C230.773 173.967 230.95 174.464 231.303 174.851C231.656 175.237 232.11 175.431 232.663 175.431ZM239.73 170.501C240.35 170.501 240.837 170.687 241.19 171.061C241.544 171.434 241.72 171.954 241.72 172.621V176.111H240.89V172.781C240.89 171.787 240.427 171.291 239.5 171.291C238.947 171.291 238.517 171.471 238.21 171.831C237.91 172.191 237.76 172.677 237.76 173.291V176.111H236.93V170.611H237.76V171.701C238.16 170.901 238.817 170.501 239.73 170.501ZM247.651 168.411H248.481V176.111H247.651V175.001C247.438 175.381 247.148 175.681 246.781 175.901C246.415 176.114 245.998 176.221 245.531 176.221C244.785 176.221 244.168 175.954 243.681 175.421C243.201 174.881 242.961 174.194 242.961 173.361C242.961 172.527 243.201 171.844 243.681 171.311C244.168 170.771 244.785 170.501 245.531 170.501C245.998 170.501 246.415 170.611 246.781 170.831C247.148 171.051 247.438 171.354 247.651 171.741V168.411ZM245.691 175.431C246.258 175.431 246.728 175.237 247.101 174.851C247.475 174.457 247.661 173.961 247.661 173.361C247.661 172.761 247.475 172.267 247.101 171.881C246.728 171.487 246.258 171.291 245.691 171.291C245.138 171.291 244.685 171.487 244.331 171.881C243.978 172.267 243.801 172.761 243.801 173.361C243.801 173.967 243.978 174.464 244.331 174.851C244.685 175.237 245.138 175.431 245.691 175.431ZM256.816 170.611H257.646V176.111H256.816V175.021C256.402 175.821 255.749 176.221 254.856 176.221C254.242 176.221 253.762 176.034 253.416 175.661C253.076 175.287 252.906 174.767 252.906 174.101V170.611H253.736V173.941C253.736 174.934 254.189 175.431 255.096 175.431C255.636 175.431 256.056 175.251 256.356 174.891C256.662 174.531 256.816 174.044 256.816 173.431V170.611ZM261.898 170.501C262.518 170.501 263.005 170.687 263.358 171.061C263.712 171.434 263.888 171.954 263.888 172.621V176.111H263.058V172.781C263.058 171.787 262.595 171.291 261.668 171.291C261.115 171.291 260.685 171.471 260.378 171.831C260.078 172.191 259.928 172.677 259.928 173.291V176.111H259.098V170.611H259.928V171.701C260.328 170.901 260.985 170.501 261.898 170.501ZM269.819 168.411H270.649V176.111H269.819V175.001C269.606 175.381 269.316 175.681 268.949 175.901C268.583 176.114 268.166 176.221 267.699 176.221C266.953 176.221 266.336 175.954 265.849 175.421C265.369 174.881 265.129 174.194 265.129 173.361C265.129 172.527 265.369 171.844 265.849 171.311C266.336 170.771 266.953 170.501 267.699 170.501C268.166 170.501 268.583 170.611 268.949 170.831C269.316 171.051 269.606 171.354 269.819 171.741V168.411ZM267.859 175.431C268.426 175.431 268.896 175.237 269.269 174.851C269.643 174.457 269.829 173.961 269.829 173.361C269.829 172.761 269.643 172.267 269.269 171.881C268.896 171.487 268.426 171.291 267.859 171.291C267.306 171.291 266.853 171.487 266.499 171.881C266.146 172.267 265.969 172.761 265.969 173.361C265.969 173.967 266.146 174.464 266.499 174.851C266.853 175.237 267.306 175.431 267.859 175.431ZM274.716 170.501C275.569 170.501 276.249 170.791 276.756 171.371C277.262 171.951 277.499 172.697 277.466 173.611H272.756C272.796 174.177 272.999 174.624 273.366 174.951C273.732 175.277 274.196 175.441 274.756 175.441C275.576 175.441 276.149 175.121 276.476 174.481H277.336C277.109 175.047 276.766 175.481 276.306 175.781C275.846 176.074 275.319 176.221 274.726 176.221C273.906 176.221 273.229 175.957 272.696 175.431C272.169 174.897 271.906 174.214 271.906 173.381C271.906 172.547 272.169 171.861 272.696 171.321C273.222 170.774 273.896 170.501 274.716 170.501ZM274.716 171.281C274.222 171.281 273.802 171.424 273.456 171.711C273.116 171.997 272.896 172.371 272.796 172.831H276.566C276.472 172.364 276.262 171.991 275.936 171.711C275.609 171.424 275.202 171.281 274.716 171.281ZM281.468 170.501C281.588 170.501 281.702 170.507 281.808 170.521V171.371C281.688 171.357 281.572 171.351 281.458 171.351C280.865 171.351 280.392 171.541 280.038 171.921C279.685 172.294 279.508 172.824 279.508 173.511V176.111H278.678V170.611H279.508V171.841C279.868 170.947 280.522 170.501 281.468 170.501ZM285.139 176.221C284.419 176.221 283.823 176.061 283.349 175.741C282.876 175.421 282.586 174.971 282.479 174.391H283.329C283.436 174.764 283.633 175.031 283.919 175.191C284.213 175.351 284.619 175.431 285.139 175.431C285.559 175.431 285.899 175.361 286.159 175.221C286.426 175.074 286.559 174.871 286.559 174.611C286.559 174.451 286.493 174.317 286.359 174.211C286.226 174.097 286.083 174.017 285.929 173.971C285.776 173.924 285.513 173.854 285.139 173.761C285.053 173.741 284.986 173.724 284.939 173.711C284.113 173.504 283.543 173.301 283.229 173.101C282.916 172.901 282.759 172.587 282.759 172.161C282.759 171.641 282.963 171.234 283.369 170.941C283.783 170.647 284.323 170.501 284.989 170.501C285.629 170.501 286.149 170.641 286.549 170.921C286.956 171.194 287.216 171.581 287.329 172.081H286.489C286.289 171.554 285.796 171.291 285.009 171.291C284.576 171.291 284.233 171.367 283.979 171.521C283.726 171.667 283.599 171.861 283.599 172.101C283.599 172.307 283.703 172.461 283.909 172.561C284.116 172.654 284.529 172.781 285.149 172.941C285.443 173.014 285.663 173.071 285.809 173.111C285.963 173.151 286.143 173.207 286.349 173.281C286.563 173.354 286.719 173.424 286.819 173.491C286.919 173.557 287.023 173.644 287.129 173.751C287.236 173.851 287.309 173.967 287.349 174.101C287.389 174.227 287.409 174.374 287.409 174.541C287.409 175.081 287.193 175.497 286.759 175.791C286.333 176.077 285.793 176.221 285.139 176.221ZM292.451 175.181L292.601 175.871C292.161 176.104 291.665 176.221 291.111 176.221C290.505 176.221 290.025 176.031 289.671 175.651C289.318 175.264 289.141 174.717 289.141 174.011V171.391H288.081V170.611H289.141V169.291L289.971 169.111V170.611H292.441V171.391H289.971V173.971C289.971 174.957 290.398 175.451 291.251 175.451C291.558 175.451 291.958 175.361 292.451 175.181ZM296.083 170.501C296.877 170.501 297.547 170.774 298.093 171.321C298.647 171.861 298.923 172.541 298.923 173.361C298.923 174.181 298.65 174.864 298.103 175.411C297.557 175.951 296.883 176.221 296.083 176.221C295.29 176.221 294.62 175.947 294.073 175.401C293.527 174.854 293.253 174.174 293.253 173.361C293.253 172.547 293.527 171.867 294.073 171.321C294.627 170.774 295.297 170.501 296.083 170.501ZM297.503 171.881C297.117 171.487 296.643 171.291 296.083 171.291C295.523 171.291 295.05 171.487 294.663 171.881C294.283 172.267 294.093 172.761 294.093 173.361C294.093 173.961 294.283 174.457 294.663 174.851C295.05 175.237 295.523 175.431 296.083 175.431C296.65 175.431 297.123 175.237 297.503 174.851C297.89 174.457 298.083 173.961 298.083 173.361C298.083 172.761 297.89 172.267 297.503 171.881ZM302.783 170.501C303.576 170.501 304.246 170.774 304.793 171.321C305.346 171.861 305.623 172.541 305.623 173.361C305.623 174.181 305.349 174.864 304.803 175.411C304.256 175.951 303.583 176.221 302.783 176.221C301.989 176.221 301.319 175.947 300.773 175.401C300.226 174.854 299.953 174.174 299.953 173.361C299.953 172.547 300.226 171.867 300.773 171.321C301.326 170.774 301.996 170.501 302.783 170.501ZM304.203 171.881C303.816 171.487 303.343 171.291 302.783 171.291C302.223 171.291 301.749 171.487 301.363 171.881C300.983 172.267 300.793 172.761 300.793 173.361C300.793 173.961 300.983 174.457 301.363 174.851C301.749 175.237 302.223 175.431 302.783 175.431C303.349 175.431 303.823 175.237 304.203 174.851C304.589 174.457 304.783 173.961 304.783 173.361C304.783 172.761 304.589 172.267 304.203 171.881ZM311.382 168.411H312.212V176.111H311.382V175.001C311.169 175.381 310.879 175.681 310.512 175.901C310.145 176.114 309.729 176.221 309.262 176.221C308.515 176.221 307.899 175.954 307.412 175.421C306.932 174.881 306.692 174.194 306.692 173.361C306.692 172.527 306.932 171.844 307.412 171.311C307.899 170.771 308.515 170.501 309.262 170.501C309.729 170.501 310.145 170.611 310.512 170.831C310.879 171.051 311.169 171.354 311.382 171.741V168.411ZM309.422 175.431C309.989 175.431 310.459 175.237 310.832 174.851C311.205 174.457 311.392 173.961 311.392 173.361C311.392 172.761 311.205 172.267 310.832 171.881C310.459 171.487 309.989 171.291 309.422 171.291C308.869 171.291 308.415 171.487 308.062 171.881C307.709 172.267 307.532 172.761 307.532 173.361C307.532 173.967 307.709 174.464 308.062 174.851C308.415 175.237 308.869 175.431 309.422 175.431ZM34.8634 187.181L35.0134 187.871C34.5734 188.104 34.0767 188.221 33.5234 188.221C32.9167 188.221 32.4367 188.031 32.0834 187.651C31.7301 187.264 31.5534 186.717 31.5534 186.011V183.391H30.4934V182.611H31.5534V181.291L32.3834 181.111V182.611H34.8534V183.391H32.3834V185.971C32.3834 186.957 32.8101 187.451 33.6634 187.451C33.9701 187.451 34.3701 187.361 34.8634 187.181ZM38.9796 182.501C39.6063 182.501 40.093 182.687 40.4396 183.061C40.793 183.434 40.9696 183.954 40.9696 184.621V188.111H40.1396V184.781C40.1396 183.787 39.6763 183.291 38.7496 183.291C38.1963 183.291 37.7663 183.471 37.4596 183.831C37.1596 184.191 37.0096 184.677 37.0096 185.291V188.111H36.1796V180.411H37.0096V183.681C37.4163 182.894 38.073 182.501 38.9796 182.501ZM44.9892 182.501C45.8425 182.501 46.5225 182.791 47.0292 183.371C47.5358 183.951 47.7725 184.697 47.7392 185.611H43.0292C43.0692 186.177 43.2725 186.624 43.6392 186.951C44.0058 187.277 44.4692 187.441 45.0292 187.441C45.8492 187.441 46.4225 187.121 46.7492 186.481H47.6092C47.3825 187.047 47.0392 187.481 46.5792 187.781C46.1192 188.074 45.5925 188.221 44.9992 188.221C44.1792 188.221 43.5025 187.957 42.9692 187.431C42.4425 186.897 42.1792 186.214 42.1792 185.381C42.1792 184.547 42.4425 183.861 42.9692 183.321C43.4958 182.774 44.1692 182.501 44.9892 182.501ZM44.9892 183.281C44.4958 183.281 44.0758 183.424 43.7292 183.711C43.3892 183.997 43.1692 184.371 43.0692 184.831H46.8392C46.7458 184.364 46.5358 183.991 46.2092 183.711C45.8825 183.424 45.4758 183.281 44.9892 183.281ZM55.81 182.611H56.64V188.111H55.81V187.021C55.3966 187.821 54.7433 188.221 53.85 188.221C53.2366 188.221 52.7566 188.034 52.41 187.661C52.07 187.287 51.9 186.767 51.9 186.101V182.611H52.73V185.941C52.73 186.934 53.1833 187.431 54.09 187.431C54.63 187.431 55.05 187.251 55.35 186.891C55.6566 186.531 55.81 186.044 55.81 185.431V182.611ZM60.4225 188.221C59.7025 188.221 59.1059 188.061 58.6325 187.741C58.1592 187.421 57.8692 186.971 57.7625 186.391H58.6125C58.7192 186.764 58.9159 187.031 59.2025 187.191C59.4959 187.351 59.9025 187.431 60.4225 187.431C60.8425 187.431 61.1825 187.361 61.4425 187.221C61.7092 187.074 61.8425 186.871 61.8425 186.611C61.8425 186.451 61.7759 186.317 61.6425 186.211C61.5092 186.097 61.3659 186.017 61.2125 185.971C61.0592 185.924 60.7959 185.854 60.4225 185.761C60.3359 185.741 60.2692 185.724 60.2225 185.711C59.3959 185.504 58.8259 185.301 58.5125 185.101C58.1992 184.901 58.0425 184.587 58.0425 184.161C58.0425 183.641 58.2459 183.234 58.6525 182.941C59.0659 182.647 59.6059 182.501 60.2725 182.501C60.9125 182.501 61.4325 182.641 61.8325 182.921C62.2392 183.194 62.4992 183.581 62.6125 184.081H61.7725C61.5725 183.554 61.0792 183.291 60.2925 183.291C59.8592 183.291 59.5159 183.367 59.2625 183.521C59.0092 183.667 58.8825 183.861 58.8825 184.101C58.8825 184.307 58.9859 184.461 59.1925 184.561C59.3992 184.654 59.8125 184.781 60.4325 184.941C60.7259 185.014 60.9459 185.071 61.0925 185.111C61.2459 185.151 61.4259 185.207 61.6325 185.281C61.8459 185.354 62.0025 185.424 62.1025 185.491C62.2025 185.557 62.3059 185.644 62.4125 185.751C62.5192 185.851 62.5925 185.967 62.6325 186.101C62.6725 186.227 62.6925 186.374 62.6925 186.541C62.6925 187.081 62.4759 187.497 62.0425 187.791C61.6159 188.077 61.0759 188.221 60.4225 188.221ZM66.4345 182.501C67.2878 182.501 67.9678 182.791 68.4745 183.371C68.9812 183.951 69.2178 184.697 69.1845 185.611H64.4745C64.5145 186.177 64.7178 186.624 65.0845 186.951C65.4512 187.277 65.9145 187.441 66.4745 187.441C67.2945 187.441 67.8678 187.121 68.1945 186.481H69.0545C68.8278 187.047 68.4845 187.481 68.0245 187.781C67.5645 188.074 67.0378 188.221 66.4445 188.221C65.6245 188.221 64.9478 187.957 64.4145 187.431C63.8878 186.897 63.6245 186.214 63.6245 185.381C63.6245 184.547 63.8878 183.861 64.4145 183.321C64.9412 182.774 65.6145 182.501 66.4345 182.501ZM66.4345 183.281C65.9412 183.281 65.5212 183.424 65.1745 183.711C64.8345 183.997 64.6145 184.371 64.5145 184.831H68.2845C68.1912 184.364 67.9812 183.991 67.6545 183.711C67.3278 183.424 66.9212 183.281 66.4345 183.281ZM73.1872 182.501C73.3072 182.501 73.4206 182.507 73.5272 182.521V183.371C73.4072 183.357 73.2906 183.351 73.1772 183.351C72.5839 183.351 72.1106 183.541 71.7572 183.921C71.4039 184.294 71.2272 184.824 71.2272 185.511V188.111H70.3972V182.611H71.2272V183.841C71.5872 182.947 72.2406 182.501 73.1872 182.501ZM80.2461 181.041C79.3728 181.041 78.9361 181.554 78.9361 182.581V182.611H81.1661V183.391H78.9361V188.111H78.1061V183.391H77.0461V182.611H78.1061V182.541C78.1061 181.834 78.2928 181.284 78.6661 180.891C79.0395 180.497 79.5361 180.301 80.1561 180.301C80.5961 180.301 80.9895 180.377 81.3361 180.531L81.1861 181.221L81.0461 181.181C80.7928 181.087 80.5261 181.041 80.2461 181.041ZM82.3218 188.111V180.411H83.1518V188.111H82.3218ZM87.2162 182.501C88.0095 182.501 88.6795 182.774 89.2262 183.321C89.7795 183.861 90.0562 184.541 90.0562 185.361C90.0562 186.181 89.7829 186.864 89.2362 187.411C88.6895 187.951 88.0162 188.221 87.2162 188.221C86.4229 188.221 85.7529 187.947 85.2062 187.401C84.6595 186.854 84.3862 186.174 84.3862 185.361C84.3862 184.547 84.6595 183.867 85.2062 183.321C85.7595 182.774 86.4295 182.501 87.2162 182.501ZM88.6362 183.881C88.2495 183.487 87.7762 183.291 87.2162 183.291C86.6562 183.291 86.1829 183.487 85.7962 183.881C85.4162 184.267 85.2262 184.761 85.2262 185.361C85.2262 185.961 85.4162 186.457 85.7962 186.851C86.1829 187.237 86.6562 187.431 87.2162 187.431C87.7829 187.431 88.2562 187.237 88.6362 186.851C89.0229 186.457 89.2162 185.961 89.2162 185.361C89.2162 184.761 89.0229 184.267 88.6362 183.881ZM97.6513 182.611H98.4813L96.8613 188.111H95.8613L95.3213 186.261L94.6113 183.471H94.4613L93.7513 186.261L93.2013 188.111H92.2013L90.5813 182.611H91.4113L91.9213 184.341L92.7213 187.251L93.5113 184.341L94.0213 182.611H95.0413L95.5513 184.341L96.3413 187.241L97.1413 184.341L97.6513 182.611ZM105.087 182.501C105.881 182.501 106.551 182.774 107.097 183.321C107.651 183.861 107.927 184.541 107.927 185.361C107.927 186.181 107.654 186.864 107.107 187.411C106.561 187.951 105.887 188.221 105.087 188.221C104.294 188.221 103.624 187.947 103.077 187.401C102.531 186.854 102.257 186.174 102.257 185.361C102.257 184.547 102.531 183.867 103.077 183.321C103.631 182.774 104.301 182.501 105.087 182.501ZM106.507 183.881C106.121 183.487 105.647 183.291 105.087 183.291C104.527 183.291 104.054 183.487 103.667 183.881C103.287 184.267 103.097 184.761 103.097 185.361C103.097 185.961 103.287 186.457 103.667 186.851C104.054 187.237 104.527 187.431 105.087 187.431C105.654 187.431 106.127 187.237 106.507 186.851C106.894 186.457 107.087 185.961 107.087 185.361C107.087 184.761 106.894 184.267 106.507 183.881ZM111.897 181.041C111.023 181.041 110.587 181.554 110.587 182.581V182.611H112.817V183.391H110.587V188.111H109.757V183.391H108.697V182.611H109.757V182.541C109.757 181.834 109.943 181.284 110.317 180.891C110.69 180.497 111.187 180.301 111.807 180.301C112.247 180.301 112.64 180.377 112.987 180.531L112.837 181.221L112.697 181.181C112.443 181.087 112.177 181.041 111.897 181.041ZM120.83 187.181L120.98 187.871C120.54 188.104 120.044 188.221 119.49 188.221C118.884 188.221 118.404 188.031 118.05 187.651C117.697 187.264 117.52 186.717 117.52 186.011V183.391H116.46V182.611H117.52V181.291L118.35 181.111V182.611H120.82V183.391H118.35V185.971C118.35 186.957 118.777 187.451 119.63 187.451C119.937 187.451 120.337 187.361 120.83 187.181ZM124.946 182.501C125.573 182.501 126.06 182.687 126.406 183.061C126.76 183.434 126.936 183.954 126.936 184.621V188.111H126.106V184.781C126.106 183.787 125.643 183.291 124.716 183.291C124.163 183.291 123.733 183.471 123.426 183.831C123.126 184.191 122.976 184.677 122.976 185.291V188.111H122.146V180.411H122.976V183.681C123.383 182.894 124.04 182.501 124.946 182.501ZM130.956 182.501C131.809 182.501 132.489 182.791 132.996 183.371C133.503 183.951 133.739 184.697 133.706 185.611H128.996C129.036 186.177 129.239 186.624 129.606 186.951C129.973 187.277 130.436 187.441 130.996 187.441C131.816 187.441 132.389 187.121 132.716 186.481H133.576C133.349 187.047 133.006 187.481 132.546 187.781C132.086 188.074 131.559 188.221 130.966 188.221C130.146 188.221 129.469 187.957 128.936 187.431C128.409 186.897 128.146 186.214 128.146 185.381C128.146 184.547 128.409 183.861 128.936 183.321C129.463 182.774 130.136 182.501 130.956 182.501ZM130.956 183.281C130.463 183.281 130.043 183.424 129.696 183.711C129.356 183.997 129.136 184.371 129.036 184.831H132.806C132.713 184.364 132.503 183.991 132.176 183.711C131.849 183.424 131.443 183.281 130.956 183.281ZM142.387 182.611H143.217V188.111H142.387V187.001C142.167 187.381 141.873 187.681 141.507 187.901C141.147 188.114 140.733 188.221 140.267 188.221C139.52 188.221 138.903 187.954 138.417 187.421C137.937 186.881 137.697 186.194 137.697 185.361C137.697 184.527 137.937 183.844 138.417 183.311C138.903 182.771 139.52 182.501 140.267 182.501C140.733 182.501 141.15 182.611 141.517 182.831C141.883 183.051 142.173 183.354 142.387 183.741V182.611ZM140.427 187.431C140.993 187.431 141.463 187.237 141.837 186.851C142.21 186.457 142.397 185.961 142.397 185.361C142.397 184.761 142.21 184.267 141.837 183.881C141.463 183.487 140.993 183.291 140.427 183.291C139.867 183.291 139.41 183.487 139.057 183.881C138.71 184.267 138.537 184.761 138.537 185.361C138.537 185.967 138.713 186.464 139.067 186.851C139.42 187.237 139.873 187.431 140.427 187.431ZM147.694 182.501C148.441 182.501 149.054 182.771 149.534 183.311C150.021 183.844 150.264 184.527 150.264 185.361C150.264 186.194 150.021 186.881 149.534 187.421C149.047 187.954 148.431 188.221 147.684 188.221C147.217 188.221 146.801 188.114 146.434 187.901C146.074 187.681 145.787 187.381 145.574 187.001V190.611H144.744V182.611H145.574V183.741C145.787 183.354 146.077 183.051 146.444 182.831C146.811 182.611 147.227 182.501 147.694 182.501ZM147.534 187.431C148.087 187.431 148.541 187.237 148.894 186.851C149.247 186.464 149.424 185.967 149.424 185.361C149.424 184.761 149.247 184.267 148.894 183.881C148.541 183.487 148.087 183.291 147.534 183.291C146.967 183.291 146.497 183.487 146.124 183.881C145.751 184.267 145.564 184.761 145.564 185.361C145.564 185.961 145.751 186.457 146.124 186.851C146.497 187.237 146.967 187.431 147.534 187.431ZM154.52 182.501C155.267 182.501 155.88 182.771 156.36 183.311C156.847 183.844 157.09 184.527 157.09 185.361C157.09 186.194 156.847 186.881 156.36 187.421C155.874 187.954 155.257 188.221 154.51 188.221C154.044 188.221 153.627 188.114 153.26 187.901C152.9 187.681 152.614 187.381 152.4 187.001V190.611H151.57V182.611H152.4V183.741C152.614 183.354 152.904 183.051 153.27 182.831C153.637 182.611 154.054 182.501 154.52 182.501ZM154.36 187.431C154.914 187.431 155.367 187.237 155.72 186.851C156.074 186.464 156.25 185.967 156.25 185.361C156.25 184.761 156.074 184.267 155.72 183.881C155.367 183.487 154.914 183.291 154.36 183.291C153.794 183.291 153.324 183.487 152.95 183.881C152.577 184.267 152.39 184.761 152.39 185.361C152.39 185.961 152.577 186.457 152.95 186.851C153.324 187.237 153.794 187.431 154.36 187.431ZM158.376 188.111V180.411H159.206V188.111H158.376ZM160.661 180.351C160.774 180.244 160.914 180.191 161.081 180.191C161.248 180.191 161.384 180.244 161.491 180.351C161.604 180.457 161.661 180.587 161.661 180.741C161.661 180.901 161.604 181.034 161.491 181.141C161.384 181.247 161.248 181.301 161.081 181.301C160.914 181.301 160.774 181.247 160.661 181.141C160.554 181.034 160.501 180.901 160.501 180.741C160.501 180.587 160.554 180.457 160.661 180.351ZM160.661 188.111V182.611H161.491V188.111H160.661ZM165.586 188.221C164.779 188.221 164.102 187.951 163.556 187.411C163.016 186.864 162.746 186.181 162.746 185.361C162.746 184.541 163.016 183.861 163.556 183.321C164.102 182.774 164.779 182.501 165.586 182.501C166.239 182.501 166.812 182.684 167.306 183.051C167.799 183.417 168.116 183.911 168.256 184.531H167.396C167.269 184.144 167.042 183.837 166.716 183.611C166.389 183.384 166.012 183.271 165.586 183.271C165.006 183.271 164.526 183.467 164.146 183.861C163.772 184.254 163.586 184.754 163.586 185.361C163.586 185.967 163.772 186.467 164.146 186.861C164.526 187.254 165.006 187.451 165.586 187.451C166.012 187.451 166.386 187.337 166.706 187.111C167.032 186.884 167.262 186.577 167.396 186.191H168.256C168.109 186.817 167.789 187.314 167.296 187.681C166.802 188.041 166.232 188.221 165.586 188.221ZM173.881 182.611H174.711V188.111H173.881V187.001C173.661 187.381 173.368 187.681 173.001 187.901C172.641 188.114 172.228 188.221 171.761 188.221C171.014 188.221 170.398 187.954 169.911 187.421C169.431 186.881 169.191 186.194 169.191 185.361C169.191 184.527 169.431 183.844 169.911 183.311C170.398 182.771 171.014 182.501 171.761 182.501C172.228 182.501 172.644 182.611 173.011 182.831C173.378 183.051 173.668 183.354 173.881 183.741V182.611ZM171.921 187.431C172.488 187.431 172.958 187.237 173.331 186.851C173.704 186.457 173.891 185.961 173.891 185.361C173.891 184.761 173.704 184.267 173.331 183.881C172.958 183.487 172.488 183.291 171.921 183.291C171.361 183.291 170.904 183.487 170.551 183.881C170.204 184.267 170.031 184.761 170.031 185.361C170.031 185.967 170.208 186.464 170.561 186.851C170.914 187.237 171.368 187.431 171.921 187.431ZM180.078 187.181L180.228 187.871C179.788 188.104 179.292 188.221 178.738 188.221C178.132 188.221 177.652 188.031 177.298 187.651C176.945 187.264 176.768 186.717 176.768 186.011V183.391H175.708V182.611H176.768V181.291L177.598 181.111V182.611H180.068V183.391H177.598V185.971C177.598 186.957 178.025 187.451 178.878 187.451C179.185 187.451 179.585 187.361 180.078 187.181ZM181.344 180.351C181.458 180.244 181.598 180.191 181.764 180.191C181.931 180.191 182.068 180.244 182.174 180.351C182.288 180.457 182.344 180.587 182.344 180.741C182.344 180.901 182.288 181.034 182.174 181.141C182.068 181.247 181.931 181.301 181.764 181.301C181.598 181.301 181.458 181.247 181.344 181.141C181.238 181.034 181.184 180.901 181.184 180.741C181.184 180.587 181.238 180.457 181.344 180.351ZM181.344 188.111V182.611H182.174V188.111H181.344ZM186.259 182.501C187.053 182.501 187.723 182.774 188.269 183.321C188.823 183.861 189.099 184.541 189.099 185.361C189.099 186.181 188.826 186.864 188.279 187.411C187.733 187.951 187.059 188.221 186.259 188.221C185.466 188.221 184.796 187.947 184.249 187.401C183.703 186.854 183.429 186.174 183.429 185.361C183.429 184.547 183.703 183.867 184.249 183.321C184.803 182.774 185.473 182.501 186.259 182.501ZM187.679 183.881C187.293 183.487 186.819 183.291 186.259 183.291C185.699 183.291 185.226 183.487 184.839 183.881C184.459 184.267 184.269 184.761 184.269 185.361C184.269 185.961 184.459 186.457 184.839 186.851C185.226 187.237 185.699 187.431 186.259 187.431C186.826 187.431 187.299 187.237 187.679 186.851C188.066 186.457 188.259 185.961 188.259 185.361C188.259 184.761 188.066 184.267 187.679 183.881ZM193.148 182.501C193.768 182.501 194.255 182.687 194.608 183.061C194.962 183.434 195.138 183.954 195.138 184.621V188.111H194.308V184.781C194.308 183.787 193.845 183.291 192.918 183.291C192.365 183.291 191.935 183.471 191.628 183.831C191.328 184.191 191.178 184.677 191.178 185.291V188.111H190.348V182.611H191.178V183.701C191.578 182.901 192.235 182.501 193.148 182.501ZM198.119 187.691C198.133 187.891 197.856 188.604 197.289 189.831H196.699L197.359 188.201C197.093 188.134 196.959 187.957 196.959 187.671C196.959 187.504 197.013 187.367 197.119 187.261C197.233 187.154 197.373 187.101 197.539 187.101C197.686 187.101 197.816 187.147 197.929 187.241C198.049 187.334 198.113 187.484 198.119 187.691ZM202.881 188.111V181.111H203.711V188.111H202.881ZM211.277 182.501C212.024 182.501 212.637 182.771 213.117 183.311C213.604 183.844 213.847 184.527 213.847 185.361C213.847 186.194 213.604 186.881 213.117 187.421C212.63 187.954 212.014 188.221 211.267 188.221C210.8 188.221 210.384 188.114 210.017 187.901C209.657 187.681 209.37 187.381 209.157 187.001V188.111H208.327V180.411H209.157V183.741C209.37 183.354 209.66 183.051 210.027 182.831C210.394 182.611 210.81 182.501 211.277 182.501ZM211.117 187.431C211.67 187.431 212.124 187.237 212.477 186.851C212.83 186.464 213.007 185.967 213.007 185.361C213.007 184.761 212.83 184.267 212.477 183.881C212.124 183.487 211.67 183.291 211.117 183.291C210.55 183.291 210.08 183.487 209.707 183.881C209.334 184.267 209.147 184.761 209.147 185.361C209.147 185.961 209.334 186.457 209.707 186.851C210.08 187.237 210.55 187.431 211.117 187.431ZM217.694 182.501C218.548 182.501 219.228 182.791 219.734 183.371C220.241 183.951 220.478 184.697 220.444 185.611H215.734C215.774 186.177 215.978 186.624 216.344 186.951C216.711 187.277 217.174 187.441 217.734 187.441C218.554 187.441 219.128 187.121 219.454 186.481H220.314C220.088 187.047 219.744 187.481 219.284 187.781C218.824 188.074 218.298 188.221 217.704 188.221C216.884 188.221 216.208 187.957 215.674 187.431C215.148 186.897 214.884 186.214 214.884 185.381C214.884 184.547 215.148 183.861 215.674 183.321C216.201 182.774 216.874 182.501 217.694 182.501ZM217.694 183.281C217.201 183.281 216.781 183.424 216.434 183.711C216.094 183.997 215.874 184.371 215.774 184.831H219.544C219.451 184.364 219.241 183.991 218.914 183.711C218.588 183.424 218.181 183.281 217.694 183.281ZM226.127 182.611H226.957V188.051C226.957 188.871 226.724 189.521 226.257 190.001C225.79 190.481 225.154 190.721 224.347 190.721C223.674 190.721 223.09 190.547 222.597 190.201C222.104 189.854 221.79 189.367 221.657 188.741H222.517C222.63 189.134 222.847 189.437 223.167 189.651C223.494 189.871 223.88 189.981 224.327 189.981C224.9 189.981 225.344 189.814 225.657 189.481C225.97 189.154 226.127 188.684 226.127 188.071V186.961C225.907 187.341 225.614 187.641 225.247 187.861C224.88 188.074 224.467 188.181 224.007 188.181C223.26 188.181 222.644 187.914 222.157 187.381C221.677 186.841 221.437 186.161 221.437 185.341C221.437 184.514 221.677 183.834 222.157 183.301C222.644 182.767 223.26 182.501 224.007 182.501C224.46 182.501 224.874 182.611 225.247 182.831C225.62 183.051 225.914 183.351 226.127 183.731V182.611ZM224.167 187.391C224.727 187.391 225.194 187.197 225.567 186.811C225.947 186.424 226.137 185.934 226.137 185.341C226.137 184.747 225.947 184.257 225.567 183.871C225.194 183.484 224.727 183.291 224.167 183.291C223.614 183.291 223.16 183.484 222.807 183.871C222.454 184.257 222.277 184.747 222.277 185.341C222.277 185.934 222.454 186.424 222.807 186.811C223.16 187.197 223.614 187.391 224.167 187.391ZM232.904 182.611H233.734V188.111H232.904V187.001C232.684 187.381 232.391 187.681 232.024 187.901C231.664 188.114 231.251 188.221 230.784 188.221C230.038 188.221 229.421 187.954 228.934 187.421C228.454 186.881 228.214 186.194 228.214 185.361C228.214 184.527 228.454 183.844 228.934 183.311C229.421 182.771 230.038 182.501 230.784 182.501C231.251 182.501 231.668 182.611 232.034 182.831C232.401 183.051 232.691 183.354 232.904 183.741V182.611ZM230.944 187.431C231.511 187.431 231.981 187.237 232.354 186.851C232.728 186.457 232.914 185.961 232.914 185.361C232.914 184.761 232.728 184.267 232.354 183.881C231.981 183.487 231.511 183.291 230.944 183.291C230.384 183.291 229.928 183.487 229.574 183.881C229.228 184.267 229.054 184.761 229.054 185.361C229.054 185.967 229.231 186.464 229.584 186.851C229.938 187.237 230.391 187.431 230.944 187.431ZM238.012 182.501C238.632 182.501 239.118 182.687 239.472 183.061C239.825 183.434 240.002 183.954 240.002 184.621V188.111H239.172V184.781C239.172 183.787 238.708 183.291 237.782 183.291C237.228 183.291 236.798 183.471 236.492 183.831C236.192 184.191 236.042 184.677 236.042 185.291V188.111H235.212V182.611H236.042V183.701C236.442 182.901 237.098 182.501 238.012 182.501ZM248.931 180.411H249.761V188.111H248.931V187.001C248.717 187.381 248.427 187.681 248.061 187.901C247.694 188.114 247.277 188.221 246.811 188.221C246.064 188.221 245.447 187.954 244.961 187.421C244.481 186.881 244.241 186.194 244.241 185.361C244.241 184.527 244.481 183.844 244.961 183.311C245.447 182.771 246.064 182.501 246.811 182.501C247.277 182.501 247.694 182.611 248.061 182.831C248.427 183.051 248.717 183.354 248.931 183.741V180.411ZM246.971 187.431C247.537 187.431 248.007 187.237 248.381 186.851C248.754 186.457 248.941 185.961 248.941 185.361C248.941 184.761 248.754 184.267 248.381 183.881C248.007 183.487 247.537 183.291 246.971 183.291C246.417 183.291 245.964 183.487 245.611 183.881C245.257 184.267 245.081 184.761 245.081 185.361C245.081 185.967 245.257 186.464 245.611 186.851C245.964 187.237 246.417 187.431 246.971 187.431ZM253.827 182.501C254.68 182.501 255.36 182.791 255.867 183.371C256.374 183.951 256.61 184.697 256.577 185.611H251.867C251.907 186.177 252.11 186.624 252.477 186.951C252.844 187.277 253.307 187.441 253.867 187.441C254.687 187.441 255.26 187.121 255.587 186.481H256.447C256.22 187.047 255.877 187.481 255.417 187.781C254.957 188.074 254.43 188.221 253.837 188.221C253.017 188.221 252.34 187.957 251.807 187.431C251.28 186.897 251.017 186.214 251.017 185.381C251.017 184.547 251.28 183.861 251.807 183.321C252.334 182.774 253.007 182.501 253.827 182.501ZM253.827 183.281C253.334 183.281 252.914 183.424 252.567 183.711C252.227 183.997 252.007 184.371 251.907 184.831H255.677C255.584 184.364 255.374 183.991 255.047 183.711C254.72 183.424 254.314 183.281 253.827 183.281ZM260.12 188.221C259.4 188.221 258.803 188.061 258.33 187.741C257.856 187.421 257.566 186.971 257.46 186.391H258.31C258.416 186.764 258.613 187.031 258.9 187.191C259.193 187.351 259.6 187.431 260.12 187.431C260.54 187.431 260.88 187.361 261.14 187.221C261.406 187.074 261.54 186.871 261.54 186.611C261.54 186.451 261.473 186.317 261.34 186.211C261.206 186.097 261.063 186.017 260.91 185.971C260.756 185.924 260.493 185.854 260.12 185.761C260.033 185.741 259.966 185.724 259.92 185.711C259.093 185.504 258.523 185.301 258.21 185.101C257.896 184.901 257.74 184.587 257.74 184.161C257.74 183.641 257.943 183.234 258.35 182.941C258.763 182.647 259.303 182.501 259.97 182.501C260.61 182.501 261.13 182.641 261.53 182.921C261.936 183.194 262.196 183.581 262.31 184.081H261.47C261.27 183.554 260.776 183.291 259.99 183.291C259.556 183.291 259.213 183.367 258.96 183.521C258.706 183.667 258.58 183.861 258.58 184.101C258.58 184.307 258.683 184.461 258.89 184.561C259.096 184.654 259.51 184.781 260.13 184.941C260.423 185.014 260.643 185.071 260.79 185.111C260.943 185.151 261.123 185.207 261.33 185.281C261.543 185.354 261.7 185.424 261.8 185.491C261.9 185.557 262.003 185.644 262.11 185.751C262.216 185.851 262.29 185.967 262.33 186.101C262.37 186.227 262.39 186.374 262.39 186.541C262.39 187.081 262.173 187.497 261.74 187.791C261.313 188.077 260.773 188.221 260.12 188.221ZM263.542 180.351C263.655 180.244 263.795 180.191 263.962 180.191C264.128 180.191 264.265 180.244 264.372 180.351C264.485 180.457 264.542 180.587 264.542 180.741C264.542 180.901 264.485 181.034 264.372 181.141C264.265 181.247 264.128 181.301 263.962 181.301C263.795 181.301 263.655 181.247 263.542 181.141C263.435 181.034 263.382 180.901 263.382 180.741C263.382 180.587 263.435 180.457 263.542 180.351ZM263.542 188.111V182.611H264.372V188.111H263.542ZM270.316 182.611H271.146V188.051C271.146 188.871 270.913 189.521 270.446 190.001C269.98 190.481 269.343 190.721 268.536 190.721C267.863 190.721 267.28 190.547 266.786 190.201C266.293 189.854 265.98 189.367 265.846 188.741H266.706C266.82 189.134 267.036 189.437 267.356 189.651C267.683 189.871 268.07 189.981 268.516 189.981C269.09 189.981 269.533 189.814 269.846 189.481C270.16 189.154 270.316 188.684 270.316 188.071V186.961C270.096 187.341 269.803 187.641 269.436 187.861C269.07 188.074 268.656 188.181 268.196 188.181C267.45 188.181 266.833 187.914 266.346 187.381C265.866 186.841 265.626 186.161 265.626 185.341C265.626 184.514 265.866 183.834 266.346 183.301C266.833 182.767 267.45 182.501 268.196 182.501C268.65 182.501 269.063 182.611 269.436 182.831C269.81 183.051 270.103 183.351 270.316 183.731V182.611ZM268.356 187.391C268.916 187.391 269.383 187.197 269.756 186.811C270.136 186.424 270.326 185.934 270.326 185.341C270.326 184.747 270.136 184.257 269.756 183.871C269.383 183.484 268.916 183.291 268.356 183.291C267.803 183.291 267.35 183.484 266.996 183.871C266.643 184.257 266.466 184.747 266.466 185.341C266.466 185.934 266.643 186.424 266.996 186.811C267.35 187.197 267.803 187.391 268.356 187.391ZM275.424 182.501C276.044 182.501 276.53 182.687 276.884 183.061C277.237 183.434 277.414 183.954 277.414 184.621V188.111H276.584V184.781C276.584 183.787 276.12 183.291 275.194 183.291C274.64 183.291 274.21 183.471 273.904 183.831C273.604 184.191 273.454 184.677 273.454 185.291V188.111H272.624V182.611H273.454V183.701C273.854 182.901 274.51 182.501 275.424 182.501ZM278.835 180.351C278.948 180.244 279.088 180.191 279.255 180.191C279.421 180.191 279.558 180.244 279.665 180.351C279.778 180.457 279.835 180.587 279.835 180.741C279.835 180.901 279.778 181.034 279.665 181.141C279.558 181.247 279.421 181.301 279.255 181.301C279.088 181.301 278.948 181.247 278.835 181.141C278.728 181.034 278.675 180.901 278.675 180.741C278.675 180.587 278.728 180.457 278.835 180.351ZM278.835 188.111V182.611H279.665V188.111H278.835ZM283.939 182.501C284.559 182.501 285.046 182.687 285.399 183.061C285.753 183.434 285.929 183.954 285.929 184.621V188.111H285.099V184.781C285.099 183.787 284.636 183.291 283.709 183.291C283.156 183.291 282.726 183.471 282.419 183.831C282.119 184.191 281.969 184.677 281.969 185.291V188.111H281.139V182.611H281.969V183.701C282.369 182.901 283.026 182.501 283.939 182.501ZM291.82 182.611H292.65V188.051C292.65 188.871 292.417 189.521 291.95 190.001C291.484 190.481 290.847 190.721 290.04 190.721C289.367 190.721 288.784 190.547 288.29 190.201C287.797 189.854 287.484 189.367 287.35 188.741H288.21C288.324 189.134 288.54 189.437 288.86 189.651C289.187 189.871 289.574 189.981 290.02 189.981C290.594 189.981 291.037 189.814 291.35 189.481C291.664 189.154 291.82 188.684 291.82 188.071V186.961C291.6 187.341 291.307 187.641 290.94 187.861C290.574 188.074 290.16 188.181 289.7 188.181C288.954 188.181 288.337 187.914 287.85 187.381C287.37 186.841 287.13 186.161 287.13 185.341C287.13 184.514 287.37 183.834 287.85 183.301C288.337 182.767 288.954 182.501 289.7 182.501C290.154 182.501 290.567 182.611 290.94 182.831C291.314 183.051 291.607 183.351 291.82 183.731V182.611ZM289.86 187.391C290.42 187.391 290.887 187.197 291.26 186.811C291.64 186.424 291.83 185.934 291.83 185.341C291.83 184.747 291.64 184.257 291.26 183.871C290.887 183.484 290.42 183.291 289.86 183.291C289.307 183.291 288.854 183.484 288.5 183.871C288.147 184.257 287.97 184.747 287.97 185.341C287.97 185.934 288.147 186.424 288.5 186.811C288.854 187.197 289.307 187.391 289.86 187.391ZM303.356 182.501C303.936 182.501 304.386 182.681 304.706 183.041C305.026 183.394 305.186 183.894 305.186 184.541V188.111H304.356V184.691C304.356 183.757 303.942 183.291 303.116 183.291C302.616 183.291 302.232 183.477 301.966 183.851C301.699 184.224 301.566 184.704 301.566 185.291L301.576 188.111H300.736V184.691C300.736 183.757 300.322 183.291 299.496 183.291C299.002 183.291 298.622 183.477 298.356 183.851C298.089 184.224 297.956 184.704 297.956 185.291V188.111H297.126V182.611H297.956V183.651C298.342 182.884 298.939 182.501 299.746 182.501C300.192 182.501 300.562 182.611 300.856 182.831C301.149 183.044 301.352 183.354 301.466 183.761C301.852 182.921 302.482 182.501 303.356 182.501ZM310.618 182.611H311.508L307.798 190.611H306.908L308.368 187.441L306.138 182.611H307.028L308.808 186.551L310.618 182.611ZM88.0072 194.501C88.8006 194.501 89.4706 194.774 90.0172 195.321C90.5706 195.861 90.8472 196.541 90.8472 197.361C90.8472 198.181 90.5739 198.864 90.0272 199.411C89.4806 199.951 88.8072 200.221 88.0072 200.221C87.2139 200.221 86.5439 199.947 85.9972 199.401C85.4506 198.854 85.1772 198.174 85.1772 197.361C85.1772 196.547 85.4506 195.867 85.9972 195.321C86.5506 194.774 87.2206 194.501 88.0072 194.501ZM89.4272 195.881C89.0406 195.487 88.5672 195.291 88.0072 195.291C87.4472 195.291 86.9739 195.487 86.5872 195.881C86.2072 196.267 86.0172 196.761 86.0172 197.361C86.0172 197.961 86.2072 198.457 86.5872 198.851C86.9739 199.237 87.4472 199.431 88.0072 199.431C88.5739 199.431 89.0472 199.237 89.4272 198.851C89.8139 198.457 90.0072 197.961 90.0072 197.361C90.0072 196.761 89.8139 196.267 89.4272 195.881ZM98.4423 194.611H99.2723L97.6523 200.111H96.6523L96.1123 198.261L95.4023 195.471H95.2523L94.5423 198.261L93.9923 200.111H92.9923L91.3723 194.611H92.2023L92.7123 196.341L93.5123 199.251L94.3023 196.341L94.8123 194.611H95.8323L96.3423 196.341L97.1323 199.241L97.9323 196.341L98.4423 194.611ZM103.07 194.501C103.69 194.501 104.177 194.687 104.53 195.061C104.884 195.434 105.06 195.954 105.06 196.621V200.111H104.23V196.781C104.23 195.787 103.767 195.291 102.84 195.291C102.287 195.291 101.857 195.471 101.55 195.831C101.25 196.191 101.1 196.677 101.1 197.291V200.111H100.27V194.611H101.1V195.701C101.5 194.901 102.157 194.501 103.07 194.501ZM113.339 194.611H114.169V200.111H113.339V199.021C112.926 199.821 112.273 200.221 111.379 200.221C110.766 200.221 110.286 200.034 109.939 199.661C109.599 199.287 109.429 198.767 109.429 198.101V194.611H110.259V197.941C110.259 198.934 110.713 199.431 111.619 199.431C112.159 199.431 112.579 199.251 112.879 198.891C113.186 198.531 113.339 198.044 113.339 197.431V194.611ZM117.952 200.221C117.232 200.221 116.635 200.061 116.162 199.741C115.689 199.421 115.399 198.971 115.292 198.391H116.142C116.249 198.764 116.445 199.031 116.732 199.191C117.025 199.351 117.432 199.431 117.952 199.431C118.372 199.431 118.712 199.361 118.972 199.221C119.239 199.074 119.372 198.871 119.372 198.611C119.372 198.451 119.305 198.317 119.172 198.211C119.039 198.097 118.895 198.017 118.742 197.971C118.589 197.924 118.325 197.854 117.952 197.761C117.865 197.741 117.799 197.724 117.752 197.711C116.925 197.504 116.355 197.301 116.042 197.101C115.729 196.901 115.572 196.587 115.572 196.161C115.572 195.641 115.775 195.234 116.182 194.941C116.595 194.647 117.135 194.501 117.802 194.501C118.442 194.501 118.962 194.641 119.362 194.921C119.769 195.194 120.029 195.581 120.142 196.081H119.302C119.102 195.554 118.609 195.291 117.822 195.291C117.389 195.291 117.045 195.367 116.792 195.521C116.539 195.667 116.412 195.861 116.412 196.101C116.412 196.307 116.515 196.461 116.722 196.561C116.929 196.654 117.342 196.781 117.962 196.941C118.255 197.014 118.475 197.071 118.622 197.111C118.775 197.151 118.955 197.207 119.162 197.281C119.375 197.354 119.532 197.424 119.632 197.491C119.732 197.557 119.835 197.644 119.942 197.751C120.049 197.851 120.122 197.967 120.162 198.101C120.202 198.227 120.222 198.374 120.222 198.541C120.222 199.081 120.005 199.497 119.572 199.791C119.145 200.077 118.605 200.221 117.952 200.221ZM123.964 194.501C124.817 194.501 125.497 194.791 126.004 195.371C126.51 195.951 126.747 196.697 126.714 197.611H122.004C122.044 198.177 122.247 198.624 122.614 198.951C122.98 199.277 123.444 199.441 124.004 199.441C124.824 199.441 125.397 199.121 125.724 198.481H126.584C126.357 199.047 126.014 199.481 125.554 199.781C125.094 200.074 124.567 200.221 123.974 200.221C123.154 200.221 122.477 199.957 121.944 199.431C121.417 198.897 121.154 198.214 121.154 197.381C121.154 196.547 121.417 195.861 121.944 195.321C122.47 194.774 123.144 194.501 123.964 194.501ZM123.964 195.281C123.47 195.281 123.05 195.424 122.704 195.711C122.364 195.997 122.144 196.371 122.044 196.831H125.814C125.72 196.364 125.51 195.991 125.184 195.711C124.857 195.424 124.45 195.281 123.964 195.281ZM130.717 194.501C130.837 194.501 130.95 194.507 131.057 194.521V195.371C130.937 195.357 130.82 195.351 130.707 195.351C130.113 195.351 129.64 195.541 129.287 195.921C128.933 196.294 128.757 196.824 128.757 197.511V200.111H127.927V194.611H128.757V195.841C129.117 194.947 129.77 194.501 130.717 194.501ZM135.055 192.351C135.169 192.244 135.309 192.191 135.475 192.191C135.642 192.191 135.779 192.244 135.885 192.351C135.999 192.457 136.055 192.587 136.055 192.741C136.055 192.901 135.999 193.034 135.885 193.141C135.779 193.247 135.642 193.301 135.475 193.301C135.309 193.301 135.169 193.247 135.055 193.141C134.949 193.034 134.895 192.901 134.895 192.741C134.895 192.587 134.949 192.457 135.055 192.351ZM135.055 200.111V194.611H135.885V200.111H135.055ZM140.16 194.501C140.78 194.501 141.267 194.687 141.62 195.061C141.973 195.434 142.15 195.954 142.15 196.621V200.111H141.32V196.781C141.32 195.787 140.857 195.291 139.93 195.291C139.377 195.291 138.947 195.471 138.64 195.831C138.34 196.191 138.19 196.677 138.19 197.291V200.111H137.36V194.611H138.19V195.701C138.59 194.901 139.247 194.501 140.16 194.501ZM147.344 199.181L147.494 199.871C147.054 200.104 146.557 200.221 146.004 200.221C145.397 200.221 144.917 200.031 144.564 199.651C144.211 199.264 144.034 198.717 144.034 198.011V195.391H142.974V194.611H144.034V193.291L144.864 193.111V194.611H147.334V195.391H144.864V197.971C144.864 198.957 145.291 199.451 146.144 199.451C146.451 199.451 146.851 199.361 147.344 199.181ZM150.956 194.501C151.809 194.501 152.489 194.791 152.996 195.371C153.503 195.951 153.739 196.697 153.706 197.611H148.996C149.036 198.177 149.239 198.624 149.606 198.951C149.973 199.277 150.436 199.441 150.996 199.441C151.816 199.441 152.389 199.121 152.716 198.481H153.576C153.349 199.047 153.006 199.481 152.546 199.781C152.086 200.074 151.559 200.221 150.966 200.221C150.146 200.221 149.469 199.957 148.936 199.431C148.409 198.897 148.146 198.214 148.146 197.381C148.146 196.547 148.409 195.861 148.936 195.321C149.463 194.774 150.136 194.501 150.956 194.501ZM150.956 195.281C150.463 195.281 150.043 195.424 149.696 195.711C149.356 195.997 149.136 196.371 149.036 196.831H152.806C152.713 196.364 152.503 195.991 152.176 195.711C151.849 195.424 151.443 195.281 150.956 195.281ZM157.709 194.501C157.829 194.501 157.942 194.507 158.049 194.521V195.371C157.929 195.357 157.812 195.351 157.699 195.351C157.105 195.351 156.632 195.541 156.279 195.921C155.925 196.294 155.749 196.824 155.749 197.511V200.111H154.919V194.611H155.749V195.841C156.109 194.947 156.762 194.501 157.709 194.501ZM161.848 193.041C160.974 193.041 160.538 193.554 160.538 194.581V194.611H162.768V195.391H160.538V200.111H159.708V195.391H158.648V194.611H159.708V194.541C159.708 193.834 159.894 193.284 160.268 192.891C160.641 192.497 161.138 192.301 161.758 192.301C162.198 192.301 162.591 192.377 162.938 192.531L162.788 193.221L162.648 193.181C162.394 193.087 162.128 193.041 161.848 193.041ZM168.1 194.611H168.93V200.111H168.1V199.001C167.88 199.381 167.586 199.681 167.22 199.901C166.86 200.114 166.446 200.221 165.98 200.221C165.233 200.221 164.616 199.954 164.13 199.421C163.65 198.881 163.41 198.194 163.41 197.361C163.41 196.527 163.65 195.844 164.13 195.311C164.616 194.771 165.233 194.501 165.98 194.501C166.446 194.501 166.863 194.611 167.23 194.831C167.596 195.051 167.886 195.354 168.1 195.741V194.611ZM166.14 199.431C166.706 199.431 167.176 199.237 167.55 198.851C167.923 198.457 168.11 197.961 168.11 197.361C168.11 196.761 167.923 196.267 167.55 195.881C167.176 195.487 166.706 195.291 166.14 195.291C165.58 195.291 165.123 195.487 164.77 195.881C164.423 196.267 164.25 196.761 164.25 197.361C164.25 197.967 164.426 198.464 164.78 198.851C165.133 199.237 165.586 199.431 166.14 199.431ZM173.027 200.221C172.22 200.221 171.544 199.951 170.997 199.411C170.457 198.864 170.187 198.181 170.187 197.361C170.187 196.541 170.457 195.861 170.997 195.321C171.544 194.774 172.22 194.501 173.027 194.501C173.68 194.501 174.254 194.684 174.747 195.051C175.24 195.417 175.557 195.911 175.697 196.531H174.837C174.71 196.144 174.484 195.837 174.157 195.611C173.83 195.384 173.454 195.271 173.027 195.271C172.447 195.271 171.967 195.467 171.587 195.861C171.214 196.254 171.027 196.754 171.027 197.361C171.027 197.967 171.214 198.467 171.587 198.861C171.967 199.254 172.447 199.451 173.027 199.451C173.454 199.451 173.827 199.337 174.147 199.111C174.474 198.884 174.704 198.577 174.837 198.191H175.697C175.55 198.817 175.23 199.314 174.737 199.681C174.244 200.041 173.674 200.221 173.027 200.221ZM179.442 194.501C180.296 194.501 180.976 194.791 181.482 195.371C181.989 195.951 182.226 196.697 182.192 197.611H177.482C177.522 198.177 177.726 198.624 178.092 198.951C178.459 199.277 178.922 199.441 179.482 199.441C180.302 199.441 180.876 199.121 181.202 198.481H182.062C181.836 199.047 181.492 199.481 181.032 199.781C180.572 200.074 180.046 200.221 179.452 200.221C178.632 200.221 177.956 199.957 177.422 199.431C176.896 198.897 176.632 198.214 176.632 197.381C176.632 196.547 176.896 195.861 177.422 195.321C177.949 194.774 178.622 194.501 179.442 194.501ZM179.442 195.281C178.949 195.281 178.529 195.424 178.182 195.711C177.842 195.997 177.622 196.371 177.522 196.831H181.292C181.199 196.364 180.989 195.991 180.662 195.711C180.336 195.424 179.929 195.281 179.442 195.281ZM189.123 193.041C188.25 193.041 187.813 193.554 187.813 194.581V194.611H190.043V195.391H187.813V200.111H186.983V195.391H185.923V194.611H186.983V194.541C186.983 193.834 187.17 193.284 187.543 192.891C187.916 192.497 188.413 192.301 189.033 192.301C189.473 192.301 189.866 192.377 190.213 192.531L190.063 193.221L189.923 193.181C189.67 193.087 189.403 193.041 189.123 193.041ZM193.515 194.501C194.308 194.501 194.978 194.774 195.525 195.321C196.078 195.861 196.355 196.541 196.355 197.361C196.355 198.181 196.082 198.864 195.535 199.411C194.988 199.951 194.315 200.221 193.515 200.221C192.722 200.221 192.052 199.947 191.505 199.401C190.958 198.854 190.685 198.174 190.685 197.361C190.685 196.547 190.958 195.867 191.505 195.321C192.058 194.774 192.728 194.501 193.515 194.501ZM194.935 195.881C194.548 195.487 194.075 195.291 193.515 195.291C192.955 195.291 192.482 195.487 192.095 195.881C191.715 196.267 191.525 196.761 191.525 197.361C191.525 197.961 191.715 198.457 192.095 198.851C192.482 199.237 192.955 199.431 193.515 199.431C194.082 199.431 194.555 199.237 194.935 198.851C195.322 198.457 195.515 197.961 195.515 197.361C195.515 196.761 195.322 196.267 194.935 195.881ZM200.394 194.501C200.514 194.501 200.628 194.507 200.734 194.521V195.371C200.614 195.357 200.498 195.351 200.384 195.351C199.791 195.351 199.318 195.541 198.964 195.921C198.611 196.294 198.434 196.824 198.434 197.511V200.111H197.604V194.611H198.434V195.841C198.794 194.947 199.448 194.501 200.394 194.501ZM208.623 199.181L208.773 199.871C208.333 200.104 207.836 200.221 207.283 200.221C206.676 200.221 206.196 200.031 205.843 199.651C205.49 199.264 205.313 198.717 205.313 198.011V195.391H204.253V194.611H205.313V193.291L206.143 193.111V194.611H208.613V195.391H206.143V197.971C206.143 198.957 206.57 199.451 207.423 199.451C207.73 199.451 208.13 199.361 208.623 199.181ZM212.739 194.501C213.366 194.501 213.853 194.687 214.199 195.061C214.553 195.434 214.729 195.954 214.729 196.621V200.111H213.899V196.781C213.899 195.787 213.436 195.291 212.509 195.291C211.956 195.291 211.526 195.471 211.219 195.831C210.919 196.191 210.769 196.677 210.769 197.291V200.111H209.939V192.411H210.769V195.681C211.176 194.894 211.833 194.501 212.739 194.501ZM218.749 194.501C219.602 194.501 220.282 194.791 220.789 195.371C221.296 195.951 221.532 196.697 221.499 197.611H216.789C216.829 198.177 217.032 198.624 217.399 198.951C217.766 199.277 218.229 199.441 218.789 199.441C219.609 199.441 220.182 199.121 220.509 198.481H221.369C221.142 199.047 220.799 199.481 220.339 199.781C219.879 200.074 219.352 200.221 218.759 200.221C217.939 200.221 217.262 199.957 216.729 199.431C216.202 198.897 215.939 198.214 215.939 197.381C215.939 196.547 216.202 195.861 216.729 195.321C217.256 194.774 217.929 194.501 218.749 194.501ZM218.749 195.281C218.256 195.281 217.836 195.424 217.489 195.711C217.149 195.997 216.929 196.371 216.829 196.831H220.599C220.506 196.364 220.296 195.991 219.969 195.711C219.642 195.424 219.236 195.281 218.749 195.281ZM229.6 199.181L229.75 199.871C229.31 200.104 228.813 200.221 228.26 200.221C227.653 200.221 227.173 200.031 226.82 199.651C226.466 199.264 226.29 198.717 226.29 198.011V195.391H225.23V194.611H226.29V193.291L227.12 193.111V194.611H229.59V195.391H227.12V197.971C227.12 198.957 227.546 199.451 228.4 199.451C228.706 199.451 229.106 199.361 229.6 199.181ZM233.212 194.501C234.065 194.501 234.745 194.791 235.252 195.371C235.759 195.951 235.995 196.697 235.962 197.611H231.252C231.292 198.177 231.495 198.624 231.862 198.951C232.229 199.277 232.692 199.441 233.252 199.441C234.072 199.441 234.645 199.121 234.972 198.481H235.832C235.605 199.047 235.262 199.481 234.802 199.781C234.342 200.074 233.815 200.221 233.222 200.221C232.402 200.221 231.725 199.957 231.192 199.431C230.665 198.897 230.402 198.214 230.402 197.381C230.402 196.547 230.665 195.861 231.192 195.321C231.719 194.774 232.392 194.501 233.212 194.501ZM233.212 195.281C232.719 195.281 232.299 195.424 231.952 195.711C231.612 195.997 231.392 196.371 231.292 196.831H235.062C234.969 196.364 234.759 195.991 234.432 195.711C234.105 195.424 233.699 195.281 233.212 195.281ZM241.49 200.111H240.49L238.97 197.921L237.47 200.111H236.47L238.47 197.281L236.58 194.611H237.58L238.99 196.661L240.38 194.611H241.39L239.49 197.291L241.49 200.111ZM246.377 199.181L246.527 199.871C246.087 200.104 245.59 200.221 245.037 200.221C244.43 200.221 243.95 200.031 243.597 199.651C243.244 199.264 243.067 198.717 243.067 198.011V195.391H242.007V194.611H243.067V193.291L243.897 193.111V194.611H246.367V195.391H243.897V197.971C243.897 198.957 244.324 199.451 245.177 199.451C245.484 199.451 245.884 199.361 246.377 199.181ZM249.989 194.501C250.843 194.501 251.523 194.791 252.029 195.371C252.536 195.951 252.773 196.697 252.739 197.611H248.029C248.069 198.177 248.273 198.624 248.639 198.951C249.006 199.277 249.469 199.441 250.029 199.441C250.849 199.441 251.423 199.121 251.749 198.481H252.609C252.383 199.047 252.039 199.481 251.579 199.781C251.119 200.074 250.593 200.221 249.999 200.221C249.179 200.221 248.503 199.957 247.969 199.431C247.443 198.897 247.179 198.214 247.179 197.381C247.179 196.547 247.443 195.861 247.969 195.321C248.496 194.774 249.169 194.501 249.989 194.501ZM249.989 195.281C249.496 195.281 249.076 195.424 248.729 195.711C248.389 195.997 248.169 196.371 248.069 196.831H251.839C251.746 196.364 251.536 195.991 251.209 195.711C250.883 195.424 250.476 195.281 249.989 195.281ZM256.742 194.501C256.862 194.501 256.975 194.507 257.082 194.521V195.371C256.962 195.357 256.845 195.351 256.732 195.351C256.139 195.351 255.665 195.541 255.312 195.921C254.959 196.294 254.782 196.824 254.782 197.511V200.111H253.952V194.611H254.782V195.841C255.142 194.947 255.795 194.501 256.742 194.501Z" fill="#48494B"/>
</svg>
