<svg width="750" height="360" viewBox="0 0 750 360" fill="none" xmlns="http://www.w3.org/2000/svg">
<rect x="1" y="1" width="748" height="358" rx="11" stroke="#7382D1" stroke-width="2"/>
<path d="M55.408 39V27.8H56.736V39H55.408ZM68.8415 30.024C70.0362 30.024 71.0175 30.456 71.7855 31.32C72.5642 32.1733 72.9535 33.2667 72.9535 34.6C72.9535 35.9333 72.5642 37.032 71.7855 37.896C71.0068 38.7493 70.0202 39.176 68.8255 39.176C68.0788 39.176 67.4122 39.0053 66.8255 38.664C66.2495 38.312 65.7908 37.832 65.4495 37.224V39H64.1215V26.68H65.4495V32.008C65.7908 31.3893 66.2548 30.904 66.8415 30.552C67.4282 30.2 68.0948 30.024 68.8415 30.024ZM68.5855 37.912C69.4708 37.912 70.1962 37.6027 70.7615 36.984C71.3268 36.3653 71.6095 35.5707 71.6095 34.6C71.6095 33.64 71.3268 32.8507 70.7615 32.232C70.1962 31.6027 69.4708 31.288 68.5855 31.288C67.6788 31.288 66.9268 31.6027 66.3295 32.232C65.7322 32.8507 65.4335 33.64 65.4335 34.6C65.4335 35.56 65.7322 36.3547 66.3295 36.984C66.9268 37.6027 67.6788 37.912 68.5855 37.912ZM79.1093 30.024C80.4746 30.024 81.5626 30.488 82.3733 31.416C83.1839 32.344 83.5626 33.5387 83.5093 35H75.9733C76.0373 35.9067 76.3626 36.6213 76.9493 37.144C77.5359 37.6667 78.2773 37.928 79.1733 37.928C80.4853 37.928 81.4026 37.416 81.9253 36.392H83.3013C82.9386 37.2987 82.3893 37.992 81.6533 38.472C80.9173 38.9413 80.0746 39.176 79.1253 39.176C77.8133 39.176 76.7306 38.7547 75.8773 37.912C75.0346 37.0587 74.6133 35.9653 74.6133 34.632C74.6133 33.2987 75.0346 32.2 75.8773 31.336C76.7199 30.4613 77.7973 30.024 79.1093 30.024ZM79.1093 31.272C78.3199 31.272 77.6479 31.5013 77.0933 31.96C76.5493 32.4187 76.1973 33.016 76.0373 33.752H82.0693C81.9199 33.0053 81.5839 32.408 81.0613 31.96C80.5386 31.5013 79.8879 31.272 79.1093 31.272ZM92.6016 30.2H93.9296V38.904C93.9296 40.216 93.5563 41.256 92.8096 42.024C92.063 42.792 91.0443 43.176 89.7536 43.176C88.6763 43.176 87.743 42.8987 86.9536 42.344C86.1643 41.7893 85.663 41.0107 85.4496 40.008H86.8256C87.007 40.6373 87.3536 41.1227 87.8656 41.464C88.3883 41.816 89.007 41.992 89.7216 41.992C90.639 41.992 91.3483 41.7253 91.8496 41.192C92.351 40.6693 92.6016 39.9173 92.6016 38.936V37.16C92.2496 37.768 91.7803 38.248 91.1936 38.6C90.607 38.9413 89.9456 39.112 89.2096 39.112C88.015 39.112 87.0283 38.6853 86.2496 37.832C85.4816 36.968 85.0976 35.88 85.0976 34.568C85.0976 33.2453 85.4816 32.1573 86.2496 31.304C87.0283 30.4507 88.015 30.024 89.2096 30.024C89.935 30.024 90.5963 30.2 91.1936 30.552C91.791 30.904 92.2603 31.384 92.6016 31.992V30.2ZM89.4656 37.848C90.3616 37.848 91.1083 37.5387 91.7056 36.92C92.3136 36.3013 92.6176 35.5173 92.6176 34.568C92.6176 33.6187 92.3136 32.8347 91.7056 32.216C91.1083 31.5973 90.3616 31.288 89.4656 31.288C88.5803 31.288 87.855 31.5973 87.2896 32.216C86.7243 32.8347 86.4416 33.6187 86.4416 34.568C86.4416 35.5173 86.7243 36.3013 87.2896 36.92C87.855 37.5387 88.5803 37.848 89.4656 37.848ZM103.445 30.2H104.773V39H103.445V37.224C103.093 37.832 102.624 38.312 102.037 38.664C101.461 39.0053 100.8 39.176 100.053 39.176C98.8587 39.176 97.872 38.7493 97.0934 37.896C96.3254 37.032 95.9414 35.9333 95.9414 34.6C95.9414 33.2667 96.3254 32.1733 97.0934 31.32C97.872 30.456 98.8587 30.024 100.053 30.024C100.8 30.024 101.467 30.2 102.053 30.552C102.64 30.904 103.104 31.3893 103.445 32.008V30.2ZM100.309 37.912C101.216 37.912 101.968 37.6027 102.565 36.984C103.163 36.3547 103.461 35.56 103.461 34.6C103.461 33.64 103.163 32.8507 102.565 32.232C101.968 31.6027 101.216 31.288 100.309 31.288C99.4134 31.288 98.6827 31.6027 98.1174 32.232C97.5627 32.8507 97.2854 33.64 97.2854 34.6C97.2854 35.5707 97.568 36.3653 98.1334 36.984C98.6987 37.6027 99.424 37.912 100.309 37.912ZM111.617 30.024C112.609 30.024 113.388 30.3227 113.953 30.92C114.518 31.5173 114.801 32.3493 114.801 33.416V39H113.473V33.672C113.473 32.0827 112.732 31.288 111.249 31.288C110.364 31.288 109.676 31.576 109.185 32.152C108.705 32.728 108.465 33.5067 108.465 34.488V39H107.137V30.2H108.465V31.944C109.105 30.664 110.156 30.024 111.617 30.024ZM126.592 30.024C127.786 30.024 128.768 30.456 129.536 31.32C130.314 32.1733 130.704 33.2667 130.704 34.6C130.704 35.9333 130.314 37.032 129.536 37.896C128.757 38.7493 127.77 39.176 126.576 39.176C125.829 39.176 125.162 39.0053 124.576 38.664C124 38.312 123.541 37.832 123.2 37.224V39H121.872V26.68H123.2V32.008C123.541 31.3893 124.005 30.904 124.592 30.552C125.178 30.2 125.845 30.024 126.592 30.024ZM126.336 37.912C127.221 37.912 127.946 37.6027 128.512 36.984C129.077 36.3653 129.36 35.5707 129.36 34.6C129.36 33.64 129.077 32.8507 128.512 32.232C127.946 31.6027 127.221 31.288 126.336 31.288C125.429 31.288 124.677 31.6027 124.08 32.232C123.482 32.8507 123.184 33.64 123.184 34.6C123.184 35.56 123.482 36.3547 124.08 36.984C124.677 37.6027 125.429 37.912 126.336 37.912ZM138.725 30.2H140.149L134.213 43H132.789L135.125 37.928L131.557 30.2H132.981L135.829 36.504L138.725 30.2ZM150.271 39.176C149.119 39.176 148.165 38.92 147.407 38.408C146.65 37.896 146.186 37.176 146.015 36.248H147.375C147.546 36.8453 147.861 37.272 148.319 37.528C148.789 37.784 149.439 37.912 150.271 37.912C150.943 37.912 151.487 37.8 151.903 37.576C152.33 37.3413 152.543 37.016 152.543 36.6C152.543 36.344 152.437 36.1307 152.223 35.96C152.01 35.7787 151.781 35.6507 151.535 35.576C151.29 35.5013 150.869 35.3893 150.271 35.24C150.133 35.208 150.026 35.1813 149.951 35.16C148.629 34.8293 147.717 34.504 147.215 34.184C146.714 33.864 146.463 33.3627 146.463 32.68C146.463 31.848 146.789 31.1973 147.439 30.728C148.101 30.2587 148.965 30.024 150.031 30.024C151.055 30.024 151.887 30.248 152.527 30.696C153.178 31.1333 153.594 31.752 153.775 32.552H152.431C152.111 31.7093 151.322 31.288 150.063 31.288C149.37 31.288 148.821 31.4107 148.415 31.656C148.01 31.8907 147.807 32.2 147.807 32.584C147.807 32.9147 147.973 33.16 148.303 33.32C148.634 33.4693 149.295 33.672 150.287 33.928C150.757 34.0453 151.109 34.136 151.343 34.2C151.589 34.264 151.877 34.3547 152.207 34.472C152.549 34.5893 152.799 34.7013 152.959 34.808C153.119 34.9147 153.285 35.0533 153.455 35.224C153.626 35.384 153.743 35.5707 153.807 35.784C153.871 35.9867 153.903 36.2213 153.903 36.488C153.903 37.352 153.557 38.0187 152.863 38.488C152.181 38.9467 151.317 39.176 150.271 39.176ZM159.891 30.024C161.256 30.024 162.344 30.488 163.155 31.416C163.965 32.344 164.344 33.5387 164.291 35H156.755C156.819 35.9067 157.144 36.6213 157.731 37.144C158.317 37.6667 159.059 37.928 159.955 37.928C161.267 37.928 162.184 37.416 162.707 36.392H164.083C163.72 37.2987 163.171 37.992 162.435 38.472C161.699 38.9413 160.856 39.176 159.907 39.176C158.595 39.176 157.512 38.7547 156.659 37.912C155.816 37.0587 155.395 35.9653 155.395 34.632C155.395 33.2987 155.816 32.2 156.659 31.336C157.501 30.4613 158.579 30.024 159.891 30.024ZM159.891 31.272C159.101 31.272 158.429 31.5013 157.875 31.96C157.331 32.4187 156.979 33.016 156.819 33.752H162.851C162.701 33.0053 162.365 32.408 161.843 31.96C161.32 31.5013 160.669 31.272 159.891 31.272ZM173.383 30.2H174.711V39H173.383V37.224C173.031 37.832 172.562 38.312 171.975 38.664C171.399 39.0053 170.738 39.176 169.991 39.176C168.796 39.176 167.81 38.7493 167.031 37.896C166.263 37.032 165.879 35.9333 165.879 34.6C165.879 33.2667 166.263 32.1733 167.031 31.32C167.81 30.456 168.796 30.024 169.991 30.024C170.738 30.024 171.404 30.2 171.991 30.552C172.578 30.904 173.042 31.3893 173.383 32.008V30.2ZM170.247 37.912C171.154 37.912 171.906 37.6027 172.503 36.984C173.1 36.3547 173.399 35.56 173.399 34.6C173.399 33.64 173.1 32.8507 172.503 32.232C171.906 31.6027 171.154 31.288 170.247 31.288C169.351 31.288 168.62 31.6027 168.055 32.232C167.5 32.8507 167.223 33.64 167.223 34.6C167.223 35.5707 167.506 36.3653 168.071 36.984C168.636 37.6027 169.362 37.912 170.247 37.912ZM181.539 30.024C181.731 30.024 181.912 30.0347 182.083 30.056V31.416C181.891 31.3947 181.704 31.384 181.523 31.384C180.573 31.384 179.816 31.688 179.251 32.296C178.685 32.8933 178.403 33.7413 178.403 34.84V39H177.075V30.2H178.403V32.168C178.979 30.7387 180.024 30.024 181.539 30.024ZM187.782 39.176C186.492 39.176 185.409 38.744 184.534 37.88C183.67 37.0053 183.238 35.912 183.238 34.6C183.238 33.288 183.67 32.2 184.534 31.336C185.409 30.4613 186.492 30.024 187.782 30.024C188.828 30.024 189.745 30.3173 190.534 30.904C191.324 31.4907 191.83 32.28 192.054 33.272H190.678C190.476 32.6533 190.113 32.1627 189.59 31.8C189.068 31.4373 188.465 31.256 187.782 31.256C186.854 31.256 186.086 31.5707 185.478 32.2C184.881 32.8293 184.582 33.6293 184.582 34.6C184.582 35.5707 184.881 36.3707 185.478 37C186.086 37.6293 186.854 37.944 187.782 37.944C188.465 37.944 189.062 37.7627 189.574 37.4C190.097 37.0373 190.465 36.5467 190.678 35.928H192.054C191.82 36.9307 191.308 37.7253 190.518 38.312C189.729 38.888 188.817 39.176 187.782 39.176ZM198.463 30.024C199.465 30.024 200.244 30.3227 200.799 30.92C201.364 31.5173 201.647 32.3493 201.647 33.416V39H200.319V33.672C200.319 32.0827 199.577 31.288 198.095 31.288C197.209 31.288 196.521 31.576 196.031 32.152C195.551 32.728 195.311 33.5067 195.311 34.488V39H193.983V26.68H195.311V31.912C195.961 30.6533 197.012 30.024 198.463 30.024ZM203.934 26.584C204.115 26.4133 204.339 26.328 204.606 26.328C204.873 26.328 205.091 26.4133 205.262 26.584C205.443 26.7547 205.534 26.9627 205.534 27.208C205.534 27.464 205.443 27.6773 205.262 27.848C205.091 28.0187 204.873 28.104 204.606 28.104C204.339 28.104 204.115 28.0187 203.934 27.848C203.763 27.6773 203.678 27.464 203.678 27.208C203.678 26.9627 203.763 26.7547 203.934 26.584ZM203.934 39V30.2H205.262V39H203.934ZM212.102 30.024C213.094 30.024 213.872 30.3227 214.438 30.92C215.003 31.5173 215.286 32.3493 215.286 33.416V39H213.958V33.672C213.958 32.0827 213.216 31.288 211.734 31.288C210.848 31.288 210.16 31.576 209.67 32.152C209.19 32.728 208.95 33.5067 208.95 34.488V39H207.622V30.2H208.95V31.944C209.59 30.664 210.64 30.024 212.102 30.024ZM224.711 30.2H226.039V38.904C226.039 40.216 225.666 41.256 224.919 42.024C224.172 42.792 223.154 43.176 221.863 43.176C220.786 43.176 219.852 42.8987 219.063 42.344C218.274 41.7893 217.772 41.0107 217.559 40.008H218.935C219.116 40.6373 219.463 41.1227 219.975 41.464C220.498 41.816 221.116 41.992 221.831 41.992C222.748 41.992 223.458 41.7253 223.959 41.192C224.46 40.6693 224.711 39.9173 224.711 38.936V37.16C224.359 37.768 223.89 38.248 223.303 38.6C222.716 38.9413 222.055 39.112 221.319 39.112C220.124 39.112 219.138 38.6853 218.359 37.832C217.591 36.968 217.207 35.88 217.207 34.568C217.207 33.2453 217.591 32.1573 218.359 31.304C219.138 30.4507 220.124 30.024 221.319 30.024C222.044 30.024 222.706 30.2 223.303 30.552C223.9 30.904 224.37 31.384 224.711 31.992V30.2ZM221.575 37.848C222.471 37.848 223.218 37.5387 223.815 36.92C224.423 36.3013 224.727 35.5173 224.727 34.568C224.727 33.6187 224.423 32.8347 223.815 32.216C223.218 31.5973 222.471 31.288 221.575 31.288C220.69 31.288 219.964 31.5973 219.399 32.216C218.834 32.8347 218.551 33.6187 218.551 34.568C218.551 35.5173 218.834 36.3013 219.399 36.92C219.964 37.5387 220.69 37.848 221.575 37.848ZM237.552 27.688C236.154 27.688 235.456 28.5093 235.456 30.152V30.2H239.024V31.448H235.456V39H234.128V31.448H232.432V30.2H234.128V30.088C234.128 28.9573 234.426 28.0773 235.024 27.448C235.621 26.8187 236.416 26.504 237.408 26.504C238.112 26.504 238.741 26.6267 239.296 26.872L239.056 27.976L238.832 27.912C238.426 27.7627 238 27.688 237.552 27.688ZM244.579 30.024C245.848 30.024 246.92 30.4613 247.795 31.336C248.68 32.2 249.123 33.288 249.123 34.6C249.123 35.912 248.685 37.0053 247.811 37.88C246.936 38.744 245.859 39.176 244.579 39.176C243.309 39.176 242.237 38.7387 241.363 37.864C240.488 36.9893 240.051 35.9013 240.051 34.6C240.051 33.2987 240.488 32.2107 241.363 31.336C242.248 30.4613 243.32 30.024 244.579 30.024ZM246.851 32.232C246.232 31.6027 245.475 31.288 244.579 31.288C243.683 31.288 242.925 31.6027 242.307 32.232C241.699 32.8507 241.395 33.64 241.395 34.6C241.395 35.56 241.699 36.3547 242.307 36.984C242.925 37.6027 243.683 37.912 244.579 37.912C245.485 37.912 246.243 37.6027 246.851 36.984C247.469 36.3547 247.779 35.56 247.779 34.6C247.779 33.64 247.469 32.8507 246.851 32.232ZM255.586 30.024C255.778 30.024 255.959 30.0347 256.13 30.056V31.416C255.938 31.3947 255.751 31.384 255.57 31.384C254.62 31.384 253.863 31.688 253.298 32.296C252.732 32.8933 252.45 33.7413 252.45 34.84V39H251.122V30.2H252.45V32.168C253.026 30.7387 254.071 30.024 255.586 30.024ZM269.68 30.2H271.008V39H269.68V37.224C269.328 37.832 268.858 38.312 268.272 38.664C267.696 39.0053 267.034 39.176 266.288 39.176C265.093 39.176 264.106 38.7493 263.328 37.896C262.56 37.032 262.176 35.9333 262.176 34.6C262.176 33.2667 262.56 32.1733 263.328 31.32C264.106 30.456 265.093 30.024 266.288 30.024C267.034 30.024 267.701 30.2 268.288 30.552C268.874 30.904 269.338 31.3893 269.68 32.008V30.2ZM266.544 37.912C267.45 37.912 268.202 37.6027 268.8 36.984C269.397 36.3547 269.696 35.56 269.696 34.6C269.696 33.64 269.397 32.8507 268.8 32.232C268.202 31.6027 267.45 31.288 266.544 31.288C265.648 31.288 264.917 31.6027 264.352 32.232C263.797 32.8507 263.52 33.64 263.52 34.6C263.52 35.5707 263.802 36.3653 264.368 36.984C264.933 37.6027 265.658 37.912 266.544 37.912ZM284.392 37.512L284.632 38.616C283.928 38.9893 283.134 39.176 282.248 39.176C281.278 39.176 280.51 38.872 279.944 38.264C279.379 37.6453 279.096 36.7707 279.096 35.64V31.448H277.4V30.2H279.096V28.088L280.424 27.8V30.2H284.376V31.448H280.424V35.576C280.424 37.1547 281.107 37.944 282.472 37.944C282.963 37.944 283.603 37.8 284.392 37.512ZM292.594 30.2H293.922V39H292.594V37.256C291.933 38.536 290.888 39.176 289.458 39.176C288.477 39.176 287.709 38.8773 287.154 38.28C286.61 37.6827 286.338 36.8507 286.338 35.784V30.2H287.666V35.528C287.666 37.1173 288.392 37.912 289.842 37.912C290.706 37.912 291.378 37.624 291.858 37.048C292.349 36.472 292.594 35.6933 292.594 34.712V30.2ZM302.471 37.512L302.711 38.616C302.007 38.9893 301.212 39.176 300.327 39.176C299.356 39.176 298.588 38.872 298.023 38.264C297.457 37.6453 297.174 36.7707 297.174 35.64V31.448H295.479V30.2H297.174V28.088L298.503 27.8V30.2H302.455V31.448H298.503V35.576C298.503 37.1547 299.185 37.944 300.551 37.944C301.041 37.944 301.681 37.8 302.471 37.512ZM308.282 30.024C309.551 30.024 310.623 30.4613 311.498 31.336C312.383 32.2 312.826 33.288 312.826 34.6C312.826 35.912 312.389 37.0053 311.514 37.88C310.639 38.744 309.562 39.176 308.282 39.176C307.013 39.176 305.941 38.7387 305.066 37.864C304.191 36.9893 303.754 35.9013 303.754 34.6C303.754 33.2987 304.191 32.2107 305.066 31.336C305.951 30.4613 307.023 30.024 308.282 30.024ZM310.554 32.232C309.935 31.6027 309.178 31.288 308.282 31.288C307.386 31.288 306.629 31.6027 306.01 32.232C305.402 32.8507 305.098 33.64 305.098 34.6C305.098 35.56 305.402 36.3547 306.01 36.984C306.629 37.6027 307.386 37.912 308.282 37.912C309.189 37.912 309.946 37.6027 310.554 36.984C311.173 36.3547 311.482 35.56 311.482 34.6C311.482 33.64 311.173 32.8507 310.554 32.232ZM319.289 30.024C319.481 30.024 319.662 30.0347 319.833 30.056V31.416C319.641 31.3947 319.454 31.384 319.273 31.384C318.323 31.384 317.566 31.688 317.001 32.296C316.435 32.8933 316.153 33.7413 316.153 34.84V39H314.825V30.2H316.153V32.168C316.729 30.7387 317.774 30.024 319.289 30.024ZM321.434 26.584C321.615 26.4133 321.839 26.328 322.106 26.328C322.373 26.328 322.591 26.4133 322.762 26.584C322.943 26.7547 323.034 26.9627 323.034 27.208C323.034 27.464 322.943 27.6773 322.762 27.848C322.591 28.0187 322.373 28.104 322.106 28.104C321.839 28.104 321.615 28.0187 321.434 27.848C321.263 27.6773 321.178 27.464 321.178 27.208C321.178 26.9627 321.263 26.7547 321.434 26.584ZM321.434 39V30.2H322.762V39H321.434ZM332.274 30.2H333.602V39H332.274V37.224C331.922 37.832 331.452 38.312 330.866 38.664C330.29 39.0053 329.628 39.176 328.882 39.176C327.687 39.176 326.7 38.7493 325.922 37.896C325.154 37.032 324.77 35.9333 324.77 34.6C324.77 33.2667 325.154 32.1733 325.922 31.32C326.7 30.456 327.687 30.024 328.882 30.024C329.628 30.024 330.295 30.2 330.882 30.552C331.468 30.904 331.932 31.3893 332.274 32.008V30.2ZM329.138 37.912C330.044 37.912 330.796 37.6027 331.394 36.984C331.991 36.3547 332.29 35.56 332.29 34.6C332.29 33.64 331.991 32.8507 331.394 32.232C330.796 31.6027 330.044 31.288 329.138 31.288C328.242 31.288 327.511 31.6027 326.946 32.232C326.391 32.8507 326.114 33.64 326.114 34.6C326.114 35.5707 326.396 36.3653 326.962 36.984C327.527 37.6027 328.252 37.912 329.138 37.912ZM336.013 39V26.68H337.341V39H336.013ZM350.689 37.512L350.929 38.616C350.225 38.9893 349.431 39.176 348.545 39.176C347.575 39.176 346.807 38.872 346.241 38.264C345.676 37.6453 345.393 36.7707 345.393 35.64V31.448H343.697V30.2H345.393V28.088L346.721 27.8V30.2H350.673V31.448H346.721V35.576C346.721 37.1547 347.404 37.944 348.769 37.944C349.26 37.944 349.9 37.8 350.689 37.512ZM356.501 30.024C357.77 30.024 358.842 30.4613 359.717 31.336C360.602 32.2 361.045 33.288 361.045 34.6C361.045 35.912 360.607 37.0053 359.733 37.88C358.858 38.744 357.781 39.176 356.501 39.176C355.231 39.176 354.159 38.7387 353.285 37.864C352.41 36.9893 351.973 35.9013 351.973 34.6C351.973 33.2987 352.41 32.2107 353.285 31.336C354.17 30.4613 355.242 30.024 356.501 30.024ZM358.773 32.232C358.154 31.6027 357.397 31.288 356.501 31.288C355.605 31.288 354.847 31.6027 354.229 32.232C353.621 32.8507 353.317 33.64 353.317 34.6C353.317 35.56 353.621 36.3547 354.229 36.984C354.847 37.6027 355.605 37.912 356.501 37.912C357.407 37.912 358.165 37.6027 358.773 36.984C359.391 36.3547 359.701 35.56 359.701 34.6C359.701 33.64 359.391 32.8507 358.773 32.232ZM374.992 30.2H376.32V38.904C376.32 40.216 375.947 41.256 375.2 42.024C374.454 42.792 373.435 43.176 372.144 43.176C371.067 43.176 370.134 42.8987 369.344 42.344C368.555 41.7893 368.054 41.0107 367.84 40.008H369.216C369.398 40.6373 369.744 41.1227 370.256 41.464C370.779 41.816 371.398 41.992 372.112 41.992C373.03 41.992 373.739 41.7253 374.24 41.192C374.742 40.6693 374.992 39.9173 374.992 38.936V37.16C374.64 37.768 374.171 38.248 373.584 38.6C372.998 38.9413 372.336 39.112 371.6 39.112C370.406 39.112 369.419 38.6853 368.64 37.832C367.872 36.968 367.488 35.88 367.488 34.568C367.488 33.2453 367.872 32.1573 368.64 31.304C369.419 30.4507 370.406 30.024 371.6 30.024C372.326 30.024 372.987 30.2 373.584 30.552C374.182 30.904 374.651 31.384 374.992 31.992V30.2ZM371.856 37.848C372.752 37.848 373.499 37.5387 374.096 36.92C374.704 36.3013 375.008 35.5173 375.008 34.568C375.008 33.6187 374.704 32.8347 374.096 32.216C373.499 31.5973 372.752 31.288 371.856 31.288C370.971 31.288 370.246 31.5973 369.68 32.216C369.115 32.8347 368.832 33.6187 368.832 34.568C368.832 35.5173 369.115 36.3013 369.68 36.92C370.246 37.5387 370.971 37.848 371.856 37.848ZM384.86 30.2H386.188V39H384.86V37.256C384.199 38.536 383.153 39.176 381.724 39.176C380.743 39.176 379.975 38.8773 379.42 38.28C378.876 37.6827 378.604 36.8507 378.604 35.784V30.2H379.932V35.528C379.932 37.1173 380.657 37.912 382.108 37.912C382.972 37.912 383.644 37.624 384.124 37.048C384.615 36.472 384.86 35.6933 384.86 34.712V30.2ZM388.512 26.584C388.693 26.4133 388.917 26.328 389.184 26.328C389.451 26.328 389.669 26.4133 389.84 26.584C390.021 26.7547 390.112 26.9627 390.112 27.208C390.112 27.464 390.021 27.6773 389.84 27.848C389.669 28.0187 389.451 28.104 389.184 28.104C388.917 28.104 388.693 28.0187 388.512 27.848C388.341 27.6773 388.256 27.464 388.256 27.208C388.256 26.9627 388.341 26.7547 388.512 26.584ZM388.512 39V30.2H389.84V39H388.512ZM399.416 26.68H400.744V39H399.416V37.224C399.074 37.832 398.61 38.312 398.024 38.664C397.437 39.0053 396.77 39.176 396.024 39.176C394.829 39.176 393.842 38.7493 393.064 37.896C392.296 37.032 391.912 35.9333 391.912 34.6C391.912 33.2667 392.296 32.1733 393.064 31.32C393.842 30.456 394.829 30.024 396.024 30.024C396.77 30.024 397.437 30.2 398.024 30.552C398.61 30.904 399.074 31.3893 399.416 32.008V26.68ZM396.28 37.912C397.186 37.912 397.938 37.6027 398.536 36.984C399.133 36.3547 399.432 35.56 399.432 34.6C399.432 33.64 399.133 32.8507 398.536 32.232C397.938 31.6027 397.186 31.288 396.28 31.288C395.394 31.288 394.669 31.6027 394.104 32.232C393.538 32.8507 393.256 33.64 393.256 34.6C393.256 35.5707 393.538 36.3653 394.104 36.984C394.669 37.6027 395.394 37.912 396.28 37.912ZM407.25 30.024C408.615 30.024 409.703 30.488 410.514 31.416C411.325 32.344 411.703 33.5387 411.65 35H404.114C404.178 35.9067 404.503 36.6213 405.09 37.144C405.677 37.6667 406.418 37.928 407.314 37.928C408.626 37.928 409.543 37.416 410.066 36.392H411.442C411.079 37.2987 410.53 37.992 409.794 38.472C409.058 38.9413 408.215 39.176 407.266 39.176C405.954 39.176 404.871 38.7547 404.018 37.912C403.175 37.0587 402.754 35.9653 402.754 34.632C402.754 33.2987 403.175 32.2 404.018 31.336C404.861 30.4613 405.938 30.024 407.25 30.024ZM407.25 31.272C406.461 31.272 405.789 31.5013 405.234 31.96C404.69 32.4187 404.338 33.016 404.178 33.752H410.21C410.061 33.0053 409.725 32.408 409.202 31.96C408.679 31.5013 408.029 31.272 407.25 31.272ZM428.355 30.024C429.283 30.024 430.003 30.312 430.515 30.888C431.027 31.4533 431.283 32.2533 431.283 33.288V39H429.955V33.528C429.955 32.0347 429.294 31.288 427.971 31.288C427.171 31.288 426.558 31.5867 426.131 32.184C425.704 32.7813 425.491 33.5493 425.491 34.488L425.507 39H424.163V33.528C424.163 32.0347 423.502 31.288 422.179 31.288C421.39 31.288 420.782 31.5867 420.355 32.184C419.928 32.7813 419.715 33.5493 419.715 34.488V39H418.387V30.2H419.715V31.864C420.334 30.6373 421.288 30.024 422.579 30.024C423.294 30.024 423.886 30.2 424.355 30.552C424.824 30.8933 425.15 31.3893 425.331 32.04C425.95 30.696 426.958 30.024 428.355 30.024ZM437.719 30.024C439.084 30.024 440.172 30.488 440.983 31.416C441.793 32.344 442.172 33.5387 442.119 35H434.583C434.647 35.9067 434.972 36.6213 435.559 37.144C436.145 37.6667 436.887 37.928 437.783 37.928C439.095 37.928 440.012 37.416 440.535 36.392H441.911C441.548 37.2987 440.999 37.992 440.263 38.472C439.527 38.9413 438.684 39.176 437.735 39.176C436.423 39.176 435.34 38.7547 434.487 37.912C433.644 37.0587 433.223 35.9653 433.223 34.632C433.223 33.2987 433.644 32.2 434.487 31.336C435.329 30.4613 436.407 30.024 437.719 30.024ZM437.719 31.272C436.929 31.272 436.257 31.5013 435.703 31.96C435.159 32.4187 434.807 33.016 434.647 33.752H440.679C440.529 33.0053 440.193 32.408 439.671 31.96C439.148 31.5013 438.497 31.272 437.719 31.272ZM455.08 37.512L455.32 38.616C454.616 38.9893 453.821 39.176 452.936 39.176C451.965 39.176 451.197 38.872 450.632 38.264C450.067 37.6453 449.784 36.7707 449.784 35.64V31.448H448.088V30.2H449.784V28.088L451.112 27.8V30.2H455.064V31.448H451.112V35.576C451.112 37.1547 451.795 37.944 453.16 37.944C453.651 37.944 454.291 37.8 455.08 37.512ZM461.666 30.024C462.669 30.024 463.447 30.3227 464.002 30.92C464.567 31.5173 464.85 32.3493 464.85 33.416V39H463.522V33.672C463.522 32.0827 462.781 31.288 461.298 31.288C460.413 31.288 459.725 31.576 459.234 32.152C458.754 32.728 458.514 33.5067 458.514 34.488V39H457.186V26.68H458.514V31.912C459.165 30.6533 460.215 30.024 461.666 30.024ZM471.601 30.024C471.793 30.024 471.974 30.0347 472.145 30.056V31.416C471.953 31.3947 471.766 31.384 471.585 31.384C470.636 31.384 469.878 31.688 469.313 32.296C468.748 32.8933 468.465 33.7413 468.465 34.84V39H467.137V30.2H468.465V32.168C469.041 30.7387 470.086 30.024 471.601 30.024ZM477.766 30.024C479.036 30.024 480.108 30.4613 480.982 31.336C481.868 32.2 482.31 33.288 482.31 34.6C482.31 35.912 481.873 37.0053 480.998 37.88C480.124 38.744 479.046 39.176 477.766 39.176C476.497 39.176 475.425 38.7387 474.55 37.864C473.676 36.9893 473.238 35.9013 473.238 34.6C473.238 33.2987 473.676 32.2107 474.55 31.336C475.436 30.4613 476.508 30.024 477.766 30.024ZM480.038 32.232C479.42 31.6027 478.662 31.288 477.766 31.288C476.87 31.288 476.113 31.6027 475.494 32.232C474.886 32.8507 474.582 33.64 474.582 34.6C474.582 35.56 474.886 36.3547 475.494 36.984C476.113 37.6027 476.87 37.912 477.766 37.912C478.673 37.912 479.43 37.6027 480.038 36.984C480.657 36.3547 480.966 35.56 480.966 34.6C480.966 33.64 480.657 32.8507 480.038 32.232ZM490.485 30.2H491.813V39H490.485V37.256C489.824 38.536 488.778 39.176 487.349 39.176C486.368 39.176 485.6 38.8773 485.045 38.28C484.501 37.6827 484.229 36.8507 484.229 35.784V30.2H485.557V35.528C485.557 37.1173 486.282 37.912 487.733 37.912C488.597 37.912 489.269 37.624 489.749 37.048C490.24 36.472 490.485 35.6933 490.485 34.712V30.2ZM501.289 30.2H502.617V38.904C502.617 40.216 502.244 41.256 501.497 42.024C500.75 42.792 499.732 43.176 498.441 43.176C497.364 43.176 496.43 42.8987 495.641 42.344C494.852 41.7893 494.35 41.0107 494.137 40.008H495.513C495.694 40.6373 496.041 41.1227 496.553 41.464C497.076 41.816 497.694 41.992 498.409 41.992C499.326 41.992 500.036 41.7253 500.537 41.192C501.038 40.6693 501.289 39.9173 501.289 38.936V37.16C500.937 37.768 500.468 38.248 499.881 38.6C499.294 38.9413 498.633 39.112 497.897 39.112C496.702 39.112 495.716 38.6853 494.937 37.832C494.169 36.968 493.785 35.88 493.785 34.568C493.785 33.2453 494.169 32.1573 494.937 31.304C495.716 30.4507 496.702 30.024 497.897 30.024C498.622 30.024 499.284 30.2 499.881 30.552C500.478 30.904 500.948 31.384 501.289 31.992V30.2ZM498.153 37.848C499.049 37.848 499.796 37.5387 500.393 36.92C501.001 36.3013 501.305 35.5173 501.305 34.568C501.305 33.6187 501.001 32.8347 500.393 32.216C499.796 31.5973 499.049 31.288 498.153 31.288C497.268 31.288 496.542 31.5973 495.977 32.216C495.412 32.8347 495.129 33.6187 495.129 34.568C495.129 35.5173 495.412 36.3013 495.977 36.92C496.542 37.5387 497.268 37.848 498.153 37.848ZM509.541 30.024C510.544 30.024 511.322 30.3227 511.877 30.92C512.442 31.5173 512.725 32.3493 512.725 33.416V39H511.397V33.672C511.397 32.0827 510.656 31.288 509.173 31.288C508.288 31.288 507.6 31.576 507.109 32.152C506.629 32.728 506.389 33.5067 506.389 34.488V39H505.061V26.68H506.389V31.912C507.04 30.6533 508.09 30.024 509.541 30.024ZM526.033 37.512L526.273 38.616C525.569 38.9893 524.774 39.176 523.889 39.176C522.918 39.176 522.15 38.872 521.585 38.264C521.02 37.6453 520.737 36.7707 520.737 35.64V31.448H519.041V30.2H520.737V28.088L522.065 27.8V30.2H526.017V31.448H522.065V35.576C522.065 37.1547 522.748 37.944 524.113 37.944C524.604 37.944 525.244 37.8 526.033 37.512ZM532.619 30.024C533.622 30.024 534.4 30.3227 534.955 30.92C535.52 31.5173 535.803 32.3493 535.803 33.416V39H534.475V33.672C534.475 32.0827 533.734 31.288 532.251 31.288C531.366 31.288 530.678 31.576 530.187 32.152C529.707 32.728 529.467 33.5067 529.467 34.488V39H528.139V26.68H529.467V31.912C530.118 30.6533 531.168 30.024 532.619 30.024ZM542.234 30.024C543.6 30.024 544.688 30.488 545.498 31.416C546.309 32.344 546.688 33.5387 546.634 35H539.098C539.162 35.9067 539.488 36.6213 540.074 37.144C540.661 37.6667 541.402 37.928 542.298 37.928C543.61 37.928 544.528 37.416 545.05 36.392H546.426C546.064 37.2987 545.514 37.992 544.778 38.472C544.042 38.9413 543.2 39.176 542.25 39.176C540.938 39.176 539.856 38.7547 539.002 37.912C538.16 37.0587 537.738 35.9653 537.738 34.632C537.738 33.2987 538.16 32.2 539.002 31.336C539.845 30.4613 540.922 30.024 542.234 30.024ZM542.234 31.272C541.445 31.272 540.773 31.5013 540.218 31.96C539.674 32.4187 539.322 33.016 539.162 33.752H545.194C545.045 33.0053 544.709 32.408 544.186 31.96C543.664 31.5013 543.013 31.272 542.234 31.272ZM558.092 30.024C559.286 30.024 560.268 30.456 561.036 31.32C561.814 32.1733 562.204 33.2667 562.204 34.6C562.204 35.9333 561.814 37.032 561.036 37.896C560.257 38.7493 559.27 39.176 558.076 39.176C557.329 39.176 556.662 39.0053 556.076 38.664C555.5 38.312 555.041 37.832 554.7 37.224V39H553.372V26.68H554.7V32.008C555.041 31.3893 555.505 30.904 556.092 30.552C556.678 30.2 557.345 30.024 558.092 30.024ZM557.836 37.912C558.721 37.912 559.446 37.6027 560.012 36.984C560.577 36.3653 560.86 35.5707 560.86 34.6C560.86 33.64 560.577 32.8507 560.012 32.232C559.446 31.6027 558.721 31.288 557.836 31.288C556.929 31.288 556.177 31.6027 555.58 32.232C554.982 32.8507 554.684 33.64 554.684 34.6C554.684 35.56 554.982 36.3547 555.58 36.984C556.177 37.6027 556.929 37.912 557.836 37.912ZM571.367 30.2H572.695V39H571.367V37.224C571.015 37.832 570.546 38.312 569.959 38.664C569.383 39.0053 568.722 39.176 567.975 39.176C566.781 39.176 565.794 38.7493 565.015 37.896C564.247 37.032 563.863 35.9333 563.863 34.6C563.863 33.2667 564.247 32.1733 565.015 31.32C565.794 30.456 566.781 30.024 567.975 30.024C568.722 30.024 569.389 30.2 569.975 30.552C570.562 30.904 571.026 31.3893 571.367 32.008V30.2ZM568.231 37.912C569.138 37.912 569.89 37.6027 570.487 36.984C571.085 36.3547 571.383 35.56 571.383 34.6C571.383 33.64 571.085 32.8507 570.487 32.232C569.89 31.6027 569.138 31.288 568.231 31.288C567.335 31.288 566.605 31.6027 566.039 32.232C565.485 32.8507 565.207 33.64 565.207 34.6C565.207 35.5707 565.49 36.3653 566.055 36.984C566.621 37.6027 567.346 37.912 568.231 37.912ZM579.251 39.176C577.96 39.176 576.878 38.744 576.003 37.88C575.139 37.0053 574.707 35.912 574.707 34.6C574.707 33.288 575.139 32.2 576.003 31.336C576.878 30.4613 577.96 30.024 579.251 30.024C580.296 30.024 581.214 30.3173 582.003 30.904C582.792 31.4907 583.299 32.28 583.523 33.272H582.147C581.944 32.6533 581.582 32.1627 581.059 31.8C580.536 31.4373 579.934 31.256 579.251 31.256C578.323 31.256 577.555 31.5707 576.947 32.2C576.35 32.8293 576.051 33.6293 576.051 34.6C576.051 35.5707 576.35 36.3707 576.947 37C577.555 37.6293 578.323 37.944 579.251 37.944C579.934 37.944 580.531 37.7627 581.043 37.4C581.566 37.0373 581.934 36.5467 582.147 35.928H583.523C583.288 36.9307 582.776 37.7253 581.987 38.312C581.198 38.888 580.286 39.176 579.251 39.176ZM593.227 39H591.484L586.78 34.76V39H585.452V26.68H586.78V34.12L591.068 30.2H592.812L588.188 34.376L593.227 39ZM598.125 30.024C599.49 30.024 600.578 30.488 601.389 31.416C602.2 32.344 602.578 33.5387 602.525 35H594.989C595.053 35.9067 595.378 36.6213 595.965 37.144C596.552 37.6667 597.293 37.928 598.189 37.928C599.501 37.928 600.418 37.416 600.941 36.392H602.317C601.954 37.2987 601.405 37.992 600.669 38.472C599.933 38.9413 599.09 39.176 598.141 39.176C596.829 39.176 595.746 38.7547 594.893 37.912C594.05 37.0587 593.629 35.9653 593.629 34.632C593.629 33.2987 594.05 32.2 594.893 31.336C595.736 30.4613 596.813 30.024 598.125 30.024ZM598.125 31.272C597.336 31.272 596.664 31.5013 596.109 31.96C595.565 32.4187 595.213 33.016 595.053 33.752H601.085C600.936 33.0053 600.6 32.408 600.077 31.96C599.554 31.5013 598.904 31.272 598.125 31.272ZM608.945 30.024C609.937 30.024 610.716 30.3227 611.281 30.92C611.847 31.5173 612.129 32.3493 612.129 33.416V39H610.801V33.672C610.801 32.0827 610.06 31.288 608.577 31.288C607.692 31.288 607.004 31.576 606.513 32.152C606.033 32.728 605.793 33.5067 605.793 34.488V39H604.465V30.2H605.793V31.944C606.433 30.664 607.484 30.024 608.945 30.024ZM621.619 26.68H622.947V39H621.619V37.224C621.277 37.832 620.813 38.312 620.227 38.664C619.64 39.0053 618.973 39.176 618.227 39.176C617.032 39.176 616.045 38.7493 615.267 37.896C614.499 37.032 614.115 35.9333 614.115 34.6C614.115 33.2667 614.499 32.1733 615.267 31.32C616.045 30.456 617.032 30.024 618.227 30.024C618.973 30.024 619.64 30.2 620.227 30.552C620.813 30.904 621.277 31.3893 621.619 32.008V26.68ZM618.483 37.912C619.389 37.912 620.141 37.6027 620.739 36.984C621.336 36.3547 621.635 35.56 621.635 34.6C621.635 33.64 621.336 32.8507 620.739 32.232C620.141 31.6027 619.389 31.288 618.483 31.288C617.597 31.288 616.872 31.6027 616.307 32.232C615.741 32.8507 615.459 33.64 615.459 34.6C615.459 35.5707 615.741 36.3653 616.307 36.984C616.872 37.6027 617.597 37.912 618.483 37.912ZM634.906 30.024C636.101 30.024 637.082 30.456 637.85 31.32C638.629 32.1733 639.018 33.2667 639.018 34.6C639.018 35.9333 638.629 37.032 637.85 37.896C637.071 38.7493 636.085 39.176 634.89 39.176C634.143 39.176 633.477 39.0053 632.89 38.664C632.314 38.312 631.855 37.832 631.514 37.224V43H630.186V30.2H631.514V32.008C631.855 31.3893 632.319 30.904 632.906 30.552C633.493 30.2 634.159 30.024 634.906 30.024ZM634.65 37.912C635.535 37.912 636.261 37.6027 636.826 36.984C637.391 36.3653 637.674 35.5707 637.674 34.6C637.674 33.64 637.391 32.8507 636.826 32.232C636.261 31.6027 635.535 31.288 634.65 31.288C633.743 31.288 632.991 31.6027 632.394 32.232C631.797 32.8507 631.498 33.64 631.498 34.6C631.498 35.56 631.797 36.3547 632.394 36.984C632.991 37.6027 633.743 37.912 634.65 37.912ZM645.492 30.024C645.684 30.024 645.865 30.0347 646.036 30.056V31.416C645.844 31.3947 645.657 31.384 645.476 31.384C644.526 31.384 643.769 31.688 643.204 32.296C642.638 32.8933 642.356 33.7413 642.356 34.84V39H641.028V30.2H642.356V32.168C642.932 30.7387 643.977 30.024 645.492 30.024ZM651.657 30.024C652.926 30.024 653.998 30.4613 654.873 31.336C655.758 32.2 656.201 33.288 656.201 34.6C656.201 35.912 655.764 37.0053 654.889 37.88C654.014 38.744 652.937 39.176 651.657 39.176C650.388 39.176 649.316 38.7387 648.441 37.864C647.566 36.9893 647.129 35.9013 647.129 34.6C647.129 33.2987 647.566 32.2107 648.441 31.336C649.326 30.4613 650.398 30.024 651.657 30.024ZM653.929 32.232C653.31 31.6027 652.553 31.288 651.657 31.288C650.761 31.288 650.004 31.6027 649.385 32.232C648.777 32.8507 648.473 33.64 648.473 34.6C648.473 35.56 648.777 36.3547 649.385 36.984C650.004 37.6027 650.761 37.912 651.657 37.912C652.564 37.912 653.321 37.6027 653.929 36.984C654.548 36.3547 654.857 35.56 654.857 34.6C654.857 33.64 654.548 32.8507 653.929 32.232ZM662.392 39.176C661.101 39.176 660.018 38.744 659.144 37.88C658.28 37.0053 657.848 35.912 657.848 34.6C657.848 33.288 658.28 32.2 659.144 31.336C660.018 30.4613 661.101 30.024 662.392 30.024C663.437 30.024 664.354 30.3173 665.144 30.904C665.933 31.4907 666.44 32.28 666.664 33.272H665.288C665.085 32.6533 664.722 32.1627 664.2 31.8C663.677 31.4373 663.074 31.256 662.392 31.256C661.464 31.256 660.696 31.5707 660.088 32.2C659.49 32.8293 659.192 33.6293 659.192 34.6C659.192 35.5707 659.49 36.3707 660.088 37C660.696 37.6293 661.464 37.944 662.392 37.944C663.074 37.944 663.672 37.7627 664.184 37.4C664.706 37.0373 665.074 36.5467 665.288 35.928H666.664C666.429 36.9307 665.917 37.7253 665.128 38.312C664.338 38.888 663.426 39.176 662.392 39.176ZM672.656 30.024C674.021 30.024 675.109 30.488 675.92 31.416C676.731 32.344 677.109 33.5387 677.056 35H669.52C669.584 35.9067 669.909 36.6213 670.496 37.144C671.083 37.6667 671.824 37.928 672.72 37.928C674.032 37.928 674.949 37.416 675.472 36.392H676.848C676.485 37.2987 675.936 37.992 675.2 38.472C674.464 38.9413 673.621 39.176 672.672 39.176C671.36 39.176 670.277 38.7547 669.424 37.912C668.581 37.0587 668.16 35.9653 668.16 34.632C668.16 33.2987 668.581 32.2 669.424 31.336C670.267 30.4613 671.344 30.024 672.656 30.024ZM672.656 31.272C671.867 31.272 671.195 31.5013 670.64 31.96C670.096 32.4187 669.744 33.016 669.584 33.752H675.616C675.467 33.0053 675.131 32.408 674.608 31.96C674.085 31.5013 673.435 31.272 672.656 31.272ZM682.725 39.176C681.573 39.176 680.618 38.92 679.861 38.408C679.103 37.896 678.639 37.176 678.469 36.248H679.829C679.999 36.8453 680.314 37.272 680.773 37.528C681.242 37.784 681.893 37.912 682.725 37.912C683.397 37.912 683.941 37.8 684.357 37.576C684.783 37.3413 684.997 37.016 684.997 36.6C684.997 36.344 684.89 36.1307 684.677 35.96C684.463 35.7787 684.234 35.6507 683.989 35.576C683.743 35.5013 683.322 35.3893 682.725 35.24C682.586 35.208 682.479 35.1813 682.405 35.16C681.082 34.8293 680.17 34.504 679.669 34.184C679.167 33.864 678.917 33.3627 678.917 32.68C678.917 31.848 679.242 31.1973 679.893 30.728C680.554 30.2587 681.418 30.024 682.485 30.024C683.509 30.024 684.341 30.248 684.981 30.696C685.631 31.1333 686.047 31.752 686.229 32.552H684.885C684.565 31.7093 683.775 31.288 682.516 31.288C681.823 31.288 681.274 31.4107 680.869 31.656C680.463 31.8907 680.261 32.2 680.261 32.584C680.261 32.9147 680.426 33.16 680.757 33.32C681.087 33.4693 681.749 33.672 682.741 33.928C683.21 34.0453 683.562 34.136 683.797 34.2C684.042 34.264 684.33 34.3547 684.661 34.472C685.002 34.5893 685.253 34.7013 685.413 34.808C685.573 34.9147 685.738 35.0533 685.909 35.224C686.079 35.384 686.197 35.5707 686.26 35.784C686.325 35.9867 686.357 36.2213 686.357 36.488C686.357 37.352 686.01 38.0187 685.317 38.488C684.634 38.9467 683.77 39.176 682.725 39.176ZM691.928 39.176C690.776 39.176 689.821 38.92 689.064 38.408C688.306 37.896 687.842 37.176 687.672 36.248H689.032C689.202 36.8453 689.517 37.272 689.976 37.528C690.445 37.784 691.096 37.912 691.928 37.912C692.6 37.912 693.144 37.8 693.56 37.576C693.986 37.3413 694.2 37.016 694.2 36.6C694.2 36.344 694.093 36.1307 693.88 35.96C693.666 35.7787 693.437 35.6507 693.192 35.576C692.946 35.5013 692.525 35.3893 691.928 35.24C691.789 35.208 691.682 35.1813 691.608 35.16C690.285 34.8293 689.373 34.504 688.872 34.184C688.37 33.864 688.12 33.3627 688.12 32.68C688.12 31.848 688.445 31.1973 689.096 30.728C689.757 30.2587 690.621 30.024 691.688 30.024C692.712 30.024 693.544 30.248 694.184 30.696C694.834 31.1333 695.25 31.752 695.432 32.552H694.088C693.768 31.7093 692.978 31.288 691.72 31.288C691.026 31.288 690.477 31.4107 690.072 31.656C689.666 31.8907 689.464 32.2 689.464 32.584C689.464 32.9147 689.629 33.16 689.96 33.32C690.29 33.4693 690.952 33.672 691.944 33.928C692.413 34.0453 692.765 34.136 693 34.2C693.245 34.264 693.533 34.3547 693.864 34.472C694.205 34.5893 694.456 34.7013 694.616 34.808C694.776 34.9147 694.941 35.0533 695.112 35.224C695.282 35.384 695.4 35.5707 695.464 35.784C695.528 35.9867 695.56 36.2213 695.56 36.488C695.56 37.352 695.213 38.0187 694.52 38.488C693.837 38.9467 692.973 39.176 691.928 39.176Z" fill="#48494B"/>
<g clip-path="url(#clip0_950_488)">
<path d="M512.124 72.1724H208.13V267.059H512.124V72.1724Z" fill="#E6E6E6"/>
<path d="M503.285 96.6161H216.676V255.53H503.285V96.6161Z" fill="white"/>
<path d="M511.994 72H208V84.9277H511.994V72Z" fill="#C6CAE2"/>
<path d="M217.597 81.0054C218.919 81.0054 219.991 79.9326 219.991 78.6093C219.991 77.286 218.919 76.2133 217.597 76.2133C216.275 76.2133 215.204 77.286 215.204 78.6093C215.204 79.9326 216.275 81.0054 217.597 81.0054Z" fill="white"/>
<path d="M226.683 81.0054C228.005 81.0054 229.077 79.9326 229.077 78.6093C229.077 77.286 228.005 76.2133 226.683 76.2133C225.361 76.2133 224.289 77.286 224.289 78.6093C224.289 79.9326 225.361 81.0054 226.683 81.0054Z" fill="white"/>
<path d="M235.769 81.0054C237.091 81.0054 238.162 79.9326 238.162 78.6093C238.162 77.286 237.091 76.2133 235.769 76.2133C234.447 76.2133 233.375 77.286 233.375 78.6093C233.375 79.9326 234.447 81.0054 235.769 81.0054Z" fill="white"/>
<path d="M326.576 124.592H274.036V159.332H326.576V124.592Z" fill="#E6E6E6"/>
<path d="M441.295 124.592H389.237V159.332H441.295V124.592Z" fill="#C6CAE2"/>
<path d="M383.935 124.592H331.396V159.332H383.935V124.592Z" fill="#E6E6E6"/>
<path d="M499.137 124.592H446.597V159.332H499.137V124.592Z" fill="#E6E6E6"/>
<path d="M326.576 168.982H274.036V206.134H326.576V168.982Z" fill="#E6E6E6"/>
<path d="M441.295 168.982H389.237V206.134H441.295V168.982Z" fill="#E6E6E6"/>
<path d="M383.935 168.982H331.396V206.134H383.935V168.982Z" fill="#E6E6E6"/>
<path d="M499.137 168.982H446.597V206.134H499.137V168.982Z" fill="#E6E6E6"/>
<path d="M326.576 215.784H274.036V250.524H326.576V215.784Z" fill="#E6E6E6"/>
<path d="M441.295 215.784H389.237V250.524H441.295V215.784Z" fill="#E6E6E6"/>
<path d="M383.935 215.784H331.396V250.524H383.935V215.784Z" fill="#E6E6E6"/>
<path d="M499.137 215.784H446.597V250.524H499.137V215.784Z" fill="#E6E6E6"/>
<rect x="222.46" y="104.327" width="43.3813" height="5.78997" fill="#D9D9D9"/>
<rect x="222.46" y="124.592" width="28.9209" height="3.85998" fill="#D9D9D9"/>
<rect x="222.46" y="163.192" width="28.9209" height="3.85998" fill="#D9D9D9"/>
<rect x="222.46" y="201.792" width="28.9209" height="3.85998" fill="#D9D9D9"/>
<rect x="222.46" y="140.032" width="28.9209" height="3.85998" fill="#D9D9D9"/>
<rect x="222.46" y="178.632" width="28.9209" height="3.85998" fill="#D9D9D9"/>
<rect x="222.46" y="217.232" width="28.9209" height="3.85998" fill="#D9D9D9"/>
<rect x="222.46" y="132.312" width="28.9209" height="3.85998" fill="#D9D9D9"/>
<rect x="222.46" y="170.912" width="28.9209" height="3.85998" fill="#D9D9D9"/>
<rect x="222.46" y="209.512" width="28.9209" height="3.85998" fill="#D9D9D9"/>
<rect x="222.46" y="147.752" width="28.9209" height="3.85998" fill="#D9D9D9"/>
<rect x="222.46" y="186.352" width="28.9209" height="3.85998" fill="#D9D9D9"/>
<rect x="222.46" y="224.952" width="28.9209" height="3.85998" fill="#D9D9D9"/>
<rect x="274.036" y="103.362" width="139.784" height="7.71997" rx="3.85998" fill="#D9D9D9"/>
<ellipse cx="495.281" cy="107.222" rx="3.85611" ry="3.85998" fill="#D9D9D9"/>
<ellipse cx="483.712" cy="107.222" rx="3.85611" ry="3.85998" fill="#D9D9D9"/>
<ellipse cx="472.144" cy="107.222" rx="3.85611" ry="3.85998" fill="#D9D9D9"/>
<path d="M539.104 331.716L533.525 333.261L524.915 312.457L533.148 310.177L539.104 331.716Z" fill="#FFB6B6"/>
<path d="M529.099 332.77L539.858 329.789L541.732 336.57L524.199 341.427C523.953 340.537 523.885 339.606 523.998 338.689C524.111 337.772 524.403 336.887 524.858 336.083C525.313 335.279 525.922 334.572 526.649 334.004C527.377 333.435 528.209 333.016 529.099 332.77Z" fill="#2F2E41"/>
<path d="M480.942 336.011H475.154L472.4 313.662H480.943L480.942 336.011Z" fill="#FFB6B6"/>
<path d="M471.019 334.355H482.182V341.391H463.99C463.99 340.467 464.172 339.552 464.525 338.699C464.878 337.845 465.396 337.069 466.049 336.416C466.702 335.763 467.476 335.244 468.329 334.891C469.182 334.537 470.096 334.355 471.019 334.355Z" fill="#2F2E41"/>
<path d="M473.962 211.11C474.376 211.668 474.906 212.129 475.516 212.46C476.127 212.791 476.802 212.983 477.495 213.025C478.188 213.066 478.881 212.955 479.526 212.699C480.172 212.443 480.753 212.048 481.23 211.543L496.617 218.471L495.217 209.807L480.82 204.557C479.919 203.812 478.776 203.423 477.608 203.465C476.441 203.507 475.329 203.977 474.483 204.784C473.638 205.592 473.118 206.682 473.022 207.848C472.926 209.014 473.261 210.174 473.962 211.11Z" fill="#FFB6B6"/>
<path d="M505.933 263.21C501.099 263.21 496.094 262.489 491.887 260.345C489.654 259.23 487.675 257.665 486.074 255.748C484.473 253.832 483.284 251.605 482.582 249.208C480.39 242.261 483.154 235.436 485.826 228.836C487.482 224.746 489.047 220.883 489.453 217.075L489.594 215.723C490.226 209.651 490.772 204.407 493.795 202.441C495.362 201.421 497.468 201.363 500.235 202.262L526.224 210.713L525.269 260.097L525.111 260.15C524.975 260.196 515.813 263.21 505.933 263.21Z" fill="#2F2E41"/>
<path d="M499.781 186.888C499.781 186.888 512.529 183.107 522.444 184.525C522.444 184.525 516.778 215.718 518.667 226.115C520.555 236.513 485.853 230.133 492.935 220.208L495.296 208.392C495.296 208.392 490.574 203.666 494.824 197.995L499.781 186.888Z" fill="#C6CAE2"/>
<path d="M493.511 262.274L477.8 259.325L483.285 217.07C483.654 215.89 492.151 189.118 496.01 187.669C498.812 186.682 501.677 185.885 504.587 185.284L505.146 185.172L501.995 189.903L489.453 219.987L493.511 262.274Z" fill="#2F2E41"/>
<path d="M485.324 330.833L465.025 327.446L476.417 280.882L493.368 217.204L493.535 218.334C493.549 218.419 495.132 226.737 518.63 223.046L518.837 223.014L518.894 223.215L547.294 323.664L524.163 327.523L503.067 254.236L485.324 330.833Z" fill="#2F2E41"/>
<path d="M513.461 270.181L513.473 269.824C513.488 269.427 514.884 229.948 514.418 214.071C513.95 198.139 519.102 184.343 519.154 184.205L519.196 184.094L519.31 184.062C525.977 182.155 531.76 187.845 531.818 187.903L531.899 187.984L530 203.664L538.129 260.681L513.461 270.181Z" fill="#2F2E41"/>
<path d="M512.466 179.804C518.87 179.804 524.062 174.607 524.062 168.196C524.062 161.785 518.87 156.588 512.466 156.588C506.061 156.588 500.869 161.785 500.869 168.196C500.869 174.607 506.061 179.804 512.466 179.804Z" fill="#FFB6B6"/>
<path d="M456.982 97.6577C447.537 89.6801 435.98 84.6224 423.716 83.1001C411.452 81.5777 399.01 83.6564 387.905 89.083C376.8 94.5097 367.51 103.05 361.165 113.666C354.821 124.282 351.695 136.514 352.169 148.875C352.643 161.237 356.696 173.193 363.835 183.291C370.974 193.388 380.891 201.191 392.379 205.749C403.868 210.308 416.432 211.425 428.543 208.966C440.654 206.507 451.79 200.577 460.596 191.898L538.792 257.945C539.981 258.952 541.522 259.445 543.075 259.315C544.627 259.185 546.064 258.442 547.07 257.251C548.076 256.06 548.568 254.518 548.438 252.964C548.308 251.41 547.567 249.971 546.377 248.964L546.368 248.957L468.173 182.91C477.257 169.86 481.145 153.884 479.075 138.114C477.005 122.344 469.126 107.916 456.982 97.6577ZM451.941 176.55C445.849 183.777 437.754 189.033 428.678 191.654C419.602 194.275 409.953 194.143 400.952 191.275C391.951 188.407 384.001 182.931 378.109 175.541C372.217 168.15 368.646 159.177 367.849 149.755C367.051 140.333 369.063 130.886 373.629 122.608C378.195 114.331 385.111 107.595 393.502 103.252C401.893 98.9085 411.382 97.1536 420.769 98.2089C430.156 99.2641 439.02 103.082 446.239 109.18C451.033 113.229 454.983 118.183 457.864 123.76C460.744 129.337 462.5 135.427 463.029 141.683C463.559 147.939 462.852 154.238 460.949 160.221C459.047 166.203 455.986 171.752 451.941 176.55Z" fill="#3F3D56"/>
<path opacity="0.3" d="M384.638 182.258C375.476 174.518 369.556 163.612 368.055 151.706C366.553 139.8 369.58 127.763 376.534 117.987C375.62 118.908 374.738 119.872 373.885 120.88C369.84 125.678 366.779 131.227 364.877 137.209C362.975 143.192 362.268 149.491 362.797 155.747C363.327 162.003 365.082 168.093 367.963 173.67C370.844 179.247 374.794 184.201 379.587 188.25C384.381 192.299 389.924 195.363 395.9 197.267C401.877 199.172 408.17 199.879 414.419 199.349C420.669 198.819 426.753 197.062 432.325 194.178C437.896 191.295 442.845 187.341 446.89 182.543C447.74 181.534 448.541 180.5 449.293 179.443C440.835 187.949 429.492 192.96 417.514 193.482C405.537 194.003 393.801 189.997 384.638 182.258Z" fill="#1F1F1F"/>
<path d="M516.189 231.403C516.863 231.568 517.565 231.583 518.246 231.447C518.927 231.311 519.569 231.027 520.129 230.616C520.688 230.204 521.15 229.675 521.483 229.065C521.816 228.455 522.011 227.78 522.055 227.087L538.312 222.57L531.704 216.802L517.279 221.976C516.11 221.979 514.983 222.412 514.112 223.191C513.24 223.971 512.685 225.043 512.551 226.205C512.416 227.367 512.713 228.538 513.383 229.496C514.054 230.454 515.052 231.132 516.189 231.403Z" fill="#FFB6B6"/>
<path d="M522.946 229.012L521.957 219.604L535.536 212.104L526.683 201.376L528.127 189.324L531.725 187.781L531.837 187.925C533.533 190.108 548.412 209.325 548.412 211.701C548.412 214.141 545.565 221.306 541.671 223.255C537.915 225.135 523.81 228.789 523.211 228.944L522.946 229.012Z" fill="#2F2E41"/>
<path d="M522.955 171.877L522.787 171.534C522.528 171.005 520.38 166.6 520.111 165.467L517.409 165.792L510.372 165.793L511.35 164.295L508.764 164.639C507.819 164.756 506.916 165.104 506.13 165.654C505.648 165.981 505.241 166.41 504.935 166.912C504.012 168.528 502.601 171.17 502.587 171.196L502.452 171.449L501.28 169.435C501.264 169.356 499.811 161.615 504.674 158.989C505.367 157.606 506.44 156.459 507.761 155.688C509.082 154.918 510.594 154.558 512.112 154.652C512.667 154.005 513.45 153.608 514.289 153.546C515.443 153.485 516.64 154.104 517.842 155.394C519.44 157.107 521.627 159.453 522.95 162.058L523.315 162.59C523.834 163.352 524.091 164.267 524.045 165.193C524.326 166.672 524.227 168.199 523.756 169.627L522.955 171.877Z" fill="#2F2E41"/>
</g>
<defs>
<clipPath id="clip0_950_488">
<rect width="335" height="264" fill="white" transform="translate(208 72)"/>
</clipPath>
</defs>
</svg>
