<svg width="1520" height="440" viewBox="0 0 1520 440" fill="none" xmlns="http://www.w3.org/2000/svg">
<path d="M174.199 39L172.871 35.64H167.671L166.343 39H164.935L169.415 27.8H171.127L175.607 39H174.199ZM168.183 34.376H172.375L170.279 29.064L168.183 34.376ZM180.85 39.176C179.698 39.176 178.744 38.92 177.986 38.408C177.229 37.896 176.765 37.176 176.594 36.248H177.954C178.125 36.8453 178.44 37.272 178.898 37.528C179.368 37.784 180.018 37.912 180.85 37.912C181.522 37.912 182.066 37.8 182.482 37.576C182.909 37.3413 183.122 37.016 183.122 36.6C183.122 36.344 183.016 36.1307 182.802 35.96C182.589 35.7787 182.36 35.6507 182.114 35.576C181.869 35.5013 181.448 35.3893 180.85 35.24C180.712 35.208 180.605 35.1813 180.53 35.16C179.208 34.8293 178.296 34.504 177.794 34.184C177.293 33.864 177.042 33.3627 177.042 32.68C177.042 31.848 177.368 31.1973 178.018 30.728C178.68 30.2587 179.544 30.024 180.61 30.024C181.634 30.024 182.466 30.248 183.106 30.696C183.757 31.1333 184.173 31.752 184.354 32.552H183.01C182.69 31.7093 181.901 31.288 180.642 31.288C179.949 31.288 179.4 31.4107 178.994 31.656C178.589 31.8907 178.386 32.2 178.386 32.584C178.386 32.9147 178.552 33.16 178.882 33.32C179.213 33.4693 179.874 33.672 180.866 33.928C181.336 34.0453 181.688 34.136 181.922 34.2C182.168 34.264 182.456 34.3547 182.786 34.472C183.128 34.5893 183.378 34.7013 183.538 34.808C183.698 34.9147 183.864 35.0533 184.034 35.224C184.205 35.384 184.322 35.5707 184.386 35.784C184.45 35.9867 184.482 36.2213 184.482 36.488C184.482 37.352 184.136 38.0187 183.442 38.488C182.76 38.9467 181.896 39.176 180.85 39.176ZM194.85 39.176C193.698 39.176 192.744 38.92 191.986 38.408C191.229 37.896 190.765 37.176 190.594 36.248H191.954C192.125 36.8453 192.44 37.272 192.898 37.528C193.368 37.784 194.018 37.912 194.85 37.912C195.522 37.912 196.066 37.8 196.482 37.576C196.909 37.3413 197.122 37.016 197.122 36.6C197.122 36.344 197.016 36.1307 196.802 35.96C196.589 35.7787 196.36 35.6507 196.114 35.576C195.869 35.5013 195.448 35.3893 194.85 35.24C194.712 35.208 194.605 35.1813 194.53 35.16C193.208 34.8293 192.296 34.504 191.794 34.184C191.293 33.864 191.042 33.3627 191.042 32.68C191.042 31.848 191.368 31.1973 192.018 30.728C192.68 30.2587 193.544 30.024 194.61 30.024C195.634 30.024 196.466 30.248 197.106 30.696C197.757 31.1333 198.173 31.752 198.354 32.552H197.01C196.69 31.7093 195.901 31.288 194.642 31.288C193.949 31.288 193.4 31.4107 192.994 31.656C192.589 31.8907 192.386 32.2 192.386 32.584C192.386 32.9147 192.552 33.16 192.882 33.32C193.213 33.4693 193.874 33.672 194.866 33.928C195.336 34.0453 195.688 34.136 195.922 34.2C196.168 34.264 196.456 34.3547 196.786 34.472C197.128 34.5893 197.378 34.7013 197.538 34.808C197.698 34.9147 197.864 35.0533 198.034 35.224C198.205 35.384 198.322 35.5707 198.386 35.784C198.45 35.9867 198.482 36.2213 198.482 36.488C198.482 37.352 198.136 38.0187 197.442 38.488C196.76 38.9467 195.896 39.176 194.85 39.176ZM204.501 30.024C205.771 30.024 206.843 30.4613 207.717 31.336C208.603 32.2 209.045 33.288 209.045 34.6C209.045 35.912 208.608 37.0053 207.733 37.88C206.859 38.744 205.781 39.176 204.501 39.176C203.232 39.176 202.16 38.7387 201.285 37.864C200.411 36.9893 199.973 35.9013 199.973 34.6C199.973 33.2987 200.411 32.2107 201.285 31.336C202.171 30.4613 203.243 30.024 204.501 30.024ZM206.773 32.232C206.155 31.6027 205.397 31.288 204.501 31.288C203.605 31.288 202.848 31.6027 202.229 32.232C201.621 32.8507 201.317 33.64 201.317 34.6C201.317 35.56 201.621 36.3547 202.229 36.984C202.848 37.6027 203.605 37.912 204.501 37.912C205.408 37.912 206.165 37.6027 206.773 36.984C207.392 36.3547 207.701 35.56 207.701 34.6C207.701 33.64 207.392 32.8507 206.773 32.232ZM215.22 30.024C216.489 30.024 217.561 30.4613 218.436 31.336C219.321 32.2 219.764 33.288 219.764 34.6C219.764 35.912 219.327 37.0053 218.452 37.88C217.577 38.744 216.5 39.176 215.22 39.176C213.951 39.176 212.879 38.7387 212.004 37.864C211.129 36.9893 210.692 35.9013 210.692 34.6C210.692 33.2987 211.129 32.2107 212.004 31.336C212.889 30.4613 213.961 30.024 215.22 30.024ZM217.492 32.232C216.873 31.6027 216.116 31.288 215.22 31.288C214.324 31.288 213.567 31.6027 212.948 32.232C212.34 32.8507 212.036 33.64 212.036 34.6C212.036 35.56 212.34 36.3547 212.948 36.984C213.567 37.6027 214.324 37.912 215.22 37.912C216.127 37.912 216.884 37.6027 217.492 36.984C218.111 36.3547 218.42 35.56 218.42 34.6C218.42 33.64 218.111 32.8507 217.492 32.232ZM226.243 30.024C227.235 30.024 228.014 30.3227 228.579 30.92C229.144 31.5173 229.427 32.3493 229.427 33.416V39H228.099V33.672C228.099 32.0827 227.358 31.288 225.875 31.288C224.99 31.288 224.302 31.576 223.811 32.152C223.331 32.728 223.091 33.5067 223.091 34.488V39H221.763V30.2H223.091V31.944C223.731 30.664 224.782 30.024 226.243 30.024ZM243.649 30.2H244.977V39H243.649V37.224C243.297 37.832 242.828 38.312 242.241 38.664C241.665 39.0053 241.004 39.176 240.257 39.176C239.063 39.176 238.076 38.7493 237.297 37.896C236.529 37.032 236.145 35.9333 236.145 34.6C236.145 33.2667 236.529 32.1733 237.297 31.32C238.076 30.456 239.063 30.024 240.257 30.024C241.004 30.024 241.671 30.2 242.257 30.552C242.844 30.904 243.308 31.3893 243.649 32.008V30.2ZM240.513 37.912C241.42 37.912 242.172 37.6027 242.769 36.984C243.367 36.3547 243.665 35.56 243.665 34.6C243.665 33.64 243.367 32.8507 242.769 32.232C242.172 31.6027 241.42 31.288 240.513 31.288C239.617 31.288 238.887 31.6027 238.321 32.232C237.767 32.8507 237.489 33.64 237.489 34.6C237.489 35.5707 237.772 36.3653 238.337 36.984C238.903 37.6027 239.628 37.912 240.513 37.912ZM251.069 39.176C249.917 39.176 248.962 38.92 248.205 38.408C247.448 37.896 246.984 37.176 246.813 36.248H248.173C248.344 36.8453 248.658 37.272 249.117 37.528C249.586 37.784 250.237 37.912 251.069 37.912C251.741 37.912 252.285 37.8 252.701 37.576C253.128 37.3413 253.341 37.016 253.341 36.6C253.341 36.344 253.234 36.1307 253.021 35.96C252.808 35.7787 252.578 35.6507 252.333 35.576C252.088 35.5013 251.666 35.3893 251.069 35.24C250.93 35.208 250.824 35.1813 250.749 35.16C249.426 34.8293 248.514 34.504 248.013 34.184C247.512 33.864 247.261 33.3627 247.261 32.68C247.261 31.848 247.586 31.1973 248.237 30.728C248.898 30.2587 249.762 30.024 250.829 30.024C251.853 30.024 252.685 30.248 253.325 30.696C253.976 31.1333 254.392 31.752 254.573 32.552H253.229C252.909 31.7093 252.12 31.288 250.861 31.288C250.168 31.288 249.618 31.4107 249.213 31.656C248.808 31.8907 248.605 32.2 248.605 32.584C248.605 32.9147 248.77 33.16 249.101 33.32C249.432 33.4693 250.093 33.672 251.085 33.928C251.554 34.0453 251.906 34.136 252.141 34.2C252.386 34.264 252.674 34.3547 253.005 34.472C253.346 34.5893 253.597 34.7013 253.757 34.808C253.917 34.9147 254.082 35.0533 254.253 35.224C254.424 35.384 254.541 35.5707 254.605 35.784C254.669 35.9867 254.701 36.2213 254.701 36.488C254.701 37.352 254.354 38.0187 253.661 38.488C252.978 38.9467 252.114 39.176 251.069 39.176ZM261.565 39V27.8H262.893V39H261.565ZM280.822 30.2H282.15L279.558 39H277.958L277.094 36.04L275.958 31.576H275.718L274.582 36.04L273.702 39H272.102L269.51 30.2H270.838L271.654 32.968L272.934 37.624L274.198 32.968L275.014 30.2H276.646L277.462 32.968L278.726 37.608L280.006 32.968L280.822 30.2ZM290.509 30.2H291.837V39H290.509V37.224C290.157 37.832 289.687 38.312 289.101 38.664C288.525 39.0053 287.863 39.176 287.117 39.176C285.922 39.176 284.935 38.7493 284.157 37.896C283.389 37.032 283.005 35.9333 283.005 34.6C283.005 33.2667 283.389 32.1733 284.157 31.32C284.935 30.456 285.922 30.024 287.117 30.024C287.863 30.024 288.53 30.2 289.117 30.552C289.703 30.904 290.167 31.3893 290.509 32.008V30.2ZM287.373 37.912C288.279 37.912 289.031 37.6027 289.629 36.984C290.226 36.3547 290.525 35.56 290.525 34.6C290.525 33.64 290.226 32.8507 289.629 32.232C289.031 31.6027 288.279 31.288 287.373 31.288C286.477 31.288 285.746 31.6027 285.181 32.232C284.626 32.8507 284.349 33.64 284.349 34.6C284.349 35.5707 284.631 36.3653 285.197 36.984C285.762 37.6027 286.487 37.912 287.373 37.912ZM300.424 37.512L300.664 38.616C299.96 38.9893 299.166 39.176 298.28 39.176C297.31 39.176 296.542 38.872 295.976 38.264C295.411 37.6453 295.128 36.7707 295.128 35.64V31.448H293.432V30.2H295.128V28.088L296.456 27.8V30.2H300.408V31.448H296.456V35.576C296.456 37.1547 297.139 37.944 298.504 37.944C298.995 37.944 299.635 37.8 300.424 37.512ZM306.642 39.176C305.352 39.176 304.269 38.744 303.394 37.88C302.53 37.0053 302.098 35.912 302.098 34.6C302.098 33.288 302.53 32.2 303.394 31.336C304.269 30.4613 305.352 30.024 306.642 30.024C307.688 30.024 308.605 30.3173 309.394 30.904C310.184 31.4907 310.69 32.28 310.914 33.272H309.538C309.336 32.6533 308.973 32.1627 308.45 31.8C307.928 31.4373 307.325 31.256 306.642 31.256C305.714 31.256 304.946 31.5707 304.338 32.2C303.741 32.8293 303.442 33.6293 303.442 34.6C303.442 35.5707 303.741 36.3707 304.338 37C304.946 37.6293 305.714 37.944 306.642 37.944C307.325 37.944 307.922 37.7627 308.434 37.4C308.957 37.0373 309.325 36.5467 309.538 35.928H310.914C310.68 36.9307 310.168 37.7253 309.378 38.312C308.589 38.888 307.677 39.176 306.642 39.176ZM317.323 30.024C318.326 30.024 319.104 30.3227 319.659 30.92C320.224 31.5173 320.507 32.3493 320.507 33.416V39H319.179V33.672C319.179 32.0827 318.438 31.288 316.955 31.288C316.07 31.288 315.382 31.576 314.891 32.152C314.411 32.728 314.171 33.5067 314.171 34.488V39H312.843V26.68H314.171V31.912C314.822 30.6533 315.872 30.024 317.323 30.024ZM326.938 30.024C328.303 30.024 329.391 30.488 330.202 31.416C331.013 32.344 331.391 33.5387 331.338 35H323.802C323.866 35.9067 324.191 36.6213 324.778 37.144C325.365 37.6667 326.106 37.928 327.002 37.928C328.314 37.928 329.231 37.416 329.754 36.392H331.13C330.767 37.2987 330.218 37.992 329.482 38.472C328.746 38.9413 327.903 39.176 326.954 39.176C325.642 39.176 324.559 38.7547 323.706 37.912C322.863 37.0587 322.442 35.9653 322.442 34.632C322.442 33.2987 322.863 32.2 323.706 31.336C324.549 30.4613 325.626 30.024 326.938 30.024ZM326.938 31.272C326.149 31.272 325.477 31.5013 324.922 31.96C324.378 32.4187 324.026 33.016 323.866 33.752H329.898C329.749 33.0053 329.413 32.408 328.89 31.96C328.367 31.5013 327.717 31.272 326.938 31.272ZM340.494 26.68H341.822V39H340.494V37.224C340.153 37.832 339.689 38.312 339.102 38.664C338.516 39.0053 337.849 39.176 337.102 39.176C335.908 39.176 334.921 38.7493 334.142 37.896C333.374 37.032 332.99 35.9333 332.99 34.6C332.99 33.2667 333.374 32.1733 334.142 31.32C334.921 30.456 335.908 30.024 337.102 30.024C337.849 30.024 338.516 30.2 339.102 30.552C339.689 30.904 340.153 31.3893 340.494 32.008V26.68ZM337.358 37.912C338.265 37.912 339.017 37.6027 339.614 36.984C340.212 36.3547 340.51 35.56 340.51 34.6C340.51 33.64 340.212 32.8507 339.614 32.232C339.017 31.6027 338.265 31.288 337.358 31.288C336.473 31.288 335.748 31.6027 335.182 32.232C334.617 32.8507 334.334 33.64 334.334 34.6C334.334 35.5707 334.617 36.3653 335.182 36.984C335.748 37.6027 336.473 37.912 337.358 37.912ZM355.206 37.512L355.446 38.616C354.742 38.9893 353.947 39.176 353.062 39.176C352.091 39.176 351.323 38.872 350.758 38.264C350.192 37.6453 349.91 36.7707 349.91 35.64V31.448H348.214V30.2H349.91V28.088L351.238 27.8V30.2H355.19V31.448H351.238V35.576C351.238 37.1547 351.92 37.944 353.286 37.944C353.776 37.944 354.416 37.8 355.206 37.512ZM361.792 30.024C362.794 30.024 363.573 30.3227 364.128 30.92C364.693 31.5173 364.976 32.3493 364.976 33.416V39H363.648V33.672C363.648 32.0827 362.906 31.288 361.424 31.288C360.538 31.288 359.85 31.576 359.36 32.152C358.88 32.728 358.64 33.5067 358.64 34.488V39H357.312V26.68H358.64V31.912C359.29 30.6533 360.341 30.024 361.792 30.024ZM371.407 30.024C372.772 30.024 373.86 30.488 374.671 31.416C375.482 32.344 375.86 33.5387 375.807 35H368.271C368.335 35.9067 368.66 36.6213 369.247 37.144C369.834 37.6667 370.575 37.928 371.471 37.928C372.783 37.928 373.7 37.416 374.223 36.392H375.599C375.236 37.2987 374.687 37.992 373.951 38.472C373.215 38.9413 372.372 39.176 371.423 39.176C370.111 39.176 369.028 38.7547 368.175 37.912C367.332 37.0587 366.911 35.9653 366.911 34.632C366.911 33.2987 367.332 32.2 368.175 31.336C369.018 30.4613 370.095 30.024 371.407 30.024ZM371.407 31.272C370.618 31.272 369.946 31.5013 369.391 31.96C368.847 32.4187 368.495 33.016 368.335 33.752H374.367C374.218 33.0053 373.882 32.408 373.359 31.96C372.836 31.5013 372.186 31.272 371.407 31.272ZM386.688 30.024C388.053 30.024 389.141 30.488 389.952 31.416C390.763 32.344 391.141 33.5387 391.088 35H383.552C383.616 35.9067 383.941 36.6213 384.528 37.144C385.115 37.6667 385.856 37.928 386.752 37.928C388.064 37.928 388.981 37.416 389.504 36.392H390.88C390.517 37.2987 389.968 37.992 389.232 38.472C388.496 38.9413 387.653 39.176 386.704 39.176C385.392 39.176 384.309 38.7547 383.456 37.912C382.613 37.0587 382.192 35.9653 382.192 34.632C382.192 33.2987 382.613 32.2 383.456 31.336C384.299 30.4613 385.376 30.024 386.688 30.024ZM386.688 31.272C385.899 31.272 385.227 31.5013 384.672 31.96C384.128 32.4187 383.776 33.016 383.616 33.752H389.648C389.499 33.0053 389.163 32.408 388.64 31.96C388.117 31.5013 387.467 31.272 386.688 31.272ZM397.508 30.024C398.5 30.024 399.279 30.3227 399.844 30.92C400.41 31.5173 400.692 32.3493 400.692 33.416V39H399.364V33.672C399.364 32.0827 398.623 31.288 397.14 31.288C396.255 31.288 395.567 31.576 395.076 32.152C394.596 32.728 394.356 33.5067 394.356 34.488V39H393.028V30.2H394.356V31.944C394.996 30.664 396.047 30.024 397.508 30.024ZM409.002 37.512L409.242 38.616C408.538 38.9893 407.744 39.176 406.858 39.176C405.888 39.176 405.12 38.872 404.554 38.264C403.989 37.6453 403.706 36.7707 403.706 35.64V31.448H402.01V30.2H403.706V28.088L405.034 27.8V30.2H408.986V31.448H405.034V35.576C405.034 37.1547 405.717 37.944 407.082 37.944C407.573 37.944 408.213 37.8 409.002 37.512ZM411.028 26.584C411.21 26.4133 411.434 26.328 411.7 26.328C411.967 26.328 412.186 26.4133 412.356 26.584C412.538 26.7547 412.628 26.9627 412.628 27.208C412.628 27.464 412.538 27.6773 412.356 27.848C412.186 28.0187 411.967 28.104 411.7 28.104C411.434 28.104 411.21 28.0187 411.028 27.848C410.858 27.6773 410.772 27.464 410.772 27.208C410.772 26.9627 410.858 26.7547 411.028 26.584ZM411.028 39V30.2H412.356V39H411.028ZM419.18 30.024C419.372 30.024 419.553 30.0347 419.724 30.056V31.416C419.532 31.3947 419.345 31.384 419.164 31.384C418.215 31.384 417.457 31.688 416.892 32.296C416.327 32.8933 416.044 33.7413 416.044 34.84V39H414.716V30.2H416.044V32.168C416.62 30.7387 417.665 30.024 419.18 30.024ZM425.313 30.024C426.678 30.024 427.766 30.488 428.577 31.416C429.388 32.344 429.766 33.5387 429.713 35H422.177C422.241 35.9067 422.566 36.6213 423.153 37.144C423.74 37.6667 424.481 37.928 425.377 37.928C426.689 37.928 427.606 37.416 428.129 36.392H429.505C429.142 37.2987 428.593 37.992 427.857 38.472C427.121 38.9413 426.278 39.176 425.329 39.176C424.017 39.176 422.934 38.7547 422.081 37.912C421.238 37.0587 420.817 35.9653 420.817 34.632C420.817 33.2987 421.238 32.2 422.081 31.336C422.924 30.4613 424.001 30.024 425.313 30.024ZM425.313 31.272C424.524 31.272 423.852 31.5013 423.297 31.96C422.753 32.4187 422.401 33.016 422.241 33.752H428.273C428.124 33.0053 427.788 32.408 427.265 31.96C426.742 31.5013 426.092 31.272 425.313 31.272ZM442.53 30.2H443.954L440.642 39H438.994L435.682 30.2H437.106L439.81 37.672L442.53 30.2ZM445.56 26.584C445.741 26.4133 445.965 26.328 446.232 26.328C446.498 26.328 446.717 26.4133 446.888 26.584C447.069 26.7547 447.16 26.9627 447.16 27.208C447.16 27.464 447.069 27.6773 446.888 27.848C446.717 28.0187 446.498 28.104 446.232 28.104C445.965 28.104 445.741 28.0187 445.56 27.848C445.389 27.6773 445.304 27.464 445.304 27.208C445.304 26.9627 445.389 26.7547 445.56 26.584ZM445.56 39V30.2H446.888V39H445.56ZM456.463 26.68H457.791V39H456.463V37.224C456.122 37.832 455.658 38.312 455.071 38.664C454.485 39.0053 453.818 39.176 453.071 39.176C451.877 39.176 450.89 38.7493 450.111 37.896C449.343 37.032 448.959 35.9333 448.959 34.6C448.959 33.2667 449.343 32.1733 450.111 31.32C450.89 30.456 451.877 30.024 453.071 30.024C453.818 30.024 454.485 30.2 455.071 30.552C455.658 30.904 456.122 31.3893 456.463 32.008V26.68ZM453.327 37.912C454.234 37.912 454.986 37.6027 455.583 36.984C456.181 36.3547 456.479 35.56 456.479 34.6C456.479 33.64 456.181 32.8507 455.583 32.232C454.986 31.6027 454.234 31.288 453.327 31.288C452.442 31.288 451.717 31.6027 451.151 32.232C450.586 32.8507 450.303 33.64 450.303 34.6C450.303 35.5707 450.586 36.3653 451.151 36.984C451.717 37.6027 452.442 37.912 453.327 37.912ZM464.297 30.024C465.663 30.024 466.751 30.488 467.561 31.416C468.372 32.344 468.751 33.5387 468.697 35H461.161C461.225 35.9067 461.551 36.6213 462.137 37.144C462.724 37.6667 463.465 37.928 464.361 37.928C465.673 37.928 466.591 37.416 467.113 36.392H468.489C468.127 37.2987 467.577 37.992 466.841 38.472C466.105 38.9413 465.263 39.176 464.313 39.176C463.001 39.176 461.919 38.7547 461.065 37.912C460.223 37.0587 459.801 35.9653 459.801 34.632C459.801 33.2987 460.223 32.2 461.065 31.336C461.908 30.4613 462.985 30.024 464.297 30.024ZM464.297 31.272C463.508 31.272 462.836 31.5013 462.281 31.96C461.737 32.4187 461.385 33.016 461.225 33.752H467.257C467.108 33.0053 466.772 32.408 466.249 31.96C465.727 31.5013 465.076 31.272 464.297 31.272ZM474.814 30.024C476.083 30.024 477.155 30.4613 478.03 31.336C478.915 32.2 479.358 33.288 479.358 34.6C479.358 35.912 478.921 37.0053 478.046 37.88C477.171 38.744 476.094 39.176 474.814 39.176C473.545 39.176 472.473 38.7387 471.598 37.864C470.723 36.9893 470.286 35.9013 470.286 34.6C470.286 33.2987 470.723 32.2107 471.598 31.336C472.483 30.4613 473.555 30.024 474.814 30.024ZM477.086 32.232C476.467 31.6027 475.71 31.288 474.814 31.288C473.918 31.288 473.161 31.6027 472.542 32.232C471.934 32.8507 471.63 33.64 471.63 34.6C471.63 35.56 471.934 36.3547 472.542 36.984C473.161 37.6027 473.918 37.912 474.814 37.912C475.721 37.912 476.478 37.6027 477.086 36.984C477.705 36.3547 478.014 35.56 478.014 34.6C478.014 33.64 477.705 32.8507 477.086 32.232ZM493.305 30.2H494.633V39H493.305V37.224C492.953 37.832 492.484 38.312 491.897 38.664C491.321 39.0053 490.66 39.176 489.913 39.176C488.719 39.176 487.732 38.7493 486.953 37.896C486.185 37.032 485.801 35.9333 485.801 34.6C485.801 33.2667 486.185 32.1733 486.953 31.32C487.732 30.456 488.719 30.024 489.913 30.024C490.66 30.024 491.327 30.2 491.913 30.552C492.5 30.904 492.964 31.3893 493.305 32.008V30.2ZM490.169 37.912C491.076 37.912 491.828 37.6027 492.425 36.984C493.023 36.3547 493.321 35.56 493.321 34.6C493.321 33.64 493.023 32.8507 492.425 32.232C491.828 31.6027 491.076 31.288 490.169 31.288C489.273 31.288 488.543 31.6027 487.977 32.232C487.423 32.8507 487.145 33.64 487.145 34.6C487.145 35.5707 487.428 36.3653 487.993 36.984C488.559 37.6027 489.284 37.912 490.169 37.912ZM501.477 30.024C502.469 30.024 503.248 30.3227 503.813 30.92C504.379 31.5173 504.661 32.3493 504.661 33.416V39H503.333V33.672C503.333 32.0827 502.592 31.288 501.109 31.288C500.224 31.288 499.536 31.576 499.045 32.152C498.565 32.728 498.325 33.5067 498.325 34.488V39H496.997V30.2H498.325V31.944C498.965 30.664 500.016 30.024 501.477 30.024ZM514.151 26.68H515.479V39H514.151V37.224C513.809 37.832 513.345 38.312 512.759 38.664C512.172 39.0053 511.505 39.176 510.759 39.176C509.564 39.176 508.577 38.7493 507.799 37.896C507.031 37.032 506.647 35.9333 506.647 34.6C506.647 33.2667 507.031 32.1733 507.799 31.32C508.577 30.456 509.564 30.024 510.759 30.024C511.505 30.024 512.172 30.2 512.759 30.552C513.345 30.904 513.809 31.3893 514.151 32.008V26.68ZM511.015 37.912C511.921 37.912 512.673 37.6027 513.271 36.984C513.868 36.3547 514.167 35.56 514.167 34.6C514.167 33.64 513.868 32.8507 513.271 32.232C512.673 31.6027 511.921 31.288 511.015 31.288C510.129 31.288 509.404 31.6027 508.839 32.232C508.273 32.8507 507.991 33.64 507.991 34.6C507.991 35.5707 508.273 36.3653 508.839 36.984C509.404 37.6027 510.129 37.912 511.015 37.912ZM528.814 30.2H530.142V39H528.814V37.256C528.153 38.536 527.107 39.176 525.678 39.176C524.697 39.176 523.929 38.8773 523.374 38.28C522.83 37.6827 522.558 36.8507 522.558 35.784V30.2H523.886V35.528C523.886 37.1173 524.611 37.912 526.062 37.912C526.926 37.912 527.598 37.624 528.078 37.048C528.569 36.472 528.814 35.6933 528.814 34.712V30.2ZM536.946 30.024C537.938 30.024 538.717 30.3227 539.282 30.92C539.847 31.5173 540.13 32.3493 540.13 33.416V39H538.802V33.672C538.802 32.0827 538.061 31.288 536.578 31.288C535.693 31.288 535.005 31.576 534.514 32.152C534.034 32.728 533.794 33.5067 533.794 34.488V39H532.466V30.2H533.794V31.944C534.434 30.664 535.485 30.024 536.946 30.024ZM549.619 26.68H550.947V39H549.619V37.224C549.278 37.832 548.814 38.312 548.227 38.664C547.641 39.0053 546.974 39.176 546.227 39.176C545.033 39.176 544.046 38.7493 543.267 37.896C542.499 37.032 542.115 35.9333 542.115 34.6C542.115 33.2667 542.499 32.1733 543.267 31.32C544.046 30.456 545.033 30.024 546.227 30.024C546.974 30.024 547.641 30.2 548.227 30.552C548.814 30.904 549.278 31.3893 549.619 32.008V26.68ZM546.483 37.912C547.39 37.912 548.142 37.6027 548.739 36.984C549.337 36.3547 549.635 35.56 549.635 34.6C549.635 33.64 549.337 32.8507 548.739 32.232C548.142 31.6027 547.39 31.288 546.483 31.288C545.598 31.288 544.873 31.6027 544.307 32.232C543.742 32.8507 543.459 33.64 543.459 34.6C543.459 35.5707 543.742 36.3653 544.307 36.984C544.873 37.6027 545.598 37.912 546.483 37.912ZM557.454 30.024C558.819 30.024 559.907 30.488 560.718 31.416C561.528 32.344 561.907 33.5387 561.854 35H554.318C554.382 35.9067 554.707 36.6213 555.294 37.144C555.88 37.6667 556.622 37.928 557.518 37.928C558.83 37.928 559.747 37.416 560.27 36.392H561.646C561.283 37.2987 560.734 37.992 559.998 38.472C559.262 38.9413 558.419 39.176 557.47 39.176C556.158 39.176 555.075 38.7547 554.222 37.912C553.379 37.0587 552.958 35.9653 552.958 34.632C552.958 33.2987 553.379 32.2 554.222 31.336C555.064 30.4613 556.142 30.024 557.454 30.024ZM557.454 31.272C556.664 31.272 555.992 31.5013 555.438 31.96C554.894 32.4187 554.542 33.016 554.382 33.752H560.414C560.264 33.0053 559.928 32.408 559.406 31.96C558.883 31.5013 558.232 31.272 557.454 31.272ZM568.258 30.024C568.45 30.024 568.631 30.0347 568.802 30.056V31.416C568.61 31.3947 568.423 31.384 568.242 31.384C567.293 31.384 566.535 31.688 565.97 32.296C565.405 32.8933 565.122 33.7413 565.122 34.84V39H563.794V30.2H565.122V32.168C565.698 30.7387 566.743 30.024 568.258 30.024ZM574.131 39.176C572.979 39.176 572.025 38.92 571.267 38.408C570.51 37.896 570.046 37.176 569.875 36.248H571.235C571.406 36.8453 571.721 37.272 572.179 37.528C572.649 37.784 573.299 37.912 574.131 37.912C574.803 37.912 575.347 37.8 575.763 37.576C576.19 37.3413 576.403 37.016 576.403 36.6C576.403 36.344 576.297 36.1307 576.083 35.96C575.87 35.7787 575.641 35.6507 575.395 35.576C575.15 35.5013 574.729 35.3893 574.131 35.24C573.993 35.208 573.886 35.1813 573.811 35.16C572.489 34.8293 571.577 34.504 571.075 34.184C570.574 33.864 570.323 33.3627 570.323 32.68C570.323 31.848 570.649 31.1973 571.299 30.728C571.961 30.2587 572.825 30.024 573.891 30.024C574.915 30.024 575.747 30.248 576.387 30.696C577.038 31.1333 577.454 31.752 577.635 32.552H576.291C575.971 31.7093 575.182 31.288 573.923 31.288C573.23 31.288 572.681 31.4107 572.275 31.656C571.87 31.8907 571.667 32.2 571.667 32.584C571.667 32.9147 571.833 33.16 572.163 33.32C572.494 33.4693 573.155 33.672 574.147 33.928C574.617 34.0453 574.969 34.136 575.203 34.2C575.449 34.264 575.737 34.3547 576.067 34.472C576.409 34.5893 576.659 34.7013 576.819 34.808C576.979 34.9147 577.145 35.0533 577.315 35.224C577.486 35.384 577.603 35.5707 577.667 35.784C577.731 35.9867 577.763 36.2213 577.763 36.488C577.763 37.352 577.417 38.0187 576.723 38.488C576.041 38.9467 575.177 39.176 574.131 39.176ZM585.831 37.512L586.071 38.616C585.367 38.9893 584.572 39.176 583.687 39.176C582.716 39.176 581.948 38.872 581.383 38.264C580.817 37.6453 580.535 36.7707 580.535 35.64V31.448H578.839V30.2H580.535V28.088L581.863 27.8V30.2H585.815V31.448H581.863V35.576C581.863 37.1547 582.545 37.944 583.911 37.944C584.401 37.944 585.041 37.8 585.831 37.512ZM591.642 30.024C592.911 30.024 593.983 30.4613 594.858 31.336C595.743 32.2 596.186 33.288 596.186 34.6C596.186 35.912 595.749 37.0053 594.874 37.88C593.999 38.744 592.922 39.176 591.642 39.176C590.373 39.176 589.301 38.7387 588.426 37.864C587.551 36.9893 587.114 35.9013 587.114 34.6C587.114 33.2987 587.551 32.2107 588.426 31.336C589.311 30.4613 590.383 30.024 591.642 30.024ZM593.914 32.232C593.295 31.6027 592.538 31.288 591.642 31.288C590.746 31.288 589.989 31.6027 589.37 32.232C588.762 32.8507 588.458 33.64 588.458 34.6C588.458 35.56 588.762 36.3547 589.37 36.984C589.989 37.6027 590.746 37.912 591.642 37.912C592.549 37.912 593.306 37.6027 593.914 36.984C594.533 36.3547 594.842 35.56 594.842 34.6C594.842 33.64 594.533 32.8507 593.914 32.232ZM602.361 30.024C603.63 30.024 604.702 30.4613 605.577 31.336C606.462 32.2 606.905 33.288 606.905 34.6C606.905 35.912 606.467 37.0053 605.593 37.88C604.718 38.744 603.641 39.176 602.361 39.176C601.091 39.176 600.019 38.7387 599.145 37.864C598.27 36.9893 597.833 35.9013 597.833 34.6C597.833 33.2987 598.27 32.2107 599.145 31.336C600.03 30.4613 601.102 30.024 602.361 30.024ZM604.633 32.232C604.014 31.6027 603.257 31.288 602.361 31.288C601.465 31.288 600.707 31.6027 600.089 32.232C599.481 32.8507 599.177 33.64 599.177 34.6C599.177 35.56 599.481 36.3547 600.089 36.984C600.707 37.6027 601.465 37.912 602.361 37.912C603.267 37.912 604.025 37.6027 604.633 36.984C605.251 36.3547 605.561 35.56 605.561 34.6C605.561 33.64 605.251 32.8507 604.633 32.232ZM616.119 26.68H617.447V39H616.119V37.224C615.778 37.832 615.314 38.312 614.727 38.664C614.141 39.0053 613.474 39.176 612.727 39.176C611.533 39.176 610.546 38.7493 609.767 37.896C608.999 37.032 608.615 35.9333 608.615 34.6C608.615 33.2667 608.999 32.1733 609.767 31.32C610.546 30.456 611.533 30.024 612.727 30.024C613.474 30.024 614.141 30.2 614.727 30.552C615.314 30.904 615.778 31.3893 616.119 32.008V26.68ZM612.983 37.912C613.89 37.912 614.642 37.6027 615.239 36.984C615.837 36.3547 616.135 35.56 616.135 34.6C616.135 33.64 615.837 32.8507 615.239 32.232C614.642 31.6027 613.89 31.288 612.983 31.288C612.098 31.288 611.373 31.6027 610.807 32.232C610.242 32.8507 609.959 33.64 609.959 34.6C609.959 35.5707 610.242 36.3653 610.807 36.984C611.373 37.6027 612.098 37.912 612.983 37.912ZM630.831 37.512L631.071 38.616C630.367 38.9893 629.572 39.176 628.687 39.176C627.716 39.176 626.948 38.872 626.383 38.264C625.817 37.6453 625.535 36.7707 625.535 35.64V31.448H623.839V30.2H625.535V28.088L626.863 27.8V30.2H630.815V31.448H626.863V35.576C626.863 37.1547 627.545 37.944 628.911 37.944C629.401 37.944 630.041 37.8 630.831 37.512ZM637.417 30.024C638.419 30.024 639.198 30.3227 639.753 30.92C640.318 31.5173 640.601 32.3493 640.601 33.416V39H639.273V33.672C639.273 32.0827 638.531 31.288 637.049 31.288C636.163 31.288 635.475 31.576 634.985 32.152C634.505 32.728 634.265 33.5067 634.265 34.488V39H632.937V26.68H634.265V31.912C634.915 30.6533 635.966 30.024 637.417 30.024ZM647.032 30.024C648.397 30.024 649.485 30.488 650.296 31.416C651.107 32.344 651.485 33.5387 651.432 35H643.896C643.96 35.9067 644.285 36.6213 644.872 37.144C645.459 37.6667 646.2 37.928 647.096 37.928C648.408 37.928 649.325 37.416 649.848 36.392H651.224C650.861 37.2987 650.312 37.992 649.576 38.472C648.84 38.9413 647.997 39.176 647.048 39.176C645.736 39.176 644.653 38.7547 643.8 37.912C642.957 37.0587 642.536 35.9653 642.536 34.632C642.536 33.2987 642.957 32.2 643.8 31.336C644.643 30.4613 645.72 30.024 647.032 30.024ZM647.032 31.272C646.243 31.272 645.571 31.5013 645.016 31.96C644.472 32.4187 644.12 33.016 643.96 33.752H649.992C649.843 33.0053 649.507 32.408 648.984 31.96C648.461 31.5013 647.811 31.272 647.032 31.272ZM664.345 30.2H665.673V39H664.345V37.256C663.684 38.536 662.638 39.176 661.209 39.176C660.228 39.176 659.46 38.8773 658.905 38.28C658.361 37.6827 658.089 36.8507 658.089 35.784V30.2H659.417V35.528C659.417 37.1173 660.142 37.912 661.593 37.912C662.457 37.912 663.129 37.624 663.609 37.048C664.1 36.472 664.345 35.6933 664.345 34.712V30.2ZM671.725 39.176C670.573 39.176 669.619 38.92 668.861 38.408C668.104 37.896 667.64 37.176 667.469 36.248H668.829C669 36.8453 669.315 37.272 669.773 37.528C670.243 37.784 670.893 37.912 671.725 37.912C672.397 37.912 672.941 37.8 673.357 37.576C673.784 37.3413 673.997 37.016 673.997 36.6C673.997 36.344 673.891 36.1307 673.677 35.96C673.464 35.7787 673.235 35.6507 672.989 35.576C672.744 35.5013 672.323 35.3893 671.725 35.24C671.587 35.208 671.48 35.1813 671.405 35.16C670.083 34.8293 669.171 34.504 668.669 34.184C668.168 33.864 667.917 33.3627 667.917 32.68C667.917 31.848 668.243 31.1973 668.893 30.728C669.555 30.2587 670.419 30.024 671.485 30.024C672.509 30.024 673.341 30.248 673.981 30.696C674.632 31.1333 675.048 31.752 675.229 32.552H673.885C673.565 31.7093 672.776 31.288 671.517 31.288C670.824 31.288 670.275 31.4107 669.869 31.656C669.464 31.8907 669.261 32.2 669.261 32.584C669.261 32.9147 669.427 33.16 669.757 33.32C670.088 33.4693 670.749 33.672 671.741 33.928C672.211 34.0453 672.563 34.136 672.797 34.2C673.043 34.264 673.331 34.3547 673.661 34.472C674.003 34.5893 674.253 34.7013 674.413 34.808C674.573 34.9147 674.739 35.0533 674.909 35.224C675.08 35.384 675.197 35.5707 675.261 35.784C675.325 35.9867 675.357 36.2213 675.357 36.488C675.357 37.352 675.011 38.0187 674.317 38.488C673.635 38.9467 672.771 39.176 671.725 39.176ZM681.344 30.024C682.71 30.024 683.798 30.488 684.608 31.416C685.419 32.344 685.798 33.5387 685.744 35H678.208C678.272 35.9067 678.598 36.6213 679.184 37.144C679.771 37.6667 680.512 37.928 681.408 37.928C682.72 37.928 683.638 37.416 684.16 36.392H685.536C685.174 37.2987 684.624 37.992 683.888 38.472C683.152 38.9413 682.31 39.176 681.36 39.176C680.048 39.176 678.966 38.7547 678.112 37.912C677.27 37.0587 676.848 35.9653 676.848 34.632C676.848 33.2987 677.27 32.2 678.112 31.336C678.955 30.4613 680.032 30.024 681.344 30.024ZM681.344 31.272C680.555 31.272 679.883 31.5013 679.328 31.96C678.784 32.4187 678.432 33.016 678.272 33.752H684.304C684.155 33.0053 683.819 32.408 683.296 31.96C682.774 31.5013 682.123 31.272 681.344 31.272ZM692.149 30.024C692.341 30.024 692.522 30.0347 692.693 30.056V31.416C692.501 31.3947 692.314 31.384 692.133 31.384C691.183 31.384 690.426 31.688 689.861 32.296C689.295 32.8933 689.013 33.7413 689.013 34.84V39H687.685V30.2H689.013V32.168C689.589 30.7387 690.634 30.024 692.149 30.024ZM703.443 27.688C702.046 27.688 701.347 28.5093 701.347 30.152V30.2H704.915V31.448H701.347V39H700.019V31.448H698.323V30.2H700.019V30.088C700.019 28.9573 700.318 28.0773 700.915 27.448C701.512 26.8187 702.307 26.504 703.299 26.504C704.003 26.504 704.632 26.6267 705.187 26.872L704.947 27.976L704.723 27.912C704.318 27.7627 703.891 27.688 703.443 27.688ZM706.764 39V26.68H708.092V39H706.764ZM714.595 30.024C715.864 30.024 716.936 30.4613 717.811 31.336C718.696 32.2 719.139 33.288 719.139 34.6C719.139 35.912 718.702 37.0053 717.827 37.88C716.952 38.744 715.875 39.176 714.595 39.176C713.326 39.176 712.254 38.7387 711.379 37.864C710.504 36.9893 710.067 35.9013 710.067 34.6C710.067 33.2987 710.504 32.2107 711.379 31.336C712.264 30.4613 713.336 30.024 714.595 30.024ZM716.867 32.232C716.248 31.6027 715.491 31.288 714.595 31.288C713.699 31.288 712.942 31.6027 712.323 32.232C711.715 32.8507 711.411 33.64 711.411 34.6C711.411 35.56 711.715 36.3547 712.323 36.984C712.942 37.6027 713.699 37.912 714.595 37.912C715.502 37.912 716.259 37.6027 716.867 36.984C717.486 36.3547 717.795 35.56 717.795 34.6C717.795 33.64 717.486 32.8507 716.867 32.232ZM731.291 30.2H732.619L730.027 39H728.427L727.563 36.04L726.427 31.576H726.187L725.051 36.04L724.171 39H722.571L719.979 30.2H721.307L722.123 32.968L723.403 37.624L724.667 32.968L725.483 30.2H727.115L727.931 32.968L729.195 37.608L730.475 32.968L731.291 30.2ZM743.189 30.024C744.458 30.024 745.53 30.4613 746.405 31.336C747.29 32.2 747.733 33.288 747.733 34.6C747.733 35.912 747.296 37.0053 746.421 37.88C745.546 38.744 744.469 39.176 743.189 39.176C741.92 39.176 740.848 38.7387 739.973 37.864C739.098 36.9893 738.661 35.9013 738.661 34.6C738.661 33.2987 739.098 32.2107 739.973 31.336C740.858 30.4613 741.93 30.024 743.189 30.024ZM745.461 32.232C744.842 31.6027 744.085 31.288 743.189 31.288C742.293 31.288 741.536 31.6027 740.917 32.232C740.309 32.8507 740.005 33.64 740.005 34.6C740.005 35.56 740.309 36.3547 740.917 36.984C741.536 37.6027 742.293 37.912 743.189 37.912C744.096 37.912 744.853 37.6027 745.461 36.984C746.08 36.3547 746.389 35.56 746.389 34.6C746.389 33.64 746.08 32.8507 745.461 32.232ZM754.084 27.688C752.686 27.688 751.988 28.5093 751.988 30.152V30.2H755.556V31.448H751.988V39H750.66V31.448H748.964V30.2H750.66V30.088C750.66 28.9573 750.958 28.0773 751.556 27.448C752.153 26.8187 752.948 26.504 753.94 26.504C754.644 26.504 755.273 26.6267 755.828 26.872L755.588 27.976L755.364 27.912C754.958 27.7627 754.532 27.688 754.084 27.688ZM768.377 37.512L768.617 38.616C767.913 38.9893 767.119 39.176 766.233 39.176C765.263 39.176 764.495 38.872 763.929 38.264C763.364 37.6453 763.081 36.7707 763.081 35.64V31.448H761.385V30.2H763.081V28.088L764.409 27.8V30.2H768.361V31.448H764.409V35.576C764.409 37.1547 765.092 37.944 766.457 37.944C766.948 37.944 767.588 37.8 768.377 37.512ZM774.963 30.024C775.966 30.024 776.745 30.3227 777.299 30.92C777.865 31.5173 778.147 32.3493 778.147 33.416V39H776.819V33.672C776.819 32.0827 776.078 31.288 774.595 31.288C773.71 31.288 773.022 31.576 772.531 32.152C772.051 32.728 771.811 33.5067 771.811 34.488V39H770.483V26.68H771.811V31.912C772.462 30.6533 773.513 30.024 774.963 30.024ZM784.579 30.024C785.944 30.024 787.032 30.488 787.843 31.416C788.653 32.344 789.032 33.5387 788.979 35H781.443C781.507 35.9067 781.832 36.6213 782.419 37.144C783.005 37.6667 783.747 37.928 784.643 37.928C785.955 37.928 786.872 37.416 787.395 36.392H788.771C788.408 37.2987 787.859 37.992 787.123 38.472C786.387 38.9413 785.544 39.176 784.595 39.176C783.283 39.176 782.2 38.7547 781.347 37.912C780.504 37.0587 780.083 35.9653 780.083 34.632C780.083 33.2987 780.504 32.2 781.347 31.336C782.189 30.4613 783.267 30.024 784.579 30.024ZM784.579 31.272C783.789 31.272 783.117 31.5013 782.563 31.96C782.019 32.4187 781.667 33.016 781.507 33.752H787.539C787.389 33.0053 787.053 32.408 786.531 31.96C786.008 31.5013 785.357 31.272 784.579 31.272ZM802.868 30.2H804.196V39H802.868V37.224C802.516 37.832 802.047 38.312 801.46 38.664C800.884 39.0053 800.223 39.176 799.476 39.176C798.281 39.176 797.295 38.7493 796.516 37.896C795.748 37.032 795.364 35.9333 795.364 34.6C795.364 33.2667 795.748 32.1733 796.516 31.32C797.295 30.456 798.281 30.024 799.476 30.024C800.223 30.024 800.889 30.2 801.476 30.552C802.063 30.904 802.527 31.3893 802.868 32.008V30.2ZM799.732 37.912C800.639 37.912 801.391 37.6027 801.988 36.984C802.585 36.3547 802.884 35.56 802.884 34.6C802.884 33.64 802.585 32.8507 801.988 32.232C801.391 31.6027 800.639 31.288 799.732 31.288C798.836 31.288 798.105 31.6027 797.54 32.232C796.985 32.8507 796.708 33.64 796.708 34.6C796.708 35.5707 796.991 36.3653 797.556 36.984C798.121 37.6027 798.847 37.912 799.732 37.912ZM811.36 30.024C812.554 30.024 813.536 30.456 814.304 31.32C815.082 32.1733 815.472 33.2667 815.472 34.6C815.472 35.9333 815.082 37.032 814.304 37.896C813.525 38.7493 812.538 39.176 811.344 39.176C810.597 39.176 809.93 39.0053 809.344 38.664C808.768 38.312 808.309 37.832 807.968 37.224V43H806.64V30.2H807.968V32.008C808.309 31.3893 808.773 30.904 809.36 30.552C809.946 30.2 810.613 30.024 811.36 30.024ZM811.104 37.912C811.989 37.912 812.714 37.6027 813.28 36.984C813.845 36.3653 814.128 35.5707 814.128 34.6C814.128 33.64 813.845 32.8507 813.28 32.232C812.714 31.6027 811.989 31.288 811.104 31.288C810.197 31.288 809.445 31.6027 808.848 32.232C808.25 32.8507 807.952 33.64 807.952 34.6C807.952 35.56 808.25 36.3547 808.848 36.984C809.445 37.6027 810.197 37.912 811.104 37.912ZM822.282 30.024C823.476 30.024 824.458 30.456 825.226 31.32C826.004 32.1733 826.394 33.2667 826.394 34.6C826.394 35.9333 826.004 37.032 825.226 37.896C824.447 38.7493 823.46 39.176 822.266 39.176C821.519 39.176 820.852 39.0053 820.266 38.664C819.69 38.312 819.231 37.832 818.89 37.224V43H817.562V30.2H818.89V32.008C819.231 31.3893 819.695 30.904 820.282 30.552C820.868 30.2 821.535 30.024 822.282 30.024ZM822.026 37.912C822.911 37.912 823.636 37.6027 824.202 36.984C824.767 36.3653 825.05 35.5707 825.05 34.6C825.05 33.64 824.767 32.8507 824.202 32.232C823.636 31.6027 822.911 31.288 822.026 31.288C821.119 31.288 820.367 31.6027 819.77 32.232C819.172 32.8507 818.874 33.64 818.874 34.6C818.874 35.56 819.172 36.3547 819.77 36.984C820.367 37.6027 821.119 37.912 822.026 37.912ZM828.451 39V26.68H829.779V39H828.451ZM832.107 26.584C832.288 26.4133 832.512 26.328 832.779 26.328C833.045 26.328 833.264 26.4133 833.435 26.584C833.616 26.7547 833.707 26.9627 833.707 27.208C833.707 27.464 833.616 27.6773 833.435 27.848C833.264 28.0187 833.045 28.104 832.779 28.104C832.512 28.104 832.288 28.0187 832.107 27.848C831.936 27.6773 831.851 27.464 831.851 27.208C831.851 26.9627 831.936 26.7547 832.107 26.584ZM832.107 39V30.2H833.435V39H832.107ZM839.986 39.176C838.695 39.176 837.613 38.744 836.738 37.88C835.874 37.0053 835.442 35.912 835.442 34.6C835.442 33.288 835.874 32.2 836.738 31.336C837.613 30.4613 838.695 30.024 839.986 30.024C841.031 30.024 841.949 30.3173 842.738 30.904C843.527 31.4907 844.034 32.28 844.258 33.272H842.882C842.679 32.6533 842.317 32.1627 841.794 31.8C841.271 31.4373 840.669 31.256 839.986 31.256C839.058 31.256 838.29 31.5707 837.682 32.2C837.085 32.8293 836.786 33.6293 836.786 34.6C836.786 35.5707 837.085 36.3707 837.682 37C838.29 37.6293 839.058 37.944 839.986 37.944C840.669 37.944 841.266 37.7627 841.778 37.4C842.301 37.0373 842.669 36.5467 842.882 35.928H844.258C844.023 36.9307 843.511 37.7253 842.722 38.312C841.933 38.888 841.021 39.176 839.986 39.176ZM853.259 30.2H854.587V39H853.259V37.224C852.907 37.832 852.437 38.312 851.851 38.664C851.275 39.0053 850.613 39.176 849.867 39.176C848.672 39.176 847.685 38.7493 846.907 37.896C846.139 37.032 845.755 35.9333 845.755 34.6C845.755 33.2667 846.139 32.1733 846.907 31.32C847.685 30.456 848.672 30.024 849.867 30.024C850.613 30.024 851.28 30.2 851.867 30.552C852.453 30.904 852.917 31.3893 853.259 32.008V30.2ZM850.123 37.912C851.029 37.912 851.781 37.6027 852.379 36.984C852.976 36.3547 853.275 35.56 853.275 34.6C853.275 33.64 852.976 32.8507 852.379 32.232C851.781 31.6027 851.029 31.288 850.123 31.288C849.227 31.288 848.496 31.6027 847.931 32.232C847.376 32.8507 847.099 33.64 847.099 34.6C847.099 35.5707 847.381 36.3653 847.947 36.984C848.512 37.6027 849.237 37.912 850.123 37.912ZM863.174 37.512L863.414 38.616C862.71 38.9893 861.916 39.176 861.03 39.176C860.06 39.176 859.292 38.872 858.726 38.264C858.161 37.6453 857.878 36.7707 857.878 35.64V31.448H856.182V30.2H857.878V28.088L859.206 27.8V30.2H863.158V31.448H859.206V35.576C859.206 37.1547 859.889 37.944 861.254 37.944C861.745 37.944 862.385 37.8 863.174 37.512ZM865.2 26.584C865.382 26.4133 865.606 26.328 865.872 26.328C866.139 26.328 866.358 26.4133 866.528 26.584C866.71 26.7547 866.8 26.9627 866.8 27.208C866.8 27.464 866.71 27.6773 866.528 27.848C866.358 28.0187 866.139 28.104 865.872 28.104C865.606 28.104 865.382 28.0187 865.2 27.848C865.03 27.6773 864.944 27.464 864.944 27.208C864.944 26.9627 865.03 26.7547 865.2 26.584ZM865.2 39V30.2H866.528V39H865.2ZM873.064 30.024C874.333 30.024 875.405 30.4613 876.28 31.336C877.165 32.2 877.608 33.288 877.608 34.6C877.608 35.912 877.171 37.0053 876.296 37.88C875.421 38.744 874.344 39.176 873.064 39.176C871.795 39.176 870.723 38.7387 869.848 37.864C868.973 36.9893 868.536 35.9013 868.536 34.6C868.536 33.2987 868.973 32.2107 869.848 31.336C870.733 30.4613 871.805 30.024 873.064 30.024ZM875.336 32.232C874.717 31.6027 873.96 31.288 873.064 31.288C872.168 31.288 871.411 31.6027 870.792 32.232C870.184 32.8507 869.88 33.64 869.88 34.6C869.88 35.56 870.184 36.3547 870.792 36.984C871.411 37.6027 872.168 37.912 873.064 37.912C873.971 37.912 874.728 37.6027 875.336 36.984C875.955 36.3547 876.264 35.56 876.264 34.6C876.264 33.64 875.955 32.8507 875.336 32.232ZM884.087 30.024C885.079 30.024 885.857 30.3227 886.423 30.92C886.988 31.5173 887.271 32.3493 887.271 33.416V39H885.943V33.672C885.943 32.0827 885.201 31.288 883.719 31.288C882.833 31.288 882.145 31.576 881.655 32.152C881.175 32.728 880.935 33.5067 880.935 34.488V39H879.607V30.2H880.935V31.944C881.575 30.664 882.625 30.024 884.087 30.024ZM892.04 38.328C892.061 38.648 891.619 39.7893 890.712 41.752H889.768L890.824 39.144C890.397 39.0373 890.184 38.7547 890.184 38.296C890.184 38.0293 890.269 37.8107 890.44 37.64C890.621 37.4693 890.845 37.384 891.112 37.384C891.347 37.384 891.555 37.4587 891.736 37.608C891.928 37.7573 892.029 37.9973 892.04 38.328ZM899.659 39V27.8H900.987V39H899.659ZM913.092 30.024C914.287 30.024 915.268 30.456 916.036 31.32C916.815 32.1733 917.204 33.2667 917.204 34.6C917.204 35.9333 916.815 37.032 916.036 37.896C915.258 38.7493 914.271 39.176 913.076 39.176C912.33 39.176 911.663 39.0053 911.076 38.664C910.5 38.312 910.042 37.832 909.7 37.224V39H908.372V26.68H909.7V32.008C910.042 31.3893 910.506 30.904 911.092 30.552C911.679 30.2 912.346 30.024 913.092 30.024ZM912.836 37.912C913.722 37.912 914.447 37.6027 915.012 36.984C915.578 36.3653 915.86 35.5707 915.86 34.6C915.86 33.64 915.578 32.8507 915.012 32.232C914.447 31.6027 913.722 31.288 912.836 31.288C911.93 31.288 911.178 31.6027 910.58 32.232C909.983 32.8507 909.684 33.64 909.684 34.6C909.684 35.56 909.983 36.3547 910.58 36.984C911.178 37.6027 911.93 37.912 912.836 37.912ZM923.36 30.024C924.725 30.024 925.813 30.488 926.624 31.416C927.435 32.344 927.813 33.5387 927.76 35H920.224C920.288 35.9067 920.613 36.6213 921.2 37.144C921.787 37.6667 922.528 37.928 923.424 37.928C924.736 37.928 925.653 37.416 926.176 36.392H927.552C927.189 37.2987 926.64 37.992 925.904 38.472C925.168 38.9413 924.325 39.176 923.376 39.176C922.064 39.176 920.981 38.7547 920.128 37.912C919.285 37.0587 918.864 35.9653 918.864 34.632C918.864 33.2987 919.285 32.2 920.128 31.336C920.971 30.4613 922.048 30.024 923.36 30.024ZM923.36 31.272C922.571 31.272 921.899 31.5013 921.344 31.96C920.8 32.4187 920.448 33.016 920.288 33.752H926.32C926.171 33.0053 925.835 32.408 925.312 31.96C924.789 31.5013 924.139 31.272 923.36 31.272ZM936.852 30.2H938.18V38.904C938.18 40.216 937.807 41.256 937.06 42.024C936.314 42.792 935.295 43.176 934.004 43.176C932.927 43.176 931.994 42.8987 931.204 42.344C930.415 41.7893 929.914 41.0107 929.7 40.008H931.076C931.258 40.6373 931.604 41.1227 932.116 41.464C932.639 41.816 933.258 41.992 933.972 41.992C934.89 41.992 935.599 41.7253 936.1 41.192C936.602 40.6693 936.852 39.9173 936.852 38.936V37.16C936.5 37.768 936.031 38.248 935.444 38.6C934.858 38.9413 934.196 39.112 933.46 39.112C932.266 39.112 931.279 38.6853 930.5 37.832C929.732 36.968 929.348 35.88 929.348 34.568C929.348 33.2453 929.732 32.1573 930.5 31.304C931.279 30.4507 932.266 30.024 933.46 30.024C934.186 30.024 934.847 30.2 935.444 30.552C936.042 30.904 936.511 31.384 936.852 31.992V30.2ZM933.716 37.848C934.612 37.848 935.359 37.5387 935.956 36.92C936.564 36.3013 936.868 35.5173 936.868 34.568C936.868 33.6187 936.564 32.8347 935.956 32.216C935.359 31.5973 934.612 31.288 933.716 31.288C932.831 31.288 932.106 31.5973 931.54 32.216C930.975 32.8347 930.692 33.6187 930.692 34.568C930.692 35.5173 930.975 36.3013 931.54 36.92C932.106 37.5387 932.831 37.848 933.716 37.848ZM947.696 30.2H949.024V39H947.696V37.224C947.344 37.832 946.875 38.312 946.288 38.664C945.712 39.0053 945.051 39.176 944.304 39.176C943.109 39.176 942.123 38.7493 941.344 37.896C940.576 37.032 940.192 35.9333 940.192 34.6C940.192 33.2667 940.576 32.1733 941.344 31.32C942.123 30.456 943.109 30.024 944.304 30.024C945.051 30.024 945.717 30.2 946.304 30.552C946.891 30.904 947.355 31.3893 947.696 32.008V30.2ZM944.56 37.912C945.467 37.912 946.219 37.6027 946.816 36.984C947.413 36.3547 947.712 35.56 947.712 34.6C947.712 33.64 947.413 32.8507 946.816 32.232C946.219 31.6027 945.467 31.288 944.56 31.288C943.664 31.288 942.933 31.6027 942.368 32.232C941.813 32.8507 941.536 33.64 941.536 34.6C941.536 35.5707 941.819 36.3653 942.384 36.984C942.949 37.6027 943.675 37.912 944.56 37.912ZM955.868 30.024C956.86 30.024 957.639 30.3227 958.204 30.92C958.769 31.5173 959.052 32.3493 959.052 33.416V39H957.724V33.672C957.724 32.0827 956.983 31.288 955.5 31.288C954.615 31.288 953.927 31.576 953.436 32.152C952.956 32.728 952.716 33.5067 952.716 34.488V39H951.388V30.2H952.716V31.944C953.356 30.664 954.407 30.024 955.868 30.024ZM973.338 26.68H974.666V39H973.338V37.224C972.997 37.832 972.533 38.312 971.946 38.664C971.36 39.0053 970.693 39.176 969.946 39.176C968.752 39.176 967.765 38.7493 966.986 37.896C966.218 37.032 965.834 35.9333 965.834 34.6C965.834 33.2667 966.218 32.1733 966.986 31.32C967.765 30.456 968.752 30.024 969.946 30.024C970.693 30.024 971.36 30.2 971.946 30.552C972.533 30.904 972.997 31.3893 973.338 32.008V26.68ZM970.202 37.912C971.109 37.912 971.861 37.6027 972.458 36.984C973.056 36.3547 973.354 35.56 973.354 34.6C973.354 33.64 973.056 32.8507 972.458 32.232C971.861 31.6027 971.109 31.288 970.202 31.288C969.317 31.288 968.592 31.6027 968.026 32.232C967.461 32.8507 967.178 33.64 967.178 34.6C967.178 35.5707 967.461 36.3653 968.026 36.984C968.592 37.6027 969.317 37.912 970.202 37.912ZM981.172 30.024C982.538 30.024 983.626 30.488 984.436 31.416C985.247 32.344 985.626 33.5387 985.572 35H978.036C978.1 35.9067 978.426 36.6213 979.012 37.144C979.599 37.6667 980.34 37.928 981.236 37.928C982.548 37.928 983.466 37.416 983.988 36.392H985.364C985.002 37.2987 984.452 37.992 983.716 38.472C982.98 38.9413 982.138 39.176 981.188 39.176C979.876 39.176 978.794 38.7547 977.94 37.912C977.098 37.0587 976.676 35.9653 976.676 34.632C976.676 33.2987 977.098 32.2 977.94 31.336C978.783 30.4613 979.86 30.024 981.172 30.024ZM981.172 31.272C980.383 31.272 979.711 31.5013 979.156 31.96C978.612 32.4187 978.26 33.016 978.1 33.752H984.132C983.983 33.0053 983.647 32.408 983.124 31.96C982.602 31.5013 981.951 31.272 981.172 31.272ZM991.241 39.176C990.089 39.176 989.134 38.92 988.377 38.408C987.62 37.896 987.156 37.176 986.985 36.248H988.345C988.516 36.8453 988.83 37.272 989.289 37.528C989.758 37.784 990.409 37.912 991.241 37.912C991.913 37.912 992.457 37.8 992.873 37.576C993.3 37.3413 993.513 37.016 993.513 36.6C993.513 36.344 993.406 36.1307 993.193 35.96C992.98 35.7787 992.75 35.6507 992.505 35.576C992.26 35.5013 991.838 35.3893 991.241 35.24C991.102 35.208 990.996 35.1813 990.921 35.16C989.598 34.8293 988.686 34.504 988.185 34.184C987.684 33.864 987.433 33.3627 987.433 32.68C987.433 31.848 987.758 31.1973 988.409 30.728C989.07 30.2587 989.934 30.024 991.001 30.024C992.025 30.024 992.857 30.248 993.497 30.696C994.148 31.1333 994.564 31.752 994.745 32.552H993.401C993.081 31.7093 992.292 31.288 991.033 31.288C990.34 31.288 989.79 31.4107 989.385 31.656C988.98 31.8907 988.777 32.2 988.777 32.584C988.777 32.9147 988.942 33.16 989.273 33.32C989.604 33.4693 990.265 33.672 991.257 33.928C991.726 34.0453 992.078 34.136 992.313 34.2C992.558 34.264 992.846 34.3547 993.177 34.472C993.518 34.5893 993.769 34.7013 993.929 34.808C994.089 34.9147 994.254 35.0533 994.425 35.224C994.596 35.384 994.713 35.5707 994.777 35.784C994.841 35.9867 994.873 36.2213 994.873 36.488C994.873 37.352 994.526 38.0187 993.833 38.488C993.15 38.9467 992.286 39.176 991.241 39.176ZM996.716 26.584C996.897 26.4133 997.121 26.328 997.388 26.328C997.655 26.328 997.873 26.4133 998.044 26.584C998.225 26.7547 998.316 26.9627 998.316 27.208C998.316 27.464 998.225 27.6773 998.044 27.848C997.873 28.0187 997.655 28.104 997.388 28.104C997.121 28.104 996.897 28.0187 996.716 27.848C996.545 27.6773 996.46 27.464 996.46 27.208C996.46 26.9627 996.545 26.7547 996.716 26.584ZM996.716 39V30.2H998.044V39H996.716ZM1007.56 30.2H1008.88V38.904C1008.88 40.216 1008.51 41.256 1007.76 42.024C1007.02 42.792 1006 43.176 1004.71 43.176C1003.63 43.176 1002.7 42.8987 1001.91 42.344C1001.12 41.7893 1000.62 41.0107 1000.4 40.008H1001.78C1001.96 40.6373 1002.31 41.1227 1002.82 41.464C1003.34 41.816 1003.96 41.992 1004.68 41.992C1005.59 41.992 1006.3 41.7253 1006.8 41.192C1007.3 40.6693 1007.56 39.9173 1007.56 38.936V37.16C1007.2 37.768 1006.73 38.248 1006.15 38.6C1005.56 38.9413 1004.9 39.112 1004.16 39.112C1002.97 39.112 1001.98 38.6853 1001.2 37.832C1000.44 36.968 1000.05 35.88 1000.05 34.568C1000.05 33.2453 1000.44 32.1573 1001.2 31.304C1001.98 30.4507 1002.97 30.024 1004.16 30.024C1004.89 30.024 1005.55 30.2 1006.15 30.552C1006.74 30.904 1007.21 31.384 1007.56 31.992V30.2ZM1004.42 37.848C1005.32 37.848 1006.06 37.5387 1006.66 36.92C1007.27 36.3013 1007.57 35.5173 1007.57 34.568C1007.57 33.6187 1007.27 32.8347 1006.66 32.216C1006.06 31.5973 1005.32 31.288 1004.42 31.288C1003.53 31.288 1002.81 31.5973 1002.24 32.216C1001.68 32.8347 1001.4 33.6187 1001.4 34.568C1001.4 35.5173 1001.68 36.3013 1002.24 36.92C1002.81 37.5387 1003.53 37.848 1004.42 37.848ZM1015.73 30.024C1016.72 30.024 1017.5 30.3227 1018.06 30.92C1018.63 31.5173 1018.91 32.3493 1018.91 33.416V39H1017.58V33.672C1017.58 32.0827 1016.84 31.288 1015.36 31.288C1014.47 31.288 1013.79 31.576 1013.3 32.152C1012.82 32.728 1012.58 33.5067 1012.58 34.488V39H1011.25V30.2H1012.58V31.944C1013.22 30.664 1014.27 30.024 1015.73 30.024ZM1021.18 26.584C1021.37 26.4133 1021.59 26.328 1021.86 26.328C1022.12 26.328 1022.34 26.4133 1022.51 26.584C1022.69 26.7547 1022.78 26.9627 1022.78 27.208C1022.78 27.464 1022.69 27.6773 1022.51 27.848C1022.34 28.0187 1022.12 28.104 1021.86 28.104C1021.59 28.104 1021.37 28.0187 1021.18 27.848C1021.01 27.6773 1020.93 27.464 1020.93 27.208C1020.93 26.9627 1021.01 26.7547 1021.18 26.584ZM1021.18 39V30.2H1022.51V39H1021.18ZM1029.35 30.024C1030.34 30.024 1031.12 30.3227 1031.69 30.92C1032.25 31.5173 1032.54 32.3493 1032.54 33.416V39H1031.21V33.672C1031.21 32.0827 1030.47 31.288 1028.98 31.288C1028.1 31.288 1027.41 31.576 1026.92 32.152C1026.44 32.728 1026.2 33.5067 1026.2 34.488V39H1024.87V30.2H1026.2V31.944C1026.84 30.664 1027.89 30.024 1029.35 30.024ZM1041.96 30.2H1043.29V38.904C1043.29 40.216 1042.92 41.256 1042.17 42.024C1041.42 42.792 1040.4 43.176 1039.11 43.176C1038.04 43.176 1037.1 42.8987 1036.31 42.344C1035.52 41.7893 1035.02 41.0107 1034.81 40.008H1036.19C1036.37 40.6373 1036.71 41.1227 1037.23 41.464C1037.75 41.816 1038.37 41.992 1039.08 41.992C1040 41.992 1040.71 41.7253 1041.21 41.192C1041.71 40.6693 1041.96 39.9173 1041.96 38.936V37.16C1041.61 37.768 1041.14 38.248 1040.55 38.6C1039.97 38.9413 1039.31 39.112 1038.57 39.112C1037.38 39.112 1036.39 38.6853 1035.61 37.832C1034.84 36.968 1034.46 35.88 1034.46 34.568C1034.46 33.2453 1034.84 32.1573 1035.61 31.304C1036.39 30.4507 1037.38 30.024 1038.57 30.024C1039.3 30.024 1039.96 30.2 1040.55 30.552C1041.15 30.904 1041.62 31.384 1041.96 31.992V30.2ZM1038.83 37.848C1039.72 37.848 1040.47 37.5387 1041.07 36.92C1041.67 36.3013 1041.98 35.5173 1041.98 34.568C1041.98 33.6187 1041.67 32.8347 1041.07 32.216C1040.47 31.5973 1039.72 31.288 1038.83 31.288C1037.94 31.288 1037.22 31.5973 1036.65 32.216C1036.08 32.8347 1035.8 33.6187 1035.8 34.568C1035.8 35.5173 1036.08 36.3013 1036.65 36.92C1037.22 37.5387 1037.94 37.848 1038.83 37.848ZM1060.42 30.024C1061.35 30.024 1062.07 30.312 1062.58 30.888C1063.09 31.4533 1063.35 32.2533 1063.35 33.288V39H1062.02V33.528C1062.02 32.0347 1061.36 31.288 1060.03 31.288C1059.23 31.288 1058.62 31.5867 1058.19 32.184C1057.77 32.7813 1057.55 33.5493 1057.55 34.488L1057.57 39H1056.23V33.528C1056.23 32.0347 1055.57 31.288 1054.24 31.288C1053.45 31.288 1052.85 31.5867 1052.42 32.184C1051.99 32.7813 1051.78 33.5493 1051.78 34.488V39H1050.45V30.2H1051.78V31.864C1052.4 30.6373 1053.35 30.024 1054.64 30.024C1055.36 30.024 1055.95 30.2 1056.42 30.552C1056.89 30.8933 1057.21 31.3893 1057.39 32.04C1058.01 30.696 1059.02 30.024 1060.42 30.024ZM1072.04 30.2H1073.46L1067.53 43H1066.1L1068.44 37.928L1064.87 30.2H1066.29L1069.14 36.504L1072.04 30.2ZM1084.03 30.024C1085.3 30.024 1086.37 30.4613 1087.25 31.336C1088.13 32.2 1088.58 33.288 1088.58 34.6C1088.58 35.912 1088.14 37.0053 1087.26 37.88C1086.39 38.744 1085.31 39.176 1084.03 39.176C1082.76 39.176 1081.69 38.7387 1080.82 37.864C1079.94 36.9893 1079.5 35.9013 1079.5 34.6C1079.5 33.2987 1079.94 32.2107 1080.82 31.336C1081.7 30.4613 1082.77 30.024 1084.03 30.024ZM1086.3 32.232C1085.69 31.6027 1084.93 31.288 1084.03 31.288C1083.14 31.288 1082.38 31.6027 1081.76 32.232C1081.15 32.8507 1080.85 33.64 1080.85 34.6C1080.85 35.56 1081.15 36.3547 1081.76 36.984C1082.38 37.6027 1083.14 37.912 1084.03 37.912C1084.94 37.912 1085.7 37.6027 1086.3 36.984C1086.92 36.3547 1087.23 35.56 1087.23 34.6C1087.23 33.64 1086.92 32.8507 1086.3 32.232ZM1100.73 30.2H1102.06L1099.46 39H1097.86L1097 36.04L1095.86 31.576H1095.62L1094.49 36.04L1093.61 39H1092.01L1089.42 30.2H1090.74L1091.56 32.968L1092.84 37.624L1094.1 32.968L1094.92 30.2H1096.55L1097.37 32.968L1098.63 37.608L1099.91 32.968L1100.73 30.2ZM1108.13 30.024C1109.13 30.024 1109.9 30.3227 1110.47 30.92C1111.03 31.5173 1111.32 32.3493 1111.32 33.416V39H1109.99V33.672C1109.99 32.0827 1109.25 31.288 1107.77 31.288C1106.88 31.288 1106.19 31.576 1105.7 32.152C1105.22 32.728 1104.98 33.5067 1104.98 34.488V39H1103.65V30.2H1104.98V31.944C1105.62 30.664 1106.67 30.024 1108.13 30.024ZM1124.56 30.2H1125.89V39H1124.56V37.256C1123.9 38.536 1122.86 39.176 1121.43 39.176C1120.45 39.176 1119.68 38.8773 1119.12 38.28C1118.58 37.6827 1118.31 36.8507 1118.31 35.784V30.2H1119.64V35.528C1119.64 37.1173 1120.36 37.912 1121.81 37.912C1122.68 37.912 1123.35 37.624 1123.83 37.048C1124.32 36.472 1124.56 35.6933 1124.56 34.712V30.2ZM1131.94 39.176C1130.79 39.176 1129.84 38.92 1129.08 38.408C1128.32 37.896 1127.86 37.176 1127.69 36.248H1129.05C1129.22 36.8453 1129.53 37.272 1129.99 37.528C1130.46 37.784 1131.11 37.912 1131.94 37.912C1132.62 37.912 1133.16 37.8 1133.58 37.576C1134 37.3413 1134.22 37.016 1134.22 36.6C1134.22 36.344 1134.11 36.1307 1133.9 35.96C1133.68 35.7787 1133.45 35.6507 1133.21 35.576C1132.96 35.5013 1132.54 35.3893 1131.94 35.24C1131.81 35.208 1131.7 35.1813 1131.62 35.16C1130.3 34.8293 1129.39 34.504 1128.89 34.184C1128.39 33.864 1128.14 33.3627 1128.14 32.68C1128.14 31.848 1128.46 31.1973 1129.11 30.728C1129.77 30.2587 1130.64 30.024 1131.7 30.024C1132.73 30.024 1133.56 30.248 1134.2 30.696C1134.85 31.1333 1135.27 31.752 1135.45 32.552H1134.1C1133.78 31.7093 1132.99 31.288 1131.74 31.288C1131.04 31.288 1130.49 31.4107 1130.09 31.656C1129.68 31.8907 1129.48 32.2 1129.48 32.584C1129.48 32.9147 1129.65 33.16 1129.98 33.32C1130.31 33.4693 1130.97 33.672 1131.96 33.928C1132.43 34.0453 1132.78 34.136 1133.02 34.2C1133.26 34.264 1133.55 34.3547 1133.88 34.472C1134.22 34.5893 1134.47 34.7013 1134.63 34.808C1134.79 34.9147 1134.96 35.0533 1135.13 35.224C1135.3 35.384 1135.42 35.5707 1135.48 35.784C1135.54 35.9867 1135.58 36.2213 1135.58 36.488C1135.58 37.352 1135.23 38.0187 1134.54 38.488C1133.85 38.9467 1132.99 39.176 1131.94 39.176ZM1141.56 30.024C1142.93 30.024 1144.02 30.488 1144.83 31.416C1145.64 32.344 1146.02 33.5387 1145.96 35H1138.43C1138.49 35.9067 1138.82 36.6213 1139.4 37.144C1139.99 37.6667 1140.73 37.928 1141.63 37.928C1142.94 37.928 1143.86 37.416 1144.38 36.392H1145.76C1145.39 37.2987 1144.84 37.992 1144.11 38.472C1143.37 38.9413 1142.53 39.176 1141.58 39.176C1140.27 39.176 1139.18 38.7547 1138.33 37.912C1137.49 37.0587 1137.07 35.9653 1137.07 34.632C1137.07 33.2987 1137.49 32.2 1138.33 31.336C1139.17 30.4613 1140.25 30.024 1141.56 30.024ZM1141.56 31.272C1140.77 31.272 1140.1 31.5013 1139.55 31.96C1139 32.4187 1138.65 33.016 1138.49 33.752H1144.52C1144.37 33.0053 1144.04 32.408 1143.52 31.96C1142.99 31.5013 1142.34 31.272 1141.56 31.272ZM1152.37 30.024C1152.56 30.024 1152.74 30.0347 1152.91 30.056V31.416C1152.72 31.3947 1152.53 31.384 1152.35 31.384C1151.4 31.384 1150.64 31.688 1150.08 32.296C1149.51 32.8933 1149.23 33.7413 1149.23 34.84V39H1147.9V30.2H1149.23V32.168C1149.81 30.7387 1150.85 30.024 1152.37 30.024ZM1159.31 26.584C1159.49 26.4133 1159.72 26.328 1159.98 26.328C1160.25 26.328 1160.47 26.4133 1160.64 26.584C1160.82 26.7547 1160.91 26.9627 1160.91 27.208C1160.91 27.464 1160.82 27.6773 1160.64 27.848C1160.47 28.0187 1160.25 28.104 1159.98 28.104C1159.72 28.104 1159.49 28.0187 1159.31 27.848C1159.14 27.6773 1159.05 27.464 1159.05 27.208C1159.05 26.9627 1159.14 26.7547 1159.31 26.584ZM1159.31 39V30.2H1160.64V39H1159.31ZM1167.48 30.024C1168.47 30.024 1169.25 30.3227 1169.81 30.92C1170.38 31.5173 1170.66 32.3493 1170.66 33.416V39H1169.33V33.672C1169.33 32.0827 1168.59 31.288 1167.11 31.288C1166.22 31.288 1165.54 31.576 1165.05 32.152C1164.57 32.728 1164.33 33.5067 1164.33 34.488V39H1163V30.2H1164.33V31.944C1164.97 30.664 1166.02 30.024 1167.48 30.024ZM1178.97 37.512L1179.21 38.616C1178.51 38.9893 1177.71 39.176 1176.83 39.176C1175.86 39.176 1175.09 38.872 1174.52 38.264C1173.96 37.6453 1173.68 36.7707 1173.68 35.64V31.448H1171.98V30.2H1173.68V28.088L1175 27.8V30.2H1178.96V31.448H1175V35.576C1175 37.1547 1175.69 37.944 1177.05 37.944C1177.54 37.944 1178.18 37.8 1178.97 37.512ZM1184.75 30.024C1186.12 30.024 1187.2 30.488 1188.01 31.416C1188.83 32.344 1189.2 33.5387 1189.15 35H1181.61C1181.68 35.9067 1182 36.6213 1182.59 37.144C1183.18 37.6667 1183.92 37.928 1184.81 37.928C1186.13 37.928 1187.04 37.416 1187.57 36.392H1188.94C1188.58 37.2987 1188.03 37.992 1187.29 38.472C1186.56 38.9413 1185.72 39.176 1184.77 39.176C1183.45 39.176 1182.37 38.7547 1181.52 37.912C1180.68 37.0587 1180.25 35.9653 1180.25 34.632C1180.25 33.2987 1180.68 32.2 1181.52 31.336C1182.36 30.4613 1183.44 30.024 1184.75 30.024ZM1184.75 31.272C1183.96 31.272 1183.29 31.5013 1182.73 31.96C1182.19 32.4187 1181.84 33.016 1181.68 33.752H1187.71C1187.56 33.0053 1187.23 32.408 1186.7 31.96C1186.18 31.5013 1185.53 31.272 1184.75 31.272ZM1195.55 30.024C1195.75 30.024 1195.93 30.0347 1196.1 30.056V31.416C1195.91 31.3947 1195.72 31.384 1195.54 31.384C1194.59 31.384 1193.83 31.688 1193.27 32.296C1192.7 32.8933 1192.42 33.7413 1192.42 34.84V39H1191.09V30.2H1192.42V32.168C1192.99 30.7387 1194.04 30.024 1195.55 30.024ZM1202.18 27.688C1200.78 27.688 1200.08 28.5093 1200.08 30.152V30.2H1203.65V31.448H1200.08V39H1198.75V31.448H1197.06V30.2H1198.75V30.088C1198.75 28.9573 1199.05 28.0773 1199.65 27.448C1200.25 26.8187 1201.04 26.504 1202.03 26.504C1202.74 26.504 1203.37 26.6267 1203.92 26.872L1203.68 27.976L1203.46 27.912C1203.05 27.7627 1202.63 27.688 1202.18 27.688ZM1212.18 30.2H1213.51V39H1212.18V37.224C1211.83 37.832 1211.36 38.312 1210.77 38.664C1210.2 39.0053 1209.54 39.176 1208.79 39.176C1207.59 39.176 1206.61 38.7493 1205.83 37.896C1205.06 37.032 1204.68 35.9333 1204.68 34.6C1204.68 33.2667 1205.06 32.1733 1205.83 31.32C1206.61 30.456 1207.59 30.024 1208.79 30.024C1209.54 30.024 1210.2 30.2 1210.79 30.552C1211.38 30.904 1211.84 31.3893 1212.18 32.008V30.2ZM1209.04 37.912C1209.95 37.912 1210.7 37.6027 1211.3 36.984C1211.9 36.3547 1212.2 35.56 1212.2 34.6C1212.2 33.64 1211.9 32.8507 1211.3 32.232C1210.7 31.6027 1209.95 31.288 1209.04 31.288C1208.15 31.288 1207.42 31.6027 1206.85 32.232C1206.3 32.8507 1206.02 33.64 1206.02 34.6C1206.02 35.5707 1206.3 36.3653 1206.87 36.984C1207.43 37.6027 1208.16 37.912 1209.04 37.912ZM1220.06 39.176C1218.77 39.176 1217.69 38.744 1216.82 37.88C1215.95 37.0053 1215.52 35.912 1215.52 34.6C1215.52 33.288 1215.95 32.2 1216.82 31.336C1217.69 30.4613 1218.77 30.024 1220.06 30.024C1221.11 30.024 1222.03 30.3173 1222.82 30.904C1223.61 31.4907 1224.11 32.28 1224.34 33.272H1222.96C1222.76 32.6533 1222.39 32.1627 1221.87 31.8C1221.35 31.4373 1220.75 31.256 1220.06 31.256C1219.14 31.256 1218.37 31.5707 1217.76 32.2C1217.16 32.8293 1216.86 33.6293 1216.86 34.6C1216.86 35.5707 1217.16 36.3707 1217.76 37C1218.37 37.6293 1219.14 37.944 1220.06 37.944C1220.75 37.944 1221.34 37.7627 1221.86 37.4C1222.38 37.0373 1222.75 36.5467 1222.96 35.928H1224.34C1224.1 36.9307 1223.59 37.7253 1222.8 38.312C1222.01 38.888 1221.1 39.176 1220.06 39.176ZM1230.33 30.024C1231.69 30.024 1232.78 30.488 1233.59 31.416C1234.4 32.344 1234.78 33.5387 1234.73 35H1227.19C1227.26 35.9067 1227.58 36.6213 1228.17 37.144C1228.76 37.6667 1229.5 37.928 1230.39 37.928C1231.7 37.928 1232.62 37.416 1233.14 36.392H1234.52C1234.16 37.2987 1233.61 37.992 1232.87 38.472C1232.14 38.9413 1231.29 39.176 1230.34 39.176C1229.03 39.176 1227.95 38.7547 1227.1 37.912C1226.25 37.0587 1225.83 35.9653 1225.83 34.632C1225.83 33.2987 1226.25 32.2 1227.1 31.336C1227.94 30.4613 1229.02 30.024 1230.33 30.024ZM1230.33 31.272C1229.54 31.272 1228.87 31.5013 1228.31 31.96C1227.77 32.4187 1227.42 33.016 1227.26 33.752H1233.29C1233.14 33.0053 1232.8 32.408 1232.28 31.96C1231.76 31.5013 1231.11 31.272 1230.33 31.272ZM1245.82 27.688C1244.42 27.688 1243.72 28.5093 1243.72 30.152V30.2H1247.29V31.448H1243.72V39H1242.39V31.448H1240.7V30.2H1242.39V30.088C1242.39 28.9573 1242.69 28.0773 1243.29 27.448C1243.89 26.8187 1244.68 26.504 1245.67 26.504C1246.38 26.504 1247.01 26.6267 1247.56 26.872L1247.32 27.976L1247.1 27.912C1246.69 27.7627 1246.27 27.688 1245.82 27.688ZM1252.85 30.024C1254.11 30.024 1255.19 30.4613 1256.06 31.336C1256.95 32.2 1257.39 33.288 1257.39 34.6C1257.39 35.912 1256.95 37.0053 1256.08 37.88C1255.2 38.744 1254.13 39.176 1252.85 39.176C1251.58 39.176 1250.5 38.7387 1249.63 37.864C1248.75 36.9893 1248.32 35.9013 1248.32 34.6C1248.32 33.2987 1248.75 32.2107 1249.63 31.336C1250.51 30.4613 1251.59 30.024 1252.85 30.024ZM1255.12 32.232C1254.5 31.6027 1253.74 31.288 1252.85 31.288C1251.95 31.288 1251.19 31.6027 1250.57 32.232C1249.97 32.8507 1249.66 33.64 1249.66 34.6C1249.66 35.56 1249.97 36.3547 1250.57 36.984C1251.19 37.6027 1251.95 37.912 1252.85 37.912C1253.75 37.912 1254.51 37.6027 1255.12 36.984C1255.74 36.3547 1256.05 35.56 1256.05 34.6C1256.05 33.64 1255.74 32.8507 1255.12 32.232ZM1263.85 30.024C1264.04 30.024 1264.23 30.0347 1264.4 30.056V31.416C1264.2 31.3947 1264.02 31.384 1263.84 31.384C1262.89 31.384 1262.13 31.688 1261.56 32.296C1261 32.8933 1260.72 33.7413 1260.72 34.84V39H1259.39V30.2H1260.72V32.168C1261.29 30.7387 1262.34 30.024 1263.85 30.024ZM1277.02 37.512L1277.26 38.616C1276.55 38.9893 1275.76 39.176 1274.87 39.176C1273.9 39.176 1273.14 38.872 1272.57 38.264C1272 37.6453 1271.72 36.7707 1271.72 35.64V31.448H1270.03V30.2H1271.72V28.088L1273.05 27.8V30.2H1277V31.448H1273.05V35.576C1273.05 37.1547 1273.73 37.944 1275.1 37.944C1275.59 37.944 1276.23 37.8 1277.02 37.512ZM1283.6 30.024C1284.61 30.024 1285.39 30.3227 1285.94 30.92C1286.51 31.5173 1286.79 32.3493 1286.79 33.416V39H1285.46V33.672C1285.46 32.0827 1284.72 31.288 1283.24 31.288C1282.35 31.288 1281.66 31.576 1281.17 32.152C1280.69 32.728 1280.45 33.5067 1280.45 34.488V39H1279.12V26.68H1280.45V31.912C1281.1 30.6533 1282.15 30.024 1283.6 30.024ZM1293.22 30.024C1294.58 30.024 1295.67 30.488 1296.48 31.416C1297.29 32.344 1297.67 33.5387 1297.62 35H1290.08C1290.15 35.9067 1290.47 36.6213 1291.06 37.144C1291.65 37.6667 1292.39 37.928 1293.28 37.928C1294.6 37.928 1295.51 37.416 1296.04 36.392H1297.41C1297.05 37.2987 1296.5 37.992 1295.76 38.472C1295.03 38.9413 1294.18 39.176 1293.24 39.176C1291.92 39.176 1290.84 38.7547 1289.99 37.912C1289.14 37.0587 1288.72 35.9653 1288.72 34.632C1288.72 33.2987 1289.14 32.2 1289.99 31.336C1290.83 30.4613 1291.91 30.024 1293.22 30.024ZM1293.22 31.272C1292.43 31.272 1291.76 31.5013 1291.2 31.96C1290.66 32.4187 1290.31 33.016 1290.15 33.752H1296.18C1296.03 33.0053 1295.69 32.408 1295.17 31.96C1294.65 31.5013 1294 31.272 1293.22 31.272ZM1310.58 37.512L1310.82 38.616C1310.12 38.9893 1309.32 39.176 1308.44 39.176C1307.47 39.176 1306.7 38.872 1306.13 38.264C1305.57 37.6453 1305.28 36.7707 1305.28 35.64V31.448H1303.59V30.2H1305.28V28.088L1306.61 27.8V30.2H1310.56V31.448H1306.61V35.576C1306.61 37.1547 1307.3 37.944 1308.66 37.944C1309.15 37.944 1309.79 37.8 1310.58 37.512ZM1316.36 30.024C1317.73 30.024 1318.81 30.488 1319.62 31.416C1320.43 32.344 1320.81 33.5387 1320.76 35H1313.22C1313.29 35.9067 1313.61 36.6213 1314.2 37.144C1314.79 37.6667 1315.53 37.928 1316.42 37.928C1317.74 37.928 1318.65 37.416 1319.18 36.392H1320.55C1320.19 37.2987 1319.64 37.992 1318.9 38.472C1318.17 38.9413 1317.33 39.176 1316.38 39.176C1315.06 39.176 1313.98 38.7547 1313.13 37.912C1312.29 37.0587 1311.86 35.9653 1311.86 34.632C1311.86 33.2987 1312.29 32.2 1313.13 31.336C1313.97 30.4613 1315.05 30.024 1316.36 30.024ZM1316.36 31.272C1315.57 31.272 1314.9 31.5013 1314.34 31.96C1313.8 32.4187 1313.45 33.016 1313.29 33.752H1319.32C1319.17 33.0053 1318.83 32.408 1318.31 31.96C1317.79 31.5013 1317.14 31.272 1316.36 31.272ZM1329.6 39H1328L1325.57 35.496L1323.17 39H1321.57L1324.77 34.472L1321.75 30.2H1323.35L1325.6 33.48L1327.83 30.2H1329.44L1326.4 34.488L1329.6 39ZM1337.42 37.512L1337.66 38.616C1336.96 38.9893 1336.17 39.176 1335.28 39.176C1334.31 39.176 1333.54 38.872 1332.98 38.264C1332.41 37.6453 1332.13 36.7707 1332.13 35.64V31.448H1330.43V30.2H1332.13V28.088L1333.46 27.8V30.2H1337.41V31.448H1333.46V35.576C1333.46 37.1547 1334.14 37.944 1335.5 37.944C1336 37.944 1336.64 37.8 1337.42 37.512ZM1343.2 30.024C1344.57 30.024 1345.66 30.488 1346.47 31.416C1347.28 32.344 1347.66 33.5387 1347.6 35H1340.07C1340.13 35.9067 1340.46 36.6213 1341.04 37.144C1341.63 37.6667 1342.37 37.928 1343.27 37.928C1344.58 37.928 1345.5 37.416 1346.02 36.392H1347.4C1347.03 37.2987 1346.48 37.992 1345.75 38.472C1345.01 38.9413 1344.17 39.176 1343.22 39.176C1341.91 39.176 1340.83 38.7547 1339.97 37.912C1339.13 37.0587 1338.71 35.9653 1338.71 34.632C1338.71 33.2987 1339.13 32.2 1339.97 31.336C1340.81 30.4613 1341.89 30.024 1343.2 30.024ZM1343.2 31.272C1342.41 31.272 1341.74 31.5013 1341.19 31.96C1340.64 32.4187 1340.29 33.016 1340.13 33.752H1346.16C1346.01 33.0053 1345.68 32.408 1345.16 31.96C1344.63 31.5013 1343.98 31.272 1343.2 31.272ZM1354.01 30.024C1354.2 30.024 1354.38 30.0347 1354.55 30.056V31.416C1354.36 31.3947 1354.17 31.384 1353.99 31.384C1353.04 31.384 1352.29 31.688 1351.72 32.296C1351.15 32.8933 1350.87 33.7413 1350.87 34.84V39H1349.54V30.2H1350.87V32.168C1351.45 30.7387 1352.49 30.024 1354.01 30.024Z" fill="#48494B"/>
<path d="M1064.84 342.82H403.891V72H1064.84V342.82ZM405.903 340.809H1062.83V74.0113H405.903V340.809Z" fill="#8891C8"/>
<path d="M800.118 305.559H841.655C844.489 289.172 844.489 272.421 841.655 256.034H800.118C804.797 272.211 804.797 289.382 800.118 305.559Z" fill="#E6E6E6"/>
<path d="M801.253 206.439H857.696C858.087 206.426 858.457 206.261 858.729 205.98C859.001 205.698 859.153 205.322 859.153 204.931C859.153 204.54 859.001 204.164 858.729 203.882C858.457 203.601 858.087 203.436 857.696 203.422H801.253C800.862 203.436 800.491 203.601 800.219 203.882C799.948 204.164 799.796 204.54 799.796 204.931C799.796 205.322 799.948 205.698 800.219 205.98C800.491 206.261 800.862 206.426 801.253 206.439Z" fill="#E6E6E6"/>
<path d="M572.286 206.439H628.73C629.121 206.426 629.491 206.261 629.763 205.98C630.035 205.698 630.187 205.322 630.187 204.931C630.187 204.54 630.035 204.164 629.763 203.882C629.491 203.601 629.121 203.436 628.73 203.422H572.286C571.895 203.436 571.525 203.601 571.253 203.882C570.981 204.164 570.829 204.54 570.829 204.931C570.829 205.322 570.981 205.698 571.253 205.98C571.525 206.261 571.895 206.426 572.286 206.439Z" fill="#E6E6E6"/>
<path d="M856.229 192.208L865.047 200.257C866.056 201.178 868.83 203.078 869.457 204.282C870.752 206.771 869.36 206.203 867.14 207.065C861.685 209.236 856.658 212.357 852.293 216.284C850.833 217.571 852.974 219.698 854.426 218.418C858.407 214.84 862.981 211.983 867.942 209.974C869.721 209.271 873.096 208.858 873.941 206.739C874.976 204.146 871.681 202.232 870.12 200.807L858.362 190.075C856.931 188.768 854.791 190.896 856.229 192.208Z" fill="#E6E6E6"/>
<path d="M627.263 192.208L636.081 200.257C637.09 201.178 639.864 203.078 640.49 204.282C641.786 206.771 640.394 206.203 638.174 207.065C632.718 209.236 627.691 212.357 623.327 216.284C621.867 217.571 624.008 219.698 625.46 218.418C629.441 214.84 634.014 211.983 638.976 209.974C640.755 209.271 644.13 208.858 644.975 206.739C646.01 204.146 642.715 202.232 641.154 200.807L629.396 190.075C627.964 188.768 625.825 190.896 627.263 192.208Z" fill="#E6E6E6"/>
<path d="M592.954 145.661H634.491C637.325 129.274 637.325 112.522 634.491 96.1356H592.954C597.633 112.312 597.633 129.484 592.954 145.661Z" fill="#C6CAE2"/>
<path d="M807.747 171.172H849.284C852.119 154.785 852.119 138.034 849.284 121.647H807.747C812.427 137.824 812.427 154.995 807.747 171.172Z" fill="#C6CAE2"/>
<path d="M676.247 252.547V130.313L665.185 127.847V263.61L748.654 262.756L748.372 251.81L676.247 252.547Z" fill="#F2F2F2"/>
<path d="M482.332 252.547V130.313L471.27 127.847V263.61L554.739 262.756L554.457 251.81L482.332 252.547Z" fill="#F2F2F2"/>
<path d="M758.71 273.818H658.145V111.908H758.71V273.818ZM660.157 271.807H756.699V113.92H660.157V271.807Z" fill="#8891C8"/>
<path d="M564.795 273.818H464.23V111.908H564.795V273.818ZM466.242 271.807H562.784V113.92H466.242V271.807Z" fill="#8891C8"/>
<path d="M683.484 121.965H667.196V123.976H683.484V121.965Z" fill="#8891C8"/>
<path d="M683.484 126.993H667.196V129.004H683.484V126.993Z" fill="#8891C8"/>
<path d="M683.484 132.021H667.196V134.033H683.484V132.021Z" fill="#8891C8"/>
<path d="M931.682 252.547V130.313L920.62 127.847V263.61L1004.09 262.756L1003.81 251.81L931.682 252.547Z" fill="#F2F2F2"/>
<path d="M1015.33 271.807H914.762V109.897H1015.33V271.807ZM916.773 269.795H1013.32V111.908H916.773V269.795Z" fill="#8891C8"/>
<path d="M1000.07 132.339C998.674 132.339 997.313 131.926 996.155 131.153C994.998 130.379 994.096 129.28 993.563 127.993C993.03 126.707 992.891 125.292 993.162 123.926C993.434 122.561 994.104 121.306 995.089 120.322C996.073 119.337 997.327 118.667 998.693 118.395C1000.06 118.124 1001.47 118.263 1002.76 118.796C1004.05 119.329 1005.15 120.231 1005.92 121.388C1006.69 122.546 1007.11 123.907 1007.11 125.299C1007.1 127.166 1006.36 128.955 1005.04 130.275C1003.72 131.595 1001.93 132.337 1000.07 132.339ZM1000.07 120.271C999.072 120.271 998.1 120.566 997.273 121.119C996.446 121.671 995.801 122.456 995.421 123.375C995.04 124.294 994.941 125.305 995.135 126.28C995.329 127.256 995.808 128.152 996.511 128.855C997.214 129.558 998.11 130.037 999.085 130.231C1000.06 130.425 1001.07 130.326 1001.99 129.945C1002.91 129.564 1003.69 128.92 1004.25 128.093C1004.8 127.266 1005.09 126.294 1005.09 125.299C1005.09 123.966 1004.56 122.688 1003.62 121.746C1002.68 120.803 1001.4 120.273 1000.07 120.271Z" fill="#8891C8"/>
<path d="M693.102 304.923H734.639C737.474 288.537 737.474 271.785 734.639 255.399H693.102C697.782 271.575 697.782 288.747 693.102 304.923Z" fill="#C6CAE2"/>
<path d="M1059.19 412.96L1053.99 412.96L1051.51 392.898L1059.19 392.899L1059.19 412.96Z" fill="#FFB6B6"/>
<path d="M1041.37 412.842C1041.21 413.115 1041.12 413.995 1041.12 414.312C1041.12 415.287 1041.91 416.078 1042.89 416.078H1058.99C1059.66 416.078 1060.2 415.539 1060.2 414.873V414.203C1060.2 414.203 1060.99 412.187 1059.35 409.703C1059.35 409.703 1057.31 411.648 1054.27 408.602L1053.37 406.974L1046.87 411.73L1043.26 412.174C1042.47 412.271 1041.78 412.159 1041.37 412.842Z" fill="#2F2E41"/>
<path d="M1114.09 406.454L1109.34 408.566L1098.93 391.24L1105.94 388.122L1114.09 406.454Z" fill="#FFB6B6"/>
<path d="M1097.76 413.585C1097.72 413.9 1098 414.74 1098.13 415.029C1098.53 415.92 1099.57 416.321 1100.46 415.925L1115.18 409.382C1115.78 409.112 1116.06 408.4 1115.79 407.792L1115.51 407.179C1115.51 407.179 1115.42 405.014 1112.92 403.41C1112.92 403.41 1111.84 406.016 1107.82 404.47L1106.34 403.348L1102.33 410.336L1099.22 412.206C1098.54 412.615 1097.85 412.796 1097.76 413.585Z" fill="#2F2E41"/>
<path d="M1047.88 287.43L1043.26 297.141L1051.12 397.951H1060.95L1064.99 331.823L1100.27 397.951H1112.33L1094.12 350.783L1081.64 289.279L1047.88 287.43Z" fill="#2F2E41"/>
<path d="M1072.64 225.152H1060.45L1055.98 232.169L1045.89 236.994L1048.09 267.255L1046.98 289.32L1048.49 289.276C1059.25 288.962 1070.01 290.712 1079.99 294.734C1082.56 295.765 1085.24 296.341 1087.55 295.763C1087.55 295.763 1086.68 292.254 1085.8 291.377C1084.92 290.5 1084.48 289.775 1084.92 289.26C1085.36 288.745 1086.24 288.307 1085.36 287.43C1084.48 286.553 1084.48 285.448 1084.48 285.448L1081.85 265.94L1087.11 238.309L1076.15 232.169L1072.64 225.152Z" fill="#2F2E41"/>
<path d="M1093.59 263.409L1093.26 289.29L1086.82 312.362L1081.68 310.441L1083.96 289.294L1083.66 260.677L1093.59 263.409Z" fill="#FFB6B6"/>
<path d="M1086.8 316.082C1087.41 312.764 1086.3 309.784 1084.33 309.426C1082.36 309.067 1080.27 311.466 1079.67 314.783C1079.06 318.101 1080.17 321.081 1082.14 321.439C1084.11 321.798 1086.2 319.399 1086.8 316.082Z" fill="#FFB6B6"/>
<path d="M1084.48 236.993C1084.48 236.993 1091.75 238.119 1091.84 244.354C1091.94 250.589 1098.95 260.677 1094.57 268.571L1083.17 270.325L1077.03 247.958L1084.04 236.116" fill="#2F2E41"/>
<path d="M1051.32 258.851L1036.84 280.305L1018.8 296.059L1015.55 291.629L1029.07 275.204L1044.52 251.115L1051.32 258.851Z" fill="#FFB6B6"/>
<path d="M1016.74 299.157C1019.07 296.715 1019.78 293.616 1018.33 292.236C1016.88 290.855 1013.82 291.715 1011.49 294.157C1009.17 296.599 1008.46 299.698 1009.91 301.079C1011.36 302.46 1014.42 301.599 1016.74 299.157Z" fill="#FFB6B6"/>
<path d="M1058.2 231.768C1058.2 231.768 1063.66 236.696 1060.31 241.96C1056.97 247.225 1057.3 259.508 1049.31 263.701L1038.81 258.911C1039.69 250.262 1040.21 241.295 1045.95 236.843L1058.31 230.794" fill="#2F2E41"/>
<path d="M1064.65 223.344C1070.68 223.344 1075.56 218.459 1075.56 212.434C1075.56 206.408 1070.68 201.523 1064.65 201.523C1058.63 201.523 1053.74 206.408 1053.74 212.434C1053.74 218.459 1058.63 223.344 1064.65 223.344Z" fill="#FFB6B6"/>
<path d="M1072.67 221.398C1073.27 221.501 1073.97 220.044 1074.65 218.625C1076.06 215.655 1076.96 213.767 1077.02 211.099C1077.08 208.824 1076.45 209.421 1075.84 204.364C1075.63 202.696 1072.78 202.699 1072.2 201.907C1071.22 200.57 1072.73 200.018 1070.29 199.214C1065.73 197.709 1063.66 200.047 1060.76 200.249C1060.69 200.254 1059.25 201.659 1058.45 201.732C1057.04 201.859 1055.01 201.64 1054.11 199.498C1053.25 197.494 1052.69 203.349 1053.45 204.073C1054.1 204.689 1055.21 206.233 1055.24 206.345C1055.27 206.472 1052.59 203.504 1052.14 204.727C1051.82 205.607 1052.84 210.136 1053.65 210.306C1054.34 210.449 1056.01 208.193 1055.63 209.118C1054.76 211.264 1060.02 212.633 1066.33 208.326C1066.55 208.173 1066.34 208.416 1067.12 210.306C1068.11 212.69 1068.33 212.819 1068.31 213.475C1068.27 214.897 1067.21 215.315 1067.52 216.248C1067.77 217.004 1068.76 217.59 1069.5 217.437C1070.33 217.264 1070.48 216.23 1071.08 216.248C1071.6 216.264 1072.22 217.045 1072.27 217.833C1072.39 219.493 1069.93 219.95 1069.5 222.191C1069.26 223.455 1072.11 221.304 1072.67 221.398Z" fill="#2F2E41"/>
<path d="M740.281 248.994C738.591 248.994 736.938 248.493 735.532 247.554C734.127 246.615 733.031 245.28 732.384 243.718C731.737 242.156 731.568 240.437 731.898 238.779C732.227 237.121 733.042 235.598 734.237 234.402C735.433 233.207 736.956 232.393 738.614 232.063C740.272 231.733 741.991 231.902 743.553 232.549C745.115 233.196 746.45 234.292 747.389 235.697C748.328 237.103 748.829 238.756 748.829 240.446C748.827 242.713 747.926 244.886 746.323 246.488C744.721 248.091 742.548 248.992 740.281 248.994ZM740.281 234.341C739.074 234.341 737.893 234.699 736.889 235.37C735.885 236.041 735.103 236.994 734.64 238.11C734.178 239.226 734.057 240.453 734.293 241.638C734.529 242.822 735.11 243.91 735.964 244.764C736.818 245.618 737.906 246.199 739.09 246.435C740.275 246.67 741.502 246.55 742.618 246.087C743.734 245.625 744.687 244.843 745.358 243.839C746.029 242.835 746.387 241.654 746.387 240.446C746.385 238.828 745.741 237.276 744.597 236.131C743.452 234.986 741.9 234.343 740.281 234.341Z" fill="#8891C8"/>
<rect x="739.779" y="235.921" width="1.00565" height="9.05085" fill="#8891C8"/>
<rect x="735.756" y="240.949" width="1.00565" height="9.05085" transform="rotate(-90 735.756 240.949)" fill="#8891C8"/>
<rect x="498.923" y="132.839" width="31.1808" height="31.1808" stroke="#8891C8"/>
<rect x="487.86" y="177.088" width="24.1413" height="1.0113" stroke="#8891C8"/>
<rect x="487.86" y="191.167" width="24.1413" height="1.0113" stroke="#8891C8"/>
<rect x="487.86" y="206.251" width="24.1413" height="1.0113" stroke="#8891C8"/>
<rect x="487.86" y="183.122" width="63.3616" height="3.0226" rx="1.5113" stroke="#8891C8"/>
<rect x="487.86" y="197.201" width="63.3616" height="3.0226" rx="1.5113" stroke="#8891C8"/>
<rect x="487.86" y="212.285" width="63.3616" height="3.0226" rx="1.5113" stroke="#8891C8"/>
<path d="M927.333 121.277L922.807 125.802L927.333 130.328" stroke="#8891C8" stroke-width="2" stroke-linecap="round"/>
<rect x="922.807" y="252.011" width="83.469" height="12.0678" rx="6.0339" fill="#D9D9D9"/>
<path d="M927.835 146.396C927.835 144.186 929.626 142.396 931.835 142.396H956.016C958.225 142.396 960.016 144.186 960.016 146.396V154.486C960.016 156.695 958.225 158.486 956.016 158.486H927.835V146.396Z" fill="#D9D9D9"/>
<path d="M974.095 170.531C974.095 168.322 975.886 166.531 978.095 166.531H1002.28C1004.49 166.531 1006.28 168.322 1006.28 170.531V182.622H978.095C975.886 182.622 974.095 180.831 974.095 178.622V170.531Z" fill="#D9D9D9"/>
<rect x="1" y="1" width="1518" height="438" rx="11" stroke="#7382D1" stroke-width="2"/>
</svg>
