<svg width="750" height="360" viewBox="0 0 750 360" fill="none" xmlns="http://www.w3.org/2000/svg">
<rect x="1" y="1" width="748" height="358" rx="11" stroke="#7382D1" stroke-width="2"/>
<path d="M103.408 39V27.8H104.736V39H103.408ZM111.805 30.024C112.797 30.024 113.575 30.3227 114.141 30.92C114.706 31.5173 114.989 32.3493 114.989 33.416V39H113.661V33.672C113.661 32.0827 112.919 31.288 111.437 31.288C110.551 31.288 109.863 31.576 109.373 32.152C108.893 32.728 108.653 33.5067 108.653 34.488V39H107.325V30.2H108.653V31.944C109.293 30.664 110.343 30.024 111.805 30.024ZM126.859 30.024C128.054 30.024 129.035 30.456 129.803 31.32C130.582 32.1733 130.971 33.2667 130.971 34.6C130.971 35.9333 130.582 37.032 129.803 37.896C129.024 38.7493 128.038 39.176 126.843 39.176C126.096 39.176 125.43 39.0053 124.843 38.664C124.267 38.312 123.808 37.832 123.467 37.224V43H122.139V30.2H123.467V32.008C123.808 31.3893 124.272 30.904 124.859 30.552C125.446 30.2 126.112 30.024 126.859 30.024ZM126.603 37.912C127.488 37.912 128.214 37.6027 128.779 36.984C129.344 36.3653 129.627 35.5707 129.627 34.6C129.627 33.64 129.344 32.8507 128.779 32.232C128.214 31.6027 127.488 31.288 126.603 31.288C125.696 31.288 124.944 31.6027 124.347 32.232C123.75 32.8507 123.451 33.64 123.451 34.6C123.451 35.56 123.75 36.3547 124.347 36.984C124.944 37.6027 125.696 37.912 126.603 37.912ZM140.133 30.2H141.461V39H140.133V37.224C139.781 37.832 139.312 38.312 138.725 38.664C138.149 39.0053 137.488 39.176 136.741 39.176C135.546 39.176 134.56 38.7493 133.781 37.896C133.013 37.032 132.629 35.9333 132.629 34.6C132.629 33.2667 133.013 32.1733 133.781 31.32C134.56 30.456 135.546 30.024 136.741 30.024C137.488 30.024 138.154 30.2 138.741 30.552C139.328 30.904 139.792 31.3893 140.133 32.008V30.2ZM136.997 37.912C137.904 37.912 138.656 37.6027 139.253 36.984C139.85 36.3547 140.149 35.56 140.149 34.6C140.149 33.64 139.85 32.8507 139.253 32.232C138.656 31.6027 137.904 31.288 136.997 31.288C136.101 31.288 135.37 31.6027 134.805 32.232C134.25 32.8507 133.973 33.64 133.973 34.6C133.973 35.5707 134.256 36.3653 134.821 36.984C135.386 37.6027 136.112 37.912 136.997 37.912ZM148.289 30.024C148.481 30.024 148.662 30.0347 148.833 30.056V31.416C148.641 31.3947 148.454 31.384 148.273 31.384C147.323 31.384 146.566 31.688 146.001 32.296C145.435 32.8933 145.153 33.7413 145.153 34.84V39H143.825V30.2H145.153V32.168C145.729 30.7387 146.774 30.024 148.289 30.024ZM157.492 30.2H158.82V39H157.492V37.224C157.14 37.832 156.671 38.312 156.084 38.664C155.508 39.0053 154.847 39.176 154.1 39.176C152.906 39.176 151.919 38.7493 151.14 37.896C150.372 37.032 149.988 35.9333 149.988 34.6C149.988 33.2667 150.372 32.1733 151.14 31.32C151.919 30.456 152.906 30.024 154.1 30.024C154.847 30.024 155.514 30.2 156.1 30.552C156.687 30.904 157.151 31.3893 157.492 32.008V30.2ZM154.356 37.912C155.263 37.912 156.015 37.6027 156.612 36.984C157.21 36.3547 157.508 35.56 157.508 34.6C157.508 33.64 157.21 32.8507 156.612 32.232C156.015 31.6027 155.263 31.288 154.356 31.288C153.46 31.288 152.73 31.6027 152.164 32.232C151.61 32.8507 151.332 33.64 151.332 34.6C151.332 35.5707 151.615 36.3653 152.18 36.984C152.746 37.6027 153.471 37.912 154.356 37.912ZM161.232 39V26.68H162.56V39H161.232ZM164.935 39V26.68H166.263V39H164.935ZM172.734 30.024C174.1 30.024 175.188 30.488 175.998 31.416C176.809 32.344 177.188 33.5387 177.134 35H169.598C169.662 35.9067 169.988 36.6213 170.574 37.144C171.161 37.6667 171.902 37.928 172.798 37.928C174.11 37.928 175.028 37.416 175.55 36.392H176.926C176.564 37.2987 176.014 37.992 175.278 38.472C174.542 38.9413 173.7 39.176 172.75 39.176C171.438 39.176 170.356 38.7547 169.502 37.912C168.66 37.0587 168.238 35.9653 168.238 34.632C168.238 33.2987 168.66 32.2 169.502 31.336C170.345 30.4613 171.422 30.024 172.734 30.024ZM172.734 31.272C171.945 31.272 171.273 31.5013 170.718 31.96C170.174 32.4187 169.822 33.016 169.662 33.752H175.694C175.545 33.0053 175.209 32.408 174.686 31.96C174.164 31.5013 173.513 31.272 172.734 31.272ZM179.123 39V26.68H180.451V39H179.123ZM185.274 38.328C185.295 38.648 184.852 39.7893 183.946 41.752H183.002L184.058 39.144C183.631 39.0373 183.418 38.7547 183.418 38.296C183.418 38.0293 183.503 37.8107 183.674 37.64C183.855 37.4693 184.079 37.384 184.346 37.384C184.58 37.384 184.788 37.4587 184.97 37.608C185.162 37.7573 185.263 37.9973 185.274 38.328ZM192.892 39V27.8H194.22V39H192.892ZM212.15 30.2H213.478L210.886 39H209.286L208.422 36.04L207.286 31.576H207.046L205.91 36.04L205.03 39H203.43L200.838 30.2H202.166L202.982 32.968L204.262 37.624L205.526 32.968L206.342 30.2H207.974L208.79 32.968L210.054 37.608L211.334 32.968L212.15 30.2ZM221.836 30.2H223.164V39H221.836V37.224C221.484 37.832 221.015 38.312 220.428 38.664C219.852 39.0053 219.191 39.176 218.444 39.176C217.249 39.176 216.263 38.7493 215.484 37.896C214.716 37.032 214.332 35.9333 214.332 34.6C214.332 33.2667 214.716 32.1733 215.484 31.32C216.263 30.456 217.249 30.024 218.444 30.024C219.191 30.024 219.857 30.2 220.444 30.552C221.031 30.904 221.495 31.3893 221.836 32.008V30.2ZM218.7 37.912C219.607 37.912 220.359 37.6027 220.956 36.984C221.553 36.3547 221.852 35.56 221.852 34.6C221.852 33.64 221.553 32.8507 220.956 32.232C220.359 31.6027 219.607 31.288 218.7 31.288C217.804 31.288 217.073 31.6027 216.508 32.232C215.953 32.8507 215.676 33.64 215.676 34.6C215.676 35.5707 215.959 36.3653 216.524 36.984C217.089 37.6027 217.815 37.912 218.7 37.912ZM229.256 39.176C228.104 39.176 227.149 38.92 226.392 38.408C225.634 37.896 225.17 37.176 225 36.248H226.36C226.53 36.8453 226.845 37.272 227.304 37.528C227.773 37.784 228.424 37.912 229.256 37.912C229.928 37.912 230.472 37.8 230.888 37.576C231.314 37.3413 231.528 37.016 231.528 36.6C231.528 36.344 231.421 36.1307 231.208 35.96C230.994 35.7787 230.765 35.6507 230.52 35.576C230.274 35.5013 229.853 35.3893 229.256 35.24C229.117 35.208 229.01 35.1813 228.936 35.16C227.613 34.8293 226.701 34.504 226.2 34.184C225.698 33.864 225.448 33.3627 225.448 32.68C225.448 31.848 225.773 31.1973 226.424 30.728C227.085 30.2587 227.949 30.024 229.016 30.024C230.04 30.024 230.872 30.248 231.512 30.696C232.162 31.1333 232.578 31.752 232.76 32.552H231.416C231.096 31.7093 230.306 31.288 229.048 31.288C228.354 31.288 227.805 31.4107 227.4 31.656C226.994 31.8907 226.792 32.2 226.792 32.584C226.792 32.9147 226.957 33.16 227.288 33.32C227.618 33.4693 228.28 33.672 229.272 33.928C229.741 34.0453 230.093 34.136 230.328 34.2C230.573 34.264 230.861 34.3547 231.192 34.472C231.533 34.5893 231.784 34.7013 231.944 34.808C232.104 34.9147 232.269 35.0533 232.44 35.224C232.61 35.384 232.728 35.5707 232.792 35.784C232.856 35.9867 232.888 36.2213 232.888 36.488C232.888 37.352 232.541 38.0187 231.848 38.488C231.165 38.9467 230.301 39.176 229.256 39.176ZM243.256 39.176C242.104 39.176 241.149 38.92 240.392 38.408C239.634 37.896 239.17 37.176 239 36.248H240.36C240.53 36.8453 240.845 37.272 241.304 37.528C241.773 37.784 242.424 37.912 243.256 37.912C243.928 37.912 244.472 37.8 244.888 37.576C245.314 37.3413 245.528 37.016 245.528 36.6C245.528 36.344 245.421 36.1307 245.208 35.96C244.994 35.7787 244.765 35.6507 244.52 35.576C244.274 35.5013 243.853 35.3893 243.256 35.24C243.117 35.208 243.01 35.1813 242.936 35.16C241.613 34.8293 240.701 34.504 240.2 34.184C239.698 33.864 239.448 33.3627 239.448 32.68C239.448 31.848 239.773 31.1973 240.424 30.728C241.085 30.2587 241.949 30.024 243.016 30.024C244.04 30.024 244.872 30.248 245.512 30.696C246.162 31.1333 246.578 31.752 246.76 32.552H245.416C245.096 31.7093 244.306 31.288 243.048 31.288C242.354 31.288 241.805 31.4107 241.4 31.656C240.994 31.8907 240.792 32.2 240.792 32.584C240.792 32.9147 240.957 33.16 241.288 33.32C241.618 33.4693 242.28 33.672 243.272 33.928C243.741 34.0453 244.093 34.136 244.328 34.2C244.573 34.264 244.861 34.3547 245.192 34.472C245.533 34.5893 245.784 34.7013 245.944 34.808C246.104 34.9147 246.269 35.0533 246.44 35.224C246.61 35.384 246.728 35.5707 246.792 35.784C246.856 35.9867 246.888 36.2213 246.888 36.488C246.888 37.352 246.541 38.0187 245.848 38.488C245.165 38.9467 244.301 39.176 243.256 39.176ZM252.875 30.024C254.24 30.024 255.328 30.488 256.139 31.416C256.95 32.344 257.328 33.5387 257.275 35H249.739C249.803 35.9067 250.128 36.6213 250.715 37.144C251.302 37.6667 252.043 37.928 252.939 37.928C254.251 37.928 255.168 37.416 255.691 36.392H257.067C256.704 37.2987 256.155 37.992 255.419 38.472C254.683 38.9413 253.84 39.176 252.891 39.176C251.579 39.176 250.496 38.7547 249.643 37.912C248.8 37.0587 248.379 35.9653 248.379 34.632C248.379 33.2987 248.8 32.2 249.643 31.336C250.486 30.4613 251.563 30.024 252.875 30.024ZM252.875 31.272C252.086 31.272 251.414 31.5013 250.859 31.96C250.315 32.4187 249.963 33.016 249.803 33.752H255.835C255.686 33.0053 255.35 32.408 254.827 31.96C254.304 31.5013 253.654 31.272 252.875 31.272ZM265.439 37.512L265.679 38.616C264.975 38.9893 264.181 39.176 263.295 39.176C262.325 39.176 261.557 38.872 260.991 38.264C260.426 37.6453 260.143 36.7707 260.143 35.64V31.448H258.447V30.2H260.143V28.088L261.471 27.8V30.2H265.423V31.448H261.471V35.576C261.471 37.1547 262.154 37.944 263.519 37.944C264.01 37.944 264.65 37.8 265.439 37.512ZM273.564 37.512L273.804 38.616C273.1 38.9893 272.306 39.176 271.42 39.176C270.45 39.176 269.682 38.872 269.116 38.264C268.551 37.6453 268.268 36.7707 268.268 35.64V31.448H266.572V30.2H268.268V28.088L269.596 27.8V30.2H273.548V31.448H269.596V35.576C269.596 37.1547 270.279 37.944 271.644 37.944C272.135 37.944 272.775 37.8 273.564 37.512ZM275.59 26.584C275.772 26.4133 275.996 26.328 276.262 26.328C276.529 26.328 276.748 26.4133 276.918 26.584C277.1 26.7547 277.19 26.9627 277.19 27.208C277.19 27.464 277.1 27.6773 276.918 27.848C276.748 28.0187 276.529 28.104 276.262 28.104C275.996 28.104 275.772 28.0187 275.59 27.848C275.42 27.6773 275.334 27.464 275.334 27.208C275.334 26.9627 275.42 26.7547 275.59 26.584ZM275.59 39V30.2H276.918V39H275.59ZM283.758 30.024C284.75 30.024 285.528 30.3227 286.094 30.92C286.659 31.5173 286.942 32.3493 286.942 33.416V39H285.614V33.672C285.614 32.0827 284.872 31.288 283.39 31.288C282.504 31.288 281.816 31.576 281.326 32.152C280.846 32.728 280.606 33.5067 280.606 34.488V39H279.278V30.2H280.606V31.944C281.246 30.664 282.296 30.024 283.758 30.024ZM296.367 30.2H297.695V38.904C297.695 40.216 297.322 41.256 296.575 42.024C295.829 42.792 294.81 43.176 293.519 43.176C292.442 43.176 291.509 42.8987 290.719 42.344C289.93 41.7893 289.429 41.0107 289.215 40.008H290.591C290.773 40.6373 291.119 41.1227 291.631 41.464C292.154 41.816 292.773 41.992 293.487 41.992C294.405 41.992 295.114 41.7253 295.615 41.192C296.117 40.6693 296.367 39.9173 296.367 38.936V37.16C296.015 37.768 295.546 38.248 294.959 38.6C294.373 38.9413 293.711 39.112 292.975 39.112C291.781 39.112 290.794 38.6853 290.015 37.832C289.247 36.968 288.863 35.88 288.863 34.568C288.863 33.2453 289.247 32.1573 290.015 31.304C290.794 30.4507 291.781 30.024 292.975 30.024C293.701 30.024 294.362 30.2 294.959 30.552C295.557 30.904 296.026 31.384 296.367 31.992V30.2ZM293.231 37.848C294.127 37.848 294.874 37.5387 295.471 36.92C296.079 36.3013 296.383 35.5173 296.383 34.568C296.383 33.6187 296.079 32.8347 295.471 32.216C294.874 31.5973 294.127 31.288 293.231 31.288C292.346 31.288 291.621 31.5973 291.055 32.216C290.49 32.8347 290.207 33.6187 290.207 34.568C290.207 35.5173 290.49 36.3013 291.055 36.92C291.621 37.5387 292.346 37.848 293.231 37.848ZM311.032 30.2H312.36V39H311.032V37.256C310.371 38.536 309.325 39.176 307.896 39.176C306.915 39.176 306.147 38.8773 305.592 38.28C305.048 37.6827 304.776 36.8507 304.776 35.784V30.2H306.104V35.528C306.104 37.1173 306.829 37.912 308.28 37.912C309.144 37.912 309.816 37.624 310.296 37.048C310.787 36.472 311.032 35.6933 311.032 34.712V30.2ZM319.484 30.024C320.679 30.024 321.66 30.456 322.428 31.32C323.207 32.1733 323.596 33.2667 323.596 34.6C323.596 35.9333 323.207 37.032 322.428 37.896C321.649 38.7493 320.663 39.176 319.468 39.176C318.721 39.176 318.055 39.0053 317.468 38.664C316.892 38.312 316.433 37.832 316.092 37.224V43H314.764V30.2H316.092V32.008C316.433 31.3893 316.897 30.904 317.484 30.552C318.071 30.2 318.737 30.024 319.484 30.024ZM319.228 37.912C320.113 37.912 320.839 37.6027 321.404 36.984C321.969 36.3653 322.252 35.5707 322.252 34.6C322.252 33.64 321.969 32.8507 321.404 32.232C320.839 31.6027 320.113 31.288 319.228 31.288C318.321 31.288 317.569 31.6027 316.972 32.232C316.375 32.8507 316.076 33.64 316.076 34.6C316.076 35.56 316.375 36.3547 316.972 36.984C317.569 37.6027 318.321 37.912 319.228 37.912ZM336.627 37.512L336.867 38.616C336.163 38.9893 335.368 39.176 334.483 39.176C333.512 39.176 332.744 38.872 332.179 38.264C331.613 37.6453 331.331 36.7707 331.331 35.64V31.448H329.635V30.2H331.331V28.088L332.659 27.8V30.2H336.611V31.448H332.659V35.576C332.659 37.1547 333.341 37.944 334.707 37.944C335.197 37.944 335.837 37.8 336.627 37.512ZM343.213 30.024C344.215 30.024 344.994 30.3227 345.549 30.92C346.114 31.5173 346.397 32.3493 346.397 33.416V39H345.069V33.672C345.069 32.0827 344.327 31.288 342.845 31.288C341.959 31.288 341.271 31.576 340.781 32.152C340.301 32.728 340.061 33.5067 340.061 34.488V39H338.733V26.68H340.061V31.912C340.711 30.6533 341.762 30.024 343.213 30.024ZM352.828 30.024C354.193 30.024 355.281 30.488 356.092 31.416C356.903 32.344 357.281 33.5387 357.228 35H349.692C349.756 35.9067 350.081 36.6213 350.668 37.144C351.255 37.6667 351.996 37.928 352.892 37.928C354.204 37.928 355.121 37.416 355.644 36.392H357.02C356.657 37.2987 356.108 37.992 355.372 38.472C354.636 38.9413 353.793 39.176 352.844 39.176C351.532 39.176 350.449 38.7547 349.596 37.912C348.753 37.0587 348.332 35.9653 348.332 34.632C348.332 33.2987 348.753 32.2 349.596 31.336C350.439 30.4613 351.516 30.024 352.828 30.024ZM352.828 31.272C352.039 31.272 351.367 31.5013 350.812 31.96C350.268 32.4187 349.916 33.016 349.756 33.752H355.788C355.639 33.0053 355.303 32.408 354.78 31.96C354.257 31.5013 353.607 31.272 352.828 31.272ZM371.293 29.064H365.517V32.696H370.909V33.96H365.517V39H364.189V27.8H371.293V29.064ZM372.934 26.584C373.115 26.4133 373.339 26.328 373.606 26.328C373.873 26.328 374.091 26.4133 374.262 26.584C374.443 26.7547 374.534 26.9627 374.534 27.208C374.534 27.464 374.443 27.6773 374.262 27.848C374.091 28.0187 373.873 28.104 373.606 28.104C373.339 28.104 373.115 28.0187 372.934 27.848C372.763 27.6773 372.678 27.464 372.678 27.208C372.678 26.9627 372.763 26.7547 372.934 26.584ZM372.934 39V30.2H374.262V39H372.934ZM381.086 30.024C381.278 30.024 381.459 30.0347 381.63 30.056V31.416C381.438 31.3947 381.251 31.384 381.07 31.384C380.12 31.384 379.363 31.688 378.798 32.296C378.232 32.8933 377.95 33.7413 377.95 34.84V39H376.622V30.2H377.95V32.168C378.526 30.7387 379.571 30.024 381.086 30.024ZM387.219 30.024C388.584 30.024 389.672 30.488 390.483 31.416C391.293 32.344 391.672 33.5387 391.619 35H384.083C384.147 35.9067 384.472 36.6213 385.059 37.144C385.645 37.6667 386.387 37.928 387.283 37.928C388.595 37.928 389.512 37.416 390.035 36.392H391.411C391.048 37.2987 390.499 37.992 389.763 38.472C389.027 38.9413 388.184 39.176 387.235 39.176C385.923 39.176 384.84 38.7547 383.987 37.912C383.144 37.0587 382.723 35.9653 382.723 34.632C382.723 33.2987 383.144 32.2 383.987 31.336C384.829 30.4613 385.907 30.024 387.219 30.024ZM387.219 31.272C386.429 31.272 385.757 31.5013 385.203 31.96C384.659 32.4187 384.307 33.016 384.147 33.752H390.179C390.029 33.0053 389.693 32.408 389.171 31.96C388.648 31.5013 387.997 31.272 387.219 31.272ZM398.279 30.024C399.474 30.024 400.455 30.456 401.223 31.32C402.002 32.1733 402.391 33.2667 402.391 34.6C402.391 35.9333 402.002 37.032 401.223 37.896C400.444 38.7493 399.458 39.176 398.263 39.176C397.516 39.176 396.85 39.0053 396.263 38.664C395.687 38.312 395.228 37.832 394.887 37.224V39H393.559V26.68H394.887V32.008C395.228 31.3893 395.692 30.904 396.279 30.552C396.866 30.2 397.532 30.024 398.279 30.024ZM398.023 37.912C398.908 37.912 399.634 37.6027 400.199 36.984C400.764 36.3653 401.047 35.5707 401.047 34.6C401.047 33.64 400.764 32.8507 400.199 32.232C399.634 31.6027 398.908 31.288 398.023 31.288C397.116 31.288 396.364 31.6027 395.767 32.232C395.17 32.8507 394.871 33.64 394.871 34.6C394.871 35.56 395.17 36.3547 395.767 36.984C396.364 37.6027 397.116 37.912 398.023 37.912ZM411.555 30.2H412.883V39H411.555V37.224C411.203 37.832 410.733 38.312 410.147 38.664C409.571 39.0053 408.909 39.176 408.163 39.176C406.968 39.176 405.981 38.7493 405.203 37.896C404.435 37.032 404.051 35.9333 404.051 34.6C404.051 33.2667 404.435 32.1733 405.203 31.32C405.981 30.456 406.968 30.024 408.163 30.024C408.909 30.024 409.576 30.2 410.163 30.552C410.749 30.904 411.213 31.3893 411.555 32.008V30.2ZM408.419 37.912C409.325 37.912 410.077 37.6027 410.675 36.984C411.272 36.3547 411.571 35.56 411.571 34.6C411.571 33.64 411.272 32.8507 410.675 32.232C410.077 31.6027 409.325 31.288 408.419 31.288C407.523 31.288 406.792 31.6027 406.227 32.232C405.672 32.8507 405.395 33.64 405.395 34.6C405.395 35.5707 405.677 36.3653 406.243 36.984C406.808 37.6027 407.533 37.912 408.419 37.912ZM418.975 39.176C417.823 39.176 416.868 38.92 416.111 38.408C415.353 37.896 414.889 37.176 414.719 36.248H416.079C416.249 36.8453 416.564 37.272 417.023 37.528C417.492 37.784 418.143 37.912 418.975 37.912C419.647 37.912 420.191 37.8 420.607 37.576C421.033 37.3413 421.247 37.016 421.247 36.6C421.247 36.344 421.14 36.1307 420.927 35.96C420.713 35.7787 420.484 35.6507 420.239 35.576C419.993 35.5013 419.572 35.3893 418.975 35.24C418.836 35.208 418.729 35.1813 418.655 35.16C417.332 34.8293 416.42 34.504 415.919 34.184C415.417 33.864 415.167 33.3627 415.167 32.68C415.167 31.848 415.492 31.1973 416.143 30.728C416.804 30.2587 417.668 30.024 418.735 30.024C419.759 30.024 420.591 30.248 421.231 30.696C421.881 31.1333 422.297 31.752 422.479 32.552H421.135C420.815 31.7093 420.025 31.288 418.766 31.288C418.073 31.288 417.524 31.4107 417.119 31.656C416.713 31.8907 416.511 32.2 416.511 32.584C416.511 32.9147 416.676 33.16 417.007 33.32C417.337 33.4693 417.999 33.672 418.991 33.928C419.46 34.0453 419.812 34.136 420.047 34.2C420.292 34.264 420.58 34.3547 420.911 34.472C421.252 34.5893 421.503 34.7013 421.663 34.808C421.823 34.9147 421.988 35.0533 422.159 35.224C422.329 35.384 422.447 35.5707 422.51 35.784C422.575 35.9867 422.607 36.2213 422.607 36.488C422.607 37.352 422.26 38.0187 421.567 38.488C420.884 38.9467 420.02 39.176 418.975 39.176ZM428.594 30.024C429.959 30.024 431.047 30.488 431.858 31.416C432.668 32.344 433.047 33.5387 432.994 35H425.458C425.522 35.9067 425.847 36.6213 426.434 37.144C427.02 37.6667 427.762 37.928 428.658 37.928C429.97 37.928 430.887 37.416 431.41 36.392H432.786C432.423 37.2987 431.874 37.992 431.138 38.472C430.402 38.9413 429.559 39.176 428.61 39.176C427.298 39.176 426.215 38.7547 425.362 37.912C424.519 37.0587 424.098 35.9653 424.098 34.632C424.098 33.2987 424.519 32.2 425.362 31.336C426.204 30.4613 427.282 30.024 428.594 30.024ZM428.594 31.272C427.804 31.272 427.132 31.5013 426.578 31.96C426.034 32.4187 425.682 33.016 425.522 33.752H431.554C431.404 33.0053 431.068 32.408 430.546 31.96C430.023 31.5013 429.372 31.272 428.594 31.272ZM446.883 30.2H448.211V39H446.883V37.224C446.531 37.832 446.062 38.312 445.475 38.664C444.899 39.0053 444.238 39.176 443.491 39.176C442.296 39.176 441.31 38.7493 440.531 37.896C439.763 37.032 439.379 35.9333 439.379 34.6C439.379 33.2667 439.763 32.1733 440.531 31.32C441.31 30.456 442.296 30.024 443.491 30.024C444.238 30.024 444.904 30.2 445.491 30.552C446.078 30.904 446.542 31.3893 446.883 32.008V30.2ZM443.747 37.912C444.654 37.912 445.406 37.6027 446.003 36.984C446.6 36.3547 446.899 35.56 446.899 34.6C446.899 33.64 446.6 32.8507 446.003 32.232C445.406 31.6027 444.654 31.288 443.747 31.288C442.851 31.288 442.12 31.6027 441.555 32.232C441 32.8507 440.723 33.64 440.723 34.6C440.723 35.5707 441.006 36.3653 441.571 36.984C442.136 37.6027 442.862 37.912 443.747 37.912ZM455.055 30.024C456.047 30.024 456.825 30.3227 457.391 30.92C457.956 31.5173 458.239 32.3493 458.239 33.416V39H456.911V33.672C456.911 32.0827 456.169 31.288 454.687 31.288C453.801 31.288 453.113 31.576 452.623 32.152C452.143 32.728 451.903 33.5067 451.903 34.488V39H450.575V30.2H451.903V31.944C452.543 30.664 453.593 30.024 455.055 30.024ZM467.728 26.68H469.056V39H467.728V37.224C467.387 37.832 466.923 38.312 466.336 38.664C465.749 39.0053 465.083 39.176 464.336 39.176C463.141 39.176 462.155 38.7493 461.376 37.896C460.608 37.032 460.224 35.9333 460.224 34.6C460.224 33.2667 460.608 32.1733 461.376 31.32C462.155 30.456 463.141 30.024 464.336 30.024C465.083 30.024 465.749 30.2 466.336 30.552C466.923 30.904 467.387 31.3893 467.728 32.008V26.68ZM464.592 37.912C465.499 37.912 466.251 37.6027 466.848 36.984C467.445 36.3547 467.744 35.56 467.744 34.6C467.744 33.64 467.445 32.8507 466.848 32.232C466.251 31.6027 465.499 31.288 464.592 31.288C463.707 31.288 462.981 31.6027 462.416 32.232C461.851 32.8507 461.568 33.64 461.568 34.6C461.568 35.5707 461.851 36.3653 462.416 36.984C462.981 37.6027 463.707 37.912 464.592 37.912ZM483.543 29.064H477.767V32.696H483.159V33.96H477.767V39H476.439V27.8H483.543V29.064ZM485.482 39V26.68H486.81V39H485.482ZM495.313 30.2H496.641V39H495.313V37.256C494.652 38.536 493.606 39.176 492.177 39.176C491.196 39.176 490.428 38.8773 489.873 38.28C489.329 37.6827 489.057 36.8507 489.057 35.784V30.2H490.385V35.528C490.385 37.1173 491.11 37.912 492.561 37.912C493.425 37.912 494.097 37.624 494.577 37.048C495.068 36.472 495.313 35.6933 495.313 34.712V30.2ZM505.189 37.512L505.429 38.616C504.725 38.9893 503.931 39.176 503.045 39.176C502.075 39.176 501.307 38.872 500.741 38.264C500.176 37.6453 499.893 36.7707 499.893 35.64V31.448H498.197V30.2H499.893V28.088L501.221 27.8V30.2H505.173V31.448H501.221V35.576C501.221 37.1547 501.904 37.944 503.269 37.944C503.76 37.944 504.4 37.8 505.189 37.512ZM513.314 37.512L513.554 38.616C512.85 38.9893 512.056 39.176 511.17 39.176C510.2 39.176 509.432 38.872 508.866 38.264C508.301 37.6453 508.018 36.7707 508.018 35.64V31.448H506.322V30.2H508.018V28.088L509.346 27.8V30.2H513.298V31.448H509.346V35.576C509.346 37.1547 510.029 37.944 511.394 37.944C511.885 37.944 512.525 37.8 513.314 37.512ZM519.094 30.024C520.459 30.024 521.547 30.488 522.358 31.416C523.168 32.344 523.547 33.5387 523.494 35H515.958C516.022 35.9067 516.347 36.6213 516.934 37.144C517.52 37.6667 518.262 37.928 519.158 37.928C520.47 37.928 521.387 37.416 521.91 36.392H523.286C522.923 37.2987 522.374 37.992 521.638 38.472C520.902 38.9413 520.059 39.176 519.11 39.176C517.798 39.176 516.715 38.7547 515.862 37.912C515.019 37.0587 514.598 35.9653 514.598 34.632C514.598 33.2987 515.019 32.2 515.862 31.336C516.704 30.4613 517.782 30.024 519.094 30.024ZM519.094 31.272C518.304 31.272 517.632 31.5013 517.078 31.96C516.534 32.4187 516.182 33.016 516.022 33.752H522.054C521.904 33.0053 521.568 32.408 521.046 31.96C520.523 31.5013 519.872 31.272 519.094 31.272ZM529.898 30.024C530.09 30.024 530.271 30.0347 530.442 30.056V31.416C530.25 31.3947 530.063 31.384 529.882 31.384C528.933 31.384 528.175 31.688 527.61 32.296C527.045 32.8933 526.762 33.7413 526.762 34.84V39H525.434V30.2H526.762V32.168C527.338 30.7387 528.383 30.024 529.898 30.024ZM540.984 30.024C542.35 30.024 543.438 30.488 544.248 31.416C545.059 32.344 545.438 33.5387 545.384 35H537.848C537.912 35.9067 538.238 36.6213 538.824 37.144C539.411 37.6667 540.152 37.928 541.048 37.928C542.36 37.928 543.278 37.416 543.8 36.392H545.176C544.814 37.2987 544.264 37.992 543.528 38.472C542.792 38.9413 541.95 39.176 541 39.176C539.688 39.176 538.606 38.7547 537.752 37.912C536.91 37.0587 536.488 35.9653 536.488 34.632C536.488 33.2987 536.91 32.2 537.752 31.336C538.595 30.4613 539.672 30.024 540.984 30.024ZM540.984 31.272C540.195 31.272 539.523 31.5013 538.968 31.96C538.424 32.4187 538.072 33.016 537.912 33.752H543.944C543.795 33.0053 543.459 32.408 542.936 31.96C542.414 31.5013 541.763 31.272 540.984 31.272ZM551.805 30.024C552.797 30.024 553.575 30.3227 554.141 30.92C554.706 31.5173 554.989 32.3493 554.989 33.416V39H553.661V33.672C553.661 32.0827 552.919 31.288 551.437 31.288C550.551 31.288 549.863 31.576 549.373 32.152C548.893 32.728 548.653 33.5067 548.653 34.488V39H547.325V30.2H548.653V31.944C549.293 30.664 550.343 30.024 551.805 30.024ZM563.155 30.2H564.579L561.267 39H559.619L556.307 30.2H557.731L560.435 37.672L563.155 30.2ZM566.184 26.584C566.365 26.4133 566.589 26.328 566.856 26.328C567.123 26.328 567.341 26.4133 567.512 26.584C567.693 26.7547 567.784 26.9627 567.784 27.208C567.784 27.464 567.693 27.6773 567.512 27.848C567.341 28.0187 567.123 28.104 566.856 28.104C566.589 28.104 566.365 28.0187 566.184 27.848C566.013 27.6773 565.928 27.464 565.928 27.208C565.928 26.9627 566.013 26.7547 566.184 26.584ZM566.184 39V30.2H567.512V39H566.184ZM574.336 30.024C574.528 30.024 574.709 30.0347 574.88 30.056V31.416C574.688 31.3947 574.501 31.384 574.32 31.384C573.37 31.384 572.613 31.688 572.048 32.296C571.482 32.8933 571.2 33.7413 571.2 34.84V39H569.872V30.2H571.2V32.168C571.776 30.7387 572.821 30.024 574.336 30.024ZM580.501 30.024C581.77 30.024 582.842 30.4613 583.717 31.336C584.602 32.2 585.045 33.288 585.045 34.6C585.045 35.912 584.607 37.0053 583.733 37.88C582.858 38.744 581.781 39.176 580.501 39.176C579.231 39.176 578.159 38.7387 577.285 37.864C576.41 36.9893 575.973 35.9013 575.973 34.6C575.973 33.2987 576.41 32.2107 577.285 31.336C578.17 30.4613 579.242 30.024 580.501 30.024ZM582.773 32.232C582.154 31.6027 581.397 31.288 580.501 31.288C579.605 31.288 578.847 31.6027 578.229 32.232C577.621 32.8507 577.317 33.64 577.317 34.6C577.317 35.56 577.621 36.3547 578.229 36.984C578.847 37.6027 579.605 37.912 580.501 37.912C581.407 37.912 582.165 37.6027 582.773 36.984C583.391 36.3547 583.701 35.56 583.701 34.6C583.701 33.64 583.391 32.8507 582.773 32.232ZM591.523 30.024C592.515 30.024 593.294 30.3227 593.859 30.92C594.425 31.5173 594.707 32.3493 594.707 33.416V39H593.379V33.672C593.379 32.0827 592.638 31.288 591.155 31.288C590.27 31.288 589.582 31.576 589.091 32.152C588.611 32.728 588.371 33.5067 588.371 34.488V39H587.043V30.2H588.371V31.944C589.011 30.664 590.062 30.024 591.523 30.024ZM606.949 30.024C607.877 30.024 608.597 30.312 609.109 30.888C609.621 31.4533 609.877 32.2533 609.877 33.288V39H608.549V33.528C608.549 32.0347 607.888 31.288 606.565 31.288C605.765 31.288 605.152 31.5867 604.725 32.184C604.298 32.7813 604.085 33.5493 604.085 34.488L604.101 39H602.757V33.528C602.757 32.0347 602.096 31.288 600.773 31.288C599.984 31.288 599.376 31.5867 598.949 32.184C598.522 32.7813 598.309 33.5493 598.309 34.488V39H596.981V30.2H598.309V31.864C598.928 30.6373 599.882 30.024 601.173 30.024C601.888 30.024 602.48 30.2 602.949 30.552C603.418 30.8933 603.744 31.3893 603.925 32.04C604.544 30.696 605.552 30.024 606.949 30.024ZM616.312 30.024C617.678 30.024 618.766 30.488 619.576 31.416C620.387 32.344 620.766 33.5387 620.712 35H613.176C613.24 35.9067 613.566 36.6213 614.152 37.144C614.739 37.6667 615.48 37.928 616.376 37.928C617.688 37.928 618.606 37.416 619.128 36.392H620.504C620.142 37.2987 619.592 37.992 618.856 38.472C618.12 38.9413 617.278 39.176 616.328 39.176C615.016 39.176 613.934 38.7547 613.08 37.912C612.238 37.0587 611.816 35.9653 611.816 34.632C611.816 33.2987 612.238 32.2 613.08 31.336C613.923 30.4613 615 30.024 616.312 30.024ZM616.312 31.272C615.523 31.272 614.851 31.5013 614.296 31.96C613.752 32.4187 613.4 33.016 613.24 33.752H619.272C619.123 33.0053 618.787 32.408 618.264 31.96C617.742 31.5013 617.091 31.272 616.312 31.272ZM627.133 30.024C628.125 30.024 628.903 30.3227 629.469 30.92C630.034 31.5173 630.317 32.3493 630.317 33.416V39H628.989V33.672C628.989 32.0827 628.247 31.288 626.765 31.288C625.879 31.288 625.191 31.576 624.701 32.152C624.221 32.728 623.981 33.5067 623.981 34.488V39H622.653V30.2H623.981V31.944C624.621 30.664 625.671 30.024 627.133 30.024ZM638.627 37.512L638.867 38.616C638.163 38.9893 637.368 39.176 636.483 39.176C635.512 39.176 634.744 38.872 634.179 38.264C633.613 37.6453 633.331 36.7707 633.331 35.64V31.448H631.635V30.2H633.331V28.088L634.659 27.8V30.2H638.611V31.448H634.659V35.576C634.659 37.1547 635.341 37.944 636.707 37.944C637.197 37.944 637.837 37.8 638.627 37.512ZM644.256 39.176C643.104 39.176 642.149 38.92 641.392 38.408C640.634 37.896 640.17 37.176 640 36.248H641.36C641.53 36.8453 641.845 37.272 642.304 37.528C642.773 37.784 643.424 37.912 644.256 37.912C644.928 37.912 645.472 37.8 645.888 37.576C646.314 37.3413 646.528 37.016 646.528 36.6C646.528 36.344 646.421 36.1307 646.208 35.96C645.994 35.7787 645.765 35.6507 645.52 35.576C645.274 35.5013 644.853 35.3893 644.256 35.24C644.117 35.208 644.01 35.1813 643.936 35.16C642.613 34.8293 641.701 34.504 641.2 34.184C640.698 33.864 640.448 33.3627 640.448 32.68C640.448 31.848 640.773 31.1973 641.424 30.728C642.085 30.2587 642.949 30.024 644.016 30.024C645.04 30.024 645.872 30.248 646.512 30.696C647.162 31.1333 647.578 31.752 647.76 32.552H646.416C646.096 31.7093 645.306 31.288 644.048 31.288C643.354 31.288 642.805 31.4107 642.4 31.656C641.994 31.8907 641.792 32.2 641.792 32.584C641.792 32.9147 641.957 33.16 642.288 33.32C642.618 33.4693 643.28 33.672 644.272 33.928C644.741 34.0453 645.093 34.136 645.328 34.2C645.573 34.264 645.861 34.3547 646.192 34.472C646.533 34.5893 646.784 34.7013 646.944 34.808C647.104 34.9147 647.269 35.0533 647.44 35.224C647.61 35.384 647.728 35.5707 647.792 35.784C647.856 35.9867 647.888 36.2213 647.888 36.488C647.888 37.352 647.541 38.0187 646.848 38.488C646.165 38.9467 645.301 39.176 644.256 39.176Z" fill="#48494B"/>
<g clip-path="url(#clip0_950_489)">
<path d="M304.064 230.668C304.07 229.58 303.846 228.503 303.407 227.508C302.968 226.512 302.324 225.621 301.517 224.892C300.71 224.163 299.758 223.613 298.723 223.278C297.689 222.943 296.595 222.83 295.514 222.947C295.172 222.986 294.833 223.048 294.5 223.134L268.378 200.734L269.939 192.316L257.064 188.141L253.183 201.631C252.723 203.25 252.798 204.974 253.396 206.547C253.994 208.12 255.082 209.459 256.501 210.364L288.635 230.697C288.635 230.95 288.648 231.203 288.674 231.455C288.792 232.536 289.136 233.581 289.685 234.52C290.234 235.459 290.975 236.272 291.86 236.904C292.745 237.537 293.753 237.975 294.819 238.191C295.885 238.406 296.984 238.394 298.045 238.155C298.353 238.086 298.657 237.999 298.955 237.892C300.442 237.354 301.729 236.373 302.642 235.082C303.556 233.79 304.052 232.25 304.064 230.668Z" fill="#FFB6B6"/>
<path d="M239.122 256.647H272.802C272.802 257.616 307.512 258.402 307.512 258.402C308.057 258.812 308.554 259.283 308.993 259.806C310.311 261.379 311.032 263.367 311.027 265.42V266.824C311.026 269.15 310.102 271.381 308.458 273.026C306.814 274.671 304.584 275.596 302.258 275.597H239.122C236.797 275.595 234.568 274.67 232.924 273.025C231.28 271.38 230.356 269.15 230.354 266.824V265.42C230.357 263.094 231.282 260.865 232.925 259.22C234.569 257.576 236.798 256.651 239.122 256.647Z" fill="#3F3D56"/>
<path d="M275.758 275.248H266.638V334.202H275.758V275.248Z" fill="#3F3D56"/>
<path d="M301.714 334.936C301.714 336.039 287.894 335.362 270.847 335.362C253.8 335.362 239.981 336.039 239.981 334.936C239.981 333.832 253.8 325.078 270.847 325.078C287.894 325.078 301.714 333.832 301.714 334.936Z" fill="#3F3D56"/>
<path d="M293.481 326.972L302.081 326.971L306.172 304.655L293.479 304.656L293.481 326.972Z" fill="#FFB6B6"/>
<path d="M291.287 335.312L319.018 335.311V334.96C319.018 333.542 318.739 332.138 318.197 330.828C317.654 329.518 316.859 328.327 315.857 327.325C314.855 326.322 313.665 325.526 312.356 324.984C311.046 324.441 309.643 324.162 308.225 324.162H308.224L291.287 324.162L291.287 335.312Z" fill="#2F2E41"/>
<path d="M306.344 313.133L323.49 274.667C324.921 271.425 325.079 267.763 323.933 264.409C322.787 261.056 320.42 258.257 317.303 256.571L280.114 236.62L263.144 235.175L247.49 233.752L247.377 233.943C247.232 234.187 243.867 240.003 246.142 246.381C247.867 251.218 252.356 254.997 259.484 257.612C276.119 263.714 295.337 268.93 302.827 270.889C303.158 270.974 303.468 271.127 303.735 271.34C304.002 271.553 304.222 271.82 304.378 272.124C304.536 272.424 304.629 272.754 304.653 273.092C304.677 273.43 304.63 273.769 304.516 274.088L288.587 309.892C288.421 310.346 288.361 310.832 288.412 311.313C288.463 311.794 288.624 312.257 288.883 312.666C289.141 313.075 289.489 313.419 289.902 313.671C290.314 313.924 290.778 314.079 291.26 314.124L303.162 314.991C303.263 315 303.363 315.005 303.464 315.005C304.073 315.005 304.67 314.828 305.181 314.496C305.692 314.163 306.096 313.69 306.344 313.133Z" fill="#CBCBCB"/>
<path d="M287.869 326.972L296.468 326.971L300.561 304.655L287.867 304.656L287.869 326.972Z" fill="#FFB6B6"/>
<path d="M285.675 335.312L313.406 335.311V334.96C313.406 333.542 313.127 332.138 312.585 330.828C312.042 329.518 311.247 328.327 310.245 327.325C309.243 326.322 308.053 325.526 306.744 324.984C305.434 324.441 304.03 324.162 302.613 324.162H302.612L285.675 324.162L285.675 335.312Z" fill="#2F2E41"/>
<path d="M300.03 315.239L317.176 276.773C318.607 273.531 318.766 269.868 317.619 266.515C316.473 263.161 314.106 260.363 310.99 258.677L273.8 238.725L256.83 237.281L244.569 236.217L244.571 236.049C244.426 236.293 241.06 242.109 243.336 248.486C245.061 253.324 246.043 257.102 253.17 259.717C269.806 265.82 289.023 271.036 296.514 272.994C296.845 273.079 297.154 273.233 297.421 273.446C297.689 273.659 297.908 273.926 298.065 274.229C298.222 274.53 298.315 274.859 298.339 275.197C298.363 275.535 298.316 275.875 298.202 276.194L282.274 311.997C282.107 312.452 282.047 312.938 282.099 313.419C282.15 313.9 282.311 314.362 282.569 314.771C282.827 315.18 283.176 315.524 283.588 315.777C284 316.03 284.465 316.184 284.946 316.229L296.848 317.096C296.949 317.106 297.05 317.11 297.15 317.11C297.759 317.11 298.356 316.933 298.867 316.601C299.378 316.269 299.782 315.796 300.03 315.239Z" fill="#CBCBCB"/>
<path d="M267.719 236.919C268.541 236.337 280.346 242.533 282.45 237.621C272.629 213.056 279.397 202.449 273.381 188.363C272.321 185.933 270.725 183.776 268.712 182.052C266.699 180.328 264.322 179.083 261.759 178.411L246.151 177.623L246.07 177.662C242.548 179.388 239.675 182.203 237.879 185.691C236.082 189.179 235.456 193.153 236.095 197.024C236.151 212.355 245.319 224.047 242.113 235.166C241.979 235.631 241.939 236.118 241.998 236.599C242.056 237.079 242.211 237.543 242.452 237.962C242.687 238.367 243.002 238.72 243.378 238.999C243.754 239.277 244.183 239.476 244.638 239.583L265.247 236.832C265.729 236.947 266.229 236.957 266.715 236.863C267.201 236.769 267.661 236.573 268.065 236.287L267.719 236.919Z" fill="#2F2E41"/>
<path d="M251.36 171.79C260.876 171.79 268.59 164.073 268.59 154.553C268.59 145.033 260.876 137.315 251.36 137.315C241.844 137.315 234.13 145.033 234.13 154.553C234.13 164.073 241.844 171.79 251.36 171.79Z" fill="#FFB6B6"/>
<path d="M245.872 170.375C246.787 170.776 248.662 163.478 247.822 162.018C246.573 159.847 246.647 159.863 245.818 158.427C244.989 156.991 244.804 155.025 245.877 153.761C246.951 152.498 249.435 152.665 249.925 154.25C249.61 151.24 252.585 148.821 255.532 148.141C258.479 147.462 261.588 147.884 264.551 147.279C267.991 146.577 271.569 143.693 270.197 139.909C269.961 139.279 269.609 138.699 269.158 138.201C267.572 136.417 265.355 135.656 263.186 134.92C258.676 133.388 254.041 131.837 249.281 132.006C241.459 132.284 234.065 137.693 231.43 145.067C231.102 145.987 230.848 146.931 230.67 147.892C229.036 156.682 234.138 165.352 242.425 168.699L245.872 170.375Z" fill="#2F2E41"/>
<path d="M336.228 198.094L338.204 209.832C338.226 209.963 338.212 210.097 338.162 210.22L322.661 248.97C322.6 249.123 322.488 249.251 322.344 249.332C322.2 249.413 322.032 249.442 321.869 249.414C321.706 249.386 321.558 249.303 321.449 249.179C321.34 249.055 321.276 248.897 321.269 248.732L320.613 233.16C320.608 233.057 320.626 232.954 320.665 232.858L334.847 197.942C334.906 197.797 335.011 197.674 335.146 197.594C335.281 197.513 335.439 197.479 335.595 197.496C335.751 197.513 335.898 197.581 336.012 197.689C336.126 197.797 336.202 197.939 336.228 198.094Z" fill="#3F3D56"/>
<path d="M335.131 198.995L337.009 209.079L323.253 244.439L321.467 233.065L335.131 198.995Z" fill="#1A73E8"/>
<path d="M274.946 248.79C275.285 250.112 319.721 251.542 320.181 251.143C320.595 250.63 320.953 250.076 321.25 249.488C321.716 248.656 322.147 247.822 322.147 247.822L321.417 233.762L277.644 229.082C277.644 229.082 275.707 240.815 275.1 246.205C274.962 247.059 274.911 247.925 274.946 248.79Z" fill="#3F3D56"/>
<path opacity="0.1" d="M315.69 235.249L315.694 247.362L296.333 245.985L297.19 233.933L315.69 235.249Z" fill="#1F1F1F"/>
<path opacity="0.1" d="M290.461 237.348L290.578 237.333L289.664 242.483L278.908 241.718L279.275 236.552L290.461 237.348Z" fill="#1F1F1F"/>
<path opacity="0.1" d="M274.946 248.79C275.285 250.112 319.721 251.542 320.181 251.142C320.595 250.63 320.953 250.076 321.25 249.488L275.1 246.205C274.962 247.059 274.911 247.925 274.946 248.79Z" fill="#1F1F1F"/>
<path d="M257.104 227.794L294.587 234.793C294.681 235.027 294.787 235.257 294.904 235.481C295.414 236.44 296.119 237.281 296.974 237.949C297.829 238.617 298.816 239.098 299.869 239.359C300.926 239.625 302.028 239.662 303.101 239.468C304.174 239.274 305.192 238.852 306.089 238.232C307.714 237.116 308.85 235.421 309.265 233.494C309.681 231.567 309.343 229.554 308.323 227.867C307.302 226.181 305.676 224.949 303.776 224.424C301.877 223.899 299.849 224.121 298.108 225.044C297.804 225.207 297.513 225.391 297.235 225.594L264.678 214.467L263.011 206.069L249.507 206.963L250.906 221.04C251.076 222.683 251.77 224.228 252.887 225.444C254.003 226.661 255.482 227.485 257.104 227.794Z" fill="#FFB6B6"/>
<path d="M249.049 213.242L268.672 206.79L264.095 193.64C263.487 191.894 262.282 190.42 260.692 189.476C259.103 188.533 257.231 188.183 255.408 188.487C253.564 188.794 251.891 189.751 250.69 191.185C249.49 192.619 248.841 194.435 248.862 196.305L249.049 213.242Z" fill="#2F2E41"/>
<path d="M373.531 336H208.932C208.817 336 208.708 335.954 208.627 335.873C208.546 335.792 208.5 335.682 208.5 335.568C208.5 335.453 208.546 335.343 208.627 335.262C208.708 335.181 208.817 335.136 208.932 335.136H373.531C373.646 335.136 373.756 335.181 373.837 335.262C373.918 335.343 373.963 335.453 373.963 335.568C373.963 335.682 373.918 335.792 373.837 335.873C373.756 335.954 373.646 336 373.531 336Z" fill="#CBCBCB"/>
<path d="M542.899 77.4939H342.597V172.584H542.899V77.4939Z" fill="#E6E6E6"/>
<path d="M537.172 85.6481H348.325V164.985H537.172V85.6481Z" fill="#F1F1EF"/>
<path d="M542.814 72H342.512V80.5133H542.814V72Z" fill="#C6CAE2"/>
<path d="M348.836 78.5839C349.707 78.5839 350.413 77.8774 350.413 77.006C350.413 76.1345 349.707 75.4281 348.836 75.4281C347.965 75.4281 347.259 76.1345 347.259 77.006C347.259 77.8774 347.965 78.5839 348.836 78.5839Z" fill="#F1F1EF"/>
<path d="M354.822 78.5839C355.693 78.5839 356.399 77.8774 356.399 77.006C356.399 76.1345 355.693 75.4281 354.822 75.4281C353.951 75.4281 353.245 76.1345 353.245 77.006C353.245 77.8774 353.951 78.5839 354.822 78.5839Z" fill="#F1F1EF"/>
<path d="M360.809 78.5839C361.68 78.5839 362.386 77.8774 362.386 77.006C362.386 76.1345 361.68 75.4281 360.809 75.4281C359.938 75.4281 359.232 76.1345 359.232 77.006C359.232 77.8774 359.938 78.5839 360.809 78.5839Z" fill="#F1F1EF"/>
<rect x="348.441" y="85.831" width="188.792" height="22.9075" fill="#1A73E8"/>
<rect x="405.036" y="100.526" width="21.6009" height="21.6109" fill="#D9D9D9"/>
<rect x="405.036" y="127.324" width="21.6009" height="21.6109" fill="#D9D9D9"/>
<rect x="431.821" y="100.526" width="21.6009" height="21.6109" fill="#D9D9D9"/>
<rect x="431.821" y="127.324" width="21.6009" height="21.6109" fill="#D9D9D9"/>
<rect x="458.606" y="100.526" width="21.6009" height="21.6109" fill="#D9D9D9"/>
<rect x="458.606" y="127.324" width="21.6009" height="21.6109" fill="#D9D9D9"/>
<g clip-path="url(#clip1_950_489)">
<path d="M352.329 101.622L352.415 101.501L356.482 93.7816L356.49 93.6999L354.698 90.3311C354.548 90.0489 354.125 90.1203 354.076 90.4362L352.329 101.622Z" fill="#FFC24A"/>
<path d="M352.38 101.53L352.445 101.403L356.469 93.7642L354.681 90.3818C354.532 90.1026 354.155 90.1738 354.106 90.4864L352.38 101.53Z" fill="#FFA712"/>
<g filter="url(#filter0_i_950_489)">
<path d="M352.38 101.53L352.445 101.403L356.469 93.7642L354.681 90.3818C354.532 90.1026 354.155 90.1738 354.106 90.4864L352.38 101.53Z" fill="#FDA612"/>
</g>
<path d="M357.797 96.2481L359.132 94.8805L357.797 92.3305C357.67 92.0892 357.316 92.0884 357.191 92.3305L356.478 93.6915V93.8074L357.797 96.2481H357.797Z" fill="#F4BD62"/>
<path d="M357.773 96.1911L359.071 94.8615L357.773 92.3895C357.65 92.1548 357.351 92.1302 357.229 92.3656L356.512 93.7477L356.49 93.8183L357.773 96.1911Z" fill="#FFA50E"/>
<g filter="url(#filter1_i_950_489)">
<path d="M357.773 96.1911L359.071 94.8615L357.773 92.3895C357.65 92.1548 357.351 92.1302 357.229 92.3656L356.512 93.7477L356.49 93.8183L357.773 96.1911Z" fill="#FFA50E"/>
</g>
<path d="M352.329 101.622L352.368 101.583L352.51 101.525L357.713 96.3384L357.779 96.1589L356.481 93.6841L352.329 101.622Z" fill="#F6820C"/>
<path d="M357.964 104.237L362.673 101.61L361.329 93.3236C361.286 93.0644 360.969 92.9619 360.783 93.1478L352.329 101.622L357.012 104.237C357.157 104.319 357.321 104.361 357.488 104.361C357.654 104.361 357.818 104.319 357.964 104.237Z" fill="#FDE068"/>
<path d="M362.631 101.588L361.297 93.3645C361.255 93.1072 360.99 93.0008 360.806 93.1853L352.382 101.606L357.013 104.195C357.157 104.276 357.32 104.318 357.485 104.318C357.65 104.318 357.813 104.276 357.958 104.195L362.631 101.588L362.631 101.588Z" fill="#FCCA3F"/>
<path d="M357.964 104.16C357.818 104.241 357.654 104.284 357.488 104.284C357.321 104.284 357.157 104.241 357.012 104.16L352.367 101.582L352.329 101.622L357.012 104.237C357.157 104.319 357.321 104.361 357.488 104.361C357.654 104.361 357.818 104.319 357.964 104.237L362.673 101.61L362.662 101.539L357.964 104.16L357.964 104.16Z" fill="#EEAB37"/>
</g>
<g clip-path="url(#clip2_950_489)">
<path fill-rule="evenodd" clip-rule="evenodd" d="M441.862 272.016L425.094 255.358L434.361 245.929L460.5 272.016H441.862Z" fill="#02539A"/>
<path fill-rule="evenodd" clip-rule="evenodd" d="M424.886 255.371L441.506 238.752H460.189L434.335 264.606L424.886 255.371Z" fill="#45D1FD" fill-opacity="0.85"/>
<path fill-rule="evenodd" clip-rule="evenodd" d="M410.5 240.874L419.936 250.303L460.189 210.05H441.409L410.5 240.874Z" fill="#45D1FD"/>
</g>
</g>
<defs>
<filter id="filter0_i_950_489" x="352.38" y="90.2073" width="4.08887" height="11.3227" filterUnits="userSpaceOnUse" color-interpolation-filters="sRGB">
<feFlood flood-opacity="0" result="BackgroundImageFix"/>
<feBlend mode="normal" in="SourceGraphic" in2="BackgroundImageFix" result="shape"/>
<feColorMatrix in="SourceAlpha" type="matrix" values="0 0 0 0 0 0 0 0 0 0 0 0 0 0 0 0 0 0 127 0" result="hardAlpha"/>
<feOffset/>
<feGaussianBlur stdDeviation="124.619"/>
<feComposite in2="hardAlpha" operator="arithmetic" k2="-1" k3="1"/>
<feColorMatrix type="matrix" values="0 0 0 0 0 0 0 0 0 0 0 0 0 0 0 0 0 0 0.06 0"/>
<feBlend mode="normal" in2="shape" result="effect1_innerShadow_950_489"/>
</filter>
<filter id="filter1_i_950_489" x="356.49" y="92.2008" width="2.58057" height="3.99026" filterUnits="userSpaceOnUse" color-interpolation-filters="sRGB">
<feFlood flood-opacity="0" result="BackgroundImageFix"/>
<feBlend mode="normal" in="SourceGraphic" in2="BackgroundImageFix" result="shape"/>
<feColorMatrix in="SourceAlpha" type="matrix" values="0 0 0 0 0 0 0 0 0 0 0 0 0 0 0 0 0 0 127 0" result="hardAlpha"/>
<feOffset dx="7.12109" dy="-64.0898"/>
<feGaussianBlur stdDeviation="24.9238"/>
<feComposite in2="hardAlpha" operator="arithmetic" k2="-1" k3="1"/>
<feColorMatrix type="matrix" values="0 0 0 0 0 0 0 0 0 0 0 0 0 0 0 0 0 0 0.09 0"/>
<feBlend mode="normal" in2="shape" result="effect1_innerShadow_950_489"/>
</filter>
<clipPath id="clip0_950_489">
<rect width="334" height="264" fill="white" transform="translate(208.5 72)"/>
</clipPath>
<clipPath id="clip1_950_489">
<rect width="10.3685" height="14.2255" fill="white" transform="translate(352.329 90.1532)"/>
</clipPath>
<clipPath id="clip2_950_489">
<rect width="50" height="62.0655" fill="white" transform="translate(410.5 210)"/>
</clipPath>
</defs>
</svg>
