<svg width="342" height="216" viewBox="0 0 342 216" fill="none" xmlns="http://www.w3.org/2000/svg">
<rect x="0.75" y="0.75" width="340.5" height="214.5" rx="7.25" stroke="#7382D1" stroke-width="1.5"/>
<g clip-path="url(#clip0_1047_2019)">
<path d="M235.03 28.0812H92.561V119.619H235.03V28.0812Z" fill="#E6E6E6"/>
<path d="M230.887 39.5621H96.5662V114.203H230.887V39.5621Z" fill="white"/>
<path d="M234.969 28H92.5V34.0721H234.969V28Z" fill="#C6CAE2"/>
<path d="M96.9978 32.2298C97.6173 32.2298 98.1196 31.7259 98.1196 31.1044C98.1196 30.4828 97.6173 29.9789 96.9978 29.9789C96.3782 29.9789 95.876 30.4828 95.876 31.1044C95.876 31.7259 96.3782 32.2298 96.9978 32.2298Z" fill="white"/>
<path d="M101.256 32.2298C101.875 32.2298 102.378 31.7259 102.378 31.1044C102.378 30.4828 101.875 29.9789 101.256 29.9789C100.636 29.9789 100.134 30.4828 100.134 31.1044C100.134 31.7259 100.636 32.2298 101.256 32.2298Z" fill="white"/>
<path d="M105.514 32.2298C106.133 32.2298 106.636 31.7259 106.636 31.1044C106.636 30.4828 106.133 29.9789 105.514 29.9789C104.894 29.9789 104.392 30.4828 104.392 31.1044C104.392 31.7259 104.894 32.2298 105.514 32.2298Z" fill="white"/>
<path d="M148.071 52.7025H123.448V69.0197H148.071V52.7025Z" fill="#E6E6E6"/>
<path d="M201.835 52.7025H177.438V69.0197H201.835V52.7025Z" fill="#C6CAE2"/>
<path d="M174.953 52.7025H150.33V69.0197H174.953V52.7025Z" fill="#E6E6E6"/>
<path d="M228.943 52.7025H204.32V69.0197H228.943V52.7025Z" fill="#E6E6E6"/>
<path d="M148.071 73.5522H123.448V91.0025H148.071V73.5522Z" fill="#E6E6E6"/>
<path d="M201.835 73.5522H177.438V91.0025H201.835V73.5522Z" fill="#E6E6E6"/>
<path d="M174.953 73.5522H150.33V91.0025H174.953V73.5522Z" fill="#E6E6E6"/>
<path d="M228.943 73.5522H204.32V91.0025H228.943V73.5522Z" fill="#E6E6E6"/>
<path d="M148.071 95.5351H123.448V111.852H148.071V95.5351Z" fill="#E6E6E6"/>
<path d="M201.835 95.5351H177.438V111.852H201.835V95.5351Z" fill="#E6E6E6"/>
<path d="M174.953 95.5351H150.33V111.852H174.953V95.5351Z" fill="#E6E6E6"/>
<path d="M228.943 95.5351H204.32V111.852H228.943V95.5351Z" fill="#E6E6E6"/>
<rect x="99.2771" y="43.1841" width="20.3309" height="2.71953" fill="#D9D9D9"/>
<rect x="99.2771" y="52.7025" width="13.554" height="1.81302" fill="#D9D9D9"/>
<rect x="99.2771" y="70.8326" width="13.554" height="1.81302" fill="#D9D9D9"/>
<rect x="99.2771" y="88.9629" width="13.554" height="1.81302" fill="#D9D9D9"/>
<rect x="99.2771" y="59.9545" width="13.554" height="1.81302" fill="#D9D9D9"/>
<rect x="99.2771" y="78.0847" width="13.554" height="1.81302" fill="#D9D9D9"/>
<rect x="99.2771" y="96.215" width="13.554" height="1.81302" fill="#D9D9D9"/>
<rect x="99.2771" y="56.3285" width="13.554" height="1.81302" fill="#D9D9D9"/>
<rect x="99.2771" y="74.4587" width="13.554" height="1.81302" fill="#D9D9D9"/>
<rect x="99.2771" y="92.5889" width="13.554" height="1.81302" fill="#D9D9D9"/>
<rect x="99.2771" y="63.5806" width="13.554" height="1.81302" fill="#D9D9D9"/>
<rect x="99.2771" y="81.7108" width="13.554" height="1.81302" fill="#D9D9D9"/>
<rect x="99.2771" y="99.841" width="13.554" height="1.81302" fill="#D9D9D9"/>
<rect x="123.448" y="42.7308" width="65.5108" height="3.62604" rx="1.81302" fill="#D9D9D9"/>
<ellipse cx="227.136" cy="44.5439" rx="1.80719" ry="1.81302" fill="#D9D9D9"/>
<ellipse cx="221.714" cy="44.5439" rx="1.80719" ry="1.81302" fill="#D9D9D9"/>
<ellipse cx="216.293" cy="44.5439" rx="1.80719" ry="1.81302" fill="#D9D9D9"/>
<path d="M247.674 149.988L245.06 150.714L241.024 140.942L244.883 139.871L247.674 149.988Z" fill="#FFB6B6"/>
<path d="M242.985 150.483L248.027 149.083L248.906 152.268L240.689 154.549C240.574 154.131 240.542 153.694 240.595 153.263C240.648 152.832 240.785 152.416 240.998 152.039C241.211 151.661 241.496 151.329 241.837 151.062C242.178 150.795 242.568 150.598 242.985 150.483Z" fill="#2F2E41"/>
<path d="M220.416 152.005H217.704L216.413 141.508H220.417L220.416 152.005Z" fill="#FFB6B6"/>
<path d="M215.766 151.227H220.997V154.532H212.472C212.472 154.098 212.557 153.668 212.722 153.268C212.888 152.867 213.131 152.502 213.436 152.195C213.742 151.889 214.105 151.645 214.505 151.479C214.905 151.313 215.333 151.227 215.766 151.227Z" fill="#2F2E41"/>
<path d="M217.145 93.3395C217.339 93.6017 217.587 93.8181 217.873 93.9735C218.159 94.1289 218.476 94.2195 218.8 94.239C219.125 94.2584 219.45 94.2061 219.753 94.0859C220.055 93.9657 220.327 93.7804 220.551 93.5431L227.762 96.797L227.106 92.7276L220.359 90.2616C219.936 89.9116 219.401 89.7292 218.854 89.7489C218.306 89.7686 217.785 89.9891 217.389 90.3685C216.993 90.7478 216.749 91.2598 216.704 91.8074C216.659 92.355 216.816 92.9001 217.145 93.3395Z" fill="#FFB6B6"/>
<path d="M232.128 117.811C229.863 117.811 227.517 117.472 225.546 116.465C224.499 115.941 223.572 115.206 222.821 114.306C222.071 113.406 221.514 112.36 221.185 111.234C220.158 107.971 221.453 104.765 222.705 101.665C223.481 99.7443 224.214 97.9299 224.405 96.1414L224.471 95.5065C224.767 92.6545 225.023 90.1914 226.44 89.2676C227.174 88.7887 228.161 88.7614 229.458 89.1839L241.638 93.1533L241.19 116.349L241.116 116.373C241.052 116.395 236.759 117.811 232.128 117.811Z" fill="#2F2E41"/>
<path d="M229.245 81.9627C229.245 81.9627 235.22 80.1868 239.866 80.8528C239.866 80.8528 237.211 95.5039 238.096 100.388C238.981 105.271 222.718 102.274 226.037 97.6127L227.143 92.0631C227.143 92.0631 224.93 89.8432 226.922 87.1794L229.245 81.9627Z" fill="#C6CAE2"/>
<path d="M226.307 117.371L218.943 115.986L221.514 96.139C221.687 95.5849 225.669 83.01 227.478 82.3296C228.791 81.8657 230.134 81.4914 231.497 81.2093L231.759 81.1567L230.283 83.3785L224.405 97.5089L226.307 117.371Z" fill="#2F2E41"/>
<path d="M222.47 149.573L212.957 147.982L218.295 126.111L226.24 96.2017L226.318 96.7328C226.324 96.7723 227.067 100.68 238.079 98.9459L238.176 98.9307L238.203 99.0254L251.513 146.206L240.672 148.018L230.785 113.596L222.47 149.573Z" fill="#2F2E41"/>
<path d="M235.656 121.085L235.662 120.917C235.669 120.731 236.323 102.188 236.105 94.7301C235.885 87.2472 238.3 80.767 238.325 80.7024L238.344 80.6504L238.398 80.635C241.522 79.7396 244.232 82.4121 244.259 82.4392L244.297 82.4774L243.408 89.842L247.217 116.623L235.656 121.085Z" fill="#2F2E41"/>
<path d="M235.19 78.6351C238.192 78.6351 240.625 76.1941 240.625 73.1829C240.625 70.1717 238.192 67.7307 235.19 67.7307C232.189 67.7307 229.755 70.1717 229.755 73.1829C229.755 76.1941 232.189 78.6351 235.19 78.6351Z" fill="#FFB6B6"/>
<path d="M209.187 40.0514C204.761 36.3043 199.344 33.9287 193.597 33.2137C187.849 32.4987 182.018 33.475 176.814 36.0239C171.609 38.5728 167.255 42.5843 164.282 47.5704C161.309 52.5565 159.844 58.3021 160.066 64.1081C160.288 69.9141 162.188 75.5302 165.533 80.2729C168.879 85.0156 173.527 88.6805 178.911 90.8216C184.295 92.9627 190.183 93.4877 195.859 92.3327C201.535 91.1777 206.754 88.3925 210.881 84.316L247.528 115.338C248.085 115.811 248.807 116.042 249.535 115.981C250.263 115.92 250.936 115.571 251.408 115.012C251.879 114.453 252.11 113.728 252.049 112.998C251.988 112.268 251.64 111.593 251.083 111.12L251.079 111.116L214.432 80.0942C218.689 73.9645 220.511 66.4608 219.541 59.0536C218.571 51.6464 214.878 44.8696 209.187 40.0514ZM206.825 77.107C203.97 80.5013 200.176 82.9702 195.922 84.2012C191.669 85.4323 187.147 85.3704 182.928 84.0232C178.71 82.676 174.984 80.1042 172.223 76.6329C169.461 73.1615 167.788 68.9466 167.414 64.5212C167.04 60.0958 167.983 55.6585 170.123 51.7706C172.263 47.8827 175.504 44.7187 179.437 42.6788C183.369 40.6389 187.816 39.8146 192.216 40.3103C196.615 40.8059 200.769 42.5992 204.153 45.4633C206.399 47.3651 208.25 49.6921 209.6 52.3115C210.95 54.931 211.773 57.7915 212.021 60.7299C212.269 63.6683 211.938 66.627 211.047 69.4369C210.155 72.2469 208.72 74.8532 206.825 77.107Z" fill="#3F3D56"/>
<path opacity="0.3" d="M175.283 79.7878C170.989 76.1525 168.215 71.0301 167.511 65.4377C166.807 59.8453 168.226 54.1919 171.485 49.6002C171.057 50.0326 170.643 50.4854 170.243 50.9587C168.348 53.2125 166.913 55.8187 166.022 58.6287C165.13 61.4387 164.799 64.3973 165.047 67.3357C165.295 70.2741 166.118 73.1347 167.468 75.7541C168.818 78.3736 170.669 80.7006 172.916 82.6023C175.162 84.5041 177.76 85.9433 180.561 86.8377C183.362 87.7322 186.311 88.0645 189.24 87.8155C192.169 87.5666 195.02 86.7413 197.631 85.3869C200.242 84.0324 202.562 82.1753 204.458 79.9215C204.856 79.4476 205.231 78.9623 205.584 78.4655C201.62 82.4608 196.304 84.8146 190.69 85.0596C185.077 85.3045 179.577 83.4227 175.283 79.7878Z" fill="#1F1F1F"/>
<path d="M236.935 102.871C237.251 102.949 237.58 102.956 237.899 102.892C238.218 102.828 238.519 102.695 238.781 102.501C239.043 102.308 239.26 102.059 239.416 101.773C239.572 101.487 239.663 101.169 239.684 100.844L247.303 98.7221L244.206 96.0131L237.445 98.4432C236.898 98.4448 236.37 98.6479 235.961 99.014C235.553 99.3801 235.293 99.8838 235.23 100.43C235.167 100.975 235.306 101.525 235.62 101.975C235.934 102.425 236.402 102.744 236.935 102.871Z" fill="#FFB6B6"/>
<path d="M240.102 101.748L239.638 97.3292L246.002 93.8065L241.853 88.7674L242.53 83.1068L244.216 82.3819L244.268 82.4495C245.063 83.4751 252.036 92.5012 252.036 93.617C252.036 94.763 250.702 98.1285 248.877 99.044C247.117 99.927 240.506 101.643 240.226 101.716L240.102 101.748Z" fill="#2F2E41"/>
<path d="M240.106 74.912L240.027 74.7511C239.906 74.5022 238.899 72.4333 238.773 71.9013L237.507 72.0538L234.209 72.0543L234.667 71.3506L233.455 71.5124C233.013 71.5675 232.589 71.7309 232.221 71.9888C231.995 72.1425 231.804 72.3441 231.661 72.5799C231.228 73.3387 230.567 74.5798 230.56 74.5923L230.497 74.711L229.948 73.7647C229.94 73.728 229.26 70.0917 231.538 68.8585C231.863 68.2088 232.366 67.67 232.985 67.3082C233.604 66.9464 234.313 66.7772 235.024 66.8213C235.285 66.5176 235.651 66.3311 236.045 66.3021C236.585 66.2732 237.146 66.5639 237.71 67.1698C238.458 67.9745 239.484 69.0766 240.104 70.3002L240.275 70.5501C240.518 70.9076 240.638 71.3376 240.617 71.7727C240.749 72.4671 240.702 73.1846 240.481 73.8549L240.106 74.912Z" fill="#2F2E41"/>
</g>
<path d="M50.3566 174V167H51.1866V174H50.3566ZM58.7525 168.39C59.4992 168.39 60.1125 168.66 60.5925 169.2C61.0792 169.733 61.3225 170.417 61.3225 171.25C61.3225 172.083 61.0792 172.77 60.5925 173.31C60.1058 173.843 59.4892 174.11 58.7425 174.11C58.2758 174.11 57.8592 174.003 57.4925 173.79C57.1325 173.57 56.8458 173.27 56.6325 172.89V174H55.8025V166.3H56.6325V169.63C56.8458 169.243 57.1358 168.94 57.5025 168.72C57.8692 168.5 58.2858 168.39 58.7525 168.39ZM58.5925 173.32C59.1458 173.32 59.5992 173.127 59.9525 172.74C60.3058 172.353 60.4825 171.857 60.4825 171.25C60.4825 170.65 60.3058 170.157 59.9525 169.77C59.5992 169.377 59.1458 169.18 58.5925 169.18C58.0258 169.18 57.5558 169.377 57.1825 169.77C56.8092 170.157 56.6225 170.65 56.6225 171.25C56.6225 171.85 56.8092 172.347 57.1825 172.74C57.5558 173.127 58.0258 173.32 58.5925 173.32ZM65.1698 168.39C66.0232 168.39 66.7032 168.68 67.2098 169.26C67.7165 169.84 67.9532 170.587 67.9198 171.5H63.2098C63.2498 172.067 63.4532 172.513 63.8198 172.84C64.1865 173.167 64.6498 173.33 65.2098 173.33C66.0298 173.33 66.6032 173.01 66.9298 172.37H67.7898C67.5632 172.937 67.2198 173.37 66.7598 173.67C66.2998 173.963 65.7732 174.11 65.1798 174.11C64.3598 174.11 63.6832 173.847 63.1498 173.32C62.6232 172.787 62.3598 172.103 62.3598 171.27C62.3598 170.437 62.6232 169.75 63.1498 169.21C63.6765 168.663 64.3498 168.39 65.1698 168.39ZM65.1698 169.17C64.6765 169.17 64.2565 169.313 63.9098 169.6C63.5698 169.887 63.3498 170.26 63.2498 170.72H67.0198C66.9265 170.253 66.7165 169.88 66.3898 169.6C66.0632 169.313 65.6565 169.17 65.1698 169.17ZM73.6026 168.5H74.4326V173.94C74.4326 174.76 74.1992 175.41 73.7326 175.89C73.2659 176.37 72.6292 176.61 71.8226 176.61C71.1492 176.61 70.5659 176.437 70.0726 176.09C69.5792 175.743 69.2659 175.257 69.1326 174.63H69.9926C70.1059 175.023 70.3226 175.327 70.6426 175.54C70.9692 175.76 71.3559 175.87 71.8026 175.87C72.3759 175.87 72.8192 175.703 73.1326 175.37C73.4459 175.043 73.6026 174.573 73.6026 173.96V172.85C73.3826 173.23 73.0892 173.53 72.7226 173.75C72.3559 173.963 71.9426 174.07 71.4826 174.07C70.7359 174.07 70.1192 173.803 69.6326 173.27C69.1526 172.73 68.9126 172.05 68.9126 171.23C68.9126 170.403 69.1526 169.723 69.6326 169.19C70.1192 168.657 70.7359 168.39 71.4826 168.39C71.9359 168.39 72.3492 168.5 72.7226 168.72C73.0959 168.94 73.3892 169.24 73.6026 169.62V168.5ZM71.6426 173.28C72.2026 173.28 72.6692 173.087 73.0426 172.7C73.4226 172.313 73.6126 171.823 73.6126 171.23C73.6126 170.637 73.4226 170.147 73.0426 169.76C72.6692 169.373 72.2026 169.18 71.6426 169.18C71.0892 169.18 70.6359 169.373 70.2826 169.76C69.9292 170.147 69.7526 170.637 69.7526 171.23C69.7526 171.823 69.9292 172.313 70.2826 172.7C70.6359 173.087 71.0892 173.28 71.6426 173.28ZM80.3799 168.5H81.2099V174H80.3799V172.89C80.1599 173.27 79.8666 173.57 79.4999 173.79C79.1399 174.003 78.7266 174.11 78.2599 174.11C77.5133 174.11 76.8966 173.843 76.4099 173.31C75.9299 172.77 75.6899 172.083 75.6899 171.25C75.6899 170.417 75.9299 169.733 76.4099 169.2C76.8966 168.66 77.5133 168.39 78.2599 168.39C78.7266 168.39 79.1433 168.5 79.5099 168.72C79.8766 168.94 80.1666 169.243 80.3799 169.63V168.5ZM78.4199 173.32C78.9866 173.32 79.4566 173.127 79.8299 172.74C80.2033 172.347 80.3899 171.85 80.3899 171.25C80.3899 170.65 80.2033 170.157 79.8299 169.77C79.4566 169.377 78.9866 169.18 78.4199 169.18C77.8599 169.18 77.4033 169.377 77.0499 169.77C76.7033 170.157 76.5299 170.65 76.5299 171.25C76.5299 171.857 76.7066 172.353 77.0599 172.74C77.4133 173.127 77.8666 173.32 78.4199 173.32ZM85.4873 168.39C86.1073 168.39 86.5939 168.577 86.9473 168.95C87.3006 169.323 87.4773 169.843 87.4773 170.51V174H86.6473V170.67C86.6473 169.677 86.1839 169.18 85.2573 169.18C84.7039 169.18 84.2739 169.36 83.9673 169.72C83.6673 170.08 83.5173 170.567 83.5173 171.18V174H82.6873V168.5H83.5173V169.59C83.9173 168.79 84.5739 168.39 85.4873 168.39ZM94.8463 168.39C95.5929 168.39 96.2063 168.66 96.6863 169.2C97.1729 169.733 97.4163 170.417 97.4163 171.25C97.4163 172.083 97.1729 172.77 96.6863 173.31C96.1996 173.843 95.5829 174.11 94.8363 174.11C94.3696 174.11 93.9529 174.003 93.5863 173.79C93.2263 173.57 92.9396 173.27 92.7263 172.89V174H91.8963V166.3H92.7263V169.63C92.9396 169.243 93.2296 168.94 93.5963 168.72C93.9629 168.5 94.3796 168.39 94.8463 168.39ZM94.6863 173.32C95.2396 173.32 95.6929 173.127 96.0463 172.74C96.3996 172.353 96.5763 171.857 96.5763 171.25C96.5763 170.65 96.3996 170.157 96.0463 169.77C95.6929 169.377 95.2396 169.18 94.6863 169.18C94.1196 169.18 93.6496 169.377 93.2763 169.77C92.9029 170.157 92.7163 170.65 92.7163 171.25C92.7163 171.85 92.9029 172.347 93.2763 172.74C93.6496 173.127 94.1196 173.32 94.6863 173.32ZM102.429 168.5H103.319L99.6095 176.5H98.7195L100.179 173.33L97.9495 168.5H98.8395L100.619 172.44L102.429 168.5ZM109.646 174.11C108.926 174.11 108.33 173.95 107.856 173.63C107.383 173.31 107.093 172.86 106.986 172.28H107.836C107.943 172.653 108.14 172.92 108.426 173.08C108.72 173.24 109.126 173.32 109.646 173.32C110.066 173.32 110.406 173.25 110.666 173.11C110.933 172.963 111.066 172.76 111.066 172.5C111.066 172.34 111 172.207 110.866 172.1C110.733 171.987 110.59 171.907 110.436 171.86C110.283 171.813 110.02 171.743 109.646 171.65C109.56 171.63 109.493 171.613 109.446 171.6C108.62 171.393 108.05 171.19 107.736 170.99C107.423 170.79 107.266 170.477 107.266 170.05C107.266 169.53 107.47 169.123 107.876 168.83C108.29 168.537 108.83 168.39 109.496 168.39C110.136 168.39 110.656 168.53 111.056 168.81C111.463 169.083 111.723 169.47 111.836 169.97H110.996C110.796 169.443 110.303 169.18 109.516 169.18C109.083 169.18 108.74 169.257 108.486 169.41C108.233 169.557 108.106 169.75 108.106 169.99C108.106 170.197 108.21 170.35 108.416 170.45C108.623 170.543 109.036 170.67 109.656 170.83C109.95 170.903 110.17 170.96 110.316 171C110.47 171.04 110.65 171.097 110.856 171.17C111.07 171.243 111.226 171.313 111.326 171.38C111.426 171.447 111.53 171.533 111.636 171.64C111.743 171.74 111.816 171.857 111.856 171.99C111.896 172.117 111.916 172.263 111.916 172.43C111.916 172.97 111.7 173.387 111.266 173.68C110.84 173.967 110.3 174.11 109.646 174.11ZM115.658 168.39C116.511 168.39 117.191 168.68 117.698 169.26C118.205 169.84 118.441 170.587 118.408 171.5H113.698C113.738 172.067 113.941 172.513 114.308 172.84C114.675 173.167 115.138 173.33 115.698 173.33C116.518 173.33 117.091 173.01 117.418 172.37H118.278C118.051 172.937 117.708 173.37 117.248 173.67C116.788 173.963 116.261 174.11 115.668 174.11C114.848 174.11 114.171 173.847 113.638 173.32C113.111 172.787 112.848 172.103 112.848 171.27C112.848 170.437 113.111 169.75 113.638 169.21C114.165 168.663 114.838 168.39 115.658 168.39ZM115.658 169.17C115.165 169.17 114.745 169.313 114.398 169.6C114.058 169.887 113.838 170.26 113.738 170.72H117.508C117.415 170.253 117.205 169.88 116.878 169.6C116.551 169.313 116.145 169.17 115.658 169.17ZM124.091 168.5H124.921V174H124.091V172.89C123.871 173.27 123.578 173.57 123.211 173.79C122.851 174.003 122.438 174.11 121.971 174.11C121.224 174.11 120.608 173.843 120.121 173.31C119.641 172.77 119.401 172.083 119.401 171.25C119.401 170.417 119.641 169.733 120.121 169.2C120.608 168.66 121.224 168.39 121.971 168.39C122.438 168.39 122.854 168.5 123.221 168.72C123.588 168.94 123.878 169.243 124.091 169.63V168.5ZM122.131 173.32C122.698 173.32 123.168 173.127 123.541 172.74C123.914 172.347 124.101 171.85 124.101 171.25C124.101 170.65 123.914 170.157 123.541 169.77C123.168 169.377 122.698 169.18 122.131 169.18C121.571 169.18 121.114 169.377 120.761 169.77C120.414 170.157 120.241 170.65 120.241 171.25C120.241 171.857 120.418 172.353 120.771 172.74C121.124 173.127 121.578 173.32 122.131 173.32ZM129.188 168.39C129.308 168.39 129.422 168.397 129.528 168.41V169.26C129.408 169.247 129.292 169.24 129.178 169.24C128.585 169.24 128.112 169.43 127.758 169.81C127.405 170.183 127.228 170.713 127.228 171.4V174H126.398V168.5H127.228V169.73C127.588 168.837 128.242 168.39 129.188 168.39ZM133.09 174.11C132.284 174.11 131.607 173.84 131.06 173.3C130.52 172.753 130.25 172.07 130.25 171.25C130.25 170.43 130.52 169.75 131.06 169.21C131.607 168.663 132.284 168.39 133.09 168.39C133.744 168.39 134.317 168.573 134.81 168.94C135.304 169.307 135.62 169.8 135.76 170.42H134.9C134.774 170.033 134.547 169.727 134.22 169.5C133.894 169.273 133.517 169.16 133.09 169.16C132.51 169.16 132.03 169.357 131.65 169.75C131.277 170.143 131.09 170.643 131.09 171.25C131.09 171.857 131.277 172.357 131.65 172.75C132.03 173.143 132.51 173.34 133.09 173.34C133.517 173.34 133.89 173.227 134.21 173C134.537 172.773 134.767 172.467 134.9 172.08H135.76C135.614 172.707 135.294 173.203 134.8 173.57C134.307 173.93 133.737 174.11 133.09 174.11ZM139.766 168.39C140.392 168.39 140.879 168.577 141.226 168.95C141.579 169.323 141.756 169.843 141.756 170.51V174H140.926V170.67C140.926 169.677 140.462 169.18 139.536 169.18C138.982 169.18 138.552 169.36 138.246 169.72C137.946 170.08 137.796 170.567 137.796 171.18V174H136.966V166.3H137.796V169.57C138.202 168.783 138.859 168.39 139.766 168.39ZM143.185 166.24C143.299 166.133 143.439 166.08 143.605 166.08C143.772 166.08 143.909 166.133 144.015 166.24C144.129 166.347 144.185 166.477 144.185 166.63C144.185 166.79 144.129 166.923 144.015 167.03C143.909 167.137 143.772 167.19 143.605 167.19C143.439 167.19 143.299 167.137 143.185 167.03C143.079 166.923 143.025 166.79 143.025 166.63C143.025 166.477 143.079 166.347 143.185 166.24ZM143.185 174V168.5H144.015V174H143.185ZM148.29 168.39C148.91 168.39 149.397 168.577 149.75 168.95C150.103 169.323 150.28 169.843 150.28 170.51V174H149.45V170.67C149.45 169.677 148.987 169.18 148.06 169.18C147.507 169.18 147.077 169.36 146.77 169.72C146.47 170.08 146.32 170.567 146.32 171.18V174H145.49V168.5H146.32V169.59C146.72 168.79 147.377 168.39 148.29 168.39ZM156.171 168.5H157.001V173.94C157.001 174.76 156.768 175.41 156.301 175.89C155.834 176.37 155.198 176.61 154.391 176.61C153.718 176.61 153.134 176.437 152.641 176.09C152.148 175.743 151.834 175.257 151.701 174.63H152.561C152.674 175.023 152.891 175.327 153.211 175.54C153.538 175.76 153.924 175.87 154.371 175.87C154.944 175.87 155.388 175.703 155.701 175.37C156.014 175.043 156.171 174.573 156.171 173.96V172.85C155.951 173.23 155.658 173.53 155.291 173.75C154.924 173.963 154.511 174.07 154.051 174.07C153.304 174.07 152.688 173.803 152.201 173.27C151.721 172.73 151.481 172.05 151.481 171.23C151.481 170.403 151.721 169.723 152.201 169.19C152.688 168.657 153.304 168.39 154.051 168.39C154.504 168.39 154.918 168.5 155.291 168.72C155.664 168.94 155.958 169.24 156.171 169.62V168.5ZM154.211 173.28C154.771 173.28 155.238 173.087 155.611 172.7C155.991 172.313 156.181 171.823 156.181 171.23C156.181 170.637 155.991 170.147 155.611 169.76C155.238 169.373 154.771 169.18 154.211 169.18C153.658 169.18 153.204 169.373 152.851 169.76C152.498 170.147 152.321 170.637 152.321 171.23C152.321 171.823 152.498 172.313 152.851 172.7C153.204 173.087 153.658 173.28 154.211 173.28ZM164.196 166.93C163.323 166.93 162.886 167.443 162.886 168.47V168.5H165.116V169.28H162.886V174H162.056V169.28H160.996V168.5H162.056V168.43C162.056 167.723 162.243 167.173 162.616 166.78C162.99 166.387 163.486 166.19 164.106 166.19C164.546 166.19 164.94 166.267 165.286 166.42L165.136 167.11L164.996 167.07C164.743 166.977 164.476 166.93 164.196 166.93ZM168.588 168.39C169.382 168.39 170.052 168.663 170.598 169.21C171.152 169.75 171.428 170.43 171.428 171.25C171.428 172.07 171.155 172.753 170.608 173.3C170.062 173.84 169.388 174.11 168.588 174.11C167.795 174.11 167.125 173.837 166.578 173.29C166.032 172.743 165.758 172.063 165.758 171.25C165.758 170.437 166.032 169.757 166.578 169.21C167.132 168.663 167.802 168.39 168.588 168.39ZM170.008 169.77C169.622 169.377 169.148 169.18 168.588 169.18C168.028 169.18 167.555 169.377 167.168 169.77C166.788 170.157 166.598 170.65 166.598 171.25C166.598 171.85 166.788 172.347 167.168 172.74C167.555 173.127 168.028 173.32 168.588 173.32C169.155 173.32 169.628 173.127 170.008 172.74C170.395 172.347 170.588 171.85 170.588 171.25C170.588 170.65 170.395 170.157 170.008 169.77ZM175.468 168.39C175.588 168.39 175.701 168.397 175.808 168.41V169.26C175.688 169.247 175.571 169.24 175.458 169.24C174.864 169.24 174.391 169.43 174.038 169.81C173.684 170.183 173.508 170.713 173.508 171.4V174H172.678V168.5H173.508V169.73C173.868 168.837 174.521 168.39 175.468 168.39ZM184.276 168.5H185.106V174H184.276V172.89C184.056 173.27 183.763 173.57 183.396 173.79C183.036 174.003 182.623 174.11 182.156 174.11C181.41 174.11 180.793 173.843 180.306 173.31C179.826 172.77 179.586 172.083 179.586 171.25C179.586 170.417 179.826 169.733 180.306 169.2C180.793 168.66 181.41 168.39 182.156 168.39C182.623 168.39 183.04 168.5 183.406 168.72C183.773 168.94 184.063 169.243 184.276 169.63V168.5ZM182.316 173.32C182.883 173.32 183.353 173.127 183.726 172.74C184.1 172.347 184.286 171.85 184.286 171.25C184.286 170.65 184.1 170.157 183.726 169.77C183.353 169.377 182.883 169.18 182.316 169.18C181.756 169.18 181.3 169.377 180.946 169.77C180.6 170.157 180.426 170.65 180.426 171.25C180.426 171.857 180.603 172.353 180.956 172.74C181.31 173.127 181.763 173.32 182.316 173.32ZM193.472 173.07L193.622 173.76C193.182 173.993 192.685 174.11 192.132 174.11C191.525 174.11 191.045 173.92 190.692 173.54C190.338 173.153 190.162 172.607 190.162 171.9V169.28H189.102V168.5H190.162V167.18L190.992 167V168.5H193.462V169.28H190.992V171.86C190.992 172.847 191.418 173.34 192.272 173.34C192.578 173.34 192.978 173.25 193.472 173.07ZM198.598 168.5H199.428V174H198.598V172.91C198.185 173.71 197.531 174.11 196.638 174.11C196.025 174.11 195.545 173.923 195.198 173.55C194.858 173.177 194.688 172.657 194.688 171.99V168.5H195.518V171.83C195.518 172.823 195.971 173.32 196.878 173.32C197.418 173.32 197.838 173.14 198.138 172.78C198.445 172.42 198.598 171.933 198.598 171.32V168.5ZM204.771 173.07L204.921 173.76C204.481 173.993 203.984 174.11 203.431 174.11C202.824 174.11 202.344 173.92 201.991 173.54C201.637 173.153 201.461 172.607 201.461 171.9V169.28H200.401V168.5H201.461V167.18L202.291 167V168.5H204.761V169.28H202.291V171.86C202.291 172.847 202.717 173.34 203.571 173.34C203.877 173.34 204.277 173.25 204.771 173.07ZM208.403 168.39C209.196 168.39 209.866 168.663 210.413 169.21C210.966 169.75 211.243 170.43 211.243 171.25C211.243 172.07 210.969 172.753 210.423 173.3C209.876 173.84 209.203 174.11 208.403 174.11C207.609 174.11 206.939 173.837 206.393 173.29C205.846 172.743 205.573 172.063 205.573 171.25C205.573 170.437 205.846 169.757 206.393 169.21C206.946 168.663 207.616 168.39 208.403 168.39ZM209.823 169.77C209.436 169.377 208.963 169.18 208.403 169.18C207.843 169.18 207.369 169.377 206.983 169.77C206.603 170.157 206.413 170.65 206.413 171.25C206.413 171.85 206.603 172.347 206.983 172.74C207.369 173.127 207.843 173.32 208.403 173.32C208.969 173.32 209.443 173.127 209.823 172.74C210.209 172.347 210.403 171.85 210.403 171.25C210.403 170.65 210.209 170.157 209.823 169.77ZM215.282 168.39C215.402 168.39 215.515 168.397 215.622 168.41V169.26C215.502 169.247 215.385 169.24 215.272 169.24C214.679 169.24 214.205 169.43 213.852 169.81C213.499 170.183 213.322 170.713 213.322 171.4V174H212.492V168.5H213.322V169.73C213.682 168.837 214.335 168.39 215.282 168.39ZM216.623 166.24C216.736 166.133 216.876 166.08 217.043 166.08C217.209 166.08 217.346 166.133 217.453 166.24C217.566 166.347 217.623 166.477 217.623 166.63C217.623 166.79 217.566 166.923 217.453 167.03C217.346 167.137 217.209 167.19 217.043 167.19C216.876 167.19 216.736 167.137 216.623 167.03C216.516 166.923 216.463 166.79 216.463 166.63C216.463 166.477 216.516 166.347 216.623 166.24ZM216.623 174V168.5H217.453V174H216.623ZM223.398 168.5H224.228V174H223.398V172.89C223.178 173.27 222.884 173.57 222.518 173.79C222.158 174.003 221.744 174.11 221.278 174.11C220.531 174.11 219.914 173.843 219.428 173.31C218.948 172.77 218.708 172.083 218.708 171.25C218.708 170.417 218.948 169.733 219.428 169.2C219.914 168.66 220.531 168.39 221.278 168.39C221.744 168.39 222.161 168.5 222.528 168.72C222.894 168.94 223.184 169.243 223.398 169.63V168.5ZM221.438 173.32C222.004 173.32 222.474 173.127 222.848 172.74C223.221 172.347 223.408 171.85 223.408 171.25C223.408 170.65 223.221 170.157 222.848 169.77C222.474 169.377 222.004 169.18 221.438 169.18C220.878 169.18 220.421 169.377 220.068 169.77C219.721 170.157 219.548 170.65 219.548 171.25C219.548 171.857 219.724 172.353 220.078 172.74C220.431 173.127 220.884 173.32 221.438 173.32ZM225.735 174V166.3H226.565V174H225.735ZM234.907 173.07L235.057 173.76C234.617 173.993 234.121 174.11 233.567 174.11C232.961 174.11 232.481 173.92 232.127 173.54C231.774 173.153 231.597 172.607 231.597 171.9V169.28H230.537V168.5H231.597V167.18L232.427 167V168.5H234.897V169.28H232.427V171.86C232.427 172.847 232.854 173.34 233.707 173.34C234.014 173.34 234.414 173.25 234.907 173.07ZM238.539 168.39C239.333 168.39 240.003 168.663 240.549 169.21C241.103 169.75 241.379 170.43 241.379 171.25C241.379 172.07 241.106 172.753 240.559 173.3C240.013 173.84 239.339 174.11 238.539 174.11C237.746 174.11 237.076 173.837 236.529 173.29C235.983 172.743 235.709 172.063 235.709 171.25C235.709 170.437 235.983 169.757 236.529 169.21C237.083 168.663 237.753 168.39 238.539 168.39ZM239.959 169.77C239.573 169.377 239.099 169.18 238.539 169.18C237.979 169.18 237.506 169.377 237.119 169.77C236.739 170.157 236.549 170.65 236.549 171.25C236.549 171.85 236.739 172.347 237.119 172.74C237.506 173.127 237.979 173.32 238.539 173.32C239.106 173.32 239.579 173.127 239.959 172.74C240.346 172.347 240.539 171.85 240.539 171.25C240.539 170.65 240.346 170.157 239.959 169.77ZM250.097 168.5H250.927V173.94C250.927 174.76 250.693 175.41 250.227 175.89C249.76 176.37 249.123 176.61 248.317 176.61C247.643 176.61 247.06 176.437 246.567 176.09C246.073 175.743 245.76 175.257 245.627 174.63H246.487C246.6 175.023 246.817 175.327 247.137 175.54C247.463 175.76 247.85 175.87 248.297 175.87C248.87 175.87 249.313 175.703 249.627 175.37C249.94 175.043 250.097 174.573 250.097 173.96V172.85C249.877 173.23 249.583 173.53 249.217 173.75C248.85 173.963 248.437 174.07 247.977 174.07C247.23 174.07 246.613 173.803 246.127 173.27C245.647 172.73 245.407 172.05 245.407 171.23C245.407 170.403 245.647 169.723 246.127 169.19C246.613 168.657 247.23 168.39 247.977 168.39C248.43 168.39 248.843 168.5 249.217 168.72C249.59 168.94 249.883 169.24 250.097 169.62V168.5ZM248.137 173.28C248.697 173.28 249.163 173.087 249.537 172.7C249.917 172.313 250.107 171.823 250.107 171.23C250.107 170.637 249.917 170.147 249.537 169.76C249.163 169.373 248.697 169.18 248.137 169.18C247.583 169.18 247.13 169.373 246.777 169.76C246.423 170.147 246.247 170.637 246.247 171.23C246.247 171.823 246.423 172.313 246.777 172.7C247.13 173.087 247.583 173.28 248.137 173.28ZM256.264 168.5H257.094V174H256.264V172.91C255.851 173.71 255.197 174.11 254.304 174.11C253.691 174.11 253.211 173.923 252.864 173.55C252.524 173.177 252.354 172.657 252.354 171.99V168.5H253.184V171.83C253.184 172.823 253.637 173.32 254.544 173.32C255.084 173.32 255.504 173.14 255.804 172.78C256.111 172.42 256.264 171.933 256.264 171.32V168.5ZM258.547 166.24C258.66 166.133 258.8 166.08 258.967 166.08C259.133 166.08 259.27 166.133 259.377 166.24C259.49 166.347 259.547 166.477 259.547 166.63C259.547 166.79 259.49 166.923 259.377 167.03C259.27 167.137 259.133 167.19 258.967 167.19C258.8 167.19 258.66 167.137 258.547 167.03C258.44 166.923 258.387 166.79 258.387 166.63C258.387 166.477 258.44 166.347 258.547 166.24ZM258.547 174V168.5H259.377V174H258.547ZM265.361 166.3H266.191V174H265.361V172.89C265.148 173.27 264.858 173.57 264.491 173.79C264.125 174.003 263.708 174.11 263.241 174.11C262.495 174.11 261.878 173.843 261.391 173.31C260.911 172.77 260.671 172.083 260.671 171.25C260.671 170.417 260.911 169.733 261.391 169.2C261.878 168.66 262.495 168.39 263.241 168.39C263.708 168.39 264.125 168.5 264.491 168.72C264.858 168.94 265.148 169.243 265.361 169.63V166.3ZM263.401 173.32C263.968 173.32 264.438 173.127 264.811 172.74C265.185 172.347 265.371 171.85 265.371 171.25C265.371 170.65 265.185 170.157 264.811 169.77C264.438 169.377 263.968 169.18 263.401 169.18C262.848 169.18 262.395 169.377 262.041 169.77C261.688 170.157 261.511 170.65 261.511 171.25C261.511 171.857 261.688 172.353 262.041 172.74C262.395 173.127 262.848 173.32 263.401 173.32ZM270.258 168.39C271.111 168.39 271.791 168.68 272.298 169.26C272.804 169.84 273.041 170.587 273.008 171.5H268.298C268.338 172.067 268.541 172.513 268.908 172.84C269.274 173.167 269.738 173.33 270.298 173.33C271.118 173.33 271.691 173.01 272.018 172.37H272.878C272.651 172.937 272.308 173.37 271.848 173.67C271.388 173.963 270.861 174.11 270.268 174.11C269.448 174.11 268.771 173.847 268.238 173.32C267.711 172.787 267.448 172.103 267.448 171.27C267.448 170.437 267.711 169.75 268.238 169.21C268.764 168.663 269.438 168.39 270.258 168.39ZM270.258 169.17C269.764 169.17 269.344 169.313 268.998 169.6C268.658 169.887 268.438 170.26 268.338 170.72H272.108C272.014 170.253 271.804 169.88 271.478 169.6C271.151 169.313 270.744 169.17 270.258 169.17ZM283.449 168.39C284.029 168.39 284.479 168.57 284.799 168.93C285.119 169.283 285.279 169.783 285.279 170.43V174H284.449V170.58C284.449 169.647 284.035 169.18 283.209 169.18C282.709 169.18 282.325 169.367 282.059 169.74C281.792 170.113 281.659 170.593 281.659 171.18L281.669 174H280.829V170.58C280.829 169.647 280.415 169.18 279.589 169.18C279.095 169.18 278.715 169.367 278.449 169.74C278.182 170.113 278.049 170.593 278.049 171.18V174H277.219V168.5H278.049V169.54C278.435 168.773 279.032 168.39 279.839 168.39C280.285 168.39 280.655 168.5 280.949 168.72C281.242 168.933 281.445 169.243 281.559 169.65C281.945 168.81 282.575 168.39 283.449 168.39ZM289.301 168.39C290.154 168.39 290.834 168.68 291.341 169.26C291.847 169.84 292.084 170.587 292.051 171.5H287.341C287.381 172.067 287.584 172.513 287.951 172.84C288.317 173.167 288.781 173.33 289.341 173.33C290.161 173.33 290.734 173.01 291.061 172.37H291.921C291.694 172.937 291.351 173.37 290.891 173.67C290.431 173.963 289.904 174.11 289.311 174.11C288.491 174.11 287.814 173.847 287.281 173.32C286.754 172.787 286.491 172.103 286.491 171.27C286.491 170.437 286.754 169.75 287.281 169.21C287.807 168.663 288.481 168.39 289.301 168.39ZM289.301 169.17C288.807 169.17 288.387 169.313 288.041 169.6C287.701 169.887 287.481 170.26 287.381 170.72H291.151C291.057 170.253 290.847 169.88 290.521 169.6C290.194 169.313 289.787 169.17 289.301 169.17ZM97.9591 185.07L98.1091 185.76C97.6691 185.993 97.1724 186.11 96.6191 186.11C96.0124 186.11 95.5324 185.92 95.1791 185.54C94.8258 185.153 94.6491 184.607 94.6491 183.9V181.28H93.5891V180.5H94.6491V179.18L95.4791 179V180.5H97.9491V181.28H95.4791V183.86C95.4791 184.847 95.9058 185.34 96.7591 185.34C97.0658 185.34 97.4658 185.25 97.9591 185.07ZM102.075 180.39C102.702 180.39 103.189 180.577 103.535 180.95C103.889 181.323 104.065 181.843 104.065 182.51V186H103.235V182.67C103.235 181.677 102.772 181.18 101.845 181.18C101.292 181.18 100.862 181.36 100.555 181.72C100.255 182.08 100.105 182.567 100.105 183.18V186H99.2754V178.3H100.105V181.57C100.512 180.783 101.169 180.39 102.075 180.39ZM108.285 180.39C108.405 180.39 108.518 180.397 108.625 180.41V181.26C108.505 181.247 108.388 181.24 108.275 181.24C107.682 181.24 107.208 181.43 106.855 181.81C106.502 182.183 106.325 182.713 106.325 183.4V186H105.495V180.5H106.325V181.73C106.685 180.837 107.338 180.39 108.285 180.39ZM112.138 180.39C112.931 180.39 113.601 180.663 114.148 181.21C114.701 181.75 114.978 182.43 114.978 183.25C114.978 184.07 114.705 184.753 114.158 185.3C113.611 185.84 112.938 186.11 112.138 186.11C111.345 186.11 110.675 185.837 110.128 185.29C109.581 184.743 109.308 184.063 109.308 183.25C109.308 182.437 109.581 181.757 110.128 181.21C110.681 180.663 111.351 180.39 112.138 180.39ZM113.558 181.77C113.171 181.377 112.698 181.18 112.138 181.18C111.578 181.18 111.105 181.377 110.718 181.77C110.338 182.157 110.148 182.65 110.148 183.25C110.148 183.85 110.338 184.347 110.718 184.74C111.105 185.127 111.578 185.32 112.138 185.32C112.705 185.32 113.178 185.127 113.558 184.74C113.945 184.347 114.138 183.85 114.138 183.25C114.138 182.65 113.945 182.157 113.558 181.77ZM120.087 180.5H120.917V186H120.087V184.91C119.674 185.71 119.021 186.11 118.127 186.11C117.514 186.11 117.034 185.923 116.687 185.55C116.347 185.177 116.177 184.657 116.177 183.99V180.5H117.007V183.83C117.007 184.823 117.461 185.32 118.367 185.32C118.907 185.32 119.327 185.14 119.627 184.78C119.934 184.42 120.087 183.933 120.087 183.32V180.5ZM126.84 180.5H127.67V185.94C127.67 186.76 127.437 187.41 126.97 187.89C126.503 188.37 125.867 188.61 125.06 188.61C124.387 188.61 123.803 188.437 123.31 188.09C122.817 187.743 122.503 187.257 122.37 186.63H123.23C123.343 187.023 123.56 187.327 123.88 187.54C124.207 187.76 124.593 187.87 125.04 187.87C125.613 187.87 126.057 187.703 126.37 187.37C126.683 187.043 126.84 186.573 126.84 185.96V184.85C126.62 185.23 126.327 185.53 125.96 185.75C125.593 185.963 125.18 186.07 124.72 186.07C123.973 186.07 123.357 185.803 122.87 185.27C122.39 184.73 122.15 184.05 122.15 183.23C122.15 182.403 122.39 181.723 122.87 181.19C123.357 180.657 123.973 180.39 124.72 180.39C125.173 180.39 125.587 180.5 125.96 180.72C126.333 180.94 126.627 181.24 126.84 181.62V180.5ZM124.88 185.28C125.44 185.28 125.907 185.087 126.28 184.7C126.66 184.313 126.85 183.823 126.85 183.23C126.85 182.637 126.66 182.147 126.28 181.76C125.907 181.373 125.44 181.18 124.88 181.18C124.327 181.18 123.873 181.373 123.52 181.76C123.167 182.147 122.99 182.637 122.99 183.23C122.99 183.823 123.167 184.313 123.52 184.7C123.873 185.087 124.327 185.28 124.88 185.28ZM131.997 180.39C132.624 180.39 133.111 180.577 133.457 180.95C133.811 181.323 133.987 181.843 133.987 182.51V186H133.157V182.67C133.157 181.677 132.694 181.18 131.767 181.18C131.214 181.18 130.784 181.36 130.477 181.72C130.177 182.08 130.027 182.567 130.027 183.18V186H129.197V178.3H130.027V181.57C130.434 180.783 131.091 180.39 131.997 180.39ZM142.305 185.07L142.455 185.76C142.015 185.993 141.518 186.11 140.965 186.11C140.358 186.11 139.878 185.92 139.525 185.54C139.171 185.153 138.995 184.607 138.995 183.9V181.28H137.935V180.5H138.995V179.18L139.825 179V180.5H142.295V181.28H139.825V183.86C139.825 184.847 140.251 185.34 141.105 185.34C141.411 185.34 141.811 185.25 142.305 185.07ZM146.421 180.39C147.048 180.39 147.534 180.577 147.881 180.95C148.234 181.323 148.411 181.843 148.411 182.51V186H147.581V182.67C147.581 181.677 147.118 181.18 146.191 181.18C145.638 181.18 145.208 181.36 144.901 181.72C144.601 182.08 144.451 182.567 144.451 183.18V186H143.621V178.3H144.451V181.57C144.858 180.783 145.514 180.39 146.421 180.39ZM152.431 180.39C153.284 180.39 153.964 180.68 154.471 181.26C154.977 181.84 155.214 182.587 155.181 183.5H150.471C150.511 184.067 150.714 184.513 151.081 184.84C151.447 185.167 151.911 185.33 152.471 185.33C153.291 185.33 153.864 185.01 154.191 184.37H155.051C154.824 184.937 154.481 185.37 154.021 185.67C153.561 185.963 153.034 186.11 152.441 186.11C151.621 186.11 150.944 185.847 150.411 185.32C149.884 184.787 149.621 184.103 149.621 183.27C149.621 182.437 149.884 181.75 150.411 181.21C150.937 180.663 151.611 180.39 152.431 180.39ZM152.431 181.17C151.937 181.17 151.517 181.313 151.171 181.6C150.831 181.887 150.611 182.26 150.511 182.72H154.281C154.187 182.253 153.977 181.88 153.651 181.6C153.324 181.313 152.917 181.17 152.431 181.17ZM162.341 180.39C163.088 180.39 163.701 180.66 164.181 181.2C164.668 181.733 164.911 182.417 164.911 183.25C164.911 184.083 164.668 184.77 164.181 185.31C163.695 185.843 163.078 186.11 162.331 186.11C161.865 186.11 161.448 186.003 161.081 185.79C160.721 185.57 160.435 185.27 160.221 184.89V186H159.391V178.3H160.221V181.63C160.435 181.243 160.725 180.94 161.091 180.72C161.458 180.5 161.875 180.39 162.341 180.39ZM162.181 185.32C162.735 185.32 163.188 185.127 163.541 184.74C163.895 184.353 164.071 183.857 164.071 183.25C164.071 182.65 163.895 182.157 163.541 181.77C163.188 181.377 162.735 181.18 162.181 181.18C161.615 181.18 161.145 181.377 160.771 181.77C160.398 182.157 160.211 182.65 160.211 183.25C160.211 183.85 160.398 184.347 160.771 184.74C161.145 185.127 161.615 185.32 162.181 185.32ZM170.639 180.5H171.469V186H170.639V184.89C170.419 185.27 170.125 185.57 169.759 185.79C169.399 186.003 168.985 186.11 168.519 186.11C167.772 186.11 167.155 185.843 166.669 185.31C166.189 184.77 165.949 184.083 165.949 183.25C165.949 182.417 166.189 181.733 166.669 181.2C167.155 180.66 167.772 180.39 168.519 180.39C168.985 180.39 169.402 180.5 169.769 180.72C170.135 180.94 170.425 181.243 170.639 181.63V180.5ZM168.679 185.32C169.245 185.32 169.715 185.127 170.089 184.74C170.462 184.347 170.649 183.85 170.649 183.25C170.649 182.65 170.462 182.157 170.089 181.77C169.715 181.377 169.245 181.18 168.679 181.18C168.119 181.18 167.662 181.377 167.309 181.77C166.962 182.157 166.789 182.65 166.789 183.25C166.789 183.857 166.965 184.353 167.319 184.74C167.672 185.127 168.125 185.32 168.679 185.32ZM175.566 186.11C174.759 186.11 174.083 185.84 173.536 185.3C172.996 184.753 172.726 184.07 172.726 183.25C172.726 182.43 172.996 181.75 173.536 181.21C174.083 180.663 174.759 180.39 175.566 180.39C176.219 180.39 176.793 180.573 177.286 180.94C177.779 181.307 178.096 181.8 178.236 182.42H177.376C177.249 182.033 177.023 181.727 176.696 181.5C176.369 181.273 175.993 181.16 175.566 181.16C174.986 181.16 174.506 181.357 174.126 181.75C173.753 182.143 173.566 182.643 173.566 183.25C173.566 183.857 173.753 184.357 174.126 184.75C174.506 185.143 174.986 185.34 175.566 185.34C175.993 185.34 176.366 185.227 176.686 185C177.013 184.773 177.243 184.467 177.376 184.08H178.236C178.089 184.707 177.769 185.203 177.276 185.57C176.783 185.93 176.213 186.11 175.566 186.11ZM184.301 186H183.211L180.271 183.35V186H179.441V178.3H180.271V182.95L182.951 180.5H184.041L181.151 183.11L184.301 186ZM187.362 180.39C188.216 180.39 188.896 180.68 189.402 181.26C189.909 181.84 190.146 182.587 190.112 183.5H185.402C185.442 184.067 185.646 184.513 186.012 184.84C186.379 185.167 186.842 185.33 187.402 185.33C188.222 185.33 188.796 185.01 189.122 184.37H189.982C189.756 184.937 189.412 185.37 188.952 185.67C188.492 185.963 187.966 186.11 187.372 186.11C186.552 186.11 185.876 185.847 185.342 185.32C184.816 184.787 184.552 184.103 184.552 183.27C184.552 182.437 184.816 181.75 185.342 181.21C185.869 180.663 186.542 180.39 187.362 180.39ZM187.362 181.17C186.869 181.17 186.449 181.313 186.102 181.6C185.762 181.887 185.542 182.26 185.442 182.72H189.212C189.119 182.253 188.909 181.88 188.582 181.6C188.256 181.313 187.849 181.17 187.362 181.17ZM194.125 180.39C194.745 180.39 195.232 180.577 195.585 180.95C195.938 181.323 196.115 181.843 196.115 182.51V186H195.285V182.67C195.285 181.677 194.822 181.18 193.895 181.18C193.342 181.18 192.912 181.36 192.605 181.72C192.305 182.08 192.155 182.567 192.155 183.18V186H191.325V180.5H192.155V181.59C192.555 180.79 193.212 180.39 194.125 180.39ZM202.046 178.3H202.876V186H202.046V184.89C201.833 185.27 201.543 185.57 201.176 185.79C200.809 186.003 200.393 186.11 199.926 186.11C199.179 186.11 198.563 185.843 198.076 185.31C197.596 184.77 197.356 184.083 197.356 183.25C197.356 182.417 197.596 181.733 198.076 181.2C198.563 180.66 199.179 180.39 199.926 180.39C200.393 180.39 200.809 180.5 201.176 180.72C201.543 180.94 201.833 181.243 202.046 181.63V178.3ZM200.086 185.32C200.653 185.32 201.123 185.127 201.496 184.74C201.869 184.347 202.056 183.85 202.056 183.25C202.056 182.65 201.869 182.157 201.496 181.77C201.123 181.377 200.653 181.18 200.086 181.18C199.533 181.18 199.079 181.377 198.726 181.77C198.373 182.157 198.196 182.65 198.196 183.25C198.196 183.857 198.373 184.353 198.726 184.74C199.079 185.127 199.533 185.32 200.086 185.32ZM210.35 180.39C211.097 180.39 211.71 180.66 212.19 181.2C212.677 181.733 212.92 182.417 212.92 183.25C212.92 184.083 212.677 184.77 212.19 185.31C211.704 185.843 211.087 186.11 210.34 186.11C209.874 186.11 209.457 186.003 209.09 185.79C208.73 185.57 208.444 185.27 208.23 184.89V188.5H207.4V180.5H208.23V181.63C208.444 181.243 208.734 180.94 209.1 180.72C209.467 180.5 209.884 180.39 210.35 180.39ZM210.19 185.32C210.744 185.32 211.197 185.127 211.55 184.74C211.904 184.353 212.08 183.857 212.08 183.25C212.08 182.65 211.904 182.157 211.55 181.77C211.197 181.377 210.744 181.18 210.19 181.18C209.624 181.18 209.154 181.377 208.78 181.77C208.407 182.157 208.22 182.65 208.22 183.25C208.22 183.85 208.407 184.347 208.78 184.74C209.154 185.127 209.624 185.32 210.19 185.32ZM216.967 180.39C217.087 180.39 217.2 180.397 217.307 180.41V181.26C217.187 181.247 217.07 181.24 216.957 181.24C216.363 181.24 215.89 181.43 215.537 181.81C215.183 182.183 215.007 182.713 215.007 183.4V186H214.177V180.5H215.007V181.73C215.367 180.837 216.02 180.39 216.967 180.39ZM220.82 180.39C221.613 180.39 222.283 180.663 222.83 181.21C223.383 181.75 223.66 182.43 223.66 183.25C223.66 184.07 223.386 184.753 222.84 185.3C222.293 185.84 221.62 186.11 220.82 186.11C220.026 186.11 219.356 185.837 218.81 185.29C218.263 184.743 217.99 184.063 217.99 183.25C217.99 182.437 218.263 181.757 218.81 181.21C219.363 180.663 220.033 180.39 220.82 180.39ZM222.24 181.77C221.853 181.377 221.38 181.18 220.82 181.18C220.26 181.18 219.786 181.377 219.4 181.77C219.02 182.157 218.83 182.65 218.83 183.25C218.83 183.85 219.02 184.347 219.4 184.74C219.786 185.127 220.26 185.32 220.82 185.32C221.386 185.32 221.86 185.127 222.24 184.74C222.626 184.347 222.82 183.85 222.82 183.25C222.82 182.65 222.626 182.157 222.24 181.77ZM227.529 186.11C226.722 186.11 226.046 185.84 225.499 185.3C224.959 184.753 224.689 184.07 224.689 183.25C224.689 182.43 224.959 181.75 225.499 181.21C226.046 180.663 226.722 180.39 227.529 180.39C228.182 180.39 228.756 180.573 229.249 180.94C229.742 181.307 230.059 181.8 230.199 182.42H229.339C229.212 182.033 228.986 181.727 228.659 181.5C228.332 181.273 227.956 181.16 227.529 181.16C226.949 181.16 226.469 181.357 226.089 181.75C225.716 182.143 225.529 182.643 225.529 183.25C225.529 183.857 225.716 184.357 226.089 184.75C226.469 185.143 226.949 185.34 227.529 185.34C227.956 185.34 228.329 185.227 228.649 185C228.976 184.773 229.206 184.467 229.339 184.08H230.199C230.052 184.707 229.732 185.203 229.239 185.57C228.746 185.93 228.176 186.11 227.529 186.11ZM233.944 180.39C234.798 180.39 235.478 180.68 235.984 181.26C236.491 181.84 236.728 182.587 236.694 183.5H231.984C232.024 184.067 232.228 184.513 232.594 184.84C232.961 185.167 233.424 185.33 233.984 185.33C234.804 185.33 235.378 185.01 235.704 184.37H236.564C236.338 184.937 235.994 185.37 235.534 185.67C235.074 185.963 234.548 186.11 233.954 186.11C233.134 186.11 232.458 185.847 231.924 185.32C231.398 184.787 231.134 184.103 231.134 183.27C231.134 182.437 231.398 181.75 231.924 181.21C232.451 180.663 233.124 180.39 233.944 180.39ZM233.944 181.17C233.451 181.17 233.031 181.313 232.684 181.6C232.344 181.887 232.124 182.26 232.024 182.72H235.794C235.701 182.253 235.491 181.88 235.164 181.6C234.838 181.313 234.431 181.17 233.944 181.17ZM240.237 186.11C239.517 186.11 238.92 185.95 238.447 185.63C237.974 185.31 237.684 184.86 237.577 184.28H238.427C238.534 184.653 238.73 184.92 239.017 185.08C239.31 185.24 239.717 185.32 240.237 185.32C240.657 185.32 240.997 185.25 241.257 185.11C241.524 184.963 241.657 184.76 241.657 184.5C241.657 184.34 241.59 184.207 241.457 184.1C241.324 183.987 241.18 183.907 241.027 183.86C240.874 183.813 240.61 183.743 240.237 183.65C240.15 183.63 240.084 183.613 240.037 183.6C239.21 183.393 238.64 183.19 238.327 182.99C238.014 182.79 237.857 182.477 237.857 182.05C237.857 181.53 238.06 181.123 238.467 180.83C238.88 180.537 239.42 180.39 240.087 180.39C240.727 180.39 241.247 180.53 241.647 180.81C242.054 181.083 242.314 181.47 242.427 181.97H241.587C241.387 181.443 240.894 181.18 240.107 181.18C239.674 181.18 239.33 181.257 239.077 181.41C238.824 181.557 238.697 181.75 238.697 181.99C238.697 182.197 238.8 182.35 239.007 182.45C239.214 182.543 239.627 182.67 240.247 182.83C240.54 182.903 240.76 182.96 240.907 183C241.06 183.04 241.24 183.097 241.447 183.17C241.66 183.243 241.817 183.313 241.917 183.38C242.017 183.447 242.12 183.533 242.227 183.64C242.334 183.74 242.407 183.857 242.447 183.99C242.487 184.117 242.507 184.263 242.507 184.43C242.507 184.97 242.29 185.387 241.857 185.68C241.43 185.967 240.89 186.11 240.237 186.11ZM245.989 186.11C245.269 186.11 244.672 185.95 244.199 185.63C243.726 185.31 243.436 184.86 243.329 184.28H244.179C244.286 184.653 244.482 184.92 244.769 185.08C245.062 185.24 245.469 185.32 245.989 185.32C246.409 185.32 246.749 185.25 247.009 185.11C247.276 184.963 247.409 184.76 247.409 184.5C247.409 184.34 247.342 184.207 247.209 184.1C247.076 183.987 246.932 183.907 246.779 183.86C246.626 183.813 246.362 183.743 245.989 183.65C245.902 183.63 245.836 183.613 245.789 183.6C244.962 183.393 244.392 183.19 244.079 182.99C243.766 182.79 243.609 182.477 243.609 182.05C243.609 181.53 243.812 181.123 244.219 180.83C244.632 180.537 245.172 180.39 245.839 180.39C246.479 180.39 246.999 180.53 247.399 180.81C247.806 181.083 248.066 181.47 248.179 181.97H247.339C247.139 181.443 246.646 181.18 245.859 181.18C245.426 181.18 245.082 181.257 244.829 181.41C244.576 181.557 244.449 181.75 244.449 181.99C244.449 182.197 244.552 182.35 244.759 182.45C244.966 182.543 245.379 182.67 245.999 182.83C246.292 182.903 246.512 182.96 246.659 183C246.812 183.04 246.992 183.097 247.199 183.17C247.412 183.243 247.569 183.313 247.669 183.38C247.769 183.447 247.872 183.533 247.979 183.64C248.086 183.74 248.159 183.857 248.199 183.99C248.239 184.117 248.259 184.263 248.259 184.43C248.259 184.97 248.042 185.387 247.609 185.68C247.182 185.967 246.642 186.11 245.989 186.11Z" fill="#48494B"/>
<defs>
<clipPath id="clip0_1047_2019">
<rect width="157" height="124" fill="white" transform="translate(92.5 28)"/>
</clipPath>
</defs>
</svg>
