<svg width="713" height="345" viewBox="0 0 713 345" fill="none" xmlns="http://www.w3.org/2000/svg">
<path d="M661.841 270.82H0.891479V0H661.841V270.82ZM2.90278 268.809H659.83V2.0113H2.90278V268.809Z" fill="#8891C8"/>
<path d="M397.118 233.559H438.655C441.489 217.172 441.489 200.421 438.655 184.034H397.118C401.797 200.211 401.797 217.382 397.118 233.559Z" fill="#E6E6E6"/>
<path d="M398.253 134.439H454.696C455.087 134.426 455.457 134.261 455.729 133.98C456.001 133.698 456.153 133.322 456.153 132.931C456.153 132.54 456.001 132.164 455.729 131.882C455.457 131.601 455.087 131.436 454.696 131.422H398.253C397.862 131.436 397.491 131.601 397.219 131.882C396.948 132.164 396.796 132.54 396.796 132.931C396.796 133.322 396.948 133.698 397.219 133.98C397.491 134.261 397.862 134.426 398.253 134.439Z" fill="#E6E6E6"/>
<path d="M169.286 134.439H225.73C226.121 134.426 226.491 134.261 226.763 133.98C227.035 133.698 227.187 133.322 227.187 132.931C227.187 132.54 227.035 132.164 226.763 131.882C226.491 131.601 226.121 131.436 225.73 131.422H169.286C168.895 131.436 168.525 131.601 168.253 131.882C167.981 132.164 167.829 132.54 167.829 132.931C167.829 133.322 167.981 133.698 168.253 133.98C168.525 134.261 168.895 134.426 169.286 134.439Z" fill="#E6E6E6"/>
<path d="M453.229 120.208L462.047 128.257C463.056 129.178 465.83 131.078 466.457 132.282C467.752 134.771 466.36 134.203 464.14 135.065C458.685 137.236 453.658 140.357 449.293 144.284C447.833 145.571 449.974 147.698 451.426 146.418C455.407 142.84 459.981 139.983 464.942 137.974C466.721 137.271 470.096 136.858 470.941 134.739C471.976 132.146 468.681 130.232 467.12 128.807L455.362 118.075C453.931 116.768 451.791 118.896 453.229 120.208Z" fill="#E6E6E6"/>
<path d="M224.263 120.208L233.081 128.257C234.09 129.178 236.864 131.078 237.49 132.282C238.786 134.771 237.394 134.203 235.174 135.065C229.718 137.236 224.691 140.357 220.327 144.284C218.867 145.571 221.008 147.698 222.46 146.418C226.441 142.84 231.014 139.983 235.976 137.974C237.755 137.271 241.13 136.858 241.975 134.739C243.01 132.146 239.715 130.232 238.154 128.807L226.396 118.075C224.964 116.768 222.825 118.896 224.263 120.208Z" fill="#E6E6E6"/>
<path d="M189.954 73.6606H231.491C234.325 57.2739 234.325 40.5223 231.491 24.1356H189.954C194.633 40.3123 194.633 57.4839 189.954 73.6606Z" fill="#C6CAE2"/>
<path d="M404.747 99.172H446.284C449.119 82.7854 449.119 66.0337 446.284 49.6471H404.747C409.427 65.8238 409.427 82.9953 404.747 99.172Z" fill="#C6CAE2"/>
<path d="M273.247 180.547V58.3126L262.185 55.8467V191.61L345.654 190.756L345.372 179.81L273.247 180.547Z" fill="#F2F2F2"/>
<path d="M79.3322 180.547V58.3126L68.27 55.8467V191.61L151.739 190.756L151.457 179.81L79.3322 180.547Z" fill="#F2F2F2"/>
<path d="M355.71 201.818H255.145V39.9083H355.71V201.818ZM257.157 199.807H353.699V41.9196H257.157V199.807Z" fill="#8891C8"/>
<path d="M161.795 201.818H61.2305V39.9083H161.795V201.818ZM63.2418 199.807H159.784V41.9196H63.2418V199.807Z" fill="#8891C8"/>
<path d="M280.484 49.9648H264.196V51.9761H280.484V49.9648Z" fill="#8891C8"/>
<path d="M280.484 54.993H264.196V57.0043H280.484V54.993Z" fill="#8891C8"/>
<path d="M280.484 60.0213H264.196V62.0326H280.484V60.0213Z" fill="#8891C8"/>
<path d="M528.682 180.547V58.3126L517.62 55.8467V191.61L601.089 190.756L600.807 179.81L528.682 180.547Z" fill="#F2F2F2"/>
<path d="M612.327 199.807H511.762V37.897H612.327V199.807ZM513.773 197.795H610.315V39.9083H513.773V197.795Z" fill="#8891C8"/>
<path d="M597.066 60.339C595.674 60.339 594.313 59.9261 593.155 59.1526C591.998 58.3791 591.096 57.2797 590.563 55.9934C590.03 54.7071 589.891 53.2916 590.162 51.9261C590.434 50.5606 591.104 49.3062 592.089 48.3217C593.073 47.3372 594.327 46.6668 595.693 46.3952C597.059 46.1235 598.474 46.2629 599.76 46.7957C601.047 47.3286 602.146 48.2308 602.92 49.3885C603.693 50.5461 604.106 51.9071 604.106 53.2994C604.104 55.1658 603.362 56.9551 602.042 58.2748C600.722 59.5946 598.933 60.3369 597.066 60.339ZM597.066 48.2712C596.072 48.2712 595.1 48.5661 594.273 49.1186C593.446 49.6711 592.801 50.4564 592.421 51.3752C592.04 52.294 591.941 53.305 592.135 54.2804C592.329 55.2558 592.808 56.1517 593.511 56.855C594.214 57.5582 595.11 58.0371 596.085 58.2311C597.061 58.4251 598.072 58.3255 598.991 57.9449C599.909 57.5644 600.695 56.9199 601.247 56.093C601.8 55.2661 602.095 54.2939 602.095 53.2994C602.093 51.9663 601.563 50.6883 600.62 49.7456C599.678 48.803 598.4 48.2727 597.066 48.2712Z" fill="#8891C8"/>
<path d="M290.102 232.923H331.639C334.474 216.537 334.474 199.785 331.639 183.399H290.102C294.782 199.575 294.782 216.747 290.102 232.923Z" fill="#C6CAE2"/>
<path d="M656.188 340.96L650.987 340.96L648.513 320.898L656.189 320.899L656.188 340.96Z" fill="#FFB6B6"/>
<path d="M638.369 340.842C638.208 341.115 638.122 341.995 638.122 342.312C638.122 343.287 638.912 344.078 639.887 344.078H655.993C656.658 344.078 657.197 343.539 657.197 342.873V342.203C657.197 342.203 657.994 340.187 656.354 337.703C656.354 337.703 654.315 339.648 651.268 336.602L650.37 334.974L643.867 339.73L640.263 340.174C639.474 340.271 638.775 340.159 638.369 340.842Z" fill="#2F2E41"/>
<path d="M711.087 334.454L706.335 336.566L695.925 319.24L702.939 316.122L711.087 334.454Z" fill="#FFB6B6"/>
<path d="M694.758 341.585C694.721 341.9 695 342.74 695.129 343.029C695.525 343.92 696.568 344.321 697.459 343.925L712.176 337.382C712.784 337.112 713.057 336.4 712.787 335.792L712.515 335.179C712.515 335.179 712.424 333.014 709.916 331.41C709.916 331.41 708.843 334.016 704.822 332.47L703.34 331.348L699.33 338.336L696.217 340.206C695.536 340.615 694.851 340.796 694.758 341.585Z" fill="#2F2E41"/>
<path d="M644.885 215.43L640.261 225.141L648.122 325.951H657.952L661.993 259.823L697.273 325.951H709.332L691.124 278.783L678.639 217.279L644.885 215.43Z" fill="#2F2E41"/>
<path d="M669.643 153.152H657.45L652.979 160.169L642.892 164.994L645.085 195.255L643.985 217.32L645.492 217.276C656.253 216.962 667.008 218.712 676.994 222.734C679.556 223.765 682.241 224.341 684.553 223.763C684.553 223.763 683.676 220.254 682.799 219.377C681.922 218.5 681.483 217.775 681.922 217.26C682.36 216.745 683.238 216.307 682.36 215.43C681.483 214.553 681.483 213.448 681.483 213.448L678.852 193.94L684.115 166.309L673.151 160.169L669.643 153.152Z" fill="#2F2E41"/>
<path d="M690.595 191.409L690.262 217.29L683.823 240.362L678.676 238.441L680.961 217.294L680.661 188.677L690.595 191.409Z" fill="#FFB6B6"/>
<path d="M683.801 244.082C684.405 240.764 683.298 237.784 681.329 237.426C679.359 237.067 677.273 239.466 676.669 242.783C676.065 246.101 677.172 249.081 679.141 249.439C681.111 249.798 683.197 247.399 683.801 244.082Z" fill="#FFB6B6"/>
<path d="M681.483 164.993C681.483 164.993 688.748 166.119 688.843 172.354C688.938 178.589 695.955 188.677 691.569 196.571L680.168 198.325L674.028 175.958L681.045 164.116" fill="#2F2E41"/>
<path d="M648.322 186.851L633.844 208.305L615.802 224.059L612.552 219.629L626.066 203.204L641.517 179.115L648.322 186.851Z" fill="#FFB6B6"/>
<path d="M613.742 227.157C616.067 224.715 616.777 221.616 615.327 220.236C613.877 218.855 610.817 219.715 608.492 222.157C606.167 224.599 605.457 227.698 606.907 229.079C608.357 230.46 611.417 229.599 613.742 227.157Z" fill="#FFB6B6"/>
<path d="M655.199 159.768C655.199 159.768 660.655 164.696 657.313 169.96C653.972 175.225 654.303 187.508 646.305 191.701L635.811 186.911C636.695 178.262 637.21 169.295 642.951 164.843L655.314 158.794" fill="#2F2E41"/>
<path d="M661.654 151.344C667.68 151.344 672.564 146.459 672.564 140.434C672.564 134.408 667.68 129.523 661.654 129.523C655.629 129.523 650.745 134.408 650.745 140.434C650.745 146.459 655.629 151.344 661.654 151.344Z" fill="#FFB6B6"/>
<path d="M669.667 149.398C670.268 149.501 670.973 148.044 671.648 146.625C673.059 143.655 673.956 141.767 674.024 139.099C674.082 136.824 673.451 137.421 672.836 132.364C672.633 130.696 669.784 130.699 669.204 129.907C668.225 128.57 669.728 128.018 667.29 127.214C662.726 125.709 660.661 128.047 657.762 128.249C657.689 128.254 656.252 129.659 655.449 129.732C654.043 129.859 652.015 129.64 651.105 127.498C650.255 125.494 649.691 131.349 650.451 132.073C651.097 132.689 652.21 134.233 652.238 134.345C652.27 134.472 649.591 131.504 649.144 132.727C648.822 133.607 649.835 138.136 650.654 138.306C651.338 138.449 653.012 136.193 652.634 137.118C651.759 139.264 657.025 140.633 663.329 136.326C663.553 136.173 663.342 136.416 664.122 138.306C665.105 140.69 665.327 140.819 665.31 141.475C665.273 142.897 664.206 143.315 664.518 144.248C664.77 145.004 665.757 145.59 666.498 145.437C667.334 145.264 667.478 144.23 668.083 144.248C668.601 144.264 669.216 145.045 669.271 145.833C669.386 147.493 666.929 147.95 666.498 150.191C666.255 151.455 669.115 149.304 669.667 149.398Z" fill="#2F2E41"/>
<path d="M337.281 176.994C335.591 176.994 333.938 176.493 332.532 175.554C331.127 174.615 330.031 173.28 329.384 171.718C328.737 170.156 328.568 168.437 328.898 166.779C329.227 165.121 330.042 163.598 331.237 162.402C332.433 161.207 333.956 160.393 335.614 160.063C337.272 159.733 338.991 159.902 340.553 160.549C342.115 161.196 343.45 162.292 344.389 163.697C345.328 165.103 345.829 166.756 345.829 168.446C345.827 170.713 344.926 172.886 343.323 174.488C341.721 176.091 339.548 176.992 337.281 176.994ZM337.281 162.341C336.074 162.341 334.893 162.699 333.889 163.37C332.885 164.041 332.103 164.994 331.64 166.11C331.178 167.226 331.057 168.453 331.293 169.638C331.529 170.822 332.11 171.91 332.964 172.764C333.818 173.618 334.906 174.199 336.09 174.435C337.275 174.67 338.502 174.55 339.618 174.087C340.734 173.625 341.687 172.843 342.358 171.839C343.029 170.835 343.387 169.654 343.387 168.446C343.385 166.828 342.741 165.276 341.597 164.131C340.452 162.986 338.9 162.343 337.281 162.341Z" fill="#8891C8"/>
<rect x="336.779" y="163.921" width="1.00565" height="9.05085" fill="#8891C8"/>
<rect x="332.756" y="168.949" width="1.00565" height="9.05085" transform="rotate(-90 332.756 168.949)" fill="#8891C8"/>
<rect x="95.9226" y="60.839" width="31.1808" height="31.1808" stroke="#8891C8"/>
<rect x="84.8604" y="105.088" width="24.1413" height="1.0113" stroke="#8891C8"/>
<rect x="84.8604" y="119.167" width="24.1413" height="1.0113" stroke="#8891C8"/>
<rect x="84.8604" y="134.251" width="24.1413" height="1.0113" stroke="#8891C8"/>
<rect x="84.8604" y="111.122" width="63.3616" height="3.0226" rx="1.5113" stroke="#8891C8"/>
<rect x="84.8604" y="125.201" width="63.3616" height="3.0226" rx="1.5113" stroke="#8891C8"/>
<rect x="84.8604" y="140.285" width="63.3616" height="3.0226" rx="1.5113" stroke="#8891C8"/>
<path d="M524.333 49.2769L519.807 53.8023L524.333 58.3277" stroke="#8891C8" stroke-width="2" stroke-linecap="round"/>
<rect x="519.807" y="180.011" width="83.469" height="12.0678" rx="6.0339" fill="#D9D9D9"/>
<path d="M524.835 74.3955C524.835 72.1864 526.626 70.3955 528.835 70.3955H553.016C555.225 70.3955 557.016 72.1864 557.016 74.3955V82.4859C557.016 84.695 555.225 86.4859 553.016 86.4859H524.835V74.3955Z" fill="#D9D9D9"/>
<path d="M571.095 98.5311C571.095 96.322 572.886 94.5311 575.095 94.5311H599.276C601.485 94.5311 603.276 96.322 603.276 98.5311V110.622H575.095C572.886 110.622 571.095 108.831 571.095 106.622V98.5311Z" fill="#D9D9D9"/>
</svg>
