<svg width="751" height="520" viewBox="0 0 751 520" fill="none" xmlns="http://www.w3.org/2000/svg">
<rect width="750" height="520" rx="16" fill="#D9D9D9"/>
<g clip-path="url(#clip0_454_698)">
<path d="M329.533 120.168C339.692 120.168 347.927 111.952 347.927 101.816C347.927 91.6805 339.692 83.4639 329.533 83.4639C319.375 83.4639 311.139 91.6805 311.139 101.816C311.139 111.952 319.375 120.168 329.533 120.168Z" fill="#FD6584"/>
<path d="M370.699 93.1257C370.181 91.4286 369.176 89.9199 367.809 88.7854C366.441 87.6509 364.772 86.94 363.005 86.7403C362.963 86.7369 362.922 86.7369 362.881 86.7403C362.831 86.7249 362.78 86.7134 362.729 86.706C356.57 85.9087 349.723 87.8469 345.114 92.0672C343.403 93.6091 342.035 95.4916 341.098 97.5933C340.244 96.429 339.118 95.49 337.818 94.8577C336.518 94.2253 335.083 93.9187 333.638 93.9642C331.773 94.0872 329.992 94.7808 328.538 95.9506C327.083 97.1203 326.025 98.7092 325.509 100.501C325.452 100.72 325.468 100.951 325.553 101.16C325.639 101.37 325.79 101.546 325.984 101.662C326.538 102.135 327.197 102.47 327.906 102.638C329.429 102.961 330.965 103.257 332.501 103.525C335.504 104.047 338.524 104.471 341.56 104.797C343.564 105.01 345.574 105.179 347.587 105.305C351.748 105.566 355.93 105.628 360.098 105.498C362.164 105.429 364.148 105.36 366.036 104.453C367.411 103.778 368.586 102.757 369.446 101.49C370.255 100.272 370.786 98.892 371.003 97.4468C371.219 96.0017 371.116 94.5266 370.699 93.1257Z" fill="#E6E6E6"/>
<path d="M332.859 119.863C332.824 119.094 332.695 118.332 332.473 117.595C331.952 115.898 330.946 114.39 329.578 113.255C328.209 112.121 326.539 111.41 324.772 111.209C324.733 111.206 324.694 111.206 324.655 111.209C324.603 111.195 324.55 111.183 324.496 111.175C321.088 110.759 317.629 111.113 314.376 112.213C309.375 113.883 304.987 117.251 302.872 122.062C302.017 120.897 300.89 119.958 299.589 119.326C298.287 118.693 296.851 118.387 295.405 118.433C293.54 118.556 291.76 119.25 290.305 120.42C288.85 121.589 287.792 123.178 287.276 124.97C287.222 125.189 287.239 125.419 287.325 125.628C287.41 125.836 287.559 126.012 287.751 126.131C288.306 126.603 288.965 126.937 289.673 127.107C291.203 127.43 292.732 127.726 294.275 127.994C297.278 128.516 300.296 128.94 303.327 129.266C309.485 129.925 315.681 130.159 321.872 129.967C323.931 129.898 325.922 129.829 327.81 128.922C329.183 128.247 330.356 127.226 331.213 125.96C332.42 124.164 332.999 122.021 332.859 119.863Z" fill="#E6E6E6"/>
<path d="M469.042 351.464H452.275V90.299C451.145 89.4673 450.008 88.6425 448.858 87.8383C448.63 87.6802 448.403 87.5221 448.176 87.3641C434.914 78.1089 420.569 70.5057 405.458 64.7234L402.207 109.469L402.206 109.471H381.285V57.2246C379.921 56.8878 378.557 56.5716 377.18 56.2761V109.471H298.179V54.8945C296.808 55.1488 295.437 55.41 294.073 55.6918V109.471H272.463L272.463 109.469L269.053 62.5445C254.348 67.6303 240.294 74.4268 227.183 82.7933C226.728 83.082 226.273 83.3707 225.819 83.6731C224.902 84.2642 223.986 84.869 223.084 85.4808V351.464H199.476C196.455 351.462 193.481 352.2 190.812 353.612C188.144 355.024 185.864 357.068 184.171 359.564C182.479 362.06 181.426 364.932 181.105 367.928C180.784 370.925 181.204 373.954 182.33 376.751C182.667 377.597 183.07 378.415 183.535 379.198C184.135 380.219 184.832 381.181 185.616 382.071C187.346 384.039 189.478 385.615 191.868 386.695C194.258 387.775 196.852 388.333 199.476 388.333H469.042C473.942 388.333 478.641 386.39 482.106 382.933C485.571 379.476 487.518 374.787 487.518 369.898C487.518 365.009 485.571 360.32 482.106 356.863C478.641 353.406 473.942 351.464 469.042 351.464ZM397.701 171.591L384.661 351.464H290.009L276.968 171.591H397.701ZM401.91 113.567L398.693 157.938H381.285V113.567H401.91ZM377.18 113.567V157.938H345.744C345.115 156.706 344.156 155.671 342.974 154.948C341.792 154.226 340.433 153.843 339.047 153.843H334.942C333.555 153.843 332.196 154.226 331.014 154.948C329.832 155.671 328.873 156.706 328.244 157.938H298.179V113.567H377.18ZM294.073 157.938H275.976L272.759 113.567H294.073V157.938Z" fill="#F2F2F2"/>
<path d="M182.631 381.189C188.616 388.264 195.089 394.913 202.003 401.087L463.488 401.775C470.402 395.6 476.875 388.951 482.859 381.876L182.631 381.189Z" fill="#3F3D56"/>
<path d="M314.683 314.648V385.141H364.179V314.648C364.18 314.141 364.018 313.647 363.716 313.239C363.415 312.831 362.99 312.53 362.505 312.38C362.276 312.305 362.036 312.268 361.795 312.27H317.073C316.76 312.27 316.449 312.331 316.159 312.45C315.87 312.569 315.606 312.744 315.384 312.965C315.162 313.186 314.986 313.448 314.866 313.737C314.745 314.026 314.683 314.336 314.683 314.648ZM333.999 338.87C334.012 337.48 334.575 336.152 335.564 335.174C336.554 334.196 337.89 333.647 339.283 333.647C340.676 333.647 342.012 334.196 343.002 335.174C343.991 336.152 344.553 337.48 344.567 338.87V347.049C344.559 348.443 344 349.777 343.009 350.759C342.019 351.742 340.68 352.294 339.283 352.294C337.886 352.294 336.546 351.742 335.556 350.759C334.566 349.777 334.006 348.443 333.999 347.049V338.87Z" fill="#2F2E41"/>
<path d="M314.531 382.887V389.684C314.532 390.037 314.673 390.374 314.922 390.624C315.171 390.873 315.508 391.015 315.861 391.018H363.001C363.354 391.016 363.693 390.875 363.942 390.625C364.191 390.375 364.331 390.037 364.331 389.684V382.887H314.531Z" fill="#3F3D56"/>
<path d="M236.819 208.442V337.151C236.82 338.792 237.474 340.364 238.636 341.524C239.798 342.684 241.375 343.336 243.019 343.337H434.183C435.827 343.336 437.403 342.684 438.566 341.524C439.728 340.364 440.382 338.792 440.383 337.151V208.442C440.379 206.803 439.725 205.233 438.562 204.074C437.4 202.916 435.826 202.265 434.183 202.263H243.019C241.376 202.265 239.801 202.916 238.639 204.074C237.477 205.233 236.823 206.803 236.819 208.442Z" fill="#3F3D56"/>
<path d="M241.303 210.043V335.564C241.305 336.44 241.654 337.28 242.275 337.9C242.896 338.52 243.738 338.868 244.617 338.87H432.592C433.47 338.868 434.312 338.52 434.933 337.9C435.554 337.28 435.904 336.44 435.905 335.564V210.043C435.905 209.166 435.556 208.324 434.935 207.703C434.314 207.082 433.471 206.732 432.592 206.73H244.617C243.737 206.732 242.895 207.082 242.273 207.703C241.652 208.324 241.303 209.166 241.303 210.043Z" fill="#ECECEC"/>
<path d="M279.633 392.619C279.824 392.858 280.067 393.051 280.344 393.184C280.621 393.316 280.924 393.383 281.231 393.382H393.064C393.37 393.382 393.672 393.313 393.948 393.182C394.224 393.05 394.467 392.859 394.659 392.622C394.852 392.385 394.989 392.108 395.061 391.812C395.133 391.515 395.138 391.206 395.075 390.908L393.339 382.68C393.267 382.345 393.112 382.032 392.889 381.772C392.665 381.511 392.379 381.311 392.058 381.189C391.825 381.098 391.578 381.051 391.328 381.051H282.96C282.71 381.051 282.462 381.098 282.23 381.189C281.908 381.311 281.623 381.511 281.399 381.772C281.175 382.032 281.02 382.345 280.948 382.68L279.212 390.908C279.151 391.206 279.156 391.515 279.229 391.811C279.302 392.107 279.439 392.383 279.633 392.619Z" fill="#2F2E41"/>
<path d="M282.96 382.77C282.926 382.77 282.892 382.776 282.86 382.787C282.805 382.806 282.756 382.838 282.717 382.88C282.677 382.923 282.649 382.974 282.635 383.03L280.898 391.262C280.888 391.309 280.89 391.358 280.902 391.405C280.914 391.452 280.936 391.496 280.968 391.534L280.975 391.543C281.005 391.582 281.044 391.613 281.088 391.634C281.133 391.655 281.182 391.665 281.231 391.664H393.064C393.113 391.664 393.161 391.654 393.205 391.633C393.249 391.612 393.288 391.582 393.319 391.544C393.351 391.507 393.375 391.463 393.388 391.416C393.4 391.368 393.402 391.318 393.392 391.27L391.654 383.034C391.641 382.98 391.616 382.93 391.579 382.888C391.543 382.847 391.497 382.814 391.445 382.794C391.408 382.778 391.368 382.77 391.328 382.77H282.96Z" fill="#F1F1EF"/>
<path d="M250.66 224.022H426.548C426.731 224.018 426.905 223.942 427.033 223.812C427.161 223.682 427.232 223.506 427.232 223.324C427.232 223.141 427.161 222.966 427.033 222.836C426.905 222.705 426.731 222.63 426.548 222.626H250.66C250.478 222.63 250.304 222.705 250.176 222.836C250.048 222.966 249.976 223.141 249.976 223.324C249.976 223.506 250.048 223.682 250.176 223.812C250.304 223.942 250.478 224.018 250.66 224.022Z" fill="#3F3D56"/>
<path d="M289.542 262.52L289.026 262.938C289.2 262.791 289.382 262.654 289.568 262.524L289.542 262.52Z" fill="#F1F1EF"/>
<path d="M326.146 386.9C325.602 386.414 325.273 385.732 325.233 385.004C325.192 384.276 325.442 383.562 325.928 383.018L353.012 352.781C353.253 352.512 353.545 352.293 353.871 352.136C354.197 351.979 354.551 351.888 354.912 351.868C355.273 351.848 355.635 351.899 355.977 352.018C356.318 352.137 356.633 352.323 356.903 352.563C357.172 352.804 357.392 353.095 357.549 353.42C357.706 353.746 357.797 354.099 357.818 354.459C357.838 354.82 357.787 355.18 357.667 355.521C357.548 355.862 357.362 356.176 357.121 356.445L330.037 386.682C329.55 387.225 328.866 387.553 328.137 387.594C327.407 387.635 326.692 387.385 326.146 386.9Z" fill="#6C63FF"/>
<path d="M550.826 436.684C550.826 441.694 549.641 445.53 549.786 448.595C541.66 452.134 533.306 455.123 524.779 457.544C523.815 457.819 522.85 458.08 521.879 458.341C516.623 442.285 511.36 427.583 509.286 426.023C504.54 422.47 502.163 437.172 502.163 433.618C502.163 430.065 504.54 430.065 498.609 425.329C492.67 420.593 496.232 399.279 496.232 399.279L487.924 377.965L497.217 343.97L509.286 299.809H521.156C521.156 299.809 521.507 300.063 522.093 300.537C525.062 302.957 534.017 311.04 533.025 319.941C532.729 322.594 533.39 330.305 534.541 340.574C538.04 371.58 546.079 405.286 546.079 414.18C546.079 426.023 550.826 429.577 550.826 436.684Z" fill="#E6E6E6"/>
<path d="M540.873 340.458C540.859 340.424 540.852 340.396 540.839 340.369C540.572 339.654 540.262 338.956 539.909 338.279C537.904 334.52 540.026 328.746 537.766 322.368C534.115 312.03 529.665 305.934 523.141 300.469C522.948 300.304 522.755 300.146 522.556 299.981L522.549 299.974C518.195 296.407 512.946 293.074 506.429 288.922C505.072 288.056 503.653 287.156 502.178 286.207C500.277 284.991 500.38 280.935 500.491 276.646C500.615 271.883 500.746 266.948 498.403 263.869L498.252 263.67L498.011 263.608C489.98 262.023 481.79 261.393 473.611 261.731H473.604C470.131 261.86 466.682 262.365 463.319 263.237C463.071 263.305 462.823 263.374 462.582 263.456C462.396 263.505 462.21 263.566 462.024 263.628L461.872 263.683L461.755 263.793C459.489 266.055 458.965 270.11 458.717 274.337V274.344C458.669 275.114 458.627 275.883 458.593 276.653C458.4 280.764 458.221 284.647 456.705 286.331C453.325 290.152 449.239 293.288 444.671 295.569C437.554 299.074 431.926 298.964 431.844 298.964L431.189 298.943L431.127 299.589C426.401 308.573 426.581 331.75 426.436 356.569C426.429 357.951 426.42 359.339 426.408 360.734C426.326 372.295 426.105 384.056 425.237 394.771C424.858 399.376 424.369 403.782 423.715 407.899C420.532 427.949 406.114 411.301 399.218 424.642C399.445 425.954 399.826 427.235 400.355 428.457C401.147 428.925 401.96 429.378 402.766 429.832C406.341 431.818 409.983 433.672 413.692 435.392C413.898 435.489 414.105 435.585 414.312 435.674C421.114 438.814 428.125 441.483 435.295 443.661C436.693 444.087 438.092 444.493 439.504 444.878C451.996 448.318 464.859 450.241 477.813 450.603C477.865 450.597 477.918 450.595 477.971 450.596C493.291 450.173 508.511 447.985 523.327 444.073C523.534 444.018 523.74 443.963 523.947 443.908C524.918 443.647 525.883 443.386 526.847 443.111C535.374 440.69 543.729 437.7 551.854 434.162C551.862 434.464 551.892 434.765 551.943 435.062C551.95 435.159 551.964 435.256 551.985 435.351C551.998 435.241 552.012 435.131 552.019 435.021C552.06 434.698 552.095 434.368 552.129 434.038C556.345 393.018 547.59 358.191 540.873 340.458Z" fill="#3F3D56"/>
<path d="M446.197 239.924C450.402 247.595 457.099 253.609 465.187 256.975C473.274 260.341 482.27 260.858 490.692 258.442C499.113 256.026 506.459 250.82 511.519 243.681C516.58 236.543 519.052 227.898 518.531 219.171C518.009 210.443 514.524 202.153 508.649 195.665C502.774 189.178 494.86 184.88 486.21 183.48C477.56 182.079 468.691 183.66 461.061 187.961C453.432 192.262 447.498 199.028 444.238 207.143C444.061 207.583 443.902 208.024 443.743 208.482C441.9 213.598 441.165 219.046 441.588 224.466C442.011 229.886 443.582 235.155 446.197 239.924Z" fill="#FFB6B6"/>
<path d="M510.748 247.458C512.773 247.803 515.15 242.897 517.421 238.119C522.176 228.116 525.198 221.758 525.428 212.77C525.624 205.11 523.495 207.12 521.424 190.089C520.741 184.472 511.142 184.483 509.188 181.816C505.888 177.31 510.952 175.452 502.741 172.745C487.361 167.676 480.407 175.551 470.639 176.23C470.393 176.247 465.551 180.981 462.846 181.225C458.109 181.654 451.274 180.916 448.21 173.7C445.345 166.953 443.447 186.67 446.008 189.11C448.182 191.182 451.932 196.382 452.028 196.76C452.136 197.188 443.11 187.192 441.603 191.312C440.519 194.276 443.932 209.528 446.69 210.102C448.996 210.581 454.635 202.983 453.362 206.099C450.412 213.326 468.155 217.937 489.395 203.431C490.149 202.916 489.437 203.737 492.064 210.102C495.378 218.129 496.126 218.564 496.068 220.775C495.943 225.561 492.348 226.97 493.399 230.114C494.25 232.66 497.576 234.631 500.072 234.116C502.888 233.535 503.371 230.052 505.41 230.114C507.156 230.167 509.229 232.797 509.414 235.451C509.802 241.042 501.523 242.579 500.072 250.126C499.253 254.385 508.887 247.141 510.748 247.458Z" fill="#2F2E41"/>
<path d="M569 345.462C568.904 346.912 568.819 348.457 568.745 350.095C567.285 380.949 568.545 422.484 558.701 445.022C556.497 446.225 554.27 447.375 552.019 448.472C551.93 448.514 551.847 448.555 551.771 448.596C551.165 448.892 550.559 449.18 549.953 449.455C549.93 449.474 549.905 449.488 549.877 449.496C543.22 452.635 536.359 455.324 529.341 457.545C528.48 457.82 527.612 458.081 526.744 458.342C526.558 458.397 526.372 458.452 526.186 458.507C512.964 462.409 499.296 464.601 485.515 465.03C484.798 465.051 484.095 465.065 483.413 465.078C483.172 465.085 482.938 465.092 482.704 465.092C481.932 465.099 481.168 465.106 480.396 465.106C478.839 465.106 477.289 465.083 475.746 465.037C462.792 464.675 449.929 462.752 437.438 459.312C436.025 458.927 434.627 458.521 433.228 458.095C426.058 455.917 419.047 453.248 412.245 450.108C412.038 450.019 411.832 449.923 411.625 449.826C407.919 448.108 404.277 446.255 400.699 444.266C399.893 443.812 399.081 443.359 398.288 442.891C397.76 441.669 397.378 440.388 397.152 439.077C395.588 431.578 394.334 436.637 393.439 421.034C392.619 406.731 392.095 392.386 391.902 384.186C391.84 382.001 391.82 380.248 391.813 379.052C392.543 373.842 404.282 367.931 421.4 362.315C423.019 361.786 424.693 361.257 426.409 360.735C431.038 359.312 435.984 357.916 441.151 356.569C454.308 353.133 468.919 349.978 483.42 347.373C490.578 346.094 497.708 344.947 504.631 343.971C516.776 342.252 528.267 341.063 538.097 340.575C539.041 340.527 539.964 340.486 540.873 340.458C541.851 340.417 542.809 340.39 543.746 340.369C557.909 340.06 567.581 341.531 569 345.462Z" fill="#2F2E41"/>
<path opacity="0.2" d="M569 345.462C568.904 346.912 568.819 348.457 568.745 350.095C558.012 338.561 442.39 390.084 393.439 421.034C392.619 406.731 392.095 392.386 391.902 384.186C391.84 382.001 391.82 380.248 391.813 379.052C392.543 373.842 404.282 367.931 421.4 362.315C423.019 361.786 424.693 361.257 426.408 360.735C431.038 359.312 435.984 357.916 441.15 356.569C454.308 353.133 468.919 349.978 483.42 347.373C490.578 346.094 497.708 344.947 504.631 343.971C516.776 342.252 528.266 341.063 538.097 340.575C539.041 340.527 539.964 340.486 540.873 340.458C541.851 340.417 542.809 340.39 543.746 340.369C557.909 340.06 567.581 341.531 569 345.462Z" fill="#1F1F1F"/>
<path d="M333.863 381.212C334.948 382.576 336.318 383.686 337.879 384.464C339.44 385.242 341.152 385.669 342.896 385.716C344.641 385.762 346.374 385.426 347.974 384.732C349.573 384.037 351.001 383.001 352.157 381.697L391.387 397.773L387.154 376.193L350.549 364.236C348.224 362.445 345.321 361.567 342.391 361.768C339.46 361.97 336.705 363.237 334.649 365.329C332.592 367.422 331.376 370.194 331.231 373.122C331.087 376.049 332.023 378.928 333.863 381.212Z" fill="#FFB6B6"/>
<rect x="249.888" y="227.415" width="177.043" height="101.038" fill="#D9D9D9"/>
<line x1="408.331" y1="214.542" x2="412.464" y2="214.542" stroke="#1F1F1F"/>
<path d="M417.323 212.98H419.063C419.222 212.98 419.353 213.121 419.353 213.293V215.48H419.063V213.293H417.323V212.98ZM416.887 213.605H418.483C418.642 213.605 418.773 213.746 418.773 213.918V216.105C418.773 216.277 418.642 216.417 418.483 216.417H416.887C416.728 216.417 416.597 216.277 416.597 216.105V213.918C416.597 213.746 416.728 213.605 416.887 213.605ZM416.887 216.105H418.483V213.918H416.887V216.105Z" fill="#1F1F1F"/>
<rect x="249.888" y="227.415" width="34.4441" height="101.038" fill="#B6B6B6"/>
<rect x="392.487" y="227.415" width="34.4441" height="101.038" fill="#B6B6B6"/>
<path d="M464.361 291.35L464.146 291.327L441.269 292.984C438.365 293.195 435.538 294.019 432.977 295.402C430.417 296.786 428.18 298.697 426.416 301.009C425.596 302.08 424.887 303.231 424.298 304.444L424.292 304.447C422.32 308.474 421.726 313.034 422.6 317.43L433.37 371.524L407.456 369.175L397.996 370.789L386.833 366.295L363.927 366.684L363.396 368.435L358.59 384.329L358.213 385.578L393.191 407.57L403.332 404.492L408.11 408.153L408.339 408.159L417.812 408.346L458.214 409.137L469.257 389.616L470.983 386.555C483.809 357.887 486.974 337.874 485.97 324.087C485.443 316.802 483.755 311.264 481.712 307.091C475.393 294.195 464.806 291.459 464.361 291.35Z" fill="#3F3D56"/>
<rect x="254.021" y="232.226" width="26.8664" height="2.74933" fill="#D9D9D9"/>
<rect x="254.021" y="252.846" width="22.7331" height="2.74931" fill="#D9D9D9"/>
<rect x="254.021" y="236.35" width="16.5331" height="2.74931" fill="#D9D9D9"/>
<rect x="254.021" y="256.97" width="18.5998" height="2.74933" fill="#D9D9D9"/>
<rect x="254.021" y="240.474" width="20.6664" height="2.74933" fill="#D9D9D9"/>
<rect x="254.021" y="261.094" width="24.1108" height="2.74933" fill="#D9D9D9"/>
<rect x="254.021" y="244.598" width="11.0221" height="2.74933" fill="#D9D9D9"/>
<rect x="254.021" y="265.218" width="11.711" height="2.74933" fill="#D9D9D9"/>
<rect x="393.864" y="232.913" width="26.8664" height="1.37466" fill="#D9D9D9"/>
<rect x="393.864" y="249.409" width="21.3553" height="1.37466" fill="#D9D9D9"/>
<rect x="393.864" y="235.663" width="22.7331" height="1.37466" fill="#D9D9D9"/>
<rect x="393.864" y="252.159" width="17.9109" height="1.37466" fill="#D9D9D9"/>
<rect x="393.864" y="238.412" width="29.6219" height="1.37466" fill="#D9D9D9"/>
<rect x="393.864" y="254.908" width="23.422" height="1.37466" fill="#D9D9D9"/>
<rect x="393.864" y="241.161" width="17.9109" height="1.37466" fill="#D9D9D9"/>
<rect x="393.864" y="257.657" width="14.4665" height="1.37466" fill="#D9D9D9"/>
<rect x="393.864" y="243.911" width="27.5553" height="1.37466" fill="#D9D9D9"/>
<rect x="393.864" y="260.407" width="22.0442" height="1.37466" fill="#D9D9D9"/>
<rect x="310.51" y="261.094" width="55.1105" height="32.9919" fill="#F2F2F2"/>
<path d="M329.109 274.742H331.078V272.778H340.919V274.742H342.887V284.561H340.919V286.525H331.078V284.561H329.109V274.742Z" fill="#D9D9D9"/>
<rect x="328.671" y="272.341" width="2.25552" height="2.24933" stroke="#1F1F1F" stroke-width="0.5"/>
<rect x="328.671" y="284.713" width="2.25552" height="2.24933" stroke="#1F1F1F" stroke-width="0.5"/>
<rect x="341.07" y="284.713" width="2.25552" height="2.24933" stroke="#1F1F1F" stroke-width="0.5"/>
<rect x="341.07" y="272.341" width="2.25552" height="2.24933" stroke="#1F1F1F" stroke-width="0.5"/>
<path d="M343.893 285.737L348.821 288.746L345.728 288.167L345.433 291.293L343.893 285.737Z" fill="#272727"/>
</g>
<defs>
<clipPath id="clip0_454_698">
<rect width="388" height="410.211" fill="white" transform="translate(181 54.8945)"/>
</clipPath>
</defs>
</svg>
