<svg width="388" height="411" viewBox="0 0 388 411" fill="none" xmlns="http://www.w3.org/2000/svg">
<g clip-path="url(#clip0_1002_2711)">
<path d="M148.533 65.3991C158.692 65.3991 166.927 57.1667 166.927 47.0116C166.927 36.8564 158.692 28.624 148.533 28.624C138.375 28.624 130.14 36.8564 130.14 47.0116C130.14 57.1667 138.375 65.3991 148.533 65.3991Z" fill="#FD6584"/>
<path d="M189.699 38.3048C189.181 36.6045 188.176 35.0929 186.809 33.9562C185.441 32.8195 183.772 32.1073 182.005 31.9073C181.963 31.9038 181.922 31.9038 181.881 31.9073C181.831 31.8918 181.78 31.8803 181.729 31.8728C175.57 31.074 168.723 33.016 164.114 37.2443C162.403 38.7892 161.035 40.6753 160.098 42.7811C159.244 41.6146 158.118 40.6738 156.818 40.0402C155.518 39.4066 154.083 39.0994 152.638 39.145C150.773 39.2682 148.992 39.9632 147.538 41.1352C146.083 42.3072 145.025 43.8992 144.509 45.6941C144.452 45.9134 144.468 46.1451 144.553 46.3549C144.639 46.5646 144.79 46.741 144.984 46.8579C145.538 47.3316 146.197 47.6668 146.906 47.8358C148.429 48.1595 149.965 48.4556 151.501 48.7242C154.504 49.2475 157.524 49.6722 160.56 49.9982C162.564 50.2117 164.574 50.3815 166.587 50.5078C170.748 50.7695 174.93 50.8314 179.098 50.7006C181.164 50.6317 183.148 50.5629 185.036 49.6538C186.411 48.9776 187.586 47.9546 188.446 46.6858C189.255 45.4652 189.786 44.0823 190.003 42.6343C190.219 41.1864 190.116 39.7085 189.699 38.3048Z" fill="#E6E6E6"/>
<path d="M151.859 65.0934C151.824 64.3229 151.695 63.5597 151.473 62.8209C150.952 61.1207 149.946 59.6096 148.578 58.4731C147.209 57.3366 145.539 56.6242 143.772 56.4233C143.733 56.4198 143.694 56.4198 143.655 56.4233C143.603 56.4085 143.55 56.397 143.496 56.3888C140.088 55.9714 136.629 56.3268 133.377 57.4287C128.375 59.1021 123.987 62.4765 121.872 67.2971C121.017 66.1298 119.89 65.1886 118.589 64.555C117.288 63.9214 115.851 63.6145 114.405 63.661C112.54 63.7842 110.76 64.4791 109.305 65.6511C107.85 66.8231 106.792 68.4151 106.276 70.2101C106.222 70.4294 106.239 70.66 106.325 70.869C106.41 71.078 106.559 71.2547 106.751 71.3739C107.306 71.8463 107.965 72.1813 108.673 72.3518C110.203 72.6754 111.732 72.9716 113.275 73.2401C116.279 73.7635 119.296 74.1882 122.327 74.5141C128.485 75.175 134.681 75.4097 140.872 75.2165C142.931 75.1477 144.922 75.0788 146.81 74.1698C148.183 73.4934 149.356 72.4703 150.213 71.2017C151.42 69.4028 151.999 67.2553 151.859 65.0934Z" fill="#E6E6E6"/>
<path d="M288.042 297.14H271.275V35.4725C270.145 34.6392 269.008 33.8129 267.858 33.0071C267.63 32.8487 267.403 32.6904 267.176 32.532C253.914 23.259 239.569 15.6412 224.458 9.84774L221.207 54.679L221.206 54.6818H200.285V2.33453C198.921 1.99709 197.557 1.68031 196.18 1.38419V54.6818H117.179V0C115.808 0.254802 114.437 0.516492 113.073 0.79884V54.6818H91.463L91.4627 54.679L88.0528 7.66471C73.3476 12.7603 59.294 19.5698 46.1826 27.9524C45.7279 28.2416 45.2733 28.5309 44.8186 28.8339C43.9024 29.4261 42.9862 30.0321 42.0837 30.6451V297.14H18.4758C15.4553 297.138 12.4806 297.877 9.81229 299.292C7.14399 300.707 4.86363 302.754 3.17114 305.255C1.47865 307.756 0.425701 310.634 0.104625 313.636C-0.216451 316.638 0.204143 319.673 1.32953 322.475C1.66719 323.323 2.07025 324.142 2.53507 324.927C3.13542 325.951 3.83206 326.914 4.61551 327.806C6.34611 329.777 8.47776 331.357 10.868 332.439C13.2582 333.52 15.852 334.08 18.4758 334.079H288.042C292.942 334.079 297.641 332.133 301.106 328.67C304.571 325.206 306.518 320.508 306.518 315.61C306.518 310.711 304.571 306.013 301.106 302.55C297.641 299.086 292.942 297.14 288.042 297.14ZM216.701 116.921L203.661 297.14H109.009L95.9681 116.921H216.701ZM220.91 58.7854L217.693 103.242H200.285V58.7854H220.91ZM196.18 58.7854V103.242H164.744C164.115 102.007 163.156 100.971 161.974 100.246C160.792 99.5221 159.433 99.1387 158.047 99.1383H153.942C152.555 99.1387 151.196 99.5221 150.014 100.246C148.832 100.971 147.873 102.007 147.244 103.242H117.179V58.7854H196.18ZM113.073 103.242H94.976L91.7591 58.7854H113.073V103.242Z" fill="#F2F2F2"/>
<path d="M1.63123 326.922C7.61571 334.011 14.0886 340.672 21.0026 346.858L282.488 347.547C289.402 341.361 295.875 334.699 301.859 327.611L1.63123 326.922Z" fill="#3F3D56"/>
<path d="M133.683 260.253V330.882H183.179V260.253C183.18 259.746 183.018 259.251 182.716 258.842C182.415 258.433 181.99 258.131 181.505 257.981C181.276 257.905 181.036 257.868 180.795 257.871H136.073C135.76 257.87 135.449 257.931 135.159 258.051C134.87 258.17 134.606 258.346 134.384 258.567C134.162 258.788 133.986 259.051 133.866 259.34C133.745 259.63 133.683 259.94 133.683 260.253ZM152.999 284.522C153.012 283.129 153.575 281.799 154.564 280.819C155.554 279.839 156.89 279.289 158.283 279.289C159.676 279.289 161.012 279.839 162.002 280.819C162.991 281.799 163.553 283.129 163.567 284.522V292.717C163.559 294.113 163 295.449 162.009 296.434C161.019 297.419 159.68 297.972 158.283 297.972C156.886 297.972 155.546 297.419 154.556 296.434C153.566 295.449 153.006 294.113 152.999 292.717V284.522Z" fill="#2F2E41"/>
<path d="M133.531 328.623V335.434C133.532 335.787 133.673 336.125 133.922 336.375C134.171 336.625 134.508 336.767 134.861 336.77H182.001C182.354 336.768 182.693 336.627 182.942 336.376C183.191 336.126 183.331 335.787 183.331 335.434V328.623H133.531Z" fill="#3F3D56"/>
<path d="M55.8186 153.843V282.8C55.8199 284.443 56.4735 286.019 57.636 287.181C58.7984 288.343 60.3746 288.997 62.0185 288.998H253.183C254.827 288.997 256.403 288.343 257.566 287.181C258.728 286.019 259.382 284.443 259.383 282.8V153.843C259.379 152.201 258.724 150.627 257.562 149.467C256.4 148.307 254.826 147.654 253.183 147.652H62.0185C60.376 147.654 58.8013 148.307 57.6393 149.467C56.4772 150.627 55.8225 152.201 55.8186 153.843Z" fill="#3F3D56"/>
<path d="M60.3032 155.447V281.209C60.3047 282.087 60.6543 282.929 61.2754 283.55C61.8965 284.17 62.7384 284.52 63.6167 284.521H251.592C252.47 284.52 253.312 284.17 253.933 283.55C254.554 282.929 254.904 282.087 254.905 281.209V155.447C254.905 154.568 254.556 153.725 253.935 153.103C253.314 152.48 252.471 152.13 251.592 152.128H63.6167C62.7373 152.13 61.8946 152.48 61.2734 153.103C60.6522 153.725 60.3033 154.568 60.3032 155.447Z" fill="#ECECEC"/>
<path d="M98.6326 338.374C98.8239 338.614 99.0671 338.807 99.3439 338.94C99.6208 339.072 99.924 339.14 100.231 339.139H212.064C212.37 339.138 212.672 339.07 212.948 338.938C213.224 338.806 213.467 338.615 213.66 338.377C213.852 338.14 213.989 337.862 214.061 337.565C214.133 337.268 214.138 336.959 214.075 336.659L212.339 328.416C212.267 328.08 212.113 327.767 211.889 327.506C211.665 327.245 211.379 327.044 211.058 326.922C210.825 326.831 210.578 326.784 210.328 326.784H101.96C101.71 326.784 101.462 326.831 101.23 326.922C100.908 327.044 100.623 327.245 100.399 327.506C100.175 327.767 100.02 328.08 99.9484 328.416L98.2124 336.659C98.1506 336.959 98.1563 337.268 98.229 337.564C98.3017 337.861 98.4396 338.138 98.6326 338.374Z" fill="#2F2E41"/>
<path d="M101.96 328.506C101.926 328.505 101.892 328.511 101.86 328.523C101.805 328.542 101.756 328.574 101.717 328.616C101.677 328.659 101.649 328.71 101.635 328.766L99.8975 337.014C99.8883 337.062 99.8898 337.111 99.9019 337.158C99.914 337.205 99.9364 337.249 99.9675 337.286L99.9752 337.296C100.005 337.335 100.044 337.366 100.088 337.387C100.133 337.408 100.182 337.418 100.231 337.417H212.064C212.113 337.417 212.161 337.407 212.205 337.386C212.249 337.365 212.288 337.334 212.319 337.296C212.351 337.259 212.375 337.216 212.388 337.168C212.4 337.121 212.402 337.071 212.392 337.023L210.654 328.77C210.641 328.716 210.616 328.666 210.579 328.624C210.543 328.583 210.497 328.55 210.445 328.53C210.408 328.514 210.368 328.506 210.328 328.506H101.96Z" fill="#F1F1EF"/>
<path d="M69.6605 169.452H245.548C245.731 169.448 245.905 169.373 246.033 169.242C246.161 169.111 246.232 168.936 246.232 168.753C246.232 168.57 246.161 168.395 246.033 168.264C245.905 168.133 245.731 168.058 245.548 168.054H69.6605C69.4777 168.058 69.3038 168.133 69.1759 168.264C69.048 168.395 68.9764 168.57 68.9764 168.753C68.9764 168.936 69.048 169.111 69.1759 169.242C69.3038 169.373 69.4777 169.448 69.6605 169.452Z" fill="#3F3D56"/>
<path d="M108.542 208.024L108.026 208.443C108.2 208.296 108.382 208.159 108.568 208.029L108.542 208.024Z" fill="#F1F1EF"/>
<path d="M145.146 332.644C144.602 332.157 144.274 331.474 144.233 330.744C144.192 330.015 144.442 329.3 144.928 328.755L172.012 298.46C172.253 298.19 172.545 297.97 172.871 297.813C173.197 297.656 173.551 297.565 173.912 297.545C174.273 297.525 174.635 297.576 174.977 297.695C175.318 297.815 175.633 298 175.903 298.241C176.173 298.482 176.392 298.774 176.549 299.1C176.706 299.426 176.797 299.78 176.818 300.141C176.838 300.502 176.787 300.864 176.667 301.205C176.548 301.546 176.362 301.861 176.121 302.131L149.037 332.426C148.55 332.97 147.866 333.298 147.137 333.339C146.408 333.38 145.692 333.13 145.146 332.644Z" fill="#6C63FF"/>
<path d="M369.826 382.524C369.826 387.544 368.641 391.386 368.786 394.458C360.66 398.003 352.306 400.999 343.779 403.424C342.815 403.7 341.85 403.961 340.879 404.223C335.623 388.136 330.36 373.406 328.286 371.843C323.54 368.282 321.163 383.012 321.163 379.452C321.163 375.892 323.54 375.892 317.609 371.147C311.67 366.402 315.232 345.047 315.232 345.047L306.924 323.692L316.217 289.631L328.286 245.385H340.156C340.156 245.385 340.507 245.64 341.093 246.115C344.062 248.539 353.017 256.638 352.025 265.556C351.729 268.214 352.39 275.941 353.541 286.229C357.04 317.294 365.079 351.066 365.079 359.977C365.079 371.843 369.826 375.403 369.826 382.524Z" fill="#E6E6E6"/>
<path d="M359.873 286.113C359.859 286.078 359.852 286.051 359.839 286.023C359.573 285.307 359.262 284.607 358.909 283.93C356.904 280.163 359.026 274.378 356.766 267.987C353.115 257.63 348.665 251.522 342.141 246.047C341.948 245.882 341.755 245.723 341.556 245.558L341.549 245.551C337.195 241.977 331.946 238.637 325.429 234.478C324.072 233.61 322.653 232.708 321.179 231.757C319.277 230.538 319.381 226.475 319.491 222.178C319.615 217.406 319.746 212.461 317.403 209.376L317.252 209.176L317.011 209.114C308.98 207.527 300.79 206.895 292.611 207.234H292.604C289.131 207.363 285.682 207.869 282.319 208.743C282.071 208.811 281.823 208.88 281.582 208.963C281.396 209.011 281.21 209.073 281.024 209.135L280.872 209.19L280.755 209.3C278.489 211.566 277.965 215.629 277.717 219.864V219.871C277.669 220.643 277.628 221.414 277.593 222.185C277.4 226.303 277.221 230.194 275.705 231.881C272.325 235.71 268.239 238.852 263.671 241.137C256.555 244.649 250.926 244.539 250.844 244.539L250.189 244.518L250.127 245.165C245.402 254.166 245.581 277.387 245.436 302.255C245.429 303.639 245.42 305.03 245.408 306.428C245.326 318.011 245.105 329.794 244.237 340.53C243.858 345.144 243.369 349.558 242.715 353.683C239.532 373.771 225.114 357.092 218.218 370.459C218.445 371.773 218.826 373.056 219.355 374.281C220.147 374.749 220.96 375.204 221.766 375.658C225.341 377.648 228.983 379.505 232.692 381.229C232.898 381.326 233.105 381.422 233.312 381.512C240.114 384.658 247.125 387.332 254.295 389.514C255.693 389.941 257.092 390.347 258.504 390.733C270.996 394.18 283.859 396.106 296.813 396.469C296.865 396.463 296.918 396.461 296.971 396.462C312.291 396.039 327.511 393.846 342.327 389.927C342.534 389.872 342.741 389.817 342.947 389.762C343.918 389.5 344.883 389.238 345.847 388.963C354.374 386.537 362.729 383.542 370.854 379.997C370.862 380.299 370.892 380.601 370.943 380.899C370.95 380.996 370.964 381.093 370.985 381.188C370.998 381.078 371.012 380.968 371.019 380.858C371.06 380.534 371.095 380.203 371.129 379.873C375.345 338.774 366.59 303.88 359.873 286.113Z" fill="#3F3D56"/>
<path d="M265.197 185.385C269.402 193.071 276.099 199.096 284.187 202.469C292.275 205.841 301.27 206.359 309.692 203.939C318.113 201.518 325.459 196.302 330.519 189.15C335.58 181.998 338.052 173.336 337.531 164.592C337.009 155.847 333.524 147.541 327.649 141.041C321.774 134.541 313.86 130.235 305.21 128.832C296.561 127.429 287.691 129.013 280.061 133.322C272.432 137.632 266.498 144.41 263.238 152.541C263.061 152.982 262.902 153.424 262.743 153.882C260.9 159.008 260.165 164.467 260.588 169.897C261.011 175.328 262.582 180.607 265.197 185.385Z" fill="#FFB6B6"/>
<path d="M329.748 192.934C331.773 193.279 334.15 188.364 336.421 183.576C341.176 173.555 344.198 167.184 344.428 158.179C344.624 150.504 342.495 152.518 340.425 135.455C339.742 129.827 330.142 129.837 328.188 127.165C324.888 122.651 329.952 120.789 321.741 118.077C306.361 112.998 299.407 120.888 289.64 121.568C289.393 121.585 284.551 126.328 281.847 126.574C277.109 127.003 270.274 126.264 267.21 119.034C264.345 112.273 262.447 132.029 265.008 134.473C267.182 136.549 270.932 141.759 271.028 142.138C271.136 142.567 262.11 132.552 260.603 136.679C259.519 139.649 262.932 154.931 265.69 155.505C267.996 155.986 273.635 148.373 272.363 151.495C269.412 158.736 287.155 163.356 308.395 148.822C309.149 148.306 308.437 149.128 311.064 155.505C314.378 163.548 315.126 163.984 315.068 166.199C314.943 170.994 311.348 172.406 312.399 175.556C313.25 178.107 316.576 180.082 319.072 179.566C321.888 178.984 322.371 175.494 324.41 175.556C326.156 175.609 328.229 178.244 328.414 180.903C328.803 186.505 320.523 188.046 319.072 195.607C318.253 199.874 327.888 192.616 329.748 192.934Z" fill="#2F2E41"/>
<path d="M388 291.126C387.904 292.579 387.819 294.126 387.745 295.768C386.285 326.681 387.545 368.297 377.701 390.878C375.497 392.083 373.27 393.235 371.019 394.335C370.93 394.376 370.847 394.417 370.771 394.459C370.165 394.755 369.559 395.044 368.953 395.319C368.93 395.338 368.905 395.352 368.877 395.361C362.22 398.505 355.359 401.199 348.341 403.425C347.48 403.7 346.612 403.962 345.744 404.224C345.558 404.279 345.372 404.334 345.186 404.389C331.964 408.298 318.296 410.494 304.515 410.924C303.798 410.945 303.095 410.959 302.413 410.972C302.172 410.979 301.938 410.986 301.704 410.986C300.933 410.993 300.168 411 299.396 411C297.839 411 296.289 410.977 294.746 410.931C281.792 410.568 268.93 408.642 256.438 405.195C255.025 404.809 253.627 404.403 252.229 403.976C245.058 401.794 238.047 399.12 231.245 395.974C231.038 395.884 230.832 395.788 230.625 395.691C226.919 393.97 223.277 392.113 219.7 390.12C218.894 389.666 218.081 389.211 217.288 388.743C216.76 387.518 216.378 386.235 216.152 384.921C214.588 377.408 213.334 382.476 212.439 366.844C211.619 352.513 211.095 338.141 210.903 329.925C210.841 327.735 210.82 325.979 210.813 324.781C211.543 319.561 223.282 313.638 240.4 308.012C242.019 307.482 243.693 306.951 245.409 306.428C250.038 305.003 254.984 303.605 260.151 302.255C273.308 298.812 287.919 295.651 302.42 293.041C309.578 291.76 316.708 290.61 323.631 289.632C335.776 287.91 347.267 286.719 357.097 286.23C358.041 286.182 358.964 286.14 359.873 286.113C360.851 286.072 361.809 286.044 362.746 286.023C376.909 285.713 386.581 287.187 388 291.126Z" fill="#2F2E41"/>
<path opacity="0.2" d="M388 291.126C387.904 292.579 387.819 294.127 387.745 295.768C377.012 284.212 261.39 335.834 212.438 366.844C211.619 352.513 211.095 338.141 210.902 329.925C210.84 327.735 210.82 325.979 210.813 324.781C211.543 319.561 223.282 313.638 240.4 308.012C242.019 307.482 243.693 306.952 245.408 306.428C250.038 305.003 254.984 303.605 260.15 302.255C273.308 298.812 287.919 295.651 302.42 293.041C309.578 291.76 316.708 290.61 323.631 289.632C335.776 287.91 347.266 286.719 357.097 286.23C358.04 286.182 358.964 286.14 359.873 286.113C360.851 286.072 361.809 286.044 362.746 286.023C376.909 285.713 386.581 287.187 388 291.126Z" fill="#1F1F1F"/>
<path d="M152.863 326.945C153.948 328.311 155.318 329.423 156.879 330.203C158.44 330.983 160.152 331.411 161.896 331.457C163.641 331.503 165.374 331.167 166.974 330.471C168.573 329.776 170.001 328.738 171.157 327.431L210.387 343.538L206.154 321.916L169.549 309.936C167.224 308.141 164.321 307.262 161.391 307.463C158.46 307.665 155.705 308.935 153.649 311.032C151.592 313.128 150.376 315.906 150.231 318.839C150.087 321.772 151.023 324.656 152.863 326.945Z" fill="#FFB6B6"/>
<rect x="68.8882" y="172.852" width="177.043" height="101.232" fill="#D9D9D9"/>
<line x1="227.331" y1="159.956" x2="231.464" y2="159.956" stroke="#1F1F1F"/>
<path d="M236.323 158.39H238.063C238.223 158.39 238.353 158.531 238.353 158.703V160.894H238.063V158.703H236.323V158.39ZM235.888 159.016H237.483C237.642 159.016 237.773 159.157 237.773 159.329V161.52C237.773 161.693 237.642 161.833 237.483 161.833H235.888C235.728 161.833 235.598 161.693 235.598 161.52V159.329C235.598 159.157 235.728 159.016 235.888 159.016ZM235.888 161.52H237.483V159.329H235.888V161.52Z" fill="#1F1F1F"/>
<rect x="68.8882" y="172.852" width="34.4441" height="101.232" fill="#B6B6B6"/>
<rect x="211.487" y="172.852" width="34.4441" height="101.232" fill="#B6B6B6"/>
<path d="M283.361 236.91L283.146 236.887L260.269 238.548C257.365 238.758 254.538 239.584 251.977 240.97C249.417 242.356 247.18 244.271 245.416 246.588C244.596 247.661 243.887 248.814 243.298 250.029L243.292 250.033C241.32 254.067 240.726 258.636 241.6 263.04L252.37 317.239L226.456 314.885L216.996 316.501L205.833 311.999L182.927 312.389L182.396 314.144L177.59 330.068L177.213 331.319L212.192 353.353L222.332 350.27L227.11 353.938L227.339 353.944L236.813 354.131L277.214 354.923L288.258 335.365L289.983 332.298C302.809 303.575 305.974 283.523 304.97 269.71C304.444 262.411 302.755 256.863 300.712 252.681C294.393 239.76 283.806 237.019 283.361 236.91Z" fill="#3F3D56"/>
<rect x="73.0215" y="177.672" width="26.8664" height="2.75461" fill="#D9D9D9"/>
<rect x="73.0215" y="198.332" width="22.7331" height="2.75461" fill="#D9D9D9"/>
<rect x="73.0215" y="181.804" width="16.5332" height="2.75461" fill="#D9D9D9"/>
<rect x="73.0215" y="202.464" width="18.5998" height="2.75461" fill="#D9D9D9"/>
<rect x="73.0215" y="185.937" width="20.6664" height="2.75461" fill="#D9D9D9"/>
<rect x="73.0215" y="206.596" width="24.1108" height="2.75461" fill="#D9D9D9"/>
<rect x="73.0215" y="190.068" width="11.0221" height="2.75461" fill="#D9D9D9"/>
<rect x="73.0215" y="210.728" width="11.711" height="2.75461" fill="#D9D9D9"/>
<rect x="212.864" y="178.361" width="26.8664" height="1.37731" fill="#D9D9D9"/>
<rect x="212.864" y="194.889" width="21.3553" height="1.37731" fill="#D9D9D9"/>
<rect x="212.864" y="181.116" width="22.7331" height="1.37731" fill="#D9D9D9"/>
<rect x="212.864" y="197.644" width="17.9109" height="1.37731" fill="#D9D9D9"/>
<rect x="212.864" y="183.87" width="29.6219" height="1.37731" fill="#D9D9D9"/>
<rect x="212.864" y="200.398" width="23.422" height="1.37731" fill="#D9D9D9"/>
<rect x="212.864" y="186.625" width="17.9109" height="1.37731" fill="#D9D9D9"/>
<rect x="212.864" y="203.152" width="14.4665" height="1.37731" fill="#D9D9D9"/>
<rect x="212.864" y="189.379" width="27.5553" height="1.37731" fill="#D9D9D9"/>
<rect x="212.864" y="205.907" width="22.0442" height="1.37731" fill="#D9D9D9"/>
<rect x="129.51" y="206.596" width="55.1105" height="33.0553" fill="#F2F2F2"/>
<path d="M148.109 220.27H150.078V218.303H159.919V220.27H161.887V230.108H159.919V232.076H150.078V230.108H148.109V220.27Z" fill="#D9D9D9"/>
<rect x="147.671" y="217.864" width="2.25553" height="2.25461" stroke="#1F1F1F" stroke-width="0.5"/>
<rect x="147.671" y="230.26" width="2.25553" height="2.25461" stroke="#1F1F1F" stroke-width="0.5"/>
<rect x="160.07" y="230.26" width="2.25553" height="2.25461" stroke="#1F1F1F" stroke-width="0.5"/>
<rect x="160.07" y="217.864" width="2.25553" height="2.25461" stroke="#1F1F1F" stroke-width="0.5"/>
<path d="M162.893 231.287L167.822 234.301L164.728 233.722L164.433 236.854L162.893 231.287Z" fill="#272727"/>
</g>
<defs>
<clipPath id="clip0_1002_2711">
<rect width="388" height="411" fill="white"/>
</clipPath>
</defs>
</svg>
