<svg width="410" height="298" viewBox="0 0 410 298" fill="none" xmlns="http://www.w3.org/2000/svg">
<g clip-path="url(#clip0_1002_1796)">
<path d="M238.824 52.5341C246.508 52.5341 252.738 46.309 252.738 38.6299C252.738 30.9507 246.508 24.7256 238.824 24.7256C231.14 24.7256 224.911 30.9507 224.911 38.6299C224.911 46.309 231.14 52.5341 238.824 52.5341Z" fill="#F2F2F2"/>
<path d="M346.755 258.889C367.435 243.148 377.313 216.696 371.129 191.462C370.975 190.835 370.813 190.209 370.643 189.585C366.543 174.607 356.4 160.371 341.618 155.585C329.206 151.567 315.658 154.657 302.709 153.059C277.29 149.922 257.583 129.368 243.716 107.848C229.85 86.3281 219.193 62.2396 200.768 44.461C170.396 15.1559 120.853 8.84647 83.1971 27.9219C45.5411 46.9974 21.5545 89.3178 22.5775 131.495C23.6005 173.673 48.6559 213.998 85.0425 235.393C98.4095 243.252 113.87 248.82 129.256 246.872C142.606 245.181 154.736 238.013 168.024 235.885C188.915 232.538 209.672 241.978 227.741 252.977C245.81 263.977 263.264 277.015 283.797 282.114C303.734 287.066 328.435 272.834 346.755 258.889Z" fill="#F2F2F2"/>
<path d="M317.042 28.8076C316.588 28.5056 316.13 28.2191 315.676 27.9275C302.572 19.5518 288.525 12.7474 273.828 7.65494L270.42 54.6365H248.816V0.796738C247.456 0.515536 246.085 0.249957 244.715 0V54.6365H219.041C204.907 54.6365 191.353 49.0256 181.358 39.038C171.364 29.0505 165.75 15.5045 165.75 1.38003C164.374 1.67686 163.009 1.99446 161.644 2.33295V54.6365H140.732L137.486 9.83687C122.382 15.6256 108.043 23.2381 94.7884 32.5049C94.5592 32.6611 94.3299 32.8225 94.1058 32.9788C92.9542 33.7859 91.8183 34.6087 90.6875 35.4419V214.677H152.316L151.227 199.601L145.235 116.829H265.913L259.92 199.601L258.831 214.677H319.777V30.6198C318.871 30.0053 317.959 29.4013 317.042 28.8076ZM161.644 103.159H144.245L141.03 58.74H161.644V103.159ZM244.715 103.159H215.493V102.279C215.493 101.856 215.409 101.437 215.247 101.047C215.085 100.656 214.847 100.301 214.548 100.002C214.248 99.703 213.892 99.4661 213.501 99.3046C213.11 99.1432 212.69 99.0605 212.267 99.0612H199.563C199.14 99.061 198.721 99.1442 198.33 99.3058C197.94 99.4675 197.585 99.7046 197.286 100.003C196.986 100.302 196.749 100.657 196.587 101.048C196.426 101.438 196.343 101.857 196.343 102.279V103.159H165.75V58.74H244.715V103.159ZM248.816 103.159V58.74H270.123L266.908 103.159H248.816Z" fill="#3F3D56"/>
<path d="M0 226.154C4.5268 231.515 9.42304 236.552 14.6529 241.23L395.347 241.751C400.577 237.073 405.473 232.035 410 226.675L0 226.154Z" fill="#3F3D56"/>
<path d="M258.161 177.882V222.512C258.162 223.08 258.388 223.626 258.79 224.028C259.193 224.43 259.738 224.656 260.307 224.657H326.488C327.057 224.656 327.602 224.43 328.005 224.028C328.407 223.626 328.634 223.08 328.634 222.512V177.882C328.633 177.314 328.406 176.769 328.004 176.367C327.601 175.966 327.056 175.74 326.488 175.739H260.307C259.739 175.74 259.194 175.966 258.791 176.367C258.389 176.769 258.162 177.314 258.161 177.882Z" fill="#3F3D56"/>
<path d="M259.714 178.437V221.961C259.714 222.265 259.835 222.556 260.05 222.771C260.265 222.986 260.557 223.107 260.861 223.107H325.937C326.241 223.107 326.532 222.986 326.747 222.771C326.962 222.556 327.083 222.265 327.084 221.961V178.437C327.084 178.133 326.963 177.841 326.748 177.625C326.533 177.41 326.241 177.289 325.937 177.288H260.861C260.556 177.289 260.265 177.41 260.05 177.625C259.834 177.841 259.714 178.133 259.714 178.437Z" fill="#6C63FF"/>
<path d="M256.777 231.216C256.898 231.368 257.052 231.49 257.228 231.574C257.403 231.658 257.595 231.701 257.79 231.7H328.653C328.847 231.7 329.038 231.656 329.213 231.573C329.388 231.489 329.542 231.368 329.664 231.218C329.786 231.067 329.873 230.892 329.919 230.703C329.964 230.515 329.968 230.319 329.928 230.13L328.828 224.908C328.782 224.695 328.684 224.497 328.542 224.331C328.4 224.166 328.219 224.039 328.016 223.961C327.868 223.903 327.711 223.874 327.553 223.874H258.885C258.727 223.874 258.57 223.903 258.423 223.961C258.219 224.039 258.038 224.166 257.896 224.331C257.755 224.497 257.656 224.695 257.611 224.908L256.511 230.13C256.472 230.319 256.475 230.515 256.521 230.703C256.567 230.891 256.655 231.066 256.777 231.216Z" fill="#2F2E41"/>
<path d="M325.122 226.123H326.795C326.936 226.123 327.05 226.009 327.05 225.869V225.069C327.05 224.928 326.936 224.814 326.795 224.814H325.122C324.981 224.814 324.867 224.928 324.867 225.069V225.869C324.867 226.009 324.981 226.123 325.122 226.123Z" fill="#3F3D56"/>
<path d="M320.756 226.123H322.43C322.571 226.123 322.685 226.009 322.685 225.869V225.069C322.685 224.928 322.571 224.814 322.43 224.814H320.756C320.616 224.814 320.502 224.928 320.502 225.069V225.869C320.502 226.009 320.616 226.123 320.756 226.123Z" fill="#3F3D56"/>
<path d="M316.391 226.123H318.065C318.205 226.123 318.319 226.009 318.319 225.869V225.069C318.319 224.928 318.205 224.814 318.065 224.814H316.391C316.251 224.814 316.137 224.928 316.137 225.069V225.869C316.137 226.009 316.251 226.123 316.391 226.123Z" fill="#3F3D56"/>
<path d="M312.026 226.123H313.7C313.84 226.123 313.954 226.009 313.954 225.869V225.069C313.954 224.928 313.84 224.814 313.7 224.814H312.026C311.886 224.814 311.772 224.928 311.772 225.069V225.869C311.772 226.009 311.886 226.123 312.026 226.123Z" fill="#3F3D56"/>
<path d="M307.661 226.123H309.335C309.475 226.123 309.589 226.009 309.589 225.869V225.069C309.589 224.928 309.475 224.814 309.335 224.814H307.661C307.52 224.814 307.407 224.928 307.407 225.069V225.869C307.407 226.009 307.52 226.123 307.661 226.123Z" fill="#3F3D56"/>
<path d="M303.296 226.123H304.97C305.11 226.123 305.224 226.009 305.224 225.869V225.069C305.224 224.928 305.11 224.814 304.97 224.814H303.296C303.155 224.814 303.042 224.928 303.042 225.069V225.869C303.042 226.009 303.155 226.123 303.296 226.123Z" fill="#3F3D56"/>
<path d="M298.931 226.123H300.605C300.745 226.123 300.859 226.009 300.859 225.869V225.069C300.859 224.928 300.745 224.814 300.605 224.814H298.931C298.79 224.814 298.676 224.928 298.676 225.069V225.869C298.676 226.009 298.79 226.123 298.931 226.123Z" fill="#3F3D56"/>
<path d="M294.566 226.123H296.239C296.38 226.123 296.494 226.009 296.494 225.869V225.069C296.494 224.928 296.38 224.814 296.239 224.814H294.566C294.425 224.814 294.311 224.928 294.311 225.069V225.869C294.311 226.009 294.425 226.123 294.566 226.123Z" fill="#3F3D56"/>
<path d="M290.201 226.123H291.874C292.015 226.123 292.129 226.009 292.129 225.869V225.069C292.129 224.928 292.015 224.814 291.874 224.814H290.201C290.06 224.814 289.946 224.928 289.946 225.069V225.869C289.946 226.009 290.06 226.123 290.201 226.123Z" fill="#3F3D56"/>
<path d="M285.835 226.123H287.509C287.65 226.123 287.764 226.009 287.764 225.869V225.069C287.764 224.928 287.65 224.814 287.509 224.814H285.835C285.695 224.814 285.581 224.928 285.581 225.069V225.869C285.581 226.009 285.695 226.123 285.835 226.123Z" fill="#3F3D56"/>
<path d="M281.47 226.123H283.144C283.285 226.123 283.398 226.009 283.398 225.869V225.069C283.398 224.928 283.285 224.814 283.144 224.814H281.47C281.33 224.814 281.216 224.928 281.216 225.069V225.869C281.216 226.009 281.33 226.123 281.47 226.123Z" fill="#3F3D56"/>
<path d="M277.105 226.123H278.779C278.92 226.123 279.033 226.009 279.033 225.869V225.069C279.033 224.928 278.92 224.814 278.779 224.814H277.105C276.965 224.814 276.851 224.928 276.851 225.069V225.869C276.851 226.009 276.965 226.123 277.105 226.123Z" fill="#3F3D56"/>
<path d="M272.74 226.123H274.414C274.554 226.123 274.668 226.009 274.668 225.869V225.069C274.668 224.928 274.554 224.814 274.414 224.814H272.74C272.6 224.814 272.486 224.928 272.486 225.069V225.869C272.486 226.009 272.6 226.123 272.74 226.123Z" fill="#3F3D56"/>
<path d="M268.375 226.123H270.049C270.189 226.123 270.303 226.009 270.303 225.869V225.069C270.303 224.928 270.189 224.814 270.049 224.814H268.375C268.235 224.814 268.121 224.928 268.121 225.069V225.869C268.121 226.009 268.235 226.123 268.375 226.123Z" fill="#3F3D56"/>
<path d="M264.01 226.123H265.684C265.824 226.123 265.938 226.009 265.938 225.869V225.069C265.938 224.928 265.824 224.814 265.684 224.814H264.01C263.869 224.814 263.755 224.928 263.755 225.069V225.869C263.755 226.009 263.869 226.123 264.01 226.123Z" fill="#3F3D56"/>
<path d="M259.645 226.123H261.318C261.459 226.123 261.573 226.009 261.573 225.869V225.069C261.573 224.928 261.459 224.814 261.318 224.814H259.645C259.504 224.814 259.39 224.928 259.39 225.069V225.869C259.39 226.009 259.504 226.123 259.645 226.123Z" fill="#3F3D56"/>
<path d="M325.173 228.304H326.847C326.987 228.304 327.101 228.19 327.101 228.05V227.25C327.101 227.109 326.987 226.996 326.847 226.996H325.173C325.033 226.996 324.919 227.109 324.919 227.25V228.05C324.919 228.19 325.033 228.304 325.173 228.304Z" fill="#3F3D56"/>
<path d="M320.808 228.304H322.482C322.622 228.304 322.736 228.19 322.736 228.05V227.25C322.736 227.109 322.622 226.996 322.482 226.996H320.808C320.667 226.996 320.554 227.109 320.554 227.25V228.05C320.554 228.19 320.667 228.304 320.808 228.304Z" fill="#3F3D56"/>
<path d="M316.443 228.304H318.117C318.257 228.304 318.371 228.19 318.371 228.05V227.25C318.371 227.109 318.257 226.996 318.117 226.996H316.443C316.302 226.996 316.189 227.109 316.189 227.25V228.05C316.189 228.19 316.302 228.304 316.443 228.304Z" fill="#3F3D56"/>
<path d="M312.078 228.304H313.751C313.892 228.304 314.006 228.19 314.006 228.05V227.25C314.006 227.109 313.892 226.996 313.751 226.996H312.078C311.937 226.996 311.823 227.109 311.823 227.25V228.05C311.823 228.19 311.937 228.304 312.078 228.304Z" fill="#3F3D56"/>
<path d="M307.713 228.304H309.386C309.527 228.304 309.641 228.19 309.641 228.05V227.25C309.641 227.109 309.527 226.996 309.386 226.996H307.713C307.572 226.996 307.458 227.109 307.458 227.25V228.05C307.458 228.19 307.572 228.304 307.713 228.304Z" fill="#3F3D56"/>
<path d="M303.347 228.304H305.021C305.162 228.304 305.276 228.19 305.276 228.05V227.25C305.276 227.109 305.162 226.996 305.021 226.996H303.347C303.207 226.996 303.093 227.109 303.093 227.25V228.05C303.093 228.19 303.207 228.304 303.347 228.304Z" fill="#3F3D56"/>
<path d="M298.982 228.304H300.656C300.797 228.304 300.911 228.19 300.911 228.05V227.25C300.911 227.109 300.797 226.996 300.656 226.996H298.982C298.842 226.996 298.728 227.109 298.728 227.25V228.05C298.728 228.19 298.842 228.304 298.982 228.304Z" fill="#3F3D56"/>
<path d="M294.617 228.304H296.291C296.432 228.304 296.545 228.19 296.545 228.05V227.25C296.545 227.109 296.432 226.996 296.291 226.996H294.617C294.477 226.996 294.363 227.109 294.363 227.25V228.05C294.363 228.19 294.477 228.304 294.617 228.304Z" fill="#3F3D56"/>
<path d="M290.252 228.304H291.926C292.066 228.304 292.18 228.19 292.18 228.05V227.25C292.18 227.109 292.066 226.996 291.926 226.996H290.252C290.112 226.996 289.998 227.109 289.998 227.25V228.05C289.998 228.19 290.112 228.304 290.252 228.304Z" fill="#3F3D56"/>
<path d="M285.887 228.304H287.561C287.701 228.304 287.815 228.19 287.815 228.05V227.25C287.815 227.109 287.701 226.996 287.561 226.996H285.887C285.747 226.996 285.633 227.109 285.633 227.25V228.05C285.633 228.19 285.747 228.304 285.887 228.304Z" fill="#3F3D56"/>
<path d="M281.522 228.304H283.196C283.336 228.304 283.45 228.19 283.45 228.05V227.25C283.45 227.109 283.336 226.996 283.196 226.996H281.522C281.382 226.996 281.268 227.109 281.268 227.25V228.05C281.268 228.19 281.382 228.304 281.522 228.304Z" fill="#3F3D56"/>
<path d="M277.157 228.304H278.831C278.971 228.304 279.085 228.19 279.085 228.05V227.25C279.085 227.109 278.971 226.996 278.831 226.996H277.157C277.016 226.996 276.902 227.109 276.902 227.25V228.05C276.902 228.19 277.016 228.304 277.157 228.304Z" fill="#3F3D56"/>
<path d="M272.792 228.304H274.465C274.606 228.304 274.72 228.19 274.72 228.05V227.25C274.72 227.109 274.606 226.996 274.465 226.996H272.792C272.651 226.996 272.537 227.109 272.537 227.25V228.05C272.537 228.19 272.651 228.304 272.792 228.304Z" fill="#3F3D56"/>
<path d="M268.427 228.304H270.1C270.241 228.304 270.355 228.19 270.355 228.05V227.25C270.355 227.109 270.241 226.996 270.1 226.996H268.427C268.286 226.996 268.172 227.109 268.172 227.25V228.05C268.172 228.19 268.286 228.304 268.427 228.304Z" fill="#3F3D56"/>
<path d="M264.061 228.304H265.735C265.876 228.304 265.99 228.19 265.99 228.05V227.25C265.99 227.109 265.876 226.996 265.735 226.996H264.061C263.921 226.996 263.807 227.109 263.807 227.25V228.05C263.807 228.19 263.921 228.304 264.061 228.304Z" fill="#3F3D56"/>
<path d="M259.696 228.304H261.37C261.511 228.304 261.625 228.19 261.625 228.05V227.25C261.625 227.109 261.511 226.996 261.37 226.996H259.696C259.556 226.996 259.442 227.109 259.442 227.25V228.05C259.442 228.19 259.556 228.304 259.696 228.304Z" fill="#3F3D56"/>
<path d="M288.943 230.921H305.894C306.035 230.921 306.149 230.808 306.149 230.667V229.867C306.149 229.727 306.035 229.613 305.894 229.613H288.943C288.802 229.613 288.688 229.727 288.688 229.867V230.667C288.688 230.808 288.802 230.921 288.943 230.921Z" fill="#3F3D56"/>
<path d="M270.983 186.811H269.501C269.052 186.811 268.688 187.175 268.688 187.623C268.688 188.072 269.052 188.436 269.501 188.436H270.983C271.432 188.436 271.796 188.072 271.796 187.623C271.796 187.175 271.432 186.811 270.983 186.811Z" fill="#F1F1EF"/>
<path d="M287.93 186.811H286.448C285.999 186.811 285.635 187.175 285.635 187.623C285.635 188.072 285.999 188.436 286.448 188.436H287.93C288.379 188.436 288.743 188.072 288.743 187.623C288.743 187.175 288.379 186.811 287.93 186.811Z" fill="#F1F1EF"/>
<path d="M292.732 186.811H291.25C290.801 186.811 290.437 187.175 290.437 187.623C290.437 188.072 290.801 188.436 291.25 188.436H292.732C293.181 188.436 293.545 188.072 293.545 187.623C293.545 187.175 293.181 186.811 292.732 186.811Z" fill="#F1F1EF"/>
<path d="M283.32 186.675H274.111C273.662 186.675 273.297 187.039 273.297 187.488C273.297 187.937 273.662 188.301 274.111 188.301H283.32C283.77 188.301 284.134 187.937 284.134 187.488C284.134 187.039 283.77 186.675 283.32 186.675Z" fill="#F1F1EF"/>
<path d="M305.917 186.675H296.707C296.258 186.675 295.894 187.039 295.894 187.488C295.894 187.937 296.258 188.301 296.707 188.301H305.917C306.366 188.301 306.73 187.937 306.73 187.488C306.73 187.039 306.366 186.675 305.917 186.675Z" fill="#F1F1EF"/>
<path d="M275.502 190.479H274.02C273.571 190.479 273.207 190.843 273.207 191.292C273.207 191.741 273.571 192.105 274.02 192.105H275.502C275.951 192.105 276.316 191.741 276.316 191.292C276.316 190.843 275.951 190.479 275.502 190.479Z" fill="#F1F1EF"/>
<path d="M292.449 190.479H290.968C290.518 190.479 290.154 190.843 290.154 191.292C290.154 191.741 290.518 192.105 290.968 192.105H292.449C292.899 192.105 293.263 191.741 293.263 191.292C293.263 190.843 292.899 190.479 292.449 190.479Z" fill="#F1F1EF"/>
<path d="M297.251 190.479H295.769C295.32 190.479 294.956 190.843 294.956 191.292C294.956 191.741 295.32 192.105 295.769 192.105H297.251C297.7 192.105 298.065 191.741 298.065 191.292C298.065 190.843 297.7 190.479 297.251 190.479Z" fill="#F1F1EF"/>
<path d="M287.839 190.345H278.63C278.181 190.345 277.816 190.709 277.816 191.158C277.816 191.607 278.181 191.971 278.63 191.971H287.839C288.289 191.971 288.653 191.607 288.653 191.158C288.653 190.709 288.289 190.345 287.839 190.345Z" fill="#F1F1EF"/>
<path d="M310.436 190.345H301.226C300.777 190.345 300.413 190.709 300.413 191.158C300.413 191.607 300.777 191.971 301.226 191.971H310.436C310.885 191.971 311.249 191.607 311.249 191.158C311.249 190.709 310.885 190.345 310.436 190.345Z" fill="#F1F1EF"/>
<path d="M280.021 194.149H278.54C278.09 194.149 277.726 194.513 277.726 194.962C277.726 195.411 278.09 195.775 278.54 195.775H280.021C280.471 195.775 280.835 195.411 280.835 194.962C280.835 194.513 280.471 194.149 280.021 194.149Z" fill="#F1F1EF"/>
<path d="M296.969 194.149H295.487C295.038 194.149 294.673 194.513 294.673 194.962C294.673 195.411 295.038 195.775 295.487 195.775H296.969C297.418 195.775 297.782 195.411 297.782 194.962C297.782 194.513 297.418 194.149 296.969 194.149Z" fill="#F1F1EF"/>
<path d="M301.77 194.149H300.289C299.839 194.149 299.475 194.513 299.475 194.962C299.475 195.411 299.839 195.775 300.289 195.775H301.77C302.22 195.775 302.584 195.411 302.584 194.962C302.584 194.513 302.22 194.149 301.77 194.149Z" fill="#F1F1EF"/>
<path d="M292.359 194.014H283.149C282.7 194.014 282.336 194.378 282.336 194.827C282.336 195.276 282.7 195.64 283.149 195.64H292.359C292.808 195.64 293.172 195.276 293.172 194.827C293.172 194.378 292.808 194.014 292.359 194.014Z" fill="#F1F1EF"/>
<path d="M314.955 194.014H305.746C305.296 194.014 304.932 194.378 304.932 194.827C304.932 195.276 305.296 195.64 305.746 195.64H314.955C315.405 195.64 315.769 195.276 315.769 194.827C315.769 194.378 315.405 194.014 314.955 194.014Z" fill="#F1F1EF"/>
<path d="M284.541 197.818H283.059C282.61 197.818 282.245 198.182 282.245 198.631C282.245 199.08 282.61 199.444 283.059 199.444H284.541C284.99 199.444 285.354 199.08 285.354 198.631C285.354 198.182 284.99 197.818 284.541 197.818Z" fill="#F1F1EF"/>
<path d="M301.488 197.818H300.006C299.557 197.818 299.193 198.182 299.193 198.631C299.193 199.08 299.557 199.444 300.006 199.444H301.488C301.937 199.444 302.301 199.08 302.301 198.631C302.301 198.182 301.937 197.818 301.488 197.818Z" fill="#F1F1EF"/>
<path d="M306.29 197.818H304.808C304.359 197.818 303.994 198.182 303.994 198.631C303.994 199.08 304.359 199.444 304.808 199.444H306.29C306.739 199.444 307.103 199.08 307.103 198.631C307.103 198.182 306.739 197.818 306.29 197.818Z" fill="#F1F1EF"/>
<path d="M296.878 197.684H287.668C287.219 197.684 286.855 198.048 286.855 198.497C286.855 198.945 287.219 199.309 287.668 199.309H296.878C297.327 199.309 297.692 198.945 297.692 198.497C297.692 198.048 297.327 197.684 296.878 197.684Z" fill="#F1F1EF"/>
<path d="M287.93 212.41H286.448C285.999 212.41 285.635 212.774 285.635 213.223C285.635 213.672 285.999 214.036 286.448 214.036H287.93C288.379 214.036 288.743 213.672 288.743 213.223C288.743 212.774 288.379 212.41 287.93 212.41Z" fill="#F1F1EF"/>
<path d="M292.732 212.41H291.25C290.801 212.41 290.437 212.774 290.437 213.223C290.437 213.672 290.801 214.036 291.25 214.036H292.732C293.181 214.036 293.545 213.672 293.545 213.223C293.545 212.774 293.181 212.41 292.732 212.41Z" fill="#F1F1EF"/>
<path d="M305.917 212.546H296.707C296.258 212.546 295.894 212.91 295.894 213.359C295.894 213.808 296.258 214.172 296.707 214.172H305.917C306.366 214.172 306.73 213.808 306.73 213.359C306.73 212.91 306.366 212.546 305.917 212.546Z" fill="#F1F1EF"/>
<path d="M270.983 212.41H269.501C269.052 212.41 268.688 212.774 268.688 213.223C268.688 213.672 269.052 214.036 269.501 214.036H270.983C271.432 214.036 271.796 213.672 271.796 213.223C271.796 212.774 271.432 212.41 270.983 212.41Z" fill="#F1F1EF"/>
<path d="M283.32 212.546H274.111C273.662 212.546 273.297 212.91 273.297 213.359C273.297 213.808 273.662 214.172 274.111 214.172H283.32C283.77 214.172 284.134 213.808 284.134 213.359C284.134 212.91 283.77 212.546 283.32 212.546Z" fill="#F1F1EF"/>
<path d="M275.502 208.741H274.02C273.571 208.741 273.207 209.105 273.207 209.554C273.207 210.003 273.571 210.367 274.02 210.367H275.502C275.951 210.367 276.316 210.003 276.316 209.554C276.316 209.105 275.951 208.741 275.502 208.741Z" fill="#F1F1EF"/>
<path d="M292.449 208.741H290.968C290.518 208.741 290.154 209.105 290.154 209.554C290.154 210.003 290.518 210.367 290.968 210.367H292.449C292.899 210.367 293.263 210.003 293.263 209.554C293.263 209.105 292.899 208.741 292.449 208.741Z" fill="#F1F1EF"/>
<path d="M297.251 208.741H295.769C295.32 208.741 294.956 209.105 294.956 209.554C294.956 210.003 295.32 210.367 295.769 210.367H297.251C297.7 210.367 298.065 210.003 298.065 209.554C298.065 209.105 297.7 208.741 297.251 208.741Z" fill="#F1F1EF"/>
<path d="M287.839 208.876H278.63C278.181 208.876 277.816 209.24 277.816 209.689C277.816 210.138 278.181 210.502 278.63 210.502H287.839C288.289 210.502 288.653 210.138 288.653 209.689C288.653 209.24 288.289 208.876 287.839 208.876Z" fill="#F1F1EF"/>
<path d="M280.021 205.071H278.54C278.09 205.071 277.726 205.435 277.726 205.884C277.726 206.333 278.09 206.697 278.54 206.697H280.021C280.471 206.697 280.835 206.333 280.835 205.884C280.835 205.435 280.471 205.071 280.021 205.071Z" fill="#F1F1EF"/>
<path d="M296.969 205.071H295.487C295.038 205.071 294.673 205.435 294.673 205.884C294.673 206.333 295.038 206.697 295.487 206.697H296.969C297.418 206.697 297.782 206.333 297.782 205.884C297.782 205.435 297.418 205.071 296.969 205.071Z" fill="#F1F1EF"/>
<path d="M301.77 205.071H300.289C299.839 205.071 299.475 205.435 299.475 205.884C299.475 206.333 299.839 206.697 300.289 206.697H301.77C302.22 206.697 302.584 206.333 302.584 205.884C302.584 205.435 302.22 205.071 301.77 205.071Z" fill="#F1F1EF"/>
<path d="M292.359 205.207H283.149C282.7 205.207 282.336 205.571 282.336 206.02C282.336 206.469 282.7 206.833 283.149 206.833H292.359C292.808 206.833 293.172 206.469 293.172 206.02C293.172 205.571 292.808 205.207 292.359 205.207Z" fill="#F1F1EF"/>
<path d="M284.541 201.401H283.059C282.61 201.401 282.245 201.765 282.245 202.214C282.245 202.663 282.61 203.027 283.059 203.027H284.541C284.99 203.027 285.354 202.663 285.354 202.214C285.354 201.765 284.99 201.401 284.541 201.401Z" fill="#F1F1EF"/>
<path d="M301.488 201.401H300.006C299.557 201.401 299.193 201.765 299.193 202.214C299.193 202.663 299.557 203.027 300.006 203.027H301.488C301.937 203.027 302.301 202.663 302.301 202.214C302.301 201.765 301.937 201.401 301.488 201.401Z" fill="#F1F1EF"/>
<path d="M306.29 201.401H304.808C304.359 201.401 303.994 201.765 303.994 202.214C303.994 202.663 304.359 203.027 304.808 203.027H306.29C306.739 203.027 307.103 202.663 307.103 202.214C307.103 201.765 306.739 201.401 306.29 201.401Z" fill="#F1F1EF"/>
<path d="M296.878 201.537H287.668C287.219 201.537 286.855 201.901 286.855 202.35C286.855 202.799 287.219 203.163 287.668 203.163H296.878C297.327 203.163 297.692 202.799 297.692 202.35C297.692 201.901 297.327 201.537 296.878 201.537Z" fill="#F1F1EF"/>
<path d="M263.105 255.416L256.148 244.427L277.983 227.033L286.995 217.055C288.166 215.759 289.657 214.792 291.319 214.252C292.981 213.712 294.755 213.617 296.465 213.977C298.175 214.337 299.76 215.139 301.063 216.303C302.366 217.467 303.34 218.952 303.888 220.611C304.7 223.068 304.525 225.744 303.401 228.075C302.276 230.406 300.289 232.209 297.859 233.104L283.608 238.351L263.105 255.416Z" fill="#FFB6B6"/>
<path d="M99.8867 175.741V229.149H137.327V175.741C137.327 175.357 137.205 174.983 136.977 174.674C136.749 174.364 136.428 174.136 136.06 174.023C135.887 173.966 135.706 173.938 135.524 173.94H101.695C101.458 173.939 101.223 173.985 101.004 174.076C100.784 174.166 100.585 174.299 100.417 174.466C100.249 174.633 100.116 174.832 100.025 175.051C99.9339 175.27 99.8869 175.504 99.8867 175.741ZM114.498 194.092C114.508 193.039 114.933 192.033 115.682 191.292C116.43 190.551 117.441 190.135 118.495 190.135C119.548 190.135 120.559 190.551 121.308 191.292C122.056 192.033 122.482 193.039 122.491 194.092V200.289C122.486 201.345 122.063 202.356 121.314 203.1C120.565 203.845 119.551 204.263 118.495 204.263C117.438 204.263 116.425 203.845 115.676 203.1C114.927 202.356 114.503 201.345 114.498 200.289V194.092Z" fill="#2F2E41"/>
<path d="M99.7721 227.441V232.591C99.7729 232.858 99.879 233.114 100.067 233.303C100.256 233.492 100.511 233.599 100.778 233.601H136.436C136.703 233.6 136.959 233.493 137.147 233.304C137.336 233.114 137.441 232.858 137.441 232.591V227.441H99.7721Z" fill="#3F3D56"/>
<path d="M40.9885 95.2762V192.791C40.9895 194.033 41.4839 195.225 42.3632 196.104C43.2425 196.982 44.4348 197.476 45.6783 197.477H190.279C191.523 197.476 192.715 196.982 193.594 196.104C194.474 195.225 194.968 194.033 194.969 192.791V95.2762C194.966 94.0346 194.471 92.8448 193.592 91.9673C192.713 91.0899 191.522 90.5963 190.279 90.5947H45.6783C44.4359 90.5963 43.2447 91.0899 42.3657 91.9673C41.4867 92.8448 40.9915 94.0346 40.9885 95.2762Z" fill="#3F3D56"/>
<path d="M44.3807 96.4895V191.588C44.3819 192.252 44.6463 192.888 45.1161 193.358C45.5859 193.827 46.2228 194.091 46.8872 194.093H189.076C189.74 194.091 190.377 193.827 190.847 193.358C191.316 192.888 191.581 192.252 191.582 191.588V96.4895C191.582 95.8247 191.318 95.1871 190.848 94.7166C190.378 94.246 189.741 93.9809 189.076 93.9795H46.8872C46.222 93.9809 45.5845 94.246 45.1146 94.7166C44.6447 95.1871 44.3808 95.8247 44.3807 96.4895Z" fill="#F1F1EF"/>
<path d="M70.7686 233.252C70.9133 233.434 71.0972 233.58 71.3066 233.68C71.516 233.78 71.7454 233.832 71.9775 233.83H156.57C156.802 233.83 157.03 233.778 157.239 233.679C157.448 233.579 157.632 233.434 157.777 233.255C157.923 233.075 158.027 232.865 158.081 232.641C158.136 232.416 158.139 232.182 158.092 231.956L156.779 225.722C156.724 225.468 156.607 225.232 156.438 225.034C156.269 224.837 156.053 224.685 155.81 224.592C155.634 224.523 155.446 224.488 155.257 224.488H73.2854C73.0964 224.488 72.909 224.523 72.7331 224.592C72.49 224.685 72.274 224.837 72.1047 225.034C71.9354 225.232 71.8183 225.468 71.7638 225.722L70.4507 231.956C70.404 232.182 70.4083 232.416 70.4633 232.64C70.5182 232.864 70.6225 233.073 70.7686 233.252Z" fill="#2F2E41"/>
<path d="M184.461 107.079H51.416C51.2777 107.076 51.1461 107.019 51.0494 106.92C50.9527 106.821 50.8986 106.688 50.8986 106.55C50.8986 106.412 50.9527 106.279 51.0494 106.18C51.1461 106.082 51.2777 106.025 51.416 106.021H184.461C184.599 106.025 184.731 106.082 184.828 106.18C184.924 106.279 184.979 106.412 184.979 106.55C184.979 106.688 184.924 106.821 184.828 106.92C184.731 107.019 184.599 107.076 184.461 107.079Z" fill="#3F3D56"/>
<path d="M60.4726 103.323C62.1851 103.323 63.5733 101.904 63.5733 100.155C63.5733 98.4055 62.1851 96.9873 60.4726 96.9873C58.7602 96.9873 57.3719 98.4055 57.3719 100.155C57.3719 101.904 58.7602 103.323 60.4726 103.323Z" fill="#3F3D56"/>
<path d="M71.1841 103.323C72.8965 103.323 74.2847 101.904 74.2847 100.155C74.2847 98.4055 72.8965 96.9873 71.1841 96.9873C69.4716 96.9873 68.0834 98.4055 68.0834 100.155C68.0834 101.904 69.4716 103.323 71.1841 103.323Z" fill="#3F3D56"/>
<path d="M81.8955 103.323C83.6079 103.323 84.9962 101.904 84.9962 100.155C84.9962 98.4055 83.6079 96.9873 81.8955 96.9873C80.183 96.9873 78.7948 98.4055 78.7948 100.155C78.7948 101.904 80.183 103.323 81.8955 103.323Z" fill="#3F3D56"/>
<path d="M178.011 97.7705H170.403C170.253 97.774 170.11 97.8362 170.005 97.9437C169.9 98.0512 169.841 98.1956 169.841 98.3459C169.841 98.4963 169.9 98.6406 170.005 98.7482C170.11 98.8557 170.253 98.9178 170.403 98.9213H178.011C178.162 98.9192 178.307 98.8577 178.413 98.75C178.519 98.6423 178.579 98.4971 178.579 98.3459C178.579 98.1947 178.519 98.0496 178.413 97.9419C178.307 97.8342 178.162 97.7726 178.011 97.7705Z" fill="#3F3D56"/>
<path d="M178.011 99.9316H170.403C170.253 99.935 170.11 99.9971 170.004 100.105C169.899 100.212 169.84 100.357 169.84 100.507C169.84 100.658 169.899 100.802 170.004 100.91C170.11 101.017 170.253 101.079 170.403 101.082H178.011C178.163 101.081 178.307 101.019 178.414 100.912C178.52 100.804 178.58 100.658 178.58 100.507C178.58 100.356 178.52 100.21 178.414 100.103C178.307 99.9949 178.163 99.9335 178.011 99.9316Z" fill="#3F3D56"/>
<path d="M178.011 102.093H170.403C170.253 102.096 170.11 102.158 170.005 102.266C169.9 102.374 169.841 102.518 169.841 102.668C169.841 102.819 169.9 102.963 170.005 103.07C170.11 103.178 170.253 103.24 170.403 103.244H178.011C178.162 103.241 178.307 103.18 178.413 103.072C178.519 102.965 178.579 102.819 178.579 102.668C178.579 102.517 178.519 102.372 178.413 102.264C178.307 102.156 178.162 102.095 178.011 102.093Z" fill="#3F3D56"/>
<path d="M361.422 229.701C361.652 230.369 362.087 230.947 362.666 231.352C363.245 231.758 363.938 231.969 364.644 231.956L378.449 231.601C379.161 231.588 379.849 231.344 380.411 230.907C380.972 230.47 381.377 229.863 381.565 229.176L383.519 208.301C384.212 208.615 384.966 208.77 385.727 208.755C386.388 208.738 387.039 208.592 387.643 208.323C388.248 208.055 388.793 207.671 389.249 207.192C389.704 206.713 390.061 206.15 390.299 205.533C390.536 204.917 390.65 204.259 390.634 203.599C390.617 202.938 390.47 202.288 390.202 201.684C389.934 201.08 389.549 200.535 389.07 200.079C388.591 199.624 388.027 199.268 387.41 199.03C386.793 198.793 386.135 198.679 385.474 198.696C385.17 198.695 384.867 198.726 384.57 198.79C384.246 198.44 383.853 198.162 383.416 197.973C382.978 197.785 382.506 197.69 382.03 197.695L360.796 198.242C360.619 198.249 360.444 198.271 360.272 198.307C359.806 198.394 359.364 198.58 358.976 198.851C358.588 199.123 358.263 199.474 358.023 199.882C357.782 200.29 357.632 200.745 357.582 201.215C357.531 201.686 357.583 202.162 357.732 202.611L361.422 229.701ZM383.919 206.884L385.309 201.909C385.468 201.335 385.471 200.728 385.32 200.152C385.388 200.152 385.447 200.12 385.515 200.12C386.468 200.1 387.39 200.459 388.078 201.117C388.767 201.776 389.167 202.681 389.189 203.633C389.211 204.586 388.855 205.508 388.198 206.198C387.54 206.888 386.636 207.29 385.683 207.315C385.067 207.334 384.457 207.185 383.919 206.884Z" fill="#2F2E41"/>
<path d="M360.271 198.307C360.724 200.892 365.81 202.709 371.926 202.394C377.55 202.135 382.148 200.161 382.991 197.822C382.679 197.73 382.355 197.687 382.03 197.694L360.795 198.242C360.619 198.249 360.444 198.27 360.271 198.307Z" fill="#3F3D56"/>
<path d="M373.047 218.23C373.075 218.223 373.101 218.211 373.126 218.195L376.123 216.234C376.16 216.21 376.189 216.178 376.21 216.14C376.231 216.102 376.241 216.06 376.242 216.016C376.242 215.973 376.231 215.931 376.21 215.893C376.19 215.855 376.16 215.822 376.124 215.799L373.008 213.759C372.979 213.74 372.947 213.727 372.913 213.721C372.88 213.714 372.845 213.714 372.811 213.721C372.778 213.728 372.746 213.742 372.718 213.761C372.689 213.78 372.665 213.805 372.646 213.833C372.627 213.862 372.614 213.894 372.608 213.928C372.602 213.961 372.602 213.996 372.609 214.03C372.616 214.063 372.63 214.095 372.649 214.123C372.669 214.151 372.693 214.176 372.722 214.194L375.505 216.016L372.84 217.759C372.789 217.793 372.751 217.844 372.733 217.903C372.716 217.962 372.72 218.025 372.744 218.082C372.769 218.138 372.813 218.184 372.869 218.211C372.924 218.238 372.987 218.245 373.047 218.23Z" fill="#6C63FF"/>
<path d="M368.312 218.448C368.362 218.435 368.408 218.408 368.442 218.369C368.477 218.33 368.499 218.282 368.506 218.231C368.513 218.179 368.505 218.127 368.482 218.08C368.459 218.034 368.423 217.995 368.378 217.969L365.614 216.386L368.285 214.404C368.313 214.383 368.336 214.358 368.353 214.328C368.371 214.299 368.382 214.267 368.387 214.233C368.392 214.199 368.391 214.164 368.382 214.131C368.374 214.098 368.359 214.067 368.339 214.04C368.318 214.012 368.293 213.989 368.263 213.971C368.234 213.954 368.202 213.942 368.168 213.937C368.134 213.932 368.099 213.934 368.066 213.942C368.033 213.951 368.002 213.966 367.975 213.986L364.984 216.206C364.949 216.231 364.922 216.265 364.903 216.305C364.885 216.344 364.877 216.387 364.879 216.43C364.882 216.473 364.895 216.515 364.918 216.552C364.941 216.588 364.972 216.619 365.01 216.64L368.118 218.421C368.177 218.455 368.246 218.464 368.312 218.448Z" fill="#6C63FF"/>
<path d="M372.749 219.948C372.774 219.942 372.798 219.932 372.82 219.918C372.85 219.9 372.875 219.877 372.895 219.849C372.915 219.822 372.93 219.79 372.938 219.757C372.946 219.724 372.948 219.689 372.942 219.655C372.937 219.622 372.925 219.589 372.908 219.56L368.658 212.578C368.622 212.519 368.564 212.477 368.497 212.46C368.43 212.444 368.359 212.455 368.3 212.491C368.241 212.527 368.199 212.585 368.182 212.652C368.166 212.719 368.177 212.79 368.213 212.849L372.462 219.831C372.491 219.879 372.535 219.916 372.586 219.937C372.638 219.958 372.695 219.962 372.749 219.948Z" fill="#6C63FF"/>
<path d="M170.299 236.238L166.346 244.691L163.647 250.465L159.005 274.756L156.681 277.221L154.689 268.494L133.847 273.118C133.163 269.322 133.664 273.247 133.242 269.082C133.361 268.964 133.486 268.845 133.61 268.726C133.943 268.417 134.223 268.126 134.217 267.847C133.979 253.483 134.692 229.038 140.649 214.228C141.581 211.81 142.811 209.517 144.31 207.402C144.429 207.242 144.542 207.082 144.655 206.921C147.401 203.078 149.137 199.294 151.598 196.603V196.597C151.613 196.584 151.627 196.57 151.64 196.555C151.649 196.551 151.657 196.545 151.664 196.537L168.569 187.579L169.295 207.943L169.812 222.58L170.299 236.238Z" fill="#3F3D56"/>
<path d="M231.258 238.639L236.196 249.197L237.92 252.874L242.561 277.162L244.877 279.622L246.873 270.896L247.811 270.704L264.725 267.204L269.655 282.85C270.766 281 271.203 278.823 270.894 276.688C270.584 274.552 269.546 272.589 267.955 271.13C267.619 270.826 267.338 270.53 267.346 270.249C267.627 253.355 266.592 222.505 257.254 209.808C254.288 205.779 252.509 201.766 249.919 198.962C249.911 198.954 249.911 198.946 249.903 198.946L243.603 188.636L243.218 188.003L242.785 187.787L231.258 238.639Z" fill="#3F3D56"/>
<path d="M201.345 162.346C214.169 162.346 224.564 151.958 224.564 139.143C224.564 126.328 214.169 115.939 201.345 115.939C188.522 115.939 178.127 126.328 178.127 139.143C178.127 151.958 188.522 162.346 201.345 162.346Z" fill="#FFB6B6"/>
<path d="M283.466 240.29C283.461 241.202 283.451 242.478 283.409 244.055C283.404 244.274 283.398 244.498 283.393 244.727C283.326 247.628 283.258 250.06 283.148 252.762C283.143 252.95 283.138 253.132 283.127 253.319C282.982 257.09 282.752 261.48 282.356 268.431C281.622 281.273 280.34 270.197 279.053 274.701C278.99 274.925 278.922 275.191 278.86 275.503C278.665 276.637 278.336 277.743 277.88 278.799C277.198 279.206 276.494 279.596 275.801 279.987C273.826 281.086 271.82 282.143 269.798 283.148C268.662 283.71 267.521 284.262 266.375 284.793C266.192 284.877 266.015 284.96 265.838 285.038C259.967 287.752 253.917 290.059 247.73 291.943C246.521 292.308 245.318 292.662 244.098 292.99C242.827 293.344 241.555 293.677 240.268 293.99C230.693 296.339 220.896 297.664 211.041 297.942C209.712 297.984 208.373 297.999 207.028 297.999C206.361 297.999 205.705 297.994 205.038 297.989C204.835 297.989 204.631 297.984 204.428 297.978C203.839 297.963 203.23 297.952 202.615 297.937C190.723 297.566 178.928 295.671 167.52 292.297L167.035 292.157C166.285 291.927 165.54 291.704 164.794 291.464C161.355 290.376 157.966 289.157 154.628 287.808C152.08 286.783 149.561 285.682 147.072 284.507C147.05 284.501 147.028 284.49 147.01 284.476C146.489 284.236 145.962 283.986 145.441 283.731C145.374 283.694 145.301 283.658 145.228 283.622C143.284 282.674 141.361 281.681 139.459 280.643C137.859 276.972 135.608 276.269 134.212 273.04C133.805 272.081 133.512 271.078 133.336 270.051C133.336 270.041 133.331 270.03 133.331 270.015C133.477 271.952 132.711 266.578 133.326 269.994C133.321 269.931 133.316 269.863 133.31 269.785C133.295 269.598 133.274 269.369 133.243 269.082C131.455 251.643 131.57 231.698 130.794 215.263C130.741 214.201 130.688 213.184 130.632 212.212C130.616 211.889 130.596 211.571 130.575 211.259C130.611 211.165 130.653 211.066 130.7 210.973C130.71 210.946 130.722 210.919 130.736 210.894C130.752 210.862 130.769 210.831 130.788 210.801C130.799 210.785 130.814 210.764 130.825 210.749C130.832 210.731 130.841 210.713 130.851 210.697C130.898 210.624 130.95 210.546 131.007 210.473C131.033 210.441 131.054 210.415 131.08 210.389C131.098 210.363 131.119 210.338 131.143 210.316C131.159 210.291 131.178 210.269 131.2 210.249C131.221 210.228 131.242 210.202 131.268 210.176C131.279 210.159 131.293 210.145 131.309 210.134C131.351 210.087 131.396 210.043 131.445 210.004C131.631 209.833 131.829 209.676 132.039 209.535C132.112 209.488 132.19 209.442 132.263 209.389C132.788 209.076 133.341 208.811 133.915 208.598C134.113 208.525 134.311 208.457 134.525 208.384C134.603 208.364 134.676 208.338 134.754 208.312C134.868 208.275 134.983 208.239 135.103 208.213C135.697 208.036 136.338 207.885 137.031 207.744C137.114 207.728 137.203 207.713 137.291 207.692C137.417 207.666 137.547 207.645 137.677 207.624C137.854 207.593 138.037 207.562 138.219 207.53C139.767 207.286 141.523 207.103 143.461 206.984C143.644 206.973 143.826 206.963 144.008 206.952C144.222 206.942 144.436 206.932 144.654 206.921C144.837 206.911 145.024 206.906 145.212 206.9C145.394 206.89 145.582 206.885 145.775 206.879C146.301 206.864 146.843 206.848 147.395 206.838C148.969 206.807 150.626 206.817 152.366 206.853C153.174 206.874 153.997 206.895 154.842 206.932C154.899 206.932 154.951 206.937 155.003 206.937C155.738 206.963 156.478 206.994 157.239 207.036C157.77 207.062 158.307 207.088 158.844 207.119C159.349 207.15 159.86 207.182 160.376 207.218C160.777 207.239 161.178 207.27 161.584 207.296C161.928 207.322 162.272 207.348 162.616 207.369L163.085 207.4C163.34 207.421 163.596 207.437 163.856 207.463C164.43 207.51 165.003 207.556 165.586 207.603C166.165 207.655 166.754 207.707 167.342 207.76C167.931 207.812 168.525 207.869 169.119 207.926C169.182 207.931 169.239 207.937 169.297 207.942C169.838 207.999 170.38 208.051 170.928 208.108C171.053 208.119 171.183 208.129 171.308 208.145C171.83 208.197 172.361 208.259 172.888 208.315C173.049 208.332 173.21 208.349 173.372 208.367C173.785 208.411 174.191 208.45 174.606 208.499C175.153 208.561 175.711 208.619 176.253 208.692C176.675 208.739 177.097 208.785 177.519 208.838C178.181 208.916 178.853 208.999 179.525 209.087C179.781 209.119 180.036 209.15 180.291 209.186C182.209 209.426 184.147 209.692 186.117 209.968C189.103 210.389 192.136 210.848 195.189 211.342C198.248 211.837 201.324 212.359 204.418 212.91C205.199 213.05 205.981 213.191 206.768 213.337C207.122 213.404 207.476 213.472 207.831 213.54C208.435 213.649 209.04 213.764 209.644 213.878C210.249 213.993 210.853 214.107 211.457 214.227C212.177 214.368 212.901 214.508 213.62 214.649C218.357 215.586 223.067 216.586 227.663 217.633C228.419 217.805 229.174 217.982 229.925 218.154C231.425 218.502 232.912 218.857 234.385 219.216C234.792 219.31 235.193 219.409 235.594 219.508C236.595 219.757 237.595 220.007 238.58 220.263L238.752 220.309C239.476 220.487 240.185 220.669 240.894 220.856C242.566 221.294 244.211 221.736 245.828 222.184C246.902 222.481 247.963 222.781 249.012 223.085C250.58 223.538 252.118 223.996 253.613 224.46C253.983 224.574 254.353 224.689 254.718 224.798C255.812 225.137 256.891 225.48 257.938 225.824C258.772 226.095 259.585 226.371 260.387 226.647C261.19 226.923 261.977 227.199 262.748 227.475C263.243 227.652 263.733 227.839 264.222 228.016C264.926 228.277 265.619 228.537 266.296 228.798C266.505 228.876 266.708 228.959 266.911 229.037C267.042 229.094 267.167 229.141 267.292 229.193C267.537 229.292 267.787 229.386 268.026 229.485C268.271 229.579 268.511 229.678 268.751 229.782C268.985 229.876 269.225 229.974 269.454 230.073C269.689 230.167 269.918 230.266 270.147 230.37C270.34 230.448 270.528 230.532 270.71 230.615C271.08 230.776 271.45 230.938 271.809 231.105C271.987 231.188 272.164 231.266 272.341 231.349L272.747 231.537C272.805 231.568 272.862 231.594 272.919 231.62C273.05 231.683 273.185 231.75 273.315 231.813C273.618 231.953 273.915 232.104 274.206 232.245C274.597 232.443 274.978 232.641 275.342 232.833C275.712 233.031 276.072 233.229 276.416 233.422C276.473 233.453 276.525 233.484 276.583 233.516C276.661 233.557 276.739 233.604 276.817 233.646C277.083 233.797 277.338 233.953 277.594 234.104C278.094 234.411 278.568 234.713 279.011 235.015C279.11 235.083 279.204 235.151 279.303 235.213C279.631 235.447 279.944 235.677 280.235 235.911C280.235 235.916 280.235 235.916 280.241 235.916C280.34 235.989 280.433 236.067 280.527 236.14C280.605 236.213 280.689 236.275 280.767 236.348C281.038 236.583 281.288 236.807 281.517 237.036C281.594 237.106 281.667 237.181 281.736 237.26C281.766 237.285 281.794 237.313 281.82 237.343C281.924 237.447 282.018 237.551 282.106 237.655C282.12 237.67 282.132 237.685 282.143 237.702C282.268 237.848 282.382 237.994 282.492 238.14C282.544 238.213 282.601 238.286 282.648 238.358C282.711 238.447 282.773 238.541 282.825 238.629C282.872 238.702 282.914 238.78 282.955 238.853C283.066 239.041 283.16 239.238 283.237 239.442C283.295 239.58 283.342 239.723 283.378 239.869C283.417 240.007 283.447 240.148 283.466 240.29Z" fill="#2F2E41"/>
<path opacity="0.2" d="M283.466 240.29C283.461 241.202 283.451 242.477 283.409 244.055C283.404 244.274 283.393 244.498 283.388 244.727C283.336 246.94 283.258 249.674 283.148 252.762C283.143 252.95 283.138 253.132 283.127 253.319C282.982 257.09 282.752 261.479 282.356 268.431C281.622 281.273 280.34 270.197 279.053 274.701C275.478 272.504 271.559 270.202 267.37 267.838C266.614 267.411 265.852 266.982 265.082 266.551C256.703 261.88 247.345 256.985 237.574 252.137C237.189 251.945 236.798 251.752 236.412 251.564C214.032 240.509 189.603 229.756 169.812 222.58C165.993 221.195 162.345 219.945 158.916 218.846C151.694 216.539 145.452 214.925 140.647 214.227C135.645 213.498 132.19 213.758 130.794 215.263C130.741 214.201 130.688 213.184 130.632 212.212C130.611 211.889 130.59 211.571 130.569 211.259C130.602 211.173 130.643 211.091 130.684 211.009C130.69 210.997 130.694 210.984 130.7 210.972C130.71 210.945 130.722 210.919 130.736 210.894C130.752 210.862 130.769 210.831 130.788 210.801C130.805 210.764 130.826 210.729 130.851 210.696C130.898 210.624 130.95 210.545 131.007 210.472C131.049 210.418 131.095 210.366 131.143 210.316C131.159 210.291 131.178 210.268 131.2 210.249C131.221 210.228 131.242 210.202 131.268 210.176C131.279 210.159 131.293 210.145 131.309 210.134C131.351 210.087 131.396 210.043 131.445 210.004C131.631 209.833 131.829 209.676 132.039 209.535C132.112 209.488 132.19 209.441 132.263 209.389C132.788 209.075 133.341 208.81 133.915 208.598C134.113 208.525 134.311 208.457 134.524 208.384C134.603 208.363 134.676 208.337 134.754 208.311C134.868 208.275 134.983 208.239 135.103 208.212C135.697 208.035 136.338 207.884 137.031 207.744C137.239 207.702 137.458 207.66 137.677 207.624C137.854 207.593 138.037 207.562 138.219 207.53C139.767 207.286 141.523 207.103 143.461 206.984C143.643 206.973 143.826 206.963 144.008 206.952C144.222 206.942 144.436 206.931 144.654 206.921C144.837 206.911 145.024 206.905 145.212 206.9C145.394 206.89 145.582 206.885 145.775 206.879C146.301 206.864 146.843 206.848 147.395 206.838C148.969 206.812 150.626 206.822 152.366 206.859C153.174 206.874 153.997 206.9 154.842 206.937C154.894 206.937 154.951 206.942 155.003 206.942C155.738 206.963 156.483 206.999 157.239 207.036C157.77 207.062 158.307 207.088 158.843 207.119C159.349 207.15 159.86 207.181 160.376 207.218C160.777 207.239 161.178 207.27 161.584 207.296C161.928 207.322 162.272 207.348 162.616 207.369C163.028 207.4 163.439 207.431 163.856 207.463C164.43 207.509 165.003 207.556 165.586 207.603C166.165 207.655 166.754 207.707 167.342 207.759C167.931 207.811 168.525 207.869 169.119 207.926C169.182 207.931 169.239 207.936 169.296 207.942C169.838 207.999 170.38 208.051 170.927 208.108C173.96 208.416 177.081 208.775 180.291 209.186C182.209 209.431 184.151 209.693 186.117 209.973C189.103 210.394 192.136 210.853 195.189 211.342C198.248 211.837 201.324 212.359 204.418 212.91C205.199 213.05 205.981 213.191 206.768 213.337C207.726 213.514 208.685 213.694 209.644 213.878C210.249 213.993 210.853 214.107 211.457 214.227C212.177 214.368 212.901 214.508 213.62 214.649C218.357 215.586 223.067 216.586 227.663 217.633C228.419 217.805 229.174 217.982 229.925 218.153C231.425 218.502 232.912 218.856 234.385 219.216C234.792 219.315 235.193 219.414 235.594 219.513C236.6 219.763 237.595 220.013 238.58 220.262V220.268C238.637 220.278 238.695 220.294 238.752 220.309C239.471 220.492 240.185 220.674 240.894 220.861C242.566 221.299 244.211 221.74 245.828 222.184C246.902 222.486 247.965 222.783 249.012 223.085C250.58 223.543 252.118 224.001 253.613 224.46C253.983 224.574 254.353 224.689 254.718 224.798C255.812 225.142 256.886 225.484 257.938 225.824C258.772 226.095 259.585 226.371 260.387 226.647C261.19 226.923 261.977 227.199 262.748 227.475C263.248 227.652 263.738 227.834 264.223 228.011C264.931 228.272 265.619 228.532 266.296 228.797C266.505 228.876 266.708 228.959 266.911 229.037C267.292 229.183 267.662 229.334 268.026 229.485C268.271 229.579 268.511 229.678 268.751 229.782C268.985 229.875 269.225 229.974 269.454 230.073C269.689 230.167 269.918 230.266 270.147 230.37C270.34 230.448 270.528 230.532 270.71 230.615C271.08 230.776 271.45 230.938 271.809 231.104C271.987 231.188 272.164 231.266 272.341 231.349L272.747 231.537C272.805 231.568 272.862 231.594 272.919 231.62C273.362 231.828 273.79 232.037 274.206 232.245C274.597 232.443 274.978 232.641 275.342 232.833C275.775 233.062 276.187 233.286 276.583 233.515C276.661 233.557 276.739 233.604 276.817 233.646C277.083 233.797 277.338 233.953 277.594 234.104C278.094 234.411 278.568 234.713 279.011 235.015C279.449 235.317 279.855 235.614 280.235 235.911C280.235 235.916 280.235 235.916 280.241 235.916C280.423 236.062 280.6 236.208 280.767 236.348C281.038 236.583 281.288 236.806 281.517 237.036C281.594 237.106 281.667 237.181 281.736 237.26C281.766 237.285 281.794 237.313 281.82 237.343C281.929 237.463 282.038 237.582 282.143 237.702C282.268 237.848 282.382 237.994 282.492 238.14C282.544 238.213 282.601 238.285 282.648 238.358C282.711 238.447 282.773 238.541 282.825 238.629C282.872 238.702 282.914 238.78 282.956 238.853C283.066 239.041 283.16 239.238 283.237 239.441C283.294 239.58 283.341 239.723 283.378 239.868C283.417 240.007 283.447 240.148 283.466 240.29Z" fill="#1F1F1F"/>
<path d="M89.3942 128.298H88.9711V116.708C88.9711 115.827 88.7976 114.955 88.4605 114.141C88.1234 113.327 87.6293 112.588 87.0064 111.965C86.3835 111.342 85.644 110.848 84.8302 110.511C84.0163 110.174 83.144 110 82.2631 110H57.708C56.8271 110 55.9548 110.174 55.141 110.511C54.3271 110.848 53.5876 111.342 52.9647 111.965C52.3418 112.588 51.8477 113.327 51.5106 114.141C51.1735 114.955 51 115.827 51 116.708V180.292C51 181.173 51.1735 182.045 51.5106 182.859C51.8477 183.673 52.3418 184.412 52.9647 185.035C53.5876 185.658 54.3271 186.152 55.141 186.489C55.9548 186.826 56.8271 187 57.708 187H82.2631C83.144 187 84.0163 186.826 84.8302 186.489C85.644 186.152 86.3835 185.658 87.0064 185.035C87.6293 184.412 88.1234 183.673 88.4605 182.859C88.7976 182.045 88.9711 181.173 88.9711 180.292V136.548H89.3942V128.298Z" fill="#3F3D56"/>
<path d="M87.5934 117.103V180.595C87.5936 181.923 87.066 183.198 86.1267 184.137C85.1874 185.077 83.9132 185.605 82.5846 185.605H57.911C56.5823 185.605 55.3082 185.077 54.3689 184.137C53.4296 183.198 52.902 181.923 52.9022 180.595V117.103C52.9024 115.775 53.4301 114.501 54.3694 113.562C55.3087 112.623 56.5826 112.095 57.911 112.095H60.9044C60.7571 112.456 60.7009 112.848 60.7408 113.236C60.7807 113.624 60.9154 113.997 61.1332 114.321C61.3509 114.645 61.6449 114.91 61.9893 115.093C62.3337 115.277 62.718 115.373 63.1082 115.373H77.1757C77.5659 115.373 77.9502 115.277 78.2946 115.093C78.639 114.91 78.9331 114.645 79.1508 114.321C79.3685 113.997 79.5032 113.625 79.5431 113.236C79.583 112.848 79.5268 112.456 79.3795 112.095H82.5846C83.913 112.095 85.1869 112.623 86.1262 113.562C87.0655 114.501 87.5932 115.775 87.5934 117.103Z" fill="#F1F1EF"/>
<path opacity="0.1" d="M87.5434 173.818V180.598C87.5437 181.926 87.0161 183.201 86.0768 184.14C85.1374 185.08 83.8633 185.608 82.5347 185.608H57.861C56.5324 185.608 55.2583 185.08 54.319 184.14C53.3796 183.201 52.8521 181.926 52.8523 180.598V146.41L73.6396 162.833L73.9953 163.114L77.8621 166.168L78.2232 166.454L87.5434 173.818Z" fill="#1F1F1F"/>
<path d="M66.8825 117.811H56.4586V119.989H66.8825V117.811Z" fill="#3F3D56"/>
<path d="M70.1545 120.832H56.4587V121.543H70.1545V120.832Z" fill="#3F3D56" fill-opacity="0.5"/>
<rect x="83.4946" y="119.233" width="1.77867" height="0.355733" rx="0.177867" fill="#3F3D56"/>
<rect x="83.4946" y="119.767" width="1.77867" height="0.355733" rx="0.177867" fill="#3F3D56"/>
<rect x="83.4946" y="120.301" width="1.77867" height="0.355733" rx="0.177867" fill="#3F3D56"/>
<path d="M74.2453 133.465H56.4586V160.145H74.2453V133.465Z" fill="#3F3D56" fill-opacity="0.5"/>
<path d="M87.5857 133.465H76.3801V160.145H87.5857V133.465Z" fill="#3F3D56" fill-opacity="0.5"/>
<path d="M67.4863 127.414H56.4586V128.837H67.4863V127.414Z" fill="#3F3D56" fill-opacity="0.7"/>
<path d="M80.2927 129.55H56.4586V130.261H80.2927V129.55Z" fill="#3F3D56" fill-opacity="0.5"/>
<path d="M73.8895 130.969H56.4586V131.68H73.8895V130.969Z" fill="#3F3D56" fill-opacity="0.5"/>
<rect x="94" y="110" width="91" height="77" fill="#F1F1EF"/>
<path d="M232.728 122.935C232.548 122.743 232.331 122.589 232.09 122.483C231.85 122.376 231.59 122.32 231.326 122.316L231.675 121.347C231.789 121.042 231.82 120.712 231.765 120.391C231.709 120.071 231.569 119.77 231.359 119.521C231.149 119.272 230.877 119.083 230.57 118.974C230.263 118.865 229.932 118.839 229.612 118.9L228.341 119.144L228.46 118.296C228.506 117.98 228.469 117.657 228.353 117.359C228.236 117.062 228.044 116.8 227.795 116.599C227.546 116.399 227.25 116.266 226.934 116.215C226.619 116.163 226.295 116.195 225.996 116.306C225.723 116.414 225.43 116.458 225.138 116.438C224.846 116.417 224.562 116.331 224.307 116.187C224.052 116.046 223.83 115.852 223.657 115.617C223.484 115.383 223.365 115.113 223.307 114.827L222.864 112.692L222.817 112.578C220.66 108.985 216.512 106.371 211.437 105.412C206.919 104.553 202.286 104.991 197.821 105.402C196.049 105.569 194.048 105.756 192.38 106.777C190.963 107.652 189.765 109.401 190.01 111.167C185.606 109.818 180.885 112.51 178.546 115.905C175.774 119.946 175.32 125.008 175.247 128.966C175.049 138.329 176.982 145.989 180.979 151.738C181.271 152.154 181.344 153.024 181.922 153.316L181.802 153.123C182.449 153.446 183.105 153.967 182.86 154.524C182.157 156.128 186.831 159.674 190.124 160.846C196.132 162.986 204.121 162.804 209.738 162.033L209.936 160.705C211.963 160.429 213.391 159.903 213.792 159.08C214.501 158.476 215.105 157.935 215.631 157.435L215.636 157.43C215.647 157.419 215.668 157.404 215.678 157.393C218.216 154.961 218.805 153.576 219.07 151.467C219.326 149.4 218.872 147.301 218.409 145.411C228.174 146.921 214.563 135.017 223.661 132.715C223.766 132.683 223.872 132.657 223.979 132.637C224.245 132.574 224.511 132.512 224.766 132.439C225.997 132.105 227.175 131.602 228.268 130.945C230.81 129.398 231.649 127.346 232.963 125.034C233.152 124.705 233.231 124.324 233.189 123.946C233.147 123.569 232.986 123.215 232.728 122.935Z" fill="#2F2E41"/>
<path d="M151.485 196.241L151.598 196.597L151.604 196.609L155.004 206.94L158.916 218.844L166.275 241.216L166.346 244.691V244.703L166.893 272.659L165.377 276.449L167.083 282.663C167.083 282.663 166.299 273.27 162.09 278.664C159.706 281.729 156.918 284.866 154.63 287.807C157.965 289.155 161.353 290.375 164.795 291.466C165.538 291.703 166.287 291.929 167.036 292.155C167.196 292.202 167.357 292.25 167.517 292.298C178.926 295.669 190.721 297.564 202.613 297.935C203.231 297.953 203.837 297.965 204.426 297.977C204.634 297.983 204.836 297.989 205.038 297.989C205.704 297.994 206.364 298 207.029 298C208.373 298 209.71 297.981 211.042 297.941C220.897 297.663 230.695 296.339 240.27 293.991C240.205 290.04 240.027 285.424 239.771 280.494C239.652 278.076 236.983 275.456 236.823 272.926C236.71 271.025 239.105 269.237 238.98 267.306C238.172 255.419 237.161 259.982 236.412 251.564C236.335 250.739 236.264 249.949 236.198 249.194C235.717 243.788 235.384 240.408 235.384 240.408L238.582 220.264L243.605 188.637L243.219 188.001L242.785 187.787L216.291 174.683L214.852 171C214.433 169.939 213.706 169.027 212.764 168.382C211.822 167.738 210.709 167.389 209.568 167.382L192.115 167.311C191.209 167.307 190.316 167.518 189.508 167.928C188.701 168.339 188.003 168.935 187.472 169.669L182.747 176.209L151.485 196.241Z" fill="#3F3D56"/>
<path d="M105 114H100V116H105V114Z" fill="#3F3D56" fill-opacity="0.5"/>
<path d="M117 122H100V124H117V122Z" fill="#3F3D56" fill-opacity="0.5"/>
<path d="M134 130H100V164H134V130Z" fill="#3F3D56" fill-opacity="0.5"/>
<path d="M179 130H145V164H179V130Z" fill="#3F3D56" fill-opacity="0.5"/>
<path d="M137 125H100V126H137V125Z" fill="#3F3D56" fill-opacity="0.5"/>
<path d="M165 114H160V116H165V114Z" fill="#3F3D56" fill-opacity="0.5"/>
<path d="M172 114H167V116H172V114Z" fill="#3F3D56" fill-opacity="0.5"/>
<path d="M179 114H174V116H179V114Z" fill="#3F3D56" fill-opacity="0.5"/>
<path d="M144.659 113H134.616V115.099H144.659V113Z" fill="#3F3D56"/>
<path d="M146.268 115.911H133.073V116.597H146.268V115.911Z" fill="#3F3D56" fill-opacity="0.5"/>
</g>
<defs>
<clipPath id="clip0_1002_1796">
<rect width="410" height="298" fill="white"/>
</clipPath>
</defs>
</svg>
