<svg width="750" height="520" viewBox="0 0 750 520" fill="none" xmlns="http://www.w3.org/2000/svg">
<rect width="750" height="520" rx="16" fill="#DCDCDC"/>
<g clip-path="url(#clip0_454_526)">
<path d="M408.824 164.218C416.508 164.218 422.738 158.005 422.738 150.34C422.738 142.676 416.508 136.463 408.824 136.463C401.14 136.463 394.911 142.676 394.911 150.34C394.911 158.005 401.14 164.218 408.824 164.218Z" fill="#F2F2F2"/>
<path d="M516.755 370.177C537.435 354.466 547.313 328.065 541.129 302.88C540.975 302.254 540.813 301.629 540.643 301.007C536.543 286.057 526.4 271.849 511.618 267.072C499.206 263.061 485.658 266.145 472.709 264.55C447.29 261.419 427.583 240.905 413.716 219.426C399.85 197.948 389.193 173.905 370.768 156.161C340.396 126.912 290.853 120.615 253.197 139.653C215.541 158.692 191.555 200.932 192.577 243.028C193.601 285.125 218.656 325.372 255.043 346.726C268.409 354.571 283.87 360.128 299.256 358.183C312.606 356.496 324.736 349.341 338.024 347.217C358.915 343.877 379.672 353.298 397.741 364.277C415.81 375.255 433.264 388.268 453.797 393.358C473.734 398.3 498.435 384.095 516.755 370.177Z" fill="#F2F2F2"/>
<path d="M487.042 140.537C486.588 140.236 486.13 139.95 485.676 139.659C472.572 131.299 458.525 124.508 443.828 119.425L440.42 166.317H418.816V112.58C417.456 112.3 416.085 112.035 414.715 111.785V166.317H389.041C374.907 166.317 361.353 160.717 351.358 150.748C341.364 140.78 335.75 127.26 335.75 113.163C334.374 113.459 333.009 113.776 331.644 114.114V166.317H310.732L307.486 121.603C292.382 127.381 278.043 134.979 264.788 144.228C264.559 144.384 264.33 144.545 264.106 144.701C262.954 145.506 261.818 146.327 260.688 147.159V326.05H322.316L321.227 311.003L315.235 228.39H435.913L429.92 311.003L428.831 326.05H489.777V142.346C488.871 141.733 487.959 141.13 487.042 140.537ZM331.644 214.747H314.245L311.03 170.412H331.644V214.747ZM414.715 214.747H385.493V213.868C385.493 213.446 385.409 213.028 385.247 212.638C385.085 212.248 384.847 211.893 384.548 211.595C384.248 211.297 383.892 211.06 383.501 210.899C383.11 210.738 382.69 210.656 382.267 210.656H369.563C369.14 210.656 368.721 210.739 368.33 210.9C367.94 211.062 367.585 211.298 367.286 211.597C366.986 211.895 366.749 212.249 366.587 212.639C366.426 213.029 366.343 213.446 366.343 213.868V214.747H335.75V170.412H414.715V214.747ZM418.816 214.747V170.412H440.123L436.908 214.747H418.816Z" fill="#3F3D56"/>
<path d="M170 337.505C174.527 342.855 179.423 347.883 184.653 352.552L565.347 353.072C570.577 348.403 575.473 343.375 580 338.025L170 337.505Z" fill="#3F3D56"/>
<path d="M428.161 289.326V333.87C428.162 334.437 428.388 334.982 428.79 335.383C429.193 335.784 429.738 336.01 430.307 336.011H496.488C497.057 336.01 497.602 335.784 498.005 335.383C498.407 334.982 498.634 334.437 498.634 333.87V289.326C498.633 288.758 498.406 288.215 498.004 287.814C497.601 287.413 497.056 287.188 496.488 287.187H430.307C429.739 287.188 429.194 287.413 428.791 287.814C428.389 288.215 428.162 288.758 428.161 289.326Z" fill="#3F3D56"/>
<path d="M429.714 289.88V333.32C429.714 333.624 429.835 333.914 430.05 334.129C430.265 334.343 430.557 334.464 430.861 334.465H495.937C496.241 334.464 496.532 334.343 496.747 334.129C496.962 333.914 497.083 333.624 497.084 333.32V289.88C497.084 289.576 496.963 289.285 496.748 289.07C496.533 288.855 496.241 288.734 495.937 288.733H430.861C430.556 288.734 430.265 288.855 430.05 289.07C429.834 289.285 429.714 289.576 429.714 289.88Z" fill="#1F1F1F"/>
<path d="M426.777 342.557C426.898 342.709 427.052 342.831 427.228 342.915C427.403 342.998 427.595 343.041 427.79 343.04H498.653C498.847 343.04 499.038 342.997 499.213 342.914C499.388 342.83 499.542 342.709 499.664 342.559C499.786 342.409 499.873 342.234 499.919 342.046C499.964 341.858 499.967 341.662 499.928 341.473L498.828 336.261C498.782 336.049 498.684 335.851 498.542 335.686C498.4 335.521 498.219 335.394 498.016 335.317C497.868 335.259 497.711 335.229 497.553 335.229H428.885C428.727 335.229 428.57 335.259 428.423 335.317C428.219 335.394 428.038 335.521 427.896 335.686C427.754 335.851 427.656 336.049 427.611 336.261L426.511 341.473C426.472 341.662 426.475 341.857 426.521 342.045C426.567 342.233 426.655 342.407 426.777 342.557Z" fill="#2F2E41"/>
<path d="M495.122 337.474H496.795C496.936 337.474 497.05 337.361 497.05 337.22V336.422C497.05 336.282 496.936 336.168 496.795 336.168H495.122C494.981 336.168 494.867 336.282 494.867 336.422V337.22C494.867 337.361 494.981 337.474 495.122 337.474Z" fill="#3F3D56"/>
<path d="M490.756 337.474H492.43C492.571 337.474 492.685 337.361 492.685 337.22V336.422C492.685 336.282 492.571 336.168 492.43 336.168H490.756C490.616 336.168 490.502 336.282 490.502 336.422V337.22C490.502 337.361 490.616 337.474 490.756 337.474Z" fill="#3F3D56"/>
<path d="M486.391 337.474H488.065C488.206 337.474 488.319 337.361 488.319 337.22V336.422C488.319 336.282 488.206 336.168 488.065 336.168H486.391C486.251 336.168 486.137 336.282 486.137 336.422V337.22C486.137 337.361 486.251 337.474 486.391 337.474Z" fill="#3F3D56"/>
<path d="M482.026 337.474H483.7C483.84 337.474 483.954 337.361 483.954 337.22V336.422C483.954 336.282 483.84 336.168 483.7 336.168H482.026C481.886 336.168 481.772 336.282 481.772 336.422V337.22C481.772 337.361 481.886 337.474 482.026 337.474Z" fill="#3F3D56"/>
<path d="M477.661 337.474H479.335C479.475 337.474 479.589 337.361 479.589 337.22V336.422C479.589 336.282 479.475 336.168 479.335 336.168H477.661C477.521 336.168 477.407 336.282 477.407 336.422V337.22C477.407 337.361 477.521 337.474 477.661 337.474Z" fill="#3F3D56"/>
<path d="M473.296 337.474H474.97C475.11 337.474 475.224 337.361 475.224 337.22V336.422C475.224 336.282 475.11 336.168 474.97 336.168H473.296C473.155 336.168 473.042 336.282 473.042 336.422V337.22C473.042 337.361 473.155 337.474 473.296 337.474Z" fill="#3F3D56"/>
<path d="M468.931 337.474H470.605C470.745 337.474 470.859 337.361 470.859 337.22V336.422C470.859 336.282 470.745 336.168 470.605 336.168H468.931C468.79 336.168 468.676 336.282 468.676 336.422V337.22C468.676 337.361 468.79 337.474 468.931 337.474Z" fill="#3F3D56"/>
<path d="M464.566 337.474H466.239C466.38 337.474 466.494 337.361 466.494 337.22V336.422C466.494 336.282 466.38 336.168 466.239 336.168H464.566C464.425 336.168 464.311 336.282 464.311 336.422V337.22C464.311 337.361 464.425 337.474 464.566 337.474Z" fill="#3F3D56"/>
<path d="M460.201 337.474H461.874C462.015 337.474 462.129 337.361 462.129 337.22V336.422C462.129 336.282 462.015 336.168 461.874 336.168H460.201C460.06 336.168 459.946 336.282 459.946 336.422V337.22C459.946 337.361 460.06 337.474 460.201 337.474Z" fill="#3F3D56"/>
<path d="M455.835 337.474H457.509C457.65 337.474 457.764 337.361 457.764 337.22V336.422C457.764 336.282 457.65 336.168 457.509 336.168H455.835C455.695 336.168 455.581 336.282 455.581 336.422V337.22C455.581 337.361 455.695 337.474 455.835 337.474Z" fill="#3F3D56"/>
<path d="M451.47 337.474H453.144C453.285 337.474 453.398 337.361 453.398 337.22V336.422C453.398 336.282 453.285 336.168 453.144 336.168H451.47C451.33 336.168 451.216 336.282 451.216 336.422V337.22C451.216 337.361 451.33 337.474 451.47 337.474Z" fill="#3F3D56"/>
<path d="M447.105 337.474H448.779C448.92 337.474 449.033 337.361 449.033 337.22V336.422C449.033 336.282 448.92 336.168 448.779 336.168H447.105C446.965 336.168 446.851 336.282 446.851 336.422V337.22C446.851 337.361 446.965 337.474 447.105 337.474Z" fill="#3F3D56"/>
<path d="M442.74 337.474H444.414C444.554 337.474 444.668 337.361 444.668 337.22V336.422C444.668 336.282 444.554 336.168 444.414 336.168H442.74C442.6 336.168 442.486 336.282 442.486 336.422V337.22C442.486 337.361 442.6 337.474 442.74 337.474Z" fill="#3F3D56"/>
<path d="M438.375 337.474H440.049C440.189 337.474 440.303 337.361 440.303 337.22V336.422C440.303 336.282 440.189 336.168 440.049 336.168H438.375C438.235 336.168 438.121 336.282 438.121 336.422V337.22C438.121 337.361 438.235 337.474 438.375 337.474Z" fill="#3F3D56"/>
<path d="M434.01 337.474H435.684C435.824 337.474 435.938 337.361 435.938 337.22V336.422C435.938 336.282 435.824 336.168 435.684 336.168H434.01C433.869 336.168 433.755 336.282 433.755 336.422V337.22C433.755 337.361 433.869 337.474 434.01 337.474Z" fill="#3F3D56"/>
<path d="M429.645 337.474H431.319C431.459 337.474 431.573 337.361 431.573 337.22V336.422C431.573 336.282 431.459 336.168 431.319 336.168H429.645C429.504 336.168 429.39 336.282 429.39 336.422V337.22C429.39 337.361 429.504 337.474 429.645 337.474Z" fill="#3F3D56"/>
<path d="M495.173 339.651H496.847C496.987 339.651 497.101 339.537 497.101 339.397V338.598C497.101 338.458 496.987 338.345 496.847 338.345H495.173C495.033 338.345 494.919 338.458 494.919 338.598V339.397C494.919 339.537 495.033 339.651 495.173 339.651Z" fill="#3F3D56"/>
<path d="M490.808 339.651H492.482C492.622 339.651 492.736 339.537 492.736 339.397V338.598C492.736 338.458 492.622 338.345 492.482 338.345H490.808C490.667 338.345 490.554 338.458 490.554 338.598V339.397C490.554 339.537 490.667 339.651 490.808 339.651Z" fill="#3F3D56"/>
<path d="M486.443 339.651H488.117C488.257 339.651 488.371 339.537 488.371 339.397V338.598C488.371 338.458 488.257 338.345 488.117 338.345H486.443C486.302 338.345 486.189 338.458 486.189 338.598V339.397C486.189 339.537 486.302 339.651 486.443 339.651Z" fill="#3F3D56"/>
<path d="M482.078 339.651H483.751C483.892 339.651 484.006 339.537 484.006 339.397V338.598C484.006 338.458 483.892 338.345 483.751 338.345H482.078C481.937 338.345 481.823 338.458 481.823 338.598V339.397C481.823 339.537 481.937 339.651 482.078 339.651Z" fill="#3F3D56"/>
<path d="M477.713 339.651H479.386C479.527 339.651 479.641 339.537 479.641 339.397V338.598C479.641 338.458 479.527 338.345 479.386 338.345H477.713C477.572 338.345 477.458 338.458 477.458 338.598V339.397C477.458 339.537 477.572 339.651 477.713 339.651Z" fill="#3F3D56"/>
<path d="M473.347 339.651H475.021C475.162 339.651 475.276 339.537 475.276 339.397V338.598C475.276 338.458 475.162 338.345 475.021 338.345H473.347C473.207 338.345 473.093 338.458 473.093 338.598V339.397C473.093 339.537 473.207 339.651 473.347 339.651Z" fill="#3F3D56"/>
<path d="M468.982 339.651H470.656C470.797 339.651 470.911 339.537 470.911 339.397V338.598C470.911 338.458 470.797 338.345 470.656 338.345H468.982C468.842 338.345 468.728 338.458 468.728 338.598V339.397C468.728 339.537 468.842 339.651 468.982 339.651Z" fill="#3F3D56"/>
<path d="M464.617 339.651H466.291C466.432 339.651 466.545 339.537 466.545 339.397V338.598C466.545 338.458 466.432 338.345 466.291 338.345H464.617C464.477 338.345 464.363 338.458 464.363 338.598V339.397C464.363 339.537 464.477 339.651 464.617 339.651Z" fill="#3F3D56"/>
<path d="M460.252 339.651H461.926C462.066 339.651 462.18 339.537 462.18 339.397V338.598C462.18 338.458 462.066 338.345 461.926 338.345H460.252C460.112 338.345 459.998 338.458 459.998 338.598V339.397C459.998 339.537 460.112 339.651 460.252 339.651Z" fill="#3F3D56"/>
<path d="M455.887 339.651H457.561C457.701 339.651 457.815 339.537 457.815 339.397V338.598C457.815 338.458 457.701 338.345 457.561 338.345H455.887C455.747 338.345 455.633 338.458 455.633 338.598V339.397C455.633 339.537 455.747 339.651 455.887 339.651Z" fill="#3F3D56"/>
<path d="M451.522 339.651H453.196C453.336 339.651 453.45 339.537 453.45 339.397V338.598C453.45 338.458 453.336 338.345 453.196 338.345H451.522C451.381 338.345 451.268 338.458 451.268 338.598V339.397C451.268 339.537 451.381 339.651 451.522 339.651Z" fill="#3F3D56"/>
<path d="M447.157 339.651H448.831C448.971 339.651 449.085 339.537 449.085 339.397V338.598C449.085 338.458 448.971 338.345 448.831 338.345H447.157C447.016 338.345 446.902 338.458 446.902 338.598V339.397C446.902 339.537 447.016 339.651 447.157 339.651Z" fill="#3F3D56"/>
<path d="M442.792 339.651H444.465C444.606 339.651 444.72 339.537 444.72 339.397V338.598C444.72 338.458 444.606 338.345 444.465 338.345H442.792C442.651 338.345 442.537 338.458 442.537 338.598V339.397C442.537 339.537 442.651 339.651 442.792 339.651Z" fill="#3F3D56"/>
<path d="M438.427 339.651H440.1C440.241 339.651 440.355 339.537 440.355 339.397V338.598C440.355 338.458 440.241 338.345 440.1 338.345H438.427C438.286 338.345 438.172 338.458 438.172 338.598V339.397C438.172 339.537 438.286 339.651 438.427 339.651Z" fill="#3F3D56"/>
<path d="M434.061 339.651H435.735C435.876 339.651 435.99 339.537 435.99 339.397V338.598C435.99 338.458 435.876 338.345 435.735 338.345H434.061C433.921 338.345 433.807 338.458 433.807 338.598V339.397C433.807 339.537 433.921 339.651 434.061 339.651Z" fill="#3F3D56"/>
<path d="M429.696 339.651H431.37C431.511 339.651 431.625 339.537 431.625 339.397V338.598C431.625 338.458 431.511 338.345 431.37 338.345H429.696C429.556 338.345 429.442 338.458 429.442 338.598V339.397C429.442 339.537 429.556 339.651 429.696 339.651Z" fill="#3F3D56"/>
<path d="M458.943 342.264H475.894C476.035 342.264 476.149 342.15 476.149 342.01V341.211C476.149 341.071 476.035 340.957 475.894 340.957H458.943C458.802 340.957 458.688 341.071 458.688 341.211V342.01C458.688 342.15 458.802 342.264 458.943 342.264Z" fill="#3F3D56"/>
<path d="M440.983 298.237H439.501C439.052 298.237 438.688 298.6 438.688 299.048C438.688 299.496 439.052 299.86 439.501 299.86H440.983C441.432 299.86 441.796 299.496 441.796 299.048C441.796 298.6 441.432 298.237 440.983 298.237Z" fill="#F1F1EF"/>
<path d="M457.93 298.237H456.448C455.999 298.237 455.635 298.6 455.635 299.048C455.635 299.496 455.999 299.86 456.448 299.86H457.93C458.379 299.86 458.743 299.496 458.743 299.048C458.743 298.6 458.379 298.237 457.93 298.237Z" fill="#F1F1EF"/>
<path d="M462.732 298.237H461.25C460.801 298.237 460.437 298.6 460.437 299.048C460.437 299.496 460.801 299.86 461.25 299.86H462.732C463.181 299.86 463.545 299.496 463.545 299.048C463.545 298.6 463.181 298.237 462.732 298.237Z" fill="#F1F1EF"/>
<path d="M453.32 298.102H444.111C443.661 298.102 443.297 298.465 443.297 298.913C443.297 299.361 443.661 299.724 444.111 299.724H453.32C453.77 299.724 454.134 299.361 454.134 298.913C454.134 298.465 453.77 298.102 453.32 298.102Z" fill="#F1F1EF"/>
<path d="M475.917 298.102H466.707C466.258 298.102 465.894 298.465 465.894 298.913C465.894 299.361 466.258 299.724 466.707 299.724H475.917C476.366 299.724 476.73 299.361 476.73 298.913C476.73 298.465 476.366 298.102 475.917 298.102Z" fill="#F1F1EF"/>
<path d="M445.502 301.899H444.02C443.571 301.899 443.207 302.263 443.207 302.711C443.207 303.159 443.571 303.522 444.02 303.522H445.502C445.951 303.522 446.316 303.159 446.316 302.711C446.316 302.263 445.951 301.899 445.502 301.899Z" fill="#F1F1EF"/>
<path d="M462.449 301.899H460.968C460.518 301.899 460.154 302.263 460.154 302.711C460.154 303.159 460.518 303.522 460.968 303.522H462.449C462.899 303.522 463.263 303.159 463.263 302.711C463.263 302.263 462.899 301.899 462.449 301.899Z" fill="#F1F1EF"/>
<path d="M467.251 301.899H465.769C465.32 301.899 464.956 302.263 464.956 302.711C464.956 303.159 465.32 303.522 465.769 303.522H467.251C467.7 303.522 468.065 303.159 468.065 302.711C468.065 302.263 467.7 301.899 467.251 301.899Z" fill="#F1F1EF"/>
<path d="M457.84 301.764H448.63C448.181 301.764 447.817 302.127 447.817 302.576C447.817 303.024 448.181 303.387 448.63 303.387H457.84C458.289 303.387 458.653 303.024 458.653 302.576C458.653 302.127 458.289 301.764 457.84 301.764Z" fill="#F1F1EF"/>
<path d="M480.436 301.764H471.226C470.777 301.764 470.413 302.127 470.413 302.576C470.413 303.024 470.777 303.387 471.226 303.387H480.436C480.885 303.387 481.249 303.024 481.249 302.576C481.249 302.127 480.885 301.764 480.436 301.764Z" fill="#F1F1EF"/>
<path d="M450.021 305.562H448.54C448.09 305.562 447.726 305.925 447.726 306.373C447.726 306.821 448.09 307.185 448.54 307.185H450.021C450.471 307.185 450.835 306.821 450.835 306.373C450.835 305.925 450.471 305.562 450.021 305.562Z" fill="#F1F1EF"/>
<path d="M466.969 305.562H465.487C465.038 305.562 464.673 305.925 464.673 306.373C464.673 306.821 465.038 307.185 465.487 307.185H466.969C467.418 307.185 467.782 306.821 467.782 306.373C467.782 305.925 467.418 305.562 466.969 305.562Z" fill="#F1F1EF"/>
<path d="M471.77 305.562H470.289C469.839 305.562 469.475 305.925 469.475 306.373C469.475 306.821 469.839 307.185 470.289 307.185H471.77C472.22 307.185 472.584 306.821 472.584 306.373C472.584 305.925 472.22 305.562 471.77 305.562Z" fill="#F1F1EF"/>
<path d="M462.359 305.427H453.149C452.7 305.427 452.336 305.79 452.336 306.238C452.336 306.686 452.7 307.049 453.149 307.049H462.359C462.808 307.049 463.172 306.686 463.172 306.238C463.172 305.79 462.808 305.427 462.359 305.427Z" fill="#F1F1EF"/>
<path d="M484.955 305.427H475.746C475.296 305.427 474.932 305.79 474.932 306.238C474.932 306.686 475.296 307.049 475.746 307.049H484.955C485.405 307.049 485.769 306.686 485.769 306.238C485.769 305.79 485.405 305.427 484.955 305.427Z" fill="#F1F1EF"/>
<path d="M454.541 309.224H453.059C452.61 309.224 452.245 309.587 452.245 310.035C452.245 310.484 452.61 310.847 453.059 310.847H454.541C454.99 310.847 455.354 310.484 455.354 310.035C455.354 309.587 454.99 309.224 454.541 309.224Z" fill="#F1F1EF"/>
<path d="M471.488 309.224H470.006C469.557 309.224 469.193 309.587 469.193 310.035C469.193 310.484 469.557 310.847 470.006 310.847H471.488C471.937 310.847 472.301 310.484 472.301 310.035C472.301 309.587 471.937 309.224 471.488 309.224Z" fill="#F1F1EF"/>
<path d="M476.29 309.224H474.808C474.359 309.224 473.994 309.587 473.994 310.035C473.994 310.484 474.359 310.847 474.808 310.847H476.29C476.739 310.847 477.103 310.484 477.103 310.035C477.103 309.587 476.739 309.224 476.29 309.224Z" fill="#F1F1EF"/>
<path d="M466.878 309.089H457.669C457.219 309.089 456.855 309.452 456.855 309.9C456.855 310.348 457.219 310.712 457.669 310.712H466.878C467.327 310.712 467.692 310.348 467.692 309.9C467.692 309.452 467.327 309.089 466.878 309.089Z" fill="#F1F1EF"/>
<path d="M457.93 323.788H456.448C455.999 323.788 455.635 324.151 455.635 324.599C455.635 325.047 455.999 325.41 456.448 325.41H457.93C458.379 325.41 458.743 325.047 458.743 324.599C458.743 324.151 458.379 323.788 457.93 323.788Z" fill="#F1F1EF"/>
<path d="M462.732 323.788H461.25C460.801 323.788 460.437 324.151 460.437 324.599C460.437 325.047 460.801 325.41 461.25 325.41H462.732C463.181 325.41 463.545 325.047 463.545 324.599C463.545 324.151 463.181 323.788 462.732 323.788Z" fill="#F1F1EF"/>
<path d="M475.917 323.923H466.707C466.258 323.923 465.894 324.286 465.894 324.734C465.894 325.182 466.258 325.546 466.707 325.546H475.917C476.366 325.546 476.73 325.182 476.73 324.734C476.73 324.286 476.366 323.923 475.917 323.923Z" fill="#F1F1EF"/>
<path d="M440.983 323.788H439.501C439.052 323.788 438.688 324.151 438.688 324.599C438.688 325.047 439.052 325.41 439.501 325.41H440.983C441.432 325.41 441.796 325.047 441.796 324.599C441.796 324.151 441.432 323.788 440.983 323.788Z" fill="#F1F1EF"/>
<path d="M453.32 323.923H444.111C443.661 323.923 443.297 324.286 443.297 324.734C443.297 325.182 443.661 325.546 444.111 325.546H453.32C453.77 325.546 454.134 325.182 454.134 324.734C454.134 324.286 453.77 323.923 453.32 323.923Z" fill="#F1F1EF"/>
<path d="M445.502 320.125H444.02C443.571 320.125 443.207 320.489 443.207 320.937C443.207 321.385 443.571 321.748 444.02 321.748H445.502C445.951 321.748 446.316 321.385 446.316 320.937C446.316 320.489 445.951 320.125 445.502 320.125Z" fill="#F1F1EF"/>
<path d="M462.449 320.125H460.968C460.518 320.125 460.154 320.489 460.154 320.937C460.154 321.385 460.518 321.748 460.968 321.748H462.449C462.899 321.748 463.263 321.385 463.263 320.937C463.263 320.489 462.899 320.125 462.449 320.125Z" fill="#F1F1EF"/>
<path d="M467.251 320.125H465.769C465.32 320.125 464.956 320.489 464.956 320.937C464.956 321.385 465.32 321.748 465.769 321.748H467.251C467.7 321.748 468.065 321.385 468.065 320.937C468.065 320.489 467.7 320.125 467.251 320.125Z" fill="#F1F1EF"/>
<path d="M457.84 320.261H448.63C448.181 320.261 447.817 320.624 447.817 321.072C447.817 321.52 448.181 321.883 448.63 321.883H457.84C458.289 321.883 458.653 321.52 458.653 321.072C458.653 320.624 458.289 320.261 457.84 320.261Z" fill="#F1F1EF"/>
<path d="M450.021 316.463H448.54C448.09 316.463 447.726 316.826 447.726 317.274C447.726 317.722 448.09 318.086 448.54 318.086H450.021C450.471 318.086 450.835 317.722 450.835 317.274C450.835 316.826 450.471 316.463 450.021 316.463Z" fill="#F1F1EF"/>
<path d="M466.969 316.463H465.487C465.038 316.463 464.673 316.826 464.673 317.274C464.673 317.722 465.038 318.086 465.487 318.086H466.969C467.418 318.086 467.782 317.722 467.782 317.274C467.782 316.826 467.418 316.463 466.969 316.463Z" fill="#F1F1EF"/>
<path d="M471.77 316.463H470.289C469.839 316.463 469.475 316.826 469.475 317.274C469.475 317.722 469.839 318.086 470.289 318.086H471.77C472.22 318.086 472.584 317.722 472.584 317.274C472.584 316.826 472.22 316.463 471.77 316.463Z" fill="#F1F1EF"/>
<path d="M462.359 316.598H453.149C452.7 316.598 452.336 316.961 452.336 317.409C452.336 317.858 452.7 318.221 453.149 318.221H462.359C462.808 318.221 463.172 317.858 463.172 317.409C463.172 316.961 462.808 316.598 462.359 316.598Z" fill="#F1F1EF"/>
<path d="M454.541 312.8H453.059C452.61 312.8 452.245 313.164 452.245 313.612C452.245 314.06 452.61 314.423 453.059 314.423H454.541C454.99 314.423 455.354 314.06 455.354 313.612C455.354 313.164 454.99 312.8 454.541 312.8Z" fill="#F1F1EF"/>
<path d="M471.488 312.8H470.006C469.557 312.8 469.193 313.164 469.193 313.612C469.193 314.06 469.557 314.423 470.006 314.423H471.488C471.937 314.423 472.301 314.06 472.301 313.612C472.301 313.164 471.937 312.8 471.488 312.8Z" fill="#F1F1EF"/>
<path d="M476.29 312.8H474.808C474.359 312.8 473.994 313.164 473.994 313.612C473.994 314.06 474.359 314.423 474.808 314.423H476.29C476.739 314.423 477.103 314.06 477.103 313.612C477.103 313.164 476.739 312.8 476.29 312.8Z" fill="#F1F1EF"/>
<path d="M466.878 312.936H457.669C457.219 312.936 456.855 313.299 456.855 313.747C456.855 314.195 457.219 314.558 457.669 314.558H466.878C467.327 314.558 467.692 314.195 467.692 313.747C467.692 313.299 467.327 312.936 466.878 312.936Z" fill="#F1F1EF"/>
<path d="M433.105 366.711L426.148 355.743L447.983 338.382L456.995 328.423C458.166 327.129 459.657 326.165 461.319 325.626C462.981 325.086 464.755 324.992 466.465 325.351C468.175 325.71 469.76 326.511 471.063 327.673C472.366 328.835 473.34 330.317 473.888 331.972C474.7 334.425 474.525 337.096 473.401 339.422C472.276 341.749 470.289 343.548 467.859 344.441L453.608 349.678L433.105 366.711Z" fill="#FFB6B6"/>
<path d="M269.887 287.189V340.494H307.327V287.189C307.327 286.806 307.205 286.432 306.977 286.123C306.749 285.815 306.428 285.587 306.06 285.474C305.887 285.417 305.706 285.389 305.524 285.391H271.695C271.458 285.39 271.223 285.436 271.004 285.527C270.784 285.617 270.585 285.749 270.417 285.916C270.249 286.083 270.116 286.281 270.025 286.5C269.934 286.718 269.887 286.953 269.887 287.189ZM284.498 305.505C284.508 304.454 284.933 303.449 285.682 302.71C286.43 301.97 287.441 301.555 288.495 301.555C289.548 301.555 290.559 301.97 291.308 302.71C292.056 303.449 292.482 304.454 292.491 305.505V311.69C292.486 312.744 292.063 313.752 291.314 314.496C290.565 315.239 289.551 315.656 288.495 315.656C287.438 315.656 286.425 315.239 285.676 314.496C284.927 313.752 284.503 312.744 284.498 311.69V305.505Z" fill="#2F2E41"/>
<path d="M269.772 338.79V343.93C269.773 344.196 269.879 344.451 270.067 344.64C270.256 344.829 270.511 344.936 270.778 344.938H306.436C306.703 344.937 306.959 344.83 307.147 344.641C307.336 344.452 307.441 344.196 307.441 343.93V338.79H269.772Z" fill="#3F3D56"/>
<path d="M210.989 206.878V304.205C210.99 305.446 211.484 306.635 212.363 307.512C213.242 308.389 214.435 308.882 215.678 308.883H360.279C361.523 308.882 362.715 308.389 363.594 307.512C364.474 306.635 364.968 305.446 364.969 304.205V206.878C364.966 205.639 364.471 204.451 363.592 203.576C362.713 202.7 361.522 202.207 360.279 202.206H215.678C214.436 202.207 213.245 202.7 212.366 203.576C211.487 204.451 210.991 205.639 210.989 206.878Z" fill="#3F3D56"/>
<path d="M214.381 208.089V303.005C214.382 303.668 214.646 304.303 215.116 304.771C215.586 305.24 216.223 305.504 216.887 305.505H359.076C359.74 305.504 360.377 305.24 360.847 304.771C361.316 304.303 361.581 303.668 361.582 303.005V208.089C361.582 207.426 361.318 206.789 360.848 206.32C360.378 205.85 359.741 205.585 359.076 205.584H216.887C216.222 205.585 215.584 205.85 215.115 206.32C214.645 206.789 214.381 207.426 214.381 208.089Z" fill="#F1F1EF"/>
<path d="M240.769 344.59C240.913 344.771 241.097 344.917 241.307 345.016C241.516 345.116 241.745 345.168 241.977 345.166H326.57C326.802 345.166 327.03 345.114 327.239 345.015C327.448 344.916 327.632 344.771 327.777 344.592C327.923 344.413 328.027 344.203 328.081 343.979C328.136 343.755 328.139 343.521 328.092 343.295L326.779 337.074C326.724 336.82 326.607 336.584 326.438 336.387C326.269 336.19 326.053 336.039 325.81 335.946C325.634 335.877 325.446 335.842 325.257 335.842H243.285C243.096 335.842 242.909 335.877 242.733 335.946C242.49 336.039 242.274 336.19 242.105 336.387C241.935 336.584 241.818 336.82 241.764 337.074L240.451 343.295C240.404 343.521 240.408 343.754 240.463 343.978C240.518 344.202 240.623 344.411 240.769 344.59Z" fill="#2F2E41"/>
<path d="M354.461 218.659H221.416C221.278 218.656 221.146 218.599 221.049 218.5C220.953 218.402 220.899 218.269 220.899 218.131C220.899 217.993 220.953 217.861 221.049 217.762C221.146 217.664 221.278 217.607 221.416 217.604H354.461C354.599 217.607 354.731 217.664 354.828 217.762C354.924 217.861 354.979 217.993 354.979 218.131C354.979 218.269 354.924 218.402 354.828 218.5C354.731 218.599 354.599 218.656 354.461 218.659Z" fill="#3F3D56"/>
<path d="M230.473 214.909C232.185 214.909 233.573 213.494 233.573 211.748C233.573 210.001 232.185 208.586 230.473 208.586C228.76 208.586 227.372 210.001 227.372 211.748C227.372 213.494 228.76 214.909 230.473 214.909Z" fill="#3F3D56"/>
<path d="M241.184 214.909C242.897 214.909 244.285 213.494 244.285 211.748C244.285 210.001 242.897 208.586 241.184 208.586C239.472 208.586 238.083 210.001 238.083 211.748C238.083 213.494 239.472 214.909 241.184 214.909Z" fill="#3F3D56"/>
<path d="M251.895 214.909C253.608 214.909 254.996 213.494 254.996 211.748C254.996 210.001 253.608 208.586 251.895 208.586C250.183 208.586 248.795 210.001 248.795 211.748C248.795 213.494 250.183 214.909 251.895 214.909Z" fill="#3F3D56"/>
<path d="M348.011 209.368H340.403C340.253 209.371 340.11 209.433 340.005 209.541C339.9 209.648 339.841 209.792 339.841 209.942C339.841 210.092 339.9 210.236 340.005 210.343C340.11 210.451 340.253 210.513 340.403 210.516H348.011C348.162 210.514 348.307 210.453 348.413 210.345C348.519 210.238 348.579 210.093 348.579 209.942C348.579 209.791 348.519 209.646 348.413 209.539C348.307 209.431 348.162 209.37 348.011 209.368Z" fill="#3F3D56"/>
<path d="M348.011 211.524H340.403C340.253 211.528 340.11 211.59 340.004 211.697C339.899 211.804 339.84 211.949 339.84 212.099C339.84 212.249 339.899 212.393 340.004 212.5C340.11 212.608 340.253 212.67 340.403 212.673H348.011C348.163 212.671 348.307 212.61 348.414 212.502C348.52 212.395 348.58 212.25 348.58 212.099C348.58 211.948 348.52 211.803 348.414 211.695C348.307 211.588 348.163 211.526 348.011 211.524Z" fill="#3F3D56"/>
<path d="M348.011 213.682H340.403C340.253 213.685 340.11 213.747 340.005 213.855C339.9 213.962 339.841 214.106 339.841 214.256C339.841 214.406 339.9 214.55 340.005 214.657C340.11 214.765 340.253 214.827 340.403 214.83H348.011C348.162 214.828 348.307 214.767 348.413 214.659C348.519 214.552 348.579 214.407 348.579 214.256C348.579 214.105 348.519 213.96 348.413 213.853C348.307 213.745 348.162 213.684 348.011 213.682Z" fill="#3F3D56"/>
<path d="M531.422 341.045C531.652 341.712 532.087 342.289 532.666 342.694C533.245 343.098 533.938 343.309 534.644 343.296L548.449 342.942C549.16 342.928 549.849 342.685 550.41 342.249C550.972 341.812 551.377 341.207 551.565 340.522L553.519 319.687C554.212 320 554.966 320.154 555.727 320.139C556.388 320.123 557.039 319.976 557.643 319.709C558.248 319.441 558.793 319.058 559.249 318.58C559.704 318.102 560.061 317.539 560.299 316.924C560.536 316.309 560.65 315.652 560.633 314.993C560.617 314.334 560.47 313.685 560.202 313.082C559.934 312.479 559.549 311.935 559.07 311.481C558.591 311.026 558.027 310.67 557.41 310.433C556.793 310.196 556.135 310.083 555.474 310.099C555.17 310.098 554.867 310.13 554.57 310.193C554.246 309.844 553.853 309.567 553.416 309.379C552.978 309.19 552.506 309.095 552.03 309.1L530.795 309.647C530.619 309.654 530.444 309.675 530.272 309.712C529.806 309.799 529.364 309.984 528.976 310.255C528.588 310.526 528.263 310.877 528.023 311.284C527.782 311.691 527.632 312.144 527.581 312.614C527.531 313.084 527.583 313.559 527.732 314.008L531.422 341.045ZM553.919 318.272L555.309 313.307C555.468 312.733 555.471 312.128 555.32 311.553C555.387 311.553 555.447 311.521 555.514 311.521C556.468 311.501 557.39 311.859 558.078 312.517C558.767 313.174 559.166 314.077 559.189 315.028C559.211 315.978 558.855 316.899 558.197 317.588C557.54 318.276 556.636 318.677 555.683 318.702C555.067 318.721 554.457 318.573 553.919 318.272Z" fill="#2F2E41"/>
<path d="M530.272 309.712C530.724 312.292 535.81 314.106 541.926 313.79C547.55 313.532 552.148 311.562 552.991 309.228C552.679 309.136 552.355 309.093 552.03 309.1L530.795 309.647C530.619 309.653 530.444 309.675 530.272 309.712Z" fill="#3F3D56"/>
<path d="M543.047 329.596C543.075 329.589 543.101 329.577 543.126 329.561L546.123 327.604C546.16 327.581 546.189 327.548 546.21 327.511C546.231 327.473 546.241 327.43 546.242 327.387C546.242 327.344 546.231 327.301 546.21 327.263C546.19 327.225 546.16 327.193 546.124 327.17L543.008 325.134C542.979 325.115 542.947 325.102 542.913 325.096C542.88 325.089 542.845 325.089 542.811 325.096C542.778 325.103 542.746 325.117 542.718 325.136C542.689 325.155 542.665 325.18 542.646 325.208C542.627 325.237 542.614 325.269 542.608 325.302C542.602 325.336 542.602 325.371 542.609 325.404C542.616 325.437 542.63 325.469 542.649 325.497C542.669 325.526 542.693 325.55 542.722 325.568L545.505 327.387L542.84 329.127C542.789 329.16 542.751 329.211 542.733 329.27C542.716 329.329 542.72 329.392 542.744 329.449C542.769 329.505 542.813 329.551 542.869 329.578C542.924 329.605 542.987 329.611 543.047 329.596Z" fill="#1F1F1F"/>
<path d="M538.312 329.814C538.362 329.801 538.408 329.774 538.442 329.735C538.477 329.697 538.499 329.649 538.506 329.597C538.513 329.546 538.505 329.494 538.482 329.447C538.459 329.401 538.423 329.362 538.378 329.337L535.614 327.756L538.285 325.778C538.313 325.757 538.336 325.732 538.353 325.703C538.371 325.673 538.383 325.641 538.388 325.607C538.393 325.573 538.391 325.539 538.382 325.506C538.374 325.473 538.359 325.442 538.339 325.414C538.319 325.387 538.293 325.364 538.264 325.346C538.234 325.329 538.202 325.317 538.168 325.312C538.134 325.307 538.1 325.309 538.066 325.317C538.033 325.326 538.002 325.34 537.975 325.361L534.984 327.576C534.95 327.602 534.922 327.636 534.904 327.675C534.885 327.714 534.877 327.757 534.879 327.8C534.882 327.843 534.895 327.885 534.918 327.922C534.941 327.958 534.972 327.989 535.01 328.01L538.118 329.788C538.177 329.821 538.246 329.831 538.312 329.814Z" fill="#1F1F1F"/>
<path d="M542.749 331.312C542.774 331.305 542.798 331.295 542.82 331.281C542.849 331.264 542.875 331.24 542.895 331.213C542.915 331.185 542.93 331.154 542.938 331.121C542.946 331.088 542.948 331.053 542.942 331.02C542.937 330.986 542.925 330.953 542.907 330.924L538.658 323.955C538.622 323.897 538.564 323.855 538.497 323.838C538.43 323.822 538.359 323.833 538.3 323.869C538.241 323.905 538.198 323.963 538.182 324.029C538.166 324.096 538.177 324.167 538.213 324.226L542.462 331.195C542.491 331.242 542.535 331.279 542.586 331.3C542.638 331.321 542.695 331.325 542.749 331.312Z" fill="#1F1F1F"/>
<path d="M340.299 347.569L336.346 356.007L333.647 361.77L329.005 386.014L326.681 388.474L324.689 379.764L303.847 384.379C303.163 380.591 303.664 384.508 303.242 380.351C303.361 380.233 303.486 380.114 303.61 379.996C303.943 379.687 304.223 379.397 304.217 379.118C303.979 364.782 304.692 340.383 310.649 325.602C311.581 323.189 312.811 320.9 314.31 318.79C314.429 318.63 314.542 318.47 314.655 318.309C317.401 314.473 319.137 310.697 321.598 308.011V308.005C321.613 307.992 321.627 307.979 321.64 307.963C321.649 307.959 321.657 307.953 321.664 307.945L338.569 299.004L339.295 319.329L339.812 333.939L340.299 347.569Z" fill="#3F3D56"/>
<path d="M401.258 349.966L406.196 360.503L407.919 364.173L412.561 388.415L414.877 390.87L416.873 382.161L417.811 381.969L434.725 378.475L439.654 394.092C440.766 392.245 441.203 390.073 440.894 387.941C440.584 385.81 439.546 383.851 437.955 382.395C437.618 382.091 437.338 381.795 437.346 381.515C437.626 364.653 436.592 333.863 427.254 321.191C424.288 317.169 422.508 313.163 419.919 310.365C419.911 310.357 419.911 310.349 419.903 310.349L413.603 300.059L413.218 299.427L412.785 299.211L401.258 349.966Z" fill="#3F3D56"/>
<path d="M371.345 273.82C384.169 273.82 394.564 263.452 394.564 250.661C394.564 237.871 384.169 227.502 371.345 227.502C358.522 227.502 348.127 237.871 348.127 250.661C348.127 263.452 358.522 273.82 371.345 273.82Z" fill="#FFB6B6"/>
<path d="M453.466 351.614C453.461 352.524 453.451 353.797 453.409 355.372C453.404 355.59 453.398 355.814 453.393 356.043C453.325 358.938 453.258 361.365 453.148 364.062C453.143 364.249 453.138 364.431 453.127 364.618C452.982 368.381 452.752 372.763 452.356 379.701C451.622 392.518 450.34 381.463 449.053 385.959C448.99 386.183 448.922 386.448 448.86 386.76C448.665 387.891 448.336 388.995 447.88 390.049C447.198 390.455 446.494 390.845 445.801 391.235C443.826 392.331 441.82 393.386 439.798 394.389C438.662 394.951 437.521 395.502 436.375 396.032C436.192 396.115 436.015 396.198 435.838 396.276C429.967 398.984 423.917 401.287 417.73 403.168C416.521 403.532 415.318 403.885 414.098 404.213C412.827 404.566 411.555 404.899 410.268 405.21C400.693 407.555 390.896 408.877 381.041 409.155C379.712 409.197 378.373 409.213 377.028 409.213C376.361 409.213 375.705 409.207 375.038 409.202C374.835 409.202 374.631 409.197 374.428 409.192C373.839 409.176 373.23 409.166 372.615 409.15C360.723 408.78 348.928 406.888 337.52 403.521L337.035 403.381C336.285 403.152 335.54 402.929 334.794 402.69C331.355 401.603 327.966 400.387 324.628 399.041C322.08 398.017 319.561 396.919 317.072 395.746C317.05 395.74 317.028 395.729 317.01 395.715C316.489 395.476 315.962 395.226 315.441 394.971C315.374 394.935 315.301 394.899 315.228 394.862C313.284 393.916 311.361 392.925 309.459 391.889C307.859 388.225 305.608 387.524 304.212 384.301C303.805 383.344 303.512 382.343 303.336 381.318C303.336 381.307 303.331 381.297 303.331 381.281C303.477 383.215 302.711 377.851 303.326 381.261C303.321 381.198 303.316 381.131 303.31 381.053C303.295 380.866 303.274 380.637 303.243 380.351C301.455 362.945 301.57 343.039 300.794 326.635C300.741 325.575 300.688 324.56 300.632 323.59C300.616 323.267 300.596 322.95 300.575 322.639C300.611 322.545 300.653 322.446 300.7 322.353C300.71 322.326 300.722 322.3 300.736 322.275C300.752 322.243 300.769 322.211 300.788 322.181C300.799 322.166 300.814 322.145 300.825 322.129C300.832 322.111 300.841 322.094 300.851 322.077C300.898 322.005 300.95 321.927 301.007 321.854C301.033 321.823 301.054 321.797 301.08 321.771C301.098 321.744 301.119 321.72 301.143 321.698C301.159 321.673 301.178 321.65 301.2 321.63C301.221 321.61 301.242 321.584 301.268 321.558C301.279 321.541 301.293 321.527 301.309 321.516C301.351 321.469 301.396 321.425 301.445 321.386C301.631 321.215 301.829 321.059 302.039 320.918C302.112 320.871 302.19 320.825 302.263 320.773C302.788 320.459 303.341 320.195 303.915 319.983C304.113 319.91 304.311 319.842 304.525 319.77C304.603 319.749 304.676 319.723 304.754 319.697C304.868 319.66 304.983 319.624 305.103 319.598C305.697 319.421 306.338 319.271 307.031 319.13C307.114 319.115 307.203 319.099 307.291 319.078C307.417 319.052 307.547 319.032 307.677 319.011C307.854 318.98 308.037 318.948 308.219 318.917C309.767 318.673 311.523 318.491 313.461 318.372C313.644 318.361 313.826 318.351 314.008 318.34C314.222 318.33 314.436 318.32 314.654 318.309C314.837 318.299 315.024 318.294 315.212 318.288C315.394 318.278 315.582 318.273 315.775 318.268C316.301 318.252 316.843 318.236 317.395 318.226C318.969 318.195 320.626 318.205 322.366 318.242C323.174 318.262 323.997 318.283 324.842 318.32C324.899 318.32 324.951 318.325 325.003 318.325C325.738 318.351 326.478 318.382 327.239 318.423C327.77 318.449 328.307 318.475 328.844 318.507C329.349 318.538 329.86 318.569 330.376 318.605C330.777 318.626 331.178 318.657 331.584 318.683C331.928 318.709 332.272 318.735 332.616 318.756L333.085 318.787C333.34 318.808 333.596 318.824 333.856 318.85C334.43 318.896 335.003 318.943 335.586 318.99C336.165 319.042 336.754 319.094 337.342 319.146C337.931 319.198 338.525 319.255 339.119 319.312C339.182 319.317 339.239 319.323 339.297 319.328C339.838 319.385 340.38 319.437 340.928 319.494C341.053 319.505 341.183 319.515 341.308 319.531C341.83 319.583 342.361 319.644 342.888 319.7C343.049 319.717 343.21 319.734 343.372 319.752C343.785 319.797 344.191 319.835 344.606 319.884C345.153 319.946 345.711 320.004 346.253 320.076C346.675 320.123 347.097 320.17 347.519 320.222C348.181 320.3 348.853 320.383 349.525 320.471C349.781 320.502 350.036 320.534 350.291 320.57C352.209 320.809 354.147 321.074 356.117 321.35C359.103 321.771 362.136 322.228 365.189 322.722C368.248 323.216 371.324 323.737 374.418 324.286C375.199 324.427 375.981 324.567 376.768 324.712C377.122 324.78 377.476 324.847 377.831 324.915C378.435 325.024 379.04 325.139 379.644 325.253C380.249 325.367 380.853 325.482 381.457 325.601C382.177 325.741 382.901 325.882 383.62 326.022C388.357 326.958 393.067 327.956 397.663 329C398.419 329.172 399.174 329.349 399.925 329.52C401.425 329.868 402.912 330.222 404.385 330.58C404.792 330.674 405.193 330.773 405.594 330.871C406.595 331.121 407.595 331.37 408.58 331.625L408.752 331.672C409.476 331.848 410.185 332.03 410.894 332.218C412.566 332.654 414.211 333.096 415.828 333.543C416.902 333.839 417.963 334.139 419.012 334.442C420.581 334.894 422.118 335.352 423.613 335.814C423.983 335.928 424.353 336.043 424.718 336.152C425.812 336.49 426.891 336.833 427.938 337.176C428.772 337.446 429.585 337.722 430.387 337.997C431.19 338.273 431.977 338.548 432.748 338.823C433.243 339 433.733 339.187 434.222 339.364C434.926 339.624 435.619 339.884 436.296 340.144C436.505 340.222 436.708 340.305 436.911 340.383C437.042 340.44 437.167 340.487 437.292 340.539C437.537 340.637 437.787 340.731 438.026 340.83C438.271 340.923 438.511 341.022 438.751 341.126C438.985 341.219 439.225 341.318 439.454 341.417C439.689 341.511 439.918 341.609 440.147 341.713C440.34 341.791 440.528 341.874 440.71 341.958C441.08 342.119 441.45 342.28 441.81 342.446C441.987 342.529 442.164 342.607 442.341 342.69L442.747 342.877C442.805 342.909 442.862 342.935 442.919 342.961C443.05 343.023 443.185 343.091 443.315 343.153C443.618 343.293 443.915 343.444 444.206 343.584C444.597 343.782 444.978 343.979 445.342 344.172C445.712 344.369 446.072 344.567 446.416 344.759C446.473 344.79 446.525 344.821 446.583 344.852C446.661 344.894 446.739 344.941 446.817 344.982C447.083 345.133 447.338 345.289 447.594 345.44C448.094 345.746 448.568 346.048 449.011 346.349C449.11 346.417 449.204 346.484 449.303 346.547C449.631 346.781 449.944 347.009 450.235 347.243C450.235 347.248 450.235 347.248 450.241 347.248C450.34 347.321 450.433 347.399 450.527 347.472C450.605 347.545 450.689 347.607 450.767 347.68C451.038 347.914 451.288 348.137 451.517 348.366C451.594 348.436 451.667 348.511 451.736 348.589C451.766 348.614 451.794 348.642 451.82 348.673C451.924 348.777 452.018 348.88 452.106 348.984C452.12 348.999 452.132 349.014 452.143 349.031C452.268 349.177 452.382 349.322 452.492 349.468C452.544 349.541 452.601 349.613 452.648 349.686C452.711 349.774 452.773 349.868 452.825 349.956C452.872 350.029 452.914 350.107 452.955 350.18C453.066 350.367 453.16 350.564 453.237 350.767C453.295 350.905 453.342 351.048 453.378 351.193C453.417 351.331 453.447 351.472 453.466 351.614Z" fill="#2F2E41"/>
<path opacity="0.2" d="M453.466 351.615C453.461 352.524 453.451 353.798 453.409 355.373C453.404 355.591 453.393 355.814 453.388 356.043C453.336 358.252 453.258 360.981 453.148 364.063C453.143 364.25 453.138 364.432 453.127 364.619C452.982 368.382 452.752 372.763 452.356 379.702C451.622 392.519 450.34 381.464 449.053 385.96C445.478 383.766 441.559 381.469 437.37 379.109C436.614 378.683 435.852 378.255 435.082 377.826C426.703 373.163 417.345 368.278 407.574 363.439C407.189 363.247 406.798 363.054 406.412 362.867C384.032 351.833 359.603 341.1 339.812 333.938C335.993 332.556 332.345 331.308 328.916 330.212C321.694 327.909 315.452 326.298 310.647 325.602C305.645 324.874 302.19 325.134 300.794 326.636C300.741 325.576 300.688 324.56 300.632 323.59C300.611 323.268 300.59 322.951 300.569 322.639C300.602 322.553 300.643 322.472 300.684 322.389C300.69 322.377 300.694 322.365 300.7 322.353C300.71 322.326 300.722 322.3 300.736 322.275C300.752 322.243 300.769 322.212 300.788 322.182C300.805 322.145 300.826 322.11 300.851 322.078C300.898 322.005 300.95 321.927 301.007 321.854C301.049 321.8 301.095 321.748 301.143 321.698C301.159 321.673 301.178 321.651 301.2 321.631C301.221 321.61 301.242 321.584 301.268 321.558C301.279 321.542 301.293 321.527 301.309 321.516C301.351 321.469 301.396 321.426 301.445 321.386C301.631 321.216 301.829 321.059 302.039 320.919C302.112 320.872 302.19 320.825 302.263 320.773C302.788 320.46 303.341 320.195 303.915 319.983C304.113 319.91 304.311 319.843 304.524 319.77C304.603 319.749 304.676 319.723 304.754 319.697C304.868 319.661 304.983 319.624 305.103 319.598C305.697 319.422 306.338 319.271 307.031 319.131C307.239 319.089 307.458 319.048 307.677 319.011C307.854 318.98 308.037 318.949 308.219 318.918C309.767 318.673 311.523 318.491 313.461 318.372C313.643 318.361 313.826 318.351 314.008 318.341C314.222 318.33 314.436 318.32 314.654 318.309C314.837 318.299 315.024 318.294 315.212 318.289C315.394 318.278 315.582 318.273 315.775 318.268C316.301 318.252 316.843 318.237 317.395 318.226C318.969 318.2 320.626 318.211 322.366 318.247C323.174 318.263 323.997 318.289 324.842 318.325C324.894 318.325 324.951 318.33 325.003 318.33C325.738 318.351 326.483 318.387 327.239 318.424C327.77 318.45 328.307 318.476 328.843 318.507C329.349 318.538 329.86 318.569 330.376 318.606C330.777 318.627 331.178 318.658 331.584 318.684C331.928 318.71 332.272 318.736 332.616 318.756C333.028 318.788 333.439 318.819 333.856 318.85C334.43 318.897 335.003 318.944 335.586 318.99C336.165 319.042 336.754 319.094 337.342 319.146C337.931 319.198 338.525 319.255 339.119 319.313C339.182 319.318 339.239 319.323 339.296 319.328C339.838 319.385 340.38 319.437 340.927 319.495C343.96 319.801 347.081 320.16 350.291 320.57C352.209 320.815 354.151 321.076 356.117 321.355C359.103 321.776 362.136 322.234 365.189 322.722C368.248 323.216 371.324 323.737 374.418 324.287C375.199 324.427 375.981 324.567 376.768 324.713C377.726 324.889 378.685 325.07 379.644 325.253C380.249 325.368 380.853 325.482 381.457 325.602C382.177 325.742 382.901 325.882 383.62 326.023C388.357 326.958 393.067 327.956 397.663 329.001C398.419 329.172 399.174 329.349 399.925 329.52C401.425 329.869 402.912 330.222 404.385 330.581C404.792 330.679 405.193 330.778 405.594 330.877C406.6 331.126 407.595 331.376 408.58 331.625V331.631C408.637 331.641 408.695 331.657 408.752 331.672C409.471 331.854 410.185 332.036 410.894 332.223C412.566 332.66 414.211 333.1 415.828 333.543C416.902 333.845 417.965 334.141 419.012 334.442C420.581 334.9 422.118 335.357 423.613 335.815C423.983 335.929 424.353 336.043 424.718 336.152C425.812 336.495 426.886 336.837 427.938 337.176C428.772 337.447 429.585 337.722 430.387 337.997C431.19 338.273 431.977 338.548 432.748 338.824C433.248 339.001 433.738 339.182 434.223 339.359C434.931 339.619 435.619 339.879 436.296 340.144C436.505 340.222 436.708 340.305 436.911 340.383C437.292 340.529 437.662 340.679 438.026 340.83C438.271 340.924 438.511 341.022 438.751 341.126C438.985 341.22 439.225 341.319 439.454 341.417C439.689 341.511 439.918 341.61 440.147 341.714C440.34 341.792 440.528 341.875 440.71 341.958C441.08 342.119 441.45 342.28 441.809 342.446C441.987 342.53 442.164 342.608 442.341 342.691L442.747 342.878C442.805 342.909 442.862 342.935 442.919 342.961C443.362 343.169 443.79 343.377 444.206 343.585C444.597 343.782 444.978 343.98 445.342 344.172C445.775 344.401 446.187 344.624 446.583 344.853C446.661 344.894 446.739 344.941 446.817 344.983C447.083 345.134 447.338 345.289 447.594 345.44C448.094 345.747 448.568 346.048 449.011 346.35C449.449 346.651 449.855 346.947 450.235 347.244C450.235 347.249 450.235 347.249 450.241 347.249C450.423 347.394 450.6 347.54 450.767 347.68C451.038 347.914 451.288 348.138 451.517 348.366C451.594 348.437 451.667 348.512 451.736 348.59C451.766 348.615 451.794 348.643 451.82 348.673C451.929 348.793 452.038 348.912 452.143 349.032C452.268 349.177 452.382 349.323 452.492 349.468C452.544 349.541 452.601 349.614 452.648 349.686C452.711 349.775 452.773 349.868 452.825 349.957C452.872 350.03 452.914 350.107 452.956 350.18C453.066 350.368 453.16 350.564 453.237 350.768C453.294 350.906 453.341 351.049 453.378 351.194C453.417 351.332 453.447 351.473 453.466 351.615Z" fill="#1F1F1F"/>
<path d="M259.394 239.837H258.971V228.269C258.971 227.39 258.798 226.52 258.461 225.707C258.123 224.895 257.629 224.157 257.006 223.535C256.384 222.913 255.644 222.42 254.83 222.084C254.016 221.747 253.144 221.574 252.263 221.574H227.708C226.827 221.574 225.955 221.747 225.141 222.084C224.327 222.42 223.588 222.913 222.965 223.535C222.342 224.157 221.848 224.895 221.511 225.707C221.174 226.52 221 227.39 221 228.269V291.731C221 292.611 221.174 293.481 221.511 294.293C221.848 295.106 222.342 295.844 222.965 296.465C223.588 297.087 224.327 297.58 225.141 297.917C225.955 298.253 226.827 298.426 227.708 298.426H252.263C253.144 298.426 254.016 298.253 254.83 297.917C255.644 297.58 256.384 297.087 257.006 296.465C257.629 295.844 258.123 295.106 258.461 294.293C258.798 293.481 258.971 292.611 258.971 291.731V248.071H259.394V239.837Z" fill="#3F3D56"/>
<path d="M257.593 228.664V292.033C257.594 293.36 257.066 294.631 256.127 295.569C255.187 296.507 253.913 297.034 252.585 297.034H227.911C226.582 297.034 225.308 296.507 224.369 295.569C223.43 294.631 222.902 293.36 222.902 292.033V228.664C222.902 227.338 223.43 226.067 224.369 225.129C225.309 224.192 226.583 223.665 227.911 223.665H230.904C230.757 224.026 230.701 224.417 230.741 224.804C230.781 225.192 230.915 225.564 231.133 225.887C231.351 226.21 231.645 226.475 231.989 226.658C232.334 226.841 232.718 226.937 233.108 226.937H247.176C247.566 226.937 247.95 226.841 248.295 226.658C248.639 226.475 248.933 226.21 249.151 225.887C249.368 225.564 249.503 225.192 249.543 224.804C249.583 224.417 249.527 224.026 249.379 223.665H252.585C253.913 223.665 255.187 224.192 256.126 225.129C257.065 226.067 257.593 227.338 257.593 228.664Z" fill="#F1F1EF"/>
<path opacity="0.1" d="M257.543 285.269V292.036C257.544 293.362 257.016 294.634 256.077 295.572C255.137 296.51 253.863 297.037 252.535 297.037H227.861C226.532 297.037 225.258 296.51 224.319 295.572C223.38 294.634 222.852 293.362 222.852 292.036V257.914L243.64 274.305L243.995 274.585L247.862 277.634L248.223 277.919L257.543 285.269Z" fill="#1F1F1F"/>
<path d="M236.883 229.37H226.459V231.544H236.883V229.37Z" fill="#3F3D56"/>
<path d="M240.154 232.386H226.459V233.096H240.154V232.386Z" fill="#3F3D56" fill-opacity="0.5"/>
<rect x="253.495" y="230.79" width="1.77866" height="0.355049" rx="0.177525" fill="#3F3D56"/>
<rect x="253.495" y="231.322" width="1.77866" height="0.355049" rx="0.177525" fill="#3F3D56"/>
<rect x="253.495" y="231.855" width="1.77866" height="0.355049" rx="0.177525" fill="#3F3D56"/>
<path d="M244.245 244.994H226.459V271.623H244.245V244.994Z" fill="#3F3D56" fill-opacity="0.5"/>
<path d="M257.586 244.994H246.38V271.623H257.586V244.994Z" fill="#3F3D56" fill-opacity="0.5"/>
<path d="M237.486 238.955H226.459V240.375H237.486V238.955Z" fill="#3F3D56" fill-opacity="0.7"/>
<path d="M250.293 241.086H226.459V241.797H250.293V241.086Z" fill="#3F3D56" fill-opacity="0.5"/>
<path d="M243.89 242.503H226.459V243.213H243.89V242.503Z" fill="#3F3D56" fill-opacity="0.5"/>
<rect x="264" y="221.574" width="91" height="76.8522" fill="#F1F1EF"/>
<path d="M402.728 234.485C402.548 234.293 402.331 234.139 402.09 234.033C401.85 233.927 401.59 233.87 401.326 233.866L401.675 232.9C401.789 232.595 401.82 232.266 401.765 231.946C401.709 231.625 401.569 231.326 401.359 231.077C401.149 230.829 400.877 230.64 400.57 230.531C400.263 230.422 399.932 230.397 399.612 230.457L398.341 230.701L398.46 229.854C398.506 229.538 398.469 229.216 398.353 228.92C398.236 228.623 398.044 228.361 397.795 228.161C397.546 227.961 397.25 227.828 396.934 227.777C396.619 227.726 396.295 227.757 395.996 227.869C395.723 227.976 395.43 228.02 395.138 228C394.846 227.979 394.562 227.893 394.307 227.749C394.052 227.609 393.83 227.415 393.657 227.181C393.484 226.947 393.365 226.678 393.307 226.392L392.864 224.261L392.817 224.147C390.66 220.561 386.512 217.952 381.437 216.995C376.919 216.138 372.286 216.574 367.821 216.985C366.049 217.151 364.048 217.338 362.38 218.357C360.963 219.23 359.765 220.977 360.01 222.739C355.606 221.392 350.885 224.08 348.546 227.468C345.774 231.502 345.32 236.553 345.247 240.504C345.049 249.849 346.982 257.494 350.979 263.232C351.271 263.648 351.344 264.516 351.922 264.807L351.802 264.614C352.449 264.937 353.105 265.456 352.86 266.013C352.157 267.613 356.831 271.153 360.124 272.322C366.132 274.458 374.121 274.277 379.738 273.507L379.936 272.182C381.963 271.906 383.391 271.382 383.792 270.56C384.501 269.957 385.105 269.417 385.631 268.918L385.636 268.913C385.647 268.902 385.668 268.887 385.678 268.876C388.216 266.449 388.805 265.067 389.07 262.962C389.326 260.898 388.872 258.804 388.409 256.917C398.174 258.424 384.563 246.543 393.661 244.246C393.766 244.214 393.872 244.188 393.979 244.168C394.245 244.105 394.511 244.043 394.766 243.97C395.997 243.637 397.175 243.135 398.268 242.479C400.81 240.935 401.649 238.887 402.963 236.579C403.152 236.251 403.231 235.871 403.189 235.494C403.147 235.117 402.986 234.764 402.728 234.485Z" fill="#2F2E41"/>
<path d="M321.485 307.649L321.598 308.005L321.604 308.017L325.004 318.327L328.916 330.209L336.275 352.538L336.346 356.007V356.018L336.893 383.921L335.377 387.703L337.083 393.905C337.083 393.905 336.299 384.531 332.09 389.914C329.706 392.974 326.918 396.104 324.63 399.039C327.965 400.385 331.353 401.602 334.795 402.691C335.538 402.929 336.287 403.154 337.036 403.379C337.196 403.427 337.357 403.474 337.517 403.521C348.926 406.887 360.721 408.778 372.613 409.148C373.231 409.166 373.837 409.178 374.426 409.19C374.634 409.196 374.836 409.202 375.038 409.202C375.704 409.207 376.364 409.213 377.029 409.213C378.373 409.213 379.71 409.194 381.042 409.154C390.897 408.877 400.695 407.555 410.27 405.211C410.205 401.268 410.027 396.662 409.771 391.74C409.652 389.327 406.983 386.713 406.823 384.187C406.71 382.289 409.105 380.505 408.98 378.578C408.172 366.714 407.161 371.268 406.412 362.867C406.335 362.042 406.264 361.254 406.198 360.501C405.717 355.105 405.384 351.732 405.384 351.732L408.582 331.626L413.605 300.06L413.219 299.425L412.785 299.212L386.291 286.132L384.852 282.456C384.433 281.397 383.706 280.488 382.764 279.844C381.822 279.201 380.709 278.853 379.568 278.846L362.115 278.774C361.209 278.77 360.316 278.982 359.508 279.391C358.701 279.801 358.003 280.396 357.472 281.128L352.747 287.656L321.485 307.649Z" fill="#3F3D56"/>
<path d="M275 225.566H270V227.563H275V225.566Z" fill="#3F3D56" fill-opacity="0.5"/>
<path d="M287 233.551H270V235.547H287V233.551Z" fill="#3F3D56" fill-opacity="0.5"/>
<path d="M304 241.536H270V275.47H304V241.536Z" fill="#3F3D56" fill-opacity="0.5"/>
<path d="M349 241.536H315V275.47H349V241.536Z" fill="#3F3D56" fill-opacity="0.5"/>
<path d="M307 236.545H270V237.543H307V236.545Z" fill="#3F3D56" fill-opacity="0.5"/>
<path d="M335 225.566H330V227.563H335V225.566Z" fill="#3F3D56" fill-opacity="0.5"/>
<path d="M342 225.566H337V227.563H342V225.566Z" fill="#3F3D56" fill-opacity="0.5"/>
<path d="M349 225.566H344V227.563H349V225.566Z" fill="#3F3D56" fill-opacity="0.5"/>
<path d="M314.659 224.568H304.616V226.663H314.659V224.568Z" fill="#3F3D56"/>
<path d="M316.268 227.474H303.073V228.158H316.268V227.474Z" fill="#3F3D56" fill-opacity="0.5"/>
</g>
<defs>
<clipPath id="clip0_454_526">
<rect width="410" height="297.428" fill="white" transform="translate(170 111.785)"/>
</clipPath>
</defs>
</svg>
