<svg width="108" height="169" viewBox="0 0 108 169" fill="none" xmlns="http://www.w3.org/2000/svg">
<path d="M74.2377 38.9929C83.3135 38.9929 90.6709 31.7344 90.6709 22.7806C90.6709 13.8268 83.3135 6.56836 74.2377 6.56836C65.1618 6.56836 57.8044 13.8268 57.8044 22.7806C57.8044 31.7344 65.1618 38.9929 74.2377 38.9929Z" fill="#2F2E41"/>
<path d="M33.3415 161.495H26.1444L22.7212 134.115H33.3407L33.3415 161.495Z" fill="#FEB8B8"/>
<path d="M21.0069 159.466H34.8835V168.086H12.2695C12.2695 165.8 13.1901 163.607 14.8286 161.991C16.4672 160.374 18.6896 159.466 21.0069 159.466Z" fill="#2F2E41"/>
<path d="M22.1095 157.533L15.2446 155.407L20.2876 128.271L30.4196 131.409L22.1095 157.533Z" fill="#FEB8B8"/>
<path d="M10.9523 151.955L24.1926 156.054L21.5764 164.279L0 157.599C0.34356 156.519 0.899383 155.516 1.63574 154.648C2.3721 153.78 3.27456 153.063 4.29161 152.539C5.30866 152.015 6.42038 151.694 7.56328 151.594C8.70619 151.493 9.8579 151.616 10.9527 151.955L10.9523 151.955Z" fill="#2F2E41"/>
<path d="M24.4505 146.607C24.1361 146.607 23.8243 146.551 23.53 146.442L18.2347 144.484C17.6404 144.262 17.1467 143.837 16.8435 143.286C16.5404 142.735 16.448 142.095 16.5831 141.483C17.9158 135.571 22.4579 115.444 24.9451 104.648C27.8947 91.8435 70.9249 89.4641 72.7551 89.3692L72.9058 89.3613L77.7463 95.3599C79.4953 100.906 78.9409 105.233 76.0985 108.219C67.8038 116.931 43.0396 111.525 40.0867 110.841L26.9247 144.93C26.7329 145.423 26.3939 145.848 25.9524 146.147C25.5108 146.447 24.9876 146.607 24.4518 146.607H24.4505Z" fill="#2F2E41"/>
<path d="M32.0803 150.661C31.7659 150.661 31.454 150.605 31.1597 150.495L25.8661 148.537C25.2717 148.315 24.778 147.89 24.4748 147.339C24.1717 146.788 24.0793 146.148 24.2145 145.536C25.5472 139.624 30.0894 119.497 32.5765 108.701C35.5261 95.8965 78.5563 93.5171 80.3866 93.4221L80.5372 93.4143L85.376 99.4145C87.125 104.961 86.5706 109.287 83.7282 112.274C75.434 120.984 50.6693 115.58 47.7164 114.895L34.5528 148.983C34.361 149.476 34.0219 149.901 33.5804 150.2C33.1389 150.5 32.6157 150.66 32.0799 150.66L32.0803 150.661Z" fill="#2F2E41"/>
<path d="M16.7651 67.2695C16.9595 67.5262 17.1332 67.7975 17.2844 68.0811L46.2309 71.0896L50.3986 65.4531L59.8422 70.5451L51.6581 84.2223L16.1576 75.2924C15.2619 76.1539 14.1216 76.726 12.8883 76.9325C11.6551 77.1391 10.3873 76.9704 9.25358 76.4488C8.11989 75.9272 7.17402 75.0774 6.54177 74.0126C5.90953 72.9477 5.62087 71.7182 5.71419 70.4875C5.80751 69.2569 6.27839 68.0834 7.06419 67.1232C7.84999 66.163 8.91349 65.4615 10.1132 65.1122C11.313 64.7628 12.5921 64.782 13.7805 65.1673C14.9689 65.5526 16.0102 66.2857 16.766 67.2691L16.7651 67.2695Z" fill="#FEB8B8"/>
<path d="M84.0325 101.711C83.614 101.71 83.2017 101.611 82.8295 101.422C77.0413 98.5187 65.7703 93.4903 55.3187 92.4381C54.961 92.4035 54.6146 92.2955 54.3017 92.121C53.9888 91.9466 53.7164 91.7095 53.5018 91.425C53.2831 91.1375 53.1268 90.8087 53.0427 90.459C52.9585 90.1092 52.9483 89.7461 53.0127 89.3924C53.9558 84.2417 56.1191 71.126 55.8405 60.6146C55.7584 57.3826 56.7934 54.2193 58.7754 51.6446C60.7574 49.0699 63.5683 47.2371 66.7461 46.4474C68.6587 45.9496 70.6014 45.5716 72.5624 45.3159C74.817 45.0342 77.1071 45.2774 79.2493 46.0259C81.3915 46.7744 83.3262 48.0075 84.8985 49.6263C86.4708 51.2451 87.6369 53.2048 88.3035 55.3482C88.9701 57.4916 89.1185 59.7593 88.737 61.9695C86.8733 72.8627 84.9941 88.0771 86.6273 98.6979C86.7023 99.1739 86.6422 99.6612 86.4538 100.106C86.2654 100.55 85.956 100.934 85.5598 101.216C85.1166 101.536 84.5819 101.71 84.0325 101.711Z" fill="#CCCCCC"/>
<path d="M56.3764 74.0042C56.0156 74.0036 55.6587 73.9301 55.3278 73.7883L47.7871 70.5684C47.1449 70.2932 46.6394 69.778 46.3817 69.1356C46.124 68.4933 46.1351 67.7763 46.4126 67.1421L52.2414 53.8583C52.5876 53.0533 53.0912 52.3236 53.7233 51.7106C54.3554 51.0976 55.1037 50.6135 55.9255 50.2859C56.7473 49.9582 57.6264 49.7935 58.5127 49.801C59.399 49.8086 60.2751 49.9883 61.0911 50.3298C61.907 50.6714 62.6467 51.1682 63.268 51.7918C63.8893 52.4154 64.38 53.1537 64.7121 53.9644C65.0443 54.7751 65.2113 55.6424 65.2036 56.5168C65.196 57.3912 65.0138 58.2556 64.6676 59.0605C64.655 59.0898 64.6422 59.1189 64.6292 59.148L58.8004 72.4322C58.5952 72.8985 58.2565 73.2956 57.826 73.5748C57.3954 73.854 56.8916 74.0033 56.3764 74.0042Z" fill="#CCCCCC"/>
<path d="M73.6373 40.7968C81.5985 40.7968 88.0524 34.4297 88.0524 26.5755C88.0524 18.7213 81.5985 12.3542 73.6373 12.3542C65.676 12.3542 59.2222 18.7213 59.2222 26.5755C59.2222 34.4297 65.676 40.7968 73.6373 40.7968Z" fill="#FEB8B8"/>
<path d="M58.9626 19.5871C65.7906 23.6992 73.4882 26.2014 81.4565 26.8992L79.0852 24.0966C80.8116 24.7263 82.6283 25.0822 84.4676 25.1509C85.3885 25.1773 86.3029 24.9903 87.1373 24.6049C87.9718 24.2196 88.703 23.6467 89.2724 22.9321C89.7373 22.1904 90.0134 21.3488 90.0773 20.479C90.1412 19.6093 89.991 18.7372 89.6394 17.9371C88.9169 16.3407 87.7923 14.9532 86.3727 13.9068C83.8562 11.943 80.8864 10.6238 77.7278 10.0669C74.5693 9.50996 71.3201 9.73262 68.2699 10.715C66.1775 11.3319 64.3036 12.5177 62.8629 14.1368C61.4963 15.8 58.8656 17.282 59.5652 19.3084L58.9626 19.5871Z" fill="#2F2E41"/>
<path d="M74.926 7.60685C77.7993 4.73161 81.2765 2.5127 85.1128 1.10635C87.5478 0.0957678 90.2185 -0.231244 92.83 0.161426C95.4047 0.672484 97.8391 2.4294 98.5576 4.92153C99.1434 6.95915 98.5383 9.15323 97.627 11.0724C96.7156 12.9915 95.4988 14.7695 94.7615 16.7592C94.0094 18.7895 93.7832 20.973 94.1034 23.1114C94.4236 25.2499 95.2802 27.2755 96.5952 29.0045C97.9103 30.7335 99.6423 32.1111 101.634 33.0122C103.626 33.9133 105.814 34.3094 108 34.1645C105.471 34.4993 103.139 35.6721 100.667 36.2958C98.194 36.9196 95.2758 36.8779 93.4385 35.1301C91.4944 33.2811 91.4555 30.275 91.5496 27.6128L91.9681 15.7396C92.0392 13.7214 92.1003 11.6383 91.3622 9.75387C90.6241 7.8694 88.8708 6.22023 86.8238 6.23757C85.2723 6.25036 83.8994 7.17794 82.655 8.09231C81.4105 9.00669 80.0937 9.98216 78.5484 10.1184C77.0031 10.2546 75.2386 9.12764 75.3541 7.60025" fill="#2F2E41"/>
<path d="M49.4019 98.058C48.4468 98.0568 47.5038 97.8467 46.6409 97.4427C45.778 97.0388 45.0167 96.451 44.4118 95.7218C43.8069 94.9926 43.3734 94.1401 43.1426 93.2258C42.9119 92.3114 42.8895 91.358 43.0772 90.4341C43.265 89.5102 43.658 88.6389 44.2282 87.8829C44.7983 87.1269 45.5313 86.5051 46.3743 86.0622C47.2174 85.6193 48.1495 85.3664 49.1035 85.3218C50.0576 85.2771 51.0098 85.4417 51.8916 85.8038C52.1568 85.9143 52.4139 86.0428 52.6611 86.1885L78.92 74.5593L79.6577 67.5332L90.9768 67.2344L90.9019 78.9313C90.8882 80.2865 90.4318 81.6012 89.6006 82.6801C88.7694 83.7591 87.6076 84.5449 86.2878 84.9208L55.5809 93.5423C55.5217 93.7424 55.4518 93.9393 55.3717 94.1322C54.879 95.2931 54.05 96.2849 52.9886 96.9831C51.9272 97.6814 50.6806 98.0551 49.4048 98.0576L49.4019 98.058Z" fill="#FEB8B8"/>
<path d="M90.0182 72.9659C89.6963 73.1266 89.3444 73.2205 88.9843 73.2417L80.7829 73.7391C80.084 73.7807 79.397 73.5471 78.8724 73.0896C78.3479 72.6321 78.0287 71.988 77.9849 71.2986L77.0848 56.8503C76.977 55.0888 77.5823 53.3571 78.7679 52.0356C79.9534 50.7141 81.6222 49.911 83.4076 49.8026C85.193 49.6943 86.949 50.2895 88.2898 51.4576C89.6306 52.6258 90.4466 54.2712 90.5584 56.0325L91.4589 70.4808C91.4901 70.9884 91.3706 71.4938 91.1148 71.9353C90.859 72.3767 90.4782 72.7349 90.0191 72.9659H90.0182Z" fill="#CCCCCC"/>
<path d="M73.5037 95.4656H24.5179C24.107 95.4656 23.7739 95.7942 23.7739 96.1996V98.7846C23.7739 99.1899 24.107 99.5185 24.5179 99.5185H73.5037C73.9146 99.5185 74.2477 99.1899 74.2477 98.7846V96.1996C74.2477 95.7942 73.9146 95.4656 73.5037 95.4656Z" fill="#3F3D56"/>
<path d="M4.95142 95.7551V67.3832C4.95263 66.3854 5.35495 65.4288 6.07011 64.7233C6.78528 64.0177 7.7549 63.6208 8.76629 63.6196H61.0009C62.0123 63.6207 62.982 64.0176 63.6972 64.7232C64.4123 65.4287 64.8146 66.3854 64.8157 67.3832V95.7551C64.8146 96.753 64.4123 97.7096 63.6972 98.4152C62.982 99.1208 62.0123 99.5176 61.0009 99.5187H8.76629C7.7549 99.5175 6.78528 99.1206 6.07011 98.4151C5.35495 97.7095 4.95263 96.7529 4.95142 95.7551Z" fill="#3F3D56"/>
<path d="M35.512 85.0448C37.4569 85.0448 39.0336 83.4894 39.0336 81.5706C39.0336 79.6519 37.4569 78.0964 35.512 78.0964C33.5671 78.0964 31.9905 79.6519 31.9905 81.5706C31.9905 83.4894 33.5671 85.0448 35.512 85.0448Z" fill="white"/>
</svg>
