<svg width="558" height="404" viewBox="0 0 558 404" fill="none" xmlns="http://www.w3.org/2000/svg">
<g clip-path="url(#clip0_903_355)">
<path d="M324.952 71.2207C335.391 71.2207 343.853 62.7812 343.853 52.3706C343.853 41.96 335.391 33.5205 324.952 33.5205C314.512 33.5205 306.05 41.96 306.05 52.3706C306.05 62.7812 314.512 71.2207 324.952 71.2207Z" fill="#F2F2F2"/>
<path d="M471.579 350.977C499.674 329.636 513.093 293.775 504.692 259.566C504.484 258.716 504.263 257.868 504.031 257.022C498.462 236.715 484.683 217.416 464.601 210.927C447.738 205.48 429.333 209.669 411.741 207.502C377.208 203.25 350.436 175.385 331.598 146.21C312.76 117.035 298.282 84.3785 273.25 60.2759C231.99 20.5468 164.684 11.9932 113.526 37.8538C62.3692 63.7145 29.7827 121.089 31.1724 178.269C32.5622 235.449 66.6008 290.118 116.033 319.123C134.193 329.778 155.196 337.327 176.099 334.685C194.235 332.394 210.715 322.675 228.766 319.79C257.147 315.253 285.348 328.05 309.895 342.962C334.442 357.875 358.154 375.55 386.048 382.463C413.134 389.176 446.691 369.882 471.579 350.977Z" fill="#F2F2F2"/>
<path d="M431.213 39.0546C430.597 38.6451 429.974 38.2568 429.358 37.8615C411.555 26.5064 392.472 17.2817 372.505 10.3778L367.876 74.071H338.526V1.08014C336.678 0.698915 334.816 0.338868 332.954 0V74.071H298.075C278.874 74.071 260.459 66.4642 246.882 52.9241C233.305 39.3839 225.677 21.0196 225.677 1.87092C223.808 2.27332 221.954 2.7039 220.099 3.16279V74.071H191.69L187.28 13.3359C166.761 21.1837 147.281 31.504 129.274 44.067C128.962 44.2788 128.651 44.4977 128.346 44.7094C126.782 45.8037 125.238 46.9192 123.702 48.0487V291.038H207.427L205.948 270.6L197.807 158.386H361.752L353.611 270.6L352.132 291.038H434.929V41.5114C433.697 40.6783 432.458 39.8594 431.213 39.0546ZM220.099 139.854H196.462L192.094 79.634H220.099V139.854ZM332.954 139.854H293.255V138.661C293.255 138.087 293.141 137.519 292.921 136.989C292.701 136.46 292.378 135.978 291.971 135.573C291.564 135.168 291.081 134.847 290.549 134.628C290.017 134.409 289.448 134.297 288.873 134.298H271.614C271.039 134.298 270.47 134.41 269.939 134.629C269.408 134.849 268.926 135.17 268.52 135.575C268.113 135.98 267.791 136.461 267.571 136.991C267.352 137.52 267.238 138.088 267.239 138.661V139.854H225.677V79.634H332.954V139.854ZM338.526 139.854V79.634H367.472L363.104 139.854H338.526Z" fill="#3F3D56"/>
<path d="M0.5 306.599C6.64982 313.866 13.3015 320.695 20.4065 327.037L537.594 327.743C544.698 321.401 551.35 314.572 557.5 307.305L0.5 306.599Z" fill="#3F3D56"/>
<path d="M351.221 241.155V301.66C351.222 302.431 351.529 303.171 352.076 303.716C352.623 304.261 353.364 304.568 354.137 304.568H444.045C444.819 304.568 445.56 304.261 446.107 303.716C446.653 303.171 446.961 302.431 446.961 301.66V241.155C446.959 240.385 446.652 239.647 446.105 239.102C445.558 238.558 444.818 238.251 444.045 238.25H354.137C353.365 238.251 352.624 238.558 352.078 239.102C351.531 239.647 351.223 240.385 351.221 241.155Z" fill="#3F3D56"/>
<path d="M353.33 241.908V300.914C353.331 301.326 353.496 301.721 353.788 302.012C354.08 302.303 354.476 302.467 354.889 302.468H443.297C443.71 302.467 444.106 302.303 444.398 302.012C444.69 301.721 444.854 301.326 444.855 300.914V241.908C444.855 241.495 444.691 241.1 444.399 240.808C444.107 240.516 443.71 240.351 443.297 240.351H354.889C354.475 240.351 354.079 240.516 353.787 240.808C353.495 241.1 353.33 241.495 353.33 241.908Z" fill="#1F1F1F"/>
<path d="M349.341 313.46C349.506 313.666 349.715 313.832 349.953 313.946C350.192 314.059 350.453 314.118 350.717 314.116H446.987C447.25 314.116 447.51 314.057 447.748 313.944C447.986 313.831 448.195 313.667 448.361 313.463C448.527 313.259 448.645 313.021 448.707 312.765C448.769 312.51 448.773 312.244 448.719 311.987L447.224 304.908C447.162 304.62 447.029 304.351 446.836 304.127C446.644 303.903 446.398 303.73 446.121 303.625C445.921 303.547 445.708 303.507 445.493 303.507H352.205C351.99 303.507 351.777 303.547 351.577 303.625C351.3 303.73 351.054 303.903 350.861 304.127C350.669 304.351 350.535 304.62 350.474 304.908L348.979 311.987C348.926 312.244 348.931 312.51 348.993 312.764C349.056 313.019 349.175 313.257 349.341 313.46Z" fill="#2F2E41"/>
<path d="M442.19 306.556H444.463C444.654 306.556 444.809 306.402 444.809 306.212V305.127C444.809 304.936 444.654 304.782 444.463 304.782H442.19C441.999 304.782 441.844 304.936 441.844 305.127V306.212C441.844 306.402 441.999 306.556 442.19 306.556Z" fill="#3F3D56"/>
<path d="M436.259 306.556H438.533C438.724 306.556 438.879 306.402 438.879 306.212V305.127C438.879 304.936 438.724 304.782 438.533 304.782H436.259C436.068 304.782 435.914 304.936 435.914 305.127V306.212C435.914 306.402 436.068 306.556 436.259 306.556Z" fill="#3F3D56"/>
<path d="M430.329 306.556H432.603C432.794 306.556 432.949 306.402 432.949 306.212V305.127C432.949 304.936 432.794 304.782 432.603 304.782H430.329C430.138 304.782 429.984 304.936 429.984 305.127V306.212C429.984 306.402 430.138 306.556 430.329 306.556Z" fill="#3F3D56"/>
<path d="M424.399 306.556H426.673C426.864 306.556 427.018 306.402 427.018 306.212V305.127C427.018 304.936 426.864 304.782 426.673 304.782H424.399C424.208 304.782 424.053 304.936 424.053 305.127V306.212C424.053 306.402 424.208 306.556 424.399 306.556Z" fill="#3F3D56"/>
<path d="M418.469 306.556H420.743C420.934 306.556 421.088 306.402 421.088 306.212V305.127C421.088 304.936 420.934 304.782 420.743 304.782H418.469C418.278 304.782 418.123 304.936 418.123 305.127V306.212C418.123 306.402 418.278 306.556 418.469 306.556Z" fill="#3F3D56"/>
<path d="M412.539 306.556H414.812C415.003 306.556 415.158 306.402 415.158 306.212V305.127C415.158 304.936 415.003 304.782 414.812 304.782H412.539C412.348 304.782 412.193 304.936 412.193 305.127V306.212C412.193 306.402 412.348 306.556 412.539 306.556Z" fill="#3F3D56"/>
<path d="M406.608 306.556H408.882C409.073 306.556 409.228 306.402 409.228 306.212V305.127C409.228 304.936 409.073 304.782 408.882 304.782H406.608C406.418 304.782 406.263 304.936 406.263 305.127V306.212C406.263 306.402 406.418 306.556 406.608 306.556Z" fill="#3F3D56"/>
<path d="M400.678 306.556H402.952C403.143 306.556 403.298 306.402 403.298 306.212V305.127C403.298 304.936 403.143 304.782 402.952 304.782H400.678C400.487 304.782 400.333 304.936 400.333 305.127V306.212C400.333 306.402 400.487 306.556 400.678 306.556Z" fill="#3F3D56"/>
<path d="M394.748 306.556H397.022C397.213 306.556 397.368 306.402 397.368 306.212V305.127C397.368 304.936 397.213 304.782 397.022 304.782H394.748C394.557 304.782 394.403 304.936 394.403 305.127V306.212C394.403 306.402 394.557 306.556 394.748 306.556Z" fill="#3F3D56"/>
<path d="M388.818 306.556H391.092C391.283 306.556 391.437 306.402 391.437 306.212V305.127C391.437 304.936 391.283 304.782 391.092 304.782H388.818C388.627 304.782 388.472 304.936 388.472 305.127V306.212C388.472 306.402 388.627 306.556 388.818 306.556Z" fill="#3F3D56"/>
<path d="M382.888 306.556H385.162C385.352 306.556 385.507 306.402 385.507 306.212V305.127C385.507 304.936 385.352 304.782 385.162 304.782H382.888C382.697 304.782 382.542 304.936 382.542 305.127V306.212C382.542 306.402 382.697 306.556 382.888 306.556Z" fill="#3F3D56"/>
<path d="M376.958 306.556H379.231C379.422 306.556 379.577 306.402 379.577 306.212V305.127C379.577 304.936 379.422 304.782 379.231 304.782H376.958C376.767 304.782 376.612 304.936 376.612 305.127V306.212C376.612 306.402 376.767 306.556 376.958 306.556Z" fill="#3F3D56"/>
<path d="M371.027 306.556H373.301C373.492 306.556 373.647 306.402 373.647 306.212V305.127C373.647 304.936 373.492 304.782 373.301 304.782H371.027C370.837 304.782 370.682 304.936 370.682 305.127V306.212C370.682 306.402 370.837 306.556 371.027 306.556Z" fill="#3F3D56"/>
<path d="M365.097 306.556H367.371C367.562 306.556 367.717 306.402 367.717 306.212V305.127C367.717 304.936 367.562 304.782 367.371 304.782H365.097C364.906 304.782 364.752 304.936 364.752 305.127V306.212C364.752 306.402 364.906 306.556 365.097 306.556Z" fill="#3F3D56"/>
<path d="M359.167 306.556H361.441C361.632 306.556 361.787 306.402 361.787 306.212V305.127C361.787 304.936 361.632 304.782 361.441 304.782H359.167C358.976 304.782 358.821 304.936 358.821 305.127V306.212C358.821 306.402 358.976 306.556 359.167 306.556Z" fill="#3F3D56"/>
<path d="M353.237 306.556H355.511C355.702 306.556 355.856 306.402 355.856 306.212V305.127C355.856 304.936 355.702 304.782 355.511 304.782H353.237C353.046 304.782 352.891 304.936 352.891 305.127V306.212C352.891 306.402 353.046 306.556 353.237 306.556Z" fill="#3F3D56"/>
<path d="M442.26 309.513H444.533C444.724 309.513 444.879 309.359 444.879 309.169V308.084C444.879 307.893 444.724 307.739 444.533 307.739H442.26C442.069 307.739 441.914 307.893 441.914 308.084V309.169C441.914 309.359 442.069 309.513 442.26 309.513Z" fill="#3F3D56"/>
<path d="M436.329 309.513H438.603C438.794 309.513 438.949 309.359 438.949 309.169V308.084C438.949 307.893 438.794 307.739 438.603 307.739H436.329C436.139 307.739 435.984 307.893 435.984 308.084V309.169C435.984 309.359 436.139 309.513 436.329 309.513Z" fill="#3F3D56"/>
<path d="M430.399 309.513H432.673C432.864 309.513 433.019 309.359 433.019 309.169V308.084C433.019 307.893 432.864 307.739 432.673 307.739H430.399C430.208 307.739 430.054 307.893 430.054 308.084V309.169C430.054 309.359 430.208 309.513 430.399 309.513Z" fill="#3F3D56"/>
<path d="M424.469 309.513H426.743C426.934 309.513 427.089 309.359 427.089 309.169V308.084C427.089 307.893 426.934 307.739 426.743 307.739H424.469C424.278 307.739 424.123 307.893 424.123 308.084V309.169C424.123 309.359 424.278 309.513 424.469 309.513Z" fill="#3F3D56"/>
<path d="M418.539 309.513H420.813C421.004 309.513 421.158 309.359 421.158 309.169V308.084C421.158 307.893 421.004 307.739 420.813 307.739H418.539C418.348 307.739 418.193 307.893 418.193 308.084V309.169C418.193 309.359 418.348 309.513 418.539 309.513Z" fill="#3F3D56"/>
<path d="M412.609 309.513H414.883C415.073 309.513 415.228 309.359 415.228 309.169V308.084C415.228 307.893 415.073 307.739 414.883 307.739H412.609C412.418 307.739 412.263 307.893 412.263 308.084V309.169C412.263 309.359 412.418 309.513 412.609 309.513Z" fill="#3F3D56"/>
<path d="M406.679 309.513H408.952C409.143 309.513 409.298 309.359 409.298 309.169V308.084C409.298 307.893 409.143 307.739 408.952 307.739H406.679C406.488 307.739 406.333 307.893 406.333 308.084V309.169C406.333 309.359 406.488 309.513 406.679 309.513Z" fill="#3F3D56"/>
<path d="M400.748 309.513H403.022C403.213 309.513 403.368 309.359 403.368 309.169V308.084C403.368 307.893 403.213 307.739 403.022 307.739H400.748C400.557 307.739 400.403 307.893 400.403 308.084V309.169C400.403 309.359 400.557 309.513 400.748 309.513Z" fill="#3F3D56"/>
<path d="M394.818 309.513H397.092C397.283 309.513 397.438 309.359 397.438 309.169V308.084C397.438 307.893 397.283 307.739 397.092 307.739H394.818C394.627 307.739 394.473 307.893 394.473 308.084V309.169C394.473 309.359 394.627 309.513 394.818 309.513Z" fill="#3F3D56"/>
<path d="M388.888 309.513H391.162C391.353 309.513 391.507 309.359 391.507 309.169V308.084C391.507 307.893 391.353 307.739 391.162 307.739H388.888C388.697 307.739 388.542 307.893 388.542 308.084V309.169C388.542 309.359 388.697 309.513 388.888 309.513Z" fill="#3F3D56"/>
<path d="M382.958 309.513H385.232C385.423 309.513 385.577 309.359 385.577 309.169V308.084C385.577 307.893 385.423 307.739 385.232 307.739H382.958C382.767 307.739 382.612 307.893 382.612 308.084V309.169C382.612 309.359 382.767 309.513 382.958 309.513Z" fill="#3F3D56"/>
<path d="M377.028 309.513H379.302C379.492 309.513 379.647 309.359 379.647 309.169V308.084C379.647 307.893 379.492 307.739 379.302 307.739H377.028C376.837 307.739 376.682 307.893 376.682 308.084V309.169C376.682 309.359 376.837 309.513 377.028 309.513Z" fill="#3F3D56"/>
<path d="M371.098 309.513H373.371C373.562 309.513 373.717 309.359 373.717 309.169V308.084C373.717 307.893 373.562 307.739 373.371 307.739H371.098C370.907 307.739 370.752 307.893 370.752 308.084V309.169C370.752 309.359 370.907 309.513 371.098 309.513Z" fill="#3F3D56"/>
<path d="M365.167 309.513H367.441C367.632 309.513 367.787 309.359 367.787 309.169V308.084C367.787 307.893 367.632 307.739 367.441 307.739H365.167C364.976 307.739 364.822 307.893 364.822 308.084V309.169C364.822 309.359 364.976 309.513 365.167 309.513Z" fill="#3F3D56"/>
<path d="M359.237 309.513H361.511C361.702 309.513 361.857 309.359 361.857 309.169V308.084C361.857 307.893 361.702 307.739 361.511 307.739H359.237C359.046 307.739 358.891 307.893 358.891 308.084V309.169C358.891 309.359 359.046 309.513 359.237 309.513Z" fill="#3F3D56"/>
<path d="M353.307 309.513H355.581C355.772 309.513 355.926 309.359 355.926 309.169V308.084C355.926 307.893 355.772 307.739 355.581 307.739H353.307C353.116 307.739 352.961 307.893 352.961 308.084V309.169C352.961 309.359 353.116 309.513 353.307 309.513Z" fill="#3F3D56"/>
<path d="M393.039 313.062H416.069C416.26 313.062 416.414 312.907 416.414 312.717V311.632C416.414 311.442 416.26 311.287 416.069 311.287H393.039C392.848 311.287 392.694 311.442 392.694 311.632V312.717C392.694 312.907 392.848 313.062 393.039 313.062Z" fill="#3F3D56"/>
<path d="M368.64 253.26H366.627C366.017 253.26 365.522 253.753 365.522 254.362C365.522 254.971 366.017 255.464 366.627 255.464H368.64C369.25 255.464 369.745 254.971 369.745 254.362C369.745 253.753 369.25 253.26 368.64 253.26Z" fill="white"/>
<path d="M391.664 253.26H389.65C389.04 253.26 388.545 253.753 388.545 254.362C388.545 254.971 389.04 255.464 389.65 255.464H391.664C392.274 255.464 392.769 254.971 392.769 254.362C392.769 253.753 392.274 253.26 391.664 253.26Z" fill="white"/>
<path d="M398.187 253.26H396.174C395.563 253.26 395.069 253.753 395.069 254.362C395.069 254.971 395.563 255.464 396.174 255.464H398.187C398.797 255.464 399.292 254.971 399.292 254.362C399.292 253.753 398.797 253.26 398.187 253.26Z" fill="white"/>
<path d="M385.401 253.076H372.889C372.279 253.076 371.784 253.569 371.784 254.178C371.784 254.786 372.279 255.28 372.889 255.28H385.401C386.011 255.28 386.506 254.786 386.506 254.178C386.506 253.569 386.011 253.076 385.401 253.076Z" fill="white"/>
<path d="M416.099 253.076H403.587C402.977 253.076 402.482 253.569 402.482 254.178C402.482 254.786 402.977 255.28 403.587 255.28H416.099C416.709 255.28 417.204 254.786 417.204 254.178C417.204 253.569 416.709 253.076 416.099 253.076Z" fill="white"/>
<path d="M374.78 258.234H372.767C372.156 258.234 371.661 258.728 371.661 259.336C371.661 259.945 372.156 260.439 372.767 260.439H374.78C375.39 260.439 375.885 259.945 375.885 259.336C375.885 258.728 375.39 258.234 374.78 258.234Z" fill="white"/>
<path d="M397.803 258.234H395.79C395.18 258.234 394.685 258.728 394.685 259.336C394.685 259.945 395.18 260.439 395.79 260.439H397.803C398.413 260.439 398.908 259.945 398.908 259.336C398.908 258.728 398.413 258.234 397.803 258.234Z" fill="white"/>
<path d="M404.326 258.234H402.313C401.703 258.234 401.208 258.728 401.208 259.336C401.208 259.945 401.703 260.439 402.313 260.439H404.326C404.937 260.439 405.432 259.945 405.432 259.336C405.432 258.728 404.937 258.234 404.326 258.234Z" fill="white"/>
<path d="M391.541 258.051H379.029C378.419 258.051 377.924 258.544 377.924 259.153C377.924 259.762 378.419 260.255 379.029 260.255H391.541C392.151 260.255 392.646 259.762 392.646 259.153C392.646 258.544 392.151 258.051 391.541 258.051Z" fill="white"/>
<path d="M422.239 258.051H409.727C409.117 258.051 408.622 258.544 408.622 259.153C408.622 259.762 409.117 260.255 409.727 260.255H422.239C422.849 260.255 423.344 259.762 423.344 259.153C423.344 258.544 422.849 258.051 422.239 258.051Z" fill="white"/>
<path d="M380.919 263.209H378.906C378.296 263.209 377.801 263.702 377.801 264.311C377.801 264.92 378.296 265.413 378.906 265.413H380.919C381.53 265.413 382.024 264.92 382.024 264.311C382.024 263.702 381.53 263.209 380.919 263.209Z" fill="white"/>
<path d="M403.943 263.209H401.93C401.319 263.209 400.825 263.702 400.825 264.311C400.825 264.92 401.319 265.413 401.93 265.413H403.943C404.553 265.413 405.048 264.92 405.048 264.311C405.048 263.702 404.553 263.209 403.943 263.209Z" fill="white"/>
<path d="M410.466 263.209H408.453C407.843 263.209 407.348 263.702 407.348 264.311C407.348 264.92 407.843 265.413 408.453 265.413H410.466C411.076 265.413 411.571 264.92 411.571 264.311C411.571 263.702 411.076 263.209 410.466 263.209Z" fill="white"/>
<path d="M397.68 263.025H385.169C384.558 263.025 384.064 263.519 384.064 264.127C384.064 264.736 384.558 265.23 385.169 265.23H397.68C398.291 265.23 398.785 264.736 398.785 264.127C398.785 263.519 398.291 263.025 397.68 263.025Z" fill="white"/>
<path d="M428.378 263.025H415.867C415.256 263.025 414.761 263.519 414.761 264.127C414.761 264.736 415.256 265.23 415.867 265.23H428.378C428.989 265.23 429.483 264.736 429.483 264.127C429.483 263.519 428.989 263.025 428.378 263.025Z" fill="white"/>
<path d="M387.059 268.184H385.046C384.435 268.184 383.941 268.677 383.941 269.286C383.941 269.895 384.435 270.388 385.046 270.388H387.059C387.669 270.388 388.164 269.895 388.164 269.286C388.164 268.677 387.669 268.184 387.059 268.184Z" fill="white"/>
<path d="M410.082 268.184H408.069C407.459 268.184 406.964 268.677 406.964 269.286C406.964 269.895 407.459 270.388 408.069 270.388H410.082C410.693 270.388 411.187 269.895 411.187 269.286C411.187 268.677 410.693 268.184 410.082 268.184Z" fill="white"/>
<path d="M416.606 268.184H414.593C413.982 268.184 413.487 268.677 413.487 269.286C413.487 269.895 413.982 270.388 414.593 270.388H416.606C417.216 270.388 417.711 269.895 417.711 269.286C417.711 268.677 417.216 268.184 416.606 268.184Z" fill="white"/>
<path d="M403.82 268H391.308C390.698 268 390.203 268.493 390.203 269.102C390.203 269.711 390.698 270.204 391.308 270.204H403.82C404.43 270.204 404.925 269.711 404.925 269.102C404.925 268.493 404.43 268 403.82 268Z" fill="white"/>
<path d="M391.664 287.966H389.65C389.04 287.966 388.545 288.459 388.545 289.068C388.545 289.677 389.04 290.17 389.65 290.17H391.664C392.274 290.17 392.769 289.677 392.769 289.068C392.769 288.459 392.274 287.966 391.664 287.966Z" fill="white"/>
<path d="M398.187 287.966H396.174C395.563 287.966 395.069 288.459 395.069 289.068C395.069 289.677 395.563 290.17 396.174 290.17H398.187C398.797 290.17 399.292 289.677 399.292 289.068C399.292 288.459 398.797 287.966 398.187 287.966Z" fill="white"/>
<path d="M416.099 288.149H403.587C402.977 288.149 402.482 288.643 402.482 289.252C402.482 289.86 402.977 290.354 403.587 290.354H416.099C416.709 290.354 417.204 289.86 417.204 289.252C417.204 288.643 416.709 288.149 416.099 288.149Z" fill="white"/>
<path d="M368.64 287.966H366.627C366.017 287.966 365.522 288.459 365.522 289.068C365.522 289.677 366.017 290.17 366.627 290.17H368.64C369.25 290.17 369.745 289.677 369.745 289.068C369.745 288.459 369.25 287.966 368.64 287.966Z" fill="white"/>
<path d="M385.401 288.149H372.889C372.279 288.149 371.784 288.643 371.784 289.252C371.784 289.86 372.279 290.354 372.889 290.354H385.401C386.011 290.354 386.506 289.86 386.506 289.252C386.506 288.643 386.011 288.149 385.401 288.149Z" fill="white"/>
<path d="M374.78 282.991H372.767C372.156 282.991 371.661 283.484 371.661 284.093C371.661 284.701 372.156 285.195 372.767 285.195H374.78C375.39 285.195 375.885 284.701 375.885 284.093C375.885 283.484 375.39 282.991 374.78 282.991Z" fill="white"/>
<path d="M397.803 282.991H395.79C395.18 282.991 394.685 283.484 394.685 284.093C394.685 284.701 395.18 285.195 395.79 285.195H397.803C398.413 285.195 398.908 284.701 398.908 284.093C398.908 283.484 398.413 282.991 397.803 282.991Z" fill="white"/>
<path d="M404.326 282.991H402.313C401.703 282.991 401.208 283.484 401.208 284.093C401.208 284.701 401.703 285.195 402.313 285.195H404.326C404.937 285.195 405.432 284.701 405.432 284.093C405.432 283.484 404.937 282.991 404.326 282.991Z" fill="white"/>
<path d="M391.541 283.175H379.029C378.419 283.175 377.924 283.668 377.924 284.277C377.924 284.886 378.419 285.379 379.029 285.379H391.541C392.151 285.379 392.646 284.886 392.646 284.277C392.646 283.668 392.151 283.175 391.541 283.175Z" fill="white"/>
<path d="M380.919 278.016H378.906C378.296 278.016 377.801 278.51 377.801 279.118C377.801 279.727 378.296 280.22 378.906 280.22H380.919C381.53 280.22 382.024 279.727 382.024 279.118C382.024 278.51 381.53 278.016 380.919 278.016Z" fill="white"/>
<path d="M403.943 278.016H401.93C401.319 278.016 400.825 278.51 400.825 279.118C400.825 279.727 401.319 280.22 401.93 280.22H403.943C404.553 280.22 405.048 279.727 405.048 279.118C405.048 278.51 404.553 278.016 403.943 278.016Z" fill="white"/>
<path d="M410.466 278.016H408.453C407.843 278.016 407.348 278.51 407.348 279.118C407.348 279.727 407.843 280.22 408.453 280.22H410.466C411.076 280.22 411.571 279.727 411.571 279.118C411.571 278.51 411.076 278.016 410.466 278.016Z" fill="white"/>
<path d="M397.68 278.2H385.169C384.558 278.2 384.064 278.693 384.064 279.302C384.064 279.91 384.558 280.404 385.169 280.404H397.68C398.291 280.404 398.785 279.91 398.785 279.302C398.785 278.693 398.291 278.2 397.68 278.2Z" fill="white"/>
<path d="M387.059 273.042H385.046C384.435 273.042 383.941 273.535 383.941 274.144C383.941 274.752 384.435 275.246 385.046 275.246H387.059C387.669 275.246 388.164 274.752 388.164 274.144C388.164 273.535 387.669 273.042 387.059 273.042Z" fill="white"/>
<path d="M410.082 273.042H408.069C407.459 273.042 406.964 273.535 406.964 274.144C406.964 274.752 407.459 275.246 408.069 275.246H410.082C410.693 275.246 411.187 274.752 411.187 274.144C411.187 273.535 410.693 273.042 410.082 273.042Z" fill="white"/>
<path d="M416.606 273.042H414.593C413.982 273.042 413.487 273.535 413.487 274.144C413.487 274.752 413.982 275.246 414.593 275.246H416.606C417.216 275.246 417.711 274.752 417.711 274.144C417.711 273.535 417.216 273.042 416.606 273.042Z" fill="white"/>
<path d="M403.82 273.225H391.308C390.698 273.225 390.203 273.719 390.203 274.327C390.203 274.936 390.698 275.429 391.308 275.429H403.82C404.43 275.429 404.925 274.936 404.925 274.327C404.925 273.719 404.43 273.225 403.82 273.225Z" fill="white"/>
<path d="M357.937 346.268L348.487 331.371L378.15 307.789L390.394 294.262C391.984 292.504 394.01 291.194 396.267 290.462C398.525 289.729 400.936 289.601 403.259 290.089C405.582 290.577 407.736 291.664 409.505 293.242C411.275 294.82 412.598 296.834 413.343 299.082C414.446 302.413 414.209 306.042 412.681 309.202C411.153 312.362 408.453 314.806 405.152 316.019L385.792 323.132L357.937 346.268Z" fill="#FFB6B6"/>
<path d="M136.2 238.253V310.658H187.063V238.253C187.064 237.733 186.898 237.225 186.588 236.806C186.278 236.387 185.842 236.077 185.343 235.924C185.108 235.846 184.862 235.808 184.614 235.811H138.656C138.334 235.81 138.015 235.873 137.717 235.995C137.419 236.118 137.149 236.297 136.92 236.524C136.692 236.751 136.511 237.021 136.388 237.317C136.264 237.614 136.2 237.932 136.2 238.253ZM156.05 263.132C156.063 261.705 156.641 260.34 157.658 259.335C158.675 258.331 160.048 257.767 161.479 257.767C162.911 257.767 164.284 258.331 165.301 259.335C166.318 260.34 166.896 261.705 166.909 263.132V271.533C166.902 272.964 166.326 274.335 165.309 275.344C164.292 276.354 162.915 276.92 161.479 276.92C160.044 276.92 158.667 276.354 157.65 275.344C156.632 274.335 156.057 272.964 156.05 271.533V263.132Z" fill="#2F2E41"/>
<path d="M136.044 308.343V315.325C136.045 315.687 136.189 316.033 136.445 316.29C136.701 316.546 137.048 316.691 137.41 316.694H185.853C186.216 316.693 186.563 316.548 186.819 316.291C187.076 316.034 187.219 315.687 187.219 315.325V308.343H136.044Z" fill="#3F3D56"/>
<path d="M56.1844 129.166V261.367C56.1857 263.052 56.8574 264.667 58.0519 265.858C59.2465 267.05 60.8663 267.719 62.5556 267.721H259.001C260.691 267.719 262.311 267.05 263.505 265.858C264.7 264.667 265.371 263.052 265.373 261.367V129.166C265.369 127.483 264.696 125.87 263.502 124.68C262.307 123.491 260.689 122.821 259.001 122.819H62.5556C60.8677 122.821 59.2495 123.491 58.0553 124.68C56.8612 125.87 56.1884 127.483 56.1844 129.166Z" fill="#3F3D56"/>
<path d="M60.7929 130.811V259.736C60.7945 260.636 61.1537 261.499 61.7919 262.136C62.4302 262.772 63.2954 263.13 64.198 263.132H257.366C258.269 263.13 259.134 262.772 259.772 262.136C260.41 261.499 260.77 260.636 260.771 259.736V130.811C260.771 129.91 260.413 129.045 259.774 128.407C259.136 127.77 258.27 127.41 257.366 127.408H64.198C63.2943 127.41 62.4283 127.77 61.7899 128.407C61.1516 129.045 60.793 129.91 60.7929 130.811Z" fill="white"/>
<path d="M96.6416 316.221C96.8382 316.467 97.0881 316.665 97.3726 316.801C97.657 316.937 97.9686 317.007 98.284 317.005H213.207C213.521 317.005 213.831 316.934 214.115 316.799C214.398 316.664 214.648 316.468 214.846 316.225C215.044 315.981 215.185 315.697 215.259 315.392C215.333 315.088 215.338 314.77 215.274 314.464L213.49 306.013C213.416 305.668 213.257 305.348 213.027 305.08C212.797 304.813 212.503 304.607 212.173 304.481C211.934 304.387 211.679 304.34 211.423 304.34H100.061C99.804 304.34 99.5495 304.387 99.3104 304.481C98.9803 304.607 98.6868 304.813 98.4568 305.08C98.2268 305.348 98.0676 305.668 97.9937 306.013L96.2098 314.464C96.1463 314.77 96.1521 315.087 96.2268 315.391C96.3015 315.695 96.4432 315.979 96.6416 316.221Z" fill="#2F2E41"/>
<path d="M251.097 145.168H70.3506C70.1627 145.164 69.9839 145.087 69.8525 144.953C69.7211 144.819 69.6476 144.639 69.6476 144.451C69.6476 144.264 69.7211 144.084 69.8525 143.95C69.9839 143.816 70.1627 143.739 70.3506 143.734H251.097C251.285 143.739 251.464 143.816 251.595 143.95C251.727 144.084 251.8 144.264 251.8 144.451C251.8 144.639 251.727 144.819 251.595 144.953C251.464 145.087 251.285 145.164 251.097 145.168Z" fill="#3F3D56"/>
<path d="M82.6542 140.074C84.9807 140.074 86.8666 138.152 86.8666 135.78C86.8666 133.408 84.9807 131.485 82.6542 131.485C80.3278 131.485 78.4418 133.408 78.4418 135.78C78.4418 138.152 80.3278 140.074 82.6542 140.074Z" fill="#3F3D56"/>
<path d="M97.2061 140.074C99.5325 140.074 101.418 138.152 101.418 135.78C101.418 133.408 99.5325 131.485 97.2061 131.485C94.8797 131.485 92.9937 133.408 92.9937 135.78C92.9937 138.152 94.8797 140.074 97.2061 140.074Z" fill="#3F3D56"/>
<path d="M111.758 140.074C114.084 140.074 115.97 138.152 115.97 135.78C115.97 133.408 114.084 131.485 111.758 131.485C109.432 131.485 107.546 133.408 107.546 135.78C107.546 138.152 109.432 140.074 111.758 140.074Z" fill="#3F3D56"/>
<path d="M491.505 311.407C491.817 312.312 492.409 313.096 493.195 313.646C493.982 314.195 494.922 314.482 495.882 314.465L514.636 313.983C515.603 313.964 516.538 313.634 517.302 313.041C518.065 312.449 518.615 311.626 518.87 310.695L521.524 282.395C522.466 282.82 523.491 283.03 524.524 283.01C525.422 282.987 526.307 282.789 527.128 282.425C527.949 282.062 528.69 281.541 529.309 280.891C529.928 280.242 530.412 279.478 530.735 278.642C531.058 277.806 531.212 276.915 531.19 276.02C531.167 275.124 530.968 274.242 530.604 273.424C530.239 272.605 529.717 271.866 529.066 271.249C528.415 270.631 527.649 270.148 526.811 269.826C525.972 269.504 525.079 269.35 524.181 269.373C523.768 269.371 523.356 269.414 522.952 269.5C522.513 269.026 521.979 268.649 521.384 268.393C520.79 268.138 520.149 268.009 519.502 268.015L490.654 268.758C490.414 268.767 490.176 268.797 489.942 268.846C489.31 268.964 488.71 269.215 488.182 269.584C487.655 269.952 487.214 270.428 486.887 270.981C486.56 271.534 486.356 272.15 486.288 272.789C486.219 273.427 486.289 274.072 486.492 274.681L491.505 311.407ZM522.068 280.473L523.957 273.729C524.172 272.95 524.177 272.128 523.971 271.347C524.063 271.347 524.144 271.303 524.235 271.303C525.53 271.276 526.783 271.763 527.719 272.656C528.654 273.549 529.197 274.775 529.227 276.067C529.258 277.358 528.773 278.608 527.88 279.544C526.988 280.48 525.759 281.024 524.464 281.058C523.627 281.084 522.799 280.882 522.068 280.473Z" fill="#D2CFDD"/>
<path d="M489.942 268.846C490.557 272.351 497.467 274.814 505.775 274.386C513.416 274.035 519.663 271.36 520.807 268.189C520.384 268.064 519.943 268.005 519.502 268.015L490.654 268.758C490.414 268.767 490.176 268.796 489.942 268.846Z" fill="#6B3DCB"/>
<path d="M507.298 295.855C507.336 295.846 507.372 295.83 507.405 295.808L511.478 293.15C511.527 293.118 511.567 293.074 511.595 293.023C511.623 292.971 511.638 292.913 511.638 292.855C511.638 292.796 511.623 292.738 511.595 292.687C511.567 292.635 511.527 292.592 511.478 292.56L507.245 289.794C507.206 289.769 507.162 289.751 507.116 289.742C507.071 289.733 507.024 289.734 506.978 289.743C506.932 289.752 506.889 289.771 506.851 289.797C506.812 289.823 506.779 289.856 506.754 289.895C506.728 289.934 506.71 289.978 506.702 290.023C506.693 290.069 506.694 290.116 506.703 290.161C506.713 290.207 506.731 290.25 506.758 290.288C506.784 290.326 506.818 290.359 506.857 290.385L510.638 292.854L507.017 295.218C506.947 295.263 506.896 295.332 506.872 295.413C506.848 295.493 506.853 295.578 506.887 295.655C506.921 295.731 506.98 295.794 507.056 295.83C507.131 295.867 507.217 295.876 507.298 295.855Z" fill="#6B3DCB"/>
<path d="M500.865 296.151C500.934 296.134 500.995 296.097 501.042 296.044C501.089 295.992 501.12 295.927 501.129 295.857C501.139 295.787 501.127 295.716 501.096 295.653C501.065 295.59 501.016 295.538 500.955 295.503L497.2 293.356L500.829 290.669C500.866 290.641 500.898 290.606 500.922 290.567C500.945 290.527 500.961 290.483 500.968 290.437C500.975 290.391 500.972 290.344 500.961 290.299C500.95 290.255 500.93 290.212 500.902 290.175C500.874 290.138 500.839 290.107 500.8 290.083C500.76 290.059 500.716 290.043 500.67 290.036C500.624 290.03 500.577 290.032 500.532 290.043C500.487 290.055 500.444 290.075 500.407 290.102L496.345 293.112C496.297 293.147 496.26 293.193 496.235 293.246C496.21 293.299 496.199 293.357 496.202 293.416C496.206 293.474 496.224 293.531 496.255 293.581C496.286 293.631 496.328 293.672 496.379 293.701L500.602 296.115C500.682 296.161 500.776 296.174 500.865 296.151Z" fill="#6B3DCB"/>
<path d="M506.893 298.185C506.927 298.177 506.96 298.163 506.99 298.144C507.03 298.12 507.064 298.089 507.092 298.051C507.119 298.014 507.139 297.971 507.15 297.926C507.161 297.881 507.163 297.835 507.156 297.789C507.149 297.743 507.133 297.699 507.108 297.659L501.335 288.193C501.286 288.113 501.207 288.056 501.116 288.034C501.025 288.012 500.929 288.027 500.849 288.076C500.769 288.125 500.711 288.203 500.689 288.294C500.667 288.385 500.682 288.481 500.73 288.561L506.504 298.027C506.543 298.091 506.602 298.141 506.672 298.17C506.742 298.198 506.82 298.204 506.893 298.185Z" fill="#6B3DCB"/>
<rect x="90.1634" y="146.416" width="161.666" height="112.523" fill="#3F3D56"/>
<path d="M206.298 266.044L206.452 266.527L206.46 266.543L211.079 280.548L216.393 296.688L226.39 327.017L226.487 331.729V331.745L227.23 369.645L225.171 374.783L227.489 383.207C227.489 383.207 226.423 370.473 220.705 377.786C217.467 381.941 213.679 386.194 210.57 390.18C215.101 392.008 219.704 393.662 224.38 395.141C225.389 395.463 226.407 395.769 227.424 396.075C227.642 396.14 227.86 396.204 228.078 396.269C243.578 400.84 259.601 403.408 275.757 403.912C276.597 403.936 277.42 403.952 278.22 403.968C278.503 403.976 278.777 403.984 279.052 403.984C279.956 403.992 280.852 404 281.757 404C283.582 404 285.399 403.973 287.208 403.92C300.597 403.543 313.908 401.748 326.916 398.564C326.827 393.208 326.585 386.951 326.238 380.266C326.076 376.989 322.45 373.437 322.232 370.006C322.079 367.429 325.333 365.005 325.163 362.387C324.065 346.272 322.692 352.458 321.675 341.047C321.57 339.927 321.473 338.856 321.384 337.833C320.73 330.505 320.278 325.922 320.278 325.922L324.622 298.613L331.446 255.736L330.921 254.874L330.332 254.584L294.339 236.818L292.384 231.825C291.815 230.386 290.827 229.15 289.548 228.276C288.268 227.402 286.756 226.93 285.205 226.92L261.495 226.823C260.265 226.818 259.051 227.105 257.954 227.661C256.857 228.217 255.909 229.026 255.188 230.021L248.768 238.887L206.298 266.044Z" fill="#3F3D56"/>
<path d="M231.858 320.268L226.487 331.729L222.821 339.557L216.514 372.487L213.356 375.83L210.651 363.998L182.336 370.268C181.407 365.121 182.087 370.442 181.514 364.796C181.676 364.635 181.845 364.474 182.015 364.313C182.467 363.894 182.847 363.5 182.839 363.121C182.515 343.648 183.485 310.507 191.576 290.43C192.844 287.152 194.515 284.043 196.551 281.176C196.712 280.959 196.866 280.741 197.019 280.524C200.75 275.313 203.108 270.183 206.452 266.535V266.527C206.472 266.51 206.491 266.491 206.508 266.471C206.52 266.465 206.531 266.456 206.54 266.446L229.508 254.302L230.493 281.909L231.195 301.753L231.858 320.268Z" fill="#3F3D56"/>
<path d="M314.673 323.524L321.381 337.837L323.722 342.822L330.028 375.75L333.175 379.084L335.886 367.255L337.16 366.995L360.138 362.249L366.835 383.461C368.345 380.952 368.94 378.001 368.519 375.106C368.098 372.211 366.688 369.55 364.527 367.572C364.069 367.16 363.688 366.758 363.699 366.378C364.08 343.474 362.676 301.651 349.989 284.438C345.96 278.975 343.542 273.534 340.025 269.733C340.014 269.723 340.014 269.712 340.003 269.712L331.443 255.735L330.92 254.877L330.332 254.583L314.673 323.524Z" fill="#3F3D56"/>
<path d="M274.035 220.094C291.456 220.094 305.578 206.01 305.578 188.637C305.578 171.264 291.456 157.18 274.035 157.18C256.614 157.18 242.492 171.264 242.492 188.637C242.492 206.01 256.614 220.094 274.035 220.094Z" fill="#FFB6B6"/>
<path d="M316.67 166.664C316.425 166.404 316.131 166.195 315.803 166.051C315.476 165.906 315.123 165.829 314.765 165.824L315.24 164.511C315.394 164.097 315.436 163.65 315.361 163.215C315.285 162.78 315.095 162.373 314.81 162.035C314.525 161.698 314.154 161.442 313.737 161.294C313.32 161.146 312.871 161.111 312.436 161.193L310.709 161.525L310.872 160.374C310.934 159.945 310.884 159.508 310.725 159.105C310.567 158.702 310.306 158.346 309.968 158.074C309.63 157.802 309.227 157.623 308.798 157.553C308.37 157.483 307.93 157.526 307.523 157.677C307.153 157.822 306.755 157.883 306.358 157.855C305.961 157.827 305.576 157.711 305.23 157.515C304.882 157.325 304.581 157.061 304.346 156.743C304.111 156.425 303.949 156.059 303.871 155.672L303.269 152.778L303.205 152.622C300.274 147.751 294.639 144.207 287.744 142.908C281.607 141.743 275.313 142.336 269.247 142.894C266.84 143.12 264.121 143.374 261.856 144.758C259.93 145.944 258.302 148.316 258.635 150.709C252.653 148.881 246.239 152.531 243.061 157.134C239.295 162.612 238.679 169.474 238.58 174.839C238.311 187.533 240.937 197.918 246.367 205.712C246.763 206.276 246.862 207.455 247.648 207.851L247.485 207.59C248.363 208.027 249.255 208.733 248.922 209.489C247.967 211.663 254.317 216.471 258.791 218.059C266.953 220.961 277.805 220.714 285.437 219.669L285.706 217.869C288.459 217.494 290.399 216.781 290.944 215.666C291.907 214.847 292.728 214.113 293.443 213.435L293.45 213.428C293.464 213.414 293.493 213.393 293.507 213.379C296.954 210.082 297.754 208.204 298.115 205.345C298.462 202.542 297.846 199.697 297.216 197.134C310.483 199.181 291.992 183.043 304.352 179.922C304.494 179.879 304.638 179.844 304.784 179.817C305.145 179.732 305.506 179.647 305.853 179.548C307.525 179.096 309.126 178.414 310.61 177.522C314.065 175.425 315.204 172.644 316.988 169.509C317.246 169.063 317.354 168.546 317.296 168.035C317.239 167.523 317.019 167.043 316.67 166.664Z" fill="#2F2E41"/>
<path d="M385.599 325.763C385.592 326.999 385.578 328.728 385.521 330.867C385.514 331.164 385.507 331.467 385.5 331.778C385.408 335.71 385.316 339.007 385.167 342.671C385.16 342.925 385.153 343.172 385.139 343.427C384.941 348.538 384.629 354.489 384.091 363.914C383.093 381.323 381.352 366.307 379.603 372.414C379.518 372.718 379.426 373.078 379.341 373.501C379.076 375.038 378.63 376.538 378.01 377.97C377.083 378.521 376.127 379.05 375.186 379.58C372.503 381.069 369.777 382.502 367.031 383.865C365.487 384.627 363.937 385.376 362.38 386.096C362.132 386.209 361.891 386.322 361.65 386.428C353.675 390.106 345.456 393.234 337.05 395.789C335.408 396.283 333.773 396.763 332.116 397.208C330.389 397.688 328.662 398.14 326.913 398.563C313.905 401.748 300.595 403.544 287.206 403.922C285.401 403.978 283.582 403.999 281.755 403.999C280.849 403.999 279.957 403.992 279.051 403.985C278.775 403.985 278.499 403.978 278.223 403.971C277.423 403.95 276.595 403.936 275.759 403.915C259.604 403.412 243.58 400.843 228.081 396.269L227.423 396.078C226.404 395.768 225.391 395.464 224.379 395.139C219.707 393.664 215.103 392.012 210.568 390.183C207.106 388.793 203.684 387.301 200.303 385.708C200.272 385.699 200.243 385.685 200.218 385.665C199.51 385.34 198.795 385.002 198.087 384.656C197.995 384.606 197.896 384.557 197.797 384.507C195.156 383.222 192.544 381.876 189.96 380.469C187.787 375.492 184.729 374.539 182.832 370.162C182.279 368.862 181.88 367.502 181.642 366.11C181.642 366.096 181.635 366.081 181.635 366.06C181.834 368.686 180.793 361.401 181.628 366.032C181.621 365.947 181.614 365.855 181.607 365.75C181.586 365.495 181.557 365.185 181.515 364.797C179.087 341.153 179.243 314.115 178.188 291.834C178.117 290.394 178.044 289.015 177.968 287.697C177.947 287.259 177.919 286.829 177.89 286.405C177.94 286.278 177.997 286.144 178.06 286.017C178.074 285.98 178.09 285.945 178.11 285.911C178.131 285.867 178.154 285.825 178.181 285.784C178.195 285.763 178.216 285.734 178.23 285.713C178.241 285.689 178.252 285.665 178.266 285.643C178.329 285.544 178.4 285.438 178.478 285.339C178.513 285.297 178.542 285.261 178.577 285.226C178.602 285.19 178.63 285.157 178.662 285.127C178.684 285.093 178.71 285.062 178.74 285.035C178.768 285.007 178.797 284.972 178.832 284.937C178.847 284.914 178.866 284.895 178.889 284.88C178.945 284.816 179.006 284.757 179.073 284.704C179.325 284.472 179.595 284.259 179.88 284.068C179.979 284.005 180.085 283.941 180.184 283.871C180.897 283.445 181.649 283.086 182.428 282.798C182.697 282.699 182.966 282.607 183.256 282.508C183.363 282.48 183.462 282.445 183.568 282.409C183.724 282.36 183.879 282.31 184.042 282.275C184.849 282.035 185.72 281.83 186.661 281.64C186.775 281.619 186.895 281.597 187.015 281.569C187.185 281.534 187.362 281.506 187.539 281.477C187.78 281.435 188.028 281.393 188.276 281.35C190.378 281.018 192.764 280.771 195.397 280.609C195.645 280.595 195.893 280.581 196.14 280.567C196.431 280.553 196.721 280.538 197.018 280.524C197.266 280.51 197.521 280.503 197.776 280.496C198.023 280.482 198.278 280.475 198.54 280.468C199.255 280.447 199.991 280.425 200.742 280.411C202.88 280.369 205.131 280.383 207.495 280.433C208.593 280.461 209.711 280.489 210.858 280.538C210.936 280.538 211.007 280.545 211.077 280.545C212.076 280.581 213.081 280.623 214.114 280.68C214.836 280.715 215.566 280.75 216.295 280.793C216.981 280.835 217.675 280.877 218.376 280.927C218.921 280.955 219.466 280.997 220.018 281.033C220.486 281.068 220.953 281.103 221.42 281.131L222.057 281.174C222.404 281.202 222.751 281.223 223.105 281.258C223.884 281.322 224.662 281.386 225.455 281.449C226.241 281.52 227.041 281.59 227.841 281.661C228.641 281.731 229.448 281.809 230.255 281.887C230.34 281.894 230.418 281.901 230.495 281.908C231.232 281.986 231.968 282.056 232.711 282.134C232.881 282.148 233.058 282.162 233.228 282.183C233.937 282.254 234.659 282.337 235.374 282.413C235.594 282.437 235.812 282.46 236.032 282.484C236.593 282.545 237.145 282.597 237.709 282.663C238.452 282.748 239.21 282.826 239.946 282.925C240.519 282.988 241.093 283.052 241.666 283.122C242.565 283.228 243.478 283.341 244.392 283.461C244.739 283.503 245.085 283.546 245.432 283.595C248.037 283.92 250.671 284.28 253.347 284.654C257.403 285.226 261.523 285.847 265.672 286.518C269.827 287.189 274.006 287.897 278.209 288.643C279.271 288.834 280.332 289.024 281.401 289.222C281.883 289.314 282.364 289.405 282.846 289.497C283.667 289.645 284.488 289.801 285.309 289.956C286.13 290.111 286.951 290.267 287.773 290.429C288.75 290.62 289.733 290.81 290.71 291.001C297.145 292.272 303.545 293.627 309.789 295.046C310.815 295.279 311.842 295.519 312.861 295.752C314.9 296.225 316.92 296.705 318.921 297.192C319.473 297.319 320.018 297.454 320.563 297.588C321.922 297.927 323.281 298.265 324.619 298.611L324.853 298.675C325.837 298.915 326.8 299.162 327.763 299.416C330.035 300.009 332.27 300.609 334.466 301.216C335.925 301.619 337.367 302.026 338.792 302.438C340.923 303.052 343.011 303.673 345.043 304.301C345.545 304.457 346.048 304.612 346.543 304.76C348.03 305.219 349.495 305.685 350.918 306.151C352.051 306.518 353.155 306.892 354.246 307.267C355.336 307.641 356.405 308.015 357.452 308.389C358.125 308.629 358.79 308.883 359.456 309.123C360.411 309.476 361.353 309.829 362.273 310.182C362.557 310.288 362.833 310.401 363.109 310.507C363.286 310.585 363.456 310.648 363.625 310.719C363.958 310.853 364.298 310.98 364.624 311.114C364.956 311.241 365.282 311.375 365.608 311.517C365.926 311.644 366.252 311.778 366.563 311.912C366.882 312.039 367.193 312.173 367.505 312.314C367.767 312.42 368.022 312.533 368.269 312.646C368.772 312.865 369.275 313.084 369.763 313.31C370.004 313.423 370.244 313.529 370.485 313.642L371.037 313.896C371.115 313.938 371.193 313.973 371.271 314.009C371.448 314.093 371.632 314.185 371.809 314.27C372.219 314.46 372.623 314.665 373.019 314.856C373.55 315.124 374.067 315.392 374.563 315.654C375.065 315.922 375.554 316.19 376.021 316.451C376.099 316.494 376.17 316.536 376.248 316.578C376.354 316.635 376.46 316.698 376.566 316.755C376.927 316.96 377.274 317.171 377.621 317.376C378.3 317.793 378.945 318.202 379.546 318.612C379.681 318.703 379.808 318.795 379.943 318.88C380.389 319.198 380.814 319.508 381.21 319.826C381.21 319.833 381.21 319.833 381.217 319.833C381.352 319.932 381.479 320.038 381.606 320.136C381.713 320.235 381.826 320.32 381.932 320.419C382.3 320.737 382.64 321.04 382.951 321.351C383.056 321.447 383.155 321.548 383.249 321.654C383.29 321.688 383.328 321.726 383.362 321.767C383.504 321.908 383.631 322.05 383.751 322.191C383.77 322.21 383.787 322.232 383.801 322.254C383.971 322.452 384.127 322.65 384.275 322.847C384.346 322.946 384.424 323.045 384.488 323.144C384.573 323.264 384.658 323.391 384.728 323.511C384.792 323.61 384.849 323.716 384.905 323.815C385.056 324.069 385.183 324.336 385.288 324.612C385.367 324.8 385.431 324.993 385.479 325.191C385.532 325.379 385.573 325.57 385.599 325.763Z" fill="#2F2E41"/>
<path opacity="0.2" d="M385.599 325.763C385.592 326.999 385.578 328.728 385.521 330.867C385.514 331.164 385.5 331.467 385.493 331.778C385.422 334.778 385.316 338.485 385.167 342.671C385.16 342.925 385.153 343.172 385.139 343.427C384.941 348.538 384.629 354.489 384.091 363.914C383.093 381.323 381.352 366.307 379.603 372.414C374.747 369.435 369.423 366.314 363.732 363.109C362.705 362.53 361.669 361.949 360.624 361.365C349.241 355.033 336.527 348.397 323.253 341.824C322.729 341.563 322.199 341.302 321.675 341.047C291.27 326.06 258.083 311.481 231.196 301.753C226.007 299.875 221.052 298.181 216.394 296.691C206.582 293.564 198.101 291.375 191.574 290.429C184.778 289.441 180.085 289.794 178.188 291.834C178.117 290.394 178.044 289.015 177.968 287.697C177.94 287.259 177.912 286.829 177.883 286.405C177.927 286.289 177.984 286.178 178.039 286.066C178.047 286.05 178.052 286.033 178.06 286.017C178.074 285.98 178.09 285.945 178.11 285.911C178.131 285.867 178.154 285.824 178.181 285.784C178.204 285.734 178.232 285.686 178.266 285.642C178.329 285.544 178.4 285.438 178.478 285.339C178.535 285.265 178.597 285.194 178.662 285.127C178.684 285.093 178.71 285.062 178.74 285.035C178.768 285.007 178.797 284.972 178.832 284.936C178.847 284.914 178.866 284.895 178.889 284.88C178.945 284.816 179.006 284.757 179.073 284.704C179.325 284.472 179.595 284.259 179.88 284.068C179.979 284.005 180.085 283.941 180.184 283.87C180.898 283.445 181.649 283.086 182.428 282.797C182.697 282.699 182.966 282.607 183.256 282.508C183.363 282.48 183.462 282.444 183.568 282.409C183.724 282.36 183.879 282.31 184.042 282.275C184.849 282.035 185.72 281.83 186.661 281.64C186.945 281.583 187.242 281.527 187.539 281.477C187.78 281.435 188.028 281.393 188.276 281.35C190.378 281.018 192.764 280.771 195.397 280.609C195.645 280.595 195.893 280.581 196.14 280.567C196.431 280.552 196.721 280.538 197.018 280.524C197.266 280.51 197.521 280.503 197.776 280.496C198.023 280.482 198.278 280.475 198.54 280.468C199.255 280.447 199.991 280.425 200.742 280.411C202.88 280.376 205.131 280.39 207.495 280.439C208.593 280.461 209.711 280.496 210.858 280.545C210.929 280.545 211.007 280.552 211.077 280.552C212.076 280.581 213.088 280.63 214.114 280.679C214.836 280.715 215.566 280.75 216.295 280.792C216.981 280.835 217.675 280.877 218.376 280.927C218.921 280.955 219.466 280.997 220.018 281.032C220.486 281.068 220.953 281.103 221.42 281.131C221.979 281.174 222.538 281.216 223.105 281.258C223.884 281.322 224.662 281.385 225.455 281.449C226.241 281.52 227.041 281.59 227.841 281.661C228.641 281.731 229.448 281.809 230.255 281.887C230.34 281.894 230.418 281.901 230.495 281.908C231.232 281.986 231.968 282.056 232.711 282.134C236.831 282.55 241.072 283.037 245.432 283.595C248.037 283.927 250.676 284.282 253.347 284.661C257.403 285.233 261.523 285.854 265.672 286.518C269.827 287.189 274.006 287.897 278.209 288.643C279.271 288.833 280.332 289.024 281.401 289.222C282.704 289.462 284.007 289.707 285.309 289.956C286.13 290.111 286.951 290.267 287.773 290.429C288.75 290.62 289.734 290.81 290.711 291.001C297.145 292.272 303.545 293.627 309.789 295.046C310.815 295.279 311.842 295.519 312.861 295.752C314.9 296.225 316.92 296.705 318.921 297.192C319.473 297.326 320.018 297.46 320.563 297.595C321.929 297.934 323.282 298.272 324.62 298.611V298.618C324.697 298.632 324.775 298.654 324.853 298.675C325.83 298.922 326.8 299.169 327.763 299.423C330.035 300.016 332.27 300.614 334.467 301.216C335.925 301.626 337.369 302.028 338.792 302.438C340.923 303.059 343.011 303.68 345.043 304.301C345.545 304.457 346.048 304.612 346.544 304.76C348.03 305.226 349.489 305.69 350.918 306.151C352.051 306.518 353.156 306.892 354.246 307.267C355.336 307.641 356.405 308.015 357.453 308.389C358.132 308.629 358.798 308.876 359.456 309.116C360.419 309.469 361.353 309.822 362.273 310.182C362.557 310.288 362.833 310.401 363.109 310.507C363.626 310.705 364.128 310.909 364.624 311.114C364.956 311.241 365.282 311.375 365.608 311.516C365.926 311.644 366.252 311.778 366.563 311.912C366.882 312.039 367.193 312.173 367.505 312.314C367.767 312.42 368.022 312.533 368.269 312.646C368.772 312.865 369.275 313.084 369.763 313.31C370.004 313.423 370.245 313.529 370.485 313.641L371.037 313.896C371.115 313.938 371.193 313.973 371.271 314.009C371.873 314.291 372.453 314.573 373.02 314.856C373.55 315.124 374.067 315.392 374.563 315.653C375.15 315.964 375.71 316.268 376.248 316.578C376.354 316.635 376.46 316.698 376.566 316.755C376.927 316.96 377.274 317.171 377.621 317.376C378.301 317.793 378.945 318.202 379.546 318.611C380.141 319.021 380.693 319.423 381.21 319.826C381.21 319.833 381.21 319.833 381.217 319.833C381.465 320.03 381.706 320.228 381.932 320.419C382.3 320.736 382.64 321.04 382.952 321.351C383.056 321.447 383.155 321.548 383.249 321.654C383.29 321.688 383.328 321.726 383.362 321.767C383.511 321.93 383.659 322.092 383.801 322.254C383.971 322.452 384.127 322.65 384.275 322.847C384.346 322.946 384.424 323.045 384.488 323.144C384.573 323.264 384.658 323.391 384.728 323.511C384.792 323.61 384.849 323.716 384.905 323.815C385.056 324.069 385.184 324.336 385.288 324.612C385.365 324.8 385.429 324.994 385.479 325.191C385.532 325.379 385.573 325.57 385.599 325.763Z" fill="#1F1F1F"/>
<rect x="62.9927" y="146.416" width="24.4537" height="112.523" fill="#3F3D56"/>
</g>
<defs>
<clipPath id="clip0_903_355">
<rect width="557" height="404" fill="white" transform="translate(0.5)"/>
</clipPath>
</defs>
</svg>
