<svg width="330" height="144" viewBox="0 0 330 144" fill="none" xmlns="http://www.w3.org/2000/svg">
<path d="M219.149 1.77221H135.768V0H97.9597V1.77221H14.2347C13.4941 1.77221 12.7606 1.92265 12.0763 2.21494C11.3921 2.50723 10.7703 2.93565 10.2466 3.47574C9.72282 4.01582 9.30737 4.65699 9.02393 5.36265C8.74049 6.0683 8.5946 6.82462 8.5946 7.58841V125.328C8.5946 126.87 9.18883 128.35 10.2466 129.44C11.3043 130.531 12.7389 131.144 14.2347 131.144H219.149C220.645 131.144 222.08 130.531 223.137 129.44C224.195 128.35 224.789 126.87 224.789 125.328V7.58841C224.789 6.82462 224.644 6.0683 224.36 5.36265C224.077 4.65699 223.661 4.01582 223.137 3.47574C222.614 2.93565 221.992 2.50723 221.308 2.21494C220.623 1.92265 219.89 1.77221 219.149 1.77221Z" fill="#3F3D56"/>
<path d="M217.227 12.0586H16.1555V129.025H217.227V12.0586Z" fill="#F1F1EF"/>
<path d="M116.518 8.86659C117.657 8.86659 118.58 7.91446 118.58 6.73994C118.58 5.56542 117.657 4.61328 116.518 4.61328C115.379 4.61328 114.455 5.56542 114.455 6.73994C114.455 7.91446 115.379 8.86659 116.518 8.86659Z" fill="#F1F1EF"/>
<path opacity="0.1" d="M159.724 129.025H16.1556V12.0586L159.724 129.025Z" fill="black"/>
<path d="M52.8804 18.7456H42.6248V22.7928H52.8804V18.7456Z" fill="#3F3D56" fill-opacity="0.5"/>
<path d="M74.6736 34.2837H42.6248V38.2496H74.6736V34.2837Z" fill="#3F3D56" fill-opacity="0.5"/>
<path d="M106.722 50.1509H42.6248V116.25H106.722V50.1509Z" fill="#3F3D56" fill-opacity="0.5"/>
<path d="M190.37 50.1509H126.272V116.25H190.37V50.1509Z" fill="#3F3D56" fill-opacity="0.5"/>
<path d="M111.53 40.5581H42.6248V41.8801H111.53V40.5581Z" fill="#3F3D56" fill-opacity="0.5"/>
<path d="M164.73 18.7456H154.475V22.7928H164.73V18.7456Z" fill="#3F3D56" fill-opacity="0.5"/>
<path d="M177.549 18.7456H167.294V22.7928H177.549V18.7456Z" fill="#3F3D56" fill-opacity="0.5"/>
<path d="M190.37 18.7456H180.114V22.7928H190.37V18.7456Z" fill="#3F3D56" fill-opacity="0.5"/>
<path d="M126.146 17.4268H107.364V21.4739H126.146V17.4268Z" fill="#3F3D56"/>
<path d="M129.156 23.0415H104.478V24.3635H129.156V23.0415Z" fill="#3F3D56" fill-opacity="0.5"/>
<path d="M230.433 126.894H210.81V125.436C210.81 125.398 210.803 125.361 210.789 125.325C210.774 125.29 210.754 125.258 210.728 125.232C210.702 125.205 210.671 125.184 210.637 125.169C210.603 125.154 210.566 125.147 210.529 125.147H203.802C203.765 125.147 203.728 125.154 203.694 125.169C203.66 125.184 203.629 125.205 203.603 125.232C203.577 125.258 203.557 125.29 203.543 125.325C203.528 125.361 203.521 125.398 203.521 125.436V126.894H199.316V125.436C199.316 125.398 199.309 125.361 199.295 125.325C199.281 125.29 199.26 125.258 199.234 125.232C199.208 125.205 199.177 125.184 199.143 125.169C199.109 125.154 199.073 125.147 199.036 125.147H192.308C192.271 125.147 192.235 125.154 192.201 125.169C192.167 125.184 192.136 125.205 192.11 125.232C192.084 125.258 192.063 125.29 192.049 125.325C192.035 125.361 192.028 125.398 192.028 125.436V126.894H187.823V125.436C187.823 125.398 187.815 125.361 187.801 125.325C187.787 125.29 187.767 125.258 187.74 125.232C187.714 125.205 187.684 125.184 187.65 125.169C187.616 125.154 187.579 125.147 187.542 125.147H180.814C180.777 125.147 180.741 125.154 180.707 125.169C180.673 125.184 180.642 125.205 180.616 125.232C180.59 125.258 180.569 125.29 180.555 125.325C180.541 125.361 180.534 125.398 180.534 125.436V126.894H176.329V125.436C176.329 125.398 176.322 125.361 176.308 125.325C176.294 125.29 176.273 125.258 176.247 125.232C176.221 125.205 176.19 125.184 176.156 125.169C176.122 125.154 176.085 125.147 176.049 125.147H169.321C169.284 125.147 169.247 125.154 169.213 125.169C169.179 125.184 169.148 125.205 169.122 125.232C169.096 125.258 169.076 125.29 169.062 125.325C169.048 125.361 169.04 125.398 169.04 125.436V126.894H164.835V125.436C164.835 125.398 164.828 125.361 164.814 125.325C164.8 125.29 164.779 125.258 164.753 125.232C164.727 125.205 164.696 125.184 164.662 125.169C164.628 125.154 164.592 125.147 164.555 125.147H157.827C157.79 125.147 157.754 125.154 157.72 125.169C157.686 125.184 157.655 125.205 157.629 125.232C157.603 125.258 157.582 125.29 157.568 125.325C157.554 125.361 157.547 125.398 157.547 125.436V126.894H153.342V125.436C153.342 125.398 153.334 125.361 153.32 125.325C153.306 125.29 153.286 125.258 153.26 125.232C153.234 125.205 153.203 125.184 153.169 125.169C153.135 125.154 153.098 125.147 153.061 125.147H146.333C146.297 125.147 146.26 125.154 146.226 125.169C146.192 125.184 146.161 125.205 146.135 125.232C146.109 125.258 146.089 125.29 146.074 125.325C146.06 125.361 146.053 125.398 146.053 125.436V126.894H141.848V125.436C141.848 125.398 141.841 125.361 141.827 125.325C141.813 125.29 141.792 125.258 141.766 125.232C141.74 125.205 141.709 125.184 141.675 125.169C141.641 125.154 141.605 125.147 141.568 125.147H88.8653C88.8285 125.147 88.792 125.154 88.758 125.169C88.724 125.184 88.6931 125.205 88.6671 125.232C88.6411 125.258 88.6204 125.29 88.6063 125.325C88.5922 125.361 88.585 125.398 88.585 125.436V126.894H84.38V125.436C84.38 125.398 84.3727 125.361 84.3587 125.325C84.3446 125.29 84.3239 125.258 84.2979 125.232C84.2719 125.205 84.241 125.184 84.2069 125.169C84.1729 125.154 84.1365 125.147 84.0997 125.147H77.3717C77.3349 125.147 77.2984 125.154 77.2644 125.169C77.2304 125.184 77.1995 125.205 77.1735 125.232C77.1474 125.258 77.1268 125.29 77.1127 125.325C77.0986 125.361 77.0914 125.398 77.0914 125.436V126.894H72.8864V125.436C72.8864 125.398 72.8791 125.361 72.865 125.325C72.851 125.29 72.8303 125.258 72.8043 125.232C72.7782 125.205 72.7473 125.184 72.7133 125.169C72.6793 125.154 72.6429 125.147 72.606 125.147H65.8781C65.8413 125.147 65.8048 125.154 65.7708 125.169C65.7368 125.184 65.7059 125.205 65.6798 125.232C65.6538 125.258 65.6332 125.29 65.6191 125.325C65.605 125.361 65.5977 125.398 65.5977 125.436V126.894H61.3928V125.436C61.3928 125.398 61.3855 125.361 61.3714 125.325C61.3573 125.29 61.3367 125.258 61.3106 125.232C61.2846 125.205 61.2537 125.184 61.2197 125.169C61.1857 125.154 61.1492 125.147 61.1124 125.147H54.3844C54.3476 125.147 54.3112 125.154 54.2772 125.169C54.2432 125.184 54.2122 125.205 54.1862 125.232C54.1602 125.258 54.1395 125.29 54.1255 125.325C54.1114 125.361 54.1041 125.398 54.1041 125.436V126.894H49.8991V125.436C49.8991 125.398 49.8919 125.361 49.8778 125.325C49.8637 125.29 49.8431 125.258 49.817 125.232C49.791 125.205 49.7601 125.184 49.7261 125.169C49.6921 125.154 49.6556 125.147 49.6188 125.147H42.8908C42.854 125.147 42.8176 125.154 42.7835 125.169C42.7495 125.184 42.7186 125.205 42.6926 125.232C42.6666 125.258 42.6459 125.29 42.6318 125.325C42.6177 125.361 42.6105 125.398 42.6105 125.436V126.894H38.4055V125.436C38.4055 125.398 38.3983 125.361 38.3842 125.325C38.3701 125.29 38.3494 125.258 38.3234 125.232C38.2974 125.205 38.2665 125.184 38.2325 125.169C38.1984 125.154 38.162 125.147 38.1252 125.147H31.3972C31.3604 125.147 31.3239 125.154 31.2899 125.169C31.2559 125.184 31.225 125.205 31.199 125.232C31.173 125.258 31.1523 125.29 31.1382 125.325C31.1241 125.361 31.1169 125.398 31.1169 125.436V126.894H26.9119V125.436C26.9119 125.398 26.9046 125.361 26.8906 125.325C26.8765 125.29 26.8558 125.258 26.8298 125.232C26.8038 125.205 26.7729 125.184 26.7388 125.169C26.7048 125.154 26.6684 125.147 26.6316 125.147H19.9036C19.8668 125.147 19.8303 125.154 19.7963 125.169C19.7623 125.184 19.7314 125.205 19.7054 125.232C19.6793 125.258 19.6587 125.29 19.6446 125.325C19.6305 125.361 19.6233 125.398 19.6233 125.436V126.894H6.72797C4.9436 126.894 3.23232 127.625 1.97058 128.926C0.70884 130.227 1.69997e-06 131.992 0 133.832V136.969C5.09991e-06 138.809 0.708846 140.574 1.97058 141.875C3.23232 143.176 4.94361 143.907 6.72797 143.907H230.433C232.217 143.907 233.929 143.176 235.19 141.875C236.452 140.574 237.161 138.809 237.161 136.969V133.832C237.161 131.992 236.452 130.227 235.19 128.926C233.929 127.625 232.217 126.894 230.433 126.894Z" fill="#3F3D56"/>
<path d="M329.819 34.2198H329.018V12.5449C329.018 10.8974 328.69 9.26615 328.052 7.74414C327.414 6.22212 326.479 4.83919 325.3 3.67429C324.121 2.50939 322.722 1.58535 321.182 0.95491C319.642 0.324474 317.991 -4.80495e-06 316.324 0H269.856C268.188 -6.11542e-06 266.538 0.324469 264.998 0.954905C263.457 1.58534 262.058 2.50939 260.879 3.67429C259.7 4.83919 258.765 6.22212 258.127 7.74414C257.489 9.26615 257.161 10.8974 257.161 12.5449V131.455C257.161 133.103 257.489 134.734 258.127 136.256C258.765 137.778 259.7 139.161 260.879 140.326C262.058 141.491 263.457 142.415 264.998 143.045C266.538 143.676 268.188 144 269.856 144H316.324C317.991 144 319.642 143.676 321.182 143.045C322.722 142.415 324.121 141.491 325.3 140.326C326.479 139.161 327.414 137.778 328.052 136.256C328.69 134.734 329.018 133.103 329.018 131.455V49.6484H329.819V34.2198Z" fill="#3F3D56"/>
<path d="M326.411 13.2849V132.022C326.411 134.506 325.413 136.89 323.635 138.647C321.858 140.404 319.447 141.392 316.932 141.392H270.239C267.725 141.392 265.314 140.404 263.536 138.647C261.759 136.89 260.76 134.506 260.761 132.022V13.2849C260.761 10.8007 261.76 8.41836 263.537 6.66178C265.315 4.90519 267.726 3.91823 270.239 3.91797H275.904C275.626 4.59375 275.519 5.32692 275.595 6.05288C275.67 6.77884 275.925 7.47533 276.337 8.08097C276.749 8.68662 277.306 9.18284 277.957 9.52593C278.609 9.86902 279.336 10.0484 280.075 10.0484H306.696C307.435 10.0484 308.162 9.86903 308.814 9.52594C309.466 9.18285 310.022 8.68663 310.434 8.08098C310.846 7.47533 311.101 6.77885 311.176 6.05288C311.252 5.32691 311.146 4.59375 310.867 3.91797H316.932C319.446 3.91824 321.857 4.90519 323.634 6.66178C325.412 8.41836 326.411 10.8007 326.411 13.2849Z" fill="#F1F1EF"/>
<path opacity="0.1" d="M326.316 119.346V132.026C326.317 134.511 325.318 136.894 323.541 138.651C321.763 140.409 319.352 141.396 316.838 141.397H270.145C267.631 141.396 265.219 140.409 263.442 138.651C261.664 136.894 260.666 134.511 260.666 132.026V68.0908L300.005 98.8028L300.678 99.3284L307.995 105.04L308.679 105.575L326.316 119.346Z" fill="black"/>
<path d="M287.217 14.6064H267.491V18.6798H287.217V14.6064Z" fill="#3F3D56"/>
<path d="M293.409 20.2578H267.491V21.5883H293.409V20.2578Z" fill="#3F3D56" fill-opacity="0.5"/>
<rect x="318.655" y="17.2676" width="3.36597" height="0.665267" rx="0.332633" fill="#3F3D56"/>
<rect x="318.655" y="18.2651" width="3.36597" height="0.665267" rx="0.332633" fill="#3F3D56"/>
<rect x="318.655" y="19.2637" width="3.36597" height="0.665267" rx="0.332633" fill="#3F3D56"/>
<path d="M301.15 43.8823H267.491V93.7773H301.15V43.8823Z" fill="#3F3D56" fill-opacity="0.5"/>
<path d="M326.396 43.8823H305.191V93.7773H326.396V43.8823Z" fill="#3F3D56" fill-opacity="0.5"/>
<path d="M288.36 32.5664H267.491V35.2275H288.36V32.5664Z" fill="#3F3D56" fill-opacity="0.7"/>
<path d="M312.595 36.561H267.491V37.8916H312.595V36.561Z" fill="#3F3D56" fill-opacity="0.5"/>
<path d="M300.477 39.2153H267.491V40.5459H300.477V39.2153Z" fill="#3F3D56" fill-opacity="0.5"/>
</svg>
