<svg width="342" height="216" viewBox="0 0 342 216" fill="none" xmlns="http://www.w3.org/2000/svg">
<rect x="0.75" y="0.75" width="340.5" height="214.5" rx="7.25" stroke="#1F1F1F" stroke-width="1.5"/>
<g clip-path="url(#clip0_1067_2174)">
<path d="M202.098 155.977L199.732 155.977L198.606 146.872L202.098 146.873L202.098 155.977Z" fill="#FFB6B6"/>
<path d="M193.992 155.923C193.919 156.047 193.88 156.447 193.88 156.591C193.88 157.033 194.239 157.392 194.683 157.392H202.009C202.312 157.392 202.557 157.147 202.557 156.845V156.541C202.557 156.541 202.919 155.626 202.173 154.499C202.173 154.499 201.246 155.382 199.86 153.999L199.451 153.26L196.493 155.419L194.854 155.62C194.495 155.664 194.177 155.613 193.992 155.923Z" fill="#2F2E41"/>
<path d="M227.072 153.024L224.91 153.983L220.175 146.12L223.365 144.705L227.072 153.024Z" fill="#FFB6B6"/>
<path d="M219.644 156.261C219.627 156.404 219.754 156.784 219.812 156.916C219.993 157.32 220.467 157.502 220.872 157.322L227.567 154.353C227.844 154.23 227.968 153.907 227.845 153.632L227.721 153.353C227.721 153.353 227.68 152.371 226.539 151.643C226.539 151.643 226.051 152.826 224.222 152.124L223.548 151.615L221.723 154.786L220.307 155.634C219.997 155.82 219.686 155.902 219.644 156.261Z" fill="#2F2E41"/>
<path d="M196.956 99.0097L194.853 103.417L198.428 149.165H202.9L204.739 119.156L220.788 149.165H226.273L217.99 127.76L212.311 99.8491L196.956 99.0097Z" fill="#2F2E41"/>
<path d="M208.219 70.7473H202.672L200.638 73.9318L196.05 76.1211L197.047 89.8543L196.547 99.8675L197.232 99.8475C202.127 99.705 207.02 100.499 211.563 102.324C212.728 102.792 213.95 103.054 215.001 102.791C215.001 102.791 214.602 101.199 214.203 100.801C213.804 100.403 213.605 100.074 213.804 99.8403C214.004 99.6068 214.403 99.4078 214.004 99.0097C213.605 98.6116 213.605 98.1101 213.605 98.1101L212.408 89.2572L214.802 76.7182L209.815 73.9318L208.219 70.7473Z" fill="#3F3D56"/>
<path d="M217.75 88.109L217.599 99.8541L214.669 110.324L212.328 109.453L213.368 99.8559L213.231 86.8688L217.75 88.109Z" fill="#FFB6B6"/>
<path d="M214.659 112.012C214.934 110.507 214.43 109.155 213.534 108.992C212.639 108.829 211.689 109.918 211.415 111.423C211.14 112.929 211.644 114.281 212.54 114.444C213.436 114.606 214.385 113.518 214.659 112.012Z" fill="#FFB6B6"/>
<path d="M213.605 76.1211C213.605 76.1211 216.91 76.632 216.953 79.4616C216.996 82.2911 220.188 86.8688 218.193 90.4514L213.006 91.2475L210.213 81.0969L213.405 75.7231" fill="#3F3D56"/>
<path d="M198.52 86.0406L191.933 95.7766L183.726 102.926L182.248 100.915L188.395 93.4617L195.424 82.5298L198.52 86.0406Z" fill="#FFB6B6"/>
<path d="M182.789 104.332C183.847 103.224 184.169 101.817 183.51 101.191C182.85 100.564 181.458 100.955 180.401 102.063C179.343 103.171 179.02 104.577 179.68 105.204C180.339 105.83 181.731 105.44 182.789 104.332Z" fill="#FFB6B6"/>
<path d="M201.648 73.7496C201.648 73.7496 204.13 75.9861 202.61 78.3752C201.09 80.7643 201.24 86.3387 197.602 88.2416L192.828 86.0675C193.23 82.1425 193.465 78.0731 196.076 76.0527L201.7 73.3076" fill="#3F3D56"/>
<path d="M204.585 69.927C207.325 69.927 209.547 67.7102 209.547 64.9756C209.547 62.241 207.325 60.0242 204.585 60.0242C201.844 60.0242 199.622 62.241 199.622 64.9756C199.622 67.7102 201.844 69.927 204.585 69.927Z" fill="#FFB6B6"/>
<path d="M208.23 69.0439C208.503 69.0904 208.824 68.4293 209.131 67.7855C209.773 66.4377 210.181 65.5809 210.212 64.3697C210.238 63.3375 209.951 63.6084 209.671 61.3136C209.579 60.5567 208.283 60.5581 208.019 60.1987C207.573 59.5916 208.257 59.3412 207.148 58.9765C205.072 58.2934 204.133 59.3546 202.814 59.446C202.781 59.4483 202.127 60.0862 201.762 60.1192C201.122 60.1769 200.199 60.0775 199.786 59.1051C199.399 58.1959 199.142 60.8528 199.488 61.1816C199.782 61.4608 200.288 62.1615 200.301 62.2124C200.316 62.2701 199.097 60.9232 198.894 61.4783C198.747 61.8777 199.208 63.9329 199.58 64.0102C199.892 64.0748 200.653 63.051 200.481 63.4709C200.083 64.4447 202.479 65.066 205.347 63.1113C205.448 63.042 205.352 63.1526 205.707 64.0102C206.154 65.0919 206.255 65.1505 206.247 65.4484C206.231 66.0933 205.745 66.2832 205.887 66.7068C206.002 67.0499 206.451 67.3155 206.788 67.2461C207.168 67.1678 207.234 66.6985 207.509 66.7068C207.745 66.714 208.024 67.0683 208.049 67.4259C208.102 68.1793 206.984 68.3865 206.788 69.4035C206.677 69.9774 207.978 69.0012 208.23 69.0439Z" fill="#2F2E41"/>
<path d="M168.796 157.617H126.151C119.755 157.617 114.551 152.426 114.551 146.044V33.573C114.551 27.1916 119.755 22 126.151 22H168.796C175.192 22 180.395 27.1916 180.395 33.573C181.189 78.7379 182.543 129.316 180.395 146.044C180.395 152.426 175.192 157.617 168.796 157.617Z" fill="#3F3D56"/>
<path d="M180.99 63.3706C180.719 63.3706 180.499 63.5902 180.499 63.8602V79.5272C180.499 79.7972 180.719 80.0168 180.99 80.0168C181.261 80.0168 181.481 79.7972 181.481 79.5272V63.8602C181.481 63.5902 181.261 63.3706 180.99 63.3706Z" fill="#3F3D56"/>
<path d="M179.291 33.573V146.042C179.291 151.597 174.958 156.14 169.479 156.493H169.477C169.396 156.498 169.315 156.502 169.231 156.505C169.086 156.512 168.942 156.515 168.795 156.515C168.795 156.515 168.255 156.475 167.268 156.402C166.272 156.329 164.822 156.218 163.014 156.074C162.471 156.032 161.9 155.986 161.296 155.937C160.094 155.839 158.774 155.731 157.358 155.609C156.794 155.562 156.21 155.511 155.614 155.46C152.566 155.198 149.153 154.892 145.554 154.544C144.945 154.488 144.332 154.429 143.713 154.368C143.551 154.351 115.656 147.354 115.656 146.042V33.573C115.656 27.7885 120.354 23.1006 126.152 23.1006H132.419C133.42 23.1006 134.225 23.8791 134.311 24.8754C134.318 24.9415 134.325 25.0076 134.338 25.0737C134.519 26.0749 135.439 26.7726 136.46 26.7726H158.487C159.507 26.7726 160.428 26.0749 160.609 25.0737C160.621 25.0076 160.629 24.9415 160.636 24.8754C160.722 23.8791 161.527 23.1006 162.528 23.1006H168.795C174.592 23.1006 179.291 27.7885 179.291 33.573Z" fill="#F1F1EF"/>
<path d="M114.306 51.6204C114.035 51.6204 113.815 51.84 113.815 52.11V56.0268C113.815 56.2968 114.035 56.5163 114.306 56.5163C114.577 56.5163 114.797 56.2968 114.797 56.0268V52.11C114.797 51.84 114.577 51.6204 114.306 51.6204Z" fill="#3F3D56"/>
<path d="M114.306 63.3706C114.035 63.3706 113.815 63.5902 113.815 63.8602V71.4489C113.815 71.7189 114.035 71.9385 114.306 71.9385C114.577 71.9385 114.797 71.7189 114.797 71.4489V63.8602C114.797 63.5902 114.577 63.3706 114.306 63.3706Z" fill="#3F3D56"/>
<path d="M114.306 74.1417C114.035 74.1417 113.815 74.3612 113.815 74.6313V82.2199C113.815 82.49 114.035 82.7095 114.306 82.7095C114.577 82.7095 114.797 82.49 114.797 82.2199V74.6313C114.797 74.3612 114.577 74.1417 114.306 74.1417Z" fill="#3F3D56"/>
<path d="M132.248 24.8152H122.863C122.812 24.8152 122.771 24.8564 122.771 24.9072V25.9471C122.771 25.998 122.812 26.0392 122.863 26.0392H132.248C132.299 26.0392 132.34 25.998 132.34 25.9471V24.9072C132.34 24.8564 132.299 24.8152 132.248 24.8152Z" fill="#E6E6E6"/>
<path d="M164.079 26.0392C164.621 26.0392 165.06 25.6008 165.06 25.06C165.06 24.5192 164.621 24.0808 164.079 24.0808C163.537 24.0808 163.097 24.5192 163.097 25.06C163.097 25.6008 163.537 26.0392 164.079 26.0392Z" fill="#E6E6E6"/>
<path d="M166.778 26.0392C167.32 26.0392 167.759 25.6008 167.759 25.06C167.759 24.5192 167.32 24.0808 166.778 24.0808C166.236 24.0808 165.796 24.5192 165.796 25.06C165.796 25.6008 166.236 26.0392 166.778 26.0392Z" fill="#E6E6E6"/>
<path d="M169.477 26.0392C170.019 26.0392 170.458 25.6008 170.458 25.06C170.458 24.5192 170.019 24.0808 169.477 24.0808C168.935 24.0808 168.495 24.5192 168.495 25.06C168.495 25.6008 168.935 26.0392 169.477 26.0392Z" fill="#E6E6E6"/>
<path d="M93 157.647C93 157.843 93.1576 158 93.3538 158H248.646C248.842 158 249 157.843 249 157.647C249 157.451 248.842 157.294 248.646 157.294H93.3538C93.1576 157.294 93 157.451 93 157.647Z" fill="#CCCCCC"/>
<rect x="133.487" y="36.3759" width="28.8211" height="1.8255" rx="0.912752" fill="#3F3D56"/>
<rect x="132.572" y="43.2215" width="31.566" height="40.6175" rx="4" fill="#BABAC2" fill-opacity="0.5"/>
<rect x="136.689" y="71.5168" width="11.8944" height="0.912752" rx="0.456376" fill="#3F3D56" fill-opacity="0.5"/>
<rect x="136.689" y="79.7316" width="5.48974" height="0.912752" rx="0.456376" fill="#3F3D56" fill-opacity="0.8"/>
<rect x="136.689" y="74.2551" width="18.2991" height="0.912752" rx="0.456376" fill="#3F3D56" fill-opacity="0.5"/>
<rect x="136.689" y="75.6241" width="16.4692" height="0.912752" rx="0.456376" fill="#3F3D56" fill-opacity="0.5"/>
<rect x="136.689" y="76.9933" width="19.2141" height="0.912752" rx="0.456376" fill="#3F3D56" fill-opacity="0.5"/>
<rect x="137.189" y="46.9161" width="22.3314" height="22.2752" rx="1.5" stroke="#3F3D56"/>
<line y1="-0.5" x2="30.9585" y2="-0.5" transform="matrix(0.707959 0.706253 -0.707959 0.706254 137.146 47.1215)" stroke="#3F3D56"/>
<line y1="-0.5" x2="30.9585" y2="-0.5" transform="matrix(-0.707959 0.706253 -0.707959 -0.706253 159.105 47.1215)" stroke="#3F3D56"/>
<rect x="132.572" y="91.1409" width="31.566" height="40.6175" rx="4" fill="#BABAC2" fill-opacity="0.5"/>
<rect x="136.689" y="119.436" width="11.8944" height="0.912752" rx="0.456376" fill="#3F3D56" fill-opacity="0.5"/>
<rect x="154.531" y="119.436" width="5.48974" height="0.912752" rx="0.456376" fill="#3F3D56" fill-opacity="0.8"/>
<rect x="136.689" y="122.174" width="18.2991" height="0.912752" rx="0.456376" fill="#3F3D56" fill-opacity="0.5"/>
<rect x="136.689" y="123.544" width="16.4692" height="0.912752" rx="0.456376" fill="#3F3D56" fill-opacity="0.5"/>
<rect x="136.689" y="124.913" width="19.2141" height="0.912752" rx="0.456376" fill="#3F3D56" fill-opacity="0.5"/>
<rect x="137.189" y="94.8356" width="22.3314" height="22.2752" rx="1.5" stroke="#3F3D56"/>
<line y1="-0.5" x2="30.9585" y2="-0.5" transform="matrix(0.707959 0.706253 -0.707959 0.706254 137.146 95.0409)" stroke="#3F3D56"/>
<line y1="-0.5" x2="30.9585" y2="-0.5" transform="matrix(-0.707959 0.706253 -0.707959 -0.706253 159.105 95.0409)" stroke="#3F3D56"/>
</g>
<path d="M57.4414 173H58.4614V180H57.6314V174.07L55.2614 177.65H55.1814L52.8114 174.07V180H51.9814V173H53.0014L55.2214 176.34L57.4414 173ZM64.0847 174.5H64.9747L61.2647 182.5H60.3747L61.8347 179.33L59.6047 174.5H60.4947L62.2747 178.44L64.0847 174.5ZM71.6914 172.93C70.8181 172.93 70.3814 173.443 70.3814 174.47V174.5H72.6114V175.28H70.3814V180H69.5514V175.28H68.4914V174.5H69.5514V174.43C69.5514 173.723 69.7381 173.173 70.1114 172.78C70.4848 172.387 70.9814 172.19 71.6014 172.19C72.0414 172.19 72.4348 172.267 72.7814 172.42L72.6314 173.11L72.4914 173.07C72.2381 172.977 71.9714 172.93 71.6914 172.93ZM73.5808 172.24C73.6942 172.133 73.8342 172.08 74.0008 172.08C74.1675 172.08 74.3042 172.133 74.4108 172.24C74.5242 172.347 74.5808 172.477 74.5808 172.63C74.5808 172.79 74.5242 172.923 74.4108 173.03C74.3042 173.137 74.1675 173.19 74.0008 173.19C73.8342 173.19 73.6942 173.137 73.5808 173.03C73.4742 172.923 73.4208 172.79 73.4208 172.63C73.4208 172.477 73.4742 172.347 73.5808 172.24ZM73.5808 180V174.5H74.4108V180H73.5808ZM78.6755 174.39C78.7955 174.39 78.9088 174.397 79.0155 174.41V175.26C78.8955 175.247 78.7788 175.24 78.6655 175.24C78.0722 175.24 77.5988 175.43 77.2455 175.81C76.8922 176.183 76.7155 176.713 76.7155 177.4V180H75.8855V174.5H76.7155V175.73C77.0755 174.837 77.7288 174.39 78.6755 174.39ZM82.3464 180.11C81.6264 180.11 81.0297 179.95 80.5564 179.63C80.083 179.31 79.793 178.86 79.6864 178.28H80.5364C80.643 178.653 80.8397 178.92 81.1264 179.08C81.4197 179.24 81.8264 179.32 82.3464 179.32C82.7664 179.32 83.1064 179.25 83.3664 179.11C83.633 178.963 83.7664 178.76 83.7664 178.5C83.7664 178.34 83.6997 178.207 83.5664 178.1C83.433 177.987 83.2897 177.907 83.1364 177.86C82.983 177.813 82.7197 177.743 82.3464 177.65C82.2597 177.63 82.193 177.613 82.1464 177.6C81.3197 177.393 80.7497 177.19 80.4364 176.99C80.123 176.79 79.9664 176.477 79.9664 176.05C79.9664 175.53 80.1697 175.123 80.5764 174.83C80.9897 174.537 81.5297 174.39 82.1964 174.39C82.8364 174.39 83.3564 174.53 83.7564 174.81C84.163 175.083 84.423 175.47 84.5364 175.97H83.6964C83.4964 175.443 83.003 175.18 82.2164 175.18C81.783 175.18 81.4397 175.257 81.1864 175.41C80.933 175.557 80.8064 175.75 80.8064 175.99C80.8064 176.197 80.9097 176.35 81.1164 176.45C81.323 176.543 81.7364 176.67 82.3564 176.83C82.6497 176.903 82.8697 176.96 83.0164 177C83.1697 177.04 83.3497 177.097 83.5564 177.17C83.7697 177.243 83.9264 177.313 84.0264 177.38C84.1264 177.447 84.2297 177.533 84.3364 177.64C84.443 177.74 84.5164 177.857 84.5564 177.99C84.5964 178.117 84.6164 178.263 84.6164 178.43C84.6164 178.97 84.3997 179.387 83.9664 179.68C83.5397 179.967 82.9997 180.11 82.3464 180.11ZM89.6583 179.07L89.8083 179.76C89.3683 179.993 88.8717 180.11 88.3183 180.11C87.7117 180.11 87.2317 179.92 86.8783 179.54C86.525 179.153 86.3483 178.607 86.3483 177.9V175.28H85.2883V174.5H86.3483V173.18L87.1783 173V174.5H89.6483V175.28H87.1783V177.86C87.1783 178.847 87.605 179.34 88.4583 179.34C88.765 179.34 89.165 179.25 89.6583 179.07ZM96.2526 180.11C95.5326 180.11 94.936 179.95 94.4626 179.63C93.9893 179.31 93.6993 178.86 93.5926 178.28H94.4426C94.5493 178.653 94.746 178.92 95.0326 179.08C95.326 179.24 95.7326 179.32 96.2526 179.32C96.6726 179.32 97.0126 179.25 97.2726 179.11C97.5393 178.963 97.6726 178.76 97.6726 178.5C97.6726 178.34 97.606 178.207 97.4726 178.1C97.3393 177.987 97.196 177.907 97.0426 177.86C96.8893 177.813 96.626 177.743 96.2526 177.65C96.166 177.63 96.0993 177.613 96.0526 177.6C95.226 177.393 94.656 177.19 94.3426 176.99C94.0293 176.79 93.8726 176.477 93.8726 176.05C93.8726 175.53 94.076 175.123 94.4826 174.83C94.896 174.537 95.436 174.39 96.1026 174.39C96.7426 174.39 97.2626 174.53 97.6626 174.81C98.0693 175.083 98.3293 175.47 98.4426 175.97H97.6026C97.4026 175.443 96.9093 175.18 96.1226 175.18C95.6893 175.18 95.346 175.257 95.0926 175.41C94.8393 175.557 94.7126 175.75 94.7126 175.99C94.7126 176.197 94.816 176.35 95.0226 176.45C95.2293 176.543 95.6426 176.67 96.2626 176.83C96.556 176.903 96.776 176.96 96.9226 177C97.076 177.04 97.256 177.097 97.4626 177.17C97.676 177.243 97.8326 177.313 97.9326 177.38C98.0326 177.447 98.136 177.533 98.2426 177.64C98.3493 177.74 98.4226 177.857 98.4626 177.99C98.5026 178.117 98.5226 178.263 98.5226 178.43C98.5226 178.97 98.306 179.387 97.8726 179.68C97.446 179.967 96.906 180.11 96.2526 180.11ZM103.565 179.07L103.715 179.76C103.275 179.993 102.778 180.11 102.225 180.11C101.618 180.11 101.138 179.92 100.785 179.54C100.431 179.153 100.255 178.607 100.255 177.9V175.28H99.1946V174.5H100.255V173.18L101.085 173V174.5H103.555V175.28H101.085V177.86C101.085 178.847 101.511 179.34 102.365 179.34C102.671 179.34 103.071 179.25 103.565 179.07ZM107.177 174.39C108.03 174.39 108.71 174.68 109.217 175.26C109.723 175.84 109.96 176.587 109.927 177.5H105.217C105.257 178.067 105.46 178.513 105.827 178.84C106.193 179.167 106.657 179.33 107.217 179.33C108.037 179.33 108.61 179.01 108.937 178.37H109.797C109.57 178.937 109.227 179.37 108.767 179.67C108.307 179.963 107.78 180.11 107.187 180.11C106.367 180.11 105.69 179.847 105.157 179.32C104.63 178.787 104.367 178.103 104.367 177.27C104.367 176.437 104.63 175.75 105.157 175.21C105.683 174.663 106.357 174.39 107.177 174.39ZM107.177 175.17C106.683 175.17 106.263 175.313 105.917 175.6C105.577 175.887 105.357 176.26 105.257 176.72H109.027C108.933 176.253 108.723 175.88 108.397 175.6C108.07 175.313 107.663 175.17 107.177 175.17ZM114.139 174.39C114.886 174.39 115.499 174.66 115.979 175.2C116.466 175.733 116.709 176.417 116.709 177.25C116.709 178.083 116.466 178.77 115.979 179.31C115.493 179.843 114.876 180.11 114.129 180.11C113.663 180.11 113.246 180.003 112.879 179.79C112.519 179.57 112.233 179.27 112.019 178.89V182.5H111.189V174.5H112.019V175.63C112.233 175.243 112.523 174.94 112.889 174.72C113.256 174.5 113.673 174.39 114.139 174.39ZM113.979 179.32C114.533 179.32 114.986 179.127 115.339 178.74C115.693 178.353 115.869 177.857 115.869 177.25C115.869 176.65 115.693 176.157 115.339 175.77C114.986 175.377 114.533 175.18 113.979 175.18C113.413 175.18 112.943 175.377 112.569 175.77C112.196 176.157 112.009 176.65 112.009 177.25C112.009 177.85 112.196 178.347 112.569 178.74C112.943 179.127 113.413 179.32 113.979 179.32ZM127.554 174.5H128.384L126.764 180H125.764L125.224 178.15L124.514 175.36H124.364L123.654 178.15L123.104 180H122.104L120.484 174.5H121.314L121.824 176.23L122.624 179.14L123.414 176.23L123.924 174.5H124.944L125.454 176.23L126.244 179.13L127.044 176.23L127.554 174.5ZM133.607 174.5H134.437V180H133.607V178.89C133.387 179.27 133.094 179.57 132.727 179.79C132.367 180.003 131.954 180.11 131.487 180.11C130.741 180.11 130.124 179.843 129.637 179.31C129.157 178.77 128.917 178.083 128.917 177.25C128.917 176.417 129.157 175.733 129.637 175.2C130.124 174.66 130.741 174.39 131.487 174.39C131.954 174.39 132.371 174.5 132.737 174.72C133.104 174.94 133.394 175.243 133.607 175.63V174.5ZM131.647 179.32C132.214 179.32 132.684 179.127 133.057 178.74C133.431 178.347 133.617 177.85 133.617 177.25C133.617 176.65 133.431 176.157 133.057 175.77C132.684 175.377 132.214 175.18 131.647 175.18C131.087 175.18 130.631 175.377 130.277 175.77C129.931 176.157 129.757 176.65 129.757 177.25C129.757 177.857 129.934 178.353 130.287 178.74C130.641 179.127 131.094 179.32 131.647 179.32ZM138.245 180.11C137.525 180.11 136.928 179.95 136.455 179.63C135.981 179.31 135.691 178.86 135.585 178.28H136.435C136.541 178.653 136.738 178.92 137.025 179.08C137.318 179.24 137.725 179.32 138.245 179.32C138.665 179.32 139.005 179.25 139.265 179.11C139.531 178.963 139.665 178.76 139.665 178.5C139.665 178.34 139.598 178.207 139.465 178.1C139.331 177.987 139.188 177.907 139.035 177.86C138.881 177.813 138.618 177.743 138.245 177.65C138.158 177.63 138.091 177.613 138.045 177.6C137.218 177.393 136.648 177.19 136.335 176.99C136.021 176.79 135.865 176.477 135.865 176.05C135.865 175.53 136.068 175.123 136.475 174.83C136.888 174.537 137.428 174.39 138.095 174.39C138.735 174.39 139.255 174.53 139.655 174.81C140.061 175.083 140.321 175.47 140.435 175.97H139.595C139.395 175.443 138.901 175.18 138.115 175.18C137.681 175.18 137.338 175.257 137.085 175.41C136.831 175.557 136.705 175.75 136.705 175.99C136.705 176.197 136.808 176.35 137.015 176.45C137.221 176.543 137.635 176.67 138.255 176.83C138.548 176.903 138.768 176.96 138.915 177C139.068 177.04 139.248 177.097 139.455 177.17C139.668 177.243 139.825 177.313 139.925 177.38C140.025 177.447 140.128 177.533 140.235 177.64C140.341 177.74 140.415 177.857 140.455 177.99C140.495 178.117 140.515 178.263 140.515 178.43C140.515 178.97 140.298 179.387 139.865 179.68C139.438 179.967 138.898 180.11 138.245 180.11ZM148.555 179.07L148.705 179.76C148.265 179.993 147.768 180.11 147.215 180.11C146.608 180.11 146.128 179.92 145.775 179.54C145.421 179.153 145.245 178.607 145.245 177.9V175.28H144.185V174.5H145.245V173.18L146.075 173V174.5H148.545V175.28H146.075V177.86C146.075 178.847 146.501 179.34 147.355 179.34C147.661 179.34 148.061 179.25 148.555 179.07ZM152.187 174.39C152.98 174.39 153.65 174.663 154.197 175.21C154.75 175.75 155.027 176.43 155.027 177.25C155.027 178.07 154.754 178.753 154.207 179.3C153.66 179.84 152.987 180.11 152.187 180.11C151.394 180.11 150.724 179.837 150.177 179.29C149.63 178.743 149.357 178.063 149.357 177.25C149.357 176.437 149.63 175.757 150.177 175.21C150.73 174.663 151.4 174.39 152.187 174.39ZM153.607 175.77C153.22 175.377 152.747 175.18 152.187 175.18C151.627 175.18 151.154 175.377 150.767 175.77C150.387 176.157 150.197 176.65 150.197 177.25C150.197 177.85 150.387 178.347 150.767 178.74C151.154 179.127 151.627 179.32 152.187 179.32C152.754 179.32 153.227 179.127 153.607 178.74C153.994 178.347 154.187 177.85 154.187 177.25C154.187 176.65 153.994 176.157 153.607 175.77ZM163.784 172.3H164.614V180H163.784V178.89C163.571 179.27 163.281 179.57 162.914 179.79C162.548 180.003 162.131 180.11 161.664 180.11C160.918 180.11 160.301 179.843 159.814 179.31C159.334 178.77 159.094 178.083 159.094 177.25C159.094 176.417 159.334 175.733 159.814 175.2C160.301 174.66 160.918 174.39 161.664 174.39C162.131 174.39 162.548 174.5 162.914 174.72C163.281 174.94 163.571 175.243 163.784 175.63V172.3ZM161.824 179.32C162.391 179.32 162.861 179.127 163.234 178.74C163.608 178.347 163.794 177.85 163.794 177.25C163.794 176.65 163.608 176.157 163.234 175.77C162.861 175.377 162.391 175.18 161.824 175.18C161.271 175.18 160.818 175.377 160.464 175.77C160.111 176.157 159.934 176.65 159.934 177.25C159.934 177.857 160.111 178.353 160.464 178.74C160.818 179.127 161.271 179.32 161.824 179.32ZM168.681 174.39C169.534 174.39 170.214 174.68 170.721 175.26C171.227 175.84 171.464 176.587 171.431 177.5H166.721C166.761 178.067 166.964 178.513 167.331 178.84C167.697 179.167 168.161 179.33 168.721 179.33C169.541 179.33 170.114 179.01 170.441 178.37H171.301C171.074 178.937 170.731 179.37 170.271 179.67C169.811 179.963 169.284 180.11 168.691 180.11C167.871 180.11 167.194 179.847 166.661 179.32C166.134 178.787 165.871 178.103 165.871 177.27C165.871 176.437 166.134 175.75 166.661 175.21C167.187 174.663 167.861 174.39 168.681 174.39ZM168.681 175.17C168.187 175.17 167.767 175.313 167.421 175.6C167.081 175.887 166.861 176.26 166.761 176.72H170.531C170.437 176.253 170.227 175.88 169.901 175.6C169.574 175.313 169.167 175.17 168.681 175.17ZM174.973 180.11C174.253 180.11 173.657 179.95 173.183 179.63C172.71 179.31 172.42 178.86 172.313 178.28H173.163C173.27 178.653 173.467 178.92 173.753 179.08C174.047 179.24 174.453 179.32 174.973 179.32C175.393 179.32 175.733 179.25 175.993 179.11C176.26 178.963 176.393 178.76 176.393 178.5C176.393 178.34 176.327 178.207 176.193 178.1C176.06 177.987 175.917 177.907 175.763 177.86C175.61 177.813 175.347 177.743 174.973 177.65C174.887 177.63 174.82 177.613 174.773 177.6C173.947 177.393 173.377 177.19 173.063 176.99C172.75 176.79 172.593 176.477 172.593 176.05C172.593 175.53 172.797 175.123 173.203 174.83C173.617 174.537 174.157 174.39 174.823 174.39C175.463 174.39 175.983 174.53 176.383 174.81C176.79 175.083 177.05 175.47 177.163 175.97H176.323C176.123 175.443 175.63 175.18 174.843 175.18C174.41 175.18 174.067 175.257 173.813 175.41C173.56 175.557 173.433 175.75 173.433 175.99C173.433 176.197 173.537 176.35 173.743 176.45C173.95 176.543 174.363 176.67 174.983 176.83C175.277 176.903 175.497 176.96 175.643 177C175.797 177.04 175.977 177.097 176.183 177.17C176.397 177.243 176.553 177.313 176.653 177.38C176.753 177.447 176.857 177.533 176.963 177.64C177.07 177.74 177.143 177.857 177.183 177.99C177.223 178.117 177.243 178.263 177.243 178.43C177.243 178.97 177.027 179.387 176.593 179.68C176.167 179.967 175.627 180.11 174.973 180.11ZM178.395 172.24C178.509 172.133 178.649 172.08 178.815 172.08C178.982 172.08 179.119 172.133 179.225 172.24C179.339 172.347 179.395 172.477 179.395 172.63C179.395 172.79 179.339 172.923 179.225 173.03C179.119 173.137 178.982 173.19 178.815 173.19C178.649 173.19 178.509 173.137 178.395 173.03C178.289 172.923 178.235 172.79 178.235 172.63C178.235 172.477 178.289 172.347 178.395 172.24ZM178.395 180V174.5H179.225V180H178.395ZM185.17 174.5H186V179.94C186 180.76 185.767 181.41 185.3 181.89C184.833 182.37 184.197 182.61 183.39 182.61C182.717 182.61 182.133 182.437 181.64 182.09C181.147 181.743 180.833 181.257 180.7 180.63H181.56C181.673 181.023 181.89 181.327 182.21 181.54C182.537 181.76 182.923 181.87 183.37 181.87C183.943 181.87 184.387 181.703 184.7 181.37C185.013 181.043 185.17 180.573 185.17 179.96V178.85C184.95 179.23 184.657 179.53 184.29 179.75C183.923 179.963 183.51 180.07 183.05 180.07C182.303 180.07 181.687 179.803 181.2 179.27C180.72 178.73 180.48 178.05 180.48 177.23C180.48 176.403 180.72 175.723 181.2 175.19C181.687 174.657 182.303 174.39 183.05 174.39C183.503 174.39 183.917 174.5 184.29 174.72C184.663 174.94 184.957 175.24 185.17 175.62V174.5ZM183.21 179.28C183.77 179.28 184.237 179.087 184.61 178.7C184.99 178.313 185.18 177.823 185.18 177.23C185.18 176.637 184.99 176.147 184.61 175.76C184.237 175.373 183.77 175.18 183.21 175.18C182.657 175.18 182.203 175.373 181.85 175.76C181.497 176.147 181.32 176.637 181.32 177.23C181.32 177.823 181.497 178.313 181.85 178.7C182.203 179.087 182.657 179.28 183.21 179.28ZM190.277 174.39C190.897 174.39 191.384 174.577 191.737 174.95C192.091 175.323 192.267 175.843 192.267 176.51V180H191.437V176.67C191.437 175.677 190.974 175.18 190.047 175.18C189.494 175.18 189.064 175.36 188.757 175.72C188.457 176.08 188.307 176.567 188.307 177.18V180H187.477V174.5H188.307V175.59C188.707 174.79 189.364 174.39 190.277 174.39ZM200.576 179.07L200.726 179.76C200.286 179.993 199.79 180.11 199.236 180.11C198.63 180.11 198.15 179.92 197.796 179.54C197.443 179.153 197.266 178.607 197.266 177.9V175.28H196.206V174.5H197.266V173.18L198.096 173V174.5H200.566V175.28H198.096V177.86C198.096 178.847 198.523 179.34 199.376 179.34C199.683 179.34 200.083 179.25 200.576 179.07ZM204.693 174.39C205.319 174.39 205.806 174.577 206.153 174.95C206.506 175.323 206.683 175.843 206.683 176.51V180H205.853V176.67C205.853 175.677 205.389 175.18 204.463 175.18C203.909 175.18 203.479 175.36 203.173 175.72C202.873 176.08 202.723 176.567 202.723 177.18V180H201.893V172.3H202.723V175.57C203.129 174.783 203.786 174.39 204.693 174.39ZM210.702 174.39C211.555 174.39 212.235 174.68 212.742 175.26C213.249 175.84 213.485 176.587 213.452 177.5H208.742C208.782 178.067 208.985 178.513 209.352 178.84C209.719 179.167 210.182 179.33 210.742 179.33C211.562 179.33 212.135 179.01 212.462 178.37H213.322C213.095 178.937 212.752 179.37 212.292 179.67C211.832 179.963 211.305 180.11 210.712 180.11C209.892 180.11 209.215 179.847 208.682 179.32C208.155 178.787 207.892 178.103 207.892 177.27C207.892 176.437 208.155 175.75 208.682 175.21C209.209 174.663 209.882 174.39 210.702 174.39ZM210.702 175.17C210.209 175.17 209.789 175.313 209.442 175.6C209.102 175.887 208.882 176.26 208.782 176.72H212.552C212.459 176.253 212.249 175.88 211.922 175.6C211.595 175.313 211.189 175.17 210.702 175.17ZM221.523 174.5H222.353V180H221.523V178.91C221.11 179.71 220.456 180.11 219.563 180.11C218.95 180.11 218.47 179.923 218.123 179.55C217.783 179.177 217.613 178.657 217.613 177.99V174.5H218.443V177.83C218.443 178.823 218.896 179.32 219.803 179.32C220.343 179.32 220.763 179.14 221.063 178.78C221.37 178.42 221.523 177.933 221.523 177.32V174.5ZM226.135 180.11C225.415 180.11 224.819 179.95 224.345 179.63C223.872 179.31 223.582 178.86 223.475 178.28H224.325C224.432 178.653 224.629 178.92 224.915 179.08C225.209 179.24 225.615 179.32 226.135 179.32C226.555 179.32 226.895 179.25 227.155 179.11C227.422 178.963 227.555 178.76 227.555 178.5C227.555 178.34 227.489 178.207 227.355 178.1C227.222 177.987 227.079 177.907 226.925 177.86C226.772 177.813 226.509 177.743 226.135 177.65C226.049 177.63 225.982 177.613 225.935 177.6C225.109 177.393 224.539 177.19 224.225 176.99C223.912 176.79 223.755 176.477 223.755 176.05C223.755 175.53 223.959 175.123 224.365 174.83C224.779 174.537 225.319 174.39 225.985 174.39C226.625 174.39 227.145 174.53 227.545 174.81C227.952 175.083 228.212 175.47 228.325 175.97H227.485C227.285 175.443 226.792 175.18 226.005 175.18C225.572 175.18 225.229 175.257 224.975 175.41C224.722 175.557 224.595 175.75 224.595 175.99C224.595 176.197 224.699 176.35 224.905 176.45C225.112 176.543 225.525 176.67 226.145 176.83C226.439 176.903 226.659 176.96 226.805 177C226.959 177.04 227.139 177.097 227.345 177.17C227.559 177.243 227.715 177.313 227.815 177.38C227.915 177.447 228.019 177.533 228.125 177.64C228.232 177.74 228.305 177.857 228.345 177.99C228.385 178.117 228.405 178.263 228.405 178.43C228.405 178.97 228.189 179.387 227.755 179.68C227.329 179.967 226.789 180.11 226.135 180.11ZM232.147 174.39C233.001 174.39 233.681 174.68 234.187 175.26C234.694 175.84 234.931 176.587 234.897 177.5H230.187C230.227 178.067 230.431 178.513 230.797 178.84C231.164 179.167 231.627 179.33 232.187 179.33C233.007 179.33 233.581 179.01 233.907 178.37H234.767C234.541 178.937 234.197 179.37 233.737 179.67C233.277 179.963 232.751 180.11 232.157 180.11C231.337 180.11 230.661 179.847 230.127 179.32C229.601 178.787 229.337 178.103 229.337 177.27C229.337 176.437 229.601 175.75 230.127 175.21C230.654 174.663 231.327 174.39 232.147 174.39ZM232.147 175.17C231.654 175.17 231.234 175.313 230.887 175.6C230.547 175.887 230.327 176.26 230.227 176.72H233.997C233.904 176.253 233.694 175.88 233.367 175.6C233.041 175.313 232.634 175.17 232.147 175.17ZM238.9 174.39C239.02 174.39 239.133 174.397 239.24 174.41V175.26C239.12 175.247 239.003 175.24 238.89 175.24C238.297 175.24 237.823 175.43 237.47 175.81C237.117 176.183 236.94 176.713 236.94 177.4V180H236.11V174.5H236.94V175.73C237.3 174.837 237.953 174.39 238.9 174.39ZM243.239 172.24C243.352 172.133 243.492 172.08 243.659 172.08C243.826 172.08 243.962 172.133 244.069 172.24C244.182 172.347 244.239 172.477 244.239 172.63C244.239 172.79 244.182 172.923 244.069 173.03C243.962 173.137 243.826 173.19 243.659 173.19C243.492 173.19 243.352 173.137 243.239 173.03C243.132 172.923 243.079 172.79 243.079 172.63C243.079 172.477 243.132 172.347 243.239 172.24ZM243.239 180V174.5H244.069V180H243.239ZM248.344 174.39C248.964 174.39 249.45 174.577 249.804 174.95C250.157 175.323 250.334 175.843 250.334 176.51V180H249.504V176.67C249.504 175.677 249.04 175.18 248.114 175.18C247.56 175.18 247.13 175.36 246.824 175.72C246.524 176.08 246.374 176.567 246.374 177.18V180H245.544V174.5H246.374V175.59C246.774 174.79 247.43 174.39 248.344 174.39ZM255.527 179.07L255.677 179.76C255.237 179.993 254.741 180.11 254.187 180.11C253.581 180.11 253.101 179.92 252.747 179.54C252.394 179.153 252.217 178.607 252.217 177.9V175.28H251.157V174.5H252.217V173.18L253.047 173V174.5H255.517V175.28H253.047V177.86C253.047 178.847 253.474 179.34 254.327 179.34C254.634 179.34 255.034 179.25 255.527 179.07ZM259.14 174.39C259.993 174.39 260.673 174.68 261.18 175.26C261.686 175.84 261.923 176.587 261.89 177.5H257.18C257.22 178.067 257.423 178.513 257.79 178.84C258.156 179.167 258.62 179.33 259.18 179.33C260 179.33 260.573 179.01 260.9 178.37H261.76C261.533 178.937 261.19 179.37 260.73 179.67C260.27 179.963 259.743 180.11 259.15 180.11C258.33 180.11 257.653 179.847 257.12 179.32C256.593 178.787 256.33 178.103 256.33 177.27C256.33 176.437 256.593 175.75 257.12 175.21C257.646 174.663 258.32 174.39 259.14 174.39ZM259.14 175.17C258.646 175.17 258.226 175.313 257.88 175.6C257.54 175.887 257.32 176.26 257.22 176.72H260.99C260.896 176.253 260.686 175.88 260.36 175.6C260.033 175.313 259.626 175.17 259.14 175.17ZM265.892 174.39C266.012 174.39 266.126 174.397 266.232 174.41V175.26C266.112 175.247 265.996 175.24 265.882 175.24C265.289 175.24 264.816 175.43 264.462 175.81C264.109 176.183 263.932 176.713 263.932 177.4V180H263.102V174.5H263.932V175.73C264.292 174.837 264.946 174.39 265.892 174.39ZM270.031 172.93C269.158 172.93 268.721 173.443 268.721 174.47V174.5H270.951V175.28H268.721V180H267.891V175.28H266.831V174.5H267.891V174.43C267.891 173.723 268.078 173.173 268.451 172.78C268.825 172.387 269.321 172.19 269.941 172.19C270.381 172.19 270.775 172.267 271.121 172.42L270.971 173.11L270.831 173.07C270.578 172.977 270.311 172.93 270.031 172.93ZM276.283 174.5H277.113V180H276.283V178.89C276.063 179.27 275.77 179.57 275.403 179.79C275.043 180.003 274.63 180.11 274.163 180.11C273.417 180.11 272.8 179.843 272.313 179.31C271.833 178.77 271.593 178.083 271.593 177.25C271.593 176.417 271.833 175.733 272.313 175.2C272.8 174.66 273.417 174.39 274.163 174.39C274.63 174.39 275.047 174.5 275.413 174.72C275.78 174.94 276.07 175.243 276.283 175.63V174.5ZM274.323 179.32C274.89 179.32 275.36 179.127 275.733 178.74C276.107 178.347 276.293 177.85 276.293 177.25C276.293 176.65 276.107 176.157 275.733 175.77C275.36 175.377 274.89 175.18 274.323 175.18C273.763 175.18 273.307 175.377 272.953 175.77C272.607 176.157 272.433 176.65 272.433 177.25C272.433 177.857 272.61 178.353 272.963 178.74C273.317 179.127 273.77 179.32 274.323 179.32ZM281.211 180.11C280.404 180.11 279.727 179.84 279.181 179.3C278.641 178.753 278.371 178.07 278.371 177.25C278.371 176.43 278.641 175.75 279.181 175.21C279.727 174.663 280.404 174.39 281.211 174.39C281.864 174.39 282.437 174.573 282.931 174.94C283.424 175.307 283.741 175.8 283.881 176.42H283.021C282.894 176.033 282.667 175.727 282.341 175.5C282.014 175.273 281.637 175.16 281.211 175.16C280.631 175.16 280.151 175.357 279.771 175.75C279.397 176.143 279.211 176.643 279.211 177.25C279.211 177.857 279.397 178.357 279.771 178.75C280.151 179.143 280.631 179.34 281.211 179.34C281.637 179.34 282.011 179.227 282.331 179C282.657 178.773 282.887 178.467 283.021 178.08H283.881C283.734 178.707 283.414 179.203 282.921 179.57C282.427 179.93 281.857 180.11 281.211 180.11ZM287.626 174.39C288.479 174.39 289.159 174.68 289.666 175.26C290.173 175.84 290.409 176.587 290.376 177.5H285.666C285.706 178.067 285.909 178.513 286.276 178.84C286.643 179.167 287.106 179.33 287.666 179.33C288.486 179.33 289.059 179.01 289.386 178.37H290.246C290.019 178.937 289.676 179.37 289.216 179.67C288.756 179.963 288.229 180.11 287.636 180.11C286.816 180.11 286.139 179.847 285.606 179.32C285.079 178.787 284.816 178.103 284.816 177.27C284.816 176.437 285.079 175.75 285.606 175.21C286.133 174.663 286.806 174.39 287.626 174.39ZM287.626 175.17C287.133 175.17 286.713 175.313 286.366 175.6C286.026 175.887 285.806 176.26 285.706 176.72H289.476C289.383 176.253 289.173 175.88 288.846 175.6C288.519 175.313 288.113 175.17 287.626 175.17ZM114.643 186.39C115.436 186.39 116.106 186.663 116.653 187.21C117.206 187.75 117.483 188.43 117.483 189.25C117.483 190.07 117.21 190.753 116.663 191.3C116.116 191.84 115.443 192.11 114.643 192.11C113.85 192.11 113.18 191.837 112.633 191.29C112.086 190.743 111.813 190.063 111.813 189.25C111.813 188.437 112.086 187.757 112.633 187.21C113.186 186.663 113.856 186.39 114.643 186.39ZM116.063 187.77C115.676 187.377 115.203 187.18 114.643 187.18C114.083 187.18 113.61 187.377 113.223 187.77C112.843 188.157 112.653 188.65 112.653 189.25C112.653 189.85 112.843 190.347 113.223 190.74C113.61 191.127 114.083 191.32 114.643 191.32C115.21 191.32 115.683 191.127 116.063 190.74C116.45 190.347 116.643 189.85 116.643 189.25C116.643 188.65 116.45 188.157 116.063 187.77ZM121.452 184.93C120.579 184.93 120.142 185.443 120.142 186.47V186.5H122.372V187.28H120.142V192H119.312V187.28H118.252V186.5H119.312V186.43C119.312 185.723 119.499 185.173 119.872 184.78C120.246 184.387 120.742 184.19 121.362 184.19C121.802 184.19 122.196 184.267 122.542 184.42L122.392 185.11L122.252 185.07C121.999 184.977 121.732 184.93 121.452 184.93ZM130.386 191.07L130.536 191.76C130.096 191.993 129.599 192.11 129.046 192.11C128.439 192.11 127.959 191.92 127.606 191.54C127.253 191.153 127.076 190.607 127.076 189.9V187.28H126.016V186.5H127.076V185.18L127.906 185V186.5H130.376V187.28H127.906V189.86C127.906 190.847 128.333 191.34 129.186 191.34C129.493 191.34 129.893 191.25 130.386 191.07ZM134.502 186.39C135.129 186.39 135.615 186.577 135.962 186.95C136.315 187.323 136.492 187.843 136.492 188.51V192H135.662V188.67C135.662 187.677 135.199 187.18 134.272 187.18C133.719 187.18 133.289 187.36 132.982 187.72C132.682 188.08 132.532 188.567 132.532 189.18V192H131.702V184.3H132.532V187.57C132.939 186.783 133.595 186.39 134.502 186.39ZM140.512 186.39C141.365 186.39 142.045 186.68 142.552 187.26C143.058 187.84 143.295 188.587 143.262 189.5H138.552C138.592 190.067 138.795 190.513 139.162 190.84C139.528 191.167 139.992 191.33 140.552 191.33C141.372 191.33 141.945 191.01 142.272 190.37H143.132C142.905 190.937 142.562 191.37 142.102 191.67C141.642 191.963 141.115 192.11 140.522 192.11C139.702 192.11 139.025 191.847 138.492 191.32C137.965 190.787 137.702 190.103 137.702 189.27C137.702 188.437 137.965 187.75 138.492 187.21C139.018 186.663 139.692 186.39 140.512 186.39ZM140.512 187.17C140.018 187.17 139.598 187.313 139.252 187.6C138.912 187.887 138.692 188.26 138.592 188.72H142.362C142.268 188.253 142.058 187.88 141.732 187.6C141.405 187.313 140.998 187.17 140.512 187.17ZM147.612 192V185H148.442V192H147.612ZM152.86 186.39C153.48 186.39 153.967 186.577 154.32 186.95C154.674 187.323 154.85 187.843 154.85 188.51V192H154.02V188.67C154.02 187.677 153.557 187.18 152.63 187.18C152.077 187.18 151.647 187.36 151.34 187.72C151.04 188.08 150.89 188.567 150.89 189.18V192H150.06V186.5H150.89V187.59C151.29 186.79 151.947 186.39 152.86 186.39ZM160.044 191.07L160.194 191.76C159.754 191.993 159.257 192.11 158.704 192.11C158.097 192.11 157.617 191.92 157.264 191.54C156.911 191.153 156.734 190.607 156.734 189.9V187.28H155.674V186.5H156.734V185.18L157.564 185V186.5H160.034V187.28H157.564V189.86C157.564 190.847 157.991 191.34 158.844 191.34C159.151 191.34 159.551 191.25 160.044 191.07ZM163.656 186.39C164.51 186.39 165.19 186.68 165.696 187.26C166.203 187.84 166.44 188.587 166.406 189.5H161.696C161.736 190.067 161.94 190.513 162.306 190.84C162.673 191.167 163.136 191.33 163.696 191.33C164.516 191.33 165.09 191.01 165.416 190.37H166.276C166.05 190.937 165.706 191.37 165.246 191.67C164.786 191.963 164.26 192.11 163.666 192.11C162.846 192.11 162.17 191.847 161.636 191.32C161.11 190.787 160.846 190.103 160.846 189.27C160.846 188.437 161.11 187.75 161.636 187.21C162.163 186.663 162.836 186.39 163.656 186.39ZM163.656 187.17C163.163 187.17 162.743 187.313 162.396 187.6C162.056 187.887 161.836 188.26 161.736 188.72H165.506C165.413 188.253 165.203 187.88 164.876 187.6C164.55 187.313 164.143 187.17 163.656 187.17ZM170.409 186.39C170.529 186.39 170.642 186.397 170.749 186.41V187.26C170.629 187.247 170.512 187.24 170.399 187.24C169.806 187.24 169.332 187.43 168.979 187.81C168.626 188.183 168.449 188.713 168.449 189.4V192H167.619V186.5H168.449V187.73C168.809 186.837 169.462 186.39 170.409 186.39ZM174.548 184.93C173.675 184.93 173.238 185.443 173.238 186.47V186.5H175.468V187.28H173.238V192H172.408V187.28H171.348V186.5H172.408V186.43C172.408 185.723 172.595 185.173 172.968 184.78C173.341 184.387 173.838 184.19 174.458 184.19C174.898 184.19 175.291 184.267 175.638 184.42L175.488 185.11L175.348 185.07C175.095 184.977 174.828 184.93 174.548 184.93ZM180.8 186.5H181.63V192H180.8V190.89C180.58 191.27 180.287 191.57 179.92 191.79C179.56 192.003 179.147 192.11 178.68 192.11C177.933 192.11 177.317 191.843 176.83 191.31C176.35 190.77 176.11 190.083 176.11 189.25C176.11 188.417 176.35 187.733 176.83 187.2C177.317 186.66 177.933 186.39 178.68 186.39C179.147 186.39 179.563 186.5 179.93 186.72C180.297 186.94 180.587 187.243 180.8 187.63V186.5ZM178.84 191.32C179.407 191.32 179.877 191.127 180.25 190.74C180.623 190.347 180.81 189.85 180.81 189.25C180.81 188.65 180.623 188.157 180.25 187.77C179.877 187.377 179.407 187.18 178.84 187.18C178.28 187.18 177.823 187.377 177.47 187.77C177.123 188.157 176.95 188.65 176.95 189.25C176.95 189.857 177.127 190.353 177.48 190.74C177.833 191.127 178.287 191.32 178.84 191.32ZM185.727 192.11C184.921 192.11 184.244 191.84 183.697 191.3C183.157 190.753 182.887 190.07 182.887 189.25C182.887 188.43 183.157 187.75 183.697 187.21C184.244 186.663 184.921 186.39 185.727 186.39C186.381 186.39 186.954 186.573 187.447 186.94C187.941 187.307 188.257 187.8 188.397 188.42H187.537C187.411 188.033 187.184 187.727 186.857 187.5C186.531 187.273 186.154 187.16 185.727 187.16C185.147 187.16 184.667 187.357 184.287 187.75C183.914 188.143 183.727 188.643 183.727 189.25C183.727 189.857 183.914 190.357 184.287 190.75C184.667 191.143 185.147 191.34 185.727 191.34C186.154 191.34 186.527 191.227 186.847 191C187.174 190.773 187.404 190.467 187.537 190.08H188.397C188.251 190.707 187.931 191.203 187.437 191.57C186.944 191.93 186.374 192.11 185.727 192.11ZM192.143 186.39C192.996 186.39 193.676 186.68 194.183 187.26C194.689 187.84 194.926 188.587 194.893 189.5H190.183C190.223 190.067 190.426 190.513 190.793 190.84C191.159 191.167 191.623 191.33 192.183 191.33C193.003 191.33 193.576 191.01 193.903 190.37H194.763C194.536 190.937 194.193 191.37 193.733 191.67C193.273 191.963 192.746 192.11 192.153 192.11C191.333 192.11 190.656 191.847 190.123 191.32C189.596 190.787 189.333 190.103 189.333 189.27C189.333 188.437 189.596 187.75 190.123 187.21C190.649 186.663 191.323 186.39 192.143 186.39ZM192.143 187.17C191.649 187.17 191.229 187.313 190.883 187.6C190.543 187.887 190.323 188.26 190.223 188.72H193.993C193.899 188.253 193.689 187.88 193.363 187.6C193.036 187.313 192.629 187.17 192.143 187.17ZM199.205 188.36H202.925V192H202.195V190.36C202.022 190.893 201.692 191.32 201.205 191.64C200.719 191.953 200.145 192.11 199.485 192.11C198.479 192.11 197.635 191.767 196.955 191.08C196.282 190.393 195.945 189.533 195.945 188.5C195.945 187.46 196.289 186.6 196.975 185.92C197.662 185.233 198.519 184.89 199.545 184.89C200.332 184.89 201.022 185.1 201.615 185.52C202.209 185.933 202.625 186.493 202.865 187.2H201.975C201.762 186.733 201.439 186.363 201.005 186.09C200.572 185.817 200.082 185.68 199.535 185.68C198.742 185.68 198.085 185.95 197.565 186.49C197.045 187.023 196.785 187.7 196.785 188.52C196.785 189.327 197.042 190 197.555 190.54C198.069 191.073 198.729 191.34 199.535 191.34C200.235 191.34 200.819 191.133 201.285 190.72C201.759 190.307 202.025 189.757 202.085 189.07H199.205V188.36ZM207.074 186.39C207.927 186.39 208.607 186.68 209.114 187.26C209.621 187.84 209.857 188.587 209.824 189.5H205.114C205.154 190.067 205.357 190.513 205.724 190.84C206.091 191.167 206.554 191.33 207.114 191.33C207.934 191.33 208.507 191.01 208.834 190.37H209.694C209.467 190.937 209.124 191.37 208.664 191.67C208.204 191.963 207.677 192.11 207.084 192.11C206.264 192.11 205.587 191.847 205.054 191.32C204.527 190.787 204.264 190.103 204.264 189.27C204.264 188.437 204.527 187.75 205.054 187.21C205.581 186.663 206.254 186.39 207.074 186.39ZM207.074 187.17C206.581 187.17 206.161 187.313 205.814 187.6C205.474 187.887 205.254 188.26 205.154 188.72H208.924C208.831 188.253 208.621 187.88 208.294 187.6C207.967 187.313 207.561 187.17 207.074 187.17ZM213.837 186.39C214.457 186.39 214.944 186.577 215.297 186.95C215.65 187.323 215.827 187.843 215.827 188.51V192H214.997V188.67C214.997 187.677 214.534 187.18 213.607 187.18C213.054 187.18 212.624 187.36 212.317 187.72C212.017 188.08 211.867 188.567 211.867 189.18V192H211.037V186.5H211.867V187.59C212.267 186.79 212.924 186.39 213.837 186.39ZM217.248 184.24C217.361 184.133 217.501 184.08 217.668 184.08C217.834 184.08 217.971 184.133 218.078 184.24C218.191 184.347 218.248 184.477 218.248 184.63C218.248 184.79 218.191 184.923 218.078 185.03C217.971 185.137 217.834 185.19 217.668 185.19C217.501 185.19 217.361 185.137 217.248 185.03C217.141 184.923 217.088 184.79 217.088 184.63C217.088 184.477 217.141 184.347 217.248 184.24ZM217.248 192V186.5H218.078V192H217.248ZM223.413 186.5H224.243V192H223.413V190.91C222.999 191.71 222.346 192.11 221.452 192.11C220.839 192.11 220.359 191.923 220.013 191.55C219.673 191.177 219.503 190.657 219.503 189.99V186.5H220.333V189.83C220.333 190.823 220.786 191.32 221.693 191.32C222.233 191.32 222.653 191.14 222.953 190.78C223.259 190.42 223.413 189.933 223.413 189.32V186.5ZM228.025 192.11C227.305 192.11 226.708 191.95 226.235 191.63C225.762 191.31 225.472 190.86 225.365 190.28H226.215C226.322 190.653 226.518 190.92 226.805 191.08C227.098 191.24 227.505 191.32 228.025 191.32C228.445 191.32 228.785 191.25 229.045 191.11C229.312 190.963 229.445 190.76 229.445 190.5C229.445 190.34 229.378 190.207 229.245 190.1C229.112 189.987 228.968 189.907 228.815 189.86C228.662 189.813 228.398 189.743 228.025 189.65C227.938 189.63 227.872 189.613 227.825 189.6C226.998 189.393 226.428 189.19 226.115 188.99C225.802 188.79 225.645 188.477 225.645 188.05C225.645 187.53 225.848 187.123 226.255 186.83C226.668 186.537 227.208 186.39 227.875 186.39C228.515 186.39 229.035 186.53 229.435 186.81C229.842 187.083 230.102 187.47 230.215 187.97H229.375C229.175 187.443 228.682 187.18 227.895 187.18C227.462 187.18 227.118 187.257 226.865 187.41C226.612 187.557 226.485 187.75 226.485 187.99C226.485 188.197 226.588 188.35 226.795 188.45C227.002 188.543 227.415 188.67 228.035 188.83C228.328 188.903 228.548 188.96 228.695 189C228.848 189.04 229.028 189.097 229.235 189.17C229.448 189.243 229.605 189.313 229.705 189.38C229.805 189.447 229.908 189.533 230.015 189.64C230.122 189.74 230.195 189.857 230.235 189.99C230.275 190.117 230.295 190.263 230.295 190.43C230.295 190.97 230.078 191.387 229.645 191.68C229.218 191.967 228.678 192.11 228.025 192.11Z" fill="#48494B"/>
<defs>
<clipPath id="clip0_1067_2174">
<rect width="156" height="136" fill="white" transform="translate(93 22)"/>
</clipPath>
</defs>
</svg>
