<svg width="358" height="312" viewBox="0 0 358 312" fill="none" xmlns="http://www.w3.org/2000/svg">
<g clip-path="url(#clip0_885_362)">
<path d="M250.166 307.359L244.752 307.358L242.176 286.472L250.167 286.473L250.166 307.359Z" fill="#FFB6B6"/>
<path d="M231.617 307.236C231.448 307.52 231.359 308.437 231.359 308.767C231.359 309.782 232.182 310.605 233.197 310.605H249.963C250.656 310.605 251.217 310.043 251.217 309.351V308.653C251.217 308.653 252.046 306.554 250.339 303.968C250.339 303.968 248.216 305.993 245.045 302.821L244.11 301.127L237.34 306.079L233.588 306.541C232.767 306.642 232.039 306.525 231.617 307.236Z" fill="#2F2E41"/>
<path d="M307.319 300.585L302.371 302.785L291.534 284.746L298.836 281.5L307.319 300.585Z" fill="#FFB6B6"/>
<path d="M290.319 308.01C290.281 308.338 290.572 309.212 290.706 309.513C291.118 310.441 292.204 310.858 293.131 310.446L308.452 303.634C309.085 303.352 309.37 302.611 309.088 301.979L308.805 301.341C308.805 301.341 308.71 299.086 306.1 297.417C306.1 297.417 304.983 300.13 300.797 298.52L299.254 297.352L295.079 304.627L291.838 306.574C291.129 306.999 290.416 307.189 290.319 308.01Z" fill="#2F2E41"/>
<path d="M238.4 176.669L233.586 186.78L241.769 291.733H252.003L256.21 222.887L292.938 291.733H305.491L286.536 242.626L273.539 178.595L238.4 176.669Z" fill="#2F2E41"/>
<path d="M264.173 111.833H251.48L246.825 119.138L236.325 124.161L238.608 155.666L237.462 178.638L239.032 178.592C250.234 178.265 261.43 180.087 271.826 184.274C274.493 185.348 277.289 185.947 279.695 185.345C279.695 185.345 278.782 181.692 277.869 180.779C276.956 179.866 276.5 179.111 276.956 178.575C277.413 178.04 278.326 177.583 277.413 176.67C276.5 175.757 276.5 174.606 276.5 174.606L273.761 154.296L279.239 125.531L267.826 119.138L264.173 111.833Z" fill="#3F3D56"/>
<path d="M285.985 151.662L285.639 178.607L278.936 202.626L273.577 200.627L275.957 178.611L275.644 148.817L285.985 151.662Z" fill="#FFB6B6"/>
<path d="M278.913 206.499C279.542 203.045 278.389 199.943 276.339 199.57C274.288 199.196 272.117 201.693 271.488 205.147C270.859 208.601 272.012 211.704 274.062 212.077C276.112 212.45 278.284 209.953 278.913 206.499Z" fill="#FFB6B6"/>
<path d="M276.5 124.16C276.5 124.16 284.063 125.332 284.162 131.824C284.261 138.315 291.565 148.817 287 157.035L275.13 158.862L268.739 135.575L276.043 123.247" fill="#3F3D56"/>
<path d="M241.978 146.917L226.905 169.253L208.123 185.654L204.74 181.042L218.808 163.942L234.893 138.863L241.978 146.917Z" fill="#FFB6B6"/>
<path d="M205.979 188.879C208.399 186.337 209.138 183.111 207.629 181.673C206.119 180.236 202.934 181.131 200.513 183.674C198.092 186.216 197.354 189.442 198.863 190.88C200.372 192.317 203.558 191.421 205.979 188.879Z" fill="#FFB6B6"/>
<path d="M249.137 118.72C249.137 118.72 254.817 123.851 251.338 129.332C247.859 134.813 248.204 147.601 239.878 151.966L228.953 146.979C229.873 137.974 230.41 128.639 236.386 124.003L249.256 117.706" fill="#3F3D56"/>
<path d="M255.857 109.95C262.13 109.95 267.215 104.865 267.215 98.5911C267.215 92.3176 262.13 87.2319 255.857 87.2319C249.585 87.2319 244.5 92.3176 244.5 98.5911C244.5 104.865 249.585 109.95 255.857 109.95Z" fill="#FFB6B6"/>
<path d="M264.199 107.924C264.824 108.031 265.559 106.515 266.261 105.037C267.73 101.945 268.664 99.9798 268.735 97.2014C268.795 94.8334 268.138 95.4549 267.498 90.1901C267.287 88.4537 264.321 88.457 263.717 87.6325C262.697 86.2397 264.262 85.6653 261.725 84.8286C256.973 83.2615 254.824 85.696 251.806 85.9057C251.729 85.911 250.233 87.3743 249.398 87.45C247.934 87.5826 245.822 87.3545 244.875 85.1237C243.99 83.0379 243.403 89.1331 244.195 89.8874C244.866 90.5279 246.025 92.1354 246.055 92.2523C246.088 92.3846 243.299 89.2946 242.834 90.568C242.499 91.4844 243.553 96.1993 244.405 96.3765C245.118 96.5247 246.86 94.176 246.467 95.1392C245.555 97.3733 251.038 98.7987 257.601 94.3144C257.834 94.1554 257.614 94.409 258.426 96.3765C259.45 98.858 259.681 98.9924 259.663 99.6759C259.624 101.155 258.513 101.591 258.838 102.563C259.101 103.35 260.129 103.959 260.9 103.8C261.77 103.621 261.919 102.544 262.549 102.563C263.089 102.579 263.729 103.392 263.786 104.213C263.907 105.941 261.348 106.416 260.9 108.749C260.647 110.066 263.624 107.826 264.199 107.924Z" fill="#2F2E41"/>
<path d="M173.955 311.122H76.3648C61.7275 311.122 49.8191 299.212 49.8191 284.572V26.5497C49.8191 11.9102 61.7275 0 76.3648 0H173.955C188.592 0 200.5 11.9102 200.5 26.5497C202.317 130.163 205.415 246.195 200.5 284.572C200.5 299.212 188.592 311.122 173.955 311.122Z" fill="#3F3D56"/>
<path d="M201.862 94.9092C201.242 94.9092 200.739 95.4129 200.739 96.0324V131.974C200.739 132.594 201.242 133.097 201.862 133.097C202.481 133.097 202.985 132.594 202.985 131.974V96.0324C202.985 95.4129 202.481 94.9092 201.862 94.9092Z" fill="#3F3D56"/>
<path d="M197.974 26.5498V284.567C197.974 297.31 188.058 307.733 175.519 308.542H175.514C175.328 308.553 175.143 308.564 174.952 308.57C174.621 308.587 174.29 308.592 173.953 308.592C173.953 308.592 172.717 308.502 170.46 308.334C168.18 308.165 164.862 307.913 160.724 307.581C159.483 307.486 158.174 307.379 156.793 307.267C154.042 307.042 151.021 306.795 147.781 306.514C146.489 306.408 145.153 306.29 143.789 306.172C136.815 305.571 129.004 304.869 120.767 304.072C119.374 303.942 117.971 303.808 116.555 303.667C116.185 303.628 52.3462 287.578 52.3462 284.567V26.5498C52.3462 13.2794 63.0991 2.5249 76.3675 2.5249H90.7084C92.9993 2.5249 94.8411 4.31076 95.0376 6.59644C95.0544 6.74809 95.0713 6.89969 95.0994 7.05133C95.5149 9.34825 97.6205 10.9488 99.9564 10.9488H150.364C152.7 10.9488 154.805 9.34825 155.221 7.05133C155.249 6.89969 155.266 6.74809 155.283 6.59644C155.479 4.31076 157.321 2.5249 159.612 2.5249H173.953C187.221 2.5249 197.974 13.2794 197.974 26.5498Z" fill="#F1F1EF"/>
<path d="M49.2578 67.9526C48.6384 67.9526 48.1348 68.4564 48.1348 69.0758V78.0613C48.1348 78.6807 48.6384 79.1845 49.2578 79.1845C49.8771 79.1845 50.3808 78.6807 50.3808 78.0613V69.0758C50.3808 68.4564 49.8771 67.9526 49.2578 67.9526Z" fill="#3F3D56"/>
<path d="M49.2578 94.9092C48.6384 94.9092 48.1348 95.4129 48.1348 96.0324V113.442C48.1348 114.061 48.6384 114.565 49.2578 114.565C49.8771 114.565 50.3808 114.061 50.3808 113.442V96.0324C50.3808 95.4129 49.8771 94.9092 49.2578 94.9092Z" fill="#3F3D56"/>
<path d="M49.2578 119.619C48.6384 119.619 48.1348 120.123 48.1348 120.742V138.152C48.1348 138.771 48.6384 139.275 49.2578 139.275C49.8771 139.275 50.3808 138.771 50.3808 138.152V120.742C50.3808 120.123 49.8771 119.619 49.2578 119.619Z" fill="#3F3D56"/>
<path d="M90.3176 6.4585H68.841C68.7244 6.4585 68.6299 6.55301 68.6299 6.6696V9.05535C68.6299 9.17194 68.7244 9.26646 68.841 9.26646H90.3176C90.4342 9.26646 90.5287 9.17194 90.5287 9.05535V6.6696C90.5287 6.55301 90.4342 6.4585 90.3176 6.4585Z" fill="#E6E6E6"/>
<path d="M163.161 9.26617C164.401 9.26617 165.407 8.26044 165.407 7.0198C165.407 5.77917 164.401 4.77344 163.161 4.77344C161.92 4.77344 160.915 5.77917 160.915 7.0198C160.915 8.26044 161.92 9.26617 163.161 9.26617Z" fill="#E6E6E6"/>
<path d="M169.337 9.26617C170.578 9.26617 171.583 8.26044 171.583 7.0198C171.583 5.77917 170.578 4.77344 169.337 4.77344C168.097 4.77344 167.091 5.77917 167.091 7.0198C167.091 8.26044 168.097 9.26617 169.337 9.26617Z" fill="#E6E6E6"/>
<path d="M175.514 9.26617C176.754 9.26617 177.76 8.26044 177.76 7.0198C177.76 5.77917 176.754 4.77344 175.514 4.77344C174.273 4.77344 173.268 5.77917 173.268 7.0198C173.268 8.26044 174.273 9.26617 175.514 9.26617Z" fill="#E6E6E6"/>
<path d="M0.5 311.19C0.5 311.639 0.860647 312 1.30975 312H356.69C357.139 312 357.5 311.639 357.5 311.19C357.5 310.741 357.139 310.38 356.69 310.38H1.30975C0.860647 310.38 0.5 310.741 0.5 311.19Z" fill="#CCCCCC"/>
<rect x="93.1526" y="32.98" width="65.956" height="4.18792" rx="2.09396" fill="#3F3D56"/>
<rect x="91.0586" y="48.6846" width="72.2375" height="93.1812" rx="4" fill="#BABAC2" fill-opacity="0.5"/>
<rect x="100.481" y="113.597" width="27.2199" height="2.09396" rx="1.04698" fill="#3F3D56" fill-opacity="0.5"/>
<rect x="100.481" y="132.443" width="12.563" height="2.09396" rx="1.04698" fill="#3F3D56" fill-opacity="0.8"/>
<rect x="100.481" y="119.879" width="41.8768" height="2.09396" rx="1.04698" fill="#3F3D56" fill-opacity="0.5"/>
<rect x="100.481" y="123.02" width="37.6891" height="2.09396" rx="1.04698" fill="#3F3D56" fill-opacity="0.5"/>
<rect x="100.481" y="126.161" width="43.9707" height="2.09396" rx="1.04698" fill="#3F3D56" fill-opacity="0.5"/>
<rect x="100.981" y="56.5137" width="52.393" height="52.396" rx="1.5" stroke="#3F3D56"/>
<line y1="-0.5" x2="70.9347" y2="-0.5" transform="matrix(0.707087 0.707127 -0.707087 0.707127 101.528 57.6318)" stroke="#3F3D56"/>
<line y1="-0.5" x2="70.9347" y2="-0.5" transform="matrix(-0.707087 0.707127 -0.707087 -0.707127 151.78 57.6318)" stroke="#3F3D56"/>
<rect x="91.0586" y="158.618" width="72.2375" height="93.1812" rx="4" fill="#BABAC2" fill-opacity="0.5"/>
<rect x="100.481" y="223.53" width="27.2199" height="2.09396" rx="1.04698" fill="#3F3D56" fill-opacity="0.5"/>
<rect x="141.311" y="223.53" width="12.563" height="2.09396" rx="1.04698" fill="#3F3D56" fill-opacity="0.8"/>
<rect x="100.481" y="229.812" width="41.8768" height="2.09396" rx="1.04698" fill="#3F3D56" fill-opacity="0.5"/>
<rect x="100.481" y="232.953" width="37.6891" height="2.09396" rx="1.04698" fill="#3F3D56" fill-opacity="0.5"/>
<rect x="100.481" y="236.094" width="43.9707" height="2.09396" rx="1.04698" fill="#3F3D56" fill-opacity="0.5"/>
<rect x="100.981" y="166.447" width="52.393" height="52.396" rx="1.5" stroke="#3F3D56"/>
<line y1="-0.5" x2="70.9347" y2="-0.5" transform="matrix(0.707087 0.707127 -0.707087 0.707127 101.528 167.565)" stroke="#3F3D56"/>
<line y1="-0.5" x2="70.9347" y2="-0.5" transform="matrix(-0.707087 0.707127 -0.707087 -0.707127 151.78 167.565)" stroke="#3F3D56"/>
</g>
<defs>
<clipPath id="clip0_885_362">
<rect width="357" height="312" fill="white" transform="translate(0.5)"/>
</clipPath>
</defs>
</svg>
