<svg width="19" height="28" viewBox="0 0 19 28" fill="none" xmlns="http://www.w3.org/2000/svg">
<path d="M9.17139 13.9849C9.17139 11.4553 11.2222 9.39404 13.7623 9.39404C16.2919 9.39404 18.3531 11.4448 18.3531 13.9849C18.3531 16.5146 16.3023 18.5758 13.7623 18.5758C11.2326 18.5758 9.17139 16.5146 9.17139 13.9849Z" fill="#1ABCFE"/>
<path d="M0 23.1563C0 20.6266 2.0508 18.5654 4.59088 18.5654H9.18176V23.1563C9.18176 25.686 7.13096 27.7472 4.59088 27.7472C2.0508 27.7472 0 25.6964 0 23.1563Z" fill="#0ACF83"/>
<path d="M9.17139 0.222813V9.39416H13.7623C16.2919 9.39416 18.3531 7.34336 18.3531 4.80328C18.3531 2.27361 16.3023 0.212402 13.7623 0.212402H9.17139V0.222813Z" fill="#FF7262"/>
<path d="M0 4.81354C0 7.34321 2.0508 9.40442 4.59088 9.40442H9.18176V0.222656H4.59088C2.0508 0.222656 0 2.27346 0 4.81354Z" fill="#F24E1E"/>
<path d="M0 13.9849C0 16.5146 2.0508 18.5758 4.59088 18.5758H9.18176V9.39404H4.59088C2.0508 9.39404 0 11.4553 0 13.9849Z" fill="#A259FF"/>
</svg>
