<svg width="74" height="72" viewBox="0 0 74 72" fill="none" xmlns="http://www.w3.org/2000/svg">
<g clip-path="url(#clip0_1750_786)">
<path d="M36.8569 0C16.504 0 0 16.5041 0 36.8635C0 53.151 10.5606 66.9689 25.2051 71.8434C27.047 72.1845 27.7234 71.0437 27.7234 70.0699C27.7234 69.191 27.689 66.2869 27.6734 63.2067C17.4195 65.4366 15.2559 58.8572 15.2559 58.8572C13.5793 54.5963 11.1636 53.4635 11.1636 53.4635C7.81972 51.1755 11.4157 51.2223 11.4157 51.2223C15.1168 51.4825 17.0657 55.0213 17.0657 55.0213C20.3529 60.657 25.6878 59.0275 27.791 58.0859C28.1217 55.703 29.0771 54.077 30.131 53.1565C21.9448 52.2241 13.3388 49.0632 13.3388 34.9383C13.3388 30.9138 14.7786 27.6251 17.1365 25.0436C16.7538 24.115 15.4923 20.3658 17.4935 15.2881C17.4935 15.2881 20.5885 14.2973 27.6318 19.0668C30.5715 18.2497 33.7246 17.8404 36.8569 17.8265C39.9892 17.8404 43.1446 18.2497 46.0902 19.0668C53.1251 14.2973 56.2157 15.2881 56.2157 15.2881C58.2218 20.3658 56.9598 24.115 56.5771 25.0436C58.9401 27.6251 60.3701 30.9135 60.3701 34.9383C60.3701 49.0967 51.748 52.2145 43.5409 53.127C44.8628 54.271 46.0407 56.5145 46.0407 59.9535C46.0407 64.8858 45.9979 68.8557 45.9979 70.0699C45.9979 71.0509 46.6613 72.2004 48.5298 71.8384C63.1662 66.9585 73.7135 53.1455 73.7135 36.8635C73.7135 16.5041 57.2118 0 36.8569 0Z" fill="#161614"/>
<path d="M13.8041 52.5128C13.7231 52.6958 13.4346 52.7507 13.1725 52.6253C12.9051 52.505 12.7548 52.2552 12.8415 52.0713C12.921 51.8828 13.2095 51.8302 13.4763 51.9568C13.7442 52.0768 13.8968 52.3289 13.8041 52.5128ZM15.6171 54.1307C15.4413 54.2937 15.0976 54.218 14.8643 53.9604C14.6233 53.7034 14.5782 53.3599 14.7565 53.1942C14.9378 53.0315 15.2711 53.1075 15.5127 53.3648C15.7538 53.6247 15.8006 53.9662 15.6168 54.131M16.8609 56.2007C16.6348 56.3577 16.2654 56.2106 16.0374 55.8827C15.8116 55.5551 15.8116 55.162 16.0423 55.0044C16.2712 54.8468 16.6348 54.9885 16.8661 55.3137C17.0916 55.6471 17.0916 56.0403 16.8606 56.201M18.9641 58.5984C18.7621 58.821 18.3319 58.7614 18.0169 58.4573C17.6948 58.1601 17.6049 57.7382 17.8076 57.5153C18.0119 57.2921 18.4447 57.3549 18.7621 57.6564C19.082 57.9531 19.1795 58.3781 18.9641 58.5984ZM21.6825 59.4079C21.5937 59.6964 21.1792 59.8277 20.7618 59.7051C20.345 59.5787 20.0721 59.2405 20.1562 58.9488C20.2429 58.6582 20.6592 58.5215 21.0798 58.6527C21.496 58.7785 21.7692 59.1141 21.6825 59.4079ZM24.7766 59.7511C24.787 60.0552 24.4329 60.3073 23.9947 60.3128C23.5538 60.3223 23.1974 60.0763 23.1928 59.7774C23.1928 59.4703 23.5388 59.2205 23.9793 59.2133C24.4176 59.2046 24.7766 59.4489 24.7766 59.7511ZM27.8158 59.6345C27.8684 59.9312 27.5637 60.2359 27.1287 60.3169C26.7009 60.3949 26.3049 60.2119 26.2502 59.9179C26.197 59.6137 26.5075 59.3093 26.9344 59.2304C27.3703 59.1546 27.7603 59.333 27.8158 59.6345Z" fill="#161614"/>
</g>
<defs>
<clipPath id="clip0_1750_786">
<rect width="74" height="72" fill="white"/>
</clipPath>
</defs>
</svg>
