<svg width="50" height="92" viewBox="0 0 50 92" fill="none" xmlns="http://www.w3.org/2000/svg">
<path fill-rule="evenodd" clip-rule="evenodd" d="M16.2069 48.3641C16.2069 48.3641 13.8184 49.7539 17.9086 50.2234C22.8651 50.7894 25.3968 50.708 30.8571 49.675C30.8571 49.675 32.2946 50.5751 34.3013 51.3538C22.0573 56.6004 6.59116 51.0504 16.2069 48.3641ZM14.7102 41.5176C14.7102 41.5176 12.0307 43.5009 16.1245 43.9242C21.4192 44.4711 25.5986 44.5157 32.8352 43.1232C32.8352 43.1232 33.8344 44.1375 35.4069 44.6915C20.6052 49.0208 4.12016 45.0324 14.7102 41.5176Z" fill="#3174B9"/>
<path fill-rule="evenodd" clip-rule="evenodd" d="M27.3221 29.9027C30.3404 33.3771 26.5309 36.5018 26.5309 36.5018C26.5309 36.5018 34.1914 32.5481 30.673 27.5952C27.388 22.9784 24.8682 20.6849 38.5077 12.7754C38.5077 12.7754 17.0973 18.1205 27.3221 29.9027Z" fill="#CA3132"/>
<path fill-rule="evenodd" clip-rule="evenodd" d="M43.5152 53.4287C43.5152 53.4287 45.2833 54.8865 41.5677 56.0138C34.5023 58.1539 12.1554 58.7992 5.94805 56.0989C3.71829 55.1278 7.90182 53.7815 9.21799 53.4972C10.5907 53.2004 11.3741 53.2544 11.3741 53.2544C8.89271 51.5071 -4.66485 56.6862 4.48869 58.172C29.4487 62.2191 49.9887 56.35 43.5152 53.4287ZM17.3563 34.4233C17.3563 34.4233 5.99059 37.1236 13.332 38.1052C16.4328 38.5197 22.6095 38.4243 28.3676 37.9413C33.072 37.5465 37.794 36.7019 37.794 36.7019C37.794 36.7019 36.1365 37.4131 34.9355 38.2318C23.3919 41.2683 1.09529 39.854 7.5148 36.7501C12.9424 34.1245 17.3563 34.4233 17.3563 34.4233ZM37.7468 45.8196C49.4803 39.7238 44.0553 33.8646 40.2676 34.6542C39.3416 34.8477 38.926 35.0148 38.926 35.0148C38.926 35.0148 39.2715 34.4742 39.9283 34.2418C47.4202 31.6089 53.1808 42.0091 37.5128 46.1278C37.5123 46.1278 37.6928 45.9649 37.7468 45.8196Z" fill="#3174B9"/>
<path fill-rule="evenodd" clip-rule="evenodd" d="M30.6729 0C30.6729 0 37.1697 6.50096 24.5092 16.4944C14.3559 24.5139 22.1943 29.085 24.5061 34.3097C18.5783 28.9625 14.2304 24.2545 17.147 19.8738C21.4291 13.4434 33.2944 10.325 30.6729 0Z" fill="#CA3132"/>
<path fill-rule="evenodd" clip-rule="evenodd" d="M18.5104 62.3433C29.7713 63.0634 47.0673 61.9433 47.4776 56.6138C47.4776 56.6138 46.6901 58.6339 38.17 60.2365C28.5574 62.046 16.6994 61.8354 9.6687 60.6749C9.6687 60.6749 11.1094 61.867 18.5104 62.3433Z" fill="#3174B9"/>
<path fill-rule="evenodd" clip-rule="evenodd" d="M46.9573 71.9002H46.6149V71.7082H47.5389V71.9002H47.1964V72.8589H46.9573V71.9002ZM48.8011 71.9479H48.7969L48.4566 72.8584H48.3004L47.9622 71.9479H47.958V72.8584H47.7308V71.7077H48.0644L48.3777 72.5217L48.6911 71.7077H49.0215V72.8584H48.8016L48.8011 71.9479ZM16.6651 82.704C15.6031 83.6243 14.4805 84.1421 13.4725 84.1421C12.0365 84.1421 11.2572 83.2793 11.2572 81.8988C11.2572 80.4042 12.0915 79.3106 15.4304 79.3106H16.6646L16.6651 82.704ZM19.5963 86.0107V75.774C19.5963 73.1577 18.1042 71.4312 14.5075 71.4312C12.409 71.4312 10.5693 71.9494 9.07365 72.6099L9.50424 74.423C10.6824 73.9904 12.2056 73.5893 13.7007 73.5893C15.7728 73.5893 16.6646 74.423 16.6646 76.149V77.4434H15.6291C10.5958 77.4434 8.32451 79.3962 8.32451 82.332C8.32451 84.8616 9.82123 86.2997 12.6388 86.2997C14.4499 86.2997 15.8029 85.5521 17.0661 84.458L17.296 86.0107H19.5963ZM29.3791 86.0107H25.7242L21.3233 71.6916H24.516L27.2474 80.4908L27.8554 83.1346C29.2333 79.3106 30.2112 75.4284 30.7005 71.6916H33.8049C32.9738 76.4064 31.4766 81.5829 29.3791 86.0107ZM43.4056 82.704C42.3406 83.6243 41.2179 84.1421 40.212 84.1421C38.776 84.1421 37.9978 83.2793 37.9978 81.8988C37.9978 80.4042 38.8325 79.3106 42.1694 79.3106H43.4056V82.704ZM46.3379 86.0107V75.774C46.3379 73.1577 44.8411 71.4312 41.248 71.4312C39.1474 71.4312 37.3083 71.9494 35.8126 72.6099L36.2432 74.423C37.4214 73.9904 38.9477 73.5893 40.4434 73.5893C42.5123 73.5893 43.4051 74.423 43.4051 76.149V77.4434H42.3696C37.3358 77.4434 35.0661 79.3962 35.0661 82.332C35.0661 84.8616 36.5597 86.2997 39.3778 86.2997C41.1904 86.2997 42.5413 85.5521 43.8077 84.458L44.0386 86.0107H46.3379ZM5.11061 88.4439C4.27535 89.6646 2.92442 90.6311 1.44743 91.1763L0 89.4716C1.12526 88.8942 2.08917 87.9619 2.53792 87.0945C2.92442 86.3215 3.08577 85.3275 3.08577 82.9483V66.5986H6.2011V82.7226C6.2011 85.9049 5.9469 87.191 5.11061 88.4439Z" fill="#CA3132"/>
</svg>
