<svg width="32" height="32" viewBox="0 0 32 32" fill="none" xmlns="http://www.w3.org/2000/svg">
<path fill-rule="evenodd" clip-rule="evenodd" d="M2.365 0C1.05925 0 0 1.02289 0 2.28308V29.5897C0 30.85 1.05938 31.872 2.365 31.872H29.635C30.9412 31.872 32 30.8499 32 29.5893V2.28308C32 1.02289 30.9412 0 29.635 0H2.365ZM9.7245 12.3235V26.6723H4.936V12.3235H9.7245ZM10.0401 7.88591C10.0401 9.26288 9.00075 10.3647 7.33125 10.3647L7.33087 10.3646H7.29987C5.69275 10.3646 4.65375 9.26276 4.65375 7.88579C4.65375 6.47757 5.72412 5.40649 7.363 5.40649C9.00075 5.40649 10.0089 6.47757 10.0401 7.88591ZM17.1631 26.6723H12.375L12.3749 26.6728C12.3749 26.6728 12.4377 13.6701 12.3752 12.324H17.1635V14.355C17.8 13.3775 18.9392 11.9871 21.4791 11.9871C24.6295 11.9871 26.9915 14.038 26.9915 18.4451V26.6723H22.2035V18.9969C22.2035 17.0678 21.5101 15.7521 19.7779 15.7521C18.4547 15.7521 17.6669 16.6394 17.3209 17.4966C17.1944 17.8025 17.1631 18.2319 17.1631 18.6601V26.6723Z" fill="#F1F1EF"/>
</svg>
