<svg width="73" height="72" viewBox="0 0 73 72" fill="none" xmlns="http://www.w3.org/2000/svg">
<path d="M64.9922 13.9963C60.6401 8.36069 54.7145 4.14224 47.9647 1.87451C41.215 -0.393221 33.9444 -0.608368 27.0724 1.25628C20.2004 3.12093 14.0357 6.98161 9.35794 12.3501C4.68022 17.7185 1.69958 24.3536 0.793002 31.4161C-0.113578 38.4787 1.09462 45.6514 4.2648 52.0273C7.43498 58.4031 12.4247 63.6956 18.603 67.2355C24.7812 70.7753 31.8705 72.4035 38.9741 71.914C46.0778 71.4245 52.8768 68.8395 58.5111 64.4857C74.2385 52.3314 77.142 29.7293 64.9922 13.9963Z" fill="#FF6C37"/>
<path d="M48.6419 22.938L33.4624 38.2378L29.1729 33.8278C44.1127 18.888 45.6112 20.238 48.6419 22.938Z" fill="white"/>
<path d="M33.4624 38.6562C33.328 38.6529 33.1996 38.5995 33.1024 38.5065L28.7825 34.1866C28.6852 34.0859 28.6309 33.9514 28.6309 33.8114C28.6309 33.6714 28.6852 33.5369 28.7825 33.4362C43.5119 18.7068 45.5223 19.3964 49.0019 22.5464C49.0601 22.593 49.1067 22.6525 49.138 22.7203C49.1692 22.788 49.1842 22.8621 49.1819 22.9367C49.2044 23.083 49.1481 23.2326 49.0322 23.3271L33.8528 38.5077C33.7464 38.6052 33.6068 38.6576 33.4624 38.6562ZM29.9221 33.8266L33.4624 37.3669L47.8623 22.9671C47.3651 22.344 46.6556 21.9261 45.8696 21.7933C45.0836 21.6604 44.2763 21.822 43.6019 22.2471C40.992 23.4171 36.7924 26.9867 29.9221 33.8266Z" fill="#FF6C37"/>
<path d="M37.8128 42.4675L33.6729 38.2375L48.8523 23.2369C52.9326 27.2273 46.8723 33.8883 37.8128 42.4675Z" fill="white"/>
<path d="M37.8123 43.0074C37.6795 42.9968 37.5535 42.9444 37.4523 42.8577L33.2224 38.7178C33.1589 38.5639 33.1589 38.3912 33.2224 38.2374C33.1774 38.1112 33.1774 37.9733 33.2224 37.847L48.4018 22.6676C48.5074 22.5684 48.6468 22.5132 48.7916 22.5132C48.9365 22.5132 49.0759 22.5684 49.1814 22.6676C49.673 23.12 50.0614 23.673 50.3202 24.289C50.5789 24.9049 50.702 25.5694 50.6811 26.2372C50.6811 30.2871 46.0607 35.3867 38.2016 42.8274C38.0966 42.9313 37.9595 42.995 37.8123 43.0074ZM34.452 38.2374L37.8416 41.6259C43.8411 35.9559 49.5718 30.106 49.6011 26.1461C49.6337 25.3066 49.3562 24.4844 48.8215 23.8365L34.452 38.2374Z" fill="#FF6C37"/>
<path d="M29.2919 33.9178L32.2923 36.9181C32.3114 36.935 32.3268 36.9558 32.3373 36.9791C32.3478 37.0023 32.3532 37.0276 32.3532 37.0531C32.3532 37.0787 32.3478 37.1039 32.3373 37.1272C32.3268 37.1505 32.3114 37.1712 32.2923 37.1881L25.962 38.5381C25.8342 38.5657 25.7009 38.5507 25.5824 38.4956C25.4639 38.4404 25.3666 38.348 25.3055 38.2325C25.2443 38.1169 25.2226 37.9845 25.2436 37.8555C25.2647 37.7265 25.3273 37.6079 25.422 37.5177L29.1119 33.8582C29.1119 33.8582 29.2323 33.8582 29.2919 33.9178Z" fill="white"/>
<path d="M25.8123 39.1377C25.6123 39.1352 25.4163 39.0815 25.243 38.9816C25.0697 38.8817 24.9248 38.7391 24.8223 38.5674C24.707 38.3498 24.6651 38.1007 24.7031 37.8574C24.741 37.6141 24.8566 37.3895 25.0327 37.2174L28.6923 33.5274C28.8243 33.4094 28.9951 33.3442 29.1721 33.3442C29.3491 33.3442 29.5199 33.4094 29.6519 33.5274L32.6522 36.5278C32.83 36.6965 32.8997 36.9519 32.8322 37.1881C32.7647 37.4244 32.5667 37.6122 32.3226 37.6685L25.9923 39.0185L25.8123 39.1377ZM29.1727 34.5782L25.7831 37.9677L31.3934 36.7674L29.1727 34.5782Z" fill="#FF6C37"/>
<path d="M56.7125 14.507C54.5413 12.4123 51.1304 12.3246 48.8534 14.3012C46.5764 16.2778 46.1872 19.6707 47.9601 22.1119C49.7331 24.5532 53.0755 25.2372 55.6629 23.6869L51.5826 19.6066L56.7125 14.507Z" fill="white"/>
<path d="M52.6624 25.0663C51.415 25.0503 50.1998 24.6676 49.1684 23.9658C48.137 23.264 47.3348 22.2743 46.862 21.1198C46.3895 19.9662 46.2655 18.6994 46.5054 17.4762C46.7454 16.2529 47.3387 15.1267 48.212 14.2371C49.413 13.0581 51.0289 12.3976 52.7119 12.3976C54.395 12.3976 56.0108 13.0581 57.2119 14.2371C57.3266 14.3339 57.3919 14.4768 57.3919 14.6275C57.3916 14.7017 57.3754 14.7749 57.3443 14.8423C57.3133 14.9096 57.2681 14.9695 57.2119 15.0179L52.3519 19.6078L56.0419 23.2382C56.1017 23.2953 56.1466 23.3661 56.1726 23.4446C56.1987 23.523 56.2052 23.6066 56.1915 23.6882C56.1826 23.7668 56.1565 23.8426 56.1151 23.91C56.0737 23.9775 56.018 24.035 55.9519 24.0785C54.9606 24.6982 53.821 25.0401 52.6523 25.0685L52.6624 25.0663ZM52.6624 13.426C50.5249 13.4373 48.6125 14.7231 47.8104 16.6885C47.0082 18.6538 47.4447 20.9162 48.9432 22.4259C49.6886 23.1756 50.6429 23.6827 51.6813 23.8808C52.7197 24.079 53.7938 23.9589 54.7628 23.5363L51.2224 19.996C51.1662 19.951 51.1207 19.8939 51.0895 19.8289C51.0583 19.764 51.0421 19.6928 51.0421 19.6208C51.0421 19.5487 51.0583 19.4776 51.0895 19.4126C51.1207 19.3477 51.1662 19.2906 51.2224 19.2456L55.9024 14.5353C54.9721 13.8223 53.8345 13.4336 52.6624 13.426Z" fill="#FF6C37"/>
<path d="M56.8018 14.5973L51.6719 19.6969L55.7522 23.7772C56.1629 23.5414 56.5452 23.2595 56.8918 22.9368C57.9612 21.8065 58.5496 20.3048 58.5328 18.7489C58.516 17.1929 57.8954 15.7043 56.8018 14.5973Z" fill="white"/>
<path d="M55.6612 24.2271C55.5938 24.2308 55.5265 24.2192 55.4642 24.1933C55.4019 24.1674 55.3462 24.1278 55.3012 24.0775L51.2209 19.9972C51.1646 19.9522 51.1192 19.8951 51.088 19.8301C51.0567 19.7652 51.0405 19.694 51.0405 19.622C51.0405 19.5499 51.0567 19.4788 51.088 19.4138C51.1192 19.3489 51.1646 19.2918 51.2209 19.2468L56.3205 14.2372C56.3697 14.163 56.4366 14.1021 56.5151 14.0599C56.5936 14.0178 56.6814 13.9957 56.7705 13.9957C56.8596 13.9957 56.9473 14.0178 57.0258 14.0599C57.1043 14.1021 57.1712 14.163 57.2205 14.2372C57.8191 14.8238 58.2947 15.5239 58.6194 16.2966C58.9441 17.0693 59.1114 17.899 59.1114 18.7372C59.1114 19.5753 58.9441 20.405 58.6194 21.1777C58.2947 21.9504 57.8191 22.6505 57.2205 23.2371C56.8673 23.6117 56.4632 23.9347 56.0201 24.1967C55.9085 24.253 55.7807 24.2639 55.6612 24.2271ZM52.3616 19.6079L55.7512 22.9975C55.9844 22.8341 56.2051 22.6536 56.4116 22.4575C57.408 21.4638 57.9692 20.1152 57.972 18.7079C57.9742 17.4486 57.5152 16.2319 56.6816 15.288L52.3616 19.6079Z" fill="#FF6C37"/>
<path d="M49.2717 23.5678C48.8653 23.1863 48.3289 22.9739 47.7715 22.9739C47.2141 22.9739 46.6777 23.1863 46.2713 23.5678L32.6826 37.1262L34.9326 39.4065L49.302 26.8067C49.5212 26.5966 49.695 26.344 49.8128 26.0643C49.9306 25.7845 49.9899 25.4836 49.9871 25.1801C49.9843 24.8766 49.9193 24.5769 49.7963 24.2994C49.6732 24.0219 49.4947 23.7737 49.2717 23.5678Z" fill="white"/>
<path d="M34.812 39.9475C34.6775 39.9442 34.5492 39.8909 34.452 39.7979L32.1716 37.5176C32.0744 37.4169 32.02 37.2824 32.02 37.1424C32.02 37.0024 32.0744 36.8679 32.1716 36.7672L45.7615 23.237C46.1529 22.846 46.6528 22.5817 47.1962 22.4783C47.7397 22.3748 48.3017 22.437 48.8094 22.6569C49.3171 22.8767 49.747 23.244 50.0434 23.7111C50.3399 24.1782 50.4891 24.7236 50.4718 25.2766C50.4562 25.6519 50.3659 26.0204 50.2062 26.3603C50.0464 26.7003 49.8204 27.005 49.5414 27.2566L35.172 39.8564C35.0675 39.9304 34.939 39.9636 34.812 39.9475ZM33.2224 37.1261L34.722 38.6561L48.8214 26.3858C49.1702 26.0821 49.3783 25.6478 49.3918 25.1855C49.4053 24.7231 49.2231 24.2709 48.8822 23.9559C48.5674 23.6424 48.1413 23.4664 47.697 23.4664C47.2528 23.4664 46.8266 23.6424 46.5119 23.9559L33.2224 37.1261Z" fill="#FF6C37"/>
<path d="M22.1523 52.5766C22.1139 52.6287 22.0932 52.6918 22.0932 52.7566C22.0932 52.8213 22.1139 52.8844 22.1523 52.9366L22.7519 55.5465C22.776 55.7001 22.7532 55.8574 22.6866 55.9979C22.6199 56.1383 22.5126 56.2555 22.3784 56.334C22.2448 56.4122 22.0898 56.4459 21.9357 56.4304C21.7816 56.4148 21.6365 56.3507 21.5212 56.2474L17.4116 52.2875L30.2218 39.376H34.6622L37.6625 42.3763C32.9822 46.4684 27.7637 49.9003 22.1523 52.5766Z" fill="white"/>
<path d="M21.883 56.9867C21.5433 56.9799 21.208 56.8404 20.983 56.5963L17.0534 52.6667C16.9971 52.6217 16.9517 52.5646 16.9205 52.4997C16.8893 52.4348 16.873 52.3636 16.873 52.2916C16.873 52.2195 16.8893 52.1484 16.9205 52.0834C16.9517 52.0185 16.9971 51.9614 17.0534 51.9164L29.9525 38.9869C30.0248 38.9101 30.1191 38.8578 30.2225 38.8373H34.6921C34.8086 38.7961 34.9356 38.7961 35.0521 38.8373L38.0524 41.8376C38.1095 41.8902 38.1529 41.9559 38.179 42.029C38.205 42.1021 38.213 42.1804 38.2021 42.2572C38.2042 42.3318 38.189 42.4058 38.1578 42.4735C38.1266 42.5412 38.0801 42.6008 38.0221 42.6476L37.7824 42.858C33.0833 46.7755 27.9133 50.091 22.3926 52.7275L22.963 55.1575C23.0071 55.3449 23.0088 55.5398 22.9679 55.728C22.9271 55.9162 22.8448 56.0929 22.7269 56.2452C22.6091 56.3976 22.4588 56.5217 22.2869 56.6085C22.115 56.6953 21.9259 56.7426 21.7334 56.7471L21.883 56.9867ZM18.2234 52.2764L21.7626 55.846C21.7956 55.8754 21.8382 55.8916 21.8824 55.8916C21.9266 55.8916 21.9693 55.8754 22.0022 55.846C22.0243 55.8153 22.0362 55.7785 22.0362 55.7408C22.0362 55.703 22.0243 55.6662 22.0022 55.6356L21.4026 53.0256C21.3554 52.8383 21.3744 52.6404 21.4564 52.4655C21.5384 52.2906 21.6784 52.1494 21.8526 52.066C27.2249 49.4647 32.2616 46.2209 36.8521 42.4057L34.3917 39.9454H30.3721L18.2234 52.2764Z" fill="#FF6C37"/>
<path d="M14.3227 55.3665L17.3231 52.3662L21.9434 56.9865L14.5938 56.4769C14.4676 56.467 14.3478 56.4175 14.2514 56.3355C14.155 56.2534 14.087 56.1431 14.0571 56.0201C14.0271 55.8971 14.0368 55.7678 14.0847 55.6506C14.1326 55.5335 14.2163 55.4345 14.3238 55.3677L14.3227 55.3665Z" fill="white"/>
<path d="M22.0322 57.4367L14.7119 56.9271C14.2777 56.8866 13.9042 56.5896 13.7512 56.1924C13.5982 55.7953 13.6916 55.3239 13.9919 55.0067L16.9923 52.0064C17.093 51.9091 17.2275 51.8547 17.3675 51.8547C17.5075 51.8547 17.642 51.9091 17.7426 52.0064L22.3326 56.5963C22.3961 56.6834 22.4304 56.7883 22.4304 56.8961C22.4304 57.0039 22.3961 57.1089 22.3326 57.1959C22.2632 57.3081 22.157 57.3939 22.0322 57.4367ZM14.7119 55.7571L20.7115 56.1474L17.4119 53.0571L14.7119 55.7571Z" fill="#FF6C37"/>
<path d="M35.0818 39.7382L29.0215 40.6685L32.5314 37.189L35.0818 39.7382Z" fill="white"/>
<path d="M29.0216 41.237C28.9208 41.2396 28.8216 41.2125 28.7362 41.1591C28.6507 41.1057 28.5829 41.0283 28.5412 40.9366C28.4773 40.8497 28.4429 40.7446 28.4429 40.6368C28.4429 40.5289 28.4773 40.4239 28.5412 40.337L32.0208 36.827C32.1263 36.7278 32.2657 36.6726 32.4106 36.6726C32.5554 36.6726 32.6948 36.7278 32.8004 36.827L35.3519 39.3762C35.4028 39.4571 35.4299 39.5507 35.4299 39.6462C35.4299 39.7418 35.4028 39.8354 35.3519 39.9162C35.3268 40.0147 35.274 40.104 35.1995 40.1732C35.1251 40.2424 35.0323 40.2888 34.9322 40.3066L28.9327 41.237H29.0216ZM32.5315 37.9666L30.5819 39.9162L33.9423 39.4066L32.5315 37.9666Z" fill="#FF6C37"/>
<path d="M35.0823 39.7359L30.8524 40.2759C30.7392 40.3016 30.6207 40.2901 30.5146 40.2432C30.4084 40.1963 30.3202 40.1164 30.263 40.0154C30.2058 39.9144 30.1827 39.7976 30.197 39.6824C30.2114 39.5672 30.2625 39.4597 30.3428 39.3759L32.5331 37.1855L35.0823 39.7359Z" fill="white"/>
<path d="M30.7317 40.8476C30.5356 40.8457 30.3436 40.7919 30.175 40.6917C30.0065 40.5916 29.8674 40.4485 29.7721 40.2772C29.6575 40.0718 29.6131 39.8347 29.6456 39.6018C29.6781 39.3689 29.7857 39.153 29.9521 38.9868L32.1424 36.7965C32.248 36.6973 32.3874 36.6421 32.5323 36.6421C32.6771 36.6421 32.8165 36.6973 32.9221 36.7965L35.4724 39.3468C35.5483 39.4187 35.6016 39.511 35.626 39.6126C35.6505 39.7142 35.6449 39.8207 35.61 39.9191C35.5751 40.0176 35.5124 40.1039 35.4295 40.1674C35.3465 40.231 35.247 40.2691 35.1428 40.2772L30.9432 40.8172L30.7317 40.8476ZM30.7317 39.7372L33.9121 39.3468L32.5024 37.9372L30.7025 39.7372H30.7317ZM56.8314 18.0475C56.7749 17.9528 56.6856 17.8822 56.5805 17.849C56.4753 17.8158 56.3617 17.8224 56.261 17.8675C56.2114 17.8926 56.1673 17.9275 56.1313 17.97C56.0954 18.0125 56.0683 18.0618 56.0518 18.115C56.0184 18.2222 56.0289 18.3383 56.081 18.4378C56.2914 18.8799 56.2329 19.4031 55.9314 19.7878C55.894 19.8249 55.8646 19.8693 55.8453 19.9183C55.8259 19.9673 55.8169 20.0198 55.8189 20.0724C55.82 20.1779 55.8601 20.2793 55.9314 20.3571C56.0084 20.3874 56.0941 20.3874 56.171 20.3571C56.2409 20.3746 56.3142 20.3727 56.3831 20.3515C56.4519 20.3302 56.5136 20.2905 56.5614 20.2367C56.8084 19.9342 56.9649 19.5681 57.0127 19.1805C57.0604 18.7929 56.9976 18.4008 56.8314 18.0475Z" fill="#FF6C37"/>
</svg>
