<svg width="32" height="32" viewBox="0 0 32 32" fill="none" xmlns="http://www.w3.org/2000/svg">
<g clip-path="url(#clip0_740_1243)">
<path d="M32 6.07569C30.8232 6.59712 29.559 6.94945 28.2301 7.10869C29.5858 6.29696 30.6259 5.00879 31.1163 3.47545C29.8479 4.22807 28.4428 4.77485 26.9476 5.06799C25.7496 3.79402 24.0444 2.99634 22.1559 2.99634C18.5311 2.99634 15.5913 5.93616 15.5913 9.56374C15.5915 10.0665 15.6482 10.5676 15.7604 11.0577C10.3021 10.7828 5.46674 8.1685 2.22814 4.19706C1.66447 5.16949 1.34026 6.29696 1.34026 7.49768C1.34026 9.77508 2.50019 11.7862 4.26037 12.963C3.21787 12.9298 2.19837 12.6481 1.28672 12.1414V12.2259C1.28672 15.4067 3.54869 18.0605 6.55335 18.6637C5.98954 18.8158 5.40807 18.8926 4.8241 18.892C4.40941 18.8923 3.99561 18.8537 3.58817 18.7765C4.42389 21.3836 6.84793 23.2834 9.72153 23.3342C7.47361 25.0958 4.64232 26.1457 1.56717 26.1457C1.03727 26.1457 0.514398 26.1147 0 26.0541C2.90605 27.9187 6.35606 29.0038 10.0626 29.0038C22.1404 29.0038 28.7431 19.0005 28.7431 10.3248C28.7431 10.0429 28.736 9.7582 28.7233 9.47637C30.0058 8.549 31.1192 7.3948 31.9971 6.0799L32 6.07569Z" fill="#F1F1EF"/>
</g>
<defs>
<clipPath id="clip0_740_1243">
<rect width="32" height="32" fill="white"/>
</clipPath>
</defs>
</svg>
